<svg width="291" height="527" viewBox="0 0 291 527" fill="none" xmlns="http://www.w3.org/2000/svg">
<g clip-path="url(#clip0_1_8131)">
<path fill-rule="evenodd" clip-rule="evenodd" d="M258.709 1.64131C244.471 9.01062 230.38 28.4081 216.311 60.0025C211.697 70.3687 202.783 89.1115 202.571 88.8993C202.484 88.8124 202.974 85.3783 203.664 81.2666C206.352 65.2137 206.411 54.9243 203.897 40.0783C202.829 33.765 200.23 27.7279 197.057 24.189C194.829 21.7036 193.414 20.9288 191.109 20.9288C186.621 20.9288 183.355 25.0354 181.741 32.7064C180.203 40.022 181.043 43.9931 186.733 56.3128C189.155 61.5598 192.193 68.6734 193.483 72.1228C194.773 75.5696 196.086 79.0472 196.401 79.8526C196.712 80.6581 196.978 81.8087 196.988 82.4122C196.998 83.0156 197.308 84.3325 197.675 85.3374C199.541 90.4361 199.579 90.9705 198.381 95.724C197.415 99.5518 196.268 102.096 189.523 115.375C185.264 123.762 178.09 138.053 173.586 147.13L165.392 163.633L165.119 151.937C164.955 144.895 164.587 138.531 164.194 135.946C163.55 131.696 163.555 131.612 164.59 127.38C165.167 125.027 166.051 120.673 166.555 117.699C167.395 112.741 167.433 111.856 166.991 107.041C166.294 99.4316 163.875 88.5592 160.586 78.2596C158.606 72.0588 157.705 70.1232 155.914 68.2208C152.533 64.6307 149.447 64.8123 147.503 68.7168C144.516 74.7079 147.472 89.9119 157.546 120.389C161.473 132.271 162.27 135.859 162.612 143.154L162.883 148.997L160.921 147.268C159.84 146.317 157.656 144.767 156.064 143.821C151.19 140.924 148.027 138.14 147.01 135.854C146.514 134.734 144.708 131.407 143.001 128.461C141.292 125.516 138.558 120.379 136.926 117.044C133.622 110.307 130.091 105.216 128.569 104.998C126.842 104.753 126.397 105.586 126.402 109.051C126.415 117.124 130.025 123.601 140.362 134.105C147.235 141.088 149.072 142.632 154.337 145.854C156.264 147.033 158.913 148.841 160.229 149.874L162.618 151.753L162.896 157.489C163.047 160.641 163.341 163.937 163.548 164.809C163.892 166.272 163.655 166.983 160.466 174.002C150.313 196.37 142.641 219.34 133.806 253.824L131.578 262.518L129.399 254.45C128.203 250.014 126.195 243.156 124.941 239.208L122.659 232.033L124.501 224.582C127.256 213.451 127.388 212.362 127.102 203.343C126.903 197.058 126.635 194.476 125.825 190.978C123.661 181.622 120.191 173.447 117.312 170.918C115.72 169.519 114.295 169.466 112.368 170.729C111.119 171.547 109.589 174.843 109.374 177.18C109.131 179.791 110.488 186.112 113.209 195.051C116.574 206.11 116.783 207.141 117.228 214.743C117.695 222.715 119.07 230.425 121.188 236.953C121.967 239.362 122.552 241.387 122.483 241.453C122.417 241.522 120.309 238.239 117.8 234.161C112.92 226.226 109.586 221.777 106.431 218.982C103.396 216.295 98.5234 213.139 96.0886 212.283C93.1097 211.234 88.2682 210.524 85.6188 210.743C80.716 211.15 75.8234 217.218 77.6144 220.665C78.7589 222.864 84.9852 225.912 91.0096 227.218C94.5097 227.98 102.154 231.499 106.962 234.562C108.807 235.736 112.128 238.259 114.348 240.17C116.566 242.082 119.277 244.171 120.368 244.813C122.051 245.803 122.657 246.549 124.366 249.751C126.42 253.596 128.41 259.682 129.524 265.512L130.145 268.759L127.452 282.227C125.97 289.635 124.243 299.247 123.612 303.591L122.465 311.485L121.042 309.858C120.258 308.963 118.165 306.445 116.387 304.261C104.624 289.811 91.5946 277.302 78.7385 268.115C72.0473 263.331 66.1992 258.626 63.7823 256.082C62.5866 254.824 62.165 253.778 60.9872 249.18C58.2765 238.594 55.1902 231.593 47.2344 217.967C36.1411 198.968 32.899 194.131 29.3503 191.279C27.2987 189.63 25.2931 189.566 23.7602 191.1C20.7863 194.074 22.8609 202.505 30.1167 216.929C33.4202 223.493 35.0221 226.065 40.6862 233.877C48.1286 244.148 51.7412 248.357 60.2259 256.644C65.8236 262.111 69.6917 265.3 75.4274 269.174L78.1432 271.007L76.8888 271.311C76.199 271.478 74.0682 271.905 72.1546 272.257C69.1117 272.82 68.4935 272.828 67.239 272.304C65.2488 271.473 59.4109 267.394 53.7007 262.848C45.4127 256.248 41.3019 253.717 37.6153 252.944C33.2337 252.024 29.0513 253.931 29.0513 256.849C29.0513 259.905 32.8709 261.943 44.3014 264.98C46.1383 265.469 49.9527 266.635 52.7759 267.568C55.599 268.504 58.021 269.156 58.1616 269.015C58.2995 268.877 59.0915 269.299 59.9219 269.954C60.7522 270.608 62.326 271.71 63.422 272.403L65.4148 273.661L60.4993 274.638C56.2301 275.484 54.3216 275.615 46.0463 275.625C37.1298 275.635 36.4835 275.584 36.0721 274.848C35.1013 273.117 32.4621 270.621 29.478 268.616C26.3432 266.512 22.1276 263.316 17.769 259.738C14.8437 257.337 9.54233 254.202 7.8229 253.86C6.03704 253.502 4.51689 254.532 4.17965 256.33C3.87817 257.936 5.14284 262.096 6.66298 264.507C8.3492 267.177 12.3169 270.447 15.9321 272.145C31.2281 279.335 47.0325 280.537 66.4445 275.983C73.5777 274.311 75.8336 273.874 78.8458 273.587L81.6357 273.321L85.1614 276.149C94.198 283.401 104.916 293.977 113.865 304.471C116.022 307 118.799 310.15 120.035 311.474C121.921 313.492 122.248 314.065 122.054 315.026C121.717 316.696 120.332 327.177 118.865 339.157C117.723 348.479 114.371 374.413 113.551 380.258L113.237 382.493L111.244 379.189C108.127 374.019 104.573 365.801 101.612 356.918C100.12 352.435 98.5004 347.848 98.015 346.723C97.1949 344.823 97.1796 344.623 97.8157 343.923C98.6869 342.956 98.5183 339.926 96.9982 329.335C95.0028 315.42 93.6615 310.073 91.0453 305.598C89.3949 302.781 86.0787 299.423 83.907 298.37C82.2668 297.577 81.8376 297.526 80.4068 297.955C76.5336 299.116 76.1938 304.969 79.436 314.709C80.3813 317.542 82.8084 322.728 86.2907 329.335C91.8603 339.913 94.778 345.866 96.3084 349.776L97.1924 352.036L94.4689 349.487C91.4337 346.646 87.5298 344.232 83.2044 342.522C76.1913 339.745 71.2476 341.197 71.2476 346.027C71.2476 349.587 74.316 353.207 79.5791 355.859C81.2091 356.68 83.7154 358.068 85.1487 358.943C86.5794 359.82 89.4971 361.436 91.6304 362.535C97.108 365.363 104.052 371.702 106.249 375.883C107.103 377.509 108.968 380.419 110.393 382.355C112.399 385.078 112.941 386.116 112.792 386.96C112.455 388.893 110.565 404.585 109.918 410.824C108.189 427.56 108.094 447.38 109.665 464.107C111.099 479.386 111.832 483.224 115.991 497.269C117.378 501.946 118.434 505.853 118.339 505.948C118.244 506.042 116.87 505.058 115.286 503.757C113.702 502.458 110.782 500.271 108.799 498.898L105.197 496.4L104.985 493.626C104.837 491.649 104.343 489.913 103.273 487.583C98.7917 477.841 83.6234 455.917 69.9727 439.45C66.912 435.76 58.974 427.243 52.2521 420.436C36.6546 404.647 33.1851 400.604 23.7627 387.213C21.0112 383.306 17.442 378.322 15.8273 376.139C14.2152 373.957 11.7497 370.46 10.3522 368.368C6.30019 362.313 4.27929 361.155 1.90837 363.525C0.14295 365.289 -0.342476 368.281 0.224706 373.871C1.193 383.393 3.14748 389.757 8.2419 399.998C12.0487 407.646 17.4011 416.12 22.12 421.968C23.635 423.845 28.3998 429.082 32.7074 433.607C37.0149 438.133 43.6167 445.25 47.3749 449.42C58.7083 461.99 63.1257 466.601 70.1286 473.164C79.6736 482.109 86.0914 487.092 99.8852 496.267C111.518 504.002 118.832 509.474 119.696 511.085C119.915 511.499 121.124 514.665 122.378 518.117C125.071 525.542 125.776 527 126.67 527C127.613 527 127.302 525.402 124.338 514.987C114.813 481.536 113.761 477.184 113.171 468.892C112.981 466.222 113.061 465.644 113.679 465.133C114.29 464.624 117.177 464.517 131.18 464.481C140.405 464.455 148.883 464.299 150.022 464.133C153.323 463.652 164.707 459.781 168.693 457.784C176.332 453.959 180.392 450.768 187.857 442.723C194.403 435.668 205.603 419.063 212.049 406.856C213.02 405.018 214.395 402.478 215.105 401.213C217.013 397.812 223.012 389.376 226.321 385.441C229.376 381.805 232.662 376.607 233.62 373.894C235.063 369.805 233.638 367.051 230.309 367.496C226.714 367.977 220.184 373.732 212.448 383.245C210.486 385.658 207.197 389.701 205.143 392.23C200.859 397.5 189.155 411.167 184.85 415.926C180.668 420.546 168.601 430.884 163.06 434.592C161.279 435.783 159.825 436.707 159.828 436.643C159.83 436.579 161.588 434.712 163.734 432.495C172.288 423.663 179.242 413.67 185.481 401.248C192.446 387.379 196.017 377.315 200.143 359.95C203.163 347.226 208.986 330.887 217.425 311.451C220.355 304.703 221.658 301.055 221.658 299.589C221.658 299.17 221.26 298.431 220.774 297.945C218.081 295.253 211.546 300.177 204.162 310.462C200.402 315.699 198.368 319.179 193.184 329.23C190.844 333.772 187.257 340.589 185.213 344.381C183.166 348.173 179.079 356.071 176.125 361.932C173.172 367.793 168.386 376.913 165.492 382.199C162.595 387.487 157.196 397.83 153.497 405.184C139.93 432.137 137 436.464 119.116 455.905L112.821 462.747L112.44 459.247C112.23 457.324 112.057 448.039 112.057 438.614L112.051 421.482L113.15 417.153C115.11 409.446 119.777 401.049 128.62 389.33C130.712 386.556 133.413 382.981 134.621 381.383C137.838 377.126 139.054 374.561 141.164 367.573C142.207 364.126 143.502 360.134 144.044 358.702C144.971 356.245 145.163 356.033 147.516 354.854C153.241 351.985 156.907 348.318 165.507 336.858C181.145 316.021 182.589 313.74 184.635 306.68C186.794 299.229 186.48 296.968 183.289 296.968C181.922 296.968 180.916 297.436 177.929 299.467C172.298 303.289 168.885 307 163.433 315.213C152.73 331.337 143.17 351.149 138.471 366.946C137.751 369.36 136.629 372.398 135.973 373.697C134.565 376.491 128.38 384.799 128.17 384.173C128.091 383.935 128.311 382.641 128.658 381.299C129.639 377.512 130.97 368.843 131.272 364.287L131.543 360.168L134.626 354.885C138.035 349.042 139.263 345.682 139.601 341.266C139.9 337.323 139.028 335.457 136.798 335.27C134.746 335.096 133.111 336.536 131.645 339.803C129.915 343.662 129.003 348.999 128.479 358.321C128.219 362.95 127.529 370.122 126.944 374.259C126.361 378.396 125.654 383.475 125.373 385.543C124.872 389.248 124.816 389.376 121.494 394.319C119.639 397.075 117.072 401.307 115.789 403.721C114.509 406.135 113.457 407.984 113.452 407.83C113.439 407.222 118.549 366.731 120.299 353.573C121.323 345.874 122.389 337.72 122.667 335.451L123.17 331.33L126.167 327.302C129.379 322.989 132.498 319.294 139.1 311.993C143.701 306.902 147.697 301.996 149.271 299.505C150.513 297.536 153.538 290.461 154.741 286.71C157.549 277.965 158.877 263.062 157.237 258.71C156.212 255.992 153.458 254.75 151.133 255.951C149.133 256.984 147.917 260.107 146.07 268.949C145.158 273.316 143.934 278.959 143.351 281.486C142.766 284.015 141.887 289.415 141.394 293.491C140.574 300.252 140.551 301.062 141.123 302.801L141.749 304.703L138.183 308.766C132.83 314.86 126.517 322.49 125.281 324.354C124.68 325.264 124.121 325.944 124.042 325.863C123.745 325.566 127.692 298.27 129.131 290.678C131.714 277.034 135.326 260.715 137.843 251.328C138.546 248.707 140.316 246.424 143.934 243.481C149.524 238.935 150.819 238.329 156.547 237.582C159.46 237.203 163.601 236.973 166.084 237.05C170.474 237.191 170.476 237.191 173.054 238.96C176.066 241.026 177.06 242.292 178.085 245.37C178.698 247.219 179.13 247.787 180.484 248.541C184.035 250.523 188.532 250.139 191.028 247.641C193.089 245.578 192.946 244.036 190.466 241.658C185.742 237.132 174.728 234.49 162.651 234.986L157.582 235.196L159.059 234.439C159.871 234.022 164.117 232.184 168.496 230.358L176.457 227.034L179.735 227.415C181.536 227.625 183.856 227.768 184.891 227.735C185.926 227.704 188.933 228.006 191.574 228.407C195.195 228.96 197.824 229.082 202.228 228.914C210.92 228.579 215.922 227.305 221.275 224.068C224.931 221.859 226.461 219.908 226.461 217.463C226.461 215.758 226.282 215.415 224.64 213.955C223.638 213.065 222.133 212.15 221.298 211.917C218.378 211.104 213.362 211.436 206.199 212.912C197.175 214.771 192.356 216.359 184.4 220.094C180.801 221.785 175.481 224.117 172.582 225.272C156.864 231.545 148.016 236.319 141.905 241.821C140.421 243.156 139.744 243.568 139.915 243.026C140.058 242.573 141.031 239.101 142.079 235.309C144.286 227.326 147.035 218.1 149.429 210.654C151.036 205.66 151.21 205.335 153.412 203.267C155.541 201.265 155.911 201.081 158.336 200.82C160.022 200.641 162.876 200.799 166.343 201.265C176.649 202.656 186.391 201.584 196.978 197.897C203.02 195.795 206.393 193.565 207.468 190.973C208.69 188.027 206.497 186.158 202.269 186.541C200.182 186.731 198.465 187.413 192.216 190.535C186.122 193.583 184.257 194.726 182.459 196.524L180.236 198.743L174.73 198.887C171.7 198.966 167.078 198.899 164.46 198.738L159.697 198.444L161.744 197.166C162.87 196.465 166.519 194.297 169.85 192.348C183.639 184.294 197.63 174.544 201.664 170.182C206.615 164.825 211.543 155.057 211.071 151.533C210.603 148.035 207.583 147.488 203.549 150.17C198.774 153.349 186.334 165.625 182.704 170.744C180.336 174.086 176.015 183.056 176.232 184.186C176.398 185.058 175.824 185.534 171.151 188.375C162.761 193.479 158.108 196.519 155.712 198.465C154.488 199.459 153.397 200.186 153.29 200.078C153.009 199.799 157.896 187.482 161.69 178.893C163.468 174.871 168.172 164.999 172.14 156.954L179.354 142.328L181.838 140.392C190.66 133.514 192.65 132.709 210.166 128.947C217.698 127.331 223.265 125.69 227.815 123.749C230.273 122.7 230.692 122.629 231.474 123.143C231.962 123.462 233.852 123.997 235.677 124.332C237.503 124.669 240.781 125.326 242.966 125.794C250.273 127.362 256.903 126.853 268.032 123.877C277.037 121.465 280.566 119.474 280.566 116.794C280.566 115.428 278.192 112.879 276.031 111.923C271.912 110.099 262.631 109.417 257.301 110.544C249.851 112.12 238.152 116.114 227.371 120.762C224.652 121.933 220.611 123.45 218.388 124.135C214.241 125.411 207.182 127.075 205.915 127.075C205.473 127.075 206.781 125.462 209.387 122.793C211.689 120.435 213.84 118.123 214.167 117.65C214.494 117.18 216.203 116.275 217.966 115.638C227.008 112.368 234.841 103.922 232.353 100.125C230.794 97.7466 226.252 99.5263 221.257 104.472C219.497 106.215 216.15 110.181 213.817 113.283C211.487 116.387 207.762 120.9 205.539 123.314L201.498 127.702L197.898 128.62C193.018 129.865 187.379 132.76 184.107 135.703C181.585 137.971 181.483 138.022 182.173 136.662C182.574 135.872 185.734 129.771 189.201 123.104C195.448 111.084 195.529 110.956 199.073 107.42C204.022 102.485 216.61 93.2923 225.36 88.2268C227.984 86.708 228.579 86.5136 229.42 86.8946C231.535 87.8586 238.295 88.659 245.975 88.8559C250.398 88.9684 256.56 89.242 259.667 89.467C266.989 89.9963 274.227 89.986 277.643 89.4465C282.643 88.6538 288.798 85.0127 290.412 81.8905C291.281 80.2106 291.171 76.9837 290.19 75.3778C289.13 73.6365 286.83 72.1611 283.701 71.2099C278.788 69.7192 264.054 70.6908 254.603 73.1277C240.582 76.7433 229.588 81.3127 220.169 87.4393C214.655 91.0242 206.339 97.0869 202.543 100.288C200.877 101.692 199.512 102.771 199.512 102.682C199.512 102.592 202.359 96.7493 205.836 89.6971L212.159 76.8737L214.923 74.6593C216.444 73.4396 218.063 72.0179 218.523 71.4963C218.983 70.9747 223.498 66.7428 228.556 62.0916C233.615 57.4404 240.572 50.741 244.016 47.2072C247.46 43.6709 251.484 39.6513 252.955 38.273C257.922 33.6218 263.113 24.478 265.106 16.8709C266.197 12.7055 267.393 3.79176 267.045 2.40841C266.31 -0.516807 263.394 -0.785294 258.709 1.64131ZM263.854 4.408C263.854 4.97565 263.563 7.53778 263.205 10.1025C262.143 17.7198 259.767 24.212 255.727 30.5407C252.958 34.8825 236.785 50.6055 218.843 66.4002L215.846 69.039L219.944 59.9233C228.035 41.9168 233.492 32.1413 241.244 21.765C246.336 14.9506 255.298 6.94967 260.722 4.37731C263.361 3.12438 263.854 3.12949 263.854 4.408ZM193.537 24.1584C195.414 25.3832 198.991 32.2129 200.166 36.8104C201.472 41.9193 202.849 53.2929 202.847 58.9567C202.841 66.7403 201.439 82.1488 200.486 84.8669C200.172 85.7593 199.709 84.4118 199.339 81.5249C199.07 79.446 195.851 69.4532 193.751 64.1807C193.294 63.0326 191.194 58.366 189.086 53.812C184.699 44.3357 183.854 41.2852 184.199 36.1814C184.615 30.0395 186.695 25.1581 189.49 23.7543C190.982 23.0051 191.917 23.0972 193.537 24.1584ZM153.428 70.3456C155.208 72.2225 155.607 73.1405 158.486 81.9417C165.285 102.743 166.107 110.099 163.083 123.104L162.209 126.866L160.173 120.599C153.387 99.6976 149.036 80.814 149.485 74.2118C149.71 70.9133 150.433 68.9879 151.45 68.9879C151.828 68.9879 152.717 69.599 153.428 70.3456ZM283.483 74.2476C287.814 75.5338 289.357 78.6968 287.012 81.484C285.346 83.4657 280.423 85.7056 276.984 86.0431C273.527 86.3858 261.542 85.9843 253.788 85.2658C250.725 84.982 246.144 84.8567 243.607 84.9896C240.853 85.1328 237.733 85.0306 235.863 84.7339L232.728 84.2404L235.863 82.9261C244.56 79.2824 258.354 75.5031 266.154 74.6312C269.14 74.2962 272.147 73.951 272.837 73.8666C276.217 73.4447 281.409 73.6314 283.483 74.2476ZM230.432 101.812C230.432 102.311 229.008 104.778 228.084 105.888C225.759 108.675 220.784 112.352 218.36 113.078C217.402 113.365 217.42 113.296 218.776 111.391C220.943 108.353 225.999 103.467 228.009 102.472C229.841 101.567 230.432 101.406 230.432 101.812ZM131.55 111.718C132.802 113.613 135.061 117.704 136.571 120.806C138.078 123.91 140.091 127.858 141.042 129.581L142.774 132.716L141.042 130.837C135.043 124.319 131.928 119.637 130.109 114.416C129.067 111.416 128.543 108.269 129.087 108.269C129.187 108.269 130.296 109.821 131.55 111.718ZM270.326 113.48C273.877 114.16 276.93 115.62 277.147 116.745C277.331 117.701 275.16 118.665 268.494 120.586C257.033 123.884 250.549 124.472 242.966 122.895C240.781 122.442 237.491 122.054 235.654 122.031L232.312 121.992L234.609 120.941C237.899 119.435 249.478 115.533 254.871 114.111C260.216 112.703 265.203 112.498 270.326 113.48ZM207.869 152.293C207.869 153.203 206.398 157.212 205.159 159.68C203.375 163.232 200.713 166.748 197.54 169.742C194.842 172.289 179.569 183.322 179.224 182.977C178.999 182.752 181.375 178.298 183.417 175.124C187.165 169.289 205.279 151.73 207.548 151.73C207.724 151.73 207.869 151.983 207.869 152.293ZM116.364 173.871C118.206 176.456 121.001 183.112 122.434 188.326C124.862 197.145 125.411 210.368 123.674 218.177C123.29 219.9 122.746 222.907 122.468 224.863L121.957 228.415L121.443 225.697C121.162 224.204 120.748 219.785 120.529 215.878C120.033 207.125 119.494 204.333 116.318 194.044C112.189 180.668 111.745 177.735 113.354 174.506C114.461 172.289 115.138 172.145 116.364 173.871ZM204.528 189.681C204.528 190.106 202.568 191.909 201.186 192.752C198.539 194.368 185.203 198.567 184.607 197.974C184.055 197.421 195.575 191.517 199.931 190.121C202.394 189.334 204.528 189.129 204.528 189.681ZM28.8955 194.46C31.7697 197.483 33.3614 199.733 38.1211 207.519C51.4014 229.241 55.4176 237.134 58.5295 247.636L59.8938 252.234L56.971 249.099C50.8367 242.517 43.8568 233.516 37.37 223.817C32.5592 216.627 26.103 202.218 25.0581 196.342C24.358 192.392 26.1081 191.533 28.8955 194.46ZM89.6325 213.597C95.6747 214.551 100.664 217.141 105.659 221.912C108.935 225.042 110.672 227.379 115.618 235.309C120.104 242.499 120.033 242.363 118.84 241.33C110.35 233.974 107.657 232.061 100.693 228.456C97.5679 226.837 94.7499 225.738 91.9191 225.037C89.4945 224.436 86.094 223.181 83.7818 222.03C80.4681 220.381 79.7937 219.88 79.6889 218.987C79.5407 217.711 80.7594 216.047 83.0741 214.369C84.906 213.045 85.6086 212.96 89.6325 213.597ZM221.362 214.881C224.277 216.387 224.476 217.903 222.036 219.992C219.481 222.178 215.102 224.321 211.165 225.308C206.181 226.559 196.117 226.878 190.77 225.958C188.603 225.584 185.502 225.27 183.877 225.257L180.921 225.237L185.77 222.779C188.435 221.427 192.548 219.647 194.911 218.826C198.434 217.599 208.771 215.18 214.346 214.277C216.188 213.978 220.301 214.333 221.362 214.881ZM181.654 239.098C185.203 240.264 189.014 242.392 190.059 243.793C190.79 244.77 190.821 245.03 190.333 245.946C189.62 247.278 187.384 248.014 185.039 247.695C181.93 247.268 180.944 246.503 179.937 243.739C179.291 241.97 178.476 240.745 177.096 239.471L175.159 237.687L177.042 237.945C178.08 238.086 180.154 238.605 181.654 239.098ZM39.4497 255.143C41.8155 255.977 45.9825 258.741 51.0897 262.86C53.4453 264.76 55.3716 266.366 55.3716 266.425C55.3716 266.716 42.2166 262.843 39.2862 261.689C35.16 260.063 31.9818 258.319 31.3865 257.353C29.9915 255.092 35.2341 253.655 39.4497 255.143ZM11.157 258.143C13.2213 259.212 16.5427 261.38 18.5355 262.963C20.5257 264.546 23.8394 267.01 25.8935 268.44C29.4371 270.905 33.8085 274.569 33.5326 274.845C33.2388 275.139 27.4571 273.687 23.2952 272.273C13.7247 269.018 8.92916 265.085 7.13564 259.02C6.65021 257.386 6.6732 256.205 7.18929 256.205C7.30681 256.205 9.09011 257.077 11.157 258.143ZM154.621 259.743C155.39 261.585 155.382 264.978 154.59 272.084C153.55 281.422 151.591 288.172 147.638 296.053C145.98 299.362 143.568 302.665 143.05 302.343C142.807 302.195 142.758 301.131 142.925 299.73C143.351 296.163 146.323 281.588 147.516 277.203C148.096 275.075 149.12 270.606 149.797 267.271C150.952 261.569 151.414 260.073 152.408 258.815C153.139 257.895 154 258.255 154.621 259.743ZM84.1574 301.771C86.0352 303.131 88.9376 307.335 90.3504 310.741C91.9676 314.632 92.9921 319.199 94.4459 328.982C96.5128 342.872 96.4949 342.943 92.821 335.605C91.1526 332.271 88.2605 326.594 86.3955 322.989C82.5836 315.624 80.4784 309.659 80.1411 305.276C79.7681 300.431 80.9204 299.426 84.1574 301.771ZM183.028 302.277C182.231 307.608 180.226 312.824 177.339 317.079C172.505 324.198 157.638 343.243 154.478 346.362C150.942 349.85 146.872 352.594 146.872 351.484C146.872 350.776 154.184 336.786 158.315 329.596C163.688 320.245 170.098 310.797 173.307 307.496C176.023 304.703 181.664 300.5 182.694 300.5C183.161 300.5 183.235 300.891 183.028 302.277ZM215.713 302.072C212.18 305.823 206.87 314.804 202.936 323.694C200.966 328.146 190.509 349.385 185.754 358.587C183.915 362.152 181.432 367.227 180.238 369.871C177.87 375.118 171.12 388.412 168.463 393.063C167.543 394.674 163.977 400.502 160.535 406.02C150.035 422.848 142.753 433.411 139.938 435.899L138.755 436.944L139.826 435.482C143.359 430.652 149.332 419.7 157.148 403.721C159.342 399.239 162.612 392.846 164.416 389.512C170.747 377.816 172.441 374.574 178.647 362.231C182.091 355.386 185.813 348.144 186.919 346.142C188.028 344.138 190.775 338.926 193.026 334.559C201.301 318.511 203.125 315.422 208.076 309.063C210.82 305.54 216.145 300.28 216.551 300.689C216.684 300.819 216.306 301.443 215.713 302.072ZM217.121 306.23C216.203 308.48 214.484 312.579 213.304 315.335C210.256 322.441 207.859 328.596 204.024 339.157C200.769 348.114 199.77 351.545 197.021 363.185C194.27 374.824 189.906 386.597 183.864 398.668C179.431 407.528 177.035 411.589 172.868 417.301C165.361 427.598 158.829 434.392 150.163 440.918C144.253 445.367 141.507 446.929 132.874 450.76C124.486 454.483 124.172 454.59 125.771 453.204C126.461 452.606 128.633 450.732 130.597 449.036C134.197 445.932 143.045 436.538 145.817 432.876C150.477 426.727 162.881 407.454 169.365 396.296C172.219 391.378 179.623 376.816 182.157 371.124C184.214 366.511 189.347 356.092 191.835 351.484C193.138 349.07 195.468 344.37 197.014 341.036C198.559 337.704 200.769 333.002 201.924 330.591C203.079 328.177 204.533 324.978 205.156 323.485C205.78 321.991 207.083 319.076 208.056 317.008C210.621 311.546 218.245 300.497 218.636 301.671C218.72 301.929 218.04 303.98 217.121 306.23ZM137.26 340.765C137.26 344.388 136.366 347.459 133.926 352.21L131.831 356.291L132.079 352.737C132.375 348.515 133.27 343.78 134.189 341.581C135.084 339.428 136.405 337.63 136.875 337.922C137.087 338.055 137.26 339.333 137.26 340.765ZM81.324 344.398C87.0495 346.656 92.2052 350.525 95.7105 355.192C98.0099 358.255 101.858 365.596 102.417 367.992C102.683 369.122 102.366 368.918 99.1903 365.9C97.0058 363.827 94.3283 361.804 92.1286 360.572C87.7521 358.117 79.5126 353.166 77.4227 351.737C75.5398 350.448 73.3375 347.513 73.3375 346.291C73.3375 345.802 73.6313 344.984 73.989 344.473C74.523 343.708 75.0365 343.544 76.8964 343.544C78.1892 343.544 80.0849 343.91 81.324 344.398ZM4.28184 367.938C4.35338 370.36 4.82348 372.377 6.49436 377.407C9.25618 385.73 10.6563 388.668 14.7517 394.736C21.8057 405.186 40.9494 430.391 46.2712 436.231C60.3664 451.701 65.5886 457.516 71.2527 464.049C74.8117 468.155 77.9133 471.786 78.1432 472.119C78.3731 472.451 81.7277 475.581 85.5983 479.071C91.6866 484.564 94.244 487.274 95.6875 489.767C96.1142 490.504 95.851 490.348 91.5103 487.269C80.7543 479.641 67.9339 467.749 56.925 455.178C47.0606 443.92 43.2896 439.775 35.579 431.738C27.3191 423.124 23.2058 418.23 19.0669 412.08C9.83869 398.369 4.8618 386.656 3.12704 374.564C2.55475 370.577 2.74126 366.478 3.53582 365.519C3.8373 365.154 4.10811 364.857 4.13877 364.857C4.16687 364.86 4.2333 366.246 4.28184 367.938ZM11.8851 374.76C13.1294 376.553 16.8723 381.969 20.2013 386.796C31.1106 402.609 32.4672 404.222 48.4684 420.436C55.1596 427.217 62.0501 434.456 63.7797 436.525C72.3385 446.761 85.9151 464.598 89.9058 470.861C91.2497 472.967 93.659 476.634 95.2609 479.01C98.3216 483.551 102.583 491.45 102.583 492.585C102.583 493.71 101.584 492.577 98.6614 488.146C96.4208 484.745 94.7575 482.937 88.8021 477.424C84.5738 473.512 78.9506 467.708 75.085 463.271C68.5369 455.754 58.9995 445.188 50.9389 436.525C48.5859 433.996 45.5558 430.519 44.2043 428.795C34.6669 416.634 30.2138 411.016 27.8046 408.109C22.424 401.617 16.1237 392.47 13.7017 387.632C12.1738 384.579 6.90825 369.47 6.90825 368.14C6.90825 367.828 7.51887 368.457 8.26489 369.536C9.01091 370.615 10.6409 372.965 11.8851 374.76ZM231.903 369.889C232.051 370.13 230.434 371.96 228.306 373.963C223.326 378.652 217.936 385.104 198.925 409.124C190.632 419.605 187.459 423.305 181.769 429.145C174.14 436.973 169.909 440.182 159.656 445.922C150.791 450.883 148.349 451.698 127.861 456.541C126.481 456.866 125.311 457.091 125.26 457.042C125.209 456.994 127.184 456.135 129.647 455.132C137.848 451.801 145.571 447.645 159.822 438.898C172.109 431.357 182.027 422.827 192.149 411.098C201.768 399.949 203.61 397.745 211.6 387.809C215.376 383.114 220.089 377.65 222.077 375.668C226.765 370.989 231.032 368.478 231.903 369.889ZM229.468 377.471C228.206 379.611 225.976 382.774 224.512 384.497C219.152 390.808 215.141 396.861 209.939 406.472C205.999 413.757 197.535 427.105 192.936 433.283C187.433 440.68 180.231 447.978 174.986 451.473C171.018 454.117 163.701 457.469 158.451 459.047C149.887 461.622 148.895 461.727 133.502 461.712L119.504 461.699L122.639 460.709C124.361 460.167 127.933 459.239 130.577 458.651C145.487 455.332 152.109 453.143 159.197 449.19C169.426 443.485 174.362 439.701 182.471 431.347C188.659 424.972 193.534 419.109 209.75 398.53C213.886 393.283 218.843 387.085 220.764 384.758C224.399 380.353 231.308 373.119 231.599 373.408C231.691 373.5 230.733 375.328 229.468 377.471Z" fill="#C8A898"/>
</g>
<defs>
<clipPath id="clip0_1_8131">
<rect width="291" height="527" fill="white"/>
</clipPath>
</defs>
</svg>
