<svg width="422" height="415" viewBox="0 0 422 415" fill="none" xmlns="http://www.w3.org/2000/svg">
<g clip-path="url(#clip0_1_8133)">
<path d="M169.942 88.4636C169.418 88.1927 168.898 87.945 168.375 87.6742C161.253 79.6493 152.745 72.6223 141.778 71.1133C131.227 69.6544 120.784 73.1274 110.902 76.4466C110.019 76.7383 110.444 77.9224 111.172 78.0516C120.725 79.9051 128.373 87.6502 138.094 89.9301C141.692 90.7737 145.399 91.2043 149.094 90.9912C155.158 90.6439 161.699 87.012 167.464 90.1585C167.978 90.443 168.517 90.0896 168.65 89.6727C168.815 89.7287 168.991 89.7111 169.123 89.6412C191.153 102.149 211.403 118.16 224.781 139.675C215.762 128.68 206.569 117.069 194.381 109.918C188.532 106.486 182.117 104.023 175.475 102.709C165.927 100.819 156.165 101.5 146.852 98.3023C145.927 97.9911 145.312 99.027 145.807 99.769C154.728 113.112 164.41 126.423 180.456 131.265C197.698 136.469 219.41 133.533 230.604 150.584C230.666 150.67 230.747 150.728 230.835 150.749C239.195 168.586 244.669 189.036 247.205 209.297C240.692 186.57 224.663 167.424 204.037 155.877C203.023 155.317 202.024 156.633 202.972 157.37C212.367 164.763 210.629 177.143 214.038 187.417C215.593 192.13 217.946 196.674 220.649 200.956C213.83 192.88 205.893 185.769 197.016 180.036C185.068 172.318 171.545 167.615 158.825 161.354C157.744 160.83 156.8 162.614 157.836 163.23C171.324 171.144 166.916 188.073 170.252 200.834C172.617 209.872 178.244 217.405 184.899 223.787C202.381 240.549 224.819 253.203 244.797 266.808C239.858 288.765 231.526 310.454 226.367 332.316C227.057 316.464 221.155 300.523 211.031 288.35C195.724 269.944 171.88 266.445 152.363 254.377C151.378 253.777 150.241 254.912 150.951 255.869C157.971 265.215 159.874 276.422 163.941 287.124C167.191 295.666 171.937 303.575 177.766 310.597C189.895 325.243 206.269 335.89 223.9 342.702C224.001 342.733 224.084 342.731 224.172 342.752C221.253 358.858 220.588 375.076 224.829 391.595C225.23 393.13 227.634 392.775 227.295 391.181C220.952 361.06 229.124 332.069 238 303.354C238.525 301.639 239.032 299.952 239.547 298.251C239.811 298.255 240.189 298.299 240.878 298.483C245.206 299.622 250.013 299.055 254.549 300.363C260.933 302.21 267.025 304.955 273.481 306.587C284.271 309.321 295.796 309.529 306.543 306.519C332.72 299.188 341.384 270.281 365.655 260.71C366.788 260.269 366.426 258.536 365.272 258.431C338.621 255.941 317.298 231.896 289.346 237.982C267.899 242.643 254.01 258.998 245.194 277.802C248.293 265.122 250.533 252.383 251.15 239.306C251.332 239.251 251.502 239.127 251.62 238.904C259.516 224.953 270.834 216.718 285.006 209.821C294.635 205.133 303.818 200.209 309.636 190.84C315.704 181.034 318.767 168.921 320.803 157.675C323.203 144.394 322.185 130.48 327.604 117.877C328.003 116.973 326.885 115.869 325.99 116.378C305.149 128.147 279.048 139.28 263.381 158.014C252.804 170.668 247.731 186.836 248.8 202.979C246.724 189.457 243.479 175.736 238.665 162.864C238.692 162.74 238.719 162.616 238.746 162.491C239.041 162.538 239.369 162.28 239.213 161.923C239.135 161.745 239.058 161.566 238.98 161.388C241.322 149.971 244.682 140.631 251.675 130.849C256.631 123.896 260.854 117.137 263.054 108.792C266.903 94.169 264.62 78.6966 257.143 65.6257C256.62 64.7208 255.294 65.0866 255.391 66.1586C257.193 86.8174 239.411 100.501 232.173 118.156C227.97 128.391 228.945 138.343 232.185 147.964C230.864 145.363 229.491 142.808 228.003 140.355C221.15 128.937 212.362 118.884 202.307 110.263C202.398 110.02 202.475 109.768 202.566 109.526C202.769 109.528 202.983 109.372 202.92 109.144C202.891 109.041 202.858 108.915 202.815 108.802C214.851 74.332 182.463 45.5536 152.499 36.2178C151.642 35.955 151.038 37.0606 151.766 37.6202C164.398 47.2796 167.427 63.201 175.267 76.2231C182.345 87.9859 195.993 94.9282 200.167 108.41C200.174 108.456 200.215 108.485 200.246 108.528C190.853 100.788 180.451 94.2342 169.524 88.9642C169.489 88.8983 169.463 88.8188 169.405 88.7568C169.285 88.6096 169.168 88.4857 169.038 88.352C169.321 88.4719 169.628 88.588 169.911 88.7079C169.996 88.7892 170.087 88.5468 169.942 88.4636ZM114.466 77.1642C114.676 77.1291 114.994 77.028 115.48 76.7192C119.425 74.288 126.55 73.4279 131.172 72.892C144.979 71.3059 155.212 77.2068 164.639 85.9331C148.944 78.9036 131.652 76.3269 114.47 77.1875C114.476 77.1506 114.466 77.1642 114.466 77.1642ZM151.513 89.0908C138.979 90.7861 129.379 84.8032 118.908 79.1217C118.617 78.9553 117.69 78.5607 116.74 78.1701C133.838 77.455 150.063 80.8683 165.939 87.126C166.339 87.5134 166.748 87.8871 167.138 88.288C162.074 85.8251 157.034 88.3563 151.513 89.0908ZM163.551 103.119C170.488 103.701 177.302 104.543 183.896 106.929C197.82 111.96 207.379 121.967 216.877 132.834C217.423 133.448 219.166 135.571 221.118 137.802C218.623 135.901 216.338 134.252 216.08 134.068C195.485 120.064 170.735 113.728 149.422 100.932C151.678 100.984 162.171 103.015 163.551 103.119ZM177.079 128.101C169.593 125.099 163.525 119.792 158.323 113.729C157.18 112.402 150.231 104.336 149.077 101.732C172.679 117.121 201.831 122.826 223.295 141.3C210.438 132.156 191.873 134.038 177.079 128.101ZM175.926 304.759C166.169 291.353 164.194 274.586 156.39 260.565C183.516 283.279 204.512 310.082 223.085 340.053C204.681 332.341 187.786 321.077 175.926 304.759ZM224.692 340.01C224.658 340.231 224.6 340.456 224.565 340.677C224.437 340.627 224.309 340.577 224.191 340.513C208.652 309.244 184.581 281.785 157.704 259.699C174.094 268.023 192.77 272.364 205.998 285.786C220.279 300.287 225.979 319.874 224.679 339.857C224.64 339.911 224.671 339.954 224.692 340.01ZM312.02 302.169C299.263 307.453 284.926 307.454 271.762 303.682C266.212 302.102 260.904 299.752 255.363 298.158C253.717 297.681 244.933 296.212 240.759 296.063C240.759 296.063 240.769 296.05 240.755 296.04C240.741 295.887 240.714 295.724 240.7 295.571C240.686 295.418 240.599 295.253 240.492 295.116C240.715 294.373 240.91 293.611 241.132 292.868C259.465 280.479 280.206 273.103 301.79 268.622C320.995 264.636 340.497 263.709 359.806 260.842C341.129 271.184 332.292 293.783 312.02 302.169ZM300.005 239.292C321.641 239.824 338.948 255.826 359.782 259.985C319.927 260.475 275.835 268.144 241.98 289.868C242.333 288.625 242.7 287.392 243.031 286.152C253.61 262.461 271.751 238.589 300.005 239.292ZM213.508 175.202C212.57 169.823 211.376 164.917 208.55 160.752C208.722 160.854 208.876 160.984 209.062 161.096C233.711 187.37 242.794 219.997 245.47 255.205C243.48 240.843 238.07 226.911 230.437 214.548C229.107 210.179 227.007 206 224.26 202.383C224.198 202.298 224.116 202.24 224.048 202.191C219.108 193.55 215.329 185.634 213.508 175.202ZM212.202 241.712C202.059 234.708 191.258 227.91 182.92 218.69C173.66 208.465 171.701 197.996 170.562 184.711C170.171 180.173 169.422 175.707 167.778 171.75C181.279 185.162 194.315 198.939 206.472 213.604C219.718 229.558 231.429 246.487 243.396 263.373C233.007 256.111 222.612 248.886 212.202 241.712ZM245.054 264.493C224.222 228.898 195.894 195.948 165.725 167.849C165.469 167.462 165.209 167.051 164.929 166.668C185.571 176.527 205.092 185.198 220.324 203.653C234.868 221.29 242.366 242.118 245.082 264.513C245.082 264.513 245.068 264.503 245.054 264.493ZM247.273 253.623C245.09 222.493 237.189 188.784 215.48 165.712C231.116 178.024 241.954 194.884 247.775 214.331C248.427 220.858 248.794 227.325 248.827 233.657C248.863 240.359 248.28 247.009 247.273 253.623ZM323.026 120.737C323.421 120.527 323.803 120.308 324.198 120.098C320.893 129.62 320.761 139.603 319.573 149.631C317.926 163.55 314.496 180.459 306.008 192.022C298.163 202.712 285.119 206.502 274.141 212.91C264.558 218.511 257.026 226.148 251.291 235.515C251.302 234.868 251.313 234.22 251.311 233.563C261.076 187.624 285.188 149.37 322.817 121.059C322.945 120.966 322.999 120.861 323.026 120.737ZM268.632 155.674C281.597 142.715 299.079 133.589 315.626 124.74C283.598 148.728 260.074 185.783 252.078 225.016C251.986 224.398 251.861 223.797 251.746 223.183C251.69 222.917 251.647 222.661 251.59 222.396C252.006 219.6 251.862 216.527 250.822 213.963C250.944 213.907 251.035 213.808 251.008 213.645C247.741 192.885 253.58 170.73 268.632 155.674ZM257.8 117.888C253.934 125.926 247.456 132.286 243.377 140.192C240.417 145.926 238.851 152.203 237.649 158.514C237.433 158.012 237.231 157.52 237.006 157.032C235.048 139.436 242.664 123.607 251.282 108.327C254.075 103.375 257.112 98.597 257.98 92.8673C258.995 86.013 258.241 78.5944 258.019 71.6367C264.55 86.2653 264.848 103.23 257.8 117.888ZM231.002 135.918C230.021 123.934 235.745 113.719 242.205 104.11C248.461 94.7865 255.047 85.4315 256.808 74.542C257.089 81.4183 257.687 88.6238 256.021 95.157C253.806 103.839 247.633 111.522 243.707 119.558C238.404 130.36 234.693 142.031 235.725 153.887C233.406 148.118 231.506 142.135 231.002 135.918ZM156.683 39.9165C156.272 39.6028 155.866 39.2523 155.455 38.9387C155.333 38.8516 155.222 38.8342 155.119 38.8634C154.466 38.4589 154.462 38.4356 156.331 39.1743C160.664 40.9109 164.911 42.5662 169.045 44.7547C177.617 49.3079 185.368 55.2422 191.465 62.8648C201.481 75.3904 205.248 91.0803 202.117 106.564C194.6 80.7054 178.244 56.7596 157.04 40.1914C156.918 40.1043 156.795 40.0172 156.683 39.9165ZM178.753 78.6876C171.477 68.5245 168.548 55.767 161.454 45.5494C180.098 63.0371 193.219 83.5916 201.731 108.111C201.609 108.598 201.524 109.091 201.389 109.568C201.096 109.318 200.793 109.082 200.5 108.832C201.005 108.986 201.753 108.598 201.564 107.972C197.868 95.3432 186.092 88.9359 178.753 78.6876Z" fill="#FBECE3"/>
</g>
<defs>
<clipPath id="clip0_1_8133">
<rect width="314.75" height="284.597" fill="white" transform="translate(256.306 414.44) rotate(-144.52)"/>
</clipPath>
</defs>
</svg>
