<svg width="310" height="397" viewBox="0 0 310 397" fill="none" xmlns="http://www.w3.org/2000/svg">
<g clip-path="url(#clip0_1_8135)">
<path d="M231.452 395.281C229.007 389.943 226.68 384.588 224.482 379.203C236.949 375.597 247.926 368.339 255.725 357.855C264.941 345.48 268.472 329.979 276.138 316.726C276.503 316.106 275.867 315.175 275.128 315.446C263.458 319.828 250.383 327.433 240.257 337.387C241.842 320.321 240.53 303.337 236.795 286.623C236.669 286.058 235.866 285.853 235.489 286.292C235.311 286.499 235.157 286.701 234.979 286.908C234.88 286.897 234.765 286.937 234.72 287.052C234.695 287.14 234.681 287.215 234.643 287.293C218.042 306.774 211.007 334.317 216.979 359.113C211.258 342.149 206.973 324.783 204.677 306.709C204.51 305.387 204.403 304.068 204.263 302.766C204.525 302.645 204.734 302.398 204.733 302.035C205.22 287.229 212.71 272.86 219.538 260.036C229.276 266.862 241.969 272.158 249.629 265.645C250.128 265.213 250.583 264.726 250.984 264.199C259.426 269.421 280.804 277.712 284.796 262.839C285.63 259.695 285.588 256.888 287.333 254.032C287.581 253.622 291.259 250.271 291.938 248.845C292.844 246.951 293.161 246.338 292.612 244.171C291.168 238.356 284.862 234.672 279.404 233.212C281.345 231.977 283.01 230.489 284.283 228.618C292.934 215.921 273.964 211.531 273.953 200.296C273.932 191.123 270.288 185.173 264.94 182.025C273.845 182.177 282.201 180.526 290.55 177.034C291.136 176.796 291.448 175.881 290.734 175.53C278.496 169.748 265.538 165.809 252.075 164.219C241.605 162.983 228.788 161.862 221.43 170.867C221.321 170.87 221.223 170.859 221.114 170.862C229.753 160.396 240.212 152.361 252.295 146.286C252.376 146.347 252.467 146.395 252.555 146.42C252.593 146.427 252.63 146.434 252.657 146.454C252.393 147.278 253.574 147.941 253.957 147.101C254.005 147.01 254.053 146.918 254.077 146.83C265.072 149.788 276.598 149.971 287.72 147.348C301.624 144.066 313.074 134.307 327.174 132.114C327.898 132.003 327.985 130.852 327.362 130.549C315.655 124.936 302.943 119.498 289.685 121.564C288.427 121.76 287.192 122.038 285.974 122.35C291.83 115.937 295.872 108.573 298.325 100.129C298.471 99.5994 297.948 99.1376 297.445 99.267C274.139 105.434 253.41 118.618 252.26 144.872C252.004 145.04 251.9 145.346 251.929 145.645C242.829 149.591 234.8 154.992 227.753 161.651C234.221 155.277 240.527 148.524 244.368 140.217C248.289 131.693 249.003 122.311 249.787 113.089C249.85 112.389 248.904 112.118 248.48 112.564C234.705 126.616 220.343 144.47 223.413 165.481C223.449 165.658 223.592 165.723 223.734 165.704C222.167 167.372 220.634 169.109 219.171 170.921C219.16 170.935 219.153 170.972 219.143 170.986C217.23 171.174 215.318 171.557 213.448 171.8C207.02 172.655 204.725 170.483 199.087 168.502C189.708 165.214 184.07 175.912 183.214 183.799C181.636 198.33 189.107 213.187 198.837 223.7C198.307 227.118 198.804 230.869 199.896 234.538C200.501 245.243 200.634 255.952 200.828 266.665C192.931 251.974 183.55 238.226 172.936 225.482C172.919 225.448 172.94 225.421 172.899 225.39C172.872 225.37 172.855 225.336 172.828 225.315C172.975 225.234 173.129 225.117 173.188 224.927C181.653 199.794 170.981 175.373 156.357 154.971C156.327 154.927 156.297 154.883 156.266 154.838C156.118 154.64 155.981 154.429 155.833 154.231C155.489 153.757 154.759 153.82 154.585 154.414C148.889 174.95 152.112 197.079 163.432 214.757C156.44 207.264 148.982 200.186 141.111 193.54C141.105 193.492 141.098 193.445 141.092 193.397C141.178 193.143 141.129 192.871 140.978 192.649C136.253 162.846 103.834 152.949 77.8551 149.335C77.7773 149.297 77.6994 149.259 77.6215 149.222C77.4015 149.118 77.1738 149.137 77.0034 149.221C76.8303 149.196 76.6438 149.161 76.4604 149.15C75.7817 149.061 75.0058 149.773 75.4867 150.459C83.88 162.645 93.4079 174.798 104.434 184.952C92.5848 184.268 82.0209 188.766 71.3423 193.668C70.6812 193.976 70.9873 194.892 71.5464 195.082C92.7931 202.228 122.412 215.332 140.335 194.337C140.507 194.447 140.717 194.479 140.898 194.381C152.696 204.951 163.427 216.418 173.151 228.677C155.12 218.256 133.394 218.025 113.099 219.138C112.341 219.181 111.979 220.079 112.501 220.625C123.087 231.555 134.163 242.344 149.137 246.407C137.571 247.006 125.892 249.269 115.124 251.455C114.474 251.58 114.296 252.683 114.95 252.946C140.903 263.242 171.342 285.422 199.622 269.206C199.891 269.048 199.92 268.728 199.803 268.49C200.082 268.852 200.5 268.892 200.838 268.7C201.121 283.11 201.606 297.48 203.674 311.816C205.949 327.59 209.511 343.382 214.452 358.707C206.424 347.61 201.351 334.703 192.867 323.899C185.494 314.494 175.779 311.591 166.969 304.274C166.246 303.682 165.077 304.266 165.332 305.249C172.445 332.023 189.253 356.732 216.621 365.223C220.372 375.886 224.81 386.262 230.002 396.207C230.564 397.039 231.881 396.205 231.452 395.281ZM316.805 133.046C309.006 136.124 301.989 140.864 294.039 143.636C286.171 146.384 277.715 147.576 269.383 147.26C268.456 147.217 255.794 146.171 255.785 145.481C255.779 145.349 264.897 143.679 265.887 143.471C274.811 141.718 283.815 140.281 292.691 138.256C301.801 136.175 311.475 130.659 321.002 131.733C319.222 132.279 317.197 132.895 316.805 133.046ZM296.214 102.429C298.638 105.916 286.46 119.859 283.541 122.997C273.788 126.148 265.387 132.739 257.802 139.715C267.178 124.24 281.971 113.757 295.886 102.159C296.008 102.251 296.139 102.33 296.214 102.429ZM276.444 108.573C278.902 107.219 290.841 100.885 295.022 101.78C279.167 113.183 262.908 125.369 254.161 143.158C253.945 143.357 253.743 143.566 253.538 143.752C255.498 129.084 263.184 115.888 276.444 108.573ZM255.928 143.05C271.069 129.865 286.727 118.611 308.054 124.472C312.108 125.591 318.111 126.867 321.354 129.503C321.83 129.886 323.936 130.314 323.817 130.863C323.817 130.863 323.619 130.927 323.317 131.017C323.243 130.918 323.134 130.836 322.972 130.797C312.429 128.759 302.426 134.793 292.339 137.092C280.112 139.878 267.653 141.484 255.377 144.083C255.583 143.727 255.755 143.388 255.928 143.05ZM247.26 124.38C246.246 131.548 244.283 138.338 240.439 144.572C240.102 145.127 226.286 160.664 226.433 161.117C226.223 160.467 229.136 154.784 229.209 154.604C230.769 151.009 232.396 147.465 234.227 143.991C239.173 134.624 246.132 126.425 247.663 115.743C248.868 116.402 247.117 125.381 247.26 124.38ZM224.043 165.298C223.913 149.703 229.679 136.649 239.443 124.648C240.46 123.394 244.087 118.062 246.355 116.285C244.933 124.916 239.948 131.585 235.6 139.015C231.063 146.751 227.653 155.023 224.271 163.315C224.015 163.932 224.717 164.551 225.254 164.042C224.837 164.45 224.447 164.879 224.043 165.298ZM84.9989 152.141C88.9477 152.838 92.8855 153.633 96.781 154.652C116.34 159.81 134.006 171.468 139.532 191.55C119.714 179.664 103.358 162.747 83.0008 151.796C83.5707 151.887 84.2289 152.004 84.9989 152.141ZM103.299 181.143C95.5632 173.534 88.396 165.289 81.9932 156.515C79.8365 153.573 78.9833 152.199 79.6964 151.738C95.039 159.496 107.97 170.735 121.606 181.102C124.404 183.229 127.222 185.329 130.099 187.324C133.766 189.877 141.111 192.643 133.519 196.177C122.805 201.181 110.059 187.82 103.299 181.143ZM87.8984 198.848C84.574 197.751 80.9461 196.828 77.7668 195.372C75.8539 194.494 75.1961 193.844 75.3321 193.329C88.6653 193.07 101.844 193.463 115.074 195.389C115.878 195.509 116.216 194.251 115.389 194.134C102.369 192.24 89.1892 191.484 76.081 192.596C77.3459 191.914 79.9584 191.339 82.2234 190.435C89.907 187.398 97.6775 185.536 105.977 186.232C108.006 188.052 110.062 189.807 112.204 191.478C119.251 196.964 128.104 200.214 135.953 196.79C121.995 207.267 103.917 204.174 87.8984 198.848ZM164.238 169.095C167.298 174.495 169.915 180.198 171.796 186.11C174.266 193.858 175.557 202.118 174.916 210.254C174.823 211.527 173.493 222 172.481 221.593C170.828 220.934 169.289 211.653 168.761 209.822C163.826 192.666 159.956 175.231 156.903 157.648C158.97 158.324 163.224 167.342 164.238 169.095ZM153.614 178.777C153.384 175.208 152.935 160.651 155.654 158.001C159.327 180.238 164.59 202.126 171.516 223.591C161.188 210.724 154.695 195.393 153.614 178.777ZM278.368 233.79C287.051 236.507 292.667 242.079 287.606 250.952C286.079 253.633 284.899 255.383 283.816 258.209C281.45 264.436 278.285 269.244 270.919 269.536C264.083 269.803 257.453 266.406 251.695 263.096C253.679 259.673 253.782 255.077 252.401 251.508C252.364 251.416 252.317 251.338 252.28 251.246C256.603 253.358 261.273 254.902 265.978 255.641C265.299 257.067 266.321 259.146 267.443 259.998C269.254 261.375 271.673 260.717 272.75 258.74C273.868 256.708 273.265 253.966 271.03 253.035C269.208 252.29 266.741 252.87 265.72 254.634C260.703 253.295 255.966 251.615 251.312 249.293C249.731 246.661 247.448 244.755 244.832 243.343C245.879 242.666 246.55 241.447 246.349 240.141C246.467 240.21 246.603 240.228 246.746 240.208C255.474 238.797 269.393 238.835 278.368 233.79ZM269.997 254.086C271.709 254.555 272.332 256.373 271.56 257.921C270.885 259.286 269.339 259.776 268.165 258.712C267.088 257.744 267.201 256.698 267.491 255.446C267.607 254.958 267.163 254.727 266.779 254.841C267.677 254.136 268.8 253.752 269.997 254.086ZM266.358 184.704C271.419 189.042 272.243 193.766 272.164 200.153C272.136 202.799 271.606 204.702 272.863 207.172C273.925 209.282 275.95 210.714 277.733 212.155C283.87 217.184 287.178 224.95 279.445 230.746C271.138 236.96 256.454 237.173 246.445 238.977C246.255 239.003 246.135 239.104 246.066 239.222C245.627 238.398 244.796 237.808 243.88 237.582C245.682 236.39 246.612 234.045 245.76 231.967C245.67 231.749 245.559 231.558 245.435 231.357C251.374 230.024 256.687 227.553 261.585 223.999C262.763 225.535 264.955 225.962 266.67 225.025C268.507 224.01 268.849 221.709 267.829 219.994C266.808 218.279 264.613 217.464 262.869 218.635C261.456 219.568 260.62 221.621 261.356 223.206C261.311 223.321 261.29 223.433 261.32 223.562C256.212 226.915 250.616 229.17 244.619 230.438C243.586 229.525 242.135 229.105 240.758 229.317C242.124 227.858 242.402 225.444 241.218 223.776C239.768 221.756 236.865 221.534 235.007 223.024C234.7 223.26 235.101 223.715 235.415 223.526C237.072 222.609 239.417 222.834 240.486 224.542C241.537 226.217 240.841 228.142 239.467 229.36C239.262 229.546 239.359 229.812 239.558 229.942C239.553 230.173 239.705 230.395 240.008 230.305C241.88 229.722 244.13 230.408 244.912 232.326C245.693 234.243 244.68 236.333 242.871 237.198C242.598 237.333 242.623 237.608 242.782 237.792C242.791 237.949 242.885 238.106 243.092 238.114C245.869 238.219 246.451 241.97 243.908 242.875C241.508 241.712 238.878 240.908 236.27 240.27C229.309 234.167 230.522 223.819 224.55 217.144C224.58 217.104 224.635 217.06 224.639 216.999C224.844 215.383 226.233 213.835 227.992 214.019C230.008 214.229 230.702 216.4 230.412 218.101C230.384 218.25 230.461 218.373 230.546 218.458C230.547 218.737 230.878 218.946 231.152 218.727C231.534 218.42 232.015 218.209 232.514 218.141C232.7 218.346 233.012 218.412 233.19 218.121C233.754 218.165 234.303 218.369 234.687 218.789C235.648 219.797 235.345 221.318 234.493 222.27C234.178 222.629 234.629 223.27 235.035 222.96C236.48 221.817 236.754 219.549 235.507 218.132C235.021 217.592 234.409 217.276 233.737 217.149C236.314 212.385 239.451 208.175 243.225 204.277C244.406 204.855 245.902 204.626 246.904 203.702C248.209 202.517 248.162 200.56 247.019 199.286C245.917 198.042 243.997 197.65 242.641 198.732C241.251 199.832 240.832 202.01 241.977 203.393C242.122 203.567 242.302 203.555 242.462 203.484C242.441 203.596 242.447 203.729 242.559 203.835C242.626 203.886 242.694 203.937 242.761 203.989C238.582 207.663 235.154 212.144 232.691 217.123C232.263 217.181 231.854 217.298 231.483 217.506C231.976 215.511 230.3 213.171 228.326 212.822C226.141 212.442 223.921 214.212 223.78 216.389C223.014 215.657 222.194 214.969 221.2 214.341C221.095 214.283 221.003 214.235 220.912 214.187C220.96 214.18 221.004 214.15 221.018 214.075C222.767 206.333 229.878 198.101 232.457 189.688C241.61 181.94 255.739 175.585 266.358 184.704ZM262.456 222.91C262.429 222.889 262.388 222.859 262.361 222.838C262.158 221.787 262.413 220.722 263.308 219.993C264.387 219.106 265.774 219.499 266.507 220.611C267.165 221.624 267.139 223.034 266.016 223.696C264.942 224.352 263.347 224.121 262.621 223.057C262.604 223.023 262.58 223.026 262.564 222.992C262.537 222.972 262.506 222.927 262.456 222.91ZM243.475 203.358C243.313 203.32 243.163 203.291 243.008 203.216C242.916 203.168 242.831 203.167 242.75 203.19C242.795 203.075 242.799 202.929 242.732 202.793C242.125 201.712 242.274 200.31 243.335 199.559C244.298 198.882 245.504 199.372 246.112 200.282C247.252 201.981 245.542 203.585 243.862 203.438C243.819 203.299 243.65 203.213 243.496 203.331C243.496 203.331 243.486 203.344 243.475 203.358ZM284.732 177.562C278.406 180.778 269.967 181.023 262.92 180.979C255.869 177.967 246.612 179.147 238.7 183.804C238.681 183.577 238.533 183.379 238.271 183.414C237.391 183.535 236.563 183.781 235.66 183.735C234.829 183.679 234.039 183.399 233.308 183.014C233.208 181.294 232.802 179.556 232.009 177.822C231.732 177.205 231.399 176.632 231.05 176.11C249.42 175.37 267.396 175.653 285.693 177.055C285.431 177.176 285.117 177.364 284.732 177.562ZM232.828 188.134C233.174 186.669 233.351 185.202 233.334 183.738C234.507 184.438 236.009 184.875 237.346 184.632C235.766 185.672 234.25 186.825 232.828 188.134ZM271.435 169.61C275.049 170.692 278.613 171.95 282.102 173.364C285.157 174.62 288.099 174.957 286.738 176.27C268.441 173.352 249.349 172.797 230.947 174.815C230.695 174.837 230.534 174.993 230.448 175.162C228.485 172.667 225.714 171.179 222.31 170.832C222.296 170.822 222.286 170.835 222.272 170.825C234.606 159.903 257.095 165.303 271.435 169.61ZM185.369 189.044C184.908 181.543 186.99 171.258 195.651 170.693C200.133 170.408 202.659 173.481 207.044 173.997C209.372 174.272 211.658 173.79 213.946 173.502C216.676 173.165 219.395 172.309 222.167 172.815C230.017 174.215 232.14 181.464 231.109 188.151C229.672 197.474 221.873 204.395 220.669 214.002C220.662 214.039 220.678 214.073 220.682 214.097C218.892 213.057 216.92 212.369 214.905 212.074C215.376 208.313 215.629 204.557 216.48 200.829C217.525 196.201 219.077 191.746 221.05 187.44C221.06 187.427 221.043 187.393 221.054 187.379C222.029 187.331 222.994 186.763 223.563 185.958C224.671 184.388 223.809 182.409 222.108 181.756C220.343 181.076 218.252 181.92 217.926 183.892C217.647 185.493 218.613 187.167 220.166 187.622C216.64 194.952 213.621 203.692 213.713 211.958C210.787 211.74 207.801 212.33 205.205 213.921C204.857 214.126 204.526 214.365 204.219 214.601C201.756 208.78 199.846 203.102 198.89 196.869C199.009 196.852 199.131 196.86 199.25 196.844C199.403 196.811 199.499 196.713 199.558 196.608C199.609 196.625 199.673 196.653 199.741 196.619C201.937 195.919 203.102 193.348 202.255 191.209C201.443 189.162 199.071 188.468 197.123 189.207C195.243 189.912 194.16 191.842 194.754 193.81C195.265 195.522 196.883 196.901 198.673 196.874C199.373 203.106 200.862 209.339 203.628 214.985C203.642 214.995 203.642 214.995 203.655 215.006C201.35 216.86 199.931 219.175 199.217 221.77C191.813 212.406 186.124 201.122 185.369 189.044ZM220.054 186.086C219.858 185.979 219.691 186.002 219.558 186.093C218.637 184.667 219.404 182.283 221.584 182.98C224.241 183.804 222.155 187.277 220.054 186.086ZM198.545 195.667C198.552 195.715 198.558 195.763 198.565 195.81C195.884 195.437 194.382 191.691 197.477 190.48C198.755 189.978 200.393 190.263 201.033 191.582C201.806 193.173 200.964 195.179 199.41 195.876C199.376 195.893 199.379 195.917 199.358 195.944C199.291 195.893 199.223 195.841 199.115 195.844C198.982 195.85 198.86 195.843 198.738 195.835C198.731 195.787 198.711 195.729 198.715 195.668C198.689 195.563 198.543 195.559 198.545 195.667ZM200.807 225.625C200.847 225.656 200.891 225.711 200.921 225.755C201.495 226.319 202.275 225.461 201.77 224.863C201.524 224.57 201.278 224.276 201.032 223.982C201.067 223.796 201.065 223.602 201.124 223.412C203.786 210.794 219.548 212.531 225.443 221.495C229.517 227.666 229.055 235.062 234.264 240.132C234.157 240.329 234.193 240.59 234.467 240.65C234.63 240.688 234.807 240.737 234.983 240.785C235.256 241.015 235.53 241.244 235.814 241.46C236.111 241.686 236.445 241.47 236.59 241.196C238.936 241.87 241.222 242.733 243.35 243.945C244.808 244.776 247.072 246.54 248.915 248.688C248.72 248.945 248.703 249.359 249.072 249.575C249.386 249.751 249.701 249.926 250.026 250.087C251.479 252.131 252.404 254.393 251.86 256.455C251.785 256.526 251.72 256.583 251.658 256.664C251.601 261.06 248.709 265.201 244.224 266.359C241.308 267.109 238.291 266.758 235.405 266.037C233.839 265.657 232.54 264.841 231.501 263.795C229.804 263.166 228.138 262.497 226.53 261.723C216.922 257.108 208.562 249.535 204.064 239.798C202.063 235.502 200.447 230.474 200.807 225.625ZM115.918 220.619C116.18 220.05 122.214 220.389 122.842 220.376C140.884 219.983 158.198 222.175 174.461 230.377C174.525 230.404 174.583 230.384 174.644 230.388C180.539 237.922 186.028 245.766 191.179 253.887C183.369 245.729 173.376 240.865 162.75 236.692C147.423 230.654 131.8 225.031 115.866 220.772C115.897 220.731 115.891 220.684 115.918 220.619ZM126.787 231.934C123.93 229.464 119.777 226.456 117.635 223.269C117.303 222.782 116.694 222.404 116.262 221.99C129.041 225.687 141.485 230.216 153.925 234.892C167.323 239.934 181.01 244.961 190.779 255.675C179.264 247.987 165.744 245.799 151.968 246.19C152.063 245.814 151.906 245.374 151.418 245.259C142.001 243.031 134.076 238.223 126.787 231.934ZM192.97 270.83C191.443 271.632 189.359 271.905 187.672 272.245C177.196 274.355 166.389 272.692 156.383 269.332C146.363 265.962 137.016 260.949 127.466 256.484C125.627 255.62 123.366 254.947 121.666 253.846C121.307 253.616 121.016 253.438 120.725 253.259C140.46 255.072 160.036 258.215 179.23 263.18C183.475 264.273 189.384 264.859 193.155 267.107C196.071 268.854 197.228 268.624 192.97 270.83ZM199.544 268.101C173.351 260.674 147.219 254.682 120.088 252.134C120.177 252.074 120.269 252.037 120.368 251.963C123.416 249.777 130.87 249.958 134.682 249.377C155.963 246.153 177.098 247.386 195.055 260.121C196.653 262.787 198.221 265.494 199.754 268.218C199.676 268.18 199.619 268.115 199.544 268.101ZM201.597 239.032C203.439 243.314 205.881 247.199 208.168 249.941C210.456 252.683 214.323 256.263 218.913 259.539C211.865 269.763 205.619 283.029 203.656 295.794C202.306 276.924 203.171 257.86 201.597 239.032ZM235.983 290.019C237.005 290.497 237.529 298.195 237.666 299.11C239.7 312.311 239.813 325.544 238.684 338.838C238.677 338.875 238.694 338.909 238.701 338.957C232.19 345.725 227.075 353.491 224.598 362.024C225.377 337.772 228.934 313.71 234.475 290.067C234.962 289.819 235.465 289.774 235.983 290.019ZM190.593 323.664C198.355 332.894 202.68 344.4 209.377 354.273C208.554 353.562 207.828 352.946 207.447 352.549C203.106 348.161 198.871 343.66 194.735 339.086C185.961 329.364 177.731 319.179 169.927 308.658C177.054 313.393 184.725 316.684 190.593 323.664ZM168.91 309.912C183.098 328.894 198.762 346.609 215.937 362.953C216.017 363.184 216.1 363.439 216.18 363.671C192.073 354.117 176.858 333.905 168.91 309.912ZM223.103 308.7C225.095 304.004 227.532 299.453 230.4 295.23C231.299 293.907 232.436 291.655 233.738 290.532C226.408 316.079 223.189 342.277 223.216 368.807C223.05 370.26 222.958 371.727 222.954 373.218C214.92 352.425 214.256 329.594 223.103 308.7ZM251.279 330.014C253.549 328.346 270.461 317.938 272.785 318.36C253.867 335.333 238.995 355.765 224.301 376.355C224.326 357.697 236.66 340.799 251.279 330.014ZM232.494 366.981C244.507 350.03 257.285 333.726 272.819 319.858C271.692 323.164 267.236 330.961 266.635 332.425C264.859 336.667 263.162 340.948 261.17 345.111C256.38 355.087 249.748 363.641 240.568 369.938C238.483 371.363 226.231 377.716 226.103 377.212C225.514 374.844 231.201 368.794 232.494 366.981Z" fill="#EAE8E1"/>
<path d="M209.41 170.716C208.961 159.189 207.2 147.114 203.798 136.076C203.775 135.995 203.721 135.953 203.681 135.923C203.551 135.504 203.435 135.096 203.305 134.677C203.329 134.674 203.367 134.681 203.401 134.664C217.596 127.1 232.025 111.431 224.886 94.1154C223.968 91.9015 222.651 89.7905 221.006 87.9425C227.901 77.1336 230.698 64.1694 228.035 51.5151C227.183 47.4739 225.785 42.4407 221.448 40.8515C219.548 40.1536 218.459 40.8842 216.599 40.7505C211.791 40.4256 208.929 39.7864 205.161 37.0286C204.124 36.2612 203.189 35.4436 202.059 34.798C192.61 29.3012 184.372 38.3421 181.186 46.7413C179.435 51.3442 178.689 56.1129 178.591 60.9263C173.596 49.4026 162.502 35.8883 149.318 36.6232C143.906 36.9265 139.446 39.7904 137.154 44.6855C135.078 49.1268 135.101 52.7722 131.471 56.4803C127.77 60.2831 123.206 62.0219 119.182 65.3233C109.478 73.292 112.213 86.385 121.244 93.7206C122.129 94.436 123.055 95.0974 123.991 95.7452C117.894 97.3421 107.974 101.583 107.701 109.038C107.564 112.669 110.466 115.388 112.547 117.952C116.872 123.288 118.327 126.956 119.117 133.575C119.402 136.033 118.985 137.872 119.97 140.307C127.571 159.063 160.973 142.813 171.359 135.939C171.56 135.815 171.63 135.611 171.631 135.442C180.481 140.099 193.329 138.768 202.18 134.867C202.608 136.857 203.049 138.857 203.606 140.818C203.656 141.005 203.767 141.111 203.889 141.203C205.345 151.041 206.782 160.82 207.896 170.717C208.001 171.672 209.448 171.705 209.41 170.716ZM115.985 83.6392C112.175 72.7173 119.462 67.5639 127.496 62.466C129.963 60.9047 132.538 59.3406 134.368 57.0178C138.192 52.1558 137.553 44.4128 143.017 40.6479C157.242 30.8009 172.706 52.397 178.607 63.4574C178.841 72.4074 181.169 81.4347 183.634 89.8615C183.84 90.5728 184.902 90.2702 184.734 89.5659C182.006 78.3143 178.741 66.7604 180.584 55.0781C181.487 49.4032 183.605 42.6894 187.94 38.6425C194.545 32.4793 199.918 35.9026 205.945 40.0366C213.362 45.1201 224.65 43.0079 226.465 54.5903C228.254 65.9823 225.772 77.1579 220.261 87.1838C217.442 84.2721 213.808 82.1503 209.763 81.6364C206.275 81.204 203.419 82.1277 201.049 83.8696C203.148 77.098 204.323 69.6888 203.683 62.649C205.928 62.6695 208.049 61.9554 208.701 59.442C209.326 57.0778 207.919 54.664 205.476 54.2584C203.305 53.8884 200.932 55.1581 200.526 57.4318C200.279 58.8232 200.787 60.4265 201.843 61.4215C201.579 61.797 201.761 62.5116 202.389 62.5833C202.538 62.6114 202.695 62.6022 202.83 62.62C202.613 70.4801 201.814 77.8984 199.262 85.4351C198.068 86.6406 197.026 88.068 196.119 89.598C195.381 88.6321 194.05 88.1959 192.747 88.4223C190.605 88.8 189.613 90.7779 188.961 92.6731C188.904 92.6082 188.833 92.533 188.776 92.4681C190.099 86.3236 190.476 79.9933 189.605 73.7607C190.686 73.6008 191.781 72.9178 192.391 72.1436C193.563 70.6865 193.5 68.5254 191.894 67.4114C190.41 66.39 188.005 66.5248 186.873 68.0127C185.691 69.5683 186.408 71.4582 187.478 72.9119C187.487 73.0683 187.541 73.1943 187.652 73.3003C187.72 73.3517 187.797 73.3895 187.875 73.4274C188.077 73.6664 188.276 73.8817 188.472 74.0731C188.641 74.244 188.868 74.225 189.062 74.1379C189.246 80.0401 188.876 85.7998 187.756 91.565C186.813 90.9545 185.667 90.6384 184.8 90.769C183.103 91.0372 182.047 92.4542 181.823 94.0122C177.662 88.5443 174.191 82.7035 171.105 76.5797C171.442 76.473 171.786 76.329 172.093 76.0931C172.271 75.9719 172.367 75.789 172.382 75.6294C173.337 74.6262 173.809 73.1071 173.486 71.7088C172.945 69.3342 170.455 68.4017 168.323 69.2992C166.282 70.1598 164.999 72.4928 166.153 74.5654C166.925 75.963 168.529 76.7983 170.085 76.7433C170.109 76.74 170.126 76.7741 170.149 76.7709C170.197 76.7644 170.221 76.7611 170.255 76.7443C170.387 76.7383 170.53 76.7188 170.673 76.6993C173.224 83.0781 176.64 88.9627 180.691 94.5183C179.076 93.333 176.329 93.7205 174.879 95.0944C174.589 95.3644 174.376 95.6722 174.187 95.9768C164.102 89.2701 155.946 81.5967 148.734 71.9518C148.785 71.8842 148.853 71.8506 148.891 71.7727C149.193 71.3193 148.703 70.9257 148.275 70.9842C149.313 69.7879 149.567 67.9107 148.854 66.4081C147.732 64.0401 144.847 63.7677 142.874 65.2131C140.887 66.6483 140.104 69.4463 141.744 71.4403C143.226 73.25 146.658 73.981 148.446 72.2456C154.888 82.2018 163.562 90.7378 173.695 96.9047C173.708 96.915 173.732 96.9117 173.746 96.922C172.931 99.3121 174.014 102.291 175.738 104.007C175.991 104.264 176.381 103.92 176.22 103.626C175.174 101.636 174.081 99.0338 175.363 96.8707C176.514 94.9073 179.504 94.7896 180.655 96.7535C181.035 97.4047 182.03 96.9658 181.858 96.2377C181.775 95.8974 181.638 95.601 181.467 95.3214C181.592 95.3528 181.738 95.357 181.854 95.317C181.976 95.9428 182.253 96.5594 182.698 97.0684C183.012 97.4134 183.531 96.9545 183.333 96.5694C182.417 94.9127 183.265 92.1423 185.453 92.1828C186.206 92.201 186.934 92.5622 187.447 93.1225C187.46 93.1327 187.463 93.1565 187.49 93.1771C187.441 93.4384 187.402 93.6862 187.342 93.961C187.22 94.4868 187.792 94.7723 188.167 94.5877C188.223 94.7375 188.294 94.8976 188.374 95.0442C188.569 95.4055 189.176 95.4194 189.366 95.0299C189.607 94.4878 189.587 93.9815 189.448 93.4914C189.935 92.3461 190.524 91.1504 191.457 90.3441C192.66 89.2949 194.878 89.2099 195.468 90.8748C195.093 91.5928 194.734 92.3448 194.41 93.08C191.162 100.494 189.251 106.767 181.311 110.507C177.051 112.519 172.242 112.449 168.256 115.224C168.245 115.237 168.222 115.241 168.201 115.268C167.603 114.877 166.858 114.482 166.356 113.908C166.423 113.596 166.249 113.207 165.893 113.086C165.89 113.062 165.873 113.028 165.87 113.004C165.649 112.004 166.409 111.173 167.271 110.825C168.957 110.122 170.519 111.181 172.137 111.494C172.523 111.574 172.901 111.05 172.536 110.772C172.303 110.574 172.049 110.402 171.785 110.245C170.493 108.942 167.374 105.696 169.468 104.064C171.407 102.551 173.561 104.402 175.271 105.296C175.87 105.602 176.5 104.8 175.987 104.325C174.016 102.485 170.443 100.985 168.27 103.367C167.384 104.337 167.346 105.397 167.743 106.445C167.729 106.435 167.716 106.425 167.692 106.428C155.212 105.03 141.993 102.643 130.491 97.3782C124.17 94.5572 118.313 90.3393 115.985 83.6392ZM203.825 61.2841C203.72 61.2257 203.649 61.1506 203.554 61.0787C203.545 61.0073 203.535 60.9358 203.525 60.8644C203.486 60.5788 203.171 60.4886 202.997 60.6336C202.326 59.9738 201.883 59.1252 201.962 58.0963C202.116 56.4631 203.732 55.5149 205.286 55.7996C206.928 56.1086 207.701 57.6998 207.245 59.253C206.758 60.9317 205.316 61.2864 203.825 61.2841ZM188.512 72.2252C187.867 71.2225 187.311 70.0742 187.899 69.0484C188.476 68.0361 190.104 67.9713 191.007 68.5509C192.068 69.2301 191.91 70.5609 191.14 71.4055C190.349 72.2772 189.517 72.3061 188.512 72.2252ZM171.541 74.8836C171.494 74.8902 171.46 74.9069 171.402 74.927C170.14 75.7176 168.394 75.2653 167.57 74.0203C166.743 72.7514 167.507 71.3258 168.771 70.7288C170.104 70.0982 171.738 70.5295 172.104 72.0673C172.335 73.0539 172.101 74.0921 171.541 74.8836ZM146.243 71.6377C145.083 71.8446 143.916 71.6405 143 70.6021C141.786 69.2527 142.404 67.3744 143.752 66.4143C145.042 65.4744 146.886 65.574 147.609 67.1479C148.315 68.6878 147.876 70.8085 146.284 71.5836C146.274 71.5971 146.253 71.6241 146.243 71.6377ZM120.611 133.601C119.802 127.288 119.974 125.07 115.93 119.477C114.631 117.679 111.124 114.522 110.454 112.71C107.047 103.503 118.472 98.657 124.731 96.8199C124.929 96.7565 125.045 96.6315 125.111 96.4892C137.238 104.129 154.056 106.243 167.618 107.759C167.9 107.782 168.077 107.66 168.16 107.467C168.61 108.194 169.2 108.877 169.827 109.482C168.22 109.071 166.477 109.261 165.289 110.514C164.41 111.446 164.295 112.383 164.605 113.238C159.232 114.105 153.906 113.706 148.669 112.179C148.783 110.345 147.586 108.667 145.831 108.058C143.655 107.301 141.506 108.697 140.941 110.872C140.413 112.968 141.532 115.227 143.733 115.642C145.562 115.986 147.583 114.982 148.098 113.154C148.251 113.121 148.398 113.04 148.49 112.919C153.894 114.956 159.624 115.385 165.32 114.401C165.876 115.016 166.613 115.533 167.385 115.864C165.384 117.459 163.906 119.43 163.293 121.611C153.83 122.613 144.378 123.069 134.863 123.242C134.891 123.177 134.915 123.089 134.916 123.004C134.975 120.851 132.759 119.166 130.734 119.163C128.469 119.17 126.95 121.196 127.074 123.361C127.186 125.43 128.777 127.152 130.907 127.043C132.749 126.949 134.331 125.569 134.608 123.773C144.074 124.31 153.57 123.994 163.011 123.104C162.861 124.676 163.162 126.356 164.071 128.05C165.653 131.046 167.957 133.289 170.701 134.926C158.332 142.108 123.951 159.363 120.611 133.601ZM142.473 111.268C143.337 108.083 147.474 109.627 147.159 112.483C147.147 112.666 147.204 112.816 147.291 112.925C145.748 115.039 141.612 114.477 142.473 111.268ZM133.304 123.721C133.389 123.722 133.488 123.733 133.573 123.733C132.623 126.021 128.734 126.394 128.528 123.356C128.436 121.962 129.366 120.599 130.856 120.686C132.309 120.766 133.222 121.866 133.501 123.209C133.505 123.233 133.532 123.254 133.535 123.278C133.45 123.277 133.379 123.287 133.294 123.286C133.015 123.288 133.023 123.699 133.304 123.721ZM187.344 136.822C184.165 136.795 180.854 136.242 177.811 135.252C173.537 133.86 164.147 129.325 165.333 122.884C165.891 122.711 166.011 121.991 165.708 121.633C166.285 120.172 167.386 118.64 169.225 117.007C173.285 113.434 180.007 113.848 184.712 111.363C187.923 109.664 190.137 107.313 191.938 104.157C194.424 99.7933 195.252 94.5528 198.005 90.3705C205.876 78.4464 220.448 85.7037 223.805 97.2207C228.005 111.641 217.48 123.746 206.482 131.649C206.293 131.42 205.999 131.303 205.674 131.505C200.035 135.051 194.028 136.866 187.344 136.822Z" fill="#EAE8E1"/>
</g>
<defs>
<clipPath id="clip0_1_8135">
<rect width="290" height="278" fill="white" transform="translate(168.246) rotate(37.2434)"/>
</clipPath>
</defs>
</svg>
