<svg width="203" height="329" viewBox="0 0 203 329" fill="none" xmlns="http://www.w3.org/2000/svg">
<g clip-path="url(#clip0_1_8139)">
<path fill-rule="evenodd" clip-rule="evenodd" d="M89.8833 0.0982459C89.0516 0.177659 86.6412 0.490548 84.5251 0.795495C78.1289 1.71828 77.8666 1.73098 68.5241 1.57851C55.874 1.37204 54.2346 1.39586 52.6895 1.80881C50.6982 2.34247 48.5869 3.4479 47.4945 4.53269C46.458 5.56347 45.5847 7.15651 45.1417 8.82419C44.5882 10.9112 44.849 15.4981 45.7111 18.8303C45.8806 19.4862 46.0086 20.031 45.9958 20.0405C45.983 20.0516 43.7405 21.1142 41.0135 22.4023C28.8576 28.1423 24.1872 30.6962 21.692 32.9706C17.5158 36.7761 14.0322 44.1917 14.4545 48.372C14.6848 50.6353 15.8476 52.8367 17.7813 54.6679C19.1489 55.9624 20.3357 56.766 23.9792 58.861C25.6954 59.8473 28.5761 61.5626 30.3819 62.6728C32.1876 63.783 34.7068 65.2474 35.98 65.9256C40.724 68.4525 41.1654 68.7527 45.8518 72.6376C47.8319 74.2783 48.8876 75.4171 51.2212 78.43C52.9294 80.6361 55.1687 83.765 55.1687 83.9476C55.1687 84.0112 54.8088 83.9715 54.3673 83.8571C52.8814 83.4743 50.6262 83.3044 49.3754 83.4791C47.5153 83.7396 45.1065 84.3939 43.8685 84.9737C43.2383 85.2675 41.5829 86.1839 40.1897 87.0098C34.9419 90.1149 34.1038 90.4738 28.2178 92.1304C21.5081 94.0204 18.5939 95.056 14.6224 96.9603C12.0233 98.2071 10.7293 98.9742 8.62444 100.515C5.55508 102.761 2.96875 105.856 1.9403 108.513C1.30692 110.148 0.52638 113.335 0.206489 115.586C-0.254155 118.839 0.0273492 120.753 1.3501 123.346C2.02027 124.661 2.49371 125.192 3.39101 125.636C4.42266 126.146 5.01926 126.146 5.98693 125.635C7.06816 125.063 7.61198 124.576 8.98111 122.943C11.3355 120.136 13.0485 118.715 16.513 116.693C19.3376 115.043 22.1686 113.885 24.3663 113.481C25.4075 113.291 27.8195 113.472 30.9369 113.974C39.8938 115.416 44.0828 115.878 49.1099 115.981C54.1082 116.085 55.3734 115.931 59.8167 114.682C64.2232 113.445 66.8671 112.492 69.6357 111.144C72.0189 109.984 75.9232 108.318 78.8198 107.225L80.3185 106.66L80.9791 107.354C81.6749 108.085 82.545 108.482 83.8069 108.644C84.5715 108.744 86.2045 109.7 90.4143 112.514C92.2665 113.753 92.7399 114.177 95.1615 116.761C98.4228 120.244 99.4832 121.513 100.216 122.813C101.148 124.471 102.252 127.058 103.554 130.646C104.237 132.525 105.385 135.598 106.11 137.475C107.578 141.29 107.954 142.537 108.979 147.005C109.369 148.709 110.198 152.227 110.822 154.824C112.105 160.175 112.858 163.85 113.455 167.652C113.886 170.411 114.536 175.621 114.457 175.699C114.432 175.724 114.163 175.435 113.861 175.057C113.029 174.021 110.713 171.374 109.63 170.224C108.504 169.026 106.679 167.579 104.688 166.307C101.107 164.017 99.2977 162.556 98.8866 161.617C98.1749 159.992 97.9973 159.238 97.8678 157.268C97.7942 156.142 97.6582 155.145 97.5639 155.053C97.308 154.797 97.356 154.289 97.775 152.845C97.9845 152.122 98.1989 150.996 98.2533 150.34C99.0354 140.798 99.021 140.175 97.9574 137.064C97.1016 134.556 96.8537 134.034 95.7517 132.41C94.1986 130.123 91.2124 127.388 88.9172 126.153C86.9211 125.079 84.202 124.131 82.3786 123.875C79.1125 123.414 78.3432 123.411 77.3707 123.853C76.1775 124.396 75.4146 125.109 74.8884 126.17C74.4837 126.99 74.4437 127.228 74.4517 128.74C74.4581 130.047 74.5381 130.628 74.8196 131.419C75.0163 131.975 75.1491 132.46 75.1139 132.495C75.0771 132.531 74.5653 132.693 73.9767 132.855C72.7227 133.2 72.2205 133.606 71.7055 134.696C71.0305 136.122 70.789 137.628 70.8929 139.766C71.0577 143.18 71.9438 145.409 74.0726 147.761C75.8145 149.688 79.5364 152.832 81.2046 153.79C81.9324 154.208 83.3271 155.037 84.3028 155.632C85.2801 156.228 86.8923 157.118 87.8872 157.61C89.4594 158.387 89.6754 158.541 89.5426 158.787C89.4578 158.942 89.4354 159.251 89.4914 159.471C89.6786 160.213 90.3583 160.583 92.3768 161.044C95.0831 161.662 96.9193 162.446 98.1941 163.533C99.504 164.649 101.143 165.847 103.392 167.332C106.786 169.57 107.824 170.446 111.262 173.975L114.651 177.457L114.902 179.742C115.038 180.999 115.364 183.599 115.623 185.52C116.31 190.592 116.551 192.865 116.828 196.877C116.964 198.843 117.215 202.166 117.386 204.262C117.824 209.64 118.069 213.248 117.997 213.32C117.965 213.352 117.301 212.635 116.525 211.725C114.488 209.34 112.743 207.739 109.39 205.183C106.855 203.252 104.758 201.548 100.833 198.235C100.133 197.644 100.029 197.477 99.9967 196.896C99.9583 196.189 99.2401 193.606 98.5635 191.737C97.4743 188.729 94.0355 182.657 91.3836 179.059C90.5103 177.876 89.3411 176.258 88.7813 175.462C88.2231 174.668 87.1866 173.353 86.478 172.543C85.7695 171.731 84.5027 170.21 83.663 169.161C82.0987 167.209 79.4948 164.552 75.5665 160.902C73.169 158.676 67.2286 152.497 65.8706 150.817C65.41 150.25 64.2024 148.539 63.1851 147.015C61.141 143.952 59.476 142.102 58.4715 141.772C57.1808 141.349 56.2195 141.977 55.8052 143.511C55.5525 144.45 55.6789 145.555 56.3858 148.589C58.2668 156.657 60.5492 160.272 70.5442 171.004C73.692 174.382 76.4542 177.452 78.6055 179.962C79.6532 181.185 81.3038 183 82.2747 183.994C83.9157 185.678 90.3727 191.635 94.6577 195.42C95.6797 196.322 96.7674 197.331 97.0744 197.66C97.3831 197.988 97.887 198.385 98.1941 198.543C98.7331 198.816 101.187 200.733 104.192 203.233C104.984 203.89 107.108 205.534 108.91 206.884C111.423 208.765 112.725 209.88 114.481 211.646C115.74 212.913 117.1 214.379 117.501 214.903L118.232 215.856L118.133 219.676C118.027 223.72 117.789 227.416 117.149 234.916C116.335 244.464 115.886 251.974 115.702 259.057C115.649 261.154 115.572 262.968 115.534 263.085C115.495 263.204 114.993 262.526 114.416 261.576C112.085 257.749 109.213 254.602 105.676 252.005L103.643 250.511L104.136 249.955C104.568 249.466 104.619 249.309 104.557 248.668C104.456 247.627 104.125 247.025 101.961 243.959C99.7663 240.849 95.4158 235.568 93.3973 233.566C90.136 230.33 85.8814 227.387 79.4004 223.885C74.7764 221.384 70.3235 218.264 64.7862 213.646C57.6846 207.721 56.0452 206.765 54.8616 207.858C54.1818 208.488 54.5305 209.934 56.1203 213.077C57.5774 215.956 59.2633 218.452 62.934 223.162C66.9631 228.334 69.6214 231.288 73.057 234.411C77.11 238.094 80.0674 240.241 84.5187 242.73C85.3104 243.173 87.6137 244.464 89.637 245.598C93.7892 247.927 95.2559 248.676 98.378 250.066C100.843 251.162 101.913 251.737 103.648 252.901C108.215 255.96 111.818 259.869 114.643 264.827L115.305 265.99L115.371 276.898C115.438 287.862 115.54 290.784 116.106 297.811C116.452 302.093 116.61 304.347 117.072 311.549C117.48 317.885 117.784 321.135 118.194 323.541C118.646 326.208 119.345 328.901 119.604 328.987C119.772 329.043 119.8 328.92 119.724 328.444C119.464 326.789 119.257 322.05 118.822 307.658C118.733 304.688 118.517 300.185 118.344 297.652C117.92 291.436 117.927 291.004 118.456 289.851C119.566 287.432 121.57 284.611 123.835 282.275C124.894 281.183 125.079 281.052 125.362 281.202C125.838 281.455 126.181 281.42 128.419 280.898C130.909 280.316 132.454 280.143 136.947 279.946C138.863 279.86 141.128 279.681 141.979 279.544C146.718 278.787 151.65 276.944 155.295 274.568C158.917 272.208 162.316 267.664 167.606 258.104C170.803 252.328 171.843 250.592 174.151 247.185C177.825 241.759 179.135 239.698 179.874 238.172C180.275 237.342 180.667 236.556 180.745 236.424C181.462 235.229 181.513 234.822 180.91 235.143C180.653 235.278 180.465 235.243 180 234.971C179.464 234.657 179.335 234.642 178.445 234.808C177.062 235.062 174.621 236.301 171.76 238.199C164.867 242.771 160.384 246.777 152.413 255.484C149.972 258.149 146.474 261.799 144.638 263.597C139.742 268.388 136.997 270.585 130.423 274.972C125.031 278.571 123.302 280.061 120.796 283.278C119.875 284.462 119.344 285.283 118.498 286.83L117.901 287.922L117.776 286.196C117.388 280.813 117.77 258.962 118.435 248.575C118.877 241.659 118.707 242.42 120.494 239.331C121.346 237.857 122.416 236.156 122.874 235.549C125.131 232.555 130.626 227.676 135.321 224.503L136.218 223.895L136.394 224.279C136.813 225.191 137.451 225.021 141.939 222.799C143.435 222.059 145.991 220.863 147.617 220.142C158.222 215.448 166.808 210.993 172.239 207.366C175.816 204.978 179.355 201.467 183.612 196.082C188.786 189.539 190.065 188.213 194.721 184.566C199.189 181.067 201.992 178.415 202.746 176.974C203.087 176.321 203.085 175.254 202.743 174.736C202.595 174.511 202.17 174.166 201.797 173.969C201.183 173.643 200.911 173.61 198.88 173.62C194.539 173.637 188.976 174.993 183.642 177.331C175.947 180.705 168.134 186.585 159.359 195.606C154.583 200.519 151.722 203.836 147.579 209.265C141.208 217.616 139.889 218.955 133.403 223.65C130.356 225.855 127.974 227.838 125.414 230.3C122.763 232.851 121.391 234.601 119.913 237.323C119.56 237.975 119.253 238.484 119.229 238.459C119.206 238.432 119.424 235.873 119.71 232.771C120.847 220.507 120.871 216.223 119.872 203.708C119.744 202.091 119.526 199.018 119.39 196.877C119.254 194.737 119.035 191.999 118.904 190.792L118.664 188.599L120.094 183.089C120.881 180.058 122.141 175.595 122.895 173.169C123.649 170.743 124.265 168.725 124.265 168.682C124.265 168.64 124.505 168.605 124.799 168.605C125.163 168.605 125.767 168.343 126.679 167.789C127.419 167.34 129.068 166.364 130.343 165.624C131.62 164.883 134.052 163.459 135.751 162.46C137.45 161.461 140.581 159.746 142.709 158.65C144.837 157.554 147.406 156.211 148.417 155.666C149.43 155.119 151.445 154.046 152.896 153.279C156.678 151.279 158.311 150.275 162.012 147.672C169.108 142.682 169.669 142.243 172.729 139.308C173.653 138.422 175.462 136.758 176.75 135.608C179.923 132.776 181.059 131.253 181.39 129.386C181.595 128.232 181.377 127.357 180.694 126.585C179.707 125.468 178.162 125.006 175.448 125.017C173.754 125.023 173.471 125.071 171.86 125.617C168.981 126.593 166.646 127.925 159.135 132.879C150.503 138.573 149.204 139.348 142.259 142.96C134.571 146.957 132.147 148.601 130.13 151.182C127.744 154.238 124.999 159.751 122.994 165.508C121.697 169.236 119.364 177.551 118.709 180.789C118.221 183.194 118.093 183.634 118.002 183.197C117.941 182.903 117.667 180.411 117.392 177.659C117.117 174.908 116.709 171.369 116.489 169.797C115.862 165.351 115.841 164.325 116.324 161.538C116.817 158.698 117.082 157.858 118.506 154.629C121.285 148.331 121.14 148.563 124.076 145.698C126.444 143.389 128.03 140.85 127.918 139.554L127.864 138.941L130.298 137.083C134.083 134.196 137.809 130.142 139.067 127.549C139.956 125.711 140.58 122.792 140.58 120.464C140.58 119.333 140.18 117.212 139.754 116.08C139.331 114.957 138.689 114.247 137.261 113.319C135.593 112.236 132.111 111.159 130.961 111.369C129.092 111.711 127.413 113.759 126.981 116.228L126.797 117.277L126.29 116.98C125.66 116.612 123.934 116.199 123.008 116.196C122.09 116.193 120.574 116.993 119.873 117.851C118.496 119.536 117.799 121.864 117.799 124.769C117.8 126.81 117.888 127.317 119.643 135.331C120.091 137.383 120.425 140.085 120.239 140.153C120.155 140.185 119.892 140.376 119.656 140.577C119.264 140.914 119.229 141.036 119.251 142.029C119.264 142.626 119.396 143.579 119.545 144.146C119.696 144.715 119.851 145.679 119.892 146.29C119.967 147.391 119.956 147.428 118.896 149.705C116.313 155.258 115.638 156.96 115.303 158.758C114.977 160.521 114.926 160.505 114.473 158.498C113.677 154.969 110.665 142.801 110.252 141.446C110.025 140.704 109.029 138.06 108.036 135.57C107.044 133.081 105.784 129.864 105.235 128.422C104.005 125.19 102.394 121.906 100.918 119.622C100.302 118.667 99.7471 117.632 99.6864 117.319C99.5168 116.459 99.5456 114.982 99.7551 113.651C99.8591 112.997 99.9455 111.601 99.9487 110.551C99.9551 108.105 100.182 106.336 100.697 104.706C101.105 103.421 102.591 100.529 103.162 99.9129C103.324 99.7366 103.607 99.2554 103.791 98.844C104.098 98.1563 104.195 98.0753 104.958 97.8624C107.828 97.0635 111.735 96.838 113.886 97.3478C114.467 97.486 116.23 98.1436 117.805 98.8106C123.269 101.126 126.674 101.862 133.222 102.143C135.823 102.254 142.382 102.761 146.018 103.129C147.718 103.302 150.052 103.398 152.576 103.398C156.234 103.398 156.637 103.369 158.628 102.959C161.94 102.278 163.074 101.8 166.011 99.843C167.324 98.9695 170.734 97.2271 172.009 96.7793C172.625 96.5633 173.692 96.2631 174.378 96.1138C176.428 95.6659 177.209 94.6907 176.884 92.9849C176.801 92.5561 176.662 92.0716 176.574 91.908C176.313 91.422 175.475 90.8026 174.842 90.6279C174.023 90.4008 171.253 90.1768 166.811 89.9799C163.086 89.8147 161.381 89.5971 159.743 89.0809C158.689 88.749 157.459 87.5784 155.775 85.3056C153.972 82.874 153.251 82.2673 150.533 80.8902C147.241 79.2241 145.189 78.6635 141.619 78.4602C139.695 78.3506 136.464 78.8509 133.542 79.7133C128.267 81.2682 125.997 82.0211 123.306 83.1043C120.706 84.1509 115.455 86.0203 115.113 86.0203C115.046 86.0203 115.406 85.4628 115.914 84.7815C116.423 84.1001 118.003 81.8305 119.425 79.7387C122.477 75.2487 123.552 73.886 125.566 71.961C127.661 69.9582 131.703 66.7356 134.611 64.7487C140.637 60.6287 142.52 59.1818 144.834 56.8867C146.766 54.9697 147.169 54.4821 147.664 53.4593C148.462 51.8075 149.06 49.6585 149.167 48.0592C149.334 45.6148 148.435 43.1196 146.109 39.5683C145.424 38.5232 144.502 37.0223 144.059 36.2329C142.565 33.5742 142.525 33.5329 138.101 30.315C135.182 28.1915 133.936 27.7055 129.623 27.0114C127.479 26.6652 125.996 26.5318 121.106 26.2411C120.674 26.2157 120.681 26.3936 121.002 22.9312C121.34 19.3163 121.239 15.776 120.751 13.9892C119.76 10.3696 117.341 6.86903 114.518 4.97105C113.002 3.95138 109.593 2.33611 107.631 1.70557C103.674 0.436547 101.156 0.0791867 95.6349 0.00930292C93.3045 -0.0208742 90.7166 0.0204208 89.8833 0.0982459ZM99.6336 1.84693C104.793 2.31388 109.838 3.96091 113.474 6.36237C115.446 7.66634 116.874 9.38643 118.112 11.9547C119.203 14.2164 119.388 15.2011 119.376 18.673C119.364 21.8607 118.917 26.8478 118.411 29.3938C118.048 31.2188 115.526 38.7456 113.754 43.2912C107.674 58.88 108.108 57.6825 105.947 64.8265C105.104 67.6139 104.018 71.3956 103.535 73.23C100.457 84.8974 98.1525 91.9922 96.1484 95.9549C95.1599 97.9117 94.4993 98.5645 93.5109 98.5613C93.1398 98.5597 92.7559 98.5057 92.6567 98.4422C92.42 98.2881 90.3487 95.0147 89.4658 93.401C88.5637 91.7508 88.4134 91.3093 87.4537 87.5244C85.52 79.8912 84.4787 77.5866 79.3445 69.577C78.3368 68.0046 76.5086 65.0743 75.2802 63.0651C72.4524 58.4353 70.8369 56.0561 64.9845 47.8971C53.9755 32.5513 50.5814 26.8367 48.3902 19.9627C47.2433 16.3621 46.7411 12.1484 47.1618 9.6755C47.5728 7.26133 48.8924 5.49994 51.0597 4.47233C53.5244 3.30337 52.8302 3.35102 67.0046 3.34943C78.2248 3.34784 79.9283 3.31449 81.4797 3.07466C85.8671 2.39488 88.8005 1.98987 90.2768 1.86281C92.588 1.6611 97.4983 1.65316 99.6336 1.84693ZM47.0994 23.1996C47.4193 24.0731 48.2366 25.9314 48.9164 27.3291C51.2964 32.2225 54.7336 37.4861 63.593 49.811C69.8021 58.4496 71.0529 60.2666 73.4792 64.1769C74.3462 65.5746 76.2559 68.5399 77.7242 70.7682C83.3559 79.3131 84.0245 80.787 86.4397 89.9862C87.5305 94.1459 88.3894 96.792 89.0036 97.8958L89.3843 98.5803L88.6309 98.4851C85.0833 98.034 81.3646 97.3288 79.0006 96.657C78.0777 96.3949 76.5742 95.9994 75.6625 95.7786C72.4812 95.0099 66.1777 91.8334 62.7949 89.2969C61.1746 88.0819 58.5851 85.1881 56.9089 82.7183C54.1962 78.7191 50.7781 74.3752 48.9868 72.6471C47.3729 71.0922 43.4782 67.9268 41.8932 66.8865C41.0582 66.3369 39.0685 65.2045 37.4723 64.3707C35.876 63.5368 33.1585 61.9914 31.4343 60.9368C29.7101 59.8822 27.0214 58.3305 25.4603 57.4887C20.6236 54.8808 18.8706 53.5943 17.5862 51.7106C16.345 49.892 15.9867 48.2196 16.3674 46.0325C17.2103 41.1772 20.9003 35.4451 24.9389 32.7117C26.4904 31.6635 34.5181 27.3497 39.334 24.9769C41.4021 23.9588 43.8125 22.6739 44.6922 22.1227C46.0038 21.3 46.3125 21.1634 46.4068 21.3667C46.4692 21.5001 46.7811 22.326 47.0994 23.1996ZM121.724 27.4149C122.023 27.5006 123.392 27.6769 124.767 27.8072C126.143 27.9374 127.618 28.1105 128.046 28.1915C128.473 28.2725 129.436 28.417 130.183 28.5155C131.911 28.7426 133.665 29.2096 134.652 29.7067C135.076 29.9195 136.098 30.6168 136.922 31.2537C137.747 31.8906 138.793 32.6831 139.249 33.0135C140.548 33.9538 141.591 35.2005 142.421 36.8079C142.843 37.6226 143.619 38.9663 144.145 39.797C145.823 42.443 146.202 43.1355 146.69 44.4585C147.392 46.3534 147.449 47.7161 146.915 49.7046C146.21 52.3348 145.738 53.1241 143.631 55.2111C141.755 57.0678 138.752 59.3168 132.715 63.3828C127.781 66.7054 122.797 71.1256 120.443 74.2624C119.886 75.0041 118.456 77.0768 117.266 78.8684C116.074 80.6583 114.616 82.7739 114.024 83.568C111.035 87.5768 106.721 92.2098 104.752 93.5233C104.093 93.9633 103.301 94.5176 102.992 94.7542C102.357 95.2434 97.9014 97.3717 97.7766 97.2462C97.7302 97.2017 97.9398 96.6744 98.2405 96.0756C99.2289 94.1078 100.72 90.1228 101.796 86.5699C103.047 82.442 104.854 76.0682 105.534 73.3872C105.799 72.339 106.842 68.7289 107.852 65.3665C109.664 59.3231 110.998 55.578 114.779 45.9198C117.755 38.3167 120.217 30.5453 120.51 27.8262C120.618 26.824 120.642 26.7732 120.905 27.0083C121.057 27.148 121.426 27.3291 121.724 27.4149ZM143.598 80.706C145.73 81.0173 147.723 81.6717 149.765 82.731C151.67 83.7173 152.718 84.6322 154.165 86.5699C157.427 90.9344 158.63 91.4887 165.371 91.7333C168.964 91.8636 173.183 92.1336 174.287 92.3035C174.818 92.3861 175.008 92.6069 175.187 93.3502C175.322 93.9108 175.013 94.2031 174.14 94.3381C171.838 94.6939 167.505 96.6109 164.586 98.5629C163.764 99.1124 162.687 99.762 162.192 100.007C161.262 100.466 159.154 100.95 156.654 101.277C154.916 101.506 149.724 101.388 146.338 101.044C143.961 100.802 137.75 100.439 131.223 100.157C125.945 99.9304 123.155 99.3046 118.347 97.2684C114.678 95.7151 113.856 95.5198 110.91 95.5023C108.379 95.488 107.263 95.6563 105.059 96.3917C104.45 96.595 103.952 96.7443 103.952 96.7237C103.952 96.703 104.665 96.2138 105.537 95.6357C107.452 94.3667 108.83 93.1199 110.972 90.7216L112.588 88.9142L116.148 87.7722C118.106 87.1448 121.146 86.0696 122.906 85.3834C125.702 84.2939 129.78 82.9486 134.342 81.6113C136.199 81.0681 139.466 80.4916 140.799 80.4725C141.403 80.4646 142.664 80.5694 143.598 80.706ZM55.1591 85.5931C55.8148 85.8202 56.4114 86.1156 56.4866 86.249C56.5634 86.3825 56.6897 86.4921 56.7713 86.4921C56.8529 86.4921 57.8382 87.4291 58.9626 88.5759C60.6532 90.2991 61.3953 90.9154 63.2459 92.1367C66.7855 94.4731 72.2941 97.189 74.6309 97.7497C75.3186 97.9149 77.1052 98.3739 78.6007 98.7678C80.0962 99.1617 81.6445 99.5301 82.0395 99.5841C82.4362 99.6381 83.3351 99.7858 84.0389 99.9113C85.9982 100.261 88.487 100.628 88.9252 100.631C89.1411 100.632 88.1367 101.099 86.694 101.67C85.2497 102.24 83.2343 103.101 82.2155 103.585C81.195 104.069 79.3893 104.848 78.2009 105.318C73.9639 106.992 71.7278 107.951 68.6281 109.428C63.3051 111.965 55.9748 114.198 52.6095 114.306C48.5021 114.439 41.866 113.886 35.2554 112.86C32.9682 112.505 30.425 112.111 29.6029 111.985C28.7808 111.86 27.3045 111.714 26.324 111.66C24.8317 111.579 24.3391 111.614 23.3219 111.88C20.1661 112.705 17.2151 114.114 13.3428 116.642C11.5994 117.783 8.87395 120.368 7.34487 122.334C6.38359 123.572 5.24798 124.452 4.61459 124.452C3.4262 124.452 1.76116 120.972 1.74997 118.465C1.74037 116.35 2.69684 111.712 3.63733 109.306C4.78894 106.36 7.44883 103.498 11.5035 100.837C15.1726 98.4295 20.3021 96.3552 27.498 94.3651C34.3645 92.4671 35.732 91.9017 40.7527 88.8872C44.6906 86.5222 45.5111 86.1347 47.8335 85.5296C49.5114 85.0928 49.8169 85.061 51.8098 85.1182C53.6204 85.169 54.1626 85.2468 55.1591 85.5931ZM133.272 113.426C134.956 113.893 136.515 114.698 137.358 115.537C139.217 117.385 139.102 123.275 137.134 126.982C135.98 129.158 131.899 133.444 128.184 136.383C127.128 137.218 125.986 138.238 125.647 138.651C125.308 139.062 125.007 139.378 124.98 139.351C124.953 139.324 125.105 138.587 125.318 137.714C125.742 135.981 126.445 131.815 126.97 127.946C127.77 122.039 128.445 117.32 128.606 116.51C128.905 115.016 129.713 113.766 130.743 113.202C131.223 112.938 131.656 112.976 133.272 113.426ZM124.862 117.713C125.335 117.846 125.879 118.137 126.114 118.381C126.61 118.897 126.647 118.334 125.633 125.802C124.396 134.914 124.085 136.673 123.131 139.891C122.958 140.477 122.752 140.997 122.674 141.046C122.595 141.093 122.386 140.932 122.21 140.685C121.981 140.366 121.837 139.767 121.706 138.589C121.537 137.048 120.921 133.772 119.811 128.499C119.109 125.168 119.056 124.212 119.464 122.241C120.004 119.614 120.82 118.265 122.266 117.597C122.95 117.281 123.386 117.3 124.862 117.713ZM81.7996 126.014C84.8722 126.507 88.1367 127.92 90.4591 129.766C93.4725 132.16 95.0399 134.334 96.529 138.19C97.1336 139.755 97.1416 139.813 97.148 142.002C97.1576 145.383 96.6506 150.547 96.1036 152.643C95.8525 153.604 95.5614 155.069 95.4558 155.896C95.2959 157.157 95.2383 157.337 95.1055 157.008C95.0191 156.792 94.4961 155.685 93.9459 154.549C92.6408 151.854 91.254 150.143 86.3533 145.18C80.9583 139.713 79.7347 138.017 77.7738 133.278C76.547 130.316 76.2655 129.151 76.4494 127.824C76.5726 126.947 77.0077 126.369 77.8906 125.911C78.6743 125.506 78.6023 125.505 81.7996 126.014ZM178.193 127.195C180.157 128.025 179.832 129.761 177.228 132.366C174.926 134.667 169.093 140.025 167.566 141.24C165.842 142.612 159.37 147.156 157.32 148.434C156.514 148.936 154.775 149.919 153.455 150.618C145.989 154.57 143.563 155.844 140.82 157.248C139.148 158.104 135.46 160.186 132.624 161.876C127.811 164.741 126.324 165.588 126.111 165.588C125.612 165.588 126.813 161.777 128.23 158.861C130.954 153.263 132.795 150.842 135.847 148.846C136.618 148.342 140.648 146.055 144.804 143.762C151.024 140.331 153.379 138.929 158.107 135.84C161.267 133.775 163.89 132.101 163.937 132.12C163.983 132.14 164.343 131.916 164.736 131.623C167.516 129.556 171.133 127.682 173.529 127.068C174.664 126.777 177.38 126.85 178.193 127.195ZM76.523 135.52C77.9417 138.935 79.5476 141.032 84.837 146.37C89.4258 151.003 90.6942 152.407 91.7499 154.028C92.7015 155.49 93.7524 157.845 93.5173 157.989C93.031 158.286 88.914 156.346 85.2864 154.108C84.2484 153.468 82.8393 152.629 82.1563 152.246C79.7475 150.898 75.4978 147.239 74.1302 145.337C72.9482 143.693 72.1325 140.472 72.3516 138.314C72.478 137.066 72.9834 135.42 73.4057 134.887C73.7288 134.48 75.1987 133.805 75.6273 133.868C75.7505 133.888 76.1535 134.631 76.523 135.52ZM59.6295 144.423C60.7796 145.644 61.7632 147.154 63.1404 149.81C64.1768 151.808 64.4535 152.197 66.1825 154.073C69.4358 157.604 74.1766 162.286 76.6814 164.439C79.1765 166.585 80.157 167.602 82.6825 170.67C83.5095 171.676 84.7394 173.121 85.416 173.883C86.0926 174.646 87.2234 176.112 87.9304 177.139C88.6357 178.168 89.7217 179.688 90.3407 180.517C93.2278 184.383 97.1736 191.815 98.2485 195.409C98.482 196.19 98.4804 196.235 98.2261 196.097C98.0773 196.016 97.1976 195.211 96.2747 194.308C95.3502 193.406 93.8387 192.026 92.9159 191.241C90.6766 189.337 84.9442 184.026 83.6182 182.625C83.0344 182.009 81.2734 180.014 79.7043 178.192C78.1353 176.371 75.4098 173.316 73.6472 171.406C63.5018 160.4 61.2978 157.481 59.3976 152.539C58.6891 150.696 57.4079 145.599 57.4079 144.624C57.4079 143.492 57.4959 143.36 58.182 143.438C58.6475 143.492 58.945 143.693 59.6295 144.423ZM197.524 175.532C195.958 175.95 192.996 177.717 188.602 180.859C186.019 182.703 185.44 183.175 178.145 189.355C171.001 195.407 170.293 195.951 164.127 200.082C160.416 202.567 154.381 206.908 149.063 210.917C148.395 211.42 152.393 206.378 155.236 203.13C163.494 193.697 171.38 186.631 178.928 181.904C180.86 180.694 185.315 178.469 187.593 177.576C189.493 176.833 192.792 176.002 195.417 175.608C197.925 175.233 198.758 175.202 197.524 175.532ZM200.524 177.063C199.683 178.081 196.889 180.559 193.722 183.095C188.802 187.033 186.982 188.927 182.009 195.288C179.867 198.028 178.56 199.513 176.412 201.646C172.818 205.213 170.605 206.768 164.412 210.077C161.147 211.821 152.176 216.05 146.909 218.328C146.034 218.706 144.199 219.579 142.83 220.269L140.34 221.522L143.139 218.718C146.499 215.353 148.224 213.882 153.375 209.991C158.954 205.777 161.709 203.797 166.171 200.787C171.149 197.429 172.586 196.319 179.047 190.832C187.5 183.654 188.683 182.732 193.245 179.76C196.051 177.933 197.09 177.43 199.2 176.88C200.168 176.629 200.986 176.415 201.02 176.405C201.054 176.396 200.83 176.693 200.524 177.063ZM62.7885 214.678C69.2327 219.916 73.1466 222.724 76.6014 224.59C82.3211 227.679 83.7462 228.493 85.8143 229.844C90.2576 232.748 92.6871 234.928 96.6618 239.58C100.347 243.893 102.796 247.361 102.948 248.484L103.034 249.131H102.402C101.631 249.131 101.446 248.996 98.1029 245.978C96.7146 244.725 94.6369 242.927 93.4869 241.985C88.9492 238.264 87.8648 237.352 84.6195 234.546C82.7673 232.943 80.3905 230.978 79.3381 230.178C77.4059 228.707 74.2182 225.877 70.5331 222.356C69.4278 221.299 67.7692 219.802 66.8447 219.027C65.9218 218.252 64.4823 216.968 63.6458 216.176C62.8109 215.385 61.6785 214.352 61.1298 213.885C60.2501 213.136 59.1865 211.965 59.3816 211.965C59.42 211.965 60.9539 213.187 62.7885 214.678ZM62.3422 217.654C63.3675 218.598 64.9621 220.008 65.885 220.788C66.8095 221.566 68.4713 223.062 69.5798 224.112C73.7464 228.064 76.5774 230.573 78.2808 231.828C80.1154 233.18 81.5677 234.391 85.7183 238.033C87.0826 239.229 89.2419 241.045 90.5167 242.066C93.7316 244.642 96.4475 246.948 96.3627 247.033C96.1868 247.207 84.4899 240.5 81.7197 238.637C76.8605 235.368 71.4559 230.246 66.8975 224.587C63.7865 220.726 60.175 215.936 60.3749 215.936C60.4325 215.936 61.3186 216.709 62.3422 217.654ZM178.487 236.639C178.487 236.669 177.542 237.438 176.384 238.346C173.474 240.633 169.839 243.762 168.254 245.344C166.676 246.918 165.288 248.61 162.145 252.784C159.477 256.329 158.015 258.065 155.763 260.361C152.531 263.657 146.606 267.99 141.06 271.115C138.62 272.489 134.503 274.597 134.419 274.513C134.388 274.483 135.383 273.703 136.632 272.778C137.88 271.856 139.801 270.358 140.9 269.451C143.609 267.216 149.452 261.4 154.213 256.198C160.928 248.864 165.301 244.865 170.955 240.883C174.493 238.392 178.487 236.142 178.487 236.639ZM175.945 241.308C175.862 241.462 175.24 242.373 174.567 243.333C170.656 248.903 168.204 252.877 165.253 258.422C161.971 264.591 158.817 269.464 156.819 271.446C154.142 274.106 150.223 276.15 145.44 277.381C142.675 278.094 140.684 278.353 137.941 278.358C136.621 278.361 134.318 278.463 132.822 278.583C131.327 278.704 130.084 278.785 130.06 278.761C130.036 278.739 131.296 278.129 132.859 277.408C141.552 273.398 147.053 270.069 153.454 264.945C157.22 261.929 159.821 259.064 165.061 252.148C167.874 248.437 169.991 246.183 173.509 243.151C174.863 241.985 175.998 241.03 176.033 241.03C176.07 241.03 176.03 241.156 175.945 241.308Z" fill="#5D7C78"/>
<path fill-rule="evenodd" clip-rule="evenodd" d="M89.8833 0.0982459C89.0516 0.177659 86.6412 0.490548 84.5251 0.795495C78.1289 1.71828 77.8666 1.73098 68.5241 1.57851C55.874 1.37204 54.2346 1.39586 52.6895 1.80881C50.6982 2.34247 48.5869 3.4479 47.4945 4.53269C46.458 5.56347 45.5847 7.15651 45.1417 8.82419C44.5882 10.9112 44.849 15.4981 45.7111 18.8303C45.8806 19.4862 46.0086 20.031 45.9958 20.0405C45.983 20.0516 43.7405 21.1142 41.0135 22.4023C28.8576 28.1423 24.1872 30.6962 21.692 32.9706C17.5158 36.7761 14.0322 44.1917 14.4545 48.372C14.6848 50.6353 15.8476 52.8367 17.7813 54.6679C19.1489 55.9624 20.3357 56.766 23.9792 58.861C25.6954 59.8473 28.5761 61.5626 30.3819 62.6728C32.1876 63.783 34.7068 65.2474 35.98 65.9256C40.724 68.4525 41.1654 68.7527 45.8518 72.6376C47.8319 74.2783 48.8876 75.4171 51.2212 78.43C52.9294 80.6361 55.1687 83.765 55.1687 83.9476C55.1687 84.0112 54.8088 83.9715 54.3673 83.8571C52.8814 83.4743 50.6262 83.3044 49.3754 83.4791C47.5153 83.7396 45.1065 84.3939 43.8685 84.9737C43.2383 85.2675 41.5829 86.1839 40.1897 87.0098C34.9419 90.1149 34.1038 90.4738 28.2178 92.1304C21.5081 94.0204 18.5939 95.056 14.6224 96.9603C12.0233 98.2071 10.7293 98.9742 8.62444 100.515C5.55508 102.761 2.96875 105.856 1.9403 108.513C1.30692 110.148 0.52638 113.335 0.206489 115.586C-0.254155 118.839 0.0273492 120.753 1.3501 123.346C2.02027 124.661 2.49371 125.192 3.39101 125.636C4.42266 126.146 5.01926 126.146 5.98693 125.635C7.06816 125.063 7.61198 124.576 8.98111 122.943C11.3355 120.136 13.0485 118.715 16.513 116.693C19.3376 115.043 22.1686 113.885 24.3663 113.481C25.4075 113.291 27.8195 113.472 30.9369 113.974C39.8938 115.416 44.0828 115.878 49.1099 115.981C54.1082 116.085 55.3734 115.931 59.8167 114.682C64.2232 113.445 66.8671 112.492 69.6357 111.144C72.0189 109.984 75.9232 108.318 78.8198 107.225L80.3185 106.66L80.9791 107.354C81.6749 108.085 82.545 108.482 83.8069 108.644C84.5715 108.744 86.2045 109.7 90.4143 112.514C92.2665 113.753 92.7399 114.177 95.1615 116.761C98.4228 120.244 99.4832 121.513 100.216 122.813C101.148 124.471 102.252 127.058 103.554 130.646C104.237 132.525 105.385 135.598 106.11 137.475C107.578 141.29 107.954 142.537 108.979 147.005C109.369 148.709 110.198 152.227 110.822 154.824C112.105 160.175 112.858 163.85 113.455 167.652C113.886 170.411 114.536 175.621 114.457 175.699C114.432 175.724 114.163 175.435 113.861 175.057C113.029 174.021 110.713 171.374 109.63 170.224C108.504 169.026 106.679 167.579 104.688 166.307C101.107 164.017 99.2977 162.556 98.8866 161.617C98.1749 159.992 97.9973 159.238 97.8678 157.268C97.7942 156.142 97.6582 155.145 97.5639 155.053C97.308 154.797 97.356 154.289 97.775 152.845C97.9845 152.122 98.1989 150.996 98.2533 150.34C99.0354 140.798 99.021 140.175 97.9574 137.064C97.1016 134.556 96.8537 134.034 95.7517 132.41C94.1986 130.123 91.2124 127.388 88.9172 126.153C86.9211 125.079 84.202 124.131 82.3786 123.875C79.1125 123.414 78.3432 123.411 77.3707 123.853C76.1775 124.396 75.4146 125.109 74.8884 126.17C74.4837 126.99 74.4437 127.228 74.4517 128.74C74.4581 130.047 74.5381 130.628 74.8196 131.419C75.0163 131.975 75.1491 132.46 75.1139 132.495C75.0771 132.531 74.5653 132.693 73.9767 132.855C72.7227 133.2 72.2205 133.606 71.7055 134.696C71.0305 136.122 70.789 137.628 70.8929 139.766C71.0577 143.18 71.9438 145.409 74.0726 147.761C75.8145 149.688 79.5364 152.832 81.2046 153.79C81.9324 154.208 83.3271 155.037 84.3028 155.632C85.2801 156.228 86.8923 157.118 87.8872 157.61C89.4594 158.387 89.6754 158.541 89.5426 158.787C89.4578 158.942 89.4354 159.251 89.4914 159.471C89.6786 160.213 90.3583 160.583 92.3768 161.044C95.0831 161.662 96.9193 162.446 98.1941 163.533C99.504 164.649 101.143 165.847 103.392 167.332C106.786 169.57 107.824 170.446 111.262 173.975L114.651 177.457L114.902 179.742C115.038 180.999 115.364 183.599 115.623 185.52C116.31 190.592 116.551 192.865 116.828 196.877C116.964 198.843 117.215 202.166 117.386 204.262C117.824 209.64 118.069 213.248 117.997 213.32C117.965 213.352 117.301 212.635 116.525 211.725C114.488 209.34 112.743 207.739 109.39 205.183C106.855 203.252 104.758 201.548 100.833 198.235C100.133 197.644 100.029 197.477 99.9967 196.896C99.9583 196.189 99.2401 193.606 98.5635 191.737C97.4743 188.729 94.0355 182.657 91.3836 179.059C90.5103 177.876 89.3411 176.258 88.7813 175.462C88.2231 174.668 87.1866 173.353 86.478 172.543C85.7695 171.731 84.5027 170.21 83.663 169.161C82.0987 167.209 79.4948 164.552 75.5665 160.902C73.169 158.676 67.2286 152.497 65.8706 150.817C65.41 150.25 64.2024 148.539 63.1851 147.015C61.141 143.952 59.476 142.102 58.4715 141.772C57.1808 141.349 56.2195 141.977 55.8052 143.511C55.5525 144.45 55.6789 145.555 56.3858 148.589C58.2668 156.657 60.5492 160.272 70.5442 171.004C73.692 174.382 76.4542 177.452 78.6055 179.962C79.6532 181.185 81.3038 183 82.2747 183.994C83.9157 185.678 90.3727 191.635 94.6577 195.42C95.6797 196.322 96.7674 197.331 97.0744 197.66C97.3831 197.988 97.887 198.385 98.1941 198.543C98.7331 198.816 101.187 200.733 104.192 203.233C104.984 203.89 107.108 205.534 108.91 206.884C111.423 208.765 112.725 209.88 114.481 211.646C115.74 212.913 117.1 214.379 117.501 214.903L118.232 215.856L118.133 219.676C118.027 223.72 117.789 227.416 117.149 234.916C116.335 244.464 115.886 251.974 115.702 259.057C115.649 261.154 115.572 262.968 115.534 263.085C115.495 263.204 114.993 262.526 114.416 261.576C112.085 257.749 109.213 254.602 105.676 252.005L103.643 250.511L104.136 249.955C104.568 249.466 104.619 249.309 104.557 248.668C104.456 247.627 104.125 247.025 101.961 243.959C99.7663 240.849 95.4158 235.568 93.3973 233.566C90.136 230.33 85.8814 227.387 79.4004 223.885C74.7764 221.384 70.3235 218.264 64.7862 213.646C57.6846 207.721 56.0452 206.765 54.8616 207.858C54.1818 208.488 54.5305 209.934 56.1203 213.077C57.5774 215.956 59.2633 218.452 62.934 223.162C66.9631 228.334 69.6214 231.288 73.057 234.411C77.11 238.094 80.0674 240.241 84.5187 242.73C85.3104 243.173 87.6137 244.464 89.637 245.598C93.7892 247.927 95.2559 248.676 98.378 250.066C100.843 251.162 101.913 251.737 103.648 252.901C108.215 255.96 111.818 259.869 114.643 264.827L115.305 265.99L115.371 276.898C115.438 287.862 115.54 290.784 116.106 297.811C116.452 302.093 116.61 304.347 117.072 311.549C117.48 317.885 117.784 321.135 118.194 323.541C118.646 326.208 119.345 328.901 119.604 328.987C119.772 329.043 119.8 328.92 119.724 328.444C119.464 326.789 119.257 322.05 118.822 307.658C118.733 304.688 118.517 300.185 118.344 297.652C117.92 291.436 117.927 291.004 118.456 289.851C119.566 287.432 121.57 284.611 123.835 282.275C124.894 281.183 125.079 281.052 125.362 281.202C125.838 281.455 126.181 281.42 128.419 280.898C130.909 280.316 132.454 280.143 136.947 279.946C138.863 279.86 141.128 279.681 141.979 279.544C146.718 278.787 151.65 276.944 155.295 274.568C158.917 272.208 162.316 267.664 167.606 258.104C170.803 252.328 171.843 250.592 174.151 247.185C177.825 241.759 179.135 239.698 179.874 238.172C180.275 237.342 180.667 236.556 180.745 236.424C181.462 235.229 181.513 234.822 180.91 235.143C180.653 235.278 180.465 235.243 180 234.971C179.464 234.657 179.335 234.642 178.445 234.808C177.062 235.062 174.621 236.301 171.76 238.199C164.867 242.771 160.384 246.777 152.413 255.484C149.972 258.149 146.474 261.799 144.638 263.597C139.742 268.388 136.997 270.585 130.423 274.972C125.031 278.571 123.302 280.061 120.796 283.278C119.875 284.462 119.344 285.283 118.498 286.83L117.901 287.922L117.776 286.196C117.388 280.813 117.77 258.962 118.435 248.575C118.877 241.659 118.707 242.42 120.494 239.331C121.346 237.857 122.416 236.156 122.874 235.549C125.131 232.555 130.626 227.676 135.321 224.503L136.218 223.895L136.394 224.279C136.813 225.191 137.451 225.021 141.939 222.799C143.435 222.059 145.991 220.863 147.617 220.142C158.222 215.448 166.808 210.993 172.239 207.366C175.816 204.978 179.355 201.467 183.612 196.082C188.786 189.539 190.065 188.213 194.721 184.566C199.189 181.067 201.992 178.415 202.746 176.974C203.087 176.321 203.085 175.254 202.743 174.736C202.595 174.511 202.17 174.166 201.797 173.969C201.183 173.643 200.911 173.61 198.88 173.62C194.539 173.637 188.976 174.993 183.642 177.331C175.947 180.705 168.134 186.585 159.359 195.606C154.583 200.519 151.722 203.836 147.579 209.265C141.208 217.616 139.889 218.955 133.403 223.65C130.356 225.855 127.974 227.838 125.414 230.3C122.763 232.851 121.391 234.601 119.913 237.323C119.56 237.975 119.253 238.484 119.229 238.459C119.206 238.432 119.424 235.873 119.71 232.771C120.847 220.507 120.871 216.223 119.872 203.708C119.744 202.091 119.526 199.018 119.39 196.877C119.254 194.737 119.035 191.999 118.904 190.792L118.664 188.599L120.094 183.089C120.881 180.058 122.141 175.595 122.895 173.169C123.649 170.743 124.265 168.725 124.265 168.682C124.265 168.64 124.505 168.605 124.799 168.605C125.163 168.605 125.767 168.343 126.679 167.789C127.419 167.34 129.068 166.364 130.343 165.624C131.62 164.883 134.052 163.459 135.751 162.46C137.45 161.461 140.581 159.746 142.709 158.65C144.837 157.554 147.406 156.211 148.417 155.666C149.43 155.119 151.445 154.046 152.896 153.279C156.678 151.279 158.311 150.275 162.012 147.672C169.108 142.682 169.669 142.243 172.729 139.308C173.653 138.422 175.462 136.758 176.75 135.608C179.923 132.776 181.059 131.253 181.39 129.386C181.595 128.232 181.377 127.357 180.694 126.585C179.707 125.468 178.162 125.006 175.448 125.017C173.754 125.023 173.471 125.071 171.86 125.617C168.981 126.593 166.646 127.925 159.135 132.879C150.503 138.573 149.204 139.348 142.259 142.96C134.571 146.957 132.147 148.601 130.13 151.182C127.744 154.238 124.999 159.751 122.994 165.508C121.697 169.236 119.364 177.551 118.709 180.789C118.221 183.194 118.093 183.634 118.002 183.197C117.941 182.903 117.667 180.411 117.392 177.659C117.117 174.908 116.709 171.369 116.489 169.797C115.862 165.351 115.841 164.325 116.324 161.538C116.817 158.698 117.082 157.858 118.506 154.629C121.285 148.331 121.14 148.563 124.076 145.698C126.444 143.389 128.03 140.85 127.918 139.554L127.864 138.941L130.298 137.083C134.083 134.196 137.809 130.142 139.067 127.549C139.956 125.711 140.58 122.792 140.58 120.464C140.58 119.333 140.18 117.212 139.754 116.08C139.331 114.957 138.689 114.247 137.261 113.319C135.593 112.236 132.111 111.159 130.961 111.369C129.092 111.711 127.413 113.759 126.981 116.228L126.797 117.277L126.29 116.98C125.66 116.612 123.934 116.199 123.008 116.196C122.09 116.193 120.574 116.993 119.873 117.851C118.496 119.536 117.799 121.864 117.799 124.769C117.8 126.81 117.888 127.317 119.643 135.331C120.091 137.383 120.425 140.085 120.239 140.153C120.155 140.185 119.892 140.376 119.656 140.577C119.264 140.914 119.229 141.036 119.251 142.029C119.264 142.626 119.396 143.579 119.545 144.146C119.696 144.715 119.851 145.679 119.892 146.29C119.967 147.391 119.956 147.428 118.896 149.705C116.313 155.258 115.638 156.96 115.303 158.758C114.977 160.521 114.926 160.505 114.473 158.498C113.677 154.969 110.665 142.801 110.252 141.446C110.025 140.704 109.029 138.06 108.036 135.57C107.044 133.081 105.784 129.864 105.235 128.422C104.005 125.19 102.394 121.906 100.918 119.622C100.302 118.667 99.7471 117.632 99.6864 117.319C99.5168 116.459 99.5456 114.982 99.7551 113.651C99.8591 112.997 99.9455 111.601 99.9487 110.551C99.9551 108.105 100.182 106.336 100.697 104.706C101.105 103.421 102.591 100.529 103.162 99.9129C103.324 99.7366 103.607 99.2554 103.791 98.844C104.098 98.1563 104.195 98.0753 104.958 97.8624C107.828 97.0635 111.735 96.838 113.886 97.3478C114.467 97.486 116.23 98.1436 117.805 98.8106C123.269 101.126 126.674 101.862 133.222 102.143C135.823 102.254 142.382 102.761 146.018 103.129C147.718 103.302 150.052 103.398 152.576 103.398C156.234 103.398 156.637 103.369 158.628 102.959C161.94 102.278 163.074 101.8 166.011 99.843C167.324 98.9695 170.734 97.2271 172.009 96.7793C172.625 96.5633 173.692 96.2631 174.378 96.1138C176.428 95.6659 177.209 94.6907 176.884 92.9849C176.801 92.5561 176.662 92.0716 176.574 91.908C176.313 91.422 175.475 90.8026 174.842 90.6279C174.023 90.4008 171.253 90.1768 166.811 89.9799C163.086 89.8147 161.381 89.5971 159.743 89.0809C158.689 88.749 157.459 87.5784 155.775 85.3056C153.972 82.874 153.251 82.2673 150.533 80.8902C147.241 79.2241 145.189 78.6635 141.619 78.4602C139.695 78.3506 136.464 78.8509 133.542 79.7133C128.267 81.2682 125.997 82.0211 123.306 83.1043C120.706 84.1509 115.455 86.0203 115.113 86.0203C115.046 86.0203 115.406 85.4628 115.914 84.7815C116.423 84.1001 118.003 81.8305 119.425 79.7387C122.477 75.2487 123.552 73.886 125.566 71.961C127.661 69.9582 131.703 66.7356 134.611 64.7487C140.637 60.6287 142.52 59.1818 144.834 56.8867C146.766 54.9697 147.169 54.4821 147.664 53.4593C148.462 51.8075 149.06 49.6585 149.167 48.0592C149.334 45.6148 148.435 43.1196 146.109 39.5683C145.424 38.5232 144.502 37.0223 144.059 36.2329C142.565 33.5742 142.525 33.5329 138.101 30.315C135.182 28.1915 133.936 27.7055 129.623 27.0114C127.479 26.6652 125.996 26.5318 121.106 26.2411C120.674 26.2157 120.681 26.3936 121.002 22.9312C121.34 19.3163 121.239 15.776 120.751 13.9892C119.76 10.3696 117.341 6.86903 114.518 4.97105C113.002 3.95138 109.593 2.33611 107.631 1.70557C103.674 0.436547 101.156 0.0791867 95.6349 0.00930292C93.3045 -0.0208742 90.7166 0.0204208 89.8833 0.0982459ZM99.6336 1.84693C104.793 2.31388 109.838 3.96091 113.474 6.36237C115.446 7.66634 116.874 9.38643 118.112 11.9547C119.203 14.2164 119.388 15.2011 119.376 18.673C119.364 21.8607 118.917 26.8478 118.411 29.3938C118.048 31.2188 115.526 38.7456 113.754 43.2912C107.674 58.88 108.108 57.6825 105.947 64.8265C105.104 67.6139 104.018 71.3956 103.535 73.23C100.457 84.8974 98.1525 91.9922 96.1484 95.9549C95.1599 97.9117 94.4993 98.5645 93.5109 98.5613C93.1398 98.5597 92.7559 98.5057 92.6567 98.4422C92.42 98.2881 90.3487 95.0147 89.4658 93.401C88.5637 91.7508 88.4134 91.3093 87.4537 87.5244C85.52 79.8912 84.4787 77.5866 79.3445 69.577C78.3368 68.0046 76.5086 65.0743 75.2802 63.0651C72.4524 58.4353 70.8369 56.0561 64.9845 47.8971C53.9755 32.5513 50.5814 26.8367 48.3902 19.9627C47.2433 16.3621 46.7411 12.1484 47.1618 9.6755C47.5728 7.26133 48.8924 5.49994 51.0597 4.47233C53.5244 3.30337 52.8302 3.35102 67.0046 3.34943C78.2248 3.34784 79.9283 3.31449 81.4797 3.07466C85.8671 2.39488 88.8005 1.98987 90.2768 1.86281C92.588 1.6611 97.4983 1.65316 99.6336 1.84693ZM47.0994 23.1996C47.4193 24.0731 48.2366 25.9314 48.9164 27.3291C51.2964 32.2225 54.7336 37.4861 63.593 49.811C69.8021 58.4496 71.0529 60.2666 73.4792 64.1769C74.3462 65.5746 76.2559 68.5399 77.7242 70.7682C83.3559 79.3131 84.0245 80.787 86.4397 89.9862C87.5305 94.1459 88.3894 96.792 89.0036 97.8958L89.3843 98.5803L88.6309 98.4851C85.0833 98.034 81.3646 97.3288 79.0006 96.657C78.0777 96.3949 76.5742 95.9994 75.6625 95.7786C72.4812 95.0099 66.1777 91.8334 62.7949 89.2969C61.1746 88.0819 58.5851 85.1881 56.9089 82.7183C54.1962 78.7191 50.7781 74.3752 48.9868 72.6471C47.3729 71.0922 43.4782 67.9268 41.8932 66.8865C41.0582 66.3369 39.0685 65.2045 37.4723 64.3707C35.876 63.5368 33.1585 61.9914 31.4343 60.9368C29.7101 59.8822 27.0214 58.3305 25.4603 57.4887C20.6236 54.8808 18.8706 53.5943 17.5862 51.7106C16.345 49.892 15.9867 48.2196 16.3674 46.0325C17.2103 41.1772 20.9003 35.4451 24.9389 32.7117C26.4904 31.6635 34.5181 27.3497 39.334 24.9769C41.4021 23.9588 43.8125 22.6739 44.6922 22.1227C46.0038 21.3 46.3125 21.1634 46.4068 21.3667C46.4692 21.5001 46.7811 22.326 47.0994 23.1996ZM121.724 27.4149C122.023 27.5006 123.392 27.6769 124.767 27.8072C126.143 27.9374 127.618 28.1105 128.046 28.1915C128.473 28.2725 129.436 28.417 130.183 28.5155C131.911 28.7426 133.665 29.2096 134.652 29.7067C135.076 29.9195 136.098 30.6168 136.922 31.2537C137.747 31.8906 138.793 32.6831 139.249 33.0135C140.548 33.9538 141.591 35.2005 142.421 36.8079C142.843 37.6226 143.619 38.9663 144.145 39.797C145.823 42.443 146.202 43.1355 146.69 44.4585C147.392 46.3534 147.449 47.7161 146.915 49.7046C146.21 52.3348 145.738 53.1241 143.631 55.2111C141.755 57.0678 138.752 59.3168 132.715 63.3828C127.781 66.7054 122.797 71.1256 120.443 74.2624C119.886 75.0041 118.456 77.0768 117.266 78.8684C116.074 80.6583 114.616 82.7739 114.024 83.568C111.035 87.5768 106.721 92.2098 104.752 93.5233C104.093 93.9633 103.301 94.5176 102.992 94.7542C102.357 95.2434 97.9014 97.3717 97.7766 97.2462C97.7302 97.2017 97.9398 96.6744 98.2405 96.0756C99.2289 94.1078 100.72 90.1228 101.796 86.5699C103.047 82.442 104.854 76.0682 105.534 73.3872C105.799 72.339 106.842 68.7289 107.852 65.3665C109.664 59.3231 110.998 55.578 114.779 45.9198C117.755 38.3167 120.217 30.5453 120.51 27.8262C120.618 26.824 120.642 26.7732 120.905 27.0083C121.057 27.148 121.426 27.3291 121.724 27.4149ZM143.598 80.706C145.73 81.0173 147.723 81.6717 149.765 82.731C151.67 83.7173 152.718 84.6322 154.165 86.5699C157.427 90.9344 158.63 91.4887 165.371 91.7333C168.964 91.8636 173.183 92.1336 174.287 92.3035C174.818 92.3861 175.008 92.6069 175.187 93.3502C175.322 93.9108 175.013 94.2031 174.14 94.3381C171.838 94.6939 167.505 96.6109 164.586 98.5629C163.764 99.1124 162.687 99.762 162.192 100.007C161.262 100.466 159.154 100.95 156.654 101.277C154.916 101.506 149.724 101.388 146.338 101.044C143.961 100.802 137.75 100.439 131.223 100.157C125.945 99.9304 123.155 99.3046 118.347 97.2684C114.678 95.7151 113.856 95.5198 110.91 95.5023C108.379 95.488 107.263 95.6563 105.059 96.3917C104.45 96.595 103.952 96.7443 103.952 96.7237C103.952 96.703 104.665 96.2138 105.537 95.6357C107.452 94.3667 108.83 93.1199 110.972 90.7216L112.588 88.9142L116.148 87.7722C118.106 87.1448 121.146 86.0696 122.906 85.3834C125.702 84.2939 129.78 82.9486 134.342 81.6113C136.199 81.0681 139.466 80.4916 140.799 80.4725C141.403 80.4646 142.664 80.5694 143.598 80.706ZM55.1591 85.5931C55.8148 85.8202 56.4114 86.1156 56.4866 86.249C56.5634 86.3825 56.6897 86.4921 56.7713 86.4921C56.8529 86.4921 57.8382 87.4291 58.9626 88.5759C60.6532 90.2991 61.3953 90.9154 63.2459 92.1367C66.7855 94.4731 72.2941 97.189 74.6309 97.7497C75.3186 97.9149 77.1052 98.3739 78.6007 98.7678C80.0962 99.1617 81.6445 99.5301 82.0395 99.5841C82.4362 99.6381 83.3351 99.7858 84.0389 99.9113C85.9982 100.261 88.487 100.628 88.9252 100.631C89.1411 100.632 88.1367 101.099 86.694 101.67C85.2497 102.24 83.2343 103.101 82.2155 103.585C81.195 104.069 79.3893 104.848 78.2009 105.318C73.9639 106.992 71.7278 107.951 68.6281 109.428C63.3051 111.965 55.9748 114.198 52.6095 114.306C48.5021 114.439 41.866 113.886 35.2554 112.86C32.9682 112.505 30.425 112.111 29.6029 111.985C28.7808 111.86 27.3045 111.714 26.324 111.66C24.8317 111.579 24.3391 111.614 23.3219 111.88C20.1661 112.705 17.2151 114.114 13.3428 116.642C11.5994 117.783 8.87395 120.368 7.34487 122.334C6.38359 123.572 5.24798 124.452 4.61459 124.452C3.4262 124.452 1.76116 120.972 1.74997 118.465C1.74037 116.35 2.69684 111.712 3.63733 109.306C4.78894 106.36 7.44883 103.498 11.5035 100.837C15.1726 98.4295 20.3021 96.3552 27.498 94.3651C34.3645 92.4671 35.732 91.9017 40.7527 88.8872C44.6906 86.5222 45.5111 86.1347 47.8335 85.5296C49.5114 85.0928 49.8169 85.061 51.8098 85.1182C53.6204 85.169 54.1626 85.2468 55.1591 85.5931ZM133.272 113.426C134.956 113.893 136.515 114.698 137.358 115.537C139.217 117.385 139.102 123.275 137.134 126.982C135.98 129.158 131.899 133.444 128.184 136.383C127.128 137.218 125.986 138.238 125.647 138.651C125.308 139.062 125.007 139.378 124.98 139.351C124.953 139.324 125.105 138.587 125.318 137.714C125.742 135.981 126.445 131.815 126.97 127.946C127.77 122.039 128.445 117.32 128.606 116.51C128.905 115.016 129.713 113.766 130.743 113.202C131.223 112.938 131.656 112.976 133.272 113.426ZM124.862 117.713C125.335 117.846 125.879 118.137 126.114 118.381C126.61 118.897 126.647 118.334 125.633 125.802C124.396 134.914 124.085 136.673 123.131 139.891C122.958 140.477 122.752 140.997 122.674 141.046C122.595 141.093 122.386 140.932 122.21 140.685C121.981 140.366 121.837 139.767 121.706 138.589C121.537 137.048 120.921 133.772 119.811 128.499C119.109 125.168 119.056 124.212 119.464 122.241C120.004 119.614 120.82 118.265 122.266 117.597C122.95 117.281 123.386 117.3 124.862 117.713ZM81.7996 126.014C84.8722 126.507 88.1367 127.92 90.4591 129.766C93.4725 132.16 95.0399 134.334 96.529 138.19C97.1336 139.755 97.1416 139.813 97.148 142.002C97.1576 145.383 96.6506 150.547 96.1036 152.643C95.8525 153.604 95.5614 155.069 95.4558 155.896C95.2959 157.157 95.2383 157.337 95.1055 157.008C95.0191 156.792 94.4961 155.685 93.9459 154.549C92.6408 151.854 91.254 150.143 86.3533 145.18C80.9583 139.713 79.7347 138.017 77.7738 133.278C76.547 130.316 76.2655 129.151 76.4494 127.824C76.5726 126.947 77.0077 126.369 77.8906 125.911C78.6743 125.506 78.6023 125.505 81.7996 126.014ZM178.193 127.195C180.157 128.025 179.832 129.761 177.228 132.366C174.926 134.667 169.093 140.025 167.566 141.24C165.842 142.612 159.37 147.156 157.32 148.434C156.514 148.936 154.775 149.919 153.455 150.618C145.989 154.57 143.563 155.844 140.82 157.248C139.148 158.104 135.46 160.186 132.624 161.876C127.811 164.741 126.324 165.588 126.111 165.588C125.612 165.588 126.813 161.777 128.23 158.861C130.954 153.263 132.795 150.842 135.847 148.846C136.618 148.342 140.648 146.055 144.804 143.762C151.024 140.331 153.379 138.929 158.107 135.84C161.267 133.775 163.89 132.101 163.937 132.12C163.983 132.14 164.343 131.916 164.736 131.623C167.516 129.556 171.133 127.682 173.529 127.068C174.664 126.777 177.38 126.85 178.193 127.195ZM76.523 135.52C77.9417 138.935 79.5476 141.032 84.837 146.37C89.4258 151.003 90.6942 152.407 91.7499 154.028C92.7015 155.49 93.7524 157.845 93.5173 157.989C93.031 158.286 88.914 156.346 85.2864 154.108C84.2484 153.468 82.8393 152.629 82.1563 152.246C79.7475 150.898 75.4978 147.239 74.1302 145.337C72.9482 143.693 72.1325 140.472 72.3516 138.314C72.478 137.066 72.9834 135.42 73.4057 134.887C73.7288 134.48 75.1987 133.805 75.6273 133.868C75.7505 133.888 76.1535 134.631 76.523 135.52ZM59.6295 144.423C60.7796 145.644 61.7632 147.154 63.1404 149.81C64.1768 151.808 64.4535 152.197 66.1825 154.073C69.4358 157.604 74.1766 162.286 76.6814 164.439C79.1765 166.585 80.157 167.602 82.6825 170.67C83.5095 171.676 84.7394 173.121 85.416 173.883C86.0926 174.646 87.2234 176.112 87.9304 177.139C88.6357 178.168 89.7217 179.688 90.3407 180.517C93.2278 184.383 97.1736 191.815 98.2485 195.409C98.482 196.19 98.4804 196.235 98.2261 196.097C98.0773 196.016 97.1976 195.211 96.2747 194.308C95.3502 193.406 93.8387 192.026 92.9159 191.241C90.6766 189.337 84.9442 184.026 83.6182 182.625C83.0344 182.009 81.2734 180.014 79.7043 178.192C78.1353 176.371 75.4098 173.316 73.6472 171.406C63.5018 160.4 61.2978 157.481 59.3976 152.539C58.6891 150.696 57.4079 145.599 57.4079 144.624C57.4079 143.492 57.4959 143.36 58.182 143.438C58.6475 143.492 58.945 143.693 59.6295 144.423ZM197.524 175.532C195.958 175.95 192.996 177.717 188.602 180.859C186.019 182.703 185.44 183.175 178.145 189.355C171.001 195.407 170.293 195.951 164.127 200.082C160.416 202.567 154.381 206.908 149.063 210.917C148.395 211.42 152.393 206.378 155.236 203.13C163.494 193.697 171.38 186.631 178.928 181.904C180.86 180.694 185.315 178.469 187.593 177.576C189.493 176.833 192.792 176.002 195.417 175.608C197.925 175.233 198.758 175.202 197.524 175.532ZM200.524 177.063C199.683 178.081 196.889 180.559 193.722 183.095C188.802 187.033 186.982 188.927 182.009 195.288C179.867 198.028 178.56 199.513 176.412 201.646C172.818 205.213 170.605 206.768 164.412 210.077C161.147 211.821 152.176 216.05 146.909 218.328C146.034 218.706 144.199 219.579 142.83 220.269L140.34 221.522L143.139 218.718C146.499 215.353 148.224 213.882 153.375 209.991C158.954 205.777 161.709 203.797 166.171 200.787C171.149 197.429 172.586 196.319 179.047 190.832C187.5 183.654 188.683 182.732 193.245 179.76C196.051 177.933 197.09 177.43 199.2 176.88C200.168 176.629 200.986 176.415 201.02 176.405C201.054 176.396 200.83 176.693 200.524 177.063ZM62.7885 214.678C69.2327 219.916 73.1466 222.724 76.6014 224.59C82.3211 227.679 83.7462 228.493 85.8143 229.844C90.2576 232.748 92.6871 234.928 96.6618 239.58C100.347 243.893 102.796 247.361 102.948 248.484L103.034 249.131H102.402C101.631 249.131 101.446 248.996 98.1029 245.978C96.7146 244.725 94.6369 242.927 93.4869 241.985C88.9492 238.264 87.8648 237.352 84.6195 234.546C82.7673 232.943 80.3905 230.978 79.3381 230.178C77.4059 228.707 74.2182 225.877 70.5331 222.356C69.4278 221.299 67.7692 219.802 66.8447 219.027C65.9218 218.252 64.4823 216.968 63.6458 216.176C62.8109 215.385 61.6785 214.352 61.1298 213.885C60.2501 213.136 59.1865 211.965 59.3816 211.965C59.42 211.965 60.9539 213.187 62.7885 214.678ZM62.3422 217.654C63.3675 218.598 64.9621 220.008 65.885 220.788C66.8095 221.566 68.4713 223.062 69.5798 224.112C73.7464 228.064 76.5774 230.573 78.2808 231.828C80.1154 233.18 81.5677 234.391 85.7183 238.033C87.0826 239.229 89.2419 241.045 90.5167 242.066C93.7316 244.642 96.4475 246.948 96.3627 247.033C96.1868 247.207 84.4899 240.5 81.7197 238.637C76.8605 235.368 71.4559 230.246 66.8975 224.587C63.7865 220.726 60.175 215.936 60.3749 215.936C60.4325 215.936 61.3186 216.709 62.3422 217.654ZM178.487 236.639C178.487 236.669 177.542 237.438 176.384 238.346C173.474 240.633 169.839 243.762 168.254 245.344C166.676 246.918 165.288 248.61 162.145 252.784C159.477 256.329 158.015 258.065 155.763 260.361C152.531 263.657 146.606 267.99 141.06 271.115C138.62 272.489 134.503 274.597 134.419 274.513C134.388 274.483 135.383 273.703 136.632 272.778C137.88 271.856 139.801 270.358 140.9 269.451C143.609 267.216 149.452 261.4 154.213 256.198C160.928 248.864 165.301 244.865 170.955 240.883C174.493 238.392 178.487 236.142 178.487 236.639ZM175.945 241.308C175.862 241.462 175.24 242.373 174.567 243.333C170.656 248.903 168.204 252.877 165.253 258.422C161.971 264.591 158.817 269.464 156.819 271.446C154.142 274.106 150.223 276.15 145.44 277.381C142.675 278.094 140.684 278.353 137.941 278.358C136.621 278.361 134.318 278.463 132.822 278.583C131.327 278.704 130.084 278.785 130.06 278.761C130.036 278.739 131.296 278.129 132.859 277.408C141.552 273.398 147.053 270.069 153.454 264.945C157.22 261.929 159.821 259.064 165.061 252.148C167.874 248.437 169.991 246.183 173.509 243.151C174.863 241.985 175.998 241.03 176.033 241.03C176.07 241.03 176.03 241.156 175.945 241.308Z" fill="black" fill-opacity="0.2"/>
</g>
<defs>
<clipPath id="clip0_1_8139">
<rect width="203" height="329" fill="white"/>
</clipPath>
</defs>
</svg>
