<svg width="26" height="289" viewBox="0 0 26 289" fill="none" xmlns="http://www.w3.org/2000/svg">
<g clip-path="url(#clip0_429_387)">
<path d="M11.6242 285.163L11.6242 156.398C11.6242 155.817 12.0861 155.352 12.6634 155.352C13.2408 155.352 13.7026 155.817 13.7026 156.398L13.7026 285.163C13.7026 285.745 13.2408 286.21 12.6634 286.21C12.1053 286.21 11.6242 285.745 11.6242 285.163Z" fill="white"/>
<path d="M12.6827 289C10.7582 289 9.19933 287.43 9.19933 285.493C9.19933 283.555 10.7582 281.985 12.6827 281.985C14.6072 281.985 16.166 283.555 16.166 285.493C16.166 287.411 14.6072 289 12.6827 289Z" fill="white"/>
<path d="M25.6537 272.277C26.5005 274.138 25.673 276.308 24.499 277.529C24.3643 277.664 23.2289 278.808 21.5353 279.021C18.3599 279.428 14.8573 276.405 12.952 273.498C11.1815 276.482 7.8906 279.602 4.73442 279.37C3.02162 279.234 1.84767 278.168 1.69371 278.032C0.46203 276.889 -0.480974 274.777 0.250336 272.859C0.69297 271.696 1.57824 271.095 1.86692 270.921C3.77217 269.719 5.90837 270.708 6.5627 271.018C7.02458 271.231 7.94834 271.657 7.94834 272.277C7.94834 272.607 7.67891 272.955 7.35174 273.091C6.52421 273.421 5.92761 272.238 4.71518 272.277C3.82991 272.297 2.92539 272.994 2.57898 273.866C2.54049 273.983 2.25182 274.719 2.54049 275.571C2.98313 276.87 4.44575 277.626 5.52347 277.471C5.92761 277.412 6.98609 277.412 8.60267 275.882C11.0083 273.595 11.8936 270.611 12.2592 268.692C12.6056 268.731 12.9328 268.77 13.2792 268.809C13.8758 270.843 15.0497 273.653 17.5131 275.765C19.1489 277.16 20.1304 277.141 20.6693 277.199C21.747 277.296 23.1711 276.443 23.5368 275.145C23.787 274.293 23.4598 273.556 23.4021 273.44C22.9979 272.587 22.0742 271.948 21.1889 271.967C19.9765 271.987 19.4376 273.227 18.5908 272.936C18.2444 272.82 17.9557 272.471 17.9365 272.142C17.898 271.541 18.8025 271.056 19.2452 270.805C19.8995 270.456 21.9587 269.351 23.9409 270.456C24.2296 270.591 25.1341 271.153 25.6537 272.277Z" fill="white"/>
<path d="M11.6242 132.602L11.6242 3.83644C11.6242 3.25511 12.0861 2.79004 12.6634 2.79004C13.2408 2.79004 13.7026 3.25511 13.7026 3.83644L13.7026 132.602C13.7026 133.183 13.2408 133.648 12.6634 133.648C12.1053 133.648 11.6242 133.183 11.6242 132.602Z" fill="white"/>
<path d="M12.6827 -1.52262e-07C10.7582 -2.36384e-07 9.19933 1.5696 9.19933 3.50738C9.19933 5.44515 10.7582 7.01475 12.6827 7.01475C14.6072 7.01475 16.166 5.46453 16.166 3.50738C16.166 1.5696 14.6072 -6.81393e-08 12.6827 -1.52262e-07Z" fill="white"/>
<path d="M25.6537 16.7041C26.5005 14.8439 25.673 12.6735 24.499 11.4527C24.3643 11.3365 23.2289 10.1932 21.5353 9.98003C18.3599 9.55372 14.8765 12.5767 12.952 15.4833C11.1815 12.4991 7.8906 9.37932 4.73442 9.61186C3.02162 9.7475 1.84767 10.8133 1.69371 10.9489C0.46203 12.0922 -0.480974 14.2044 0.250335 16.1228C0.69297 17.2854 1.57824 17.8862 1.86692 18.0606C3.77217 19.262 5.90837 18.2737 6.5627 17.9637C7.04382 17.7505 7.96758 17.3048 7.96758 16.7041C7.96758 16.3747 7.69815 16.0259 7.37099 15.8903C6.54345 15.5608 5.94686 16.7429 4.73442 16.7041C3.84915 16.6847 2.94464 15.9871 2.59823 15.1151C2.55974 14.9989 2.27106 14.2625 2.55974 13.4099C3.00237 12.1116 4.46499 11.3559 5.54271 11.5109C5.94686 11.569 7.00533 11.569 8.62191 13.0999C11.0275 15.3864 11.9128 18.3706 12.2785 20.289C12.6249 20.2502 12.952 20.2115 13.2984 20.1727C13.895 18.1381 15.069 15.3283 17.5323 13.2161C19.1297 11.8403 20.1112 11.8597 20.65 11.8015C21.7278 11.7047 23.1519 12.5573 23.5175 13.8556C23.7677 14.7276 23.4406 15.4639 23.4021 15.5802C22.9979 16.4328 22.0742 17.0529 21.1697 17.0335C19.9572 17.0142 19.4184 15.7934 18.5908 16.084C18.2444 16.2003 17.9557 16.5491 17.9365 16.8591C17.898 17.4599 18.8025 17.9443 19.2452 18.1962C19.8995 18.545 21.9587 19.6495 23.9409 18.545C24.2296 18.39 25.1341 17.8474 25.6537 16.7041Z" fill="white"/>
<path d="M16.2253 135.204C16.2379 135.772 17.1897 136.289 17.9037 136.264C20.2082 136.189 21.5734 130.044 16.9267 130.094C11.6538 130.157 12.6433 137.829 14.5846 140.592C16.1502 142.826 19.1561 145.425 22.0744 144.996C23.9656 144.718 25.6564 143.356 25.957 141.412C26.2326 139.583 24.7922 136.567 22.5628 137.324C21.2227 137.778 20.4837 140.781 21.1225 141.274C21.3229 141.425 21.7362 141.387 21.9116 141.185C22.0994 140.958 21.899 140.668 21.9491 140.251C22.0243 139.646 22.6004 139.028 23.1891 138.939C24.0658 138.813 24.9676 139.886 25.0302 140.895C25.0803 141.816 24.4165 142.472 24.2161 142.649C23.4271 143.356 21.6986 143.444 20.7843 143.242C19.0309 142.838 17.3901 141.513 16.1878 140.201C14.6097 138.498 12.0797 134.144 14.9854 132.189C15.9373 131.558 17.3776 131.406 18.2543 132.277C18.3545 132.34 18.7052 132.58 18.8054 133.034C18.9307 133.551 18.6677 134.132 18.2669 134.346C17.7408 134.637 17.2899 134.144 16.7263 134.472C16.4758 134.624 16.2128 134.914 16.2253 135.204Z" fill="white"/>
<path d="M16.9516 154.99C17.2146 155.205 17.7156 154.624 18.2291 154.814C18.7176 155.003 18.8178 155.76 18.8178 155.836C18.9054 156.568 18.442 157.312 17.7907 157.627C17.2021 157.918 16.6134 157.766 16.2627 157.678C15.7617 157.552 15.1981 157.198 14.8224 156.82C12.1797 154.195 14.6721 150.107 16.9015 148.214C18.4295 146.915 20.3458 145.729 22.4249 146.196C23.0887 146.347 23.8652 146.662 24.3537 147.129C27.4974 150.183 21.0346 151.886 21.8863 148.934C22.0992 148.202 21.6233 147.571 21.21 148.505C20.5963 149.918 20.8718 152.214 22.8382 152.227C24.8797 152.24 26.1698 149.325 25.9819 147.596C25.7439 145.476 23.4394 144.278 21.473 144.391C18.8428 144.543 16.2001 146.978 14.7598 149.035C13.4321 150.927 12.6055 153.299 12.9687 155.634C13.2818 157.678 14.9602 159.836 17.2772 159.268C19.0056 158.851 20.208 156.908 20.0702 155.154C20.0452 154.851 19.9199 153.703 19.0683 153.325C18.3669 153.009 17.415 153.325 17.0393 153.956C16.8263 154.309 16.7512 154.826 16.9516 154.99Z" fill="white"/>
<path d="M9.48691 134.397C9.17379 134.107 8.57261 134.713 7.83365 134.524C7.37024 134.41 6.8943 133.994 6.81915 133.527C6.6939 132.77 7.54558 132.063 8.22192 131.811C8.89825 131.558 9.51196 131.71 9.74993 131.76C10.9147 132.063 11.6161 133.035 11.8416 133.451C13.0439 135.583 11.3406 139.217 9.11117 141.224C8.86068 141.451 6.24301 143.836 3.58778 143.243C2.92397 143.091 2.14743 142.776 1.65897 142.309C1.40848 142.069 0.732142 141.375 0.807291 140.429C0.882439 139.533 1.64645 138.536 2.61085 138.536C3.18698 138.536 3.85079 138.902 4.03866 139.432C4.21401 139.937 3.88837 140.366 4.17644 140.719C4.32673 140.896 4.60228 141.022 4.79015 140.933C5.35376 140.681 5.42891 138.359 4.22654 137.527C3.95099 137.337 3.6003 137.224 3.16194 137.211C1.12041 137.199 -0.169635 140.113 0.0182356 141.842C0.256205 143.962 2.56075 145.16 4.52713 145.047C7.15732 144.895 9.80003 142.46 11.2404 140.403C12.568 138.511 13.3946 136.139 13.0314 133.804C12.7183 131.76 11.04 129.603 8.7229 130.17C6.9945 130.587 5.79212 132.53 5.92989 134.284C6.00504 135.268 6.40583 135.861 6.93187 136.113C7.9088 136.58 9.37419 135.848 9.57458 135.016C9.59963 134.965 9.68731 134.587 9.48691 134.397Z" fill="white"/>
<path d="M9.78745 154.245C6.74395 150.106 3.3748 159.418 9.08607 159.355C14.359 159.292 13.3695 151.62 11.4282 148.857C9.8626 146.623 6.85667 144.024 3.93841 144.453C2.04718 144.731 0.356352 146.093 0.0557583 148.037C-0.219785 149.866 1.22055 152.882 3.44995 152.125C4.77757 151.671 5.51653 148.642 4.89029 148.175C4.71495 148.049 4.3893 148.1 4.18891 148.251C3.61277 148.655 4.08871 149.652 3.60025 150.22C3.38733 150.459 2.92391 150.699 1.77164 150.472C1.04521 149.122 1.05773 147.658 1.79669 146.8C2.69847 145.753 4.35173 146.005 5.22846 146.207C6.98192 146.611 8.62265 147.936 9.82502 149.248C11.4031 150.951 13.9331 155.305 11.0274 157.26C10.0755 157.891 8.63518 158.043 7.75845 157.172C7.6332 157.109 7.26999 156.907 7.11969 156.491C6.86919 155.797 7.38271 154.964 7.8837 154.863C8.44731 154.749 8.78547 155.595 9.28646 155.443C9.64968 155.33 10.0755 154.636 9.78745 154.245Z" fill="white"/>
<path d="M12.6929 142.864C11.6158 142.864 10.7516 143.735 10.7516 144.82C10.7516 145.905 11.6158 146.776 12.6929 146.776C13.7701 146.776 14.6343 145.905 14.6343 144.82C14.6343 143.748 13.7701 142.864 12.6929 142.864Z" fill="white"/>
</g>
<defs>
<clipPath id="clip0_429_387">
<rect width="289" height="26" fill="white" transform="translate(26) rotate(90)"/>
</clipPath>
</defs>
</svg>
