<svg width="1920" height="692" viewBox="0 0 1920 692" fill="none" xmlns="http://www.w3.org/2000/svg">
<g opacity="0.1">
<path d="M-11 689C176.333 697 609 669.4 841 495L1111 279C1263.67 154.333 1640.6 -71.0002 1927 24.9998" stroke="#5D7C78" stroke-width="2"/>
<path d="M-11 689C176.333 697 609 669.4 841 495L1111 279C1263.67 154.333 1640.6 -71.0002 1927 24.9998" stroke="black" stroke-opacity="0.2" stroke-width="2"/>
</g>
<g opacity="0.1">
<path d="M1927 689C1739.67 697 1307 669.4 1075 495L805 279C652.333 154.333 275.4 -71.0002 -11 24.9998" stroke="#5D7C78" stroke-width="2"/>
<path d="M1927 689C1739.67 697 1307 669.4 1075 495L805 279C652.333 154.333 275.4 -71.0002 -11 24.9998" stroke="black" stroke-opacity="0.2" stroke-width="2"/>
</g>
<path d="M879 397C501.4 54.5998 135 31.6665 -1 62.9998V649C579.8 636.2 827.667 475.667 879 397Z" fill="#F1F3EE"/>
<path d="M1041 397C1418.6 54.5998 1785 31.6665 1921 62.9998V649C1340.2 636.2 1092.33 475.667 1041 397Z" fill="#F1F3EE"/>
</svg>
