<svg width="602" height="532" viewBox="0 0 602 532" fill="none" xmlns="http://www.w3.org/2000/svg">
<path d="M593.012 229.391C557.561 378.673 442.101 461 322.5 461C262.763 461 220.289 433.062 192.728 390.172C165.153 347.259 152.5 289.363 152.5 229.5C152.5 169.84 201.1 112.596 264.835 70.2242C328.546 27.8682 407.201 0.5 467 0.5C496.883 0.5 521.205 7.38739 540.504 19.548C559.803 31.7085 574.107 49.1603 583.926 70.3353C603.569 112.699 605.249 169.949 593.012 229.391Z" fill="#F1F3EE" stroke="#5D7C78"/>
<g clip-path="url(#clip0_1_9487)">
<path fill-rule="evenodd" clip-rule="evenodd" d="M54.9866 299.968C56.4591 298.194 56.9414 297.711 58.744 296.209C59.635 295.468 61.0006 294.212 61.7798 293.417C63.7316 291.428 66.8461 288.773 68.8592 287.382C73.6956 284.041 76.2749 281.908 78.3237 279.56C79.6454 278.045 83.9017 273.702 84.6144 273.142C86.5958 271.584 90.2118 270.382 92.7466 270.438C94.4093 270.476 95.1347 270.674 97.2886 271.679C98.385 272.191 99.8638 272.934 100.575 273.33L101.867 274.051L102.932 271.78C104.095 269.299 104.603 268.509 105.676 267.504C106.466 266.765 107.584 266.347 108.489 266.455C110.019 266.636 112.593 268.583 114.703 271.156C117.542 274.619 119.302 278.946 120.284 284.877C120.423 285.72 120.545 286.441 120.554 286.477C120.643 286.836 124.288 285.606 126.189 284.576C127.778 283.714 129.924 282.797 132.24 281.989C134.702 281.13 135.609 280.92 136.791 280.935C139.424 280.97 143.952 282.368 144.853 283.424C145.938 284.695 145.44 286.819 143.449 289.425C141.924 291.419 141.152 293.099 140.041 296.834C139.55 298.484 139.036 301.118 138.731 303.547C138.616 304.453 138.397 305.91 138.242 306.786C138.088 307.663 137.867 309.111 137.75 310.005C137.634 310.9 137.349 312.491 137.118 313.542C136.694 315.461 135.853 321.755 135.616 324.769C135.542 325.713 135.38 326.732 135.227 327.22C134.485 329.592 132.565 333.486 131.61 334.56C131.368 334.832 130.468 335.468 129.441 336.094C128.476 336.681 127.396 337.346 127.042 337.571C126.687 337.796 125.874 338.133 125.232 338.32C124.591 338.507 123.588 338.818 123.004 339.01C121.921 339.368 120.39 339.682 120.185 339.589C119.834 339.431 119.712 339.588 119.792 340.09C119.868 340.566 119.728 341.496 119.508 341.964C119.454 342.079 119.354 342.724 119.283 343.398C119.214 344.072 119.063 344.822 118.949 345.065C118.716 345.562 118.537 346.573 118.562 347.259C118.57 347.508 118.698 348.298 118.844 349.013C119.2 350.747 119.31 353.867 119.037 354.471L118.837 354.914L119.96 356.644C121.364 358.804 121.04 358.411 123.487 360.919C127.399 364.931 130.046 367.047 134.915 370.057C142.821 374.944 147.165 377.508 150.289 379.131C156.429 382.322 163.892 386.452 167.041 388.401C170.443 390.507 176.089 394.512 178.7 396.67C180.996 398.568 187.033 403.961 190.167 406.911C191.788 408.439 193.145 409.703 193.183 409.721C193.22 409.739 192.865 409.116 192.394 408.337C191.513 406.879 190.086 403.772 189.153 401.273C188.861 400.491 188.384 398.878 188.092 397.687C187.771 396.378 187.102 394.269 186.399 392.358C185.762 390.618 184.94 388.192 184.575 386.967C184.209 385.741 183.62 383.896 183.263 382.865L182.616 380.991L182.276 381.153C182.09 381.242 181.322 381.311 180.57 381.307C179.819 381.304 178.738 381.35 178.168 381.411C177.598 381.472 176.684 381.506 176.136 381.488C175.589 381.469 174.435 381.466 173.571 381.48C171.391 381.516 171.187 381.484 168.795 380.722C165.859 379.787 163.204 378.697 159.441 376.878C155.654 375.05 155.641 375.041 155.271 373.625C154.99 372.55 154.999 372.086 155.313 371.415C155.607 370.79 155.968 370.4 156.635 369.995C156.979 369.786 157.107 369.654 157.033 369.587C156.97 369.532 156.438 369.167 155.849 368.773C155.259 368.379 154.431 367.727 154.007 367.325C152.917 366.29 151.328 364.398 150.75 363.447C149.813 361.905 149.145 359.243 149.291 357.63C149.33 357.207 149.583 356.068 149.854 355.101C150.868 351.494 150.945 350.457 150.442 347.085C150.13 344.997 149.954 344.269 149.305 342.385C148.459 339.928 148.343 339.104 148.728 338.284C149.407 336.836 150.724 336.856 153.934 338.361C155.474 339.084 155.774 339.262 156.671 339.996C157.225 340.449 157.699 340.812 157.726 340.802C157.752 340.793 157.832 340.47 157.903 340.084C158.087 339.077 158.623 338.16 159.344 337.622C160.172 337.004 162.158 336.341 163.622 336.192C166.337 335.915 167.499 335.711 169.333 335.187C175.288 333.488 178.736 333.417 182.356 334.919C183.477 335.385 183.74 335.535 184.272 336.014C185.57 337.185 186.658 339.42 187.129 341.882L187.203 342.269L188.186 342.491C188.726 342.613 190.099 342.815 191.237 342.939C193.052 343.138 193.402 343.211 194.114 343.545C194.87 343.898 194.976 343.989 195.687 344.883C196.563 345.985 197.036 347.08 197.016 347.962C197 348.692 196.354 351.485 195.406 354.914C194.745 357.31 194.666 357.722 194.567 359.3C194.506 360.258 194.323 361.748 194.159 362.611C193.921 363.868 193.876 364.497 193.937 365.776C194.017 367.447 193.934 369.217 193.723 370.349C193.654 370.717 193.326 371.98 192.995 373.159C192.206 375.956 191.998 376.335 190.377 377.922C189.702 378.583 188.999 379.239 188.813 379.381C188.006 379.998 184.884 380.915 184.386 380.682C184.309 380.646 184.232 380.645 184.215 380.682C184.198 380.719 184.433 381.475 184.736 382.365C185.04 383.254 185.731 385.464 186.27 387.275C186.81 389.087 187.52 391.23 187.848 392.038C188.506 393.661 189.025 395.411 189.494 397.587C189.935 399.635 190.283 400.671 191.491 403.52C193.114 407.353 193.555 408.127 196.241 411.845C197.398 413.447 198.216 414.221 201.332 416.666C205.738 420.122 207.388 421.263 214.052 425.448C216.497 426.984 219.275 428.747 220.225 429.366C226.46 433.427 235.976 437.995 247.218 442.324C248.245 442.719 249.102 443.011 249.12 442.971C249.139 442.932 248.968 442.773 248.741 442.621C247.941 442.081 244.895 439.582 244.106 438.82C243.668 438.396 242.61 437.209 241.759 436.183C240.287 434.414 240.189 434.318 239.827 434.304C239.557 434.294 238.815 433.993 237.298 433.279C235.462 432.415 234.907 432.103 233.477 431.129C231.144 429.54 227.144 426.152 225.585 424.445C224.491 423.249 221.998 420.017 221.169 418.724C220.373 417.482 218.235 413.636 216.955 411.145C215.453 408.217 213.869 403.675 212.249 397.642C210.616 391.557 210.261 389.873 209.362 383.898C208.795 380.13 208.525 378.972 207.56 376.155C207.158 374.981 206.541 373.111 206.19 371.997C204.731 367.374 203.996 365.296 202.646 361.967C200.839 357.518 200.324 355.995 200.202 354.749C200.116 353.875 200.139 353.678 200.392 353.139C200.645 352.599 200.727 352.512 201.086 352.412C201.721 352.236 202.359 352.401 203.621 353.07C205.033 353.819 205.94 354.498 207.456 355.936C209.766 358.128 210.892 359.729 213.324 364.282C214.186 365.895 215.365 368.103 215.946 369.189C216.527 370.275 217.223 371.661 217.493 372.269C217.763 372.877 219.272 377.285 220.848 382.064C222.424 386.843 224.07 391.815 224.505 393.112C226.168 398.07 227.763 402.971 228.814 406.362C232.279 417.541 233.083 419.598 236.37 425.713C238.774 430.187 239.476 431.248 242.541 435.05C244.982 438.079 245.645 438.734 249.661 442.09C250.595 442.872 251.529 443.659 251.736 443.842C252.049 444.116 252.809 444.429 256.29 445.72C258.587 446.573 261.196 447.554 262.087 447.902C262.979 448.25 264.241 448.69 264.89 448.879C266.999 449.494 276.681 454.191 278.855 455.653C279.643 456.183 280.291 456.75 280.274 456.896C280.266 456.96 279.373 456.57 278.129 455.963C273.804 453.846 264.308 450.006 262.585 449.678C259.763 449.139 256.41 449.181 253.001 449.797L251.819 450.012L250.604 450.997C248.065 453.059 247.147 454.264 245.569 457.602C243.486 462.006 242.367 463.846 239.975 466.796C237.722 469.575 235.993 471.328 231.532 475.357C225.248 481.034 222.979 482.728 219.55 484.304C218.755 484.669 217.349 485.333 216.425 485.777C215.5 486.222 213.882 486.929 212.827 487.348C211.774 487.768 210.274 488.386 209.494 488.724C207.455 489.606 199.214 492.434 197.698 492.773C196.991 492.931 195.276 493.336 193.887 493.673C189.424 494.755 184.353 495.456 178.523 495.795C174.193 496.047 170.653 495.844 168.438 495.213C167.168 494.852 166.644 494.051 167.146 493.236C167.78 492.202 170.321 491.258 176.937 489.597C182.04 488.315 185.883 487.124 191.751 485.005C197.149 483.056 198.423 482.525 202.239 480.635C205.392 479.073 207.528 478.25 210.362 477.501C212.265 476.999 217.977 475.794 220.078 475.452C221.324 475.25 225.109 474.888 226.37 474.851C227.068 474.831 228.926 475.03 229.19 475.154C229.423 475.263 229.503 475.201 231.889 473.036C234.746 470.445 235.752 469.46 237.21 467.839C240.823 463.815 242.272 461.66 244.379 457.172C245.749 454.254 246.636 452.97 248.331 451.458C248.68 451.146 248.957 450.865 248.945 450.833C248.933 450.801 247.258 451.346 245.222 452.044C243.186 452.743 241.075 453.441 240.531 453.597C239.859 453.79 239.128 454.136 238.245 454.679C236.91 455.5 236.646 455.705 234.55 457.544C233.872 458.14 233.061 458.795 232.748 458.999C232.434 459.203 231.57 459.829 230.826 460.387C227.911 462.575 225.721 463.561 219.591 465.448C215.878 466.591 215.311 466.71 211.93 467.059C204.516 467.822 197.636 467.232 190.418 465.213C189.485 464.952 187.124 464.22 185.171 463.587C177.453 461.082 173.521 460.257 165.2 459.396C160.978 458.96 160.1 458.834 158.113 458.377C156.162 457.93 154.939 457.375 154.398 456.688C153.87 456.02 153.789 455.549 154.09 454.906C154.601 453.816 156.028 452.835 158.314 451.999C160.644 451.148 163.165 450.717 167.665 450.404C172.783 450.045 180.476 450.575 194.514 452.251C202.3 453.18 204.473 453.361 212.36 453.74C226.112 454.402 229.824 454.242 237.25 452.665C240.077 452.064 240.988 451.805 244.523 450.596C250.225 448.645 252.798 448.06 256.543 447.863L258.051 447.784L257.29 447.499C245.465 443.051 242.126 441.714 236.297 439.093C230.073 436.294 223.495 432.894 219.881 430.608C219.256 430.213 216.936 428.78 214.724 427.423C206.6 422.442 204.234 420.826 199.43 416.984C198.401 416.162 197.849 415.779 197.733 415.809C197.619 415.84 197.539 415.796 197.498 415.681C197.402 415.416 193.582 413.547 192.007 412.994C190.414 412.434 187.952 411.74 186.116 411.332C181.837 410.382 180.139 410.508 171.739 412.397C170.501 412.676 168.682 413.056 167.698 413.242C166.714 413.429 165.856 413.619 165.791 413.664C165.725 413.71 165.365 413.948 164.99 414.194C161.002 416.815 160.669 417.157 158.921 420.42C157.393 423.273 157.021 424.446 156.625 427.685C156.107 431.92 155.178 435.794 154.169 437.929C153.758 438.801 152.388 440.724 151.634 441.49C150.358 442.786 148.827 443.121 146.342 442.648C143.808 442.166 141.488 440.885 140.037 439.168C139.608 438.658 139.154 438.153 139.031 438.043C138.533 437.604 137.633 436.45 137.329 435.861L137.006 435.238L136.002 435.554C133.005 436.499 130.292 436.479 127.822 435.495C126.085 434.805 124.927 433.683 124.244 432.031C123.741 430.818 123.785 429.732 124.483 425.989C125.482 420.629 126.003 418.772 127.099 416.652C128.549 413.85 130.503 412.271 132.853 412.001L133.634 411.913L133.34 410.993C132.941 409.743 132.799 408.585 132.761 406.263C132.732 404.525 132.78 404.034 133.169 402.015C133.96 397.908 134.317 396.919 135.382 395.892C135.943 395.35 136.857 394.893 137.425 394.871C138.267 394.838 139.906 395.323 142.184 396.278C143.418 396.796 145.103 397.497 145.928 397.837C147.128 398.333 147.804 398.688 149.313 399.619C152.586 401.638 153.314 402.198 155.918 404.694C157.789 406.488 158.393 407.17 159.638 408.905C160.76 410.471 161.304 410.92 162.852 411.559C163.52 411.835 164.255 412.085 164.487 412.117C164.962 412.182 167.246 411.774 170.64 411.02C179.066 409.15 180.627 408.945 183.684 409.308C185.968 409.579 189.793 410.607 192.196 411.598C192.98 411.92 193.599 412.134 193.572 412.073C193.545 412.011 193.112 411.611 192.61 411.182C192.108 410.754 190.797 409.56 189.697 408.531C185.775 404.857 180.473 400.11 177.854 397.929C174.654 395.265 168.598 391.064 164.538 388.693C160.236 386.18 159.712 385.917 157.959 385.39C157.069 385.124 155.094 384.495 153.57 383.995C152.046 383.495 150.483 383.018 150.095 382.933C146.876 382.235 142.355 382.377 138.294 383.304C137.585 383.465 135.098 384.163 132.768 384.854C124.685 387.25 123.238 387.565 120.119 387.61C117.642 387.646 116.271 387.523 114.033 387.066C112.862 386.828 111.958 386.7 111.926 386.768C111.895 386.834 111.285 387.354 110.572 387.924C109.858 388.494 109.108 389.171 108.906 389.428C108.059 390.501 107.203 391.933 106.461 393.519C105.551 395.461 105.073 396.783 104.69 398.419C104.253 400.279 103.685 401.373 102.252 403.108C100.068 405.753 98.4665 406.888 95.466 407.92C93.7376 408.514 93.0658 408.591 90.2164 408.518C86.8969 408.434 86.6292 408.415 85.3945 408.204C83.7155 407.915 82.3964 407.281 81.5143 406.338C81.1602 405.958 80.5341 405.084 80.1235 404.395C79.2282 402.895 78.905 402.467 78.6876 402.489C78.5972 402.499 77.5348 402.711 76.3279 402.961C73.4314 403.562 72.5858 403.688 71.4043 403.696C70.4372 403.702 70.3939 403.691 69.1549 403.11C67.9054 402.524 67.8853 402.509 67.294 401.761C66.8905 401.249 66.4912 400.514 66.0627 399.492C64.7955 396.465 64.4919 395.831 63.6553 394.457C63.1872 393.688 62.0182 392.055 61.0585 390.83C58.6931 387.81 58.32 387.051 58.2662 385.143C58.2076 383.07 58.5846 381.284 59.5037 379.292C60.3109 377.54 60.7482 376.938 61.8879 376.002C63.3543 374.8 65.8548 374.082 68.5756 374.082C70.2265 374.082 71.9722 374.248 73.6316 374.56L75.0734 374.831L74.8344 374.212C74.3065 372.842 73.8523 371.032 73.8509 370.288C73.8477 369.207 74.1127 368.227 74.5351 367.755C75.0627 367.164 75.7666 367.005 78.1031 366.944C81.9399 366.845 83.7991 366.425 87.421 364.845C92.5015 362.628 96.7924 362.531 98.9912 364.583C99.6597 365.208 101.534 367.608 102.46 369.029C103.431 370.516 104.3 372.341 105.217 374.811C106.137 377.29 106.329 377.699 107.107 378.855C107.431 379.336 107.861 380.078 108.061 380.505C108.606 381.664 109.471 382.933 110.083 383.469C110.455 383.794 110.68 384.105 110.795 384.453C110.888 384.733 111.059 385.007 111.175 385.062C111.634 385.277 116.31 386.146 117.364 386.212C117.979 386.251 119.234 386.275 120.152 386.265C123.269 386.233 124.588 385.947 133.141 383.451C137.012 382.32 138.858 381.877 140.958 381.574C145.312 380.944 148.971 381.177 152.296 382.297C153.867 382.825 154.306 382.928 153.623 382.608C150.954 381.357 145.769 378.491 142.163 376.276C133.103 370.709 130.956 369.287 127.968 366.871C125.58 364.942 121.451 360.947 120.248 359.401C119.79 358.815 118.591 356.924 118.155 356.105C117.831 355.492 117.771 355.434 117.406 355.386C117.188 355.356 116.613 355.208 116.127 355.054C114.626 354.582 113.712 353.867 110.485 350.639C109.297 349.45 108.791 349.1 106.444 347.837C105.44 347.297 104.37 346.709 104.068 346.528L103.518 346.201L102.845 346.879C102.007 347.721 101.279 348.158 100.429 348.33C100.067 348.403 99.0956 348.615 98.2697 348.8C94.8235 349.574 93.2589 349.666 89.0833 349.334C87.3632 349.199 85.0721 349.053 83.9929 349.012C82.9137 348.971 81.3906 348.862 80.6084 348.772C77.9616 348.463 77.3395 348.274 71.7407 346.066C68.5293 344.799 67.512 344.443 64.8181 343.649C60.4504 342.361 57.8851 341.21 55.8317 339.62C54.4075 338.518 53.1207 337.261 52.2975 336.17C50.7646 334.138 49.0272 330.199 48.9629 328.61C48.9041 327.16 49.0203 326.617 49.6958 325.185C50.2504 324.008 50.4179 323.752 51.373 322.625C52.6897 321.072 53.9305 319.899 55.576 318.65C56.7596 317.751 56.8384 317.671 56.7006 317.487C56.6196 317.379 56.0607 316.763 55.4581 316.12C54.8555 315.477 54.2699 314.831 54.1553 314.683C53.6915 314.082 52.7222 312.217 52.5091 311.515C51.39 307.818 51.4458 306.859 52.9828 303.41L53.9722 301.19L54.9866 299.968ZM53.2012 306.388C52.9651 307.445 53.0413 308.485 53.4739 310.096C54.0551 312.257 54.7709 313.561 56.2165 315.095C56.827 315.743 57.4317 316.43 57.561 316.623C57.6902 316.817 57.8178 316.986 57.8461 317C57.8744 317.013 58.2028 316.836 58.5761 316.607C58.9498 316.378 60.0586 315.734 61.0407 315.175C62.988 314.068 63.5217 313.693 63.9003 313.167C64.1173 312.865 64.1327 312.715 64.0157 311.988C63.6829 309.9 63.7482 306.431 64.1532 304.747C64.7937 302.086 66.4395 299.329 68.5161 297.442C69.3983 296.641 71.6108 295.271 73.3046 294.479C76.0588 293.189 80.3844 291.873 87.0801 290.285C92.2459 289.062 94.9912 287.709 96.9377 285.432C97.4682 284.81 97.6845 284.437 98.4418 282.822C99.0444 281.537 99.4264 280.577 99.6409 279.807C99.8135 279.185 100.3 277.796 100.721 276.721L101.486 274.767L99.4159 273.709C95.3302 271.62 93.5571 271.213 90.7352 271.714C88.5901 272.095 86.5727 272.972 85.1474 274.141C84.2415 274.884 81.3716 277.808 79.3364 280.059C78.4671 281.021 77.2067 282.299 76.5368 282.898C75.0878 284.194 71.8689 286.69 69.4682 288.379C67.3708 289.855 64.6216 292.233 62.5552 294.357C61.7105 295.225 60.3238 296.53 59.4744 297.256C57.7827 298.701 57.2834 299.202 55.9581 300.781C55.0937 301.812 55.054 301.88 54.208 303.794C53.7326 304.87 53.2787 306.037 53.2012 306.388ZM50.4075 327.346C50.1909 328.901 50.58 330.229 52.0926 333.092C54.021 336.743 56.9779 339.243 61.2725 340.85C62.1101 341.164 63.3006 341.57 63.9189 341.751C68.5167 343.105 70.3758 343.757 75.1953 345.704C78.3096 346.963 80.0837 347.325 83.85 347.468C84.9986 347.511 87.4153 347.667 89.2211 347.814C92.8551 348.108 94.3188 348.06 96.5291 347.576C101.116 346.57 100.846 346.655 101.499 346.005C101.801 345.703 102.093 345.414 102.145 345.363C102.197 345.312 102.081 345.12 101.886 344.936C101.581 344.648 101.433 344.585 100.817 344.483C99.762 344.306 97.3849 343.346 95.8203 342.464C95.0925 342.053 94.4363 341.663 94.3611 341.597C94.1232 341.385 90.2873 339.123 88.5011 338.141C87.5505 337.619 86.4876 337 86.1399 336.768C84.3118 335.546 80.6705 332.771 76.3419 329.303C74.71 327.995 71.1329 324.614 70.0517 323.356C67.9906 320.958 65.9962 317.803 64.9285 315.247L64.458 314.121L64.0405 314.542C63.8113 314.775 62.4563 315.676 61.0291 316.547C59.6029 317.417 58.4067 318.19 58.3718 318.265C58.3374 318.338 58.2173 318.42 58.1062 318.447C57.5697 318.571 54.6984 320.912 53.469 322.227C52.9372 322.797 51.8902 324.059 51.5619 324.527C51.0788 325.219 50.5118 326.603 50.4075 327.346ZM65.6716 305.038C65.3811 306.254 65.2876 307.381 65.3185 309.322C65.3532 311.495 65.5068 312.482 66.065 314.127C67.2525 317.621 69.8459 321.316 73.6173 324.887C75.8577 327.009 76.5151 327.565 79.6139 329.961C85.224 334.299 86.8046 335.4 89.3944 336.782C91.467 337.887 94.0129 339.414 95.7818 340.613C96.5059 341.103 97.2248 341.476 98.6104 342.08C100.934 343.094 101.346 343.167 102.039 342.692C102.316 342.503 103.433 341.937 104.522 341.433C105.637 340.917 106.82 340.276 107.23 339.965C109.534 338.21 111.477 337.499 114.153 337.432C115.661 337.395 117.553 337.761 118.212 338.217L118.601 338.486L118.529 337.914C118.416 337.01 118.474 336.311 118.753 335.241C119.068 334.034 119.085 333.598 118.888 331.733C118.804 330.936 118.739 329.969 118.746 329.585C118.785 326.825 118.927 322.116 118.998 321.143C119.045 320.498 119.158 318.941 119.248 317.683C119.805 309.859 119.956 308.311 120.293 306.914C120.605 305.622 120.631 305.271 120.585 303.042C120.476 297.732 119.18 286.464 118.199 282.305C117.502 279.347 116.239 276.185 114.879 273.987C113.357 271.529 110.507 268.762 108.804 268.092C108.2 267.855 108.053 267.843 107.592 268.002C106.533 268.366 105.589 269.453 104.481 271.591C103.416 273.644 101.579 278.058 100.897 280.203C99.663 284.084 98.2579 286.331 95.9239 288.156C94.0529 289.618 91.2634 290.8 87.3513 291.785C77.1805 294.348 72.8499 295.999 69.8993 298.438C69.1142 299.087 67.7944 300.576 67.2586 301.416C66.7473 302.218 65.8634 304.233 65.6716 305.038ZM59.931 382.176C59.5385 384.27 59.6207 386.031 60.1639 387.166C60.3214 387.496 61.1431 388.645 61.9877 389.721C64.5481 392.976 65.5236 394.618 66.7249 397.7C67.945 400.828 68.3244 401.39 69.6566 402.051C70.8031 402.619 71.8774 402.551 75.8509 401.658C77.1875 401.357 79.0022 400.959 79.884 400.772C85.8665 399.505 91.0918 396.977 96.3507 392.803C97.6029 391.81 99.0517 390.564 99.5689 390.033C101.356 388.205 102.847 387.202 105.364 386.136L106.781 385.536L106.237 385.366C105.937 385.272 104.171 384.82 102.312 384.361C99.2131 383.596 95.3045 382.422 90.2416 380.738C82.0183 378.002 75.8282 376.305 72.0765 375.757C67.1692 375.042 63.7888 375.632 62.0553 377.51C61.1472 378.495 60.2538 380.457 59.931 382.176ZM74.938 370.274C74.9284 371.541 75.8726 374.896 76.2929 375.094C76.4218 375.154 77.0117 375.32 77.6036 375.462C80.2865 376.108 86.2453 377.913 90.743 379.445C97.0737 381.6 102.344 383.115 108.482 384.545L109.685 384.825L109.223 384.465C108.506 383.905 107.571 382.604 106.868 381.192C106.632 380.719 106.182 379.962 105.867 379.51C105.051 378.34 104.842 377.909 104.011 375.693C102.667 372.11 101.761 370.38 99.9635 367.963C98.1092 365.471 97.5092 364.948 96.1486 364.637C95.0485 364.384 94.1616 364.372 92.7317 364.588C91.1536 364.826 89.9464 365.205 87.6611 366.179C84.1664 367.668 82.1866 368.091 78.4584 368.144C77.2191 368.161 76.0124 368.239 75.7762 368.315C75.3832 368.441 75.3299 368.5 75.1445 369.029C75.034 369.347 74.9416 369.906 74.938 370.274ZM120.811 288.43C121.333 291.757 121.892 298.161 121.913 301.047C121.922 302.139 121.936 303.613 121.947 304.321C121.971 305.905 121.957 306.08 121.71 307.406C121.495 308.564 121.235 311.378 120.961 315.549C120.864 317.015 120.719 318.959 120.64 319.87C120.48 321.697 120.458 322.12 120.358 325.423C120.321 326.671 120.268 328.247 120.242 328.927C120.216 329.607 120.256 330.883 120.329 331.763C120.484 333.612 120.442 334.123 120.02 335.536C119.831 336.171 119.704 336.924 119.69 337.5L119.667 338.434L120.476 338.215C120.921 338.096 121.764 337.843 122.349 337.656C122.934 337.469 123.872 337.199 124.431 337.055C124.991 336.911 125.574 336.729 125.728 336.65C126.785 336.102 130.391 333.792 130.629 333.512C131.192 332.844 132.719 329.887 133.425 328.092C134.026 326.564 134.112 326.244 134.223 325.155C134.675 320.647 135.418 314.929 135.764 313.292C135.986 312.237 136.269 310.61 136.391 309.677C136.513 308.744 136.739 307.268 136.892 306.399C137.045 305.529 137.287 303.952 137.43 302.895C137.935 299.167 138.559 296.608 139.778 293.263C140.399 291.56 141.014 290.438 142.23 288.792C143.658 286.859 144.228 285.441 143.918 284.585C143.8 284.26 143.69 284.173 142.961 283.831C141.348 283.074 138.369 282.407 136.741 282.437C135.048 282.468 130.975 283.831 127.305 285.593C126.36 286.046 125.176 286.536 124.674 286.682C122.461 287.322 122.006 287.42 121.367 287.391C120.995 287.373 120.682 287.378 120.673 287.397C120.664 287.419 120.725 287.883 120.811 288.43ZM102.878 344.091C102.991 344.484 103.567 344.925 105.127 345.818C105.839 346.225 106.964 346.868 107.628 347.25C109.272 348.194 110.483 349.115 111.8 350.428C114.279 352.896 115.293 353.705 116.377 354.083C116.773 354.221 117.284 354.344 117.516 354.355C117.887 354.373 117.943 354.339 118.001 354.055C118.037 353.879 118.033 353.402 117.991 352.996C117.949 352.589 117.898 351.901 117.879 351.468C117.859 351.033 117.708 350.104 117.542 349.402C117.376 348.7 117.217 347.867 117.187 347.548C117.107 346.68 117.269 345.387 117.526 344.831C117.658 344.546 117.805 343.837 117.876 343.143C117.944 342.486 118.087 341.673 118.197 341.337C118.447 340.568 118.436 340.388 118.113 339.894C117.97 339.673 117.876 339.372 117.904 339.225C117.964 338.92 117.925 338.905 116.673 338.737C115.632 338.596 114.032 338.641 112.916 338.839C111.015 339.177 109.694 339.769 108.082 341.003C107.502 341.447 106.604 341.925 105.082 342.599C103.888 343.127 102.883 343.613 102.851 343.677C102.82 343.743 102.831 343.929 102.878 344.091ZM80.9919 403.296C82.1601 405.307 83.0037 406.18 84.1715 406.588C85.2228 406.956 86.766 407.158 88.5443 407.162C89.4262 407.163 90.6891 407.178 91.3498 407.195C92.9816 407.236 94.1366 407.041 95.5657 406.489C97.8748 405.595 99.5467 404.348 101.342 402.179C102.589 400.674 103.087 399.704 103.468 398.043C103.859 396.335 104.593 394.414 105.709 392.187C107.174 389.258 108.005 388.208 109.891 386.9L110.594 386.412L110.136 386.28C109.743 386.167 109.444 386.233 108.058 386.734C104.307 388.091 102.696 389.059 100.629 391.196C99.6608 392.196 96.1192 395.055 94.5829 396.076C92.872 397.213 89.1422 399.255 87.5397 399.932C86.0073 400.579 83.2978 401.446 81.4729 401.872C80.8999 402.006 80.4193 402.144 80.4057 402.179C80.3905 402.214 80.655 402.716 80.9919 403.296ZM149.854 339.757C149.891 339.989 150.21 341.005 150.563 342.014C151.217 343.886 151.435 344.813 151.837 347.448C152.261 350.229 152.144 351.871 151.295 355.006C151.041 355.941 150.783 357.025 150.721 357.414C150.565 358.382 150.807 359.946 151.335 361.377C151.728 362.445 151.895 362.722 152.931 364.005C154.523 365.978 155.352 366.735 157.437 368.115C159.951 369.779 161.525 370.488 168.838 373.253C172.862 374.773 175.51 375.884 178.972 377.505L181.998 378.922L181.633 377.697C180.66 374.431 179.901 372.714 178.284 370.114C176.384 367.057 174.604 364.77 171.753 361.718C169.895 359.729 168.917 358.544 167.554 356.629C167.087 355.973 166.085 354.613 165.328 353.605C163.5 351.175 162.709 350.021 161.454 347.945C159.473 344.67 158.327 343.282 155.999 341.342C154.871 340.402 154.609 340.233 153.289 339.601C150.362 338.2 149.61 338.235 149.854 339.757ZM158.802 340.895C158.803 341.731 158.926 341.989 159.749 342.882C160.654 343.866 161.059 344.442 162.64 346.995C164.019 349.223 164.711 350.202 168.387 355.125C170.649 358.153 171.282 358.915 173.419 361.164C175.848 363.722 177.713 366.182 179.757 369.518C181.427 372.244 182.088 373.779 183.257 377.661L183.392 378.107L183.607 377.506C183.726 377.174 184.055 376.265 184.34 375.486C185.225 373.061 185.758 370.956 185.976 369.033C186.085 368.064 186.246 366.79 186.334 366.199C186.654 364.072 186.622 358.253 186.278 355.736C186 353.711 185.988 353.21 186.134 349.869C186.349 344.99 186.113 342.458 185.216 339.985C184.762 338.734 184.529 338.278 184.012 337.631L183.372 336.829L182.055 336.216C178.858 334.73 175.579 334.772 169.763 336.376C167.898 336.89 166.565 337.112 164.117 337.318C162.43 337.46 160.553 338.007 159.862 338.556C159.259 339.037 158.802 340.047 158.802 340.895ZM135.096 400.241C134.927 400.969 134.66 402.252 134.502 403.093C133.925 406.175 134.198 410.368 135.049 411.488C135.303 411.823 135.317 411.827 136.254 411.818C138.095 411.802 140.639 411.918 143.604 412.155C146.176 412.359 152.055 412.671 156.245 412.825C157.872 412.884 161.066 412.745 161.094 412.612C161.107 412.555 160.908 412.368 160.651 412.199C159.915 411.712 159.205 410.94 158.264 409.602C157.223 408.122 156.284 407.084 154.402 405.335C152.603 403.665 151.286 402.678 148.888 401.206C147.043 400.072 146.789 399.947 143.491 398.536C140.76 397.367 139.776 396.992 138.83 396.76C138.171 396.598 137.525 396.472 137.396 396.477C137.137 396.491 136.42 397.008 136.064 397.437C135.756 397.809 135.465 398.652 135.096 400.241ZM127.279 420.594C126.891 421.959 125.885 426.928 125.578 428.995C125.391 430.259 125.495 431.118 125.932 431.921C126.45 432.869 127.028 433.417 128.002 433.883C130.291 434.978 133.161 434.95 136.436 433.802C137.959 433.268 138.921 432.803 141.353 431.427C145.217 429.242 147.533 427.488 150.172 424.749C151.717 423.146 153.882 421.185 156.561 418.963C157.251 418.391 158.241 417.493 158.761 416.969C159.281 416.445 160.261 415.598 160.94 415.088L162.174 414.161L161.643 414.214C159.842 414.398 157.53 414.464 155.622 414.388C149.978 414.16 145.905 413.949 143.014 413.733C136.457 413.244 132.681 413.366 131.383 414.106C130.504 414.609 129.415 415.741 128.688 416.91C128.314 417.511 127.694 419.133 127.279 420.594ZM155.991 372.128C155.96 372.531 156.325 373.802 156.572 374.153C156.879 374.591 161.556 376.826 164.366 377.88C166.385 378.636 170.203 379.815 171.292 380.017C171.55 380.064 172.484 380.099 173.367 380.091C174.249 380.084 175.391 380.102 175.906 380.132C176.419 380.161 177.38 380.137 178.041 380.077C178.702 380.016 179.601 379.975 180.038 379.983C180.475 379.992 180.823 379.974 180.812 379.944C180.756 379.79 172.178 376.151 169.06 374.959C163.572 372.861 160.894 371.752 159.243 370.895L157.734 370.11L157.319 370.39C156.531 370.918 156.033 371.572 155.991 372.128ZM138.561 435.541C138.74 435.84 139.13 436.35 139.428 436.675C142.18 439.67 141.767 439.33 143.8 440.279C145.753 441.191 146.397 441.363 147.933 441.383C149.569 441.404 150.128 441.107 151.366 439.555C153.324 437.099 154.525 433.312 155.228 427.368C155.501 425.068 155.83 423.722 156.549 421.99L157.171 420.493L156.423 421.165C156.012 421.534 155.054 422.378 154.294 423.037C153.533 423.697 152.182 424.99 151.293 425.91C149.544 427.718 147.396 429.519 145.475 430.787C144.05 431.729 140.864 433.534 139.365 434.246C138.77 434.53 138.272 434.814 138.26 434.878C138.247 434.944 138.383 435.241 138.561 435.541ZM187.506 345.092C187.571 345.931 187.575 348.115 187.515 349.946C187.431 352.467 187.456 353.657 187.616 354.849C187.987 357.602 188.039 358.37 188.058 361.513C188.076 364.381 187.853 367.334 187.364 370.698C187.215 371.722 186.385 374.688 186.04 375.432C185.888 375.758 185.658 376.378 185.528 376.81C185.218 377.842 184.772 378.796 184.459 379.095L184.207 379.336L184.887 379.295C185.591 379.254 187.58 378.627 187.991 378.317C188.121 378.221 188.78 377.582 189.458 376.897C190.659 375.683 190.698 375.629 191.051 374.736C191.249 374.231 191.658 372.928 191.959 371.84C192.575 369.611 192.744 368.079 192.648 365.583C192.611 364.588 192.664 363.835 192.824 363.111C193.057 362.061 193.244 360.675 193.456 358.424C193.54 357.531 193.748 356.595 194.227 354.953C195.041 352.163 195.664 349.624 195.786 348.603C195.908 347.573 195.644 346.776 194.826 345.701C193.936 344.532 193.392 344.284 190.846 343.884C189.825 343.724 188.61 343.457 188.148 343.29C187.319 342.992 187.305 342.992 187.345 343.278C187.368 343.437 187.44 344.254 187.506 345.092ZM202.073 356.869C202.251 357.416 203.112 359.649 203.987 361.833C204.862 364.017 205.666 366.107 205.773 366.478C206.108 367.634 207.862 373.005 208.738 375.56C209.829 378.736 210.135 380.033 210.763 384.123C211.648 389.89 211.92 391.139 213.662 397.478C214.824 401.701 216.706 407.167 217.755 409.373C218.605 411.158 221.687 416.756 222.595 418.166C223.467 419.519 225.49 422.178 226.583 423.406C227.801 424.777 232.051 428.411 234.157 429.886C236.048 431.209 237.164 431.928 237.203 431.844C237.214 431.82 237.012 431.604 236.756 431.365C235.856 430.529 229.011 421.696 228.131 420.237C227.23 418.74 226.666 417.45 225.666 414.588C224.939 412.508 224.581 411.196 224.015 408.528C223.113 404.278 223.073 404.144 221.129 398.804C219.503 394.341 218.417 391.028 217.214 386.858C216.802 385.428 216.106 383.485 215.388 381.765C214.751 380.236 214.018 378.27 213.76 377.396C213.163 375.372 211.918 372.105 211.214 370.721C210.915 370.131 210.227 368.945 209.687 368.086C209.146 367.227 208.337 365.864 207.891 365.057C207.443 364.252 206.567 362.785 205.942 361.796C205.317 360.808 204.494 359.458 204.112 358.796C203.358 357.486 202.552 356.166 201.936 355.231L201.544 354.635L201.647 355.256C201.705 355.596 201.896 356.322 202.073 356.869ZM203.079 354.63C203.176 354.721 204.092 356.174 205.115 357.862C206.139 359.549 207.289 361.423 207.674 362.024C208.057 362.625 208.714 363.732 209.134 364.483C209.553 365.234 210.349 366.563 210.903 367.437C211.455 368.309 212.131 369.448 212.404 369.967C213.139 371.359 214.245 374.176 215.066 376.747C215.464 377.995 216.263 380.123 216.84 381.476C217.559 383.159 218.192 384.947 218.845 387.131C220.218 391.726 220.77 393.376 222.706 398.653C224.48 403.485 224.745 404.401 225.637 408.779C226.07 410.9 226.355 411.873 227.357 414.642C228.667 418.267 229.314 419.514 230.945 421.575C231.883 422.76 234.785 426.582 235.696 427.832C236.482 428.914 236.415 428.75 234.919 425.944C231.905 420.291 230.978 417.919 227.649 407.359C226.762 404.542 225.205 399.818 223.172 393.768C222.736 392.47 221.339 388.275 220.068 384.446C216.186 372.75 216.131 372.61 213.82 368.42C213.175 367.253 212.221 365.481 211.7 364.483C210.486 362.157 209.363 360.35 208.345 359.084C206.989 357.4 205.001 355.582 203.356 354.522C202.968 354.273 202.774 354.35 203.079 354.63ZM155.669 455.803C155.809 455.922 155.957 455.939 156.136 455.856C156.762 455.563 161.561 454.834 162.939 454.822C167.334 454.784 169.05 454.816 170.482 454.962C171.387 455.054 173.124 455.176 174.34 455.234C175.556 455.291 177.561 455.43 178.798 455.544C180.034 455.657 182.068 455.837 183.321 455.942C184.571 456.049 186.475 456.222 187.55 456.33C188.626 456.437 191.321 456.639 193.541 456.78C195.761 456.92 198.499 457.094 199.626 457.166C200.752 457.238 202.81 457.329 204.199 457.367C205.588 457.406 207.539 457.478 208.536 457.527C211.148 457.655 212.654 457.608 215.165 457.317C216.387 457.176 218.57 456.928 220.017 456.769C222.251 456.52 225.761 455.971 225.812 455.862C225.821 455.843 225.267 455.828 224.582 455.828C221.419 455.826 217.321 455.695 212.33 455.436C203.961 455.001 201.741 454.8 194.074 453.781C184.19 452.466 176.242 451.753 171.229 451.732C168.058 451.718 163.879 452.113 161.294 452.668C158.085 453.359 154.887 455.14 155.669 455.803ZM160.194 457.189C160.826 457.308 163.204 457.61 165.478 457.86C171.832 458.559 176.189 459.31 180.091 460.376C180.994 460.624 183.38 461.366 185.391 462.025C193.143 464.568 196.756 465.422 201.656 465.869C204.89 466.166 211.218 465.944 214.814 465.409C216.266 465.192 219.839 464.138 223.355 462.889C225.952 461.965 227.877 460.931 229.755 459.45C230.341 458.987 231.191 458.351 231.642 458.035C232.093 457.72 233.028 456.951 233.721 456.326C235.593 454.638 235.506 454.758 234.701 454.976C234.318 455.078 233.411 455.383 232.688 455.653C231.361 456.145 227.531 457.189 225.431 457.63C223.793 457.973 222.646 458.136 218.857 458.56C212.724 459.247 211.885 459.291 208.23 459.133C207.196 459.088 205.074 459.011 203.514 458.964C201.954 458.916 199.594 458.795 198.269 458.698C196.943 458.598 194.437 458.43 192.702 458.323C190.965 458.215 188.329 458.005 186.844 457.858C181.48 457.323 177.6 456.991 175.156 456.856C173.785 456.78 171.69 456.625 170.503 456.512C167.765 456.251 162.486 456.286 160.411 456.58C159.559 456.701 158.902 456.839 158.953 456.887C159.003 456.935 159.562 457.07 160.194 457.189ZM169.294 493.558C169.596 493.548 170.787 493.434 171.938 493.306C178.663 492.552 180.444 492.257 183.443 491.404C184.295 491.161 185.815 490.732 186.823 490.451C187.829 490.17 189.393 489.719 190.298 489.45C191.201 489.181 193.046 488.734 194.398 488.457C195.748 488.18 197.708 487.682 198.752 487.352C199.796 487.021 201.267 486.599 202.022 486.415C204.322 485.855 207.025 484.982 213.537 482.699C219.491 480.612 223.747 478.931 226.109 477.734C227.152 477.207 228.33 476.349 228.264 476.167C228.195 475.972 226.403 475.992 224.197 476.212C221.711 476.459 219.263 476.882 214.724 477.844C209.381 478.976 207.059 479.742 203.217 481.642C199.679 483.39 199.062 483.659 195.206 485.142C189.357 487.392 182.47 489.582 175.815 491.309C172.433 492.186 168.872 493.298 168.775 493.505C168.757 493.544 168.99 493.568 169.294 493.558ZM173.561 494.607C175.579 494.719 179.524 494.534 182.914 494.169C185.089 493.933 189.886 493.19 191.272 492.874C196.977 491.574 199.145 490.956 203.36 489.432C205.733 488.575 208.859 487.371 210.304 486.759C211.749 486.146 213.371 485.46 213.908 485.235C214.443 485.01 215.506 484.522 216.267 484.152C217.029 483.782 218.291 483.185 219.071 482.825C220.409 482.209 222.12 481.243 222.678 480.789L222.927 480.587L222.578 480.742C220.549 481.651 218.146 482.57 215.929 483.287C214.454 483.764 212.444 484.473 211.462 484.86C209.377 485.686 205.184 487.008 202.556 487.669C201.541 487.924 199.982 488.367 199.089 488.653C198.197 488.939 196.68 489.332 195.718 489.526C192.936 490.086 190.868 490.623 184.696 492.383C181.145 493.395 178.514 493.864 173.864 494.31C173.073 494.386 172.434 494.47 172.443 494.497C172.453 494.525 172.955 494.574 173.561 494.607Z" fill="#5D7C78"/>
<path fill-rule="evenodd" clip-rule="evenodd" d="M54.9866 299.968C56.4591 298.194 56.9414 297.711 58.744 296.209C59.635 295.468 61.0006 294.212 61.7798 293.417C63.7316 291.428 66.8461 288.773 68.8592 287.382C73.6956 284.041 76.2749 281.908 78.3237 279.56C79.6454 278.045 83.9017 273.702 84.6144 273.142C86.5958 271.584 90.2118 270.382 92.7466 270.438C94.4093 270.476 95.1347 270.674 97.2886 271.679C98.385 272.191 99.8638 272.934 100.575 273.33L101.867 274.051L102.932 271.78C104.095 269.299 104.603 268.509 105.676 267.504C106.466 266.765 107.584 266.347 108.489 266.455C110.019 266.636 112.593 268.583 114.703 271.156C117.542 274.619 119.302 278.946 120.284 284.877C120.423 285.72 120.545 286.441 120.554 286.477C120.643 286.836 124.288 285.606 126.189 284.576C127.778 283.714 129.924 282.797 132.24 281.989C134.702 281.13 135.609 280.92 136.791 280.935C139.424 280.97 143.952 282.368 144.853 283.424C145.938 284.695 145.44 286.819 143.449 289.425C141.924 291.419 141.152 293.099 140.041 296.834C139.55 298.484 139.036 301.118 138.731 303.547C138.616 304.453 138.397 305.91 138.242 306.786C138.088 307.663 137.867 309.111 137.75 310.005C137.634 310.9 137.349 312.491 137.118 313.542C136.694 315.461 135.853 321.755 135.616 324.769C135.542 325.713 135.38 326.732 135.227 327.22C134.485 329.592 132.565 333.486 131.61 334.56C131.368 334.832 130.468 335.468 129.441 336.094C128.476 336.681 127.396 337.346 127.042 337.571C126.687 337.796 125.874 338.133 125.232 338.32C124.591 338.507 123.588 338.818 123.004 339.01C121.921 339.368 120.39 339.682 120.185 339.589C119.834 339.431 119.712 339.588 119.792 340.09C119.868 340.566 119.728 341.496 119.508 341.964C119.454 342.079 119.354 342.724 119.283 343.398C119.214 344.072 119.063 344.822 118.949 345.065C118.716 345.562 118.537 346.573 118.562 347.259C118.57 347.508 118.698 348.298 118.844 349.013C119.2 350.747 119.31 353.867 119.037 354.471L118.837 354.914L119.96 356.644C121.364 358.804 121.04 358.411 123.487 360.919C127.399 364.931 130.046 367.047 134.915 370.057C142.821 374.944 147.165 377.508 150.289 379.131C156.429 382.322 163.892 386.452 167.041 388.401C170.443 390.507 176.089 394.512 178.7 396.67C180.996 398.568 187.033 403.961 190.167 406.911C191.788 408.439 193.145 409.703 193.183 409.721C193.22 409.739 192.865 409.116 192.394 408.337C191.513 406.879 190.086 403.772 189.153 401.273C188.861 400.491 188.384 398.878 188.092 397.687C187.771 396.378 187.102 394.269 186.399 392.358C185.762 390.618 184.94 388.192 184.575 386.967C184.209 385.741 183.62 383.896 183.263 382.865L182.616 380.991L182.276 381.153C182.09 381.242 181.322 381.311 180.57 381.307C179.819 381.304 178.738 381.35 178.168 381.411C177.598 381.472 176.684 381.506 176.136 381.488C175.589 381.469 174.435 381.466 173.571 381.48C171.391 381.516 171.187 381.484 168.795 380.722C165.859 379.787 163.204 378.697 159.441 376.878C155.654 375.05 155.641 375.041 155.271 373.625C154.99 372.55 154.999 372.086 155.313 371.415C155.607 370.79 155.968 370.4 156.635 369.995C156.979 369.786 157.107 369.654 157.033 369.587C156.97 369.532 156.438 369.167 155.849 368.773C155.259 368.379 154.431 367.727 154.007 367.325C152.917 366.29 151.328 364.398 150.75 363.447C149.813 361.905 149.145 359.243 149.291 357.63C149.33 357.207 149.583 356.068 149.854 355.101C150.868 351.494 150.945 350.457 150.442 347.085C150.13 344.997 149.954 344.269 149.305 342.385C148.459 339.928 148.343 339.104 148.728 338.284C149.407 336.836 150.724 336.856 153.934 338.361C155.474 339.084 155.774 339.262 156.671 339.996C157.225 340.449 157.699 340.812 157.726 340.802C157.752 340.793 157.832 340.47 157.903 340.084C158.087 339.077 158.623 338.16 159.344 337.622C160.172 337.004 162.158 336.341 163.622 336.192C166.337 335.915 167.499 335.711 169.333 335.187C175.288 333.488 178.736 333.417 182.356 334.919C183.477 335.385 183.74 335.535 184.272 336.014C185.57 337.185 186.658 339.42 187.129 341.882L187.203 342.269L188.186 342.491C188.726 342.613 190.099 342.815 191.237 342.939C193.052 343.138 193.402 343.211 194.114 343.545C194.87 343.898 194.976 343.989 195.687 344.883C196.563 345.985 197.036 347.08 197.016 347.962C197 348.692 196.354 351.485 195.406 354.914C194.745 357.31 194.666 357.722 194.567 359.3C194.506 360.258 194.323 361.748 194.159 362.611C193.921 363.868 193.876 364.497 193.937 365.776C194.017 367.447 193.934 369.217 193.723 370.349C193.654 370.717 193.326 371.98 192.995 373.159C192.206 375.956 191.998 376.335 190.377 377.922C189.702 378.583 188.999 379.239 188.813 379.381C188.006 379.998 184.884 380.915 184.386 380.682C184.309 380.646 184.232 380.645 184.215 380.682C184.198 380.719 184.433 381.475 184.736 382.365C185.04 383.254 185.731 385.464 186.27 387.275C186.81 389.087 187.52 391.23 187.848 392.038C188.506 393.661 189.025 395.411 189.494 397.587C189.935 399.635 190.283 400.671 191.491 403.52C193.114 407.353 193.555 408.127 196.241 411.845C197.398 413.447 198.216 414.221 201.332 416.666C205.738 420.122 207.388 421.263 214.052 425.448C216.497 426.984 219.275 428.747 220.225 429.366C226.46 433.427 235.976 437.995 247.218 442.324C248.245 442.719 249.102 443.011 249.12 442.971C249.139 442.932 248.968 442.773 248.741 442.621C247.941 442.081 244.895 439.582 244.106 438.82C243.668 438.396 242.61 437.209 241.759 436.183C240.287 434.414 240.189 434.318 239.827 434.304C239.557 434.294 238.815 433.993 237.298 433.279C235.462 432.415 234.907 432.103 233.477 431.129C231.144 429.54 227.144 426.152 225.585 424.445C224.491 423.249 221.998 420.017 221.169 418.724C220.373 417.482 218.235 413.636 216.955 411.145C215.453 408.217 213.869 403.675 212.249 397.642C210.616 391.557 210.261 389.873 209.362 383.898C208.795 380.13 208.525 378.972 207.56 376.155C207.158 374.981 206.541 373.111 206.19 371.997C204.731 367.374 203.996 365.296 202.646 361.967C200.839 357.518 200.324 355.995 200.202 354.749C200.116 353.875 200.139 353.678 200.392 353.139C200.645 352.599 200.727 352.512 201.086 352.412C201.721 352.236 202.359 352.401 203.621 353.07C205.033 353.819 205.94 354.498 207.456 355.936C209.766 358.128 210.892 359.729 213.324 364.282C214.186 365.895 215.365 368.103 215.946 369.189C216.527 370.275 217.223 371.661 217.493 372.269C217.763 372.877 219.272 377.285 220.848 382.064C222.424 386.843 224.07 391.815 224.505 393.112C226.168 398.07 227.763 402.971 228.814 406.362C232.279 417.541 233.083 419.598 236.37 425.713C238.774 430.187 239.476 431.248 242.541 435.05C244.982 438.079 245.645 438.734 249.661 442.09C250.595 442.872 251.529 443.659 251.736 443.842C252.049 444.116 252.809 444.429 256.29 445.72C258.587 446.573 261.196 447.554 262.087 447.902C262.979 448.25 264.241 448.69 264.89 448.879C266.999 449.494 276.681 454.191 278.855 455.653C279.643 456.183 280.291 456.75 280.274 456.896C280.266 456.96 279.373 456.57 278.129 455.963C273.804 453.846 264.308 450.006 262.585 449.678C259.763 449.139 256.41 449.181 253.001 449.797L251.819 450.012L250.604 450.997C248.065 453.059 247.147 454.264 245.569 457.602C243.486 462.006 242.367 463.846 239.975 466.796C237.722 469.575 235.993 471.328 231.532 475.357C225.248 481.034 222.979 482.728 219.55 484.304C218.755 484.669 217.349 485.333 216.425 485.777C215.5 486.222 213.882 486.929 212.827 487.348C211.774 487.768 210.274 488.386 209.494 488.724C207.455 489.606 199.214 492.434 197.698 492.773C196.991 492.931 195.276 493.336 193.887 493.673C189.424 494.755 184.353 495.456 178.523 495.795C174.193 496.047 170.653 495.844 168.438 495.213C167.168 494.852 166.644 494.051 167.146 493.236C167.78 492.202 170.321 491.258 176.937 489.597C182.04 488.315 185.883 487.124 191.751 485.005C197.149 483.056 198.423 482.525 202.239 480.635C205.392 479.073 207.528 478.25 210.362 477.501C212.265 476.999 217.977 475.794 220.078 475.452C221.324 475.25 225.109 474.888 226.37 474.851C227.068 474.831 228.926 475.03 229.19 475.154C229.423 475.263 229.503 475.201 231.889 473.036C234.746 470.445 235.752 469.46 237.21 467.839C240.823 463.815 242.272 461.66 244.379 457.172C245.749 454.254 246.636 452.97 248.331 451.458C248.68 451.146 248.957 450.865 248.945 450.833C248.933 450.801 247.258 451.346 245.222 452.044C243.186 452.743 241.075 453.441 240.531 453.597C239.859 453.79 239.128 454.136 238.245 454.679C236.91 455.5 236.646 455.705 234.55 457.544C233.872 458.14 233.061 458.795 232.748 458.999C232.434 459.203 231.57 459.829 230.826 460.387C227.911 462.575 225.721 463.561 219.591 465.448C215.878 466.591 215.311 466.71 211.93 467.059C204.516 467.822 197.636 467.232 190.418 465.213C189.485 464.952 187.124 464.22 185.171 463.587C177.453 461.082 173.521 460.257 165.2 459.396C160.978 458.96 160.1 458.834 158.113 458.377C156.162 457.93 154.939 457.375 154.398 456.688C153.87 456.02 153.789 455.549 154.09 454.906C154.601 453.816 156.028 452.835 158.314 451.999C160.644 451.148 163.165 450.717 167.665 450.404C172.783 450.045 180.476 450.575 194.514 452.251C202.3 453.18 204.473 453.361 212.36 453.74C226.112 454.402 229.824 454.242 237.25 452.665C240.077 452.064 240.988 451.805 244.523 450.596C250.225 448.645 252.798 448.06 256.543 447.863L258.051 447.784L257.29 447.499C245.465 443.051 242.126 441.714 236.297 439.093C230.073 436.294 223.495 432.894 219.881 430.608C219.256 430.213 216.936 428.78 214.724 427.423C206.6 422.442 204.234 420.826 199.43 416.984C198.401 416.162 197.849 415.779 197.733 415.809C197.619 415.84 197.539 415.796 197.498 415.681C197.402 415.416 193.582 413.547 192.007 412.994C190.414 412.434 187.952 411.74 186.116 411.332C181.837 410.382 180.139 410.508 171.739 412.397C170.501 412.676 168.682 413.056 167.698 413.242C166.714 413.429 165.856 413.619 165.791 413.664C165.725 413.71 165.365 413.948 164.99 414.194C161.002 416.815 160.669 417.157 158.921 420.42C157.393 423.273 157.021 424.446 156.625 427.685C156.107 431.92 155.178 435.794 154.169 437.929C153.758 438.801 152.388 440.724 151.634 441.49C150.358 442.786 148.827 443.121 146.342 442.648C143.808 442.166 141.488 440.885 140.037 439.168C139.608 438.658 139.154 438.153 139.031 438.043C138.533 437.604 137.633 436.45 137.329 435.861L137.006 435.238L136.002 435.554C133.005 436.499 130.292 436.479 127.822 435.495C126.085 434.805 124.927 433.683 124.244 432.031C123.741 430.818 123.785 429.732 124.483 425.989C125.482 420.629 126.003 418.772 127.099 416.652C128.549 413.85 130.503 412.271 132.853 412.001L133.634 411.913L133.34 410.993C132.941 409.743 132.799 408.585 132.761 406.263C132.732 404.525 132.78 404.034 133.169 402.015C133.96 397.908 134.317 396.919 135.382 395.892C135.943 395.35 136.857 394.893 137.425 394.871C138.267 394.838 139.906 395.323 142.184 396.278C143.418 396.796 145.103 397.497 145.928 397.837C147.128 398.333 147.804 398.688 149.313 399.619C152.586 401.638 153.314 402.198 155.918 404.694C157.789 406.488 158.393 407.17 159.638 408.905C160.76 410.471 161.304 410.92 162.852 411.559C163.52 411.835 164.255 412.085 164.487 412.117C164.962 412.182 167.246 411.774 170.64 411.02C179.066 409.15 180.627 408.945 183.684 409.308C185.968 409.579 189.793 410.607 192.196 411.598C192.98 411.92 193.599 412.134 193.572 412.073C193.545 412.011 193.112 411.611 192.61 411.182C192.108 410.754 190.797 409.56 189.697 408.531C185.775 404.857 180.473 400.11 177.854 397.929C174.654 395.265 168.598 391.064 164.538 388.693C160.236 386.18 159.712 385.917 157.959 385.39C157.069 385.124 155.094 384.495 153.57 383.995C152.046 383.495 150.483 383.018 150.095 382.933C146.876 382.235 142.355 382.377 138.294 383.304C137.585 383.465 135.098 384.163 132.768 384.854C124.685 387.25 123.238 387.565 120.119 387.61C117.642 387.646 116.271 387.523 114.033 387.066C112.862 386.828 111.958 386.7 111.926 386.768C111.895 386.834 111.285 387.354 110.572 387.924C109.858 388.494 109.108 389.171 108.906 389.428C108.059 390.501 107.203 391.933 106.461 393.519C105.551 395.461 105.073 396.783 104.69 398.419C104.253 400.279 103.685 401.373 102.252 403.108C100.068 405.753 98.4665 406.888 95.466 407.92C93.7376 408.514 93.0658 408.591 90.2164 408.518C86.8969 408.434 86.6292 408.415 85.3945 408.204C83.7155 407.915 82.3964 407.281 81.5143 406.338C81.1602 405.958 80.5341 405.084 80.1235 404.395C79.2282 402.895 78.905 402.467 78.6876 402.489C78.5972 402.499 77.5348 402.711 76.3279 402.961C73.4314 403.562 72.5858 403.688 71.4043 403.696C70.4372 403.702 70.3939 403.691 69.1549 403.11C67.9054 402.524 67.8853 402.509 67.294 401.761C66.8905 401.249 66.4912 400.514 66.0627 399.492C64.7955 396.465 64.4919 395.831 63.6553 394.457C63.1872 393.688 62.0182 392.055 61.0585 390.83C58.6931 387.81 58.32 387.051 58.2662 385.143C58.2076 383.07 58.5846 381.284 59.5037 379.292C60.3109 377.54 60.7482 376.938 61.8879 376.002C63.3543 374.8 65.8548 374.082 68.5756 374.082C70.2265 374.082 71.9722 374.248 73.6316 374.56L75.0734 374.831L74.8344 374.212C74.3065 372.842 73.8523 371.032 73.8509 370.288C73.8477 369.207 74.1127 368.227 74.5351 367.755C75.0627 367.164 75.7666 367.005 78.1031 366.944C81.9399 366.845 83.7991 366.425 87.421 364.845C92.5015 362.628 96.7924 362.531 98.9912 364.583C99.6597 365.208 101.534 367.608 102.46 369.029C103.431 370.516 104.3 372.341 105.217 374.811C106.137 377.29 106.329 377.699 107.107 378.855C107.431 379.336 107.861 380.078 108.061 380.505C108.606 381.664 109.471 382.933 110.083 383.469C110.455 383.794 110.68 384.105 110.795 384.453C110.888 384.733 111.059 385.007 111.175 385.062C111.634 385.277 116.31 386.146 117.364 386.212C117.979 386.251 119.234 386.275 120.152 386.265C123.269 386.233 124.588 385.947 133.141 383.451C137.012 382.32 138.858 381.877 140.958 381.574C145.312 380.944 148.971 381.177 152.296 382.297C153.867 382.825 154.306 382.928 153.623 382.608C150.954 381.357 145.769 378.491 142.163 376.276C133.103 370.709 130.956 369.287 127.968 366.871C125.58 364.942 121.451 360.947 120.248 359.401C119.79 358.815 118.591 356.924 118.155 356.105C117.831 355.492 117.771 355.434 117.406 355.386C117.188 355.356 116.613 355.208 116.127 355.054C114.626 354.582 113.712 353.867 110.485 350.639C109.297 349.45 108.791 349.1 106.444 347.837C105.44 347.297 104.37 346.709 104.068 346.528L103.518 346.201L102.845 346.879C102.007 347.721 101.279 348.158 100.429 348.33C100.067 348.403 99.0956 348.615 98.2697 348.8C94.8235 349.574 93.2589 349.666 89.0833 349.334C87.3632 349.199 85.0721 349.053 83.9929 349.012C82.9137 348.971 81.3906 348.862 80.6084 348.772C77.9616 348.463 77.3395 348.274 71.7407 346.066C68.5293 344.799 67.512 344.443 64.8181 343.649C60.4504 342.361 57.8851 341.21 55.8317 339.62C54.4075 338.518 53.1207 337.261 52.2975 336.17C50.7646 334.138 49.0272 330.199 48.9629 328.61C48.9041 327.16 49.0203 326.617 49.6958 325.185C50.2504 324.008 50.4179 323.752 51.373 322.625C52.6897 321.072 53.9305 319.899 55.576 318.65C56.7596 317.751 56.8384 317.671 56.7006 317.487C56.6196 317.379 56.0607 316.763 55.4581 316.12C54.8555 315.477 54.2699 314.831 54.1553 314.683C53.6915 314.082 52.7222 312.217 52.5091 311.515C51.39 307.818 51.4458 306.859 52.9828 303.41L53.9722 301.19L54.9866 299.968ZM53.2012 306.388C52.9651 307.445 53.0413 308.485 53.4739 310.096C54.0551 312.257 54.7709 313.561 56.2165 315.095C56.827 315.743 57.4317 316.43 57.561 316.623C57.6902 316.817 57.8178 316.986 57.8461 317C57.8744 317.013 58.2028 316.836 58.5761 316.607C58.9498 316.378 60.0586 315.734 61.0407 315.175C62.988 314.068 63.5217 313.693 63.9003 313.167C64.1173 312.865 64.1327 312.715 64.0157 311.988C63.6829 309.9 63.7482 306.431 64.1532 304.747C64.7937 302.086 66.4395 299.329 68.5161 297.442C69.3983 296.641 71.6108 295.271 73.3046 294.479C76.0588 293.189 80.3844 291.873 87.0801 290.285C92.2459 289.062 94.9912 287.709 96.9377 285.432C97.4682 284.81 97.6845 284.437 98.4418 282.822C99.0444 281.537 99.4264 280.577 99.6409 279.807C99.8135 279.185 100.3 277.796 100.721 276.721L101.486 274.767L99.4159 273.709C95.3302 271.62 93.5571 271.213 90.7352 271.714C88.5901 272.095 86.5727 272.972 85.1474 274.141C84.2415 274.884 81.3716 277.808 79.3364 280.059C78.4671 281.021 77.2067 282.299 76.5368 282.898C75.0878 284.194 71.8689 286.69 69.4682 288.379C67.3708 289.855 64.6216 292.233 62.5552 294.357C61.7105 295.225 60.3238 296.53 59.4744 297.256C57.7827 298.701 57.2834 299.202 55.9581 300.781C55.0937 301.812 55.054 301.88 54.208 303.794C53.7326 304.87 53.2787 306.037 53.2012 306.388ZM50.4075 327.346C50.1909 328.901 50.58 330.229 52.0926 333.092C54.021 336.743 56.9779 339.243 61.2725 340.85C62.1101 341.164 63.3006 341.57 63.9189 341.751C68.5167 343.105 70.3758 343.757 75.1953 345.704C78.3096 346.963 80.0837 347.325 83.85 347.468C84.9986 347.511 87.4153 347.667 89.2211 347.814C92.8551 348.108 94.3188 348.06 96.5291 347.576C101.116 346.57 100.846 346.655 101.499 346.005C101.801 345.703 102.093 345.414 102.145 345.363C102.197 345.312 102.081 345.12 101.886 344.936C101.581 344.648 101.433 344.585 100.817 344.483C99.762 344.306 97.3849 343.346 95.8203 342.464C95.0925 342.053 94.4363 341.663 94.3611 341.597C94.1232 341.385 90.2873 339.123 88.5011 338.141C87.5505 337.619 86.4876 337 86.1399 336.768C84.3118 335.546 80.6705 332.771 76.3419 329.303C74.71 327.995 71.1329 324.614 70.0517 323.356C67.9906 320.958 65.9962 317.803 64.9285 315.247L64.458 314.121L64.0405 314.542C63.8113 314.775 62.4563 315.676 61.0291 316.547C59.6029 317.417 58.4067 318.19 58.3718 318.265C58.3374 318.338 58.2173 318.42 58.1062 318.447C57.5697 318.571 54.6984 320.912 53.469 322.227C52.9372 322.797 51.8902 324.059 51.5619 324.527C51.0788 325.219 50.5118 326.603 50.4075 327.346ZM65.6716 305.038C65.3811 306.254 65.2876 307.381 65.3185 309.322C65.3532 311.495 65.5068 312.482 66.065 314.127C67.2525 317.621 69.8459 321.316 73.6173 324.887C75.8577 327.009 76.5151 327.565 79.6139 329.961C85.224 334.299 86.8046 335.4 89.3944 336.782C91.467 337.887 94.0129 339.414 95.7818 340.613C96.5059 341.103 97.2248 341.476 98.6104 342.08C100.934 343.094 101.346 343.167 102.039 342.692C102.316 342.503 103.433 341.937 104.522 341.433C105.637 340.917 106.82 340.276 107.23 339.965C109.534 338.21 111.477 337.499 114.153 337.432C115.661 337.395 117.553 337.761 118.212 338.217L118.601 338.486L118.529 337.914C118.416 337.01 118.474 336.311 118.753 335.241C119.068 334.034 119.085 333.598 118.888 331.733C118.804 330.936 118.739 329.969 118.746 329.585C118.785 326.825 118.927 322.116 118.998 321.143C119.045 320.498 119.158 318.941 119.248 317.683C119.805 309.859 119.956 308.311 120.293 306.914C120.605 305.622 120.631 305.271 120.585 303.042C120.476 297.732 119.18 286.464 118.199 282.305C117.502 279.347 116.239 276.185 114.879 273.987C113.357 271.529 110.507 268.762 108.804 268.092C108.2 267.855 108.053 267.843 107.592 268.002C106.533 268.366 105.589 269.453 104.481 271.591C103.416 273.644 101.579 278.058 100.897 280.203C99.663 284.084 98.2579 286.331 95.9239 288.156C94.0529 289.618 91.2634 290.8 87.3513 291.785C77.1805 294.348 72.8499 295.999 69.8993 298.438C69.1142 299.087 67.7944 300.576 67.2586 301.416C66.7473 302.218 65.8634 304.233 65.6716 305.038ZM59.931 382.176C59.5385 384.27 59.6207 386.031 60.1639 387.166C60.3214 387.496 61.1431 388.645 61.9877 389.721C64.5481 392.976 65.5236 394.618 66.7249 397.7C67.945 400.828 68.3244 401.39 69.6566 402.051C70.8031 402.619 71.8774 402.551 75.8509 401.658C77.1875 401.357 79.0022 400.959 79.884 400.772C85.8665 399.505 91.0918 396.977 96.3507 392.803C97.6029 391.81 99.0517 390.564 99.5689 390.033C101.356 388.205 102.847 387.202 105.364 386.136L106.781 385.536L106.237 385.366C105.937 385.272 104.171 384.82 102.312 384.361C99.2131 383.596 95.3045 382.422 90.2416 380.738C82.0183 378.002 75.8282 376.305 72.0765 375.757C67.1692 375.042 63.7888 375.632 62.0553 377.51C61.1472 378.495 60.2538 380.457 59.931 382.176ZM74.938 370.274C74.9284 371.541 75.8726 374.896 76.2929 375.094C76.4218 375.154 77.0117 375.32 77.6036 375.462C80.2865 376.108 86.2453 377.913 90.743 379.445C97.0737 381.6 102.344 383.115 108.482 384.545L109.685 384.825L109.223 384.465C108.506 383.905 107.571 382.604 106.868 381.192C106.632 380.719 106.182 379.962 105.867 379.51C105.051 378.34 104.842 377.909 104.011 375.693C102.667 372.11 101.761 370.38 99.9635 367.963C98.1092 365.471 97.5092 364.948 96.1486 364.637C95.0485 364.384 94.1616 364.372 92.7317 364.588C91.1536 364.826 89.9464 365.205 87.6611 366.179C84.1664 367.668 82.1866 368.091 78.4584 368.144C77.2191 368.161 76.0124 368.239 75.7762 368.315C75.3832 368.441 75.3299 368.5 75.1445 369.029C75.034 369.347 74.9416 369.906 74.938 370.274ZM120.811 288.43C121.333 291.757 121.892 298.161 121.913 301.047C121.922 302.139 121.936 303.613 121.947 304.321C121.971 305.905 121.957 306.08 121.71 307.406C121.495 308.564 121.235 311.378 120.961 315.549C120.864 317.015 120.719 318.959 120.64 319.87C120.48 321.697 120.458 322.12 120.358 325.423C120.321 326.671 120.268 328.247 120.242 328.927C120.216 329.607 120.256 330.883 120.329 331.763C120.484 333.612 120.442 334.123 120.02 335.536C119.831 336.171 119.704 336.924 119.69 337.5L119.667 338.434L120.476 338.215C120.921 338.096 121.764 337.843 122.349 337.656C122.934 337.469 123.872 337.199 124.431 337.055C124.991 336.911 125.574 336.729 125.728 336.65C126.785 336.102 130.391 333.792 130.629 333.512C131.192 332.844 132.719 329.887 133.425 328.092C134.026 326.564 134.112 326.244 134.223 325.155C134.675 320.647 135.418 314.929 135.764 313.292C135.986 312.237 136.269 310.61 136.391 309.677C136.513 308.744 136.739 307.268 136.892 306.399C137.045 305.529 137.287 303.952 137.43 302.895C137.935 299.167 138.559 296.608 139.778 293.263C140.399 291.56 141.014 290.438 142.23 288.792C143.658 286.859 144.228 285.441 143.918 284.585C143.8 284.26 143.69 284.173 142.961 283.831C141.348 283.074 138.369 282.407 136.741 282.437C135.048 282.468 130.975 283.831 127.305 285.593C126.36 286.046 125.176 286.536 124.674 286.682C122.461 287.322 122.006 287.42 121.367 287.391C120.995 287.373 120.682 287.378 120.673 287.397C120.664 287.419 120.725 287.883 120.811 288.43ZM102.878 344.091C102.991 344.484 103.567 344.925 105.127 345.818C105.839 346.225 106.964 346.868 107.628 347.25C109.272 348.194 110.483 349.115 111.8 350.428C114.279 352.896 115.293 353.705 116.377 354.083C116.773 354.221 117.284 354.344 117.516 354.355C117.887 354.373 117.943 354.339 118.001 354.055C118.037 353.879 118.033 353.402 117.991 352.996C117.949 352.589 117.898 351.901 117.879 351.468C117.859 351.033 117.708 350.104 117.542 349.402C117.376 348.7 117.217 347.867 117.187 347.548C117.107 346.68 117.269 345.387 117.526 344.831C117.658 344.546 117.805 343.837 117.876 343.143C117.944 342.486 118.087 341.673 118.197 341.337C118.447 340.568 118.436 340.388 118.113 339.894C117.97 339.673 117.876 339.372 117.904 339.225C117.964 338.92 117.925 338.905 116.673 338.737C115.632 338.596 114.032 338.641 112.916 338.839C111.015 339.177 109.694 339.769 108.082 341.003C107.502 341.447 106.604 341.925 105.082 342.599C103.888 343.127 102.883 343.613 102.851 343.677C102.82 343.743 102.831 343.929 102.878 344.091ZM80.9919 403.296C82.1601 405.307 83.0037 406.18 84.1715 406.588C85.2228 406.956 86.766 407.158 88.5443 407.162C89.4262 407.163 90.6891 407.178 91.3498 407.195C92.9816 407.236 94.1366 407.041 95.5657 406.489C97.8748 405.595 99.5467 404.348 101.342 402.179C102.589 400.674 103.087 399.704 103.468 398.043C103.859 396.335 104.593 394.414 105.709 392.187C107.174 389.258 108.005 388.208 109.891 386.9L110.594 386.412L110.136 386.28C109.743 386.167 109.444 386.233 108.058 386.734C104.307 388.091 102.696 389.059 100.629 391.196C99.6608 392.196 96.1192 395.055 94.5829 396.076C92.872 397.213 89.1422 399.255 87.5397 399.932C86.0073 400.579 83.2978 401.446 81.4729 401.872C80.8999 402.006 80.4193 402.144 80.4057 402.179C80.3905 402.214 80.655 402.716 80.9919 403.296ZM149.854 339.757C149.891 339.989 150.21 341.005 150.563 342.014C151.217 343.886 151.435 344.813 151.837 347.448C152.261 350.229 152.144 351.871 151.295 355.006C151.041 355.941 150.783 357.025 150.721 357.414C150.565 358.382 150.807 359.946 151.335 361.377C151.728 362.445 151.895 362.722 152.931 364.005C154.523 365.978 155.352 366.735 157.437 368.115C159.951 369.779 161.525 370.488 168.838 373.253C172.862 374.773 175.51 375.884 178.972 377.505L181.998 378.922L181.633 377.697C180.66 374.431 179.901 372.714 178.284 370.114C176.384 367.057 174.604 364.77 171.753 361.718C169.895 359.729 168.917 358.544 167.554 356.629C167.087 355.973 166.085 354.613 165.328 353.605C163.5 351.175 162.709 350.021 161.454 347.945C159.473 344.67 158.327 343.282 155.999 341.342C154.871 340.402 154.609 340.233 153.289 339.601C150.362 338.2 149.61 338.235 149.854 339.757ZM158.802 340.895C158.803 341.731 158.926 341.989 159.749 342.882C160.654 343.866 161.059 344.442 162.64 346.995C164.019 349.223 164.711 350.202 168.387 355.125C170.649 358.153 171.282 358.915 173.419 361.164C175.848 363.722 177.713 366.182 179.757 369.518C181.427 372.244 182.088 373.779 183.257 377.661L183.392 378.107L183.607 377.506C183.726 377.174 184.055 376.265 184.34 375.486C185.225 373.061 185.758 370.956 185.976 369.033C186.085 368.064 186.246 366.79 186.334 366.199C186.654 364.072 186.622 358.253 186.278 355.736C186 353.711 185.988 353.21 186.134 349.869C186.349 344.99 186.113 342.458 185.216 339.985C184.762 338.734 184.529 338.278 184.012 337.631L183.372 336.829L182.055 336.216C178.858 334.73 175.579 334.772 169.763 336.376C167.898 336.89 166.565 337.112 164.117 337.318C162.43 337.46 160.553 338.007 159.862 338.556C159.259 339.037 158.802 340.047 158.802 340.895ZM135.096 400.241C134.927 400.969 134.66 402.252 134.502 403.093C133.925 406.175 134.198 410.368 135.049 411.488C135.303 411.823 135.317 411.827 136.254 411.818C138.095 411.802 140.639 411.918 143.604 412.155C146.176 412.359 152.055 412.671 156.245 412.825C157.872 412.884 161.066 412.745 161.094 412.612C161.107 412.555 160.908 412.368 160.651 412.199C159.915 411.712 159.205 410.94 158.264 409.602C157.223 408.122 156.284 407.084 154.402 405.335C152.603 403.665 151.286 402.678 148.888 401.206C147.043 400.072 146.789 399.947 143.491 398.536C140.76 397.367 139.776 396.992 138.83 396.76C138.171 396.598 137.525 396.472 137.396 396.477C137.137 396.491 136.42 397.008 136.064 397.437C135.756 397.809 135.465 398.652 135.096 400.241ZM127.279 420.594C126.891 421.959 125.885 426.928 125.578 428.995C125.391 430.259 125.495 431.118 125.932 431.921C126.45 432.869 127.028 433.417 128.002 433.883C130.291 434.978 133.161 434.95 136.436 433.802C137.959 433.268 138.921 432.803 141.353 431.427C145.217 429.242 147.533 427.488 150.172 424.749C151.717 423.146 153.882 421.185 156.561 418.963C157.251 418.391 158.241 417.493 158.761 416.969C159.281 416.445 160.261 415.598 160.94 415.088L162.174 414.161L161.643 414.214C159.842 414.398 157.53 414.464 155.622 414.388C149.978 414.16 145.905 413.949 143.014 413.733C136.457 413.244 132.681 413.366 131.383 414.106C130.504 414.609 129.415 415.741 128.688 416.91C128.314 417.511 127.694 419.133 127.279 420.594ZM155.991 372.128C155.96 372.531 156.325 373.802 156.572 374.153C156.879 374.591 161.556 376.826 164.366 377.88C166.385 378.636 170.203 379.815 171.292 380.017C171.55 380.064 172.484 380.099 173.367 380.091C174.249 380.084 175.391 380.102 175.906 380.132C176.419 380.161 177.38 380.137 178.041 380.077C178.702 380.016 179.601 379.975 180.038 379.983C180.475 379.992 180.823 379.974 180.812 379.944C180.756 379.79 172.178 376.151 169.06 374.959C163.572 372.861 160.894 371.752 159.243 370.895L157.734 370.11L157.319 370.39C156.531 370.918 156.033 371.572 155.991 372.128ZM138.561 435.541C138.74 435.84 139.13 436.35 139.428 436.675C142.18 439.67 141.767 439.33 143.8 440.279C145.753 441.191 146.397 441.363 147.933 441.383C149.569 441.404 150.128 441.107 151.366 439.555C153.324 437.099 154.525 433.312 155.228 427.368C155.501 425.068 155.83 423.722 156.549 421.99L157.171 420.493L156.423 421.165C156.012 421.534 155.054 422.378 154.294 423.037C153.533 423.697 152.182 424.99 151.293 425.91C149.544 427.718 147.396 429.519 145.475 430.787C144.05 431.729 140.864 433.534 139.365 434.246C138.77 434.53 138.272 434.814 138.26 434.878C138.247 434.944 138.383 435.241 138.561 435.541ZM187.506 345.092C187.571 345.931 187.575 348.115 187.515 349.946C187.431 352.467 187.456 353.657 187.616 354.849C187.987 357.602 188.039 358.37 188.058 361.513C188.076 364.381 187.853 367.334 187.364 370.698C187.215 371.722 186.385 374.688 186.04 375.432C185.888 375.758 185.658 376.378 185.528 376.81C185.218 377.842 184.772 378.796 184.459 379.095L184.207 379.336L184.887 379.295C185.591 379.254 187.58 378.627 187.991 378.317C188.121 378.221 188.78 377.582 189.458 376.897C190.659 375.683 190.698 375.629 191.051 374.736C191.249 374.231 191.658 372.928 191.959 371.84C192.575 369.611 192.744 368.079 192.648 365.583C192.611 364.588 192.664 363.835 192.824 363.111C193.057 362.061 193.244 360.675 193.456 358.424C193.54 357.531 193.748 356.595 194.227 354.953C195.041 352.163 195.664 349.624 195.786 348.603C195.908 347.573 195.644 346.776 194.826 345.701C193.936 344.532 193.392 344.284 190.846 343.884C189.825 343.724 188.61 343.457 188.148 343.29C187.319 342.992 187.305 342.992 187.345 343.278C187.368 343.437 187.44 344.254 187.506 345.092ZM202.073 356.869C202.251 357.416 203.112 359.649 203.987 361.833C204.862 364.017 205.666 366.107 205.773 366.478C206.108 367.634 207.862 373.005 208.738 375.56C209.829 378.736 210.135 380.033 210.763 384.123C211.648 389.89 211.92 391.139 213.662 397.478C214.824 401.701 216.706 407.167 217.755 409.373C218.605 411.158 221.687 416.756 222.595 418.166C223.467 419.519 225.49 422.178 226.583 423.406C227.801 424.777 232.051 428.411 234.157 429.886C236.048 431.209 237.164 431.928 237.203 431.844C237.214 431.82 237.012 431.604 236.756 431.365C235.856 430.529 229.011 421.696 228.131 420.237C227.23 418.74 226.666 417.45 225.666 414.588C224.939 412.508 224.581 411.196 224.015 408.528C223.113 404.278 223.073 404.144 221.129 398.804C219.503 394.341 218.417 391.028 217.214 386.858C216.802 385.428 216.106 383.485 215.388 381.765C214.751 380.236 214.018 378.27 213.76 377.396C213.163 375.372 211.918 372.105 211.214 370.721C210.915 370.131 210.227 368.945 209.687 368.086C209.146 367.227 208.337 365.864 207.891 365.057C207.443 364.252 206.567 362.785 205.942 361.796C205.317 360.808 204.494 359.458 204.112 358.796C203.358 357.486 202.552 356.166 201.936 355.231L201.544 354.635L201.647 355.256C201.705 355.596 201.896 356.322 202.073 356.869ZM203.079 354.63C203.176 354.721 204.092 356.174 205.115 357.862C206.139 359.549 207.289 361.423 207.674 362.024C208.057 362.625 208.714 363.732 209.134 364.483C209.553 365.234 210.349 366.563 210.903 367.437C211.455 368.309 212.131 369.448 212.404 369.967C213.139 371.359 214.245 374.176 215.066 376.747C215.464 377.995 216.263 380.123 216.84 381.476C217.559 383.159 218.192 384.947 218.845 387.131C220.218 391.726 220.77 393.376 222.706 398.653C224.48 403.485 224.745 404.401 225.637 408.779C226.07 410.9 226.355 411.873 227.357 414.642C228.667 418.267 229.314 419.514 230.945 421.575C231.883 422.76 234.785 426.582 235.696 427.832C236.482 428.914 236.415 428.75 234.919 425.944C231.905 420.291 230.978 417.919 227.649 407.359C226.762 404.542 225.205 399.818 223.172 393.768C222.736 392.47 221.339 388.275 220.068 384.446C216.186 372.75 216.131 372.61 213.82 368.42C213.175 367.253 212.221 365.481 211.7 364.483C210.486 362.157 209.363 360.35 208.345 359.084C206.989 357.4 205.001 355.582 203.356 354.522C202.968 354.273 202.774 354.35 203.079 354.63ZM155.669 455.803C155.809 455.922 155.957 455.939 156.136 455.856C156.762 455.563 161.561 454.834 162.939 454.822C167.334 454.784 169.05 454.816 170.482 454.962C171.387 455.054 173.124 455.176 174.34 455.234C175.556 455.291 177.561 455.43 178.798 455.544C180.034 455.657 182.068 455.837 183.321 455.942C184.571 456.049 186.475 456.222 187.55 456.33C188.626 456.437 191.321 456.639 193.541 456.78C195.761 456.92 198.499 457.094 199.626 457.166C200.752 457.238 202.81 457.329 204.199 457.367C205.588 457.406 207.539 457.478 208.536 457.527C211.148 457.655 212.654 457.608 215.165 457.317C216.387 457.176 218.57 456.928 220.017 456.769C222.251 456.52 225.761 455.971 225.812 455.862C225.821 455.843 225.267 455.828 224.582 455.828C221.419 455.826 217.321 455.695 212.33 455.436C203.961 455.001 201.741 454.8 194.074 453.781C184.19 452.466 176.242 451.753 171.229 451.732C168.058 451.718 163.879 452.113 161.294 452.668C158.085 453.359 154.887 455.14 155.669 455.803ZM160.194 457.189C160.826 457.308 163.204 457.61 165.478 457.86C171.832 458.559 176.189 459.31 180.091 460.376C180.994 460.624 183.38 461.366 185.391 462.025C193.143 464.568 196.756 465.422 201.656 465.869C204.89 466.166 211.218 465.944 214.814 465.409C216.266 465.192 219.839 464.138 223.355 462.889C225.952 461.965 227.877 460.931 229.755 459.45C230.341 458.987 231.191 458.351 231.642 458.035C232.093 457.72 233.028 456.951 233.721 456.326C235.593 454.638 235.506 454.758 234.701 454.976C234.318 455.078 233.411 455.383 232.688 455.653C231.361 456.145 227.531 457.189 225.431 457.63C223.793 457.973 222.646 458.136 218.857 458.56C212.724 459.247 211.885 459.291 208.23 459.133C207.196 459.088 205.074 459.011 203.514 458.964C201.954 458.916 199.594 458.795 198.269 458.698C196.943 458.598 194.437 458.43 192.702 458.323C190.965 458.215 188.329 458.005 186.844 457.858C181.48 457.323 177.6 456.991 175.156 456.856C173.785 456.78 171.69 456.625 170.503 456.512C167.765 456.251 162.486 456.286 160.411 456.58C159.559 456.701 158.902 456.839 158.953 456.887C159.003 456.935 159.562 457.07 160.194 457.189ZM169.294 493.558C169.596 493.548 170.787 493.434 171.938 493.306C178.663 492.552 180.444 492.257 183.443 491.404C184.295 491.161 185.815 490.732 186.823 490.451C187.829 490.17 189.393 489.719 190.298 489.45C191.201 489.181 193.046 488.734 194.398 488.457C195.748 488.18 197.708 487.682 198.752 487.352C199.796 487.021 201.267 486.599 202.022 486.415C204.322 485.855 207.025 484.982 213.537 482.699C219.491 480.612 223.747 478.931 226.109 477.734C227.152 477.207 228.33 476.349 228.264 476.167C228.195 475.972 226.403 475.992 224.197 476.212C221.711 476.459 219.263 476.882 214.724 477.844C209.381 478.976 207.059 479.742 203.217 481.642C199.679 483.39 199.062 483.659 195.206 485.142C189.357 487.392 182.47 489.582 175.815 491.309C172.433 492.186 168.872 493.298 168.775 493.505C168.757 493.544 168.99 493.568 169.294 493.558ZM173.561 494.607C175.579 494.719 179.524 494.534 182.914 494.169C185.089 493.933 189.886 493.19 191.272 492.874C196.977 491.574 199.145 490.956 203.36 489.432C205.733 488.575 208.859 487.371 210.304 486.759C211.749 486.146 213.371 485.46 213.908 485.235C214.443 485.01 215.506 484.522 216.267 484.152C217.029 483.782 218.291 483.185 219.071 482.825C220.409 482.209 222.12 481.243 222.678 480.789L222.927 480.587L222.578 480.742C220.549 481.651 218.146 482.57 215.929 483.287C214.454 483.764 212.444 484.473 211.462 484.86C209.377 485.686 205.184 487.008 202.556 487.669C201.541 487.924 199.982 488.367 199.089 488.653C198.197 488.939 196.68 489.332 195.718 489.526C192.936 490.086 190.868 490.623 184.696 492.383C181.145 493.395 178.514 493.864 173.864 494.31C173.073 494.386 172.434 494.47 172.443 494.497C172.453 494.525 172.955 494.574 173.561 494.607Z" fill="black" fill-opacity="0.2"/>
</g>
<defs>
<clipPath id="clip0_1_9487">
<rect width="182" height="271" fill="white" transform="matrix(-0.424573 0.905394 0.905394 0.424573 77.2739 251.5)"/>
</clipPath>
</defs>
</svg>
