<svg width="386" height="803" viewBox="0 0 386 803" fill="none" xmlns="http://www.w3.org/2000/svg">
<g clip-path="url(#clip0_9_342)">
<path d="M23.53 624.95C21.07 619.63 15.36 620.02 12.17 624.42C11.54 625.29 10.85 626.28 10.16 627.34C4.66 631.15 1.58 640.58 2.35 646.41C2.7 649.02 5.04 652.03 8.14 650.82C13.48 648.73 17.93 645.35 20.94 640.4C23.52 636.19 25.74 629.73 23.53 624.95Z" fill="#C8A898"/>
<path d="M50.35 604.15C46.69 603.27 43.26 606.37 41.01 609.28C38.83 610.97 37.38 613.81 37.4 616.47C36.93 618.61 37.1 620.75 38.77 622.18C39.34 622.67 40.08 623.05 40.84 623.05C42.33 624.1 44.17 624.59 46.14 624.16C52.85 622.67 59.78 606.42 50.35 604.15Z" fill="#C8A898"/>
<path d="M46.47 644.4C45.49 642.08 42.2 641.75 40.27 642.77C38.17 643.88 36.06 645.56 34.34 647.59C33.34 648.32 32.47 649.25 31.8 650.32C29.75 653.63 28.84 657.9 29.96 661.67C31.12 665.56 35.3 667.02 38.79 665.26C46.43 661.41 49.73 652.14 46.47 644.4Z" fill="#C8A898"/>
<path d="M14.23 678.27C10.59 674.35 5.36996 676.27 2.35996 679.87C0.0699563 682.62 -1.56004 685.98 -2.13004 689.49C-4.39004 694.07 -2.05004 700.38 2.54996 702.47C4.48996 703.35 7.02996 703.87 8.92996 702.47C12.83 699.61 15.88 695.55 16.79 690.69C17.55 686.66 17.16 681.43 14.23 678.27Z" fill="#C8A898"/>
<path d="M47.97 680.16C44.49 675.53 38.97 678.11 36.25 681.95C34 685.12 31.46 690.14 31.96 694.15C31.96 694.17 31.97 694.19 31.97 694.21C31.97 694.29 31.97 694.36 31.98 694.44C32.47 699.87 37.28 702.45 42.17 700.29C45.51 698.81 47.74 694.61 48.54 691.22C49.37 687.69 50.31 683.28 47.97 680.16Z" fill="#C8A898"/>
<path d="M78.55 635.27C78.15 631.12 75.15 627.09 70.71 626.89C66.91 626.72 63.18 629.88 63.34 633.81C63.35 634.06 63.39 634.31 63.45 634.56C62.41 638.32 62.98 642.55 65.07 645.8C67.18 649.1 72.84 649.8 74.78 645.8C76.47 642.32 78.94 639.41 78.55 635.27Z" fill="#C8A898"/>
<path d="M67.01 663.17C65.19 665.23 63.3001 668.08 62.9101 670.98C62.6101 671.35 62.3 671.73 61.99 672.15C60.24 674.46 61.55 678.42 63.97 679.7C66.54 681.06 70.05 680.43 71.52 677.72C72.57 676.15 73.2201 674.02 73.8001 672.2C74.4001 670.33 74.67 668.36 74.83 666.41C75.14 662.51 69.5601 660.29 67.01 663.17Z" fill="#C8A898"/>
</g>
<g clip-path="url(#clip1_9_342)">
<path d="M88.5588 14.7079C86.9307 11.2269 83.1515 11.4821 81.0402 14.3611C80.6233 14.9304 80.1666 15.5782 79.7099 16.2717C76.0698 18.7647 74.0313 24.9349 74.5409 28.7496C74.7726 30.4574 76.3213 32.4269 78.373 31.6351C81.9073 30.2676 84.8525 28.056 86.8446 24.8171C88.5522 22.0625 90.0215 17.8356 88.5588 14.7079Z" fill="#657150"/>
<path d="M106.309 1.09807C103.887 0.522269 101.617 2.55066 100.128 4.45472C98.685 5.56052 97.7253 7.41879 97.7385 9.15927C97.4275 10.5595 97.54 11.9598 98.6453 12.8954C99.0225 13.216 99.5123 13.4647 100.015 13.4647C101.001 14.1517 102.219 14.4723 103.523 14.191C107.964 13.216 112.551 2.58337 106.309 1.09807Z" fill="#657150"/>
<path d="M103.741 27.4345C103.093 25.9165 100.915 25.7006 99.638 26.368C98.2482 27.0943 96.8517 28.1935 95.7133 29.5218C95.0514 29.9994 94.4756 30.6079 94.0322 31.3081C92.6754 33.4739 92.0731 36.2678 92.8144 38.7346C93.5821 41.2799 96.3487 42.2352 98.6585 41.0836C103.715 38.5645 105.899 32.4989 103.741 27.4345Z" fill="#657150"/>
<path d="M82.4036 49.5963C79.9945 47.0314 76.5397 48.2877 74.5475 50.6432C73.0319 52.4426 71.9531 54.6411 71.5759 56.9378C70.0801 59.9345 71.6288 64.0633 74.6733 65.4308C75.9573 66.0066 77.6384 66.3469 78.8959 65.4308C81.4771 63.5595 83.4957 60.9029 84.098 57.7229C84.601 55.086 84.3429 51.6639 82.4036 49.5963Z" fill="#657150"/>
<path d="M104.734 50.8328C102.431 47.8033 98.7776 49.4915 96.9774 52.004C95.4883 54.0782 93.8072 57.3629 94.1381 59.9867C94.1381 59.9998 94.1447 60.0129 94.1447 60.026C94.1447 60.0783 94.1447 60.1241 94.1513 60.1765C94.4756 63.7294 97.6591 65.4176 100.896 64.0042C103.106 63.0358 104.582 60.2877 105.111 58.0696C105.661 55.7598 106.283 52.8743 104.734 50.8328Z" fill="#657150"/>
<path d="M124.974 21.4606C124.709 18.7452 122.723 16.1083 119.785 15.9774C117.27 15.8662 114.801 17.9338 114.907 20.5053C114.913 20.6689 114.94 20.8325 114.98 20.9961C114.291 23.4563 114.669 26.2241 116.052 28.3506C117.448 30.5098 121.194 30.9679 122.478 28.3506C123.597 26.0736 125.232 24.1695 124.974 21.4606Z" fill="#657150"/>
<path d="M117.336 39.716C116.131 41.0639 114.88 42.9287 114.622 44.8263C114.424 45.0684 114.219 45.317 114.013 45.5918C112.855 47.1033 113.722 49.6944 115.324 50.5319C117.025 51.4218 119.348 51.0096 120.321 49.2364C121.016 48.2091 121.446 46.8154 121.83 45.6245C122.227 44.401 122.406 43.1119 122.511 41.836C122.717 39.2842 119.024 37.8316 117.336 39.716Z" fill="#657150"/>
</g>
<g clip-path="url(#clip2_9_342)">
<path d="M-7.8759 599.129C-4.0007 598.228 -0.349588 596.643 3.34685 595.151C7.12094 593.629 10.8652 592.014 14.5641 590.305C21.993 586.872 29.1811 582.863 36.171 578.62C36.747 578.27 37.3077 577.904 37.8837 577.554C38.0543 577.51 38.2245 577.496 38.4107 577.436C39.8221 577.034 41.2487 576.663 42.6746 576.338C45.1858 575.747 47.7422 575.265 50.2975 574.876C53.3019 574.414 56.3049 574.077 59.3376 573.848C59.3355 574.034 59.3797 574.22 59.5014 574.392C60.8259 576.19 62.7307 577.25 64.6983 578.233C66.9425 579.359 69.25 580.362 71.6053 581.241C76.0697 582.888 80.6782 584.103 85.3855 584.792C90.1855 585.482 95.0836 585.709 99.925 585.485C104.179 585.286 108.59 584.794 112.401 582.745C118.468 579.483 122.222 570.212 115.817 565.242C112.722 562.836 108.568 562.386 104.8 562.048C100.136 561.638 95.4369 561.569 90.7498 561.825C85.3354 562.135 79.9311 562.91 74.6456 564.121C72.1965 564.682 69.7619 565.336 67.3417 566.083C66.1005 566.471 64.8589 566.891 63.6326 567.327C62.2356 567.822 61.2373 568.601 60.0217 569.455C59.6477 569.714 59.5958 570.194 59.7616 570.568C56.3588 570.715 52.9697 571.017 49.5936 571.536C48.5096 571.694 47.4406 571.899 46.3717 572.088C56.6385 565.186 66.4031 557.58 75.6187 549.317C77.2119 547.894 78.7744 546.44 80.3217 544.97C80.5218 545.05 80.7379 545.083 80.9548 545.039C83.033 544.458 84.9042 543.054 86.9382 542.287C89.3295 541.369 91.766 540.545 94.2025 539.736C97.5233 538.642 100.874 537.642 104.239 536.72C105.45 537.633 107.01 537.728 108.57 537.932C111.117 538.255 113.68 538.548 116.243 538.763C120.985 539.159 125.791 539.322 130.527 538.818C138.375 538.009 146.287 535.543 152.558 530.624C155.444 528.364 158.321 525.545 157.377 521.552C156.477 517.761 153.076 515.118 149.661 513.638C142.107 510.375 133.492 512.089 126.507 515.93C122.322 518.222 118.593 521.217 115.017 524.369C113.158 526.021 111.33 527.72 109.41 529.294C107.709 530.701 106.058 531.828 104.632 533.439C100.43 534.569 96.242 535.776 92.114 537.155C90.1431 537.814 88.172 538.489 86.2311 539.226C97.9129 527.551 108.524 514.841 117.894 501.249C119.752 500.976 121.476 500.299 123.339 499.576C125.994 498.553 128.62 497.451 131.199 496.272C133.935 495.017 136.609 493.684 139.253 492.258C141.18 492.729 143.024 492.363 145.069 491.968C147.672 491.471 150.245 490.88 152.789 490.165C157.225 488.899 161.481 487.088 165.42 484.669C172.862 480.136 179.803 473.397 183.696 465.507C185.406 462.024 186.52 457.869 185.389 454.044C184.853 452.255 183.775 450.523 182.257 449.405C180.187 447.894 177.941 448.318 175.645 448.973C166.742 451.583 159.778 457.609 154.345 464.955C151.362 468.965 148.777 473.259 146.009 477.412C144.625 479.488 143.194 481.548 141.672 483.514C140.103 485.526 137.996 487.3 136.918 489.627C136.902 489.643 136.902 489.674 136.902 489.689C134.631 490.888 132.315 492.023 129.983 493.097C127.59 494.201 125.151 495.227 122.698 496.175C122.092 496.416 121.471 496.626 120.881 496.852C126.073 488.992 130.865 480.88 135.212 472.515C136.951 469.172 138.629 465.782 140.245 462.329C143.469 460.259 146.271 457.207 148.715 454.353C151.645 450.93 154.177 447.194 156.371 443.267C161.089 434.844 165.251 425.098 165.27 415.304C165.281 410.346 163.867 405.556 162.344 400.874C161.806 399.21 161.084 397.497 159.187 397.073C157.321 396.664 155.576 397.837 154.386 399.172C152.914 400.813 152.1 403.035 151.196 405.009C150.149 407.337 149.164 409.696 148.286 412.073C146.452 416.995 144.941 422.061 143.785 427.193C142.514 432.85 141.815 438.56 141.224 444.318C140.912 447.274 140.584 450.246 139.994 453.168C139.781 454.204 139.538 455.224 139.294 456.244C137.913 459.389 136.471 462.519 134.951 465.616C127.845 480.055 119.416 493.828 109.808 506.72C109.745 506.797 109.682 506.874 109.619 506.966C110.086 505.391 110.506 503.799 110.941 502.255C112.409 496.91 113.723 491.516 114.651 486.057C114.817 485.051 114.983 484.046 115.118 483.04C115.352 482.903 115.494 482.657 115.482 482.331C115.485 482.068 115.457 481.835 115.413 481.602C117.306 480.958 118.085 479.091 118.986 477.382C120.092 475.256 121.045 473.051 121.828 470.797C123.315 466.552 124.308 462.116 124.638 457.626C125.264 448.862 123.834 440.059 117.446 433.617C114.756 430.905 110.556 427.711 106.516 428.146C102.693 428.551 99.8124 431.726 98.0753 434.93C93.9531 442.553 95.6844 452.042 98.5643 459.761C100.259 464.305 102.451 468.669 105.048 472.775C106.414 474.944 107.906 477.022 109.506 479.024C110.253 479.947 111.013 481.056 111.931 481.903C111.2 487.66 110.053 493.365 108.644 498.99C107.509 503.579 105.925 508.241 105.021 512.942C93.3817 527.685 80.2255 541.218 65.8033 553.249C66.4504 552.095 67.0514 550.908 67.6524 549.722C69.1394 546.764 70.4115 543.679 71.6064 540.578C73.9644 534.452 75.8454 528.136 77.233 521.705C77.2986 521.38 77.3643 521.04 77.4299 520.715C77.5075 520.685 77.5851 520.655 77.6631 520.594C83.7955 515.628 87.3509 507.548 88.5982 499.861C89.863 492.003 88.8761 483.67 85.3249 476.516C81.94 469.69 74.615 462.679 66.7219 467.502C58.7975 472.354 59.3472 482.418 61.5769 490.223C63.0784 495.462 64.9207 500.644 66.8879 505.718C67.9092 508.333 68.9618 510.918 70.1541 513.457C71.2858 515.888 72.6381 517.949 74.1907 520.074C74.1091 520.445 74.0585 520.816 73.977 521.187C72.6212 527.541 70.7565 533.78 68.4147 539.844C67.2197 542.945 65.8402 545.966 64.4607 548.988C63.2082 551.717 61.8334 554.32 60.9503 557.192C54.1792 562.585 47.149 567.65 39.8756 572.355C38.8322 573.025 37.7736 573.663 36.7304 574.318C35.659 574.724 34.8021 575.303 33.7435 575.942C33.5412 576.064 33.4467 576.217 33.3674 576.387C30.9234 577.862 28.4492 579.275 25.9599 580.657C27.4466 579.078 28.872 577.451 30.2057 575.731C33.7832 571.123 36.9163 566.169 39.5574 560.977C39.6654 560.993 39.7891 560.995 39.8978 560.95C43.6525 559.768 46.6517 555.711 48.9896 552.701C51.4998 549.491 53.6121 545.935 55.2932 542.22C58.8139 534.465 60.6344 525.327 57.4195 517.155C55.151 511.395 47.7552 502.462 40.736 506.566C37.9035 508.223 36.5367 511.477 35.6828 514.504C34.4584 518.829 33.804 523.331 33.5518 527.807C33.2777 532.856 33.5444 537.926 34.3997 542.895C34.8347 545.41 35.5025 547.851 36.0926 550.322C36.6678 552.746 36.7935 555.273 36.8423 557.769C36.8545 558.048 36.9761 558.235 37.1447 558.361C37.0024 558.638 36.8754 558.931 36.7329 559.224C34.1857 564.309 31.1623 569.14 27.6941 573.657C25.9522 575.915 24.1027 578.125 22.2232 580.258C21.0172 581.623 19.2228 583.075 18.2911 584.784C17.6535 585.118 17.0156 585.467 16.378 585.801C12.4278 587.848 8.44731 589.848 4.40639 591.723C0.19454 593.674 -4.21365 595.22 -8.30414 597.373C-9.05195 597.876 -8.91439 599.366 -7.8759 599.129Z" fill="#A5AA9C"/>
</g>
<g clip-path="url(#clip3_9_342)">
<path d="M340.507 641.117C326.471 635.122 311.325 633.041 296.138 633.699C280.441 634.376 265.024 637.862 249.813 641.625C244.139 643.033 238.481 644.46 232.831 645.98C226.423 646.436 220.055 647.369 213.709 648.432C209.16 649.179 204.635 650.038 200.118 650.988C199.104 650.952 198.089 650.934 197.073 650.916C216.568 640.926 235.962 630.362 252.442 615.796C257.582 611.242 262.381 606.307 266.714 600.976C267.592 599.907 266.855 597.974 265.326 598.174C239.267 601.444 217.471 618.146 199.928 636.686C194.415 642.508 188.909 648.44 184.015 654.765C167.696 658.863 151.602 663.912 135.851 669.834C137.408 668.693 138.948 667.55 140.486 666.425C146.232 662.154 151.801 657.665 157.212 652.958C168.135 643.447 178.312 633.092 187.608 621.989C192.923 615.637 197.936 609.052 202.645 602.253C203.482 601.053 202.824 599.402 201.258 599.433C185.308 599.756 170.636 609.664 158.579 619.253C145.469 629.674 134.07 642.26 125.069 656.375C122.532 660.372 120.2 664.501 118.075 668.725C116.393 672.033 114.747 675.345 113.659 678.88C95.9634 686.665 78.7606 695.611 62.206 705.625C64.6565 703.109 67.0588 700.532 69.4234 697.969C74.6888 692.248 79.7362 686.357 84.5674 680.28C94.1683 668.192 102.901 655.393 110.69 642.075C115.097 634.535 119.178 626.814 122.967 618.936C123.482 617.864 122.635 616.283 121.321 616.506C106.079 619.03 93.581 628.663 83.6845 640.119C72.2307 653.389 62.9284 669.126 56.0412 685.212C53.982 690.006 52.2006 694.92 50.6848 699.9C49.1728 704.844 47.8065 709.785 47.4882 714.947C43.3628 717.666 39.3035 720.446 35.2724 723.302C27.8767 728.559 20.6555 734.052 13.5946 739.744C15.6367 736.293 17.6287 732.8 19.5329 729.28C23.5871 721.811 27.2635 714.138 30.6961 706.366C37.5159 690.909 43.1747 674.926 47.6154 658.614C50.137 649.345 52.359 639.989 54.1358 630.55C54.3375 629.518 53.1998 628.269 52.1246 628.807C44.5497 632.518 38.9711 638.788 34.0544 645.492C28.5819 652.972 23.6995 660.879 19.4867 669.148C15.1609 677.623 11.5586 686.467 8.69525 695.536C6.16508 703.532 4.06271 711.774 3.21759 720.15C2.402 728.421 2.90333 736.779 6.01562 744.509C5.86095 744.765 5.72232 745.041 5.58562 745.298C4.49255 745.326 4.0259 746.457 4.30082 747.45C2.44142 749.031 0.598046 750.632 -1.2293 752.253C-5.20415 755.769 -9.28483 759.255 -12.8493 763.179C-14.3116 764.785 -12.0492 767.571 -10.2771 766.126C-4.04192 761.018 1.77452 755.41 7.84745 750.12C11.1949 751.77 14.919 752.788 18.509 753.7C23.2312 754.898 28.0536 755.67 32.8889 756.153C42.4376 757.07 52.0719 756.85 61.6185 756.095C79.8322 754.653 98.247 752.015 115.625 746.177C125.256 742.942 134.492 738.482 142.943 732.867C144.508 731.835 143.881 729.551 142.182 729.133C107.088 720.276 69.4709 721.887 35.3132 733.918C30.6313 735.559 26.0179 737.408 21.4771 739.428C20.9613 739.663 20.4455 739.899 19.9297 740.134C24.0212 736.885 28.1768 733.715 32.3787 730.623C39.3997 725.472 46.5611 720.535 53.8648 715.796C90.6168 715.472 127.349 713.13 163.839 708.654C168.626 708.06 173.454 707.597 178.202 706.69C182.542 705.866 186.808 704.543 190.209 701.638C191.249 700.75 191.642 698.612 189.978 698.033C156.461 686.166 119.46 685.936 85.7118 697.029C100.457 689.146 115.656 682.111 131.199 675.931C132.003 676.398 132.836 676.76 133.898 677.02C135.683 677.484 137.472 677.913 139.279 678.343C142.877 679.183 146.48 679.97 150.094 680.667C157.228 682.069 164.394 683.184 171.604 684.049C186.079 685.786 200.688 686.446 215.271 685.995C223.564 685.741 231.845 685.104 240.086 684.154C241.043 684.039 242.103 683.135 241.892 682.058C241.14 678.234 237.803 676.822 234.339 675.923C230.291 674.871 226.234 673.908 222.153 672.997C213.868 671.144 205.498 669.573 197.06 668.467C182.921 666.64 168.544 666.023 154.346 667.46C163.298 664.46 172.329 661.741 181.454 659.323C185.699 658.198 189.989 657.169 194.256 656.173C200.97 658.784 208.005 660.612 214.883 662.713C222.621 665.089 230.378 667.466 238.117 669.842C250.517 673.645 263.703 677.06 276.491 673.018C278.051 672.532 278.191 670.221 276.72 669.536C257.021 660.279 235.813 654.24 214.169 651.934C217.157 651.346 220.139 650.813 223.124 650.261C223.244 650.328 223.403 650.364 223.569 650.345C224.933 650.165 226.284 649.928 227.634 649.71C227.652 649.712 227.67 649.714 227.686 649.733C228.123 649.889 228.506 649.876 228.961 649.87C229.599 649.848 230.204 649.804 230.846 649.746C232.038 649.638 233.243 649.585 234.432 649.677C235.659 649.754 236.845 650.045 238.067 650.176C239.073 650.284 240.031 650.496 240.971 650.197C247.542 651.103 254.254 651.024 260.863 651.57C268.138 652.17 275.391 652.985 282.648 653.583C295.453 654.631 308.36 654.891 321.002 652.214C327.937 650.742 334.609 648.333 340.672 644.66C342.027 643.879 341.914 641.722 340.507 641.117ZM17.6432 724.207C15.438 728.331 13.1809 732.432 10.8378 736.486C9.83469 738.214 8.7617 739.916 7.72462 741.621C3.73894 727.983 6.58006 713.37 10.4889 699.98C15.5522 682.608 23.4589 665.995 33.7758 651.131C38.3775 644.484 43.5028 637.53 50.4729 633.191C44.0818 664.957 32.9371 695.65 17.6432 724.207ZM20.9881 742.628C25.083 740.869 29.2325 739.28 33.4403 737.824C41.8161 734.944 50.4015 732.649 59.117 731.005C76.5858 727.703 94.3735 726.506 112.116 728.102C120.321 728.838 128.463 730.167 136.497 731.993C122.708 740.106 107.08 744.878 91.4312 747.813C82.7176 749.439 73.8945 750.563 65.0664 751.396C55.6699 752.276 46.1702 752.764 36.7561 752.117C31.5443 751.757 26.369 751.056 21.278 749.909C17.9259 749.149 14.7201 748.042 11.4925 746.968C11.5124 746.952 11.5323 746.936 11.572 746.904C14.7169 745.534 17.8073 743.994 20.9881 742.628ZM50.9293 711.664C50.7445 711.863 50.6315 712.069 50.5725 712.28C50.3639 712.53 50.2234 712.824 50.1707 713.146C50.0533 713.224 49.9359 713.302 49.8005 713.378C50.8354 710.001 51.6767 706.566 52.6776 703.167C54.0157 698.659 55.6013 694.214 57.3947 689.864C60.8924 681.317 65.0834 673.082 69.8202 665.178C77.6759 652.084 86.8941 638.992 99.2584 629.763C105.006 625.474 111.431 622.148 118.387 620.479C105.293 646.819 88.638 671.305 68.9089 693.117C63.1333 699.529 56.8832 705.454 50.9293 711.664ZM106.029 695.287C123.55 692.171 141.646 691.825 159.237 694.496C167.745 695.791 176.163 697.767 184.34 700.462C178.428 703.407 170.93 703.529 164.633 704.306C155.63 705.411 146.605 706.386 137.557 707.231C119.369 708.948 101.122 710.186 82.8562 710.932C75.4105 711.241 67.9784 711.424 60.5341 711.551C62.5403 710.295 64.5625 709.058 66.6008 707.842C71.0698 705.814 75.585 703.864 80.2528 702.185C88.6441 699.161 97.2673 696.853 106.029 695.287ZM120.937 675.737C119.682 676.256 118.445 676.778 117.188 677.315C118.091 675.504 118.942 673.669 119.863 671.86C121.705 668.242 123.685 664.694 125.819 661.234C130.112 654.245 134.932 647.604 140.287 641.383C150.791 629.174 163.333 618.455 177.328 610.455C183.716 606.798 190.604 603.904 197.926 603.055C181.941 625.36 162.651 645.275 140.777 661.859C134.327 666.763 127.493 671.026 120.937 675.737ZM166.961 670.104C182.802 669.952 198.601 672.049 214.106 675.186C218.426 676.068 222.721 677.019 226.987 678.059C229.112 678.578 231.236 679.097 233.357 679.652C234.118 679.842 235.324 680.117 236.327 680.588C208.868 683.363 181.04 682.301 153.9 677.369C149.925 676.652 145.979 675.846 142.041 674.951C140.392 674.574 138.719 674.085 137.058 673.652C137.759 673.382 138.478 673.114 139.179 672.845C140.852 672.497 142.52 672.186 144.219 671.932C151.763 670.871 159.323 670.175 166.961 670.104ZM192.675 649.244C195.045 646.628 197.397 644.009 199.833 641.455C204.605 636.443 209.492 631.535 214.69 626.951C223.962 618.77 234.325 611.598 245.79 606.851C250.772 604.787 255.917 603.232 261.201 602.237C246.252 619.129 226.838 631.236 207.064 641.795C202.304 644.336 197.499 646.782 192.675 649.244ZM270.047 670.6C259.31 672.118 248.213 668.873 237.984 665.83C230.519 663.611 223.058 661.356 215.613 659.121C210.757 657.655 205.915 656.045 201.011 654.682C201.196 654.647 201.384 654.595 201.569 654.56C225.152 655.567 248.497 660.981 270.047 670.6ZM262.438 647.397C254.875 646.766 246.906 645.856 239.464 647.655C239.324 647.604 239.186 647.534 239.046 647.483C249.246 645.217 259.353 642.45 269.592 640.497C284.431 637.657 299.716 636.082 314.788 638.01C321.652 638.892 328.382 640.505 334.773 643.082C312.182 653.647 286.547 649.423 262.438 647.397Z" fill="#E6D1C7"/>
</g>
<g clip-path="url(#clip4_9_342)">
<path d="M-23.1142 502.49C-20.3943 494.098 -17.5263 485.808 -14.485 477.616C2.97458 486.296 22.4969 489.423 41.7832 485.75C64.5576 481.425 84.2199 467.863 106.173 460.99C107.206 460.675 107.45 458.999 106.357 458.547C88.9895 451.535 66.7927 446.66 45.4717 447.381C64.5714 430.11 80.3825 409.984 93.237 387.693C93.6726 386.941 92.9922 385.897 92.1288 386.001C91.7223 386.048 91.3454 386.115 90.9388 386.163C90.8409 386.051 90.6721 385.977 90.5053 386.059C90.3887 386.132 90.2972 386.2 90.1761 386.248C52.0067 390.929 16.2275 414.255 -2.36711 447.761C8.54483 423.176 21.4547 399.606 37.2845 377.274C38.4435 375.64 39.6663 374.073 40.8343 372.489C41.2473 372.622 41.7292 372.562 42.0977 372.159C57.6848 356.271 80.5776 347.985 101.167 340.735C105.002 358.187 113.665 376.948 128.761 377.527C129.752 377.556 130.75 377.48 131.73 377.304C135.762 391.663 150.989 422.565 170.523 410.166C174.641 407.534 177.448 404.387 182.282 403C182.972 402.798 190.448 402.828 192.649 401.94C195.576 400.767 196.55 400.41 198.146 397.454C202.458 389.553 199.225 379.068 194.67 371.904C198.073 372.511 201.427 372.556 204.738 371.78C227.215 366.523 210.687 342.385 222.095 329.943C231.395 319.772 233.411 309.484 230.693 300.565C240.39 309.785 251.315 316.452 264.103 321.074C264.993 321.406 266.268 320.711 265.835 319.597C258.17 300.76 247.836 283.232 234.556 267.788C224.228 255.779 211.186 241.511 193.891 243.996C193.768 243.889 193.67 243.777 193.547 243.669C213.742 240.87 233.482 242.61 253.027 248.169C253.054 248.319 253.106 248.465 253.179 248.582C253.213 248.627 253.247 248.673 253.256 248.723C252.127 249.367 252.759 251.3 254.037 250.76C254.183 250.708 254.329 250.656 254.446 250.583C263.604 265.031 276.173 276.948 291.144 285.35C309.864 295.851 332.451 296.691 350.283 308.596C351.197 309.209 352.462 308.022 352.081 307.054C344.833 288.946 336.294 270.007 319.525 258.818C317.934 257.757 316.285 256.809 314.62 255.916C327.617 254.773 339.575 250.733 350.872 243.883C351.572 243.446 351.462 242.403 350.773 242.034C318.719 225.17 282.383 218.689 254.425 246.57C253.971 246.496 253.546 246.728 253.273 247.088C239.194 242.206 224.82 240.02 210.255 240.227C223.889 239.746 237.731 238.685 250.424 233.398C263.426 227.952 273.753 218.296 283.994 208.889C284.774 208.178 284.003 206.917 283.08 206.979C253.555 208.527 219.518 213.683 201.56 240.053C201.42 240.285 201.511 240.502 201.689 240.625C198.259 240.879 194.797 241.242 191.336 241.76C191.311 241.764 191.265 241.799 191.24 241.803C188.931 240.067 186.427 238.547 184.111 236.916C176.13 231.327 175.798 226.593 171.573 218.67C164.538 205.499 147.426 211.606 138.463 219.462C121.947 233.936 115.112 257.969 115.192 279.491C111.132 282.734 107.87 287.389 105.349 292.558C95.1381 305.018 84.4004 317.003 73.7264 329.054C79.9203 304.772 83.5145 280.025 84.723 255.137C84.7391 255.082 84.7893 255.073 84.7758 254.998C84.7668 254.947 84.7829 254.893 84.7739 254.843C85.0181 254.902 85.308 254.928 85.5663 254.778C120.478 235.573 133.49 197.705 138.047 160.268C138.058 160.188 138.07 160.109 138.081 160.029C138.119 159.659 138.181 159.285 138.219 158.916C138.321 158.042 137.448 157.37 136.652 157.849C109.477 174.783 90.5507 202.544 85.1088 233.61C84.9879 218.212 83.9307 202.8 81.9761 187.447C82.0174 187.388 82.0586 187.328 82.0998 187.269C82.4542 187.076 82.6764 186.725 82.7344 186.326C107.798 148.547 81.9869 104.645 56.9151 74.242C56.8674 74.121 56.8197 74 56.7721 73.879C56.6335 73.5411 56.3623 73.3307 56.0885 73.2503C55.9222 73.0469 55.7515 72.8184 55.5602 72.6196C54.8997 71.8312 53.3174 71.8305 53.1525 73.0781C50.053 95.093 48.2433 118.224 50.1228 140.666C37.7072 127.865 21.4467 122.105 4.64894 116.675C3.60392 116.345 3.01188 117.669 3.43713 118.448C19.6835 147.949 39.1364 192.553 80.3068 187.54C80.3861 187.836 80.5864 188.085 80.8854 188.161C83.1959 211.847 83.4151 235.443 81.7144 258.891C72.3553 229.033 48.5511 206.695 24.9641 187.299C24.082 186.576 22.7677 187.201 22.7903 188.337C23.3947 211.189 24.6834 234.385 37.1225 254.101C23.7167 243.008 8.49403 233.64 -5.64362 225.115C-6.48956 224.593 -7.8071 225.633 -7.35027 226.587C10.9008 264.358 22.0364 319.838 69.8092 330.639C70.268 330.738 70.6249 330.414 70.7376 330.031C70.679 330.716 71.1004 331.184 71.6687 331.315C57.3366 347.548 43.2668 363.941 30.9836 381.904C17.468 401.67 5.3582 422.764 -4.75107 444.743C-2.35375 424.305 5.15147 404.868 6.74536 384.29C8.14606 366.39 0.347944 353.304 -1.96363 336.252C-2.16147 334.863 -4.04861 334.321 -4.7663 335.668C-24.1082 372.522 -30.6255 416.946 -8.97334 454.157C-15.6617 469.768 -21.296 485.759 -25.6591 502.041C-25.8839 503.532 -23.5787 503.947 -23.1142 502.49ZM337.862 299.088C326.104 294.566 313.522 292.68 301.909 287.666C290.41 282.709 279.843 275.433 270.944 266.614C269.962 265.625 257.015 251.598 257.706 250.826C257.834 250.674 269.62 258.093 270.927 258.869C282.583 266 294.006 273.563 305.885 280.343C318.08 287.3 334.391 291.03 343.84 301.901C341.315 300.696 338.448 299.319 337.862 299.088ZM346.197 244.282C345.336 250.605 317.69 253.654 311.27 254.16C297.276 247.733 281.282 246.487 265.799 246.496C291.903 238.903 318.925 242.34 346.11 243.65C346.15 243.876 346.216 244.097 346.197 244.282ZM318.078 230.986C322.174 231.987 341.822 237.112 345.539 242.353C316.405 238.854 286.03 235.812 258.27 246.604C257.83 246.606 257.393 246.632 256.978 246.629C274.055 232.391 295.971 225.603 318.078 230.986ZM260.335 248.281C290.489 249.082 319.254 252.544 336.894 280.706C340.243 286.065 345.587 293.579 346.496 299.791C346.633 300.699 348.53 303.313 347.839 303.8C347.839 303.8 347.556 303.669 347.13 303.461C347.148 303.276 347.112 303.075 346.971 302.867C337.378 289.897 320.176 286.405 306.678 278.697C290.319 269.353 274.901 258.466 258.676 248.864C259.266 248.68 259.8 248.48 260.335 248.281ZM269.721 218.813C261.312 225.714 252.24 231.232 241.65 234.223C240.713 234.495 209.635 237.643 209.337 238.292C209.766 237.36 218.765 234.033 219.028 233.908C224.408 231.516 229.811 229.249 235.368 227.266C250.361 221.929 266.394 219.929 278.946 209.666C279.608 211.62 268.546 219.776 269.721 218.813ZM202.443 240.49C218.15 223.103 237.799 214.519 260.799 211.164C263.2 210.811 272.633 208.597 276.947 208.937C266.602 217.041 254.308 219.354 241.944 223.156C229.062 227.103 216.881 232.79 204.71 238.528C203.8 238.95 203.948 240.349 205.06 240.331C204.183 240.359 203.315 240.437 202.443 240.49ZM61.9679 84.6074C65.6288 89.3918 69.1777 94.2742 72.452 99.3613C88.851 124.948 96.548 155.803 82.2517 183.64C72.4048 150.345 71.5016 115.004 60.1078 82.1946C60.6451 82.8755 61.2553 83.6729 61.9679 84.6074ZM52.7377 135.298C51.9132 119.016 52.3629 102.608 54.196 86.3925C54.7995 80.9455 55.2524 78.5577 56.51 78.7723C65.6009 102.951 68.4849 128.529 73.0363 153.86C73.97 159.057 74.954 164.244 76.1094 169.375C77.5721 175.928 82.8871 186.454 70.8944 182.648C53.9549 177.295 53.4321 149.556 52.7377 135.298ZM17.7028 139.234C15.1397 134.641 12.0631 129.933 10.0257 125.091C8.80148 122.175 8.7338 120.787 9.40835 120.355C24.4237 133.621 38.6066 147.451 51.2877 163.029C52.0551 163.979 53.7083 162.931 52.9113 161.959C40.4305 146.631 26.6161 132.398 10.9817 120.306C13.0743 120.837 16.5496 122.856 19.974 124.158C31.5633 128.607 42.0537 134.444 50.5294 143.651C50.9245 147.726 51.4156 151.758 52.0871 155.784C54.309 169.016 60.7998 181.611 72.9652 185.801C46.8726 183.207 30.013 161.409 17.7028 139.234ZM132.411 183.905C130.309 192.99 127.407 201.96 123.479 210.414C118.338 221.497 111.371 231.949 102.392 240.3C100.994 241.614 88.8791 251.85 88.1723 250.371C87.0132 247.961 94.7434 236.129 96.021 233.567C107.998 209.568 121.437 186.343 135.929 163.784C137.53 166.632 133.071 180.936 132.411 183.905ZM110.816 183.82C114.188 179.638 128.487 163.074 134.189 162.905C115.651 191.244 99.2278 220.81 85.0734 251.601C86.7245 226.866 95.1225 203.303 110.816 183.82ZM192.936 371.49C199.782 383.321 200.334 395.195 185.714 399.869C181.3 401.284 178.216 402.02 174.145 404.047C165.198 408.531 156.809 410.635 148.363 403.471C140.527 396.819 136.644 386.321 133.637 376.806C139.311 375.035 144.096 370.055 146.195 364.702C146.248 364.563 146.276 364.428 146.329 364.289C148.964 371.02 152.562 377.474 157.018 383.075C154.818 383.963 153.835 387.301 154.21 389.385C154.814 392.749 158.16 394.48 161.361 393.386C164.663 392.275 166.783 388.628 165.256 385.327C163.997 382.65 160.679 380.784 157.757 381.698C153.565 375.117 150.032 368.444 147.242 361.145C148.168 356.625 147.579 352.195 146.121 347.974C147.967 348.29 149.948 347.623 151.052 345.973C151.114 346.17 151.246 346.327 151.424 346.451C162.516 353.762 177.878 367.95 192.936 371.49ZM163.046 385.439C164.463 387.698 163.304 390.342 160.877 391.271C158.743 392.095 156.535 391.066 156.316 388.695C156.109 386.53 157.296 385.487 158.89 384.397C159.514 383.974 159.258 383.269 158.717 383.003C160.427 383.136 162.06 383.853 163.046 385.439ZM229.539 304.971C230.73 314.916 226.839 320.979 220.261 327.966C217.54 330.865 215.02 332.433 213.899 336.444C212.93 339.857 213.715 343.5 214.223 346.907C215.903 358.708 211.67 370.664 197.222 369.217C181.715 367.649 165.251 352.959 152.343 344.783C152.106 344.618 151.871 344.608 151.674 344.67C152.026 343.311 151.706 341.813 150.923 340.632C154.127 341.145 157.54 339.495 158.709 336.331C158.831 335.998 158.903 335.674 158.97 335.325C166.896 339.887 175.286 342.552 184.319 343.598C184.061 346.495 186.051 349.196 188.901 349.902C191.966 350.647 194.684 348.448 195.297 345.513C195.911 342.578 194.311 339.445 191.191 338.969C188.68 338.565 185.667 339.987 184.872 342.488C184.705 342.57 184.568 342.673 184.469 342.846C175.41 341.364 166.925 338.172 159.001 333.479C158.786 331.419 157.608 329.48 155.868 328.315C158.862 328.088 161.624 325.7 162.009 322.65C162.458 318.942 159.472 315.746 155.902 315.507C155.322 315.456 155.304 316.366 155.842 316.476C158.608 317.146 160.975 319.778 160.42 322.755C159.882 325.676 157.154 327.099 154.396 327.05C153.981 327.047 153.818 327.44 153.906 327.786C153.666 328.037 153.608 328.436 154.034 328.645C156.698 329.902 158.491 332.949 157.407 335.865C156.322 338.781 153.077 340.064 150.195 339.182C149.757 339.054 149.505 339.384 149.493 339.749C149.344 339.931 149.289 340.2 149.51 340.42C152.476 343.359 149.308 348.101 145.573 346.517C144.1 342.791 142.007 339.228 139.77 335.872C138.271 322.044 150.131 311.827 150.307 298.371C150.382 298.358 150.487 298.365 150.553 298.301C152.422 296.721 155.533 296.422 157.291 298.412C159.309 300.693 157.871 303.802 155.821 305.388C155.638 305.525 155.599 305.739 155.605 305.919C155.324 306.229 155.478 306.798 156.003 306.833C156.738 306.882 157.484 307.137 158.107 307.569C158.103 307.984 158.381 308.375 158.875 308.235C159.453 308.856 159.853 309.64 159.851 310.495C159.89 312.587 158.01 313.962 156.099 314.15C155.386 314.226 155.233 315.394 155.998 315.464C158.758 315.667 161.366 313.437 161.427 310.601C161.438 309.51 161.082 308.538 160.467 307.715C168.161 305.063 175.912 303.593 184.048 303.115C184.768 304.956 186.656 306.223 188.704 306.218C191.353 306.235 193.289 304.021 193.32 301.45C193.364 298.954 191.639 296.568 189.039 296.388C186.384 296.191 183.705 298.175 183.567 300.87C183.55 301.209 183.762 301.379 184.011 301.464C183.874 301.566 183.745 301.719 183.761 301.949C183.783 302.075 183.806 302.2 183.829 302.326C175.47 302.143 167.123 303.617 159.337 306.622C158.804 306.252 158.233 305.966 157.61 305.818C160.183 304.112 160.709 299.819 158.878 297.427C156.847 294.786 152.592 294.488 150.224 296.754C150.12 295.165 149.911 293.57 149.449 291.865C149.392 291.694 149.34 291.548 149.288 291.402C149.347 291.443 149.427 291.454 149.518 291.386C159.322 284.597 175.559 282.716 186.963 276.028C204.965 276.759 227.058 284.088 229.539 304.971ZM186.388 343.278C186.379 343.228 186.366 343.153 186.357 343.103C187.2 341.733 188.565 340.814 190.296 340.918C192.392 341.034 193.527 342.877 193.207 344.852C192.907 346.643 191.444 348.175 189.529 347.768C187.674 347.401 186.144 345.525 186.422 343.609C186.438 343.555 186.408 343.534 186.424 343.479C186.415 343.429 186.427 343.349 186.388 343.278ZM185.26 302.353C185.119 302.146 184.982 301.963 184.887 301.721C184.835 301.575 184.741 301.488 184.627 301.431C184.794 301.349 184.948 301.192 185.012 300.973C185.438 299.16 187.028 297.76 188.966 298.008C190.72 298.237 191.556 300.004 191.303 301.63C190.838 304.668 187.317 304.705 185.606 302.836C185.7 302.637 185.6 302.37 185.31 302.344C185.31 302.344 185.285 302.349 185.26 302.353ZM257.128 315.745C246.859 312.873 237.274 304.566 229.52 297.355C224.78 286.856 213.338 278.753 199.85 275.864C200.061 275.593 200.098 275.223 199.772 274.997C198.676 274.235 197.51 273.667 196.558 272.698C195.694 271.79 195.106 270.678 194.688 269.509C196.325 267.505 197.643 265.169 198.528 262.444C198.848 261.48 199.062 260.508 199.206 259.575C220.285 277.427 239.887 296.011 258.707 316.161C258.294 316.027 257.755 315.917 257.128 315.745ZM188.952 274.686C190.825 273.417 192.511 271.974 193.981 270.336C194.568 272.304 195.785 274.314 197.511 275.403C194.706 274.948 191.857 274.683 188.952 274.686ZM250.499 293.43C253.397 298.3 256.062 303.315 258.484 308.426C260.589 312.92 263.502 316.284 260.661 316.354C243.381 294.528 222.821 274.509 200.408 258.037C200.107 257.806 199.772 257.815 199.504 257.915C199.869 253.159 198.315 248.695 194.9 244.851C194.896 244.826 194.871 244.831 194.866 244.806C219.614 245.257 239.009 274.089 250.499 293.43ZM135.516 227.455C142.629 218.687 155.386 209.424 165.545 217.602C170.794 221.842 170.466 227.81 174.793 232.837C177.088 235.509 180.108 237.299 182.932 239.305C186.295 241.707 190.175 243.524 192.727 246.901C199.989 256.428 194.971 266.608 187.033 272.958C175.967 281.814 160.304 281.544 149.207 290.95C149.161 290.984 149.145 291.039 149.124 291.068C148.201 288.098 146.719 285.333 144.788 282.958C149.132 279.275 153.23 275.377 157.962 272.117C163.821 268.058 170.066 264.707 176.625 261.948C176.651 261.943 176.667 261.889 176.692 261.884C177.82 262.822 179.465 263.174 180.914 262.862C183.735 262.251 184.792 259.185 183.574 256.734C182.312 254.188 179.141 252.996 176.776 254.846C174.839 256.334 174.207 259.169 175.462 261.25C164.111 265.777 151.887 272.379 143.588 281.619C140.572 278.403 136.668 276.021 132.179 275.143C131.585 275.016 130.976 274.944 130.396 274.893C133.587 265.949 137.245 257.725 142.523 249.857C142.672 249.96 142.799 250.092 142.947 250.195C143.15 250.314 143.356 250.303 143.527 250.246C143.566 250.317 143.609 250.413 143.719 250.445C146.86 251.902 150.763 250.242 151.999 247.014C153.182 243.925 151.261 240.745 148.355 239.583C145.558 238.453 142.398 239.487 141.056 242.268C139.882 244.682 140.27 247.851 142.277 249.642C136.719 257.249 132.031 265.659 129.353 274.718C129.357 274.743 129.357 274.743 129.362 274.768C124.926 274.477 121.003 275.596 117.575 277.741C118.901 259.854 124.074 241.587 135.516 227.455ZM176.9 259.436C176.792 259.119 176.584 258.975 176.344 258.94C176.775 256.427 180.046 254.569 181.75 257.554C183.852 261.168 178.014 262.891 176.9 259.436ZM143.363 248.177C143.322 248.236 143.28 248.295 143.239 248.355C140.652 245.217 142.798 239.545 147.454 241.352C149.377 242.095 150.9 244.076 150.268 246.185C149.506 248.732 146.535 250.095 144.107 249.287C144.052 249.271 144.032 249.301 143.981 249.31C143.959 249.184 143.936 249.059 143.813 248.951C143.661 248.823 143.533 248.691 143.405 248.558C143.447 248.499 143.483 248.414 143.55 248.351C143.628 248.207 143.471 248.054 143.363 248.177ZM115.416 283.623C115.43 283.698 115.422 283.803 115.411 283.883C115.472 285.09 117.208 284.934 117.256 283.759C117.282 283.184 117.309 282.609 117.335 282.034C117.564 281.863 117.759 281.647 118.017 281.497C133.788 270.241 149.462 288.183 146.874 304.093C145.109 315.062 137.08 322.776 137.69 333.68C137.373 333.789 137.146 334.115 137.389 334.46C137.531 334.668 137.676 334.901 137.822 335.134C137.891 335.666 137.961 336.197 138.056 336.724C138.155 337.277 138.744 337.378 139.183 337.222C141.094 340.351 142.746 343.63 143.869 347.135C144.637 349.536 145.35 353.788 145.205 358.038C144.728 358.124 144.289 358.566 144.477 359.18C144.647 359.693 144.817 360.207 145.012 360.716C144.543 364.455 143.268 367.897 140.57 369.626C140.414 369.628 140.284 369.625 140.133 369.652C135.602 374.458 128.193 376.1 122.054 372.823C118.065 370.689 115.084 367.234 112.624 363.504C111.277 361.491 110.67 359.268 110.583 357.054C109.344 354.634 108.181 352.199 107.188 349.708C101.248 334.838 99.6942 317.961 104.615 302.616C106.767 295.828 110.089 288.623 115.416 283.623ZM26.5775 191.803C27.446 191.44 33.7768 197.947 34.4856 198.571C54.8472 216.474 71.7769 236.497 81.4355 262.103C81.4787 262.199 81.563 262.235 81.6268 262.302C80.4921 276.629 78.5926 290.887 76.0379 305.107C75.6875 288.144 69.5754 272.604 62.0587 257.188C51.2373 234.927 39.6667 212.827 26.3649 191.919C26.4403 191.905 26.4815 191.846 26.5775 191.803ZM27.1027 215.369C26.4531 209.733 24.915 202.183 25.7839 196.481C25.9114 195.603 25.6215 194.566 25.5641 193.67C35.9472 210.748 45.112 228.408 54.1234 246.226C63.8237 265.423 73.8589 284.896 73.7785 306.679C68.8503 286.47 56.1157 270.306 40.4754 256.738C40.9625 256.417 41.2356 255.772 40.8123 255.148C32.6579 243.111 28.7764 229.737 27.1027 215.369ZM60.7988 325.675C58.2932 325.011 55.7103 323.195 53.4984 321.856C39.7622 313.543 29.4952 300.72 21.8381 286.831C14.1766 272.918 8.93101 257.87 2.90138 243.223C1.74543 240.399 -0.0721648 237.356 -0.835092 234.409C-0.998114 233.791 -1.13858 233.298 -1.27905 232.805C18.7149 254.869 37.1807 278.244 53.3709 303.245C56.9571 308.769 62.8995 315.424 64.7874 321.745C66.2379 326.642 67.7519 327.562 60.7988 325.675ZM70.8465 329.338C49.4128 294.497 26.5895 261.306 -0.840973 230.912C-0.681198 230.935 -0.542053 230.988 -0.357135 231.006C5.23776 231.686 13.3012 239.463 18.1095 242.693C44.9327 260.757 67.0643 283.603 73.9907 315.945C73.049 320.52 72.0318 325.108 70.9599 329.68C70.9122 329.559 70.9148 329.429 70.8465 329.338ZM102.663 299.261C100.349 305.87 99.1032 312.651 98.847 318.009C98.5908 323.368 99.2308 331.261 100.98 339.551C82.7906 343.7 62.3956 352.029 47.2484 364.158C64.9344 341.907 85.269 321.693 102.663 299.261ZM88.8876 390.626C89.5326 392.194 82.288 401.245 81.5091 402.395C70.3431 419.07 57.0167 433.826 42.2568 447.388C42.211 447.422 42.1949 447.477 42.1537 447.536C28.0704 448.408 14.5182 451.802 3.10445 458.725C28.617 432.683 57.0088 409.674 87.1693 389.146C87.9611 389.367 88.5629 389.829 88.8876 390.626ZM4.46777 381.719C3.67396 399.821 -3.2347 416.948 -5.8589 434.679C-6.04708 433.054 -6.22432 431.635 -6.24302 430.809C-6.58545 421.541 -6.69716 412.258 -6.62405 402.993C-6.45009 383.318 -5.20537 363.683 -3.14564 344.11C-0.0726606 356.593 5.06906 368.031 4.46777 381.719ZM-5.54623 344.463C-9.14139 379.888 -9.8141 415.409 -7.42264 450.95C-7.56951 451.287 -7.73702 451.654 -7.8839 451.992C-24.8463 416.918 -21.1385 379.089 -5.54623 344.463ZM55.6484 398.205C62.6264 395.033 69.9479 392.474 77.4137 390.718C79.7531 390.168 83.2998 388.831 85.882 388.911C51.805 409.728 21.6169 435.444 -5.31864 464.825C-6.97952 466.264 -8.57211 467.794 -10.0919 469.441C2.15216 438.267 24.6231 412.331 55.6484 398.205ZM65.1609 450.426C69.3681 450.888 98.6596 456.561 100.802 459.39C62.6189 458.942 25.3954 466.434 -11.7901 474.281C7.20059 453.661 38.0232 447.501 65.1609 450.426ZM6.80305 472.236C37.3228 465.69 68.0334 460.638 99.3163 461.082C94.7098 463.594 81.8547 467.692 79.7016 468.701C73.4251 471.591 67.1964 474.602 60.7608 477.183C45.3209 483.353 29.2881 486.078 12.7301 483.714C8.97529 483.171 -11.0374 477.748 -10.6683 477.06C-8.91207 473.842 3.5295 472.928 6.80305 472.236Z" fill="#FAF2EE"/>
<path d="M180.746 231.612C191.964 218.401 202.288 203.252 209.744 187.581C209.801 187.467 209.783 187.366 209.77 187.291C210.052 186.696 210.339 186.126 210.621 185.531C210.65 185.552 210.684 185.598 210.739 185.614C234.134 191.673 266.025 189.001 275.726 162.586C276.96 159.203 277.648 155.529 277.707 151.812C296.322 146.861 312.594 135.359 322.509 118.65C325.674 113.313 329.242 106.323 326.059 100.157C324.666 97.4527 322.719 97.1547 320.796 95.1159C315.807 89.8703 313.29 86.2539 311.924 79.3726C311.556 77.4692 311.352 75.6139 310.758 73.7511C305.891 58.0657 287.586 59.696 275.524 65.7507C268.908 69.0644 263.236 73.5822 258.235 78.8086C264.421 60.9816 265.882 34.752 250.548 22.1653C244.25 16.9993 236.405 15.6359 228.893 18.722C222.083 21.5265 218.402 25.5828 210.617 25.9967C202.657 26.4423 195.84 23.7279 188.032 23.2909C169.195 22.244 158.913 39.511 161.45 56.8072C161.702 58.4982 162.055 60.1712 162.432 61.8397C154.062 57.409 138.776 52.0181 130.897 59.9904C127.055 63.8684 127.503 69.8262 127.199 74.7787C126.56 85.0784 124.442 90.616 118.588 98.7428C116.405 101.752 114.075 103.363 112.69 107.059C102.036 135.536 155.511 151.507 173.99 154.458C174.339 154.525 174.623 154.37 174.797 154.183C179.855 168.331 195.424 179.917 209.182 184.598C207.633 187.234 206.088 189.896 204.712 192.631C204.576 192.889 204.592 193.119 204.632 193.345C196.246 205.711 187.896 217.992 179.069 230.074C178.214 231.238 179.782 232.744 180.746 231.612ZM165.878 40.3069C172.763 24.3498 186.065 26.0545 200.136 28.5798C204.452 29.3592 208.891 30.2461 213.276 29.5358C222.45 28.0431 229.612 18.826 239.485 20.2139C265.233 23.7768 260.393 63.39 255.681 81.6259C246.842 91.766 240.243 104.121 234.406 115.951C233.91 116.947 235.393 117.691 235.922 116.741C244.341 101.519 252.471 85.4161 266.385 74.364C273.151 69.0018 282.319 63.7264 291.229 63.6545C304.801 63.5483 307.267 72.7976 309.734 83.4979C312.774 96.661 327.41 105.797 317.646 120.457C308.047 134.88 293.941 144.723 277.653 150.215C277.493 144.128 275.63 138.087 271.676 133.407C268.256 129.383 264.157 127.502 259.765 127.021C268.969 121.662 277.801 114.659 284.247 106.218C286.71 108.523 289.783 109.888 293.06 107.77C296.154 105.789 297.051 101.689 294.76 98.7573C292.734 96.1411 288.818 95.1343 286.057 97.2371C284.369 98.5252 283.303 100.816 283.46 102.991C282.786 103.138 282.261 104.113 282.883 104.831C283.019 105.013 283.202 105.162 283.334 105.32C275.104 113.796 266.68 121.192 256.196 126.937C253.65 127.058 251.046 127.577 248.487 128.348C248.653 126.53 247.623 124.694 245.951 123.621C243.197 121.861 240.089 123.041 237.442 124.476C237.444 124.346 237.442 124.191 237.445 124.061C245.154 118.607 252.005 111.985 257.377 104.204C258.736 105.126 260.642 105.484 262.103 105.247C264.881 104.826 267.008 102.37 266.363 99.5058C265.759 96.8673 262.961 94.5713 260.197 95.0679C257.307 95.5871 256.18 98.4071 255.886 101.103C255.737 101.285 255.668 101.479 255.684 101.71C255.706 101.835 255.754 101.956 255.802 102.077C255.782 102.547 255.784 102.988 255.806 103.398C255.818 103.759 256.09 103.969 256.393 104.07C250.597 110.787 244.334 116.784 237.235 122.025C236.812 120.391 235.865 118.876 234.773 118.14C232.623 116.712 230.014 117.206 228.182 118.702C229.137 108.423 231.232 98.4322 234.042 88.52C234.523 88.7445 235.05 88.9349 235.63 88.9862C235.95 89.0324 236.242 88.928 236.421 88.7664C238.497 88.6267 240.563 87.426 241.627 85.5504C243.442 82.3735 241.635 78.8109 238.364 77.6365C235.231 76.5149 231.44 77.7921 230.61 81.2583C230.044 83.5889 230.969 86.1436 232.747 87.6642C232.777 87.6848 232.761 87.7396 232.79 87.7601C232.849 87.8013 232.879 87.8219 232.934 87.838C233.087 87.966 233.264 88.0896 233.442 88.2131C229.781 97.8636 227.581 107.848 226.416 118.112C225.834 115.159 222.4 112.795 219.4 112.842C218.804 112.845 218.256 112.97 217.737 113.115C213.395 95.4434 212.169 78.6631 213.993 60.6611C214.118 60.6386 214.228 60.6707 214.349 60.623C215.144 60.4284 215.002 59.495 214.469 59.1243C216.832 58.8551 219.022 57.0364 219.76 54.6491C220.926 50.8892 218.01 47.6553 214.358 47.249C210.701 46.8177 206.99 49.1171 206.778 52.9906C206.579 56.4992 209.633 60.7965 213.376 60.6942C210.385 78.2581 211.305 96.5185 216.249 113.641C216.254 113.666 216.283 113.687 216.288 113.712C212.957 115.529 211.127 119.926 211.291 123.577C211.31 124.118 212.091 124.133 212.211 123.645C213.076 120.379 214.512 116.39 218.129 115.299C221.399 114.297 224.827 117.206 224.105 120.549C223.862 121.655 225.409 122.18 225.959 121.2C226.214 120.74 226.363 120.273 226.458 119.789C226.565 119.951 226.722 120.104 226.891 120.178C226.389 120.994 226.07 121.958 226.045 122.973C226.041 123.674 227.082 123.694 227.254 123.067C227.925 120.303 231.679 118.099 234.058 120.367C234.874 121.154 235.312 122.293 235.309 123.434C235.314 123.459 235.293 123.488 235.302 123.539C234.982 123.777 234.687 124.012 234.342 124.255C233.672 124.713 234.014 125.61 234.617 125.787C234.527 126.01 234.442 126.259 234.382 126.503C234.23 127.1 234.889 127.733 235.494 127.495C236.312 127.141 236.805 126.56 237.149 125.876C238.852 125.104 240.719 124.379 242.57 124.435C244.968 124.497 247.509 126.658 246.469 129.099C245.324 129.512 244.163 129.98 243.057 130.464C231.928 135.366 223.437 140.364 210.851 136.432C204.092 134.329 198.843 129.364 191.611 128.383C191.586 128.387 191.557 128.367 191.506 128.376C191.241 127.335 190.819 126.141 190.847 124.995C191.238 124.718 191.44 124.111 191.17 123.616C191.19 123.586 191.207 123.531 191.227 123.502C192 122.171 193.685 122.024 194.992 122.514C197.573 123.45 198.224 126.21 199.697 128.2C200.043 128.682 200.993 128.485 200.872 127.807C200.815 127.351 200.709 126.903 200.578 126.461C200.472 123.707 200.32 116.944 204.295 117.267C207.979 117.563 208.481 121.801 209.464 124.527C209.816 125.474 211.328 125.229 211.244 124.181C210.933 120.143 208.504 114.852 203.678 115.278C201.712 115.45 200.593 116.584 199.966 118.148C199.961 118.123 199.957 118.098 199.927 118.077C187.54 103.847 175.339 87.7684 167.964 70.253C163.837 60.7062 161.643 50.0863 165.878 40.3069ZM285.792 104.852C285.735 104.681 285.733 104.526 285.701 104.35C285.763 104.261 285.825 104.172 285.887 104.083C286.134 103.728 285.877 103.308 285.537 103.291C285.465 101.879 285.838 100.49 286.97 99.4313C288.801 97.7808 291.553 98.3747 292.983 100.269C294.485 102.279 293.724 104.826 291.641 106.082C289.396 107.444 287.439 106.37 285.792 104.852ZM257.728 101.394C258.033 99.629 258.585 97.7935 260.279 97.256C261.947 96.7231 263.813 98.3054 264.223 99.8645C264.707 101.695 263.179 103.006 261.469 103.158C259.708 103.319 258.758 102.505 257.728 101.394ZM236.249 87.0869C236.189 87.0457 236.135 87.0297 236.05 86.993C233.85 86.5849 232.378 84.3098 232.732 82.0951C233.107 79.8509 235.401 79.0499 237.407 79.6743C239.522 80.3309 240.892 82.469 239.734 84.5429C238.987 85.8693 237.672 86.7794 236.249 87.0869ZM211.556 57.7818C210.062 56.8321 208.979 55.4201 209.02 53.3395C209.049 50.6131 211.641 49.1625 214.109 49.4707C216.492 49.7422 218.431 51.7263 217.631 54.2024C216.847 56.6239 214.205 58.5238 211.656 57.7637C211.631 57.7683 211.581 57.7773 211.556 57.7818ZM120.215 100.29C125.737 92.4825 128.181 90.2034 129.391 79.9049C129.782 76.5952 129.111 69.5373 130.21 66.8518C135.798 53.2011 153.366 59.4518 162.159 63.7807C162.441 63.9113 162.697 63.8913 162.914 63.8004C168.567 84.5796 185.028 104.013 198.493 119.475C198.782 119.786 199.101 119.832 199.389 119.703C199.149 120.964 199.107 122.319 199.187 123.627C197.826 121.539 195.703 119.976 193.116 120.156C191.195 120.294 190.116 121.214 189.59 122.474C182.764 117.973 177.276 112.118 173.033 105.105C175.024 103.193 175.406 100.118 174.082 97.6608C172.445 94.6118 168.647 93.9726 165.811 95.8037C163.097 97.5872 162.039 101.224 164.053 103.92C165.727 106.159 168.983 107.103 171.411 105.604C171.614 105.723 171.858 105.783 172.084 105.742C175.992 113.489 181.897 119.788 189.2 124.488C189.19 125.734 189.479 127.055 189.997 128.206C186.162 127.936 182.523 128.616 179.628 130.406C168.139 121.897 157.218 112.793 146.514 103.314C146.61 103.271 146.727 103.198 146.814 103.104C149.068 100.782 148.328 96.6645 146.091 94.6046C143.577 92.3091 139.838 93.0069 137.775 95.5286C135.795 97.9317 135.805 101.454 138.273 103.499C140.407 105.266 143.56 105.348 145.692 103.643C155.62 113.858 166.447 123.16 177.799 131.771C176.035 133.358 174.66 135.523 173.944 138.321C172.649 143.244 172.92 148.068 174.291 152.668C153.306 148.042 97.7261 132.19 120.215 100.29ZM167.104 97.8002C171.297 95.1549 174.305 101.067 171.054 103.906C170.855 104.097 170.766 104.321 170.751 104.531C166.895 105.301 162.89 100.475 167.104 97.8002ZM144.302 102.26C144.395 102.347 144.493 102.459 144.587 102.546C141.211 104.111 136.529 100.573 139.388 97.0009C140.703 95.3653 143.117 94.8019 144.678 96.4133C146.204 97.9791 146.097 100.123 145.04 101.894C145.02 101.924 145.029 101.974 145.008 102.004C144.915 101.917 144.826 101.855 144.732 101.768C144.422 101.487 144.013 101.949 144.302 102.26ZM190.78 171.681C187.289 168.421 184.188 164.443 181.827 160.254C178.513 154.371 172.732 139.808 180.591 133.887C181.385 134.263 182.25 133.589 182.278 132.884C184.402 131.855 187.178 131.278 190.872 131.34C198.995 131.513 206.012 138.805 213.743 140.836C219.024 142.22 223.863 141.869 229.064 140.209C236.25 137.907 242.492 132.95 249.789 131.12C270.618 125.927 279.364 148.767 271.373 164.923C261.364 185.147 237.415 187.844 217.213 185.409C217.237 184.965 217.03 184.535 216.466 184.429C206.622 182.622 198.131 178.524 190.78 171.681Z" fill="#FAF2EE"/>
</g>
<g clip-path="url(#clip5_9_342)">
<path d="M211.24 477.78C209.77 474.44 204.29 476.3 203.46 479.2C203.16 480.25 203.69 481.14 204.49 481.74C205.11 482.21 205.95 482.35 206.71 482.34C207.66 482.33 208.45 482.02 209.29 481.63C210.7 480.99 211.94 479.38 211.24 477.78Z" fill="#5C5C5C"/>
<path d="M214.48 492.5C213.81 491.63 212.49 491.04 211.39 491.45C210.81 491.66 210.24 491.82 209.8 492.3C209.64 492.48 209.51 492.67 209.38 492.87C208.8 493.4 208.6 494.26 208.7 495.01C208.81 495.85 209.25 496.42 209.93 496.9C210.55 497.33 211.23 497.41 211.95 497.51C213.04 497.65 214.02 496.81 214.58 496C214.63 495.93 214.67 495.86 214.71 495.78C215.25 494.68 215.24 493.48 214.48 492.5Z" fill="#5C5C5C"/>
<path d="M199.76 493.35C199.56 492.32 198.52 491.78 197.58 491.69C196.76 491.62 196.09 491.83 195.36 492.19C195.31 492.22 195.28 492.23 195.25 492.25C195.21 492.26 195.18 492.26 195.11 492.28C194.86 492.34 194.6 492.39 194.35 492.46C192.37 492.99 190.38 495.15 191.63 497.27C192.94 499.5 195.81 499.26 197.61 497.86C199.11 496.69 200.14 495.35 199.76 493.35Z" fill="#5C5C5C"/>
<path d="M193.61 512.15C193.46 511.23 192.33 510.76 191.52 510.96C191.5 510.96 191.5 510.96 191.49 510.97C191.41 510.97 191.33 510.97 191.25 510.97C191.28 510.97 190.02 511.19 189.97 511.21C189.52 511.27 189.11 511.36 188.7 511.57C188.28 511.79 187.99 512.12 187.68 512.46C186.89 513.32 186.67 514.94 187.68 515.76C188.39 516.34 189.03 516.76 190.02 516.77C191.04 516.78 191.82 516.29 192.55 515.65C193.63 514.71 193.84 513.5 193.61 512.15Z" fill="#5C5C5C"/>
<path d="M209.68 509.5C209.44 509.39 209.21 509.28 208.97 509.18C208.15 508.81 207.4 508.62 206.49 508.86C206.22 508.93 205.96 509.04 205.69 509.13C204.6 509.51 203.61 510.29 203.34 511.48C203.14 512.36 203.21 513.28 203.68 514.07C204.11 514.8 204.88 515.39 205.69 515.62C206.95 515.97 208 515.53 208.97 514.75C209.64 514.21 210.29 513.64 210.45 512.73C210.51 512.41 210.54 512.07 210.58 511.75C210.7 510.94 210.54 509.9 209.68 509.5Z" fill="#5C5C5C"/>
<path d="M224.17 501.82C223.09 500.99 221.67 501.15 220.44 501.43C220.08 501.51 219.71 501.58 219.36 501.69C218.49 501.99 217.89 502.5 217.32 503.19C216.5 504.18 216.15 505.34 216.68 506.58C217.2 507.8 218.25 508.35 219.52 508.49C220.26 508.57 220.94 508.57 221.65 508.27C222.14 508.06 222.57 507.81 223.02 507.54C224.07 506.9 225.17 506.01 225.35 504.7C225.53 503.43 225.18 502.6 224.17 501.82Z" fill="#5C5C5C"/>
<path d="M223.37 520.57C223.2 520 222.98 519.67 222.61 519.23C222.27 518.81 221.64 518.54 221.03 518.48C220.8 518.42 220.57 518.37 220.29 518.39C220.2 518.39 220.12 518.41 220.04 518.42C219.39 518.37 218.68 518.54 218.16 518.84C217.5 519.22 216.88 519.98 216.71 520.73C216.53 521.54 216.57 522.45 217.03 523.17C217.49 523.88 218.11 524.35 218.92 524.62C219.57 524.84 220.3 524.79 220.95 524.65C221.15 524.61 221.31 524.53 221.51 524.44C221.9 524.31 222.24 524.09 222.53 523.79C222.69 523.58 222.86 523.36 223.02 523.15C223.18 522.91 223.28 522.63 223.36 522.35C223.51 521.81 223.53 521.11 223.37 520.57Z" fill="#5C5C5C"/>
<path d="M208.81 529.04C208.2 527.93 206.8 527.9 205.95 528.62C205.94 528.62 205.92 528.62 205.91 528.62C205.2 528.72 204.72 529.07 204.18 529.51C204.36 529.37 204.54 529.23 204.72 529.09C204.63 529.15 204.55 529.2 204.46 529.25C203.55 529.72 203.1 530.86 203.23 531.83C203.29 532.3 203.45 532.68 203.74 533.05C204.05 533.45 204.56 533.9 205.08 533.98C205.98 534.12 206.83 534.2 207.67 533.71C208.38 533.29 208.85 532.54 209.09 531.77C209.36 530.86 209.26 529.88 208.81 529.04Z" fill="#5C5C5C"/>
</g>
<defs>
<clipPath id="clip0_9_342">
<rect width="81.59" height="99.34" fill="white" transform="translate(-3 604)"/>
</clipPath>
<clipPath id="clip1_9_342">
<rect width="54" height="65" fill="white" transform="translate(71 1)"/>
</clipPath>
<clipPath id="clip2_9_342">
<rect width="204" height="193" fill="white" transform="translate(186.547 397.37) rotate(90.6551)"/>
</clipPath>
<clipPath id="clip3_9_342">
<rect width="340" height="197" fill="white" transform="translate(7.48987 570.41) rotate(6.12981)"/>
</clipPath>
<clipPath id="clip4_9_342">
<rect width="435.71" height="417.68" fill="white" transform="translate(308.715 0.881348) rotate(79.814)"/>
</clipPath>
<clipPath id="clip5_9_342">
<rect width="38.4" height="58.09" fill="white" transform="translate(187 476)"/>
</clipPath>
</defs>
</svg>
