<svg width="387" height="803" viewBox="0 0 387 803" fill="none" xmlns="http://www.w3.org/2000/svg">
<g clip-path="url(#clip0_9_352)">
<path d="M362.855 178.521C365.315 183.841 371.025 183.451 374.215 179.051C374.845 178.181 375.535 177.191 376.225 176.131C381.725 172.321 384.805 162.891 384.035 157.061C383.685 154.451 381.345 151.441 378.245 152.651C372.905 154.741 368.455 158.121 365.445 163.071C362.865 167.281 360.645 173.741 362.855 178.521Z" fill="#C8A898"/>
<path d="M336.036 199.321C339.696 200.201 343.126 197.101 345.376 194.191C347.556 192.501 349.005 189.661 348.985 187.001C349.455 184.861 349.285 182.721 347.615 181.291C347.045 180.801 346.305 180.421 345.545 180.421C344.055 179.371 342.215 178.881 340.245 179.311C333.535 180.801 326.605 197.051 336.036 199.321Z" fill="#C8A898"/>
<path d="M339.915 159.071C340.895 161.391 344.185 161.721 346.115 160.701C348.215 159.591 350.325 157.911 352.045 155.881C353.045 155.151 353.915 154.221 354.585 153.151C356.635 149.841 357.545 145.571 356.425 141.801C355.265 137.911 351.085 136.451 347.595 138.211C339.955 142.061 336.655 151.331 339.915 159.071Z" fill="#C8A898"/>
<path d="M372.155 125.201C375.795 129.121 381.015 127.201 384.025 123.601C386.315 120.851 387.945 117.491 388.515 113.981C390.775 109.401 388.435 103.091 383.835 101.001C381.895 100.121 379.355 99.6012 377.455 101.001C373.555 103.861 370.505 107.921 369.595 112.781C368.835 116.811 369.225 122.041 372.155 125.201Z" fill="#C8A898"/>
<path d="M338.415 123.311C341.895 127.941 347.415 125.361 350.135 121.521C352.385 118.351 354.925 113.331 354.425 109.321C354.425 109.301 354.415 109.281 354.415 109.261C354.415 109.181 354.415 109.111 354.405 109.031C353.915 103.601 349.105 101.021 344.215 103.181C340.875 104.661 338.645 108.861 337.845 112.251C337.015 115.781 336.075 120.191 338.415 123.311Z" fill="#C8A898"/>
<path d="M307.835 168.201C308.235 172.351 311.236 176.381 315.676 176.581C319.476 176.751 323.206 173.591 323.046 169.661C323.036 169.411 322.996 169.161 322.936 168.911C323.976 165.151 323.406 160.921 321.316 157.671C319.206 154.371 313.546 153.671 311.606 157.671C309.916 161.151 307.445 164.061 307.835 168.201Z" fill="#C8A898"/>
<path d="M319.375 140.301C321.195 138.241 323.085 135.391 323.475 132.491C323.775 132.121 324.085 131.741 324.395 131.321C326.145 129.011 324.835 125.051 322.415 123.771C319.845 122.411 316.335 123.041 314.865 125.751C313.815 127.321 313.165 129.451 312.585 131.271C311.985 133.141 311.715 135.111 311.555 137.061C311.245 140.961 316.825 143.181 319.375 140.301Z" fill="#C8A898"/>
</g>
<g clip-path="url(#clip1_9_352)">
<path d="M297.827 788.763C299.455 792.244 303.234 791.989 305.345 789.11C305.762 788.541 306.219 787.893 306.676 787.199C310.316 784.706 312.354 778.536 311.845 774.722C311.613 773.014 310.064 771.044 308.013 771.836C304.478 773.204 301.533 775.415 299.541 778.654C297.833 781.409 296.364 785.636 297.827 788.763Z" fill="#657150"/>
<path d="M280.076 802.373C282.498 802.949 284.768 800.921 286.258 799.016C287.7 797.911 288.66 796.052 288.647 794.312C288.958 792.912 288.845 791.511 287.74 790.576C287.363 790.255 286.873 790.007 286.37 790.007C285.384 789.319 284.166 788.999 282.862 789.28C278.421 790.255 273.835 800.888 280.076 802.373Z" fill="#657150"/>
<path d="M282.644 776.037C283.293 777.555 285.47 777.771 286.747 777.103C288.137 776.377 289.534 775.278 290.672 773.949C291.334 773.472 291.91 772.863 292.353 772.163C293.71 769.997 294.312 767.203 293.571 764.737C292.803 762.191 290.037 761.236 287.727 762.388C282.67 764.907 280.486 770.972 282.644 776.037Z" fill="#657150"/>
<path d="M303.982 753.875C306.391 756.44 309.846 755.184 311.838 752.828C313.354 751.029 314.432 748.83 314.81 746.533C316.305 743.537 314.757 739.408 311.712 738.04C310.428 737.465 308.747 737.124 307.49 738.04C304.908 739.912 302.89 742.568 302.288 745.748C301.785 748.385 302.043 751.807 303.982 753.875Z" fill="#657150"/>
<path d="M281.651 752.638C283.954 755.668 287.608 753.98 289.408 751.467C290.897 749.393 292.578 746.108 292.247 743.484C292.247 743.471 292.241 743.458 292.241 743.445C292.241 743.393 292.241 743.347 292.234 743.295C291.91 739.742 288.726 738.054 285.49 739.467C283.279 740.435 281.803 743.183 281.274 745.402C280.725 747.711 280.102 750.597 281.651 752.638Z" fill="#657150"/>
<path d="M261.412 782.011C261.677 784.726 263.662 787.363 266.601 787.494C269.116 787.605 271.585 785.537 271.479 782.966C271.472 782.802 271.446 782.639 271.406 782.475C272.094 780.015 271.717 777.247 270.334 775.121C268.937 772.961 265.191 772.503 263.907 775.121C262.789 777.398 261.154 779.302 261.412 782.011Z" fill="#657150"/>
<path d="M269.05 763.755C270.254 762.407 271.505 760.542 271.763 758.645C271.962 758.403 272.167 758.154 272.372 757.879C273.53 756.368 272.663 753.777 271.062 752.939C269.361 752.049 267.038 752.462 266.065 754.235C265.37 755.262 264.94 756.656 264.556 757.847C264.159 759.07 263.98 760.359 263.874 761.635C263.669 764.187 267.362 765.64 269.05 763.755Z" fill="#657150"/>
</g>
<g clip-path="url(#clip2_9_352)">
<path d="M394.261 204.342C390.386 205.243 386.735 206.828 383.039 208.32C379.265 209.842 375.52 211.457 371.821 213.166C364.393 216.599 357.204 220.608 350.214 224.852C349.638 225.201 349.078 225.567 348.502 225.917C348.331 225.961 348.161 225.975 347.975 226.035C346.563 226.437 345.137 226.808 343.711 227.133C341.2 227.724 338.643 228.206 336.088 228.595C333.084 229.057 330.081 229.394 327.048 229.623C327.05 229.437 327.006 229.251 326.884 229.079C325.56 227.282 323.655 226.222 321.687 225.238C319.443 224.112 317.135 223.11 314.78 222.23C310.316 220.583 305.707 219.368 301 218.679C296.2 217.989 291.302 217.762 286.46 217.986C282.207 218.185 277.795 218.677 273.984 220.726C267.918 223.988 264.163 233.259 270.568 238.229C273.664 240.635 277.817 241.086 281.586 241.423C286.25 241.833 290.949 241.902 295.636 241.646C301.05 241.336 306.454 240.561 311.74 239.35C314.189 238.79 316.624 238.136 319.044 237.388C320.285 237 321.527 236.58 322.753 236.145C324.15 235.649 325.148 234.87 326.364 234.016C326.738 233.757 326.79 233.277 326.624 232.904C330.027 232.757 333.416 232.454 336.792 231.935C337.876 231.777 338.945 231.572 340.014 231.383C329.747 238.286 319.982 245.891 310.767 254.154C309.174 255.577 307.611 257.031 306.064 258.501C305.864 258.422 305.648 258.388 305.431 258.432C303.352 259.013 301.481 260.417 299.447 261.184C297.056 262.102 294.619 262.927 292.183 263.736C288.862 264.829 285.511 265.829 282.146 266.751C280.935 265.838 279.375 265.743 277.816 265.539C275.269 265.216 272.706 264.923 270.142 264.708C265.4 264.313 260.594 264.149 255.858 264.653C248.011 265.462 240.098 267.928 233.827 272.847C230.941 275.107 228.065 277.926 229.008 281.919C229.908 285.711 233.31 288.353 236.725 289.833C244.278 293.096 252.893 291.382 259.879 287.541C264.063 285.249 267.793 282.254 271.369 279.103C273.227 277.45 275.056 275.751 276.975 274.177C278.676 272.771 280.328 271.643 281.753 270.032C285.956 268.902 290.143 267.695 294.271 266.316C296.242 265.657 298.213 264.982 300.154 264.245C288.473 275.92 277.861 288.63 268.492 302.222C266.634 302.495 264.91 303.173 263.046 303.895C260.391 304.919 257.766 306.02 255.186 307.199C252.451 308.454 249.777 309.787 247.132 311.214C245.205 310.742 243.361 311.108 241.316 311.503C238.713 312.001 236.14 312.591 233.597 313.306C229.161 314.572 224.904 316.383 220.965 318.802C213.524 323.335 206.582 330.074 202.689 337.964C200.98 341.447 199.866 345.603 200.997 349.428C201.533 351.216 202.611 352.948 204.128 354.066C206.198 355.577 208.445 355.154 210.74 354.498C219.644 351.888 226.608 345.862 232.041 338.517C235.024 334.506 237.608 330.212 240.377 326.06C241.761 323.983 243.191 321.923 244.713 319.957C246.282 317.945 248.389 316.171 249.467 313.844C249.483 313.828 249.483 313.797 249.484 313.782C251.754 312.584 254.071 311.448 256.402 310.374C258.795 309.27 261.234 308.244 263.688 307.296C264.293 307.055 264.914 306.845 265.504 306.62C260.313 314.479 255.52 322.591 251.173 330.956C249.434 334.299 247.757 337.689 246.141 341.142C242.917 343.212 240.115 346.264 237.67 349.119C234.74 352.541 232.209 356.278 230.015 360.204C225.296 368.627 221.134 378.373 221.115 388.167C221.105 393.126 222.519 397.915 224.042 402.597C224.579 404.261 225.302 405.974 227.199 406.399C229.065 406.807 230.809 405.634 232 404.299C233.472 402.658 234.285 400.436 235.189 398.463C236.236 396.135 237.222 393.775 238.099 391.398C239.933 386.476 241.444 381.41 242.601 376.279C243.871 370.621 244.57 364.911 245.162 359.153C245.474 356.197 245.801 353.225 246.391 350.303C246.604 349.267 246.848 348.247 247.091 347.227C248.472 344.082 249.915 340.952 251.434 337.855C258.541 323.416 266.969 309.643 276.578 296.751C276.641 296.674 276.703 296.597 276.766 296.505C276.3 298.08 275.88 299.672 275.445 301.217C273.977 306.562 272.663 311.955 271.735 317.415C271.569 318.42 271.402 319.425 271.267 320.431C271.034 320.568 270.892 320.814 270.904 321.14C270.901 321.403 270.929 321.636 270.973 321.869C269.079 322.514 268.3 324.38 267.4 326.09C266.293 328.216 265.34 330.421 264.557 332.674C263.071 336.919 262.077 341.355 261.747 345.845C261.122 354.609 262.551 363.412 268.94 369.854C271.63 372.566 275.829 375.76 279.869 375.326C283.692 374.92 286.573 371.745 288.31 368.542C292.432 360.918 290.701 351.43 287.821 343.71C286.126 339.166 283.934 334.802 281.338 330.697C279.971 328.527 278.48 326.449 276.88 324.447C276.133 323.524 275.372 322.415 274.454 321.568C275.185 315.811 276.332 310.106 277.742 304.482C278.876 299.892 280.46 295.23 281.364 290.53C293.004 275.786 306.16 262.253 320.582 250.222C319.935 251.377 319.334 252.563 318.733 253.749C317.246 256.708 315.974 259.792 314.779 262.894C312.421 269.019 310.54 275.335 309.152 281.766C309.087 282.091 309.021 282.431 308.956 282.756C308.878 282.786 308.8 282.816 308.722 282.877C302.59 287.843 299.035 295.923 297.787 303.61C296.522 311.468 297.509 319.801 301.061 326.955C304.445 333.781 311.77 340.792 319.664 335.97C327.588 331.117 327.038 321.053 324.809 313.248C323.307 308.009 321.465 302.827 319.498 297.753C318.476 295.138 317.424 292.553 316.231 290.014C315.1 287.583 313.747 285.522 312.195 283.397C312.276 283.026 312.327 282.655 312.409 282.284C313.764 275.93 315.629 269.691 317.971 263.627C319.166 260.526 320.545 257.505 321.925 254.483C323.177 251.755 324.552 249.151 325.435 246.279C332.206 240.886 339.236 235.822 346.51 231.116C347.553 230.446 348.612 229.808 349.655 229.153C350.726 228.747 351.583 228.168 352.642 227.529C352.844 227.408 352.939 227.254 353.018 227.084C355.462 225.609 357.936 224.196 360.426 222.814C358.939 224.393 357.513 226.02 356.18 227.74C352.602 232.348 349.469 237.302 346.828 242.495C346.72 242.478 346.596 242.476 346.488 242.522C342.733 243.703 339.734 247.76 337.396 250.77C334.886 253.981 332.773 257.536 331.092 261.252C327.572 269.006 325.751 278.144 328.966 286.316C331.235 292.076 338.63 301.009 345.649 296.905C348.482 295.249 349.849 291.994 350.703 288.967C351.927 284.642 352.581 280.14 352.834 275.664C353.108 270.615 352.841 265.545 351.986 260.576C351.551 258.061 350.883 255.62 350.293 253.149C349.718 250.725 349.592 248.198 349.543 245.702C349.531 245.423 349.409 245.236 349.241 245.11C349.383 244.833 349.51 244.54 349.653 244.247C352.2 239.162 355.223 234.331 358.691 229.814C360.433 227.556 362.283 225.346 364.162 223.213C365.368 221.848 367.163 220.396 368.094 218.687C368.732 218.353 369.37 218.004 370.008 217.671C373.958 215.624 377.938 213.624 381.979 211.748C386.191 209.797 390.599 208.252 394.69 206.098C395.437 205.595 395.3 204.106 394.261 204.342Z" fill="#A5AA9C"/>
</g>
<g clip-path="url(#clip3_9_352)">
<path d="M45.8785 162.354C59.9142 168.35 75.0607 170.43 90.2471 169.772C105.944 169.096 121.361 165.609 136.572 161.846C142.247 160.438 147.905 159.011 153.555 157.492C159.962 157.035 166.331 156.102 172.676 155.039C177.226 154.292 181.751 153.433 186.268 152.483C187.281 152.519 188.297 152.537 189.312 152.555C169.817 162.545 150.424 173.109 133.944 187.675C128.804 192.229 124.004 197.165 119.671 202.496C118.793 203.564 119.53 205.497 121.06 205.298C147.118 202.027 168.915 185.325 186.458 166.785C191.97 160.963 197.476 155.031 202.37 148.707C218.689 144.608 234.783 139.559 250.535 133.637C248.977 134.778 247.437 135.921 245.899 137.046C240.154 141.317 234.585 145.806 229.174 150.513C218.251 160.024 208.073 170.379 198.778 181.482C193.463 187.834 188.45 194.419 183.741 201.218C182.903 202.418 183.562 204.069 185.128 204.038C201.077 203.716 215.749 193.807 227.807 184.218C240.917 173.797 252.315 161.211 261.316 147.096C263.853 143.099 266.186 138.97 268.311 134.747C269.992 131.438 271.638 128.126 272.726 124.591C290.422 116.806 307.625 107.861 324.179 97.8457C321.729 100.363 319.327 102.939 316.962 105.502C311.697 111.223 306.649 117.114 301.818 123.191C292.217 135.279 283.485 148.078 275.695 161.397C271.289 168.936 267.207 176.657 263.418 184.536C262.903 185.607 263.751 187.188 265.065 186.966C280.306 184.441 292.804 174.809 302.701 163.352C314.155 150.082 323.457 134.346 330.344 118.259C332.403 113.465 334.185 108.551 335.701 103.571C337.213 98.6276 338.579 93.6866 338.897 88.524C343.023 85.8053 347.082 83.0251 351.113 80.1691C358.509 74.9125 365.73 69.4192 372.791 63.7269C370.749 67.1781 368.757 70.6709 366.853 74.1914C362.798 81.6603 359.122 89.3332 355.689 97.105C348.87 112.563 343.211 128.545 338.77 144.858C336.248 154.126 334.027 163.482 332.25 172.921C332.048 173.954 333.186 175.202 334.261 174.664C341.836 170.953 347.414 164.683 352.331 157.979C357.804 150.499 362.686 142.593 366.899 134.323C371.225 125.848 374.827 117.004 377.69 107.935C380.22 99.9394 382.323 91.6977 383.168 83.3209C383.983 75.05 383.482 66.6922 380.37 58.9625C380.525 58.7065 380.663 58.4307 380.8 58.1728C381.893 58.1448 382.36 57.0138 382.085 56.0213C383.944 54.4402 385.787 52.8393 387.615 51.2185C391.59 47.7024 395.67 44.2157 399.235 40.2921C400.697 38.6866 398.435 35.8997 396.663 37.3448C390.427 42.4534 384.611 48.0613 378.538 53.3509C375.191 51.7013 371.467 50.6835 367.876 49.771C363.154 48.5734 358.332 47.8011 353.497 47.3181C343.948 46.4017 334.314 46.6208 324.767 47.3762C306.553 48.8181 288.139 51.4558 270.761 57.2938C261.13 60.5296 251.894 64.9889 243.442 70.6045C241.878 71.6358 242.505 73.9199 244.204 74.3386C279.298 83.1953 316.915 81.5841 351.072 69.5531C355.754 67.9117 360.368 66.0632 364.908 64.0433C365.424 63.8079 365.94 63.5726 366.456 63.3373C362.364 66.5865 358.209 69.7562 354.007 72.8482C346.986 77.9996 339.824 82.9361 332.521 87.6756C295.769 87.9987 259.036 90.3409 222.547 94.8169C217.759 95.4112 212.931 95.8739 208.183 96.7812C203.843 97.6053 199.577 98.9279 196.177 101.833C195.137 102.721 194.743 104.859 196.407 105.438C229.924 117.305 266.925 117.536 300.674 106.442C285.929 114.325 270.73 121.36 255.186 127.541C254.383 127.073 253.55 126.711 252.487 126.451C250.702 125.987 248.913 125.559 247.106 125.128C243.509 124.288 239.905 123.501 236.292 122.804C229.157 121.402 221.992 120.287 214.781 119.422C200.306 117.686 185.697 117.025 171.115 117.476C162.821 117.73 154.541 118.367 146.299 119.317C145.342 119.433 144.282 120.336 144.494 121.413C145.246 125.237 148.582 126.649 152.047 127.548C156.094 128.601 160.151 129.563 164.232 130.474C172.517 132.327 180.888 133.898 189.326 135.004C203.464 136.831 217.841 137.449 232.039 136.012C223.087 139.011 214.057 141.73 204.931 144.148C200.686 145.273 196.397 146.302 192.13 147.298C185.415 144.687 178.381 142.859 171.503 140.758C163.764 138.382 156.008 136.005 148.269 133.629C135.869 129.826 122.682 126.411 109.894 130.453C108.334 130.939 108.195 133.25 109.666 133.935C129.365 143.192 150.572 149.231 172.217 151.537C169.228 152.125 166.246 152.658 163.262 153.21C163.142 153.143 162.982 153.107 162.817 153.126C161.453 153.307 160.101 153.543 158.752 153.762C158.734 153.76 158.716 153.758 158.7 153.738C158.262 153.582 157.879 153.595 157.424 153.601C156.786 153.623 156.182 153.667 155.54 153.725C154.347 153.834 153.142 153.886 151.953 153.795C150.726 153.717 149.54 153.426 148.319 153.295C147.313 153.187 146.355 152.975 145.414 153.274C138.844 152.369 132.131 152.447 125.523 151.901C118.247 151.301 110.995 150.486 103.737 149.888C90.9326 148.84 78.025 148.581 65.3835 151.257C58.4488 152.729 51.7768 155.138 45.7139 158.811C44.3583 159.592 44.4719 161.749 45.8785 162.354ZM368.742 79.2641C370.947 75.14 373.205 71.0396 375.548 66.9848C376.551 65.2573 377.624 63.5555 378.661 61.8498C382.647 75.4879 379.805 90.1009 375.897 103.491C370.833 120.863 362.927 137.476 352.61 152.34C348.008 158.987 342.883 165.941 335.913 170.28C342.304 138.514 353.448 107.821 368.742 79.2641ZM365.397 60.8432C361.302 62.6021 357.153 64.1916 352.945 65.6476C344.569 68.5276 335.984 70.8218 327.268 72.466C309.8 75.7686 292.012 76.9654 274.27 75.3689C266.064 74.633 257.923 73.3044 249.889 71.4785C263.677 63.3653 279.305 58.5931 294.954 55.6583C303.668 54.0321 312.491 52.9082 321.319 52.0756C330.716 51.195 340.215 50.707 349.629 51.3546C354.841 51.7145 360.016 52.4156 365.107 53.562C368.46 54.3218 371.665 55.4292 374.893 56.5027C374.873 56.5187 374.853 56.5348 374.813 56.5668C371.669 57.9371 368.578 59.4768 365.397 60.8432ZM335.456 91.8067C335.641 91.6085 335.754 91.4026 335.813 91.1909C336.022 90.9407 336.162 90.6469 336.215 90.3255C336.332 90.2473 336.45 90.169 336.585 90.0927C335.55 93.4703 334.709 96.9051 333.708 100.305C332.37 104.813 330.784 109.258 328.991 113.608C325.493 122.154 321.302 130.389 316.565 138.294C308.71 151.387 299.491 164.479 287.127 173.708C281.38 177.997 274.954 181.323 267.999 182.992C281.092 156.652 297.747 132.166 317.477 110.354C323.252 103.942 329.502 98.0176 335.456 91.8067ZM280.356 108.185C262.835 111.3 244.739 111.646 227.149 108.975C218.64 107.68 210.223 105.704 202.046 103.009C207.958 100.064 215.456 99.9427 221.753 99.1653C230.755 98.0607 239.781 97.0857 248.828 96.2403C267.017 94.5232 285.263 93.2847 303.529 92.539C310.975 92.2302 318.407 92.0472 325.851 91.9199C323.845 93.1763 321.823 94.4128 319.785 95.6294C315.316 97.657 310.8 99.6069 306.133 101.286C297.741 104.31 289.118 106.618 280.356 108.185ZM265.449 127.734C266.703 127.215 267.94 126.694 269.197 126.156C268.294 127.967 267.443 129.802 266.522 131.611C264.68 135.229 262.7 138.778 260.566 142.237C256.273 149.226 251.454 155.868 246.098 162.088C235.594 174.297 223.052 185.016 209.057 193.016C202.669 196.673 195.782 199.567 188.46 200.416C204.445 178.111 223.734 158.196 245.609 141.612C252.058 136.708 258.893 132.445 265.449 127.734ZM219.424 133.367C203.584 133.519 187.785 131.422 172.279 128.285C167.959 127.404 163.665 126.452 159.398 125.412C157.274 124.893 155.149 124.374 153.029 123.819C152.268 123.629 151.062 123.354 150.059 122.883C177.518 120.108 205.346 121.17 232.486 126.102C236.46 126.82 240.407 127.625 244.344 128.52C245.993 128.897 247.667 129.386 249.328 129.819C248.627 130.089 247.908 130.357 247.206 130.627C245.534 130.974 243.865 131.285 242.167 131.539C234.622 132.6 227.062 133.297 219.424 133.367ZM193.711 154.227C191.341 156.844 188.988 159.462 186.552 162.017C181.781 167.028 176.893 171.936 171.695 176.52C162.423 184.701 152.06 191.874 140.595 196.62C135.614 198.684 130.469 200.239 125.184 201.234C140.134 184.342 159.547 172.236 179.321 161.676C184.082 159.135 188.886 156.689 193.711 154.227ZM116.338 132.871C127.075 131.353 138.172 134.598 148.401 137.641C155.866 139.86 163.327 142.115 170.772 144.35C175.629 145.816 180.47 147.427 185.375 148.789C185.189 148.824 185.002 148.876 184.816 148.911C161.234 147.905 137.888 142.49 116.338 132.871ZM123.948 156.075C131.511 156.705 139.479 157.615 146.922 155.816C147.061 155.868 147.199 155.937 147.339 155.988C137.14 158.255 127.032 161.021 116.794 162.974C101.954 165.814 86.6696 167.389 71.5975 165.461C64.7339 164.579 58.0034 162.966 51.6125 160.39C74.2034 149.824 99.8387 154.049 123.948 156.075Z" fill="#E6D1C7"/>
</g>
<g clip-path="url(#clip4_9_352)">
<path d="M409.5 300.981C406.78 309.374 403.912 317.664 400.87 325.855C383.411 317.175 363.889 314.048 344.602 317.721C321.828 322.046 302.166 335.608 280.212 342.481C279.179 342.796 278.936 344.473 280.029 344.924C297.396 351.937 319.593 356.812 340.914 356.09C321.814 373.361 306.003 393.487 293.148 415.778C292.713 416.53 293.393 417.574 294.257 417.471C294.663 417.423 295.04 417.356 295.447 417.309C295.545 417.421 295.713 417.494 295.88 417.412C295.997 417.339 296.088 417.271 296.209 417.223C334.379 412.542 370.158 389.217 388.753 355.71C377.841 380.295 364.931 403.865 349.101 426.198C347.942 427.831 346.719 429.399 345.551 430.982C345.138 430.849 344.656 430.91 344.288 431.313C328.701 447.201 305.808 455.486 285.219 462.736C281.383 445.284 272.721 426.523 257.625 425.944C256.634 425.915 255.636 425.991 254.656 426.167C250.623 411.809 235.396 380.906 215.862 393.305C211.744 395.937 208.938 399.085 204.103 400.472C203.413 400.673 195.937 400.643 193.737 401.531C190.809 402.705 189.836 403.061 188.24 406.017C183.927 413.919 187.16 424.404 191.715 431.567C188.312 430.961 184.958 430.915 181.648 431.691C159.17 436.948 175.698 461.086 164.29 473.528C154.991 483.699 152.974 493.987 155.692 502.906C145.995 493.686 135.07 487.019 122.283 482.397C121.393 482.065 120.117 482.76 120.551 483.875C128.215 502.712 138.549 520.239 151.829 535.683C162.157 547.692 175.2 561.961 192.495 559.475C192.618 559.583 192.716 559.694 192.839 559.802C172.643 562.601 152.903 560.861 133.359 555.303C133.332 555.152 133.28 555.006 133.207 554.889C133.173 554.844 133.139 554.798 133.13 554.748C134.259 554.104 133.626 552.171 132.349 552.711C132.202 552.763 132.056 552.816 131.939 552.888C122.781 538.44 110.213 526.523 95.2416 518.121C76.5212 507.62 53.9341 506.78 36.1027 494.876C35.1884 494.263 33.9231 495.449 34.3045 496.417C41.5526 514.525 50.0912 533.464 66.8602 544.653C68.4516 545.714 70.1003 546.662 71.7652 547.555C58.7682 548.698 46.8106 552.739 35.5134 559.589C34.8137 560.025 34.9233 561.068 35.612 561.437C67.6666 578.302 104.003 584.782 131.96 556.902C132.414 556.975 132.84 556.744 133.112 556.384C147.192 561.266 161.565 563.452 176.131 563.245C162.496 563.725 148.654 564.787 135.961 570.073C122.959 575.519 112.633 585.175 102.392 594.583C101.612 595.293 102.383 596.554 103.305 596.492C132.83 594.945 166.868 589.788 184.825 563.419C184.965 563.186 184.874 562.969 184.696 562.846C188.127 562.592 191.589 562.229 195.049 561.711C195.074 561.707 195.12 561.673 195.145 561.668C197.454 563.404 199.958 564.924 202.274 566.555C210.256 572.144 210.588 576.879 214.813 584.801C221.848 597.972 238.959 591.865 247.923 584.009C264.438 569.535 271.273 545.502 271.193 523.98C275.253 520.737 278.515 516.082 281.036 510.913C291.247 498.453 301.985 486.468 312.659 474.417C306.465 498.699 302.871 523.446 301.662 548.334C301.646 548.389 301.596 548.398 301.61 548.473C301.619 548.524 301.603 548.578 301.612 548.629C301.367 548.569 301.077 548.543 300.819 548.693C265.908 567.898 252.895 605.766 248.339 643.203C248.327 643.283 248.316 643.363 248.304 643.443C248.267 643.812 248.204 644.186 248.167 644.556C248.064 645.429 248.937 646.102 249.733 645.622C276.908 628.688 295.835 600.927 301.277 569.862C301.398 585.26 302.455 600.671 304.409 616.024C304.368 616.084 304.327 616.143 304.286 616.202C303.931 616.395 303.709 616.746 303.651 617.145C278.587 654.924 304.399 698.826 329.47 729.229C329.518 729.35 329.566 729.471 329.613 729.592C329.752 729.93 330.023 730.141 330.297 730.221C330.463 730.424 330.634 730.653 330.825 730.852C331.486 731.64 333.068 731.641 333.233 730.393C336.332 708.378 338.142 685.248 336.263 662.806C348.678 675.606 364.939 681.366 381.737 686.796C382.782 687.127 383.374 685.802 382.948 685.023C366.702 655.522 347.249 610.919 306.079 615.932C305.999 615.635 305.799 615.386 305.5 615.31C303.19 591.624 302.97 568.028 304.671 544.58C314.03 574.438 337.834 596.776 361.421 616.173C362.303 616.895 363.618 616.27 363.595 615.134C362.991 592.282 361.702 569.086 349.263 549.37C362.669 560.464 377.891 569.831 392.029 578.357C392.875 578.878 394.193 577.838 393.736 576.884C375.485 539.113 364.349 483.634 316.576 472.832C316.117 472.733 315.761 473.057 315.648 473.44C315.706 472.755 315.285 472.287 314.717 472.156C329.049 455.923 343.119 439.531 355.402 421.567C368.917 401.801 381.027 380.707 391.137 358.728C388.739 379.166 381.234 398.603 379.64 419.181C378.239 437.082 386.038 450.167 388.349 467.219C388.547 468.609 390.434 469.151 391.152 467.804C410.494 430.949 417.011 386.526 395.359 349.314C402.047 333.703 407.681 317.712 412.045 301.431C412.269 299.939 409.964 299.524 409.5 300.981ZM48.5234 504.384C60.2816 508.905 72.8631 510.791 84.4763 515.805C95.9755 520.762 106.543 528.038 115.442 536.857C116.424 537.846 129.371 551.873 128.679 552.645C128.551 552.797 116.765 545.378 115.459 544.602C103.802 537.471 92.3795 529.909 80.5007 523.128C68.305 516.171 51.9943 512.442 42.545 501.571C45.07 502.775 47.9371 504.152 48.5234 504.384ZM40.1882 559.189C41.0494 552.867 68.6959 549.817 75.1154 549.311C89.1094 555.738 105.104 556.985 120.587 556.976C94.4829 564.568 67.4606 561.131 40.2759 559.821C40.2353 559.595 40.1696 559.374 40.1882 559.189ZM68.3075 572.485C64.2112 571.485 44.5631 566.359 40.8461 561.118C69.9804 564.617 100.356 567.66 128.115 556.867C128.556 556.865 128.992 556.839 129.408 556.842C112.331 571.08 90.4141 577.868 68.3075 572.485ZM126.05 555.191C95.8961 554.389 67.1316 550.927 49.4917 522.765C46.1425 517.406 40.798 509.892 39.8894 503.68C39.7521 502.772 37.8559 500.158 38.5466 499.671C38.5466 499.671 38.8294 499.802 39.2559 500.011C39.2373 500.195 39.2733 500.396 39.4144 500.604C49.0075 513.574 66.2092 517.066 79.707 524.774C96.0668 534.118 111.485 545.005 127.709 554.607C127.12 554.791 126.585 554.991 126.05 555.191ZM116.664 584.658C125.073 577.757 134.146 572.24 144.735 569.248C145.672 568.976 176.751 565.828 177.049 565.179C176.62 566.111 167.621 569.438 167.358 569.563C161.978 571.955 156.575 574.222 151.017 576.205C136.025 581.543 119.991 583.542 107.44 593.805C106.777 591.851 117.84 583.695 116.664 584.658ZM183.943 562.981C168.236 580.368 148.587 588.952 125.586 592.307C123.186 592.661 113.753 594.874 109.438 594.535C119.784 586.43 132.078 584.118 144.441 580.315C157.323 576.368 169.504 570.681 181.675 564.943C182.585 564.521 182.438 563.122 181.326 563.14C182.202 563.112 183.07 563.034 183.943 562.981ZM324.418 718.864C320.757 714.079 317.208 709.197 313.933 704.11C297.534 678.524 289.838 647.668 304.134 619.832C313.981 653.126 314.884 688.468 326.278 721.277C325.74 720.596 325.13 719.798 324.418 718.864ZM333.648 668.173C334.472 684.456 334.023 700.863 332.189 717.079C331.586 722.526 331.133 724.914 329.875 724.699C320.785 700.521 317.901 674.942 313.349 649.611C312.415 644.414 311.431 639.227 310.276 634.096C308.813 627.543 303.498 617.017 315.491 620.823C332.431 626.176 332.953 653.915 333.648 668.173ZM368.683 664.237C371.246 668.83 374.322 673.538 376.36 678.381C377.584 681.296 377.652 682.684 376.977 683.116C361.962 669.85 347.779 656.02 335.098 640.443C334.33 639.492 332.677 640.541 333.474 641.512C345.955 656.84 359.769 671.073 375.404 683.165C373.311 682.634 369.836 680.615 366.412 679.313C354.822 674.865 344.332 669.027 335.856 659.821C335.461 655.745 334.97 651.713 334.298 647.687C332.076 634.455 325.586 621.86 313.42 617.671C339.513 620.265 356.372 642.062 368.683 664.237ZM253.974 619.566C256.077 610.481 258.978 601.511 262.906 593.057C268.048 581.974 275.015 571.522 283.993 563.171C285.391 561.857 297.506 551.621 298.213 553.101C299.372 555.51 291.642 567.343 290.365 569.905C278.388 593.903 264.949 617.128 250.456 639.687C248.855 636.839 253.315 622.536 253.974 619.566ZM275.57 619.651C272.197 623.834 257.899 640.397 252.197 640.566C270.734 612.227 287.158 582.661 301.312 551.87C299.661 576.605 291.263 600.168 275.57 619.651ZM193.45 431.981C186.603 420.15 186.052 408.276 200.671 403.602C205.086 402.187 208.17 401.451 212.241 399.424C221.188 394.94 229.577 392.836 238.023 400.001C245.858 406.652 249.742 417.15 252.748 426.665C247.075 428.436 242.289 433.416 240.19 438.769C240.137 438.908 240.11 439.043 240.057 439.182C237.421 432.451 233.823 425.997 229.367 420.396C231.568 419.508 232.55 416.17 232.176 414.087C231.572 410.723 228.226 408.991 225.024 410.085C221.722 411.196 219.602 414.843 221.129 418.145C222.388 420.821 225.706 422.687 228.629 421.773C232.82 428.354 236.353 435.027 239.143 442.326C238.218 446.847 238.806 451.276 240.265 455.497C238.418 455.181 236.437 455.848 235.333 457.498C235.272 457.301 235.14 457.144 234.962 457.02C223.87 449.71 208.507 435.521 193.45 431.981ZM223.34 418.033C221.922 415.773 223.081 413.129 225.508 412.201C227.643 411.377 229.851 412.405 230.069 414.776C230.277 416.942 229.089 417.984 227.495 419.074C226.871 419.497 227.128 420.203 227.668 420.468C225.958 420.335 224.325 419.618 223.34 418.033ZM156.846 498.5C155.656 488.555 159.546 482.492 166.124 475.505C168.845 472.606 171.365 471.039 172.486 467.028C173.455 463.614 172.671 459.971 172.162 456.564C170.483 444.763 174.715 432.807 189.163 434.254C204.671 435.822 221.135 450.512 234.043 458.688C234.28 458.853 234.515 458.863 234.711 458.802C234.359 460.161 234.68 461.658 235.463 462.839C232.258 462.326 228.845 463.976 227.676 467.141C227.554 467.473 227.483 467.797 227.416 468.146C219.489 463.584 211.099 460.919 202.067 459.873C202.324 456.976 200.335 454.275 197.484 453.569C194.419 452.824 191.702 455.023 191.088 457.958C190.474 460.893 192.075 464.026 195.195 464.502C197.706 464.906 200.718 463.484 201.514 460.983C201.681 460.901 201.818 460.799 201.916 460.625C210.976 462.107 219.46 465.3 227.384 469.992C227.599 472.052 228.777 473.992 230.517 475.156C227.523 475.383 224.762 477.771 224.376 480.821C223.927 484.53 226.913 487.725 230.484 487.964C231.064 488.016 231.082 487.105 230.543 486.995C227.777 486.326 225.411 483.693 225.965 480.717C226.504 477.795 229.231 476.372 231.989 476.421C232.405 476.424 232.568 476.032 232.48 475.685C232.72 475.434 232.778 475.035 232.351 474.827C229.687 473.569 227.895 470.522 228.979 467.606C230.063 464.69 233.308 463.407 236.19 464.289C236.628 464.418 236.88 464.087 236.892 463.722C237.041 463.54 237.097 463.271 236.876 463.052C233.909 460.112 237.078 455.37 240.812 456.954C242.286 460.68 244.378 464.243 246.615 467.599C248.114 481.428 236.255 491.644 236.079 505.1C236.003 505.113 235.898 505.106 235.832 505.17C233.963 506.75 230.852 507.05 229.094 505.059C227.076 502.778 228.515 499.669 230.564 498.083C230.747 497.946 230.786 497.732 230.78 497.552C231.062 497.242 230.908 496.674 230.382 496.638C229.647 496.589 228.901 496.334 228.279 495.902C228.282 495.487 228.004 495.096 227.511 495.237C226.932 494.615 226.532 493.832 226.534 492.976C226.495 490.884 228.375 489.509 230.287 489.321C230.999 489.245 231.153 488.077 230.388 488.008C227.628 487.804 225.02 490.035 224.959 492.87C224.947 493.961 225.304 494.933 225.918 495.756C218.224 498.408 210.474 499.879 202.337 500.356C201.617 498.516 199.73 497.248 197.682 497.253C195.033 497.237 193.096 499.451 193.065 502.022C193.021 504.518 194.747 506.903 197.347 507.083C200.002 507.28 202.68 505.296 202.819 502.602C202.835 502.262 202.623 502.093 202.375 502.008C202.512 501.905 202.64 501.753 202.625 501.522C202.602 501.397 202.579 501.271 202.557 501.146C210.916 501.328 219.262 499.854 227.048 496.849C227.582 497.219 228.152 497.506 228.775 497.653C226.202 499.359 225.677 503.652 227.507 506.044C229.538 508.685 233.794 508.983 236.162 506.718C236.266 508.306 236.475 509.901 236.937 511.606C236.993 511.777 237.045 511.923 237.098 512.069C237.038 512.028 236.958 512.017 236.867 512.085C227.063 518.874 210.827 520.755 199.423 527.443C181.42 526.712 159.327 519.383 156.846 498.5ZM199.997 460.193C200.006 460.243 200.02 460.318 200.029 460.368C199.185 461.738 197.82 462.657 196.09 462.553C193.994 462.438 192.859 460.594 193.178 458.619C193.479 456.829 194.941 455.296 196.856 455.704C198.712 456.07 200.242 457.946 199.964 459.862C199.948 459.917 199.977 459.937 199.961 459.992C199.97 460.042 199.958 460.122 199.997 460.193ZM201.125 501.118C201.266 501.326 201.403 501.508 201.498 501.75C201.551 501.897 201.644 501.983 201.758 502.041C201.591 502.122 201.438 502.28 201.373 502.498C200.947 504.311 199.357 505.712 197.419 505.464C195.666 505.234 194.83 503.467 195.082 501.841C195.548 498.803 199.069 498.766 200.779 500.636C200.685 500.834 200.785 501.101 201.075 501.127C201.075 501.127 201.1 501.122 201.125 501.118ZM129.258 487.727C139.526 490.598 149.112 498.905 156.866 506.116C161.605 516.615 173.047 524.718 186.535 527.607C186.325 527.878 186.287 528.248 186.613 528.474C187.71 529.236 188.875 529.804 189.828 530.773C190.691 531.681 191.28 532.793 191.697 533.962C190.06 535.967 188.742 538.303 187.857 541.027C187.538 541.992 187.323 542.963 187.179 543.896C166.101 526.044 146.499 507.46 127.679 487.311C128.092 487.444 128.63 487.554 129.258 487.727ZM197.433 528.785C195.56 530.054 193.874 531.498 192.405 533.135C191.818 531.167 190.601 529.157 188.875 528.068C191.68 528.523 194.529 528.789 197.433 528.785ZM135.887 510.041C132.989 505.171 130.324 500.156 127.901 495.045C125.797 490.551 122.884 487.187 125.725 487.117C143.004 508.943 163.564 528.962 185.977 545.434C186.278 545.665 186.614 545.656 186.881 545.556C186.517 550.313 188.071 554.776 191.485 558.62C191.49 558.645 191.515 558.64 191.519 558.666C166.771 558.214 147.377 529.382 135.887 510.041ZM250.87 576.016C243.756 584.784 230.999 594.047 220.84 585.869C215.591 581.629 215.92 575.661 211.593 570.634C209.297 567.962 206.278 566.173 203.453 564.166C200.091 561.764 196.211 559.948 193.659 556.571C186.396 547.043 191.415 536.864 199.352 530.513C210.418 521.657 226.081 521.927 237.179 512.521C237.225 512.487 237.241 512.433 237.261 512.403C238.184 515.373 239.667 518.139 241.598 520.513C237.253 524.196 233.155 528.094 228.424 531.354C222.565 535.413 216.319 538.764 209.76 541.523C209.735 541.528 209.719 541.583 209.694 541.587C208.566 540.65 206.92 540.297 205.472 540.609C202.65 541.22 201.593 544.286 202.812 546.737C204.073 549.283 207.244 550.476 209.609 548.625C211.547 547.137 212.179 544.302 210.923 542.221C222.274 537.694 234.498 531.092 242.798 521.852C245.814 525.068 249.718 527.45 254.207 528.328C254.8 528.455 255.41 528.527 255.99 528.578C252.798 537.522 249.14 545.747 243.862 553.614C243.714 553.512 243.586 553.379 243.438 553.276C243.235 553.157 243.03 553.168 242.858 553.225C242.82 553.154 242.776 553.058 242.667 553.026C239.526 551.569 235.622 553.229 234.387 556.457C233.204 559.546 235.124 562.726 238.03 563.888C240.827 565.018 243.987 563.984 245.329 561.203C246.504 558.789 246.116 555.62 244.108 553.829C249.667 546.222 254.355 537.813 257.033 528.753C257.028 528.728 257.028 528.728 257.024 528.703C261.46 528.995 265.383 527.875 268.81 525.73C267.485 543.617 262.311 561.884 250.87 576.016ZM209.485 544.035C209.594 544.352 209.801 544.496 210.041 544.531C209.611 547.044 206.339 548.902 204.636 545.917C202.534 542.303 208.372 540.581 209.485 544.035ZM243.023 555.294C243.064 555.235 243.105 555.176 243.146 555.117C245.733 558.254 243.588 563.926 238.932 562.119C237.008 561.377 235.485 559.396 236.118 557.286C236.879 554.74 239.851 553.376 242.278 554.184C242.333 554.2 242.354 554.171 242.404 554.162C242.427 554.287 242.449 554.413 242.572 554.52C242.725 554.648 242.852 554.781 242.98 554.913C242.939 554.972 242.902 555.057 242.836 555.121C242.758 555.264 242.915 555.417 243.023 555.294ZM270.969 519.848C270.956 519.773 270.963 519.668 270.975 519.588C270.913 518.381 269.178 518.538 269.129 519.712C269.103 520.287 269.077 520.862 269.05 521.437C268.822 521.608 268.627 521.824 268.369 521.974C252.598 533.23 236.924 515.288 239.512 499.378C241.276 488.409 249.306 480.695 248.695 469.791C249.013 469.682 249.24 469.356 248.996 469.011C248.855 468.803 248.709 468.57 248.564 468.337C248.494 467.806 248.424 467.274 248.33 466.747C248.23 466.194 247.642 466.093 247.203 466.249C245.292 463.12 243.639 459.841 242.517 456.337C241.748 453.935 241.036 449.683 241.18 445.433C241.658 445.347 242.097 444.906 241.909 444.291C241.739 443.778 241.569 443.264 241.373 442.755C241.843 439.017 243.118 435.574 245.816 433.845C245.971 433.843 246.101 433.846 246.252 433.819C250.784 429.014 258.192 427.371 264.332 430.648C268.32 432.782 271.302 436.237 273.762 439.968C275.109 441.98 275.716 444.204 275.802 446.417C277.041 448.838 278.205 451.272 279.197 453.763C285.137 468.633 286.691 485.51 281.771 500.855C279.618 507.643 276.296 514.848 270.969 519.848ZM359.808 611.668C358.94 612.032 352.609 605.524 351.9 604.9C331.538 586.997 314.609 566.974 304.95 541.369C304.907 541.273 304.822 541.236 304.759 541.17C305.893 526.842 307.793 512.584 310.348 498.364C310.698 515.327 316.81 530.867 324.327 546.284C335.148 568.544 346.719 590.644 360.021 611.552C359.945 611.566 359.904 611.625 359.808 611.668ZM359.283 588.102C359.932 593.738 361.471 601.288 360.602 606.99C360.474 607.868 360.764 608.905 360.821 609.802C350.438 592.723 341.274 575.063 332.262 557.245C322.562 538.049 312.527 518.575 312.607 496.792C317.535 517.001 330.27 533.165 345.91 546.733C345.423 547.054 345.15 547.699 345.573 548.323C353.728 560.36 357.609 573.734 359.283 588.102ZM325.587 477.796C328.092 478.46 330.675 480.277 332.887 481.616C346.623 489.928 356.89 502.752 364.547 516.64C372.209 530.554 377.454 545.601 383.484 560.248C384.64 563.072 386.458 566.115 387.221 569.062C387.384 569.68 387.524 570.173 387.665 570.666C367.671 548.603 349.205 525.228 333.015 500.226C329.428 494.702 323.486 488.047 321.598 481.726C320.148 476.83 318.634 475.91 325.587 477.796ZM315.539 474.133C336.973 508.974 359.796 542.165 387.226 572.559C387.067 572.536 386.928 572.483 386.743 572.465C381.148 571.786 373.084 564.008 368.276 560.778C341.453 542.714 319.321 519.868 312.395 487.526C313.337 482.951 314.354 478.363 315.426 473.791C315.473 473.912 315.471 474.042 315.539 474.133ZM283.722 504.21C286.036 497.601 287.282 490.82 287.538 485.462C287.795 480.103 287.155 472.21 285.406 463.92C303.595 459.771 323.99 451.442 339.137 439.313C321.451 461.564 301.116 481.778 283.722 504.21ZM297.498 412.845C296.853 411.277 304.097 402.226 304.876 401.076C316.042 384.401 329.369 369.645 344.129 356.083C344.174 356.049 344.191 355.994 344.232 355.935C358.315 355.063 371.867 351.669 383.281 344.746C357.769 370.788 329.377 393.797 299.216 414.325C298.424 414.104 297.823 413.642 297.498 412.845ZM381.918 421.753C382.712 403.651 389.62 386.523 392.244 368.792C392.433 370.417 392.61 371.836 392.628 372.662C392.971 381.93 393.083 391.214 393.01 400.479C392.836 420.154 391.591 439.788 389.531 459.361C386.458 446.878 381.316 435.44 381.918 421.753ZM391.932 459.008C395.527 423.583 396.2 388.062 393.808 352.521C393.955 352.184 394.122 351.817 394.269 351.479C411.232 386.553 407.524 424.382 391.932 459.008ZM330.737 405.266C323.759 408.438 316.438 410.997 308.972 412.753C306.632 413.303 303.086 414.64 300.503 414.56C334.58 393.743 364.769 368.027 391.704 338.646C393.365 337.207 394.958 335.677 396.477 334.03C384.233 365.204 361.762 391.14 330.737 405.266ZM321.225 353.046C317.017 352.584 287.726 346.91 285.584 344.082C323.767 344.529 360.99 337.038 398.176 329.19C379.185 349.81 348.362 355.97 321.225 353.046ZM379.582 331.235C349.063 337.781 318.352 342.833 287.069 342.389C291.676 339.877 304.531 335.779 306.684 334.77C312.96 331.88 319.189 328.869 325.625 326.288C341.065 320.119 357.097 317.393 373.655 319.757C377.41 320.3 397.423 325.723 397.054 326.411C395.298 329.629 382.856 330.543 379.582 331.235Z" fill="#FAF2EE"/>
<path d="M205.64 571.859C194.422 585.07 184.097 600.22 176.642 615.89C176.584 616.004 176.602 616.105 176.616 616.18C176.334 616.775 176.047 617.345 175.765 617.94C175.735 617.919 175.701 617.874 175.646 617.857C152.251 611.799 120.361 614.471 110.659 640.885C109.426 644.268 108.737 647.943 108.679 651.659C90.063 656.611 73.7916 668.112 63.8767 684.821C60.7116 690.158 57.1432 697.148 60.3261 703.315C61.7197 706.018 63.6668 706.317 65.5894 708.355C70.5782 713.601 73.0955 717.217 74.4616 724.099C74.8295 726.002 75.0332 727.857 75.6273 729.72C80.4946 745.405 98.7991 743.775 110.862 737.72C117.477 734.407 123.15 729.889 128.15 724.663C121.964 742.49 120.504 768.719 135.838 781.306C142.135 786.472 149.98 787.835 157.492 784.749C164.303 781.945 167.983 777.888 175.768 777.474C183.729 777.029 190.545 779.743 198.353 780.18C217.191 781.227 227.472 763.96 224.935 746.664C224.683 744.973 224.331 743.3 223.953 741.631C232.323 746.062 247.609 751.453 255.489 743.481C259.331 739.603 258.883 733.645 259.186 728.692C259.826 718.393 261.943 712.855 267.797 704.728C269.98 701.719 272.31 700.108 273.696 696.412C284.349 667.935 230.875 651.964 212.396 649.013C212.046 648.946 211.763 649.101 211.589 649.288C206.531 635.14 190.961 623.554 177.203 618.873C178.753 616.237 180.298 613.575 181.674 610.84C181.809 610.582 181.794 610.352 181.753 610.126C190.14 597.76 198.49 585.479 207.317 573.398C208.171 572.233 206.603 570.727 205.64 571.859ZM220.508 763.164C213.622 779.121 200.321 777.417 186.25 774.891C181.934 774.112 177.495 773.225 173.109 773.935C163.936 775.428 156.773 784.645 146.901 783.257C121.153 779.694 125.993 740.081 130.705 721.845C139.543 711.705 146.142 699.35 151.98 687.52C152.475 686.524 150.993 685.78 150.463 686.73C142.045 701.952 133.915 718.055 120.001 729.107C113.234 734.469 104.067 739.745 95.1569 739.817C81.5846 739.923 79.1186 730.674 76.6513 719.973C73.6118 706.81 58.9755 697.674 68.7397 683.014C78.3389 668.591 92.4444 658.748 108.732 653.256C108.892 659.343 110.756 665.384 114.709 670.064C118.13 674.088 122.229 675.969 126.621 676.45C117.416 681.81 108.585 688.813 102.138 697.253C99.675 694.949 96.6024 693.583 93.3257 695.701C90.2319 697.682 89.3346 701.782 91.6251 704.714C93.6514 707.33 97.5674 708.337 100.328 706.234C102.016 704.946 103.083 702.655 102.926 700.481C103.599 700.334 104.125 699.358 103.503 698.641C103.366 698.458 103.184 698.309 103.052 698.152C111.281 689.676 119.705 682.279 130.189 676.534C132.735 676.414 135.34 675.894 137.899 675.123C137.732 676.941 138.763 678.777 140.434 679.851C143.188 681.61 146.296 680.43 148.944 678.995C148.941 679.125 148.943 679.281 148.94 679.411C141.231 684.865 134.38 691.486 129.008 699.267C127.65 698.345 125.744 697.987 124.282 698.224C121.505 698.646 119.378 701.101 120.022 703.965C120.626 706.604 123.425 708.9 126.189 708.403C129.078 707.884 130.206 705.064 130.499 702.368C130.648 702.186 130.717 701.992 130.702 701.761C130.679 701.636 130.631 701.515 130.584 701.394C130.603 700.924 130.602 700.484 130.58 700.073C130.567 699.712 130.296 699.502 129.992 699.401C135.789 692.684 142.051 686.687 149.151 681.446C149.574 683.08 150.52 684.595 151.612 685.332C153.762 686.759 156.371 686.265 158.203 684.769C157.249 695.048 155.153 705.039 152.343 714.951C151.862 714.727 151.335 714.536 150.755 714.485C150.436 714.439 150.143 714.543 149.965 714.705C147.889 714.845 145.822 716.045 144.758 717.921C142.943 721.098 144.75 724.66 148.022 725.835C151.154 726.956 154.945 725.679 155.775 722.213C156.342 719.882 155.416 717.328 153.638 715.807C153.609 715.786 153.625 715.732 153.595 715.711C153.536 715.67 153.506 715.649 153.452 715.633C153.299 715.505 153.121 715.382 152.943 715.258C156.604 705.608 158.805 695.624 159.969 685.359C160.552 688.312 163.985 690.676 166.986 690.629C167.582 690.626 168.13 690.501 168.649 690.356C172.991 708.028 174.216 724.808 172.393 742.81C172.267 742.833 172.158 742.8 172.037 742.848C171.242 743.043 171.383 743.976 171.917 744.347C169.553 744.616 167.364 746.435 166.626 748.822C165.46 752.582 168.375 755.816 172.027 756.222C175.684 756.654 179.395 754.354 179.607 750.481C179.807 746.972 176.752 742.675 173.009 742.777C176.001 725.213 175.08 706.953 170.136 689.83C170.132 689.805 170.102 689.784 170.098 689.759C173.428 687.942 175.258 683.545 175.095 679.894C175.075 679.354 174.295 679.338 174.175 679.826C173.309 683.092 171.873 687.082 168.256 688.172C164.986 689.174 161.559 686.266 162.281 682.922C162.523 681.816 160.976 681.291 160.426 682.271C160.172 682.731 160.022 683.199 159.927 683.682C159.82 683.52 159.663 683.367 159.494 683.293C159.996 682.478 160.316 681.513 160.341 680.498C160.345 679.798 159.304 679.777 159.131 680.404C158.46 683.168 154.706 685.372 152.327 683.104C151.512 682.318 151.074 681.178 151.076 680.038C151.072 680.012 151.092 679.983 151.083 679.933C151.403 679.694 151.699 679.459 152.044 679.216C152.714 678.759 152.371 677.861 151.769 677.684C151.858 677.461 151.943 677.213 152.003 676.968C152.155 676.371 151.497 675.738 150.891 675.976C150.073 676.331 149.581 676.911 149.237 677.595C147.534 678.368 145.667 679.092 143.815 679.036C141.418 678.974 138.877 676.813 139.916 674.372C141.061 673.959 142.222 673.491 143.329 673.007C154.457 668.105 162.948 663.107 175.534 667.039C182.293 669.142 187.543 674.107 194.774 675.089C194.799 675.084 194.829 675.105 194.879 675.096C195.144 676.137 195.566 677.331 195.538 678.476C195.147 678.753 194.945 679.36 195.216 679.855C195.195 679.885 195.179 679.94 195.158 679.969C194.386 681.3 192.7 681.448 191.393 680.957C188.813 680.021 188.161 677.262 186.688 675.272C186.342 674.789 185.392 674.986 185.514 675.664C185.57 676.12 185.676 676.568 185.808 677.011C185.914 679.765 186.065 686.527 182.091 686.205C178.406 685.908 177.904 681.67 176.921 678.944C176.57 677.997 175.057 678.243 175.142 679.29C175.453 683.329 177.882 688.62 182.707 688.193C184.674 688.021 185.793 686.887 186.419 685.323C186.424 685.348 186.429 685.373 186.458 685.394C198.845 699.625 211.046 715.703 218.421 733.218C222.549 742.765 224.742 753.385 220.508 763.164ZM100.594 698.619C100.651 698.79 100.653 698.945 100.684 699.121C100.622 699.21 100.56 699.299 100.499 699.388C100.251 699.743 100.508 700.163 100.848 700.18C100.921 701.592 100.548 702.981 99.415 704.04C97.5847 705.69 94.8323 705.097 93.4026 703.202C91.9001 701.192 92.6615 698.645 94.7444 697.39C96.9897 696.027 98.9464 697.101 100.594 698.619ZM128.657 702.077C128.352 703.842 127.8 705.678 126.107 706.215C124.439 706.748 122.572 705.166 122.162 703.607C121.678 701.776 123.206 700.465 124.917 700.313C126.677 700.152 127.628 700.966 128.657 702.077ZM150.137 716.384C150.196 716.425 150.251 716.442 150.335 716.478C152.535 716.886 154.008 719.161 153.653 721.376C153.279 723.62 150.984 724.421 148.979 723.797C146.863 723.14 145.494 721.002 146.651 718.928C147.399 717.602 148.714 716.692 150.137 716.384ZM174.83 745.689C176.323 746.639 177.407 748.051 177.366 750.132C177.337 752.858 174.744 754.309 172.277 754C169.893 753.729 167.955 751.745 168.755 749.269C169.539 746.847 172.18 744.947 174.729 745.707C174.754 745.703 174.805 745.694 174.83 745.689ZM266.171 703.181C260.648 710.989 258.204 713.268 256.994 723.566C256.603 726.876 257.275 733.934 256.175 736.619C250.587 750.27 233.019 744.019 224.227 739.69C223.944 739.56 223.688 739.58 223.471 739.671C217.818 718.892 201.357 699.458 187.893 683.996C187.604 683.685 187.284 683.639 186.996 683.768C187.236 682.507 187.278 681.152 187.199 679.845C188.56 681.933 190.682 683.495 193.269 683.315C195.19 683.177 196.27 682.258 196.795 680.997C203.622 685.498 209.109 691.353 213.352 698.366C211.361 700.278 210.98 703.353 212.303 705.81C213.941 708.859 217.739 709.499 220.574 707.667C223.288 705.884 224.347 702.247 222.332 699.551C220.659 697.312 217.402 696.368 214.974 697.867C214.771 697.748 214.527 697.688 214.301 697.729C210.393 689.982 204.489 683.683 197.186 678.983C197.195 677.737 196.906 676.416 196.388 675.265C200.223 675.535 203.862 674.855 206.757 673.065C218.246 681.574 229.167 690.678 239.871 700.157C239.775 700.201 239.659 700.273 239.572 700.367C237.317 702.69 238.057 706.807 240.295 708.867C242.808 711.162 246.547 710.464 248.61 707.943C250.591 705.539 250.58 702.017 248.112 699.972C245.979 698.205 242.826 698.123 240.694 699.828C230.766 689.613 219.938 680.311 208.587 671.7C210.351 670.113 211.725 667.948 212.442 665.15C213.736 660.227 213.466 655.403 212.095 650.804C233.08 655.43 288.659 671.281 266.171 703.181ZM219.282 705.671C215.088 708.316 212.08 702.404 215.331 699.565C215.53 699.374 215.62 699.15 215.634 698.94C219.49 698.17 223.496 702.996 219.282 705.671ZM242.084 701.211C241.99 701.124 241.892 701.012 241.799 700.925C245.175 699.36 249.857 702.898 246.997 706.47C245.683 708.106 243.268 708.669 241.708 707.058C240.181 705.492 240.289 703.348 241.345 701.577C241.366 701.547 241.357 701.497 241.377 701.468C241.471 701.554 241.56 701.616 241.653 701.703C241.963 701.984 242.373 701.522 242.084 701.211ZM195.606 631.79C199.097 635.05 202.198 639.028 204.558 643.217C207.872 649.1 213.653 663.663 205.794 669.584C205.001 669.208 204.136 669.882 204.107 670.587C201.983 671.616 199.208 672.193 195.514 672.131C187.39 671.958 180.374 664.667 172.642 662.635C167.362 661.251 162.522 661.602 157.322 663.262C150.136 665.564 143.893 670.521 136.596 672.351C115.768 677.545 107.021 654.704 115.012 638.548C125.022 618.324 148.97 615.627 169.173 618.062C169.149 618.507 169.356 618.936 169.919 619.042C179.763 620.85 188.255 624.947 195.606 631.79Z" fill="#FAF2EE"/>
</g>
<g clip-path="url(#clip5_9_352)">
<path d="M175.145 325.691C176.615 329.031 182.095 327.171 182.925 324.271C183.225 323.221 182.695 322.331 181.895 321.731C181.275 321.261 180.435 321.121 179.675 321.131C178.725 321.141 177.935 321.451 177.095 321.841C175.685 322.481 174.445 324.091 175.145 325.691Z" fill="#5C5C5C"/>
<path d="M171.906 310.971C172.576 311.841 173.896 312.431 174.996 312.021C175.576 311.811 176.146 311.651 176.586 311.171C176.746 310.991 176.876 310.801 177.006 310.601C177.586 310.071 177.786 309.211 177.686 308.461C177.576 307.621 177.136 307.051 176.456 306.571C175.836 306.141 175.156 306.061 174.436 305.961C173.346 305.821 172.366 306.661 171.806 307.471C171.756 307.541 171.716 307.611 171.676 307.691C171.136 308.791 171.146 309.991 171.906 310.971Z" fill="#5C5C5C"/>
<path d="M186.626 310.121C186.826 311.151 187.866 311.691 188.806 311.781C189.626 311.851 190.296 311.641 191.026 311.281C191.076 311.251 191.106 311.241 191.136 311.221C191.176 311.211 191.206 311.211 191.276 311.191C191.526 311.131 191.786 311.081 192.036 311.011C194.016 310.481 196.006 308.321 194.756 306.201C193.446 303.971 190.576 304.211 188.776 305.611C187.276 306.781 186.246 308.121 186.626 310.121Z" fill="#5C5C5C"/>
<path d="M192.775 291.321C192.925 292.241 194.055 292.711 194.865 292.511C194.885 292.511 194.885 292.511 194.895 292.501C194.975 292.501 195.055 292.501 195.135 292.501C195.105 292.501 196.365 292.281 196.415 292.261C196.865 292.201 197.275 292.111 197.685 291.901C198.105 291.681 198.395 291.351 198.705 291.011C199.495 290.151 199.715 288.531 198.705 287.711C197.995 287.131 197.355 286.711 196.365 286.701C195.345 286.691 194.565 287.181 193.835 287.821C192.755 288.761 192.545 289.971 192.775 291.321Z" fill="#5C5C5C"/>
<path d="M176.705 293.971C176.945 294.081 177.175 294.191 177.415 294.291C178.235 294.661 178.985 294.851 179.895 294.611C180.165 294.541 180.425 294.431 180.695 294.341C181.785 293.961 182.775 293.181 183.045 291.991C183.245 291.111 183.175 290.191 182.705 289.401C182.275 288.671 181.505 288.081 180.695 287.851C179.435 287.501 178.385 287.941 177.415 288.721C176.745 289.261 176.095 289.831 175.935 290.741C175.875 291.061 175.845 291.401 175.805 291.721C175.685 292.531 175.845 293.571 176.705 293.971Z" fill="#5C5C5C"/>
<path d="M162.215 301.651C163.295 302.481 164.715 302.321 165.945 302.041C166.305 301.961 166.675 301.891 167.025 301.781C167.895 301.481 168.495 300.971 169.065 300.281C169.885 299.291 170.235 298.131 169.705 296.891C169.185 295.671 168.135 295.121 166.865 294.981C166.125 294.901 165.445 294.901 164.735 295.201C164.245 295.411 163.815 295.661 163.365 295.931C162.315 296.571 161.215 297.461 161.035 298.771C160.855 300.041 161.205 300.871 162.215 301.651Z" fill="#5C5C5C"/>
<path d="M163.016 282.901C163.186 283.471 163.406 283.801 163.776 284.241C164.116 284.661 164.746 284.931 165.356 284.991C165.586 285.051 165.816 285.101 166.096 285.081C166.186 285.081 166.266 285.061 166.346 285.051C166.996 285.101 167.706 284.931 168.226 284.631C168.886 284.251 169.506 283.491 169.676 282.741C169.856 281.931 169.816 281.021 169.356 280.301C168.896 279.591 168.276 279.121 167.466 278.851C166.816 278.631 166.086 278.681 165.436 278.821C165.236 278.861 165.076 278.941 164.876 279.031C164.486 279.161 164.146 279.381 163.856 279.681C163.696 279.891 163.526 280.111 163.366 280.321C163.206 280.561 163.106 280.841 163.026 281.121C162.876 281.661 162.856 282.361 163.016 282.901Z" fill="#5C5C5C"/>
<path d="M177.575 274.431C178.185 275.541 179.585 275.571 180.435 274.851C180.445 274.851 180.465 274.851 180.475 274.851C181.185 274.751 181.665 274.401 182.205 273.961C182.025 274.101 181.845 274.241 181.665 274.381C181.755 274.321 181.835 274.271 181.925 274.221C182.835 273.751 183.285 272.611 183.155 271.641C183.095 271.171 182.935 270.791 182.645 270.421C182.335 270.021 181.825 269.571 181.305 269.491C180.405 269.351 179.555 269.271 178.715 269.761C178.005 270.181 177.535 270.931 177.295 271.701C177.025 272.611 177.125 273.591 177.575 274.431Z" fill="#5C5C5C"/>
</g>
<defs>
<clipPath id="clip0_9_352">
<rect width="81.59" height="99.34" fill="white" transform="matrix(-1 0 0 -1 389.385 199.471)"/>
</clipPath>
<clipPath id="clip1_9_352">
<rect width="54" height="65" fill="white" transform="matrix(-1 0 0 -1 315.385 802.471)"/>
</clipPath>
<clipPath id="clip2_9_352">
<rect width="204" height="193" fill="white" transform="translate(199.839 406.101) rotate(-89.3449)"/>
</clipPath>
<clipPath id="clip3_9_352">
<rect width="340" height="197" fill="white" transform="translate(378.896 233.061) rotate(-173.87)"/>
</clipPath>
<clipPath id="clip4_9_352">
<rect width="435.71" height="417.68" fill="white" transform="translate(77.6708 802.59) rotate(-100.186)"/>
</clipPath>
<clipPath id="clip5_9_352">
<rect width="38.4" height="58.09" fill="white" transform="matrix(-1 0 0 -1 199.385 327.471)"/>
</clipPath>
</defs>
</svg>
