<svg width="156" height="100" viewBox="0 0 156 100" fill="none" xmlns="http://www.w3.org/2000/svg">
<g clip-path="url(#clip0_95_13453)">
<path d="M102.537 23.3378C101.56 27.67 101.1 32.1586 101.026 36.5811C100.988 38.7916 101.052 41.0033 101.217 43.2012C101.378 45.3436 101.553 47.5559 102.294 49.5601C103.021 51.5279 104.12 53.3106 104.961 55.2204C105.818 57.1651 106.561 59.1646 107.402 61.1186C108.205 62.9841 109.129 64.7782 110.243 66.4543C111.326 68.0814 112.534 69.5853 113.821 71.0352C114.908 72.2566 116.041 73.4343 117.209 74.5734C114.748 73.0581 112.221 71.6628 109.816 70.0465C106.922 68.0993 104.13 65.9872 101.465 63.7112C98.8155 61.4498 96.338 58.9924 93.8248 56.5681C91.3722 54.2008 88.8511 51.9139 86.0947 49.9353C83.4358 48.0269 80.6021 46.3833 77.6446 45.0216C71.7331 42.2974 65.3472 40.6857 58.8399 40.3279C58.1642 40.2911 57.4903 40.311 56.8147 40.3559C56.6292 40.0088 56.2717 39.7316 55.9986 39.4854C55.6497 39.1698 55.2823 38.873 54.9076 38.5913C54.5102 38.2933 54.0026 37.9218 53.49 37.8229C53.4856 37.7571 53.4781 37.6904 53.4701 37.6253C55.0294 34.6441 55.2753 30.9902 54.4977 27.7906C54.1075 26.1862 53.4472 24.6477 52.5289 23.3128C51.3501 21.6025 49.7195 20.3623 48.2369 18.9641C46.6549 17.4715 45.0975 15.9496 43.5324 14.4376C42.8397 13.7684 42.1197 13.1193 41.3185 12.5914C40.4749 12.0335 39.5608 11.6203 38.61 11.2942C36.6593 10.624 34.6008 10.4099 32.6045 9.91127C31.6065 9.66115 30.6054 9.4357 29.5731 9.39082C28.6292 9.34904 27.6711 9.42427 26.7322 9.57268C25.6313 9.74774 24.5385 9.99983 23.4573 10.2907C22.5777 10.5264 21.5674 10.7408 20.9166 11.478C20.1743 12.3184 20.2136 13.4876 20.5138 14.493C20.8013 15.4576 21.4103 16.4481 21.2168 17.5111C21.1994 17.6017 21.211 17.6848 21.2383 17.7533C19.0015 17.9563 16.7775 18.7633 14.8105 19.9212C13.7515 20.5463 12.7765 21.2993 11.8445 22.1182C11.3082 22.5898 10.7787 23.0921 10.45 23.6886C10.4093 23.7084 10.3687 23.7283 10.328 23.7481C10.1093 23.8549 10.1085 24.0861 10.2183 24.2429C10.1259 24.5586 10.0892 24.8994 10.1345 25.2738C10.2857 26.5288 11.1755 27.5907 11.8683 28.5576C12.6748 29.6858 13.5499 30.708 14.6194 31.5692C15.438 32.2276 16.3113 32.7883 17.2146 33.299C16.1957 33.3496 15.2081 34.2065 14.581 34.9874C13.6814 36.1092 13.1113 37.6573 11.8527 38.4063C11.2303 38.7767 10.6214 39.0146 10.1771 39.6399C9.80662 40.159 9.59239 40.8251 9.6445 41.4651C9.70184 42.1677 10.0848 42.7289 10.576 43.1744C11.1505 43.693 11.798 44.1272 12.4565 44.5201C13.246 44.9904 14.0637 45.3798 14.9407 45.6539C15.5333 45.8387 16.1667 46.0157 16.8024 46.0827C15.9416 46.6466 15.108 47.2603 14.2868 47.8908C13.0424 48.8461 11.5019 49.806 10.9203 51.385C10.6483 52.1226 10.6403 52.9252 10.9715 53.6241C11.1395 53.9802 11.3797 54.2805 11.4771 54.674C11.575 55.0658 11.6007 55.4759 11.6982 55.8693C12.4533 58.9319 15.3265 60.5349 18.1625 60.7958C19.6798 60.9357 21.1747 60.7548 22.6601 60.4642C22.4136 60.7577 22.1911 61.0813 21.967 61.4045C21.307 62.3536 20.6364 63.2982 19.9834 64.2525C19.4212 65.0745 19.2524 65.9875 19.8713 66.7952C20.4276 67.5217 21.3591 67.8885 22.2219 68.0261C23.1576 68.1746 24.1064 68.1156 25.0513 68.0964C26.088 68.0744 27.0359 68.1768 28.0238 68.4838C29.0132 68.7912 29.9496 69.0131 30.9943 68.8026C32.0048 68.6001 32.9821 68.1489 33.9493 67.78C35.9792 67.0064 38.0243 66.2641 40.0334 65.4289C41.9117 64.649 43.7655 63.752 45.4387 62.5398C48.403 60.3934 50.8129 57.3423 52.3311 53.9264C53.0978 52.2027 53.6658 50.3903 53.9955 48.5299C54.3049 46.7781 54.5808 44.7655 53.97 43.0786C53.8788 42.8264 53.7631 42.5965 53.629 42.3788C53.6409 42.3785 53.6527 42.3783 53.6646 42.378C54.1703 42.3322 54.6374 42.0957 55.0826 41.8467C55.3279 41.7095 55.5826 41.5815 55.8157 41.4206C55.9992 41.2942 56.1711 41.1545 56.3496 41.0216C56.3622 41.025 56.374 41.0315 56.387 41.0332C59.6583 41.3419 62.9112 41.5299 66.1336 42.1931C69.3175 42.8494 72.4373 43.8101 75.4442 45.0557C78.4649 46.3066 81.3693 47.8618 84.1048 49.6783C86.9349 51.5573 89.5279 53.7511 92.0093 56.0988C94.547 58.5007 96.9976 61.002 99.6111 63.3152C102.183 65.59 104.873 67.7212 107.669 69.6915C108.478 70.2604 109.297 70.8084 110.124 71.3414C110.121 71.3629 110.116 71.382 110.115 71.4039C109.403 71.0697 108.687 70.7398 107.97 70.4163C106.039 69.549 104.09 68.7157 102.086 68.0416C100.031 67.3485 97.9139 66.891 95.7795 66.5189C93.6853 66.1542 91.5716 65.9068 89.4632 65.6335C87.4166 65.3682 85.3678 65.0921 83.3027 64.9852C79.5084 64.7875 75.7136 65.4149 72.0539 66.5853C68.0423 67.8697 64.1307 69.7149 60.4258 71.809C60.0811 72.0031 60.215 72.6394 60.62 72.5922C64.4662 72.1452 68.4409 71.6711 72.2374 72.5193C74.137 72.9446 75.9167 73.7889 77.8354 74.1359C79.497 74.4366 81.2288 74.4668 82.9169 74.2879C86.3658 73.9224 89.7678 73.0306 93.2403 73.0388C94.1844 73.0415 95.1232 73.1279 96.064 73.1621C97.01 73.1959 97.9474 73.1355 98.8893 72.9948C99.8133 72.8577 100.731 72.6628 101.659 72.5489C102.568 72.4368 103.481 72.3869 104.39 72.3924C106.462 72.4041 108.515 72.7102 110.511 73.2276C112.511 73.7458 114.424 74.5168 116.381 75.1732C116.392 75.1761 116.4 75.175 116.412 75.1764C116.423 75.1829 116.436 75.1914 116.448 75.198C119.174 76.8178 121.66 78.7332 124.052 80.8411C128.555 84.8103 132.881 89.2567 138.523 91.4294C139.22 91.6981 139.953 91.8472 140.687 91.9693C140.878 92.0011 140.945 91.7365 140.768 91.6658C137.964 90.5559 135.354 89.1435 132.918 87.3252C130.438 85.4729 128.169 83.3347 125.863 81.2581C124.129 79.6978 122.371 78.1567 120.503 76.7732C118.164 74.7799 116.532 71.8482 115.441 68.936C114.123 65.4226 113.479 61.6392 112.683 57.9566C112.273 56.0558 112.112 54.106 112.15 52.1474C112.187 50.204 112.345 48.2621 112.108 46.3344C111.651 42.6179 110.057 39.2334 108.63 35.8729C106.842 31.6594 105.003 27.4731 103.298 23.2203C103.164 22.8682 102.617 22.9881 102.537 23.3378ZM29.8841 18.3532C28.4299 18.0328 26.9651 17.8031 25.4786 17.6799C24.3069 17.5827 23.1443 17.629 21.9725 17.6968C22.1467 16.7886 21.9073 15.9474 21.6084 15.1142C21.5873 15.0541 21.5651 14.9921 21.5413 14.9296C22.4618 14.1536 23.5449 13.5961 24.6859 13.3211C25.2746 13.1782 25.8832 13.1257 26.4814 13.1436C27.2332 13.1666 27.9505 13.3574 28.6884 13.4771C29.457 13.6015 30.2149 13.7283 30.9683 13.9287C31.6699 14.1153 32.3702 14.3066 33.0764 14.4758C34.5652 14.8309 36.0422 15.2238 37.5028 15.6786C38.9166 16.1193 40.3416 16.7076 41.5974 17.5146C42.8316 18.3074 43.8174 19.4645 44.7492 20.609C45.7073 21.7877 46.6019 23.0346 47.5074 24.2588C48.4073 25.4731 49.2774 26.7101 50.1576 27.9412C51.0753 29.2214 51.9064 30.5484 52.3172 32.1192C52.6225 33.2893 52.6966 34.4796 52.6256 35.684C52.5269 35.542 52.4238 35.404 52.3203 35.2676C51.4178 34.0952 50.444 32.9753 49.4588 31.8795C48.5305 30.8483 47.5348 29.874 46.8716 28.6189C46.2454 27.4332 45.689 26.2575 44.8682 25.2021C43.1798 23.0329 40.8942 21.6526 38.3779 20.7723C35.597 19.7978 32.7575 18.9865 29.8841 18.3532ZM21.2535 12.4847C21.5572 11.7164 22.4172 11.4654 23.1046 11.262C24.0239 10.991 24.947 10.7057 25.8776 10.487C26.7812 10.2748 27.7013 10.0959 28.6242 10.0453C29.6259 9.99015 30.6062 10.0978 31.5791 10.3089C33.4762 10.7182 35.3657 11.2004 37.2433 11.6895C38.1538 11.9266 39.0568 12.2042 39.911 12.6084C40.8103 13.033 41.6195 13.5749 42.3829 14.2254C43.9157 15.5298 45.3516 16.97 46.8198 18.3524C48.2829 19.7284 49.7075 21.1417 51.0117 22.6847C52.0496 23.9119 52.8689 25.3021 53.3906 26.8615C54.4449 30.0088 54.3126 33.4445 53.1516 36.581C53.1116 36.4972 53.07 36.413 53.026 36.3315C53.6177 33.6255 52.8398 30.8069 51.3846 28.6095C50.5338 27.3249 49.5737 26.1219 48.6564 24.8911C47.7109 23.6205 46.7653 22.3379 45.7247 21.1526C44.7062 19.9918 43.7909 18.6901 42.6034 17.709C41.4201 16.7307 39.9838 16.1343 38.5645 15.619C37.0821 15.0818 35.5846 14.6393 34.0519 14.2656C33.2863 14.079 32.5191 13.8988 31.7462 13.746C30.9686 13.5919 30.1761 13.4559 29.4226 13.2113C27.9062 12.7195 26.3935 12.4226 24.7914 12.7026C23.5285 12.9231 22.3403 13.439 21.2975 14.225C21.1298 13.6462 21.0337 13.0387 21.2535 12.4847ZM14.2045 21.3321C16.1224 20.0608 18.2881 19.1311 20.489 18.6327C21.0391 18.5085 21.5901 18.3811 22.1444 18.2852C22.7131 18.1864 23.3037 18.2074 23.8772 18.217C25.2923 18.2412 26.6646 18.4769 28.0471 18.7374C29.4443 19.0001 30.8247 19.3384 32.1955 19.7064C33.549 20.0698 34.9059 20.4205 36.2564 20.795C38.7826 21.4924 41.2301 22.5365 43.126 24.4512C43.9864 25.3198 44.7304 26.3156 45.3186 27.4095C45.6286 27.9854 45.8903 28.591 46.2055 29.1665C46.5222 29.7424 46.9053 30.2714 47.3242 30.7673C48.2087 31.8175 49.1783 32.7883 50.076 33.8268C50.5273 34.3466 50.9697 34.8743 51.4057 35.4072C51.7844 35.8703 52.1603 36.3378 52.4357 36.8789C52.6019 37.2039 52.7137 37.55 52.7509 37.9104C52.6556 37.9583 52.5621 38.0185 52.471 38.1014C52.1981 38.3487 52.0923 38.7085 52.0599 39.0708C51.7305 38.112 51.1914 37.2387 50.574 36.4569C49.5929 35.2125 48.3458 34.316 47.1098 33.3781C45.6842 32.2979 44.2958 31.2107 43.0257 29.932C41.8248 28.7227 40.6278 27.5554 39.2314 26.5935C37.801 25.6074 36.2493 24.8935 34.6659 24.2103C33.0178 23.4981 31.3705 22.7826 29.7216 22.0735C28.1389 21.3939 26.5269 20.7423 24.831 20.4188C23.3146 20.1295 21.7493 20.1317 20.2108 20.3435C18.529 20.575 16.8531 21.0055 15.2388 21.5783C14.2065 21.9451 13.1934 22.3851 12.1933 22.8524C12.8226 22.2848 13.509 21.7936 14.2045 21.3321ZM52.1666 41.4624C51.3855 42.74 50.5854 43.975 49.5868 45.0825C48.5926 46.186 47.4719 47.1572 46.2544 47.9733C43.7118 49.6807 40.8034 50.6987 37.9569 51.6362C37.2111 51.8819 36.4621 52.108 35.6961 52.265C34.9424 52.4201 34.1802 52.5185 33.43 52.6984C32.0315 53.0359 30.6938 53.6074 29.3784 54.2154C28.0187 54.844 26.6761 55.5162 25.2772 56.0391C23.8949 56.5562 22.4667 56.9232 21.0259 57.1729C19.4548 57.4441 17.8237 57.6177 16.2429 57.4882C14.9458 57.3813 13.6026 56.9918 12.7392 55.9573C12.7243 55.9312 12.7037 55.9071 12.68 55.8888C12.6788 55.8868 12.6772 55.8864 12.6761 55.8844C12.7622 55.7253 13.0588 55.275 13.1002 55.2145C13.3057 54.9102 13.5308 54.6213 13.7761 54.3514C14.2385 53.8414 14.7614 53.3952 15.3403 53.0422C16.557 52.299 17.9586 52.1018 19.2036 51.4292C20.4977 50.7304 21.6436 49.7659 22.884 48.9712C24.1489 48.1609 25.4773 47.4662 26.8403 46.8691C28.2281 46.2616 29.6451 45.7402 31.0715 45.2535C31.7884 45.0087 32.5075 44.7746 33.2229 44.5293C33.5655 44.4128 33.8933 44.2567 34.2392 44.1531C34.6034 44.0441 34.9728 43.9535 35.342 43.8696C36.7981 43.5372 38.2376 43.134 39.7043 42.8691C41.1746 42.6034 42.6825 42.4056 44.1698 42.4116C46.783 42.4209 49.8558 43.1464 52.1861 41.4268C52.1857 41.4283 52.1873 41.4288 52.1869 41.4304C52.1835 41.4431 52.1735 41.4489 52.1666 41.4624ZM47.3002 39.0894C45.8963 38.5798 44.5754 37.8848 43.1463 37.4639C42.837 37.3476 42.5256 37.2392 42.2041 37.1435C40.968 36.7756 39.6937 36.583 38.4268 36.3498C37.1855 36.1217 35.9664 35.8485 34.7879 35.3904C33.6212 34.9389 32.529 34.3404 31.4664 33.675C30.4498 33.0388 29.5784 32.2183 28.6178 31.4984C28.1584 31.155 27.6743 30.8408 27.1661 30.5797C26.6143 30.2985 26.0337 30.0879 25.4774 29.8175C24.344 29.2659 23.2764 28.6127 22.0933 28.1722C20.8887 27.7241 19.6417 27.4163 18.3979 27.1025C15.9178 26.4786 13.3759 25.777 11.4388 23.9857C13.931 22.7719 16.506 21.6141 19.1815 21.0344C20.6452 20.7176 22.1428 20.6089 23.6197 20.7619C25.3016 20.9353 26.9047 21.4876 28.4621 22.123C30.0591 22.7741 31.6445 23.4561 33.2365 24.1194C34.8054 24.7749 36.3978 25.3992 37.893 26.2239C39.3659 27.0377 40.6677 28.1019 41.8701 29.2996C43.0538 30.4788 44.2221 31.6334 45.5341 32.6596C46.9591 33.7736 48.3756 34.9007 49.594 36.266C50.6527 37.4527 51.4325 38.7763 51.8885 40.3421C50.4573 39.6313 48.7937 39.6295 47.3002 39.0894ZM13.9638 29.8483C13.0841 28.8878 12.3075 27.7931 11.6097 26.6802C11.3233 26.2246 11.0569 25.7318 10.945 25.1899C10.8841 24.8998 10.9093 24.6275 10.9924 24.3722C12.6492 25.8814 14.7957 26.6446 16.9053 27.2176C18.1652 27.5595 19.4431 27.8399 20.6941 28.2151C21.9533 28.5909 23.1228 29.1078 24.283 29.7295C24.8212 30.0173 25.3648 30.2911 25.9269 30.5274C26.5069 30.7719 27.1029 30.9882 27.646 31.3147C28.6824 31.9392 29.5795 32.7903 30.5191 33.5574C31.482 34.3444 32.4852 34.9991 33.6088 35.5175C34.7395 36.0411 35.9285 36.4152 37.1485 36.6597C37.7273 36.7762 38.314 36.8625 38.8981 36.9464C36.7852 36.9936 34.6724 37.4524 32.64 38.1913C31.9522 38.4405 31.2752 38.725 30.6062 39.0302C30.5751 38.9573 30.5102 38.8975 30.404 38.8914C29.0647 38.804 27.8525 38.2195 26.7277 37.5154C25.6346 36.8316 24.5648 36.1235 23.4231 35.5272C21.233 34.3832 18.9241 33.4764 16.8158 32.1704C15.7734 31.524 14.8044 30.766 13.9638 29.8483ZM10.6513 40.1557C11.0229 39.5501 11.607 39.3363 12.1685 38.9854C13.2393 38.3157 13.9798 37.1907 14.7003 36.1539C15.0909 35.5908 15.5183 35.0665 16.0499 34.6447C16.5839 34.2202 17.1505 34.034 17.8049 33.9801C17.9461 33.9683 18.0335 33.8741 18.0666 33.7622C19.1546 34.3323 20.2708 34.8469 21.3765 35.3758C22.5465 35.9354 23.7065 36.5196 24.8114 37.2099C25.9913 37.9474 27.1522 38.7564 28.4795 39.1928C28.4933 39.1981 28.5078 39.2003 28.522 39.2041C28.3127 39.2692 28.1038 39.3327 27.895 39.3895C27.2829 39.5568 26.6667 39.7076 26.0488 39.8461C24.7769 40.1322 23.4972 40.3652 22.2088 40.5296C21.5828 40.6098 20.9559 40.6744 20.3276 40.7251C19.684 40.7768 19.0372 40.8276 18.4082 40.6722C17.8043 40.5235 17.2533 40.3345 16.6205 40.3516C15.9814 40.3671 15.3306 40.4645 14.695 40.5557C13.9278 40.6665 13.1624 40.7708 12.3927 40.8656C11.7102 40.9494 11.0163 40.9554 10.3364 41.0485C10.3722 40.7365 10.487 40.425 10.6513 40.1557ZM13.5829 44.2429C12.9483 43.9312 12.3444 43.6056 11.7637 43.1925C11.2536 42.8306 10.6379 42.4099 10.4107 41.7761C10.3873 41.712 10.3695 41.646 10.3564 41.5813C10.9927 41.5191 11.6251 41.3641 12.2613 41.29C12.9394 41.21 13.6206 41.1122 14.3002 41.0649C14.9777 41.0189 15.6497 40.905 16.3261 40.8569C16.9867 40.8114 17.5402 40.9654 18.1638 41.1415C19.3668 41.4819 20.6733 41.2935 21.9044 41.1547C23.1616 41.0127 24.4154 40.8136 25.658 40.5555C26.3781 40.4067 27.093 40.2328 27.8058 40.0412C28.4536 39.8664 29.1543 39.7142 29.7645 39.4086C29.7795 39.4092 29.7929 39.4094 29.8079 39.41C29.2405 39.6878 28.6773 39.9753 28.1229 40.2804C26.5541 41.1443 25.0194 42.07 23.3969 42.8192C21.8091 43.5522 20.1826 44.1897 18.6285 45.0048C18.3055 45.1741 17.9895 45.3555 17.6758 45.5408C16.9954 45.3378 16.288 45.2364 15.6061 45.0329C14.9121 44.8245 14.232 44.5636 13.5829 44.2429ZM12.1571 54.3529C12.0291 53.9411 11.7751 53.6235 11.5948 53.2437C10.869 51.7236 12.431 50.2896 13.4806 49.4782C14.7928 48.4644 16.1169 47.4503 17.5168 46.5755C18.9546 45.6785 20.4766 44.9842 22.0125 44.3072C23.5268 43.6415 25.0165 42.9421 26.466 42.1213C27.9275 41.2935 29.3775 40.4457 30.8976 39.7458C33.861 38.3817 36.965 37.5586 40.1767 37.6608C41.8386 37.7133 43.5053 38.0647 44.9963 38.81C45.7323 39.1776 46.4522 39.5801 47.2219 39.8716C47.99 40.1626 48.8003 40.2948 49.6015 40.4552C50.3133 40.5969 51.0201 40.7576 51.6662 41.0894C49.4634 42.4942 46.6498 41.8326 44.2372 41.9429C41.105 42.0864 37.983 42.5967 34.9695 43.5987C34.2061 43.8533 33.4335 44.0289 32.6658 44.262C31.9072 44.4924 31.1529 44.7511 30.4017 45.0107C28.9403 45.5153 27.4919 46.0658 26.077 46.712C24.6506 47.3637 23.2629 48.1039 21.9551 48.9998C20.6717 49.88 19.4306 50.8923 17.9735 51.4252C17.1767 51.7169 16.3614 51.9135 15.5953 52.3052C14.9109 52.6557 14.2649 53.1151 13.6939 53.6472C13.1791 54.1262 12.7243 54.6773 12.3452 55.2792C12.2882 54.968 12.2495 54.6514 12.1571 54.3529ZM13.1899 57.2393C13.1471 57.1785 13.1102 57.1143 13.071 57.0528C14.7484 58.3071 17.3488 58.1685 19.2995 57.9711C22.3405 57.6638 25.2212 56.6928 28.0213 55.3789C29.4412 54.7136 30.8523 54.0119 32.3318 53.5156C33.8259 53.0147 35.3784 52.8831 36.8866 52.4625C38.4273 52.0335 39.949 51.4923 41.4577 50.9493C42.8849 50.4339 44.2844 49.8074 45.6163 49.049C47.077 48.2176 48.4217 47.1767 49.6089 45.9493C50.5848 44.9396 51.5051 43.7909 52.2072 42.5383C51.7712 45.2347 50.571 47.8096 48.6627 49.7282C47.4307 50.9659 45.9304 51.8701 44.5107 52.8383C43.0707 53.8198 41.575 54.7508 40.0633 55.6027C38.6785 56.3828 37.2193 57.0121 35.7105 57.4479C34.123 57.907 32.5192 58.1048 30.8879 58.2222C29.2376 58.3413 27.6193 58.5557 25.9956 58.9167C24.3593 59.2811 22.7303 59.719 21.0708 59.9173C18.22 60.2565 14.9723 59.7959 13.1899 57.2393ZM21.0475 64.0574C21.4049 63.5434 21.767 63.0306 22.1259 62.517C22.7072 61.6865 23.2616 60.7042 24.1471 60.1928C24.179 60.1741 24.2051 60.1521 24.2268 60.1272C25.6155 59.8075 27.0015 59.4599 28.4 59.2551C30.1312 59.0026 31.8795 59.0661 33.6105 58.8017C35.227 58.5562 36.818 58.0964 38.3363 57.4351C39.9194 56.7452 41.3754 55.8053 42.7962 54.7949C44.3186 53.7128 45.8942 52.7282 47.4269 51.6641C48.7897 50.7199 49.981 49.6603 50.9455 48.2631C51.3427 47.6882 51.6863 47.0803 51.9789 46.4486C51.6818 48.1799 51.1785 49.8632 50.1566 51.2927C49.2929 52.5007 48.321 53.5965 47.21 54.5567C46.014 55.5895 44.8513 56.6618 43.6676 57.7115C42.5614 58.6916 41.4271 59.5877 40.1317 60.2657C38.899 60.911 37.6168 61.4258 36.3166 61.8813C35.02 62.3361 33.7001 62.7201 32.3732 63.0545C31.0082 63.3992 29.6062 63.5538 28.2114 63.6116C27.4618 63.6436 26.709 63.6118 25.9637 63.7164C25.288 63.8123 24.6472 64.0179 24.0109 64.2825C22.7897 64.7896 21.5791 65.4341 20.252 65.4588C20.3312 64.9456 20.7635 64.4668 21.0475 64.0574ZM53.3543 47.3504C53.1298 49.0874 52.6836 50.8028 52.0583 52.4383C50.8196 55.6767 48.8416 58.6112 46.2649 60.8455C43.3538 63.3685 39.763 64.6662 36.2854 66.0007C35.2971 66.3792 34.3099 66.7598 33.3216 67.1384C32.4288 67.481 31.5098 67.9155 30.5646 68.0435C29.5604 68.1779 28.6539 67.7803 27.7095 67.5189C26.828 67.2742 25.9187 67.2416 25.0042 67.2604C24.0474 67.2799 23.0663 67.3592 22.1285 67.1489C21.5834 67.026 20.6876 66.6959 20.3606 66.1019C21.5052 66.0728 22.5818 65.5902 23.6348 65.1267C24.882 64.5788 26.1439 64.1659 27.4935 64.0944C30.3058 63.944 33.1155 63.5378 35.8369 62.6844C37.1763 62.2648 38.5422 61.8029 39.8228 61.1993C41.1492 60.5754 42.3214 59.7524 43.4178 58.7458C44.5916 57.6697 45.7514 56.5388 46.8544 55.3809C47.4101 54.7987 47.9746 54.2275 48.5718 53.6922C49.1204 53.2001 49.7423 52.787 50.2277 52.2219C51.3349 50.9341 52.0492 49.3631 52.4856 47.7097C52.8916 46.1708 53.141 44.5238 52.984 42.9422C52.9883 42.8941 52.9963 42.8451 53.0007 42.797C53.6027 44.2127 53.5542 45.8009 53.3543 47.3504ZM54.199 41.3377C53.9284 41.4495 53.6388 41.5375 53.3554 41.457C53.0814 41.379 52.9934 41.1906 52.9449 40.9106C52.8813 40.5483 52.8807 40.1704 52.8607 39.8027C52.8456 39.5111 52.7617 39.0856 52.924 38.8174C52.9366 38.7952 52.9547 38.7779 52.9712 38.7602C53.1121 38.813 53.284 38.7872 53.3836 38.6725C53.4651 38.6891 53.544 38.7152 53.6071 38.7439C53.9344 38.8939 54.2389 39.1297 54.5295 39.3414C54.8638 39.5852 55.182 39.8518 55.4876 40.1339C55.635 40.2701 55.7787 40.4325 55.9306 40.5835C55.691 40.661 55.4519 40.7369 55.2204 40.8472C54.881 41.0087 54.5456 41.1934 54.199 41.3377ZM108.854 62.1633C107.976 60.2996 107.244 58.3629 106.451 56.4557C105.65 54.524 104.719 52.6908 103.757 50.8492C102.775 48.9699 102.371 46.9245 102.158 44.7906C101.942 42.6216 101.831 40.438 101.828 38.2509C101.824 33.8721 102.22 29.474 103.029 25.1532C103.047 25.0558 103.068 24.9576 103.087 24.8606C103.103 24.897 103.119 24.9355 103.135 24.972C102.492 28.0353 103.048 31.1385 103.63 34.1296C104.306 37.6085 104.927 41.1015 105.605 44.5809C106.263 47.9647 106.902 51.3675 107.822 54.6781C108.691 57.8119 109.959 60.8392 111.3 63.7649C112.671 66.7547 114.199 69.6573 115.941 72.4175C115.734 72.1972 115.526 71.977 115.323 71.7528C112.733 68.9082 110.523 65.7053 108.854 62.1633ZM110.578 72.4237C110.579 72.4221 110.581 72.4209 110.583 72.4198C110.592 72.4239 110.601 72.428 110.61 72.4321C110.599 72.4291 110.588 72.4262 110.578 72.4237ZM110.346 71.4789C110.401 71.5139 110.454 71.5484 110.509 71.5834C110.456 71.5592 110.404 71.5335 110.352 71.5093C110.351 71.5005 110.349 71.4897 110.346 71.4789ZM81.9091 65.7919C83.9425 65.7967 85.9617 65.9748 87.9778 66.1963C90.0953 66.4294 92.2101 66.6789 94.3115 67.0166C96.3696 67.3462 98.3901 67.7918 100.387 68.3841C102.422 68.9885 104.399 69.7882 106.361 70.5993C106.396 70.6137 106.431 70.6281 106.467 70.6445C104.63 70.0673 102.759 69.5834 100.887 69.2079C97.6164 68.5541 94.3371 68.3641 90.9969 68.7007C89.2924 68.8718 87.6146 68.9615 85.9092 68.8635C84.3467 68.7728 82.7875 68.6508 81.224 68.5956C78.1741 68.4871 75.1382 68.566 72.0868 68.811C70.1337 68.967 68.1871 69.288 66.2794 69.7861C67.8491 69.0518 69.4396 68.3723 71.0744 67.7982C74.5863 66.563 78.2281 65.7826 81.9091 65.7919ZM100.492 71.922C99.5594 72.0773 98.6313 72.2677 97.6919 72.3547C96.7355 72.4423 95.7799 72.394 94.8261 72.3513C93.0533 72.2728 91.312 72.3983 89.5454 72.6192C87.7844 72.8382 86.0333 73.1398 84.2689 73.3272C82.5717 73.5087 80.8526 73.6334 79.1588 73.4789C77.2119 73.3014 75.395 72.5969 73.5169 72.1161C70.1851 71.2622 66.7354 71.3077 63.3045 71.5419C65.8317 70.545 68.4732 69.9222 71.1326 69.5491C74.1313 69.1285 77.1403 69.119 80.1461 69.1971C81.6483 69.2359 83.1505 69.2935 84.6502 69.3606C86.3481 69.4362 88.043 69.4974 89.7451 69.3546C91.4024 69.2152 93.0502 69.0359 94.7106 69.0811C96.3628 69.1258 98.009 69.3323 99.6283 69.6337C101.45 69.9719 103.248 70.423 105.027 70.9368C106.192 71.274 107.348 71.6377 108.512 71.9796C107.701 71.8386 106.882 71.7314 106.06 71.6677C104.203 71.5192 102.344 71.6149 100.492 71.922ZM111.13 45.7561C111.479 47.6526 111.435 49.5871 111.38 51.5207C111.324 53.4998 111.437 55.4235 111.768 57.3628C112.418 61.1511 113.099 64.9426 114.375 68.5471C114.464 68.8005 114.558 69.0516 114.654 69.3035C113.853 67.7956 113.081 66.27 112.353 64.7204C110.992 61.8199 109.711 58.8352 108.728 55.7597C108.223 54.1774 107.869 52.5706 107.59 50.9226C107.302 49.2194 106.995 47.5232 106.665 45.8294C106.002 42.4168 105.311 39.0122 104.619 35.6076C104 32.5539 103.218 29.3004 103.633 26.1269C104.9 29.1011 106.124 32.0963 107.343 35.0951C108.75 38.5609 110.439 42.0095 111.13 45.7561Z" fill="#C8A898"/>
</g>
<defs>
<clipPath id="clip0_95_13453">
<rect width="64.303" height="143.779" fill="white" transform="translate(0 62.1426) rotate(-75.1054)"/>
</clipPath>
</defs>
</svg>
