<svg width="104" height="89" viewBox="0 0 104 89" fill="none" xmlns="http://www.w3.org/2000/svg">
<g clip-path="url(#clip0_97_19)">
<path d="M100.905 37.5907C100.299 36.9216 99.3485 36.3454 98.9477 35.5276C98.5749 34.7656 98.985 33.8363 98.4257 33.1672C98.0435 32.7118 97.5122 32.6003 96.9809 32.6839C96.1699 31.9405 97.0368 28.8552 97.2885 28.0932C97.6241 27.0895 98.4164 26.1137 98.6028 25.0543C98.9197 23.2515 97.5775 20.9282 96.7851 19.3669C94.8276 15.5196 91.9286 12.1462 88.4331 9.60919C87.4263 8.87503 86.1213 8.29886 85.2824 7.36955C84.7417 6.77479 84.5087 6.01276 83.8282 5.55739C83.1384 5.08345 82.2715 5.07415 81.4885 4.879C80.081 4.53515 79.2234 3.68948 77.993 3.03897C73.8449 0.836501 69.4638 3.52221 66.0708 5.85477C66.0428 5.87336 66.0335 5.89195 66.0148 5.91983C65.064 5.12062 63.9734 4.84183 62.7057 4.64667C61.7736 4.49798 60.7855 4.44222 59.8999 4.10767C58.6602 3.64302 57.784 2.63007 56.6467 1.99814C53.0952 0.0465882 48.9285 2.10036 45.1813 1.94238C43.811 1.88662 42.4781 1.60783 41.2569 0.957312C40.679 0.650639 40.1384 0.185984 39.4672 0.0651741C37.5563 -0.269377 34.909 1.11529 33.0913 1.645C30.7143 2.34198 28.3373 3.03897 25.9604 3.73595C23.8537 4.34929 21.5886 4.82324 19.659 5.90124C16.2287 7.80632 14.5788 11.6723 13.078 15.0921C11.2417 19.3019 9.39604 23.6418 8.12832 28.056C7.31735 30.8718 6.99109 33.6876 7.26142 36.5034C5.5183 37.6836 4.10143 39.1984 3.15996 41.0942C2.07866 43.2781 2.06934 45.5177 1.80834 47.8875C1.51005 50.5918 -0.186464 53.1566 0.0186091 55.9167C0.214361 58.4723 2.7032 60.461 2.24645 63.0817C2.19984 63.3419 2.35831 63.6021 2.64727 63.6114C4.25989 63.6207 4.83783 65.9068 5.44372 66.9848C5.87251 67.7561 6.3852 68.4903 7.00974 69.1222C8.10967 70.2281 9.424 70.7949 10.9434 70.8321C11.0366 73.2948 11.7264 75.7389 13.0128 77.8484C15.222 81.4727 18.9599 83.6845 22.7817 85.2922C24.6647 86.0821 26.6315 86.872 28.5983 87.411C31.199 88.1173 32.7557 86.3423 35.2446 86.2494C36.4937 86.2029 37.8732 86.807 39.0571 87.1229C40.3528 87.4668 41.6578 87.7734 42.9721 88.0336C45.666 88.5634 48.4625 88.9908 51.2123 89.0373C55.2951 89.0931 58.0636 87.1601 60.1703 83.7867C61.6058 81.4913 62.7803 79.168 64.2158 77.012C68.2334 77.7183 72.4187 78.3781 76.4363 77.4023C78.5616 76.8912 80.4352 75.7203 82.5325 75.1348C84.4807 74.5958 86.5874 74.949 88.3771 73.8803C91.0338 72.2911 93.7183 68.3509 94.4734 65.4142C94.6971 64.55 94.6039 63.6021 94.8369 62.7564C95.07 61.9015 95.6665 61.2045 96.5428 60.9814C97.9783 60.619 97.6893 61.158 98.8918 61.6505C99.7307 61.9944 100.16 61.8736 100.654 61.1022C101.11 60.3867 101.269 59.2157 101.511 58.398C101.884 57.162 102.266 55.9167 102.62 54.6714C103.236 52.4875 103.767 50.2665 103.935 47.999C104.214 44.3003 103.45 40.3786 100.905 37.5907ZM72.8195 3.27129C74.4042 2.93674 76.0914 2.98321 77.5549 3.74524C78.5336 4.25636 79.326 5.05557 80.3793 5.43658C81.0038 5.65962 81.675 5.65962 82.2995 5.87336C83.7443 6.34731 83.9587 7.26733 84.8909 8.15017C86.3078 9.51626 88.2093 10.3805 89.7101 11.6815C93.0472 14.5624 95.6293 18.2611 97.1953 22.3686C97.8384 24.0507 97.4936 25.1008 96.8877 26.8014C96.5521 27.74 96.2072 28.6322 96.0581 29.6265C95.9369 30.435 95.6386 32.0799 96.1326 32.9534C96.1233 32.9534 96.1233 32.9627 96.114 32.9627C94.5853 33.7712 93.2896 35.7135 92.1617 36.9867C90.6889 38.6594 89.2906 40.3972 87.967 42.1908C86.401 44.3003 85.096 46.5957 83.4927 48.6774C81.8521 50.8241 79.6895 52.2645 77.5269 53.8443C76.6693 54.4763 75.4016 55.3312 74.6466 56.3349C74.4601 56.0282 74.2364 55.768 73.9754 55.5821C73.0153 54.8945 71.8594 55.2941 71.2349 56.1862C69.8926 56.3999 68.7647 56.9668 67.7114 57.6917C67.8885 57.2177 68.0469 56.7345 68.2054 56.2791C68.8952 54.2532 69.296 52.1716 69.4918 50.0528C69.5477 49.9877 69.585 49.9041 69.5757 49.8018C69.5663 49.6624 69.557 49.5323 69.5477 49.4022C69.5663 49.1699 69.5757 48.9469 69.585 48.7145C69.585 48.7145 69.585 48.7145 69.585 48.7052C69.5943 48.5844 69.5943 48.4729 69.6036 48.3521C69.6036 48.3428 69.6036 48.3335 69.6036 48.3242C69.6968 48.1477 69.8739 47.999 70.2188 47.8968C70.9925 47.6644 72.0831 47.8038 72.8941 47.7295C74.1991 47.618 75.5135 47.4693 76.7998 47.2369C79.1582 46.8188 80.864 45.9266 81.2741 43.3896C81.936 39.3192 79.4098 34.747 74.9914 34.8957C75.3829 32.4516 75.8024 30.0819 75.1499 27.6285C74.3762 24.7476 72.6238 22.1827 71.0485 19.6829C68.5969 15.7891 65.7352 12.3785 61.9507 9.96232C63.3769 8.9215 64.803 7.87138 66.2106 6.80267C66.2852 6.74691 66.3411 6.66327 66.3784 6.57964C66.4157 6.57034 66.4436 6.56105 66.4809 6.53317C68.4198 5.22284 70.4705 3.76383 72.8195 3.27129ZM65.4742 59.4481C65.4276 59.4667 65.3903 59.4945 65.3437 59.5131C65.2132 59.5596 65.1386 59.6525 65.092 59.764C62.3422 61.9944 59.1729 63.5556 55.6959 64.2805C52.0792 65.0332 48.4811 64.6615 44.8923 63.9273C44.1839 63.7787 43.4661 63.6207 42.7577 63.4627C47.3066 62.775 51.6691 60.8327 55.2858 58.0169C56.5256 57.0505 57.6348 55.8516 59.0144 55.0803C60.4313 54.2997 62.0346 54.0209 63.526 53.4354C64.4582 53.073 65.3623 52.6176 66.0801 51.9114C66.9843 51.0285 67.4504 49.6624 68.7088 49.2721C68.5969 50.9821 68.3545 52.6641 67.9164 54.3276C67.5995 55.5264 67.1894 57.6452 66.2386 58.8069C65.9962 59.0206 65.7352 59.2343 65.4742 59.4481ZM67.3292 15.7984C69.3892 18.3354 71.1603 21.2256 72.7356 24.0785C73.7237 25.8721 74.572 27.8051 74.6932 29.8774C74.805 31.6803 74.3762 33.4646 74.1059 35.2303C74.1059 35.2488 74.1059 35.2581 74.1059 35.2767C74.0966 35.2953 74.0966 35.3139 74.0873 35.3418C73.6958 38.3992 69.9112 39.6259 69.4545 42.6833C69.2587 44.0122 69.6782 44.9415 68.4478 46.0474C67.7859 46.6422 66.3691 46.9489 65.5301 47.3299H65.5208C62.6218 44.5698 61.7456 40.9641 61.9041 37.0331C61.988 35.0258 62.2862 33.0278 62.1464 31.0205C62.0346 29.3849 61.4753 27.9631 60.9719 26.4483C61.2236 25.8349 61.2049 25.3052 60.8228 24.5246C59.7508 22.3129 59.1169 20.4356 59.4152 17.9358C59.4618 17.5827 59.0424 17.4711 58.7907 17.5734C57.0289 18.3447 55.6214 19.4878 54.5121 21.0118C50.3174 14.3951 41.1451 17.2016 37.1275 22.7868C36.8292 23.0005 36.5123 23.6232 36.2699 24.1436C36.2047 24.1715 36.1394 24.2086 36.0835 24.283C34.9556 25.8071 33.2311 26.5412 31.3575 26.5226C30.0059 26.504 28.8127 25.7792 27.517 25.7699C25.8205 25.7606 25.1214 27.5727 24.4876 28.8924C24.4037 29.0782 24.3198 29.2641 24.2359 29.45C23.1453 25.7327 23.891 22.1456 25.6434 18.6885C26.995 16.0214 28.7195 12.9268 30.9101 10.8545C33.2591 8.63341 36.7733 8.02007 39.8587 7.47177C43.1306 6.88631 46.4863 6.66327 49.8048 6.94207C56.6374 7.51824 62.9854 10.4549 67.3292 15.7984ZM54.1393 53.612C51.3428 53.5748 48.6489 52.8871 46.2253 51.456C44.5661 50.4709 43.3916 49.0863 42.0772 47.7945C44.3424 48.7331 46.6168 49.681 48.9285 50.378C50.131 50.7404 51.2869 50.7497 52.536 50.7962C54.2698 50.8613 55.9476 51.1215 57.6348 51.456C56.4603 52.1623 55.3044 52.8964 54.1393 53.612ZM36.5123 26.0951C36.5682 25.8721 37.0995 24.5897 37.3699 23.9299C37.4631 23.7812 37.5563 23.6325 37.6495 23.4838C37.7521 23.428 37.808 23.3444 37.8173 23.2422C41.5925 17.9637 50.4386 15.2594 54.1393 21.9969C54.9409 23.205 54.4003 24.4781 54.7265 25.7885C55.1646 27.5635 56.6095 28.5857 55.1087 30.593C54.4562 31.4573 53.6732 32.0706 53.1046 33.0278C52.7876 33.5575 52.508 34.1058 52.2563 34.6634C52.0978 33.446 52.0233 32.2193 51.7157 31.0205C51.2123 29.0596 50.7649 27.1824 50.9513 25.138C50.9793 24.8499 50.6623 24.6919 50.42 24.7384C46.5888 25.5283 45.172 29.8496 41.6298 31.0855C41.2942 30.3049 40.9586 29.6265 40.0079 29.2455C38.7401 28.7251 37.4351 29.1061 36.2233 29.6079C36.1767 28.4277 36.2326 27.2289 36.5123 26.0951ZM58.8373 22.1084C59.1356 23.1771 60.1237 24.5153 60.2075 25.6955C60.0491 25.7699 59.9279 25.9372 60.0025 26.1509C60.0398 26.2624 60.0677 26.3646 60.105 26.4762C59.6576 27.7958 57.9145 29.6451 57.0755 30.6488C56.0408 31.894 54.885 32.9163 53.6172 33.9199C53.58 33.9571 53.5427 33.9943 53.4961 34.0222C53.9062 33.2601 54.3816 32.5446 54.9595 31.9126C55.7798 31.0112 56.4137 30.435 56.5722 29.1712C56.8145 27.294 55.7426 26.5412 55.4816 24.7476C55.3138 23.6139 55.5282 22.7961 54.9875 21.8203C55.9197 20.4356 57.0849 19.3948 58.5297 18.6421C58.4551 19.8037 58.5204 20.9654 58.8373 22.1084ZM50.7089 30.5651C51.1191 32.1264 51.2216 33.7155 51.4826 35.286C50.653 34.8957 49.7581 34.8307 48.7421 34.905C45.9829 35.1095 43.4288 34.84 42.0399 32.052C42.0027 31.987 41.9747 31.9219 41.9467 31.8476C45.2465 30.6302 46.7473 26.7457 50.0658 25.6955C50.0005 27.3683 50.2895 28.9481 50.7089 30.5651ZM41.0239 31.8197C41.2383 32.1728 41.3315 32.5817 41.5552 32.9442C42.0306 33.7341 42.7111 34.4032 43.4755 34.905C44.2585 35.4161 45.1254 35.7507 46.0482 35.8715C47.8379 36.1038 49.7861 35.1931 51.4081 36.1874C50.3268 37.5535 49.3946 39.0126 48.0989 40.2857C46.1134 42.2373 41.8815 45.7315 38.7681 45.3969C37.1834 43.9472 37.7054 40.9734 37.4724 39.0218C37.2487 37.0982 36.8665 35.1931 36.5869 33.2787C36.4564 32.3773 36.3352 31.4387 36.2606 30.5001C38.3207 29.6172 39.607 29.4407 41.0239 31.8197ZM58.6788 50.8427C58.6415 50.8241 58.6043 50.7962 58.5576 50.7869C57.0289 50.4802 55.5002 50.1643 53.9435 50.0342C52.3309 49.8948 50.7183 50.0435 49.1522 49.5788C46.1414 48.6774 43.2145 47.3485 40.2875 46.1775C42.5713 45.75 44.7711 43.9751 46.5236 42.6926C47.7633 41.7819 48.9192 40.7782 49.87 39.5701C50.653 38.5758 51.3148 37.5257 52.0792 36.5685C52.1351 36.5685 52.1911 36.5499 52.247 36.522C52.247 36.522 52.2563 36.522 52.2563 36.5127C52.2936 36.4941 52.3216 36.4755 52.3495 36.4477C52.3682 36.4291 52.3868 36.4198 52.3961 36.4012C52.4055 36.3919 52.4148 36.3733 52.4241 36.3547C52.4427 36.3268 52.4614 36.299 52.48 36.2618C52.5266 36.141 52.5826 36.0295 52.6292 35.9087C52.9368 35.5648 53.263 35.2396 53.6359 34.9422C56.3112 32.7583 58.5856 30.4164 60.4126 27.4798C60.9812 29.3756 61.41 31.1134 61.3261 33.2601C61.2329 35.5276 60.8973 37.7766 61.1397 40.0441C61.4566 43.0272 62.6218 45.6292 64.7378 47.7202C62.7989 48.6309 60.888 49.5974 59.0237 50.6475C58.9025 50.7126 58.7907 50.7776 58.6788 50.8427ZM25.224 29.3384C25.979 27.7307 26.4451 26.662 28.7195 26.9408C31.3389 27.2661 33.6692 27.5263 35.6081 26.0022C35.3098 27.2568 35.3005 28.6693 35.3937 30.0168C35.2632 30.1562 35.3098 30.3607 35.431 30.5094C35.4869 31.132 35.5615 31.7268 35.6268 32.2751C35.981 35.1559 36.6614 37.9996 36.8199 40.9083C36.8945 42.2187 36.8106 43.5848 37.2953 44.7371C36.2699 44.3096 35.2352 43.91 34.2751 43.4361C31.8236 42.228 29.4746 40.8433 27.2001 39.3192C27.1908 39.3192 27.1908 39.3192 27.1815 39.3099C26.1934 37.8509 25.196 36.3176 24.6087 34.7006C23.9096 32.8233 24.413 31.0669 25.224 29.3384ZM34.5175 44.4676C35.6174 44.9973 36.6894 45.4527 37.7148 45.9638C37.7614 46.001 37.808 46.0381 37.8732 46.0567C37.8826 46.0567 37.9012 46.066 37.9105 46.066C39.346 46.7909 40.6883 47.6273 41.8815 48.919C44.8178 52.0879 48.6023 54.0023 52.8436 54.374C50.9699 55.4799 49.0497 56.4836 46.9337 57.162C44.4169 57.9798 41.8349 58.5188 39.2715 59.1414C33.6599 54.4856 31.8981 47.1347 28.3 41.0292C30.3228 42.293 32.3829 43.4454 34.5175 44.4676ZM52.4614 55.6379C53.1325 55.2476 53.7944 54.848 54.4469 54.4391C54.568 54.4205 54.6519 54.3647 54.7079 54.2718C56.712 53.0265 58.6975 51.7441 60.7855 50.6196C62.3701 49.7647 63.9734 48.9655 65.6047 48.2034C66.7885 47.6551 68.3359 47.2555 69.3892 46.4656C70.1256 45.9173 70.3307 45.2947 70.34 44.384C70.3587 42.767 70.4426 41.7819 71.5705 40.4623C72.2603 39.6538 73.0619 38.9568 73.7144 38.1204C74.1805 37.5257 74.3949 36.4198 74.8516 35.9087C75.7279 34.9329 78.2633 36.6614 78.8972 37.3491C80.3606 38.9196 80.8826 41.4473 80.4259 43.5197C79.5497 47.5343 72.2882 47.0418 69.0816 47.1068C68.8672 47.1068 68.6528 47.2927 68.6622 47.525C68.6715 47.8317 68.6901 48.1384 68.6994 48.4357C67.1427 48.8261 66.686 50.2014 65.5022 51.3259C63.3396 53.389 59.8906 53.3239 57.4857 55.1082C55.0341 56.9296 52.9088 58.8812 50.1403 60.2566C47.0269 61.7992 43.6619 62.7378 40.185 62.8865C40.1011 62.8679 40.0172 62.8493 39.9333 62.8308C39.3181 62.6914 35.3191 62.0594 34.6573 61.2974C40.5765 59.2994 46.9803 58.8254 52.4614 55.6379ZM8.08171 32.2472C8.60371 28.0002 10.3562 23.9763 11.9222 20.0175C13.4229 16.2166 14.8678 11.7466 17.6083 8.61483C20.4886 5.32507 25.718 4.65596 29.7262 3.47574C31.8422 2.8531 33.9489 2.23976 36.0649 1.61712C37.3699 1.2361 38.7028 0.74357 40.0731 1.21752C40.8748 1.48702 41.5739 2.08178 42.4221 2.33269C46.4863 3.55938 50.4386 1.29186 54.4469 2.09107C56.5908 2.51855 57.8865 4.34 59.9186 4.97193C61.727 5.52952 63.7963 5.26002 65.3344 6.44024C63.9548 7.47177 62.5752 8.49401 61.1863 9.51626C60.3847 9.04231 59.5364 8.61482 58.6509 8.23381C53.3749 5.98488 47.4744 5.62245 41.8349 6.34731C36.7453 7.00712 31.777 7.96431 28.6263 12.3135C24.8324 17.5548 21.3555 23.7905 23.6486 30.3421C23.6859 30.4443 23.7512 30.5094 23.8257 30.5558C23.4249 31.7546 23.2198 33.0185 23.5368 34.2731C24.124 36.5963 25.8765 38.8453 27.1815 40.8154C27.2094 40.8526 27.2374 40.8805 27.2654 40.899C31.0406 47.0139 32.7744 54.5041 38.302 59.3737C36.9597 59.7083 35.6361 60.08 34.3311 60.5261C34.3124 60.5168 34.2938 60.4982 34.2751 60.4982C34.0701 60.4331 33.865 60.3774 33.6692 60.3123C33.6599 60.3123 33.6599 60.303 33.6506 60.303C28.589 57.6545 22.6326 57.1248 17.6549 54.2718C14.3924 52.4039 12.6399 48.7145 11.018 45.4713C8.93929 41.3172 7.49445 36.9402 8.08171 32.2472ZM5.54626 65.3027C4.95901 64.1504 4.37175 63.0259 3.10403 62.8029C3.20656 61.3625 2.62863 60.1636 1.94816 58.8533C1.21176 57.4501 0.745686 56.2327 0.932116 54.6343C1.09058 53.2868 1.64987 52.0415 2.0507 50.759C2.76845 48.4357 2.52609 46.0288 3.0947 43.687C3.70992 41.1221 5.25729 38.9754 7.36395 37.4327C7.50378 38.3992 7.70885 39.3657 8.00714 40.3322C9.25622 44.449 11.4095 48.8539 14.0754 52.2459C17.3473 56.3906 22.8936 57.4872 27.9924 59.0206C25.1587 58.621 22.2784 58.5652 19.4726 59.002C15.166 59.6618 12.4815 62.394 11.4002 66.5666C11.1112 67.6818 10.9714 68.8248 10.9527 69.9679C8.14696 69.8749 6.73941 67.626 5.54626 65.3027ZM59.294 83.573C58.3433 85.0599 57.1501 86.5189 55.5375 87.3274C53.3935 88.3961 50.9699 88.2288 48.6489 87.9965C46.421 87.7827 44.2025 87.4296 42.0027 86.9464C40.0079 86.5096 37.9664 85.6453 35.9437 85.4223C34.62 85.2829 33.5201 85.7568 32.3083 86.2401C30.0338 87.1322 28.2628 86.4352 26.1002 85.6546C18.9972 83.099 11.9315 78.8892 11.7544 70.5719C11.829 70.4325 11.829 70.2652 11.7544 70.1444C11.7544 70.098 11.7544 70.0515 11.7544 70.005C11.7917 67.8305 12.3323 65.6559 13.4136 63.7508C14.7839 61.3439 16.9558 60.2287 19.6217 59.8105C24.2825 59.0856 29.111 59.7176 33.576 61.1487C33.5853 61.2509 33.632 61.3439 33.6972 61.4089C33.7625 61.7899 34.0421 62.0687 34.4802 62.3475C35.8784 63.2397 38.4605 63.3419 40.0824 63.7043C43.9881 64.5779 47.9591 65.628 51.9953 65.5258C55.3231 65.4328 58.6136 64.5779 61.5685 63.0631C62.9201 62.3661 64.1785 61.3439 65.4369 60.3216C65.4742 60.3216 65.5115 60.3216 65.5488 60.303C66.192 60.0614 66.658 59.6154 67.0216 59.0856C68.4198 58.0541 69.8926 57.1991 71.5705 56.9575C71.5798 56.9575 71.5798 56.9575 71.5891 56.9575C71.7289 56.9389 71.8128 56.8646 71.8594 56.7717C72.5865 57.0319 73.3136 57.2921 74.0407 57.5523C73.8915 58.2028 74.0407 58.8905 74.6372 59.6061C74.8516 60.7212 75.0381 61.855 75.0008 62.998C74.9355 65.5815 73.5932 67.403 71.5798 68.8806C68.8393 70.8879 66.2199 72.6536 64.1133 75.3764C63.9175 75.6274 63.7311 75.8876 63.554 76.1571C63.4887 76.2128 63.4328 76.2872 63.4048 76.3615C61.8761 78.6662 60.7948 81.2311 59.294 83.573ZM102.602 51.3445C102.192 53.2682 101.614 55.1547 101.045 57.0412C100.803 57.8497 100.672 58.8347 100.281 59.5782C100.001 60.1172 99.9172 60.7119 99.0782 60.6748C98.9011 60.6655 98.724 60.3681 98.5282 60.3216C96.8317 59.9127 94.9674 60.0428 94.2031 61.9386C93.5599 63.5277 93.8302 65.2191 93.0286 66.8361C92.1989 68.5181 90.9778 70.1073 89.7474 71.5198C87.8738 73.6758 85.9442 73.6108 83.3435 74.0475C81.5351 74.3542 79.9505 75.2463 78.2633 75.8969C73.8915 77.5882 69.2308 76.9749 64.7285 76.2035C65.7911 74.6981 67.0029 73.2855 68.5596 72.0402C70.4426 70.5347 72.7636 69.4567 74.2923 67.5517C75.6626 65.8417 75.9889 63.7322 75.8024 61.5948C75.7092 60.4982 75.5974 58.6396 75.0847 57.2177C76.0075 55.2197 79.9132 53.2031 81.0318 52.3203C83.8189 50.1364 85.4409 47.2369 87.4357 44.3747C89.766 41.0199 92.3667 37.7766 95.2564 34.8771C95.9742 34.1523 97.1673 32.7118 97.8944 34.4311C98.0062 34.6913 97.9223 35.1373 98.0156 35.4254C98.5189 36.9774 100.355 37.9996 101.231 39.3285C103.562 42.8878 103.45 47.3578 102.602 51.3445Z" fill="#C8A898"/>
</g>
<defs>
<clipPath id="clip0_97_19">
<rect width="104" height="89" fill="white"/>
</clipPath>
</defs>
</svg>
