<svg width="114" height="99" viewBox="0 0 114 99" fill="none" xmlns="http://www.w3.org/2000/svg">
<path d="M113.776 78.9469C113.291 77.3179 112.973 75.9324 113.02 74.2098C113.095 71.6447 113.076 69.3043 112.161 66.8703C110.396 62.1894 106.709 59.2311 102.125 57.546C96.5234 55.4864 90.5951 54.3911 84.6389 54.1664C86.4687 53.6984 88.3732 53.5111 90.2777 53.3239C92.9945 53.0524 95.7205 52.8277 98.4373 52.6311C99.9123 52.5281 101.387 52.4345 102.862 52.3503C103.357 52.3222 104.515 52.032 104.907 52.2379C105.336 52.472 105.056 52.2005 105.299 52.7996C105.701 53.8013 105.803 55.0839 107.232 55.0745C108.333 55.0652 109.173 53.9698 109.295 52.9494C109.51 51.1333 108.072 49.083 107.129 47.6413C106.214 46.2371 105.066 44.9264 103.469 44.2992C102.806 44.0371 101.509 43.6626 100.472 43.7094C101.154 42.8107 102.237 42.1273 102.564 41.032C102.984 39.6371 101.91 38.4481 101.191 37.3622C100.426 36.2013 99.6602 34.4039 98.3812 33.6924C97.0929 32.9715 95.5992 33.6924 94.2081 33.5988C95.4778 32.0167 96.7568 29.9758 95.7579 27.9537C95.2537 26.9333 94.2641 26.4839 93.3492 25.9128C92.4903 25.3698 91.9955 24.8081 91.5567 23.9094C91.342 23.4694 91.174 23.0388 90.7632 22.7298C88.9427 21.3911 86.0112 23.5443 84.6389 24.6396C82.2116 26.5775 79.971 28.7681 77.8797 31.0711C78.7853 28.6933 79.7095 26.3247 80.5591 23.9281C81.418 21.5315 82.2116 18.9571 82.1182 16.3733C81.9221 11.5426 77.1049 9.03368 73.0904 7.50772C72.8664 7.42347 72.6516 7.63878 72.6423 7.84474C72.1662 19.2098 68.964 30.2847 63.3625 40.1239C63.5119 39.8243 63.6706 39.5247 63.8106 39.2158C66.2939 33.9639 67.5823 28.2626 67.5263 22.4396C67.4703 16.9256 66.378 11.0371 63.7919 6.12219C61.682 2.10602 57.3222 -1.37654 52.6169 0.561337C52.4209 0.645592 52.2715 0.870273 52.4115 1.07623C54.316 4.08134 54.2694 8.39708 54.7082 11.8235C55.203 15.6805 55.6604 19.5375 56.0992 23.3945C56.5193 27.1018 56.9768 30.809 57.3409 34.5256C57.6863 38.0456 57.2755 41.2286 55.9218 44.3741C56.0058 42.5392 55.9031 40.6669 55.8098 38.8788C55.539 33.4584 54.7268 27.8881 53.0277 22.7111C52.3182 20.5298 51.0952 19.0413 49.6481 17.3188C48.0424 15.4184 47.0994 13.0873 45.4377 11.2243C43.9626 9.56729 42.1701 8.21921 40.331 6.98346C38.6692 5.86006 36.7086 4.24985 34.6454 4.00644C33.2637 3.83793 31.5366 4.46517 31.7887 6.13155C31.966 7.34857 33.0677 8.55623 33.7118 9.55793C34.3093 10.4847 34.8975 11.4116 35.495 12.3384C32.5355 10.4473 28.7545 9.35198 25.739 11.7579C21.7246 14.9503 28.7638 16.4388 30.7897 17.4498C35.4016 19.7435 39.5467 22.992 42.8423 26.952C44.6908 29.1801 45.8578 31.5205 46.838 34.2354C46.9967 34.666 47.1555 35.0967 47.3142 35.5179C45.447 33.112 43.4398 30.7435 40.8444 29.0958C37.997 27.2796 34.6081 26.6056 31.3405 25.9315C28.269 25.295 25.0762 24.7707 21.9393 25.2201C20.3803 25.4447 16.8326 26.0813 16.4499 28.066C16.0204 30.3503 20.3709 30.8464 21.6686 31.2303C25.3283 32.3162 28.9972 33.3647 32.6756 34.3758C36.5873 35.4524 41.4139 36.0235 44.4667 38.935C46.2592 40.6481 47.7156 42.8669 48.9386 45.1886C47.6036 43.4567 46.2592 41.7247 44.8962 40.0116C43.2998 37.9988 41.5353 36.9877 39.0053 36.5571C36.1298 36.0703 33.105 35.8456 30.1922 35.9579C27.6809 36.0328 25.2069 36.4635 22.9009 37.4464C21.1551 38.1954 18.3077 39.6745 17.5048 41.5469C16.6739 43.4754 19.7828 43.7281 20.9031 43.9809C24.1239 44.7298 27.3541 45.4601 30.5937 46.1154C34.0853 46.8269 37.5956 47.4447 41.1338 47.9035C43.1224 48.1656 44.8868 48.4184 46.5953 49.523C47.6969 50.2345 48.6959 51.0864 49.6014 52.0226C49.256 51.7886 48.9106 51.5639 48.5372 51.3579C46.6327 50.3001 44.4574 48.8771 42.2541 49.6916C39.8268 50.5903 37.4649 52.1724 35.3643 53.6609C33.2824 55.1401 31.3219 56.8064 29.5294 58.632C28.017 60.1767 26.2525 61.9928 25.9164 64.2396C25.5616 66.6269 27.018 67.0575 29.0719 67.5069C31.77 68.106 34.5614 68.1622 37.3061 67.872C38.1557 67.7784 38.9959 67.6567 39.8268 67.5162C35.411 69.4916 31.0325 71.5418 26.6726 73.6388C21.6313 76.0635 16.6459 78.6098 11.7913 81.3996C9.28927 82.8413 6.82461 84.3392 4.4253 85.9401C2.8382 86.9979 1.02705 88.0277 0.112137 89.7503C-0.335984 90.6022 0.625608 91.8005 1.53119 91.1733C9.79341 85.3596 18.261 80.3324 27.3728 75.9043C31.9194 73.695 36.5033 71.5886 41.0965 69.4822C46.1192 67.1886 51.2072 65.5971 56.3513 63.706C55.5857 67.5162 53.9426 71.055 51.9914 74.4252C50.8805 76.3443 49.6855 78.2167 48.5185 80.1077C47.5942 81.5962 45.9791 83.4499 45.5777 85.1537C44.9242 87.8686 49.6201 88.4022 51.3192 88.0652C55.3897 87.2788 58.7973 83.3469 61.8127 80.7911C64.7255 77.2992 65.7525 72.9367 65.127 68.4899C68.6559 72.375 71.9328 76.3911 73.5572 81.4839C74.3601 83.9928 74.8642 86.5954 75.3497 89.1886C75.9285 92.2686 76.3486 95.3298 75.6671 98.4286C75.6298 98.6064 75.7231 98.8218 75.9099 98.8592C79.8029 99.7486 82.9024 94.7869 83.976 91.6975C84.6669 89.7035 84.919 87.5503 84.7042 85.4439C84.6015 84.4609 84.3961 83.4873 84.0881 82.5511C83.752 81.5588 83.1545 80.6507 82.7997 79.6584C84.2001 80.4541 85.0403 81.9426 85.9085 83.272C86.8421 84.7137 87.757 86.1835 88.6253 87.6626C90.3711 90.6303 91.9862 93.6822 93.4893 96.7809C93.5733 96.9588 93.8067 96.9869 93.9654 96.9026C98.7267 94.5996 99.8283 88.3554 98.6333 83.6184C97.9518 80.9222 95.9072 78.8813 94.1614 76.8311C92.8077 75.2396 91.4074 73.6856 89.9323 72.2064C90.8379 72.5996 91.7808 72.9273 92.7237 73.283C95.8326 74.4533 98.8854 75.7639 101.873 77.2243C104.655 78.5818 107.278 80.3792 110.098 81.643C111.302 82.186 113.048 82.5324 113.785 81.1094C114.149 80.4447 114 79.6864 113.776 78.9469ZM55.7164 46.3401C55.7351 46.3213 55.7538 46.3026 55.7724 46.2745C57.2755 43.4473 58.1437 40.5264 58.1811 37.3809C59.5908 26.5588 59.124 15.5494 56.7901 4.87708C56.734 4.61495 56.3419 4.72729 56.3979 4.98942C58.5452 14.7911 59.096 24.8924 58.0691 34.8626C57.7796 31.0337 57.2195 27.2047 56.7901 23.3945C56.3139 19.1911 55.8098 14.9971 55.2683 10.803C54.8575 7.63878 54.8389 3.93155 53.2238 1.07623C58.8253 -0.871004 62.8023 4.85836 64.4828 9.47368C66.35 14.5852 67.1155 20.0992 66.7327 25.529C66.3313 31.2209 64.5295 36.4541 61.8874 41.472C61.2619 42.6516 60.6738 43.906 59.9362 45.0294C59.1147 46.2933 58.0504 46.8456 56.6407 47.1545C56.2299 47.2481 55.8285 47.323 55.4364 47.4167C55.5671 47.0796 55.6604 46.7145 55.7164 46.3401ZM64.9963 53.0524C64.9309 53.0243 64.8749 52.9869 64.8002 52.9681C64.4174 52.8745 63.9506 53.0337 63.7546 53.3894C63.5772 53.7264 63.5772 54.2507 63.8946 54.5128C64.0907 54.672 64.2494 54.7937 64.5015 54.8405C64.8842 54.9154 65.3417 54.7937 65.5377 54.4192C65.6311 54.2507 65.6684 54.0447 65.6498 53.8481C65.6684 53.8575 65.6778 53.8669 65.6871 53.8669C65.7058 53.8762 65.7338 53.8856 65.7525 53.895C66.3966 54.1384 67.0781 53.5205 67.0781 52.8839C67.0781 52.706 67.0221 52.5375 66.9381 52.3784C66.9848 52.3877 67.0315 52.3877 67.0875 52.3503C67.1248 52.3315 67.1622 52.3035 67.1995 52.2754C67.6103 53.1554 67.7597 54.2601 67.7503 55.2618C67.6103 55.1869 67.4609 55.1307 67.2835 55.1307C66.7794 55.1307 66.3033 55.5707 66.322 56.095C66.35 56.6192 66.7421 57.0592 67.2835 57.0592C67.3676 57.0592 67.4516 57.0405 67.5356 57.0218C67.2742 58.0703 66.7887 59.0626 66.6114 60.1392C66.5647 60.4201 66.6487 61.1596 66.5087 61.375C66.462 61.4498 66.0886 61.4686 65.9859 61.5435C65.099 62.1333 63.5959 63.4345 62.4943 63.3784C61.4206 63.3222 60.3937 62.7324 59.5628 62.1052C58.928 61.6184 57.2942 60.9443 56.5847 60.1392C56.482 59.8677 56.3606 59.5962 56.2206 59.3341C56.2019 59.2592 56.1739 59.1937 56.1179 59.1469C55.6324 58.2669 54.9789 57.4524 54.3347 56.6473C53.5412 55.655 52.7196 54.7094 51.8234 53.8481C51.8701 53.7545 51.8794 53.6515 51.7954 53.5392C51.758 53.483 51.7113 53.4362 51.6647 53.3801C51.8234 52.6405 51.9167 51.9758 51.9261 51.3392C51.9728 51.3111 52.0101 51.2737 52.0381 51.2175C52.0754 51.1426 52.1035 51.0771 52.1408 51.0022C52.3182 51.0584 52.5329 51.0022 52.5983 50.7775C52.9343 49.7009 53.9893 49.3264 54.6988 48.5775C54.8108 48.4558 54.9042 48.3341 54.9976 48.203C56.0899 47.7911 57.4436 47.7256 58.5452 47.2481C58.6105 47.2856 58.6946 47.3137 58.7879 47.295C59.9082 47.1077 61.1219 46.8737 62.2515 47.2107C63.6612 47.6413 63.7266 48.5681 64.3988 49.626C64.8189 50.2907 65.3604 50.4967 66.0325 50.8992C66.434 51.1426 66.7514 51.4984 67.0035 51.9196C66.9568 51.9477 66.9194 51.9758 66.8821 52.0039C66.8167 52.0507 66.7887 52.1069 66.7887 52.1724C66.5273 51.8915 66.1446 51.723 65.7618 51.8728C65.7431 51.8822 65.7151 51.8915 65.6964 51.9009C65.1456 52.1069 64.9216 52.603 64.9963 53.0524ZM56.9114 61.403C56.9114 61.375 56.9021 61.3469 56.9021 61.3188C56.9394 61.3375 56.9674 61.3562 57.0048 61.375C56.9674 61.3843 56.9394 61.3937 56.9114 61.403ZM45.1669 28.9086C43.1784 25.8192 40.443 23.1324 37.5582 20.8856C34.6361 18.6013 31.3872 16.7571 27.933 15.409C27.4942 15.2405 27.046 15.1001 26.6073 14.9222C25.8137 14.8473 25.543 14.4073 25.8044 13.6022C25.5056 12.8533 25.7297 12.3384 26.4579 12.0575C27.3635 11.449 28.4744 11.1307 29.5481 11.0745C32.1621 10.9435 34.5147 12.3196 36.4939 13.9018C36.7833 14.1358 37.2781 13.8362 37.0447 13.4711C36.1858 12.1324 35.3363 10.7937 34.4774 9.46432C33.9079 8.56559 31.0044 5.14857 34.0946 4.6524C35.4016 4.43708 37.0074 5.67283 38.0343 6.31878C39.0893 6.98346 40.1349 7.66687 41.1432 8.38772C43.3651 9.98857 45.2789 11.8047 46.7073 14.1545C47.3142 15.1469 47.8556 16.1673 48.5558 17.0847C49.368 18.152 50.3857 19.0601 51.1232 20.1835C52.6263 22.5052 53.1584 25.6133 53.7279 28.2907C54.3441 31.2209 54.7642 34.1886 54.9882 37.175C55.1936 39.9928 55.343 42.9043 55.0816 45.7222C55.0069 46.5741 54.7548 47.2013 54.3347 47.763C53.7746 48.0158 53.2704 48.3809 52.8877 48.9988C52.841 49.0737 52.8316 49.1392 52.841 49.2047C52.8223 49.2141 52.813 49.2328 52.7943 49.2422C53.6345 45.9188 52.2808 42.6796 50.4043 39.7494C50.451 39.6371 50.4417 39.4967 50.339 39.3843C47.6596 36.4635 47.3048 32.2132 45.1669 28.9086ZM48.089 42.5392C46.782 40.4796 45.3536 38.4013 43.2531 37.0813C40.9098 35.6115 38.081 35.0779 35.4483 34.3758C32.4142 33.5613 29.3893 32.7188 26.3645 31.8481C24.8521 31.4175 23.3491 30.9681 21.8366 30.5281C21.0804 30.3035 20.3336 30.0788 19.5774 29.8541C19.2973 29.7698 18.8585 29.7137 18.6064 29.5639C18.0743 29.4984 17.8316 29.1426 17.8782 28.4873C17.3181 27.8975 17.3274 27.495 17.9063 27.289C18.6251 26.2592 21.6593 25.9222 22.7609 25.8098C24.208 25.6694 25.683 25.7537 27.1301 25.9128C33.161 26.615 39.4907 28.0005 43.8412 32.5128C46.0818 34.8439 48.1357 37.512 49.9002 40.2175C51.7767 43.0915 53.0557 46.6115 51.8514 49.9162C51.8047 49.8039 51.758 49.6915 51.7113 49.5792C51.5713 49.083 51.3566 48.5962 51.0765 48.0907C50.2083 46.1809 49.2187 44.3179 48.089 42.5392ZM45.4283 48.0907C42.7116 46.9298 39.3787 46.9954 36.4939 46.5086C33.1237 45.9375 29.7721 45.2541 26.4299 44.5145C24.6467 44.1213 22.8729 43.7094 21.0898 43.2975C20.1002 43.0635 17.9063 43.0728 18.6905 41.1724C18.9052 40.6575 19.8201 40.0958 20.2589 39.7681C25.4496 35.8456 33.2637 36.0422 39.36 37.306C42.8796 38.0362 44.5134 40.6294 46.586 43.2881C47.7623 44.8047 48.9946 46.2839 50.1149 47.8379C50.255 48.0252 50.367 48.2124 50.4697 48.3903C50.6937 48.8958 50.8991 49.4013 51.1045 49.8881C51.3192 50.7681 51.2912 51.6575 51.1139 52.6498C49.5548 50.7962 47.6503 49.0456 45.4283 48.0907ZM30.1922 67.0294C28.4184 66.7205 26.1031 66.2618 26.7286 63.8652C27.1487 62.2737 28.3344 60.9537 29.4267 59.7835C31.2659 57.8175 33.3011 56.0294 35.4856 54.4567C36.5873 53.6609 37.7356 52.9213 38.9119 52.2286C40.0695 51.5545 41.7593 50.3094 43.085 50.169C44.7095 49.9911 46.2779 50.9647 47.6689 51.695C48.8639 52.3222 49.9842 53.0711 50.9832 53.9698C50.9645 53.9605 50.9365 53.9605 50.9085 53.9605C43.8972 54.2881 37.1568 56.7784 31.6113 61.0941C31.4059 61.2533 31.6953 61.5435 31.9007 61.3843C37.3528 57.1435 44.0186 54.6907 50.9085 54.3724C51.0858 54.363 51.1419 54.1852 51.0858 54.0635C51.2165 54.1852 51.3472 54.2881 51.478 54.4098C52.813 55.7298 54.5868 57.5086 55.5484 59.4464C55.5671 60.055 55.7351 60.4575 56.0619 60.7758C56.1645 61.1503 56.2206 61.5154 56.2392 61.8899C55.5671 62.1052 54.8949 62.3205 54.2227 62.5452C50.367 62.9477 46.53 64.5579 43.001 66.1213C41.918 66.3928 40.8258 66.6456 39.7241 66.8422C36.5873 67.4039 33.3384 67.5818 30.1922 67.0294ZM108.529 80.0141C107.026 79.1528 105.504 78.329 103.964 77.5333C101.238 76.1384 98.4559 74.8652 95.6272 73.7137C93.0411 72.6652 89.923 71.9911 87.729 70.175C87.533 70.0064 87.3556 69.8192 87.1596 69.6601C86.8235 69.3699 86.338 69.8286 86.6648 70.1562C86.8888 70.3809 87.1222 70.5869 87.3649 70.7835C89.008 72.2533 90.5485 73.826 92.0049 75.4737C93.7507 77.4396 95.8045 79.4899 97.1116 81.7741C99.6322 86.1741 98.5866 93.5886 93.928 96.163C92.1916 92.5869 90.2964 89.0856 88.2238 85.6967C86.7394 83.2626 85.1897 79.7894 82.3423 78.7316C82.0715 78.6286 81.8661 78.9281 81.9128 79.1622C82.2116 80.8286 83.3319 82.2516 83.724 83.9273C84.1721 85.809 84.1721 87.7937 83.7893 89.6941C83.1731 92.7554 80.3257 98.8218 76.3953 98.2694C76.9088 95.6107 76.6847 92.952 76.2366 90.2839C75.7231 87.2788 75.1443 84.2362 74.2201 81.3247C72.4276 75.7264 68.7213 71.4013 64.8095 67.1511C64.5575 66.8796 64.156 67.1699 64.2214 67.4975C65.1736 72.0754 64.2961 76.7188 61.2899 80.323C58.4052 82.7664 55.1656 86.5111 51.3473 87.363C49.5454 87.7656 45.6337 87.3818 46.5766 84.6856C47.1461 83.066 48.4998 81.4464 49.4054 79.9954C52.953 74.3035 56.622 68.5179 57.3782 61.7026C57.3782 61.6652 57.3782 61.6371 57.3689 61.5996C58.4145 62.2362 59.3481 63.1162 60.4404 63.603C60.9632 63.8371 61.8594 64.1086 62.5783 64.1554C62.5036 72.2813 58.7973 80.1358 52.5609 85.3316C52.3555 85.5001 52.6449 85.7903 52.8503 85.6218C59.1707 80.3605 62.9237 72.3843 62.9891 64.1554C63.0451 64.146 63.1011 64.146 63.1478 64.1367C64.5295 63.8652 65.3043 62.2456 66.7887 62.0584C66.9848 62.0303 67.1248 61.9179 67.1435 61.7026C67.2929 59.615 68.3478 57.7333 68.3945 55.655C68.4132 54.5596 68.3385 53.0337 67.825 51.8728C76.1806 46.415 82.445 38.4669 88.5226 30.6686C88.6813 30.4626 88.3919 30.1724 88.2332 30.3784C82.1835 38.1486 75.9565 46.0686 67.6383 51.5077C67.4703 51.2175 67.2835 50.946 67.0408 50.7401C66.1352 49.963 65.4257 49.9537 64.8002 48.7367C64.4921 48.1469 64.3147 47.6694 63.7826 47.2388C62.625 46.2933 61.1406 46.2745 59.7215 46.4618C60.0109 46.1716 60.263 45.8345 60.4964 45.4881C60.6364 45.5443 60.8138 45.5256 60.9258 45.3571C68.3852 34.4039 72.6703 21.5596 73.3145 8.33155C75.4804 9.19283 77.5997 10.3443 79.3361 11.8984C81.5487 13.8737 81.6607 16.5792 81.1473 19.3222C80.2977 23.8813 78.1598 28.2907 76.5354 32.6158C76.414 32.9435 76.8995 33.215 77.1235 32.9622C78.7573 31.0805 80.4751 29.2737 82.3142 27.5792C84.0974 25.9315 86.0953 23.872 88.4946 23.226C89.7643 22.8796 90.5205 23.4413 91.0899 24.5928C91.202 24.8269 91.314 25.0422 91.4634 25.2575C91.8181 25.7443 92.2849 26.0907 92.7984 26.409C94.0401 27.186 95.4124 27.8507 95.4031 29.5545C95.3938 31.146 94.2735 32.4567 93.3119 33.6081C93.1438 33.8047 93.1905 34.123 93.4706 34.1979C94.3482 34.432 95.1417 34.3103 96.0193 34.1979C97.401 34.0201 98.0358 34.1043 99.0067 35.3213C99.4642 35.8924 99.8283 36.5664 100.23 37.175C101.182 38.626 102.713 40.1988 101.238 41.8277C100.65 42.483 100.024 43.0073 99.5949 43.7843C99.5669 43.8311 99.5576 43.8779 99.5482 43.9247C99.4455 43.9809 99.3428 44.0371 99.2588 44.1213C99.1468 44.2243 99.1281 44.4115 99.2028 44.552C99.3522 44.8047 99.4549 44.8515 99.7443 44.8609C99.8936 44.8703 100.052 44.7486 100.08 44.5988C100.09 44.5613 100.099 44.5239 100.099 44.4958C100.108 44.4584 100.108 44.4209 100.099 44.3835C101.21 44.5707 103.339 45.0107 103.553 45.1137C104.758 45.6847 105.645 46.7239 106.382 47.8005C106.952 48.643 107.456 49.5511 107.904 50.4592C108.137 50.8992 108.333 51.3579 108.483 51.8354C108.959 53.352 108.567 53.9792 107.306 53.6984C106.485 54.0728 106.065 53.8575 106.046 53.0618C105.971 52.6686 105.943 52.2754 105.943 51.8822C105.934 51.695 105.785 51.5171 105.589 51.5264C101.154 51.7418 96.7288 52.0413 92.3036 52.4439C88.9894 52.7435 85.5631 52.9213 82.4449 54.1477C82.2302 54.1477 82.0062 54.1384 81.7914 54.1384C81.53 54.1384 81.4273 54.3724 81.4647 54.569C81.4273 54.5877 81.3807 54.6064 81.3433 54.6252C80.9419 54.8218 81.2966 55.4303 81.6981 55.2337C81.9875 55.0933 82.2769 54.9622 82.5757 54.8498C88.9707 54.8779 95.3284 55.9077 101.369 58.0422C107.316 60.1392 112.03 64.6516 112.376 71.289C112.45 72.6745 112.254 74.0601 112.301 75.4362C112.32 76.0635 112.366 76.6907 112.506 77.3086C112.656 77.9826 113.141 78.7316 113.179 79.415C113.403 83.2065 109.799 80.7443 108.529 80.0141Z" fill="#C8A898"/>
<path d="M56.7619 50.1407C58.125 50.1407 58.1343 48.0156 56.7619 48.0156C55.3896 48.0156 55.3896 50.1407 56.7619 50.1407Z" fill="#C8A898"/>
<path d="M59.3948 49.5045C60.4124 49.4577 60.7392 48.1845 59.899 47.6228C59.8896 47.6135 59.8803 47.6135 59.8709 47.6041C59.6095 47.4262 59.1801 47.4262 58.9187 47.6041C58.9094 47.6135 58.9 47.6135 58.8907 47.6228C58.5172 47.8756 58.3025 48.3062 58.4239 48.765C58.5359 49.1675 58.956 49.5233 59.3948 49.5045Z" fill="#C8A898"/>
<path d="M62.0181 49.4946C62.737 49.4946 62.7463 48.3712 62.0181 48.3712C61.2993 48.3618 61.2993 49.4946 62.0181 49.4946Z" fill="#C8A898"/>
<path d="M63.7734 49.9346C63.4559 49.9346 63.1479 50.1031 62.9518 50.3465C62.7278 50.2622 62.4664 50.2716 62.2236 50.3933C62.1676 50.412 62.1209 50.4401 62.0836 50.4775C61.5981 50.8239 61.5981 51.4324 62.0836 51.7788C62.1303 51.8163 62.1769 51.8444 62.2236 51.8631C62.5317 52.0222 62.8865 51.9848 63.1479 51.8069C63.3159 51.9473 63.5306 52.0316 63.7734 52.0316C64.3242 52.0316 64.847 51.5448 64.819 50.9831C64.8003 50.412 64.3615 49.9346 63.7734 49.9346Z" fill="#C8A898"/>
<path d="M65.9672 59.5676C67.1995 59.5676 67.1995 57.6485 65.9672 57.6485C64.7349 57.6391 64.7349 59.5676 65.9672 59.5676Z" fill="#C8A898"/>
<path d="M63.4931 60.2322C63.4838 60.251 63.4651 60.2697 63.4558 60.2791C63.2784 60.5318 63.3064 60.9156 63.4558 61.1684C63.4651 61.1871 63.4744 61.2059 63.4838 61.2246C63.8012 61.7769 64.6227 61.7769 64.9402 61.2246C64.9495 61.2059 64.9588 61.1871 64.9682 61.1684C65.1175 60.9156 65.1455 60.5225 64.9682 60.2791C64.9588 60.2603 64.9402 60.2416 64.9308 60.2322C64.5481 59.6986 63.8852 59.6986 63.4931 60.2322Z" fill="#C8A898"/>
<path d="M61.1406 60.3262C60.6271 60.3262 60.1323 60.7755 60.1603 61.3091C60.1883 61.8428 60.5898 62.2921 61.1406 62.2921C61.654 62.2921 62.1488 61.8428 62.1208 61.3091C62.1022 60.7755 61.7007 60.3262 61.1406 60.3262Z" fill="#C8A898"/>
<path d="M58.872 58.9873C58.4146 58.9873 58.0225 59.3805 58.0225 59.8392C58.0225 60.2979 58.4052 60.6911 58.872 60.6911C59.3295 60.6911 59.7216 60.2979 59.7216 59.8392C59.7122 59.3805 59.3295 58.9873 58.872 58.9873Z" fill="#C8A898"/>
<path d="M58.1625 58.3795C58.1252 57.8739 57.7424 57.3871 57.2009 57.4152C56.6501 57.4433 56.2767 57.8365 56.2393 58.3795C56.2393 58.4076 56.2393 58.4263 56.23 58.4544C56.1926 58.9599 56.6968 59.4467 57.1916 59.4186C57.6864 59.3999 58.1998 58.988 58.1532 58.4544C58.1625 58.4356 58.1625 58.4076 58.1625 58.3795Z" fill="#C8A898"/>
<path d="M55.4738 55.4212C55.4551 55.4305 55.4271 55.4399 55.4084 55.4493C54.7642 55.6927 54.7642 56.5259 55.4084 56.7786C55.4271 56.788 55.4551 56.7973 55.4738 56.8067C55.9126 56.9752 56.37 56.5539 56.37 56.1233C56.3794 55.6833 55.9126 55.2527 55.4738 55.4212Z" fill="#C8A898"/>
<path d="M55.4644 53.277C55.4364 52.6872 54.9883 52.1816 54.3721 52.1816C53.8026 52.1816 53.2518 52.6872 53.2798 53.277C53.3078 53.8667 53.756 54.3723 54.3721 54.3723C54.9416 54.3723 55.4924 53.8667 55.4644 53.277Z" fill="#C8A898"/>
<path d="M55.3617 51.4799C55.3991 51.4612 55.4271 51.4518 55.4644 51.4331C55.8472 51.2552 55.9686 50.7216 55.8192 50.3565C55.6418 49.9539 55.2404 49.7761 54.8109 49.8603C54.7736 49.8697 54.7362 49.879 54.6989 49.879C54.1854 49.982 53.9427 50.6093 54.1387 51.0586C54.3441 51.5735 54.8856 51.7046 55.3617 51.4799Z" fill="#C8A898"/>
<path d="M56.818 52.8462C56.7713 53.099 56.7153 53.3517 56.7247 53.6139C56.7433 54.1475 57.3035 54.7279 57.8823 54.4939C58.125 54.4002 58.3304 54.316 58.4985 54.11C58.6759 53.8947 58.7879 53.6794 58.8906 53.4173C59.0866 52.893 58.6665 52.219 58.1437 52.0973C57.6022 51.9756 56.9301 52.2564 56.818 52.8462Z" fill="#C8A898"/>
<path d="M59.7774 50.5619C59.1052 50.7397 58.6945 51.4231 58.7972 52.0972C58.9185 52.8836 59.6654 53.4453 60.4496 53.2299C60.8324 53.127 61.1498 52.9023 61.3085 52.5278C61.3645 52.3968 61.3645 52.3874 61.3178 52.5185C61.3458 52.4529 61.3739 52.3874 61.4019 52.3125C61.4205 52.2657 61.4299 52.2282 61.4392 52.1814C61.4859 51.9755 61.4859 51.7414 61.4205 51.5355C61.2898 51.0768 60.8417 50.6929 60.3936 50.6742C60.2162 50.5525 59.9921 50.4963 59.7774 50.5619Z" fill="#C8A898"/>
<path d="M63.7734 57.9107C64.959 57.9107 64.959 56.0664 63.7734 56.0664C62.597 56.0664 62.597 57.9107 63.7734 57.9107Z" fill="#C8A898"/>
<path d="M60.4403 57.6208C60.4496 57.6302 60.459 57.6395 60.4683 57.6395C60.655 57.78 61.0378 57.78 61.2245 57.6395C61.2338 57.6302 61.2432 57.6208 61.2525 57.6208C61.5793 57.3774 61.682 57.0966 61.6259 56.7034C61.6259 56.6753 61.6166 56.6566 61.6166 56.6285C61.5046 55.8608 60.1789 55.8608 60.0668 56.6285C60.0668 56.6566 60.0575 56.6753 60.0575 56.7034C60.0108 57.1059 60.1229 57.3774 60.4403 57.6208Z" fill="#C8A898"/>
<path d="M59.7494 54.653C59.6841 54.6155 59.6094 54.5874 59.544 54.5593C59.2359 54.3253 58.7411 54.344 58.5171 54.7372C58.4611 54.8308 58.4331 54.9244 58.4144 55.0181C58.321 55.2427 58.3677 55.5142 58.4704 55.7202C58.5171 55.8138 58.5918 55.9074 58.6665 55.9823C58.8625 56.1976 59.2266 56.3006 59.5067 56.207C59.5254 56.1976 59.544 56.1976 59.5627 56.1883C60.2069 55.9636 60.4123 55.0274 59.7494 54.653ZM59.7868 55.0087C59.7868 55.0087 59.7868 55.0181 59.7961 55.0181C59.7961 55.0461 59.7961 55.0649 59.8054 55.093C59.7961 55.0555 59.7868 55.0368 59.7868 55.0087Z" fill="#C8A898"/>
<path d="M63.5679 54.522C63.5025 54.0633 63.1384 53.7637 62.681 53.7356C62.4662 53.7169 62.2702 53.7824 62.0835 53.8947C61.7474 54.0913 61.542 54.5407 61.6634 54.9245C61.6727 54.9526 61.682 54.9807 61.6914 55.0088C61.8034 55.3458 62.0928 55.5986 62.4569 55.5892C62.6156 55.5892 62.765 55.5611 62.9144 55.5143C63.3531 55.3833 63.6239 54.9713 63.5679 54.522Z" fill="#C8A898"/>
<path d="M75.247 34.731C72.6423 40.0204 69.5428 45.0382 65.9765 49.7285C65.8178 49.9344 66.1725 50.1404 66.3312 49.9344C69.8975 45.2442 73.0064 40.2263 75.6017 34.937C75.7231 34.7029 75.3683 34.497 75.247 34.731Z" fill="#C8A898"/>
<path d="M81.7633 32.588C78.3091 37.8868 74.4067 42.8765 70.0935 47.5012C69.9162 47.6978 70.2056 47.988 70.383 47.7914C74.7241 43.1387 78.6452 38.1302 82.1181 32.8034C82.2581 32.5693 81.9034 32.3634 81.7633 32.588Z" fill="#C8A898"/>
<path d="M70.0003 53.6042C73.6132 51.7038 76.7314 49.0638 79.6629 46.2365C82.9397 43.0723 86.0859 39.7676 89.2788 36.5284C89.4655 36.3412 89.1761 36.051 88.9894 36.2382C85.8805 39.4025 82.809 42.6042 79.6348 45.7029C76.6567 48.5957 73.4919 51.3106 69.8042 53.2578C69.5615 53.3701 69.7669 53.7259 70.0003 53.6042Z" fill="#C8A898"/>
<path d="M74.36 52.3222C74.1359 52.4533 74.3413 52.809 74.5654 52.6779C77.973 50.7026 81.3712 48.7273 84.7788 46.752C86.4219 45.7971 88.065 44.8422 89.7081 43.8873C91.4539 42.8762 93.1717 41.7809 95.0482 41.032C95.291 40.9384 95.1883 40.5358 94.9362 40.6388C91.4259 42.0337 88.1864 44.2992 84.9188 46.1903C81.4086 48.2405 77.889 50.2813 74.36 52.3222Z" fill="#C8A898"/>
<path d="M71.4101 55.4956C80.5219 48.9798 92.0423 48.6147 102.816 48.3807C103.077 48.3713 103.077 47.9688 102.816 47.9688C91.9769 48.2028 80.3725 48.5866 71.2047 55.1398C70.99 55.2896 71.1953 55.6453 71.4101 55.4956Z" fill="#C8A898"/>
<path d="M69.5242 58.1268C70.9339 57.1625 72.7077 56.7319 74.3508 56.3387C76.1619 55.908 78.0011 55.6553 79.8589 55.5429C80.1203 55.5242 80.1203 55.1217 79.8589 55.131C77.9638 55.2434 76.0873 55.4961 74.2388 55.9361C72.5583 56.3293 70.7565 56.7787 69.3188 57.7617C69.104 57.9208 69.3001 58.2766 69.5242 58.1268Z" fill="#C8A898"/>
<path d="M91.9862 60.72C86.31 59.84 80.5217 58.96 74.8082 60.074C74.5468 60.1208 74.6588 60.5234 74.9202 60.4672C80.6618 59.3438 86.506 60.2706 92.2102 61.16C97.0742 61.9183 102.078 62.8732 106.093 65.9064C106.307 66.0655 106.503 65.7098 106.298 65.5506C102.162 62.4332 96.9902 61.4876 91.9862 60.72Z" fill="#C8A898"/>
<path d="M98.9787 67.5818C96.318 66.552 93.6013 65.6346 90.8566 64.8389C85.4044 63.2567 79.8309 62.1614 74.2014 61.5248C73.94 61.4967 73.94 61.9086 74.2014 61.9367C79.6722 62.5546 85.087 63.6125 90.3898 65.1291C92.9571 65.8593 95.4871 66.7018 97.9798 67.638C99.3335 68.1435 100.669 68.6772 101.994 69.2482C103.189 69.7631 104.338 70.3154 105.206 71.3078C105.383 71.5044 105.673 71.2142 105.495 71.0176C103.889 69.2014 101.173 68.4244 98.9787 67.5818Z" fill="#C8A898"/>
<path d="M72.0728 64.2393C71.8207 64.155 71.7181 64.5482 71.9608 64.6325C82.0902 68.2461 90.2777 76.5312 93.8067 86.7074C93.8907 86.9508 94.2921 86.8478 94.1988 86.595C90.6231 76.2784 82.3422 67.8997 72.0728 64.2393Z" fill="#C8A898"/>
<path d="M71.4286 68.9955C70.0749 67.2823 68.7025 65.5692 66.7887 64.4738C66.5553 64.3428 66.3499 64.6985 66.5833 64.8296C68.4131 65.8781 69.7294 67.507 71.0271 69.136C72.4929 70.9896 73.9586 72.8619 75.2003 74.884C77.6276 78.816 78.9159 83.3002 78.9533 87.9249C78.9533 88.187 79.364 88.187 79.364 87.9249C79.3267 83.2347 78.0197 78.6662 75.555 74.6781C74.3227 72.6747 72.8756 70.8304 71.4286 68.9955Z" fill="#C8A898"/>
<path d="M58.0783 69.8756C58.7878 68.1344 59.4133 66.3744 59.292 64.4739C59.2733 64.2118 58.8625 64.2118 58.8812 64.4739C59.0026 66.468 58.293 68.3029 57.5368 70.1097C56.818 71.8322 56.0244 73.5267 55.1655 75.1837C53.5037 78.3667 51.5806 81.3999 49.424 84.2739C49.2653 84.4893 49.62 84.6858 49.7787 84.4799C52.0847 81.4186 54.1199 78.1607 55.8564 74.7437C56.6686 73.1429 57.4061 71.5233 58.0783 69.8756Z" fill="#C8A898"/>
<path d="M53.9147 57.8082C54.1761 57.7614 54.064 57.3682 53.8026 57.415C50.4231 58.0235 47.1088 58.9316 43.9066 60.1767C42.4036 60.7571 40.9285 61.4031 39.4815 62.1239C37.8944 62.9103 36.3353 63.9869 34.5335 64.1835C34.2721 64.2116 34.2721 64.6235 34.5335 64.5954C36.0739 64.4269 37.3529 63.678 38.7066 62.9758C40.3217 62.1333 41.9835 61.375 43.6732 60.7103C46.9875 59.3997 50.4137 58.4448 53.9147 57.8082Z" fill="#C8A898"/>
<path d="M50.5818 49.083C48.6026 47.5383 46.6234 45.9843 44.6536 44.4396C43.1038 43.2226 41.5634 41.9026 39.7149 41.1536C37.7544 40.3673 35.5884 40.3673 33.5066 40.3579C30.9672 40.3485 28.4372 40.4796 25.9165 40.7324C25.6551 40.7604 25.6551 41.1724 25.9165 41.1443C28.1758 40.9196 30.4351 40.7885 32.713 40.7698C34.8883 40.7511 37.2129 40.6762 39.2854 41.4251C41.3207 42.1553 43.0011 43.6626 44.6816 44.9732C46.5487 46.4336 48.4252 47.9034 50.2924 49.3638C50.4978 49.5324 50.7872 49.2421 50.5818 49.083Z" fill="#C8A898"/>
<path d="M51.1512 43.775C44.6535 36.6882 36.9701 29.5639 26.906 28.7682C26.6446 28.7495 26.6446 29.1614 26.906 29.1801C36.8487 29.9571 44.4387 37.0627 50.8618 44.0652C51.0392 44.2618 51.3286 43.9716 51.1512 43.775Z" fill="#C8A898"/>
<path d="M52.8224 38.6351C50.2363 33.4861 47.5943 28.2904 44.056 23.7219C42.2915 21.4376 40.303 19.3313 38.0437 17.5432C36.0459 15.9704 33.5439 14.1074 30.8645 14.7908C30.6124 14.8564 30.7151 15.2496 30.9765 15.184C33.9733 14.4164 37.0261 17.1032 39.108 18.9568C41.1339 20.7542 42.917 22.8044 44.5135 24.9951C47.6597 29.3108 50.087 34.0853 52.4769 38.841C52.589 39.0751 52.9437 38.8691 52.8224 38.6351Z" fill="#C8A898"/>
<path d="M53.009 35.9481C53.065 36.2009 53.4665 36.0979 53.4011 35.8358C51.1978 26.4647 46.3805 17.8332 39.5934 11.0273C39.4067 10.8401 39.1173 11.1303 39.304 11.3175C46.0538 18.0766 50.8151 26.6426 53.009 35.9481Z" fill="#C8A898"/>
<path d="M58.6385 44.4681C63.7265 32.8315 64.24 19.4349 60.0389 7.45189C59.9548 7.20849 59.5534 7.31147 59.6468 7.56423C63.8106 19.4442 63.3251 32.7285 58.2837 44.2715C58.181 44.4962 58.5265 44.7115 58.6385 44.4681Z" fill="#C8A898"/>
<path d="M76.246 12.3011C76.2647 12.039 75.8539 12.039 75.8352 12.3011C75.4525 18.6202 74.7803 24.9768 72.7264 31.0058C70.8312 36.5666 67.8811 41.7343 64.0908 46.2185C63.9227 46.4151 64.2121 46.7147 64.3802 46.5088C68.1425 42.0619 71.0833 36.9598 73.0065 31.4551C75.1631 25.2858 75.8539 18.77 76.246 12.3011Z" fill="#C8A898"/>
</svg>
