<svg width="80" height="79" viewBox="0 0 80 79" fill="none" xmlns="http://www.w3.org/2000/svg">
<g clip-path="url(#clip0_362_2470)">
<path d="M32.0992 4.85666C30.6707 3.6641 29.2713 3.25688 27.5511 2.7624C25.6852 2.23884 24.0526 2.09341 16.1226 2.12249C16.1226 2.12249 14.4025 2.12249 13.5278 2.12249C13.1197 2.12249 12.8281 2.12249 12.0701 2.12249C10.9914 2.12249 10.5541 2.15158 9.85435 2.12249C9.85435 2.12249 4.19837 1.91888 2.68234 2.15158C2.62403 2.15158 2.56572 2.18067 2.50741 2.23884C2.50741 2.29701 2.47825 2.3261 2.47825 2.38427C2.39079 2.38427 2.33248 2.41336 2.24502 2.41336C2.15756 2.44245 2.1284 2.52971 2.1284 2.58788C1.89516 4.1004 2.09925 9.74326 2.09925 9.74326C2.1284 10.4413 2.09925 10.8486 2.09925 11.9539C2.09925 12.7392 2.09925 13.0301 2.09925 13.4082C2.09925 14.3099 2.09925 15.9969 2.09925 15.9969C2.09925 23.9086 2.21586 25.5665 2.7698 27.4281C3.26543 29.1442 3.67359 30.5404 4.86893 31.9656C8.07592 35.8051 13.4404 35.6306 14.1692 35.6015C15.5686 35.5433 19.0089 35.3688 21.5453 32.6056C21.866 32.2565 24.8106 28.9406 23.7611 24.5776C23.7027 24.4321 23.5861 23.9086 23.2946 23.2105C24.0234 23.5014 24.5482 23.6468 24.7231 23.6759C29.0963 24.723 32.4199 21.7852 32.7698 21.4653C35.5686 18.9347 35.7144 15.5025 35.7727 14.1063C35.8019 13.3791 35.9768 8.05622 32.0992 4.85666ZM28.2508 22.3379C26.0934 23.0941 24.0234 22.367 23.936 22.3379C23.2946 22.1052 22.7406 21.7561 22.3033 21.4071C21.8369 21.029 21.108 20.36 20.5832 19.3128C20.3791 18.8765 19.3296 16.6369 20.4374 14.2808C20.5249 14.0772 21.866 11.3721 24.5191 11.1976C25.7727 11.1103 27.4928 11.5466 28.1925 12.8265C28.3092 13.0301 28.7756 13.8154 28.5424 14.7462C28.3675 15.3279 27.9301 15.9679 27.2887 16.2296C26.589 16.4623 25.7436 16.346 25.5686 16.3169C25.1313 16.2296 24.8106 16.0551 24.6065 16.2296C24.4316 16.346 24.4025 16.6369 24.4608 16.8114C24.4899 16.9277 24.6357 17.1604 25.2771 17.364C26.8223 17.8876 28.2217 17.3931 28.4549 17.3058C29.1838 16.8114 29.5045 16.1424 29.6503 15.8515C30.175 14.6589 29.971 13.35 29.6503 12.5938C28.659 10.3541 24.8106 9.10335 21.9535 10.4413C19.0089 11.8084 17.9885 15.4734 18.659 18.2657C18.6882 18.4112 18.7465 18.5566 18.8048 18.702C18.6299 18.6438 18.4841 18.5857 18.3092 18.5566C15.5103 17.8585 11.8369 18.8765 10.4666 21.8143C9.12548 24.6648 10.3791 28.5043 12.5949 29.5223C12.6823 29.5514 14.3733 30.3659 15.8602 29.5223C17.6094 28.5625 17.7261 26.1774 17.4054 25.1302C17.3471 24.8975 17.1721 24.374 16.8514 24.3158C16.6765 24.2867 16.4433 24.4612 16.3558 24.6648C16.21 24.9266 16.2975 25.2175 16.3558 25.4502C16.5016 26.1192 16.4141 26.7882 16.2683 27.1372C16.0059 27.7771 15.3937 28.2134 14.7815 28.388C13.8485 28.6207 13.0613 28.1553 12.8573 28.0389C11.5745 27.3408 11.108 25.6538 11.2246 24.374C11.4287 21.7271 14.1109 20.4181 14.315 20.3018C16.6765 19.1965 18.9214 20.2436 19.3587 20.4472C20.4374 20.9708 21.1371 21.7271 21.487 22.1924C21.7494 22.5415 22.1284 23.0651 22.3908 23.7631C22.4199 23.8504 23.1488 25.9156 22.3908 28.068C20.9039 32.2565 14.4899 34.7871 9.8835 33.1291C9.35872 32.9546 7.14298 32.1402 5.6561 29.9877C4.72315 28.7079 4.43161 27.399 4.31499 26.7882C3.70274 23.705 3.67359 15.4152 4.34414 4.3331C15.5103 3.63501 23.8194 3.69318 26.9097 4.30401C27.522 4.42036 28.8339 4.71123 30.175 5.64201C32.3325 7.12544 33.1488 9.33604 33.3237 9.85961C34.9855 14.4553 32.4491 20.8545 28.2508 22.3379Z" fill="white"/>
<path d="M71.0493 2.50104C70.991 2.58831 70.9326 2.73374 70.9618 2.87917C70.991 3.28639 71.4866 3.69361 71.9239 3.66452C72.3612 3.63543 72.4778 3.22822 73.0609 2.70465C73.2067 2.58831 74.1396 1.74479 74.8102 1.77387C77.5507 1.89022 78.9793 9.54007 73.1775 8.26025C71.3117 7.85303 69.2417 6.07873 67.784 5.06069C64.9851 3.11187 62.7694 0.988526 59.3291 0.377701C54.3437 -0.523992 47.4633 1.62844 43.9647 5.9333C39.679 1.65752 32.507 1.39574 26.7635 2.41378C26.2388 2.47196 25.9181 2.79191 26.0055 2.99552C26.0638 3.11187 26.3554 3.14096 26.6178 3.14096C27.5799 3.22822 28.1338 3.57726 28.542 3.72269C29.8539 4.159 32.3904 3.2573 34.9268 3.34456C38.0463 3.46091 41.1659 5.08978 42.8568 7.35856C42.8568 7.38764 42.886 7.38764 42.886 7.38764C42.3612 8.28934 42.0114 9.27829 41.8364 10.3545C41.4574 12.5651 42.3321 14.9211 44.8685 14.4267C48.6294 13.6995 46.7927 9.77277 45.3933 7.62034C45.2475 7.41673 45.1017 7.21312 44.9268 7.00951C46.8219 4.27535 49.9414 2.29744 53.1775 1.65752C58.163 0.697657 60.9326 2.87917 64.5478 5.49699C68.4545 8.34751 73.8481 12.4778 78.3962 8.05664C83.4691 3.17004 75.1601 -3.78172 71.0493 2.50104ZM43.265 10.9944C43.2942 10.1218 43.5857 9.39464 43.9064 8.90016C44.0813 9.07468 44.3437 9.36555 44.577 9.77277C44.6353 9.86003 45.9764 12.0706 45.2184 12.9142C44.9268 13.205 44.402 13.2923 44.023 13.1468C43.2359 12.7978 43.265 11.4307 43.265 10.9944Z" fill="white"/>
<path d="M11.0786 41.5651C10.029 41.7105 9.03776 42.0014 8.10481 42.4377C7.31764 41.7105 6.67624 40.9833 6.38469 40.6052C5.24767 39.0054 4.60627 37.0857 4.22726 35.1659C3.64417 32.1409 3.78994 29.0286 4.08149 25.9745C4.11064 25.5382 2.44883 25.7127 2.39053 26.1781C1.28265 32.1991 1.83659 39.209 6.55962 43.3103C1.63251 46.6843 -0.93309 54.0142 0.641254 59.4535C1.63251 62.8567 4.48965 65.5908 6.38469 68.4995C7.23018 69.8084 8.25058 71.2046 8.39636 72.8044C8.95029 78.9417 -1.57449 76.2657 3.90656 71.5536C3.96487 71.4955 4.16895 71.3209 4.16895 71.0883C4.16895 70.8265 3.90656 70.6229 3.73163 70.5356C3.14854 70.2738 2.39053 70.7974 2.04067 71.0301C1.74913 71.2628 0.174782 72.339 -0.000145059 74.1424C-0.204227 76.3239 1.77828 78.3309 3.87741 78.8545C6.09315 79.4071 8.19227 78.3018 9.27099 76.9347C9.62085 76.4984 10.1165 75.7422 10.3497 74.5205C10.5829 73.2407 10.6121 70.8265 5.18936 62.6531C3.58586 60.2388 2.56545 58.9008 2.27391 56.6611C2.06983 55.0614 2.33222 53.7815 2.59461 52.5308C3.44009 48.5168 5.51006 46.0735 5.94738 45.579C6.41385 45.0555 6.93863 44.5319 7.49257 44.0665C7.87157 44.4737 8.45467 45.0846 9.3293 45.6372C10.8162 46.568 13.4401 47.4406 14.8687 46.248C15.2768 45.9281 15.685 45.3463 15.7724 44.6192C15.8016 44.4737 15.8891 43.7757 15.5101 43.1067C14.6937 41.5941 12.2739 41.3905 11.0786 41.5651ZM12.478 45.5209C11.6034 45.8117 10.1456 44.91 8.86283 43.8047C9.12522 43.6302 9.53338 43.4266 10.0582 43.2521C10.4955 43.1067 11.341 42.8449 12.3322 43.1067C12.7112 43.1939 13.7316 43.4848 13.8191 44.1247C13.8483 44.6483 13.3235 45.2591 12.478 45.5209Z" fill="white"/>
<path d="M35.8014 21.3199C33.2067 20.9999 31.1076 22.5415 30.816 22.8033C27.988 25.3339 28.8335 29.4642 28.8627 29.6969C28.2796 29.5805 27.4049 29.4642 26.3554 29.6096C25.6265 29.6969 23.5565 29.9878 22.2446 31.6457C20.8452 33.4491 20.6411 36.4741 22.128 37.783C22.9443 38.5102 24.023 38.452 24.2271 38.452C25.6265 38.452 27.1717 37.434 27.2009 36.2996C27.23 35.776 26.9093 35.1943 26.472 34.9325C26.093 34.6998 25.4807 34.5544 25.1309 34.8453C24.956 34.9907 24.8102 35.2816 24.8976 35.4852C24.956 35.6597 25.1309 35.6597 25.335 35.8342C25.5099 36.0087 25.6848 36.3287 25.6557 36.5614C25.5974 37.0559 24.5478 37.5213 23.7606 37.2595C23.0609 37.0268 22.7694 36.3578 22.6819 36.1833C22.0405 34.7871 22.7402 32.7801 23.9939 31.6457C25.335 30.4531 27.3466 30.1623 29.2417 30.8604C29.4749 31.5875 29.7665 32.2565 30.058 32.9255C31.0784 35.078 33.0609 37.114 35.5974 36.5032C38.2504 35.8633 36.9968 33.5364 35.2767 32.1402C34.1688 31.2385 32.6236 30.5695 30.9909 30.1623C30.7869 29.5515 30.6119 28.9115 30.5245 28.3007C30.1746 25.7992 30.8743 23.4432 33.3525 22.5997C33.8772 22.4252 34.6644 22.1052 35.539 22.3379C36.9093 22.716 37.9589 24.3449 37.5799 25.0139C37.4049 25.3629 36.7927 25.5375 36.3262 25.4502C35.7723 25.3339 35.6265 24.8685 35.16 24.9266C34.8976 24.9557 34.6644 25.1302 34.5478 25.3629C34.4312 25.5665 34.4312 25.7992 34.4895 25.9447C34.7227 26.7009 36.9968 27.2827 38.367 26.2355C40.7869 24.374 37.9589 21.5816 35.8014 21.3199ZM35.3058 35.2234C35.4516 36.9395 32.2737 33.1001 31.9822 32.4601C31.8364 32.1693 31.7198 31.8784 31.574 31.5875C33.5565 32.3729 35.16 33.6527 35.3058 35.2234Z" fill="white"/>
<path d="M3.11984 3.46082C3.2073 3.34447 3.67377 3.57716 4.05278 3.78077C4.54841 4.07164 14.2569 9.62724 14.6359 12.5941C14.665 12.7977 14.7233 13.3504 14.4026 13.7285C14.0819 14.1357 13.4988 14.1357 13.2948 14.1357C10.6709 14.1939 5.68543 6.74764 3.64462 4.30434C3.46969 4.12982 3.03237 3.57716 3.11984 3.46082Z" fill="white"/>
</g>
<defs>
<clipPath id="clip0_362_2470">
<rect width="80" height="79" fill="white"/>
</clipPath>
</defs>
</svg>
