<svg width="80" height="79" viewBox="0 0 80 79" fill="none" xmlns="http://www.w3.org/2000/svg">
<g clip-path="url(#clip0_362_2477)">
<path d="M47.9008 4.85666C49.3293 3.6641 50.7287 3.25688 52.4489 2.7624C54.3148 2.23884 55.9474 2.09341 63.8774 2.12249C63.8774 2.12249 65.5975 2.12249 66.4722 2.12249C66.8803 2.12249 67.1719 2.12249 67.9299 2.12249C69.0086 2.12249 69.4459 2.15158 70.1457 2.12249C70.1457 2.12249 75.8016 1.91888 77.3177 2.15158C77.376 2.15158 77.4343 2.18067 77.4926 2.23884C77.4926 2.29701 77.5217 2.3261 77.5217 2.38427C77.6092 2.38427 77.6675 2.41336 77.755 2.41336C77.8424 2.44245 77.8716 2.52971 77.8716 2.58788C78.1048 4.1004 77.9008 9.74326 77.9008 9.74326C77.8716 10.4413 77.9008 10.8486 77.9008 11.9539C77.9008 12.7392 77.9008 13.0301 77.9008 13.4082C77.9008 14.3099 77.9008 15.9969 77.9008 15.9969C77.9008 23.9086 77.7841 25.5665 77.2302 27.4281C76.7346 29.1442 76.3264 30.5404 75.1311 31.9656C71.9241 35.8051 66.5596 35.6306 65.8308 35.6015C64.4314 35.5433 60.9911 35.3688 58.4547 32.6056C58.134 32.2565 55.1894 28.9406 56.2389 24.5776C56.2973 24.4321 56.4139 23.9086 56.7054 23.2105C55.9766 23.5014 55.4518 23.6468 55.2769 23.6759C50.9037 24.723 47.5801 21.7852 47.2302 21.4653C44.4314 18.9347 44.2856 15.5025 44.2273 14.1063C44.1981 13.3791 44.0232 8.05622 47.9008 4.85666ZM51.7492 22.3379C53.9066 23.0941 55.9766 22.367 56.064 22.3379C56.7054 22.1052 57.2594 21.7561 57.6967 21.4071C58.1631 21.029 58.892 20.36 59.4168 19.3128C59.6209 18.8765 60.6704 16.6369 59.5626 14.2808C59.4751 14.0772 58.134 11.3721 55.4809 11.1976C54.2273 11.1103 52.5072 11.5466 51.8075 12.8265C51.6908 13.0301 51.2244 13.8154 51.4576 14.7462C51.6325 15.3279 52.0699 15.9679 52.7113 16.2296C53.411 16.4623 54.2564 16.346 54.4314 16.3169C54.8687 16.2296 55.1894 16.0551 55.3935 16.2296C55.5684 16.346 55.5975 16.6369 55.5392 16.8114C55.5101 16.9277 55.3643 17.1604 54.7229 17.364C53.1777 17.8876 51.7783 17.3931 51.5451 17.3058C50.8162 16.8114 50.4955 16.1424 50.3497 15.8515C49.825 14.6589 50.029 13.35 50.3497 12.5938C51.341 10.3541 55.1894 9.10335 58.0465 10.4413C60.9911 11.8084 62.0115 15.4734 61.341 18.2657C61.3118 18.4112 61.2535 18.5566 61.1952 18.702C61.3701 18.6438 61.5159 18.5857 61.6908 18.5566C64.4897 17.8585 68.1631 18.8765 69.5334 21.8143C70.8745 24.6648 69.6209 28.5043 67.4051 29.5223C67.3177 29.5514 65.6267 30.3659 64.1398 29.5223C62.3906 28.5625 62.2739 26.1774 62.5946 25.1302C62.6529 24.8975 62.8279 24.374 63.1486 24.3158C63.3235 24.2867 63.5567 24.4612 63.6442 24.6648C63.79 24.9266 63.7025 25.2175 63.6442 25.4502C63.4984 26.1192 63.5859 26.7882 63.7317 27.1372C63.9941 27.7771 64.6063 28.2134 65.2185 28.388C66.1515 28.6207 66.9387 28.1553 67.1427 28.0389C68.4255 27.3408 68.892 25.6538 68.7754 24.374C68.5713 21.7271 65.8891 20.4181 65.685 20.3018C63.3235 19.1965 61.0786 20.2436 60.6413 20.4472C59.5626 20.9708 58.8629 21.7271 58.513 22.1924C58.2506 22.5415 57.8716 23.0651 57.6092 23.7631C57.5801 23.8504 56.8512 25.9156 57.6092 28.068C59.0961 32.2565 65.5101 34.7871 70.1165 33.1291C70.6413 32.9546 72.857 32.1402 74.3439 29.9877C75.2768 28.7079 75.5684 27.399 75.685 26.7882C76.2973 23.705 76.3264 15.4152 75.6559 4.3331C64.4897 3.63501 56.1806 3.69318 53.0903 4.30401C52.478 4.42036 51.1661 4.71123 49.825 5.64201C47.6675 7.12544 46.8512 9.33604 46.6763 9.85961C45.0145 14.4553 47.5509 20.8545 51.7492 22.3379Z" fill="white"/>
<path d="M8.95073 2.50104C9.00904 2.58831 9.06736 2.73374 9.0382 2.87917C9.00904 3.28639 8.51342 3.69361 8.0761 3.66452C7.63878 3.63543 7.52217 3.22822 6.93908 2.70465C6.7933 2.58831 5.86036 1.74479 5.1898 1.77387C2.44928 1.89022 1.02071 9.54007 6.82246 8.26025C8.68835 7.85303 10.7583 6.07873 12.216 5.06069C15.0149 3.11187 17.2306 0.988526 20.6709 0.377701C25.6563 -0.523992 32.5367 1.62844 36.0353 5.9333C40.321 1.65752 47.493 1.39574 53.2365 2.41378C53.7612 2.47196 54.0819 2.79191 53.9945 2.99552C53.9362 3.11187 53.6446 3.14096 53.3822 3.14096C52.4201 3.22822 51.8662 3.57726 51.458 3.72269C50.1461 4.159 47.6096 3.2573 45.0732 3.34456C41.9537 3.46091 38.8341 5.08978 37.1432 7.35856C37.1432 7.38764 37.114 7.38764 37.114 7.38764C37.6388 8.28934 37.9886 9.27829 38.1636 10.3545C38.5426 12.5651 37.6679 14.9211 35.1315 14.4267C31.3706 13.6995 33.2073 9.77277 34.6067 7.62034C34.7525 7.41673 34.8983 7.21312 35.0732 7.00951C33.1781 4.27535 30.0586 2.29744 26.8225 1.65752C21.837 0.697657 19.0674 2.87917 15.4522 5.49699C11.5455 8.34751 6.15191 12.4778 1.6038 8.05664C-3.46909 3.17004 4.83995 -3.78172 8.95073 2.50104ZM36.735 10.9944C36.7058 10.1218 36.4143 9.39464 36.0936 8.90016C35.9187 9.07468 35.6563 9.36555 35.423 9.77277C35.3647 9.86003 34.0236 12.0706 34.7816 12.9142C35.0732 13.205 35.598 13.2923 35.977 13.1468C36.7641 12.7978 36.735 11.4307 36.735 10.9944Z" fill="white"/>
<path d="M68.9214 41.5651C69.971 41.7105 70.9622 42.0014 71.8952 42.4377C72.6824 41.7105 73.3238 40.9833 73.6153 40.6052C74.7523 39.0054 75.3937 37.0857 75.7727 35.1659C76.3558 32.1409 76.2101 29.0286 75.9185 25.9745C75.8894 25.5382 77.5512 25.7127 77.6095 26.1781C78.7173 32.1991 78.1634 39.209 73.4404 43.3103C78.3675 46.6843 80.9331 54.0142 79.3587 59.4535C78.3675 62.8567 75.5103 65.5908 73.6153 68.4995C72.7698 69.8084 71.7494 71.2046 71.6036 72.8044C71.0497 78.9417 81.5745 76.2657 76.0934 71.5536C76.0351 71.4955 75.831 71.3209 75.831 71.0883C75.831 70.8265 76.0934 70.6229 76.2684 70.5356C76.8515 70.2738 77.6095 70.7974 77.9593 71.0301C78.2509 71.2628 79.8252 72.339 80.0001 74.1424C80.2042 76.3239 78.2217 78.3309 76.1226 78.8545C73.9069 79.4071 71.8077 78.3018 70.729 76.9347C70.3792 76.4984 69.8835 75.7422 69.6503 74.5205C69.4171 73.2407 69.3879 70.8265 74.8106 62.6531C76.4141 60.2388 77.4345 58.9008 77.7261 56.6611C77.9302 55.0614 77.6678 53.7815 77.4054 52.5308C76.5599 48.5168 74.4899 46.0735 74.0526 45.579C73.5862 45.0555 73.0614 44.5319 72.5074 44.0665C72.1284 44.4737 71.5453 45.0846 70.6707 45.6372C69.1838 46.568 66.5599 47.4406 65.1313 46.248C64.7232 45.9281 64.315 45.3463 64.2276 44.6192C64.1984 44.4737 64.1109 43.7757 64.4899 43.1067C65.3063 41.5941 67.7261 41.3905 68.9214 41.5651ZM67.522 45.5209C68.3966 45.8117 69.8544 44.91 71.1372 43.8047C70.8748 43.6302 70.4666 43.4266 69.9418 43.2521C69.5045 43.1067 68.659 42.8449 67.6678 43.1067C67.2888 43.1939 66.2684 43.4848 66.1809 44.1247C66.1517 44.6483 66.6765 45.2591 67.522 45.5209Z" fill="white"/>
<path d="M44.1986 21.3199C46.7933 20.9999 48.8924 22.5415 49.184 22.8033C52.012 25.3339 51.1665 29.4642 51.1373 29.6969C51.7204 29.5805 52.5951 29.4642 53.6446 29.6096C54.3735 29.6969 56.4435 29.9878 57.7554 31.6457C59.1548 33.4491 59.3589 36.4741 57.872 37.783C57.0557 38.5102 55.977 38.452 55.7729 38.452C54.3735 38.452 52.8283 37.434 52.7991 36.2996C52.77 35.776 53.0907 35.1943 53.528 34.9325C53.907 34.6998 54.5193 34.5544 54.8691 34.8453C55.044 34.9907 55.1898 35.2816 55.1024 35.4852C55.044 35.6597 54.8691 35.6597 54.665 35.8342C54.4901 36.0087 54.3152 36.3287 54.3443 36.5614C54.4026 37.0559 55.4522 37.5213 56.2394 37.2595C56.9391 37.0268 57.2306 36.3578 57.3181 36.1833C57.9595 34.7871 57.2598 32.7801 56.0061 31.6457C54.665 30.4531 52.6534 30.1623 50.7583 30.8604C50.5251 31.5875 50.2335 32.2565 49.942 32.9255C48.9216 35.078 46.9391 37.114 44.4026 36.5032C41.7496 35.8633 43.0032 33.5364 44.7233 32.1402C45.8312 31.2385 47.3764 30.5695 49.0091 30.1623C49.2131 29.5515 49.3881 28.9115 49.4755 28.3007C49.8254 25.7992 49.1257 23.4432 46.6475 22.5997C46.1228 22.4252 45.3356 22.1052 44.461 22.3379C43.0907 22.716 42.0411 24.3449 42.4201 25.0139C42.5951 25.3629 43.2073 25.5375 43.6738 25.4502C44.2277 25.3339 44.3735 24.8685 44.84 24.9266C45.1024 24.9557 45.3356 25.1302 45.4522 25.3629C45.5688 25.5665 45.5688 25.7992 45.5105 25.9447C45.2773 26.7009 43.0032 27.2827 41.633 26.2355C39.2131 24.374 42.0411 21.5816 44.1986 21.3199ZM44.6942 35.2234C44.5484 36.9395 47.7263 33.1001 48.0178 32.4601C48.1636 32.1693 48.2802 31.8784 48.426 31.5875C46.4435 32.3729 44.84 33.6527 44.6942 35.2234Z" fill="white"/>
<path d="M76.8802 3.46082C76.7927 3.34447 76.3262 3.57716 75.9472 3.78077C75.4516 4.07164 65.7431 9.62724 65.3641 12.5941C65.335 12.7977 65.2767 13.3504 65.5974 13.7285C65.9181 14.1357 66.5012 14.1357 66.7052 14.1357C69.3291 14.1939 74.3146 6.74764 76.3554 4.30434C76.5303 4.12982 76.9676 3.57716 76.8802 3.46082Z" fill="white"/>
</g>
<defs>
<clipPath id="clip0_362_2477">
<rect width="80" height="79" fill="white" transform="matrix(-1 0 0 1 80 0)"/>
</clipPath>
</defs>
</svg>
