<svg width="377" height="571" viewBox="0 0 377 571" fill="none" xmlns="http://www.w3.org/2000/svg">
<path fill-rule="evenodd" clip-rule="evenodd" d="M376.103 166.578V268V269.155V301.376V302.531V403.953C375.018 420.654 361.657 453.276 316.889 450.153C319.492 470.324 311.554 510.147 258.977 508.065C261.58 519.343 251.039 547.627 188.051 570.531V302.531V268V0C251.039 22.9045 261.58 51.1881 258.977 62.4668C311.554 60.3846 319.492 100.207 316.889 120.379C361.657 117.255 375.018 149.877 376.103 166.578ZM0 166.578V268V269.155V301.376V302.531V403.953C1.08449 420.654 14.4455 453.276 59.2134 450.153C56.6106 470.324 64.5491 510.147 117.125 508.065C114.523 519.343 125.064 547.627 188.051 570.531V302.531V268V7.22739e-05C125.064 22.9046 114.523 51.1882 117.125 62.4669C64.5491 60.3847 56.6106 100.207 59.2134 120.379C14.4455 117.256 1.08449 149.877 0 166.578Z" fill="#B6B6B6"/>
</svg>
