<svg width="477" height="451" viewBox="0 0 477 451" fill="none" xmlns="http://www.w3.org/2000/svg">
<g clip-path="url(#clip0_1_3948)">
<path fill-rule="evenodd" clip-rule="evenodd" d="M112.895 63.7472C115.524 61.644 116.356 61.0953 119.376 59.4788C120.868 58.6815 123.191 57.2862 124.54 56.3793C127.917 54.1101 133.153 51.2309 136.442 49.8339C144.342 46.4807 148.659 44.1905 152.281 41.4356C154.617 39.6582 161.983 34.7018 163.168 34.1107C166.46 32.4657 171.985 31.8119 175.594 32.6395C177.961 33.1828 178.939 33.6801 181.724 35.7517C183.141 36.8063 185.037 38.3048 185.937 39.0804L187.572 40.4921L189.764 37.5586C192.159 34.353 193.117 33.372 194.948 32.2519C196.296 31.4271 198.018 31.1593 199.28 31.5795C201.415 32.289 204.522 35.8328 206.782 40.1338C209.823 45.9217 211.065 52.6283 210.722 61.3998C210.672 62.6468 210.634 63.7122 210.637 63.7673C210.658 64.3063 216.232 63.6212 219.254 62.7082C221.782 61.9438 225.12 61.2652 228.671 60.7913C232.445 60.2877 233.803 60.2546 235.489 60.6245C239.244 61.4502 245.309 64.7832 246.286 66.5592C247.462 68.6964 246.125 71.5874 242.51 74.7265C239.741 77.13 238.142 79.3044 235.454 84.3185C234.265 86.5338 232.754 90.149 231.602 93.5324C231.172 94.7944 230.43 96.8138 229.949 98.0215C229.471 99.2303 228.728 101.235 228.298 102.48C227.868 103.725 226.992 105.917 226.352 107.351C225.181 109.972 222.123 118.725 220.897 122.965C220.513 124.293 219.981 125.703 219.619 126.356C217.858 129.529 213.967 134.532 212.285 135.786C211.858 136.104 210.384 136.749 208.73 137.341C207.178 137.897 205.437 138.53 204.865 138.748C204.291 138.965 203.028 139.206 202.056 139.285C201.083 139.364 199.558 139.513 198.667 139.616C197.012 139.809 194.731 139.806 194.463 139.613C194.009 139.284 193.787 139.473 193.755 140.214C193.723 140.917 193.249 142.205 192.797 142.81C192.686 142.959 192.352 143.852 192.053 144.795C191.755 145.738 191.318 146.767 191.083 147.081C190.604 147.722 190.05 149.116 189.884 150.104C189.822 150.463 189.772 151.629 189.771 152.696C189.769 155.281 189.007 159.774 188.439 160.557L188.021 161.133L189.119 163.937C190.49 167.44 190.142 166.782 192.903 171.09C197.316 177.979 200.477 181.785 206.554 187.525C216.422 196.842 221.879 201.788 225.868 205.029C233.709 211.401 243.165 219.506 247.094 223.221C251.339 227.235 258.234 234.625 261.331 238.48C264.056 241.872 271.102 251.362 274.713 256.504C276.582 259.167 278.15 261.374 278.199 261.41C278.248 261.447 277.924 260.452 277.48 259.199C276.648 256.855 275.524 251.99 274.925 248.143C274.738 246.938 274.53 244.491 274.463 242.702C274.39 240.735 274.054 237.522 273.613 234.582C273.213 231.905 272.753 228.194 272.591 226.334C272.43 224.475 272.13 221.662 271.924 220.082L271.55 217.212L271.016 217.342C270.724 217.415 269.606 217.288 268.532 217.061C267.458 216.835 265.899 216.583 265.065 216.502C264.233 216.421 262.916 216.201 262.138 216.014C261.361 215.825 259.711 215.481 258.472 215.247C255.343 214.656 255.061 214.55 251.865 212.756C247.941 210.554 244.466 208.213 239.619 204.504C234.742 200.774 234.727 200.756 234.614 198.623C234.529 197.003 234.679 196.341 235.326 195.475C235.929 194.668 236.562 194.217 237.635 193.834C238.188 193.635 238.41 193.485 238.323 193.367C238.25 193.27 237.597 192.591 236.871 191.854C236.143 191.117 235.15 189.941 234.662 189.241C233.408 187.44 231.694 184.266 231.147 182.735C230.261 180.255 230.089 176.251 230.774 173.988C230.954 173.393 231.652 171.84 232.325 170.536C234.837 165.676 235.253 164.216 235.526 159.246C235.695 156.168 235.658 155.076 235.285 152.189C234.799 148.427 234.876 147.214 235.668 146.154C237.065 144.284 238.942 144.7 243.09 147.799C245.08 149.285 245.456 149.629 246.523 150.943C247.181 151.754 247.753 152.412 247.793 152.407C247.833 152.401 248.042 151.963 248.258 151.432C248.818 150.046 249.855 148.892 251.044 148.335C252.41 147.695 255.446 147.332 257.583 147.549C261.548 147.954 263.269 148.005 266.046 147.796C275.064 147.12 280.015 148.033 284.75 151.248C286.215 152.244 286.547 152.536 287.167 153.379C288.678 155.435 289.576 158.952 289.524 162.612L289.516 163.187L290.856 163.794C291.593 164.127 293.497 164.821 295.087 165.334C297.626 166.153 298.104 166.36 299.023 167.047C300.001 167.775 300.125 167.936 300.879 169.424C301.807 171.258 302.162 172.963 301.873 174.22C301.635 175.258 299.889 179.062 297.523 183.687C295.872 186.919 295.638 187.484 295.03 189.712C294.662 191.064 293.96 193.141 293.472 194.326C292.761 196.053 292.512 196.941 292.223 198.788C291.845 201.2 291.205 203.707 290.569 205.265C290.362 205.77 289.521 207.48 288.7 209.068C286.748 212.836 286.339 213.316 283.554 215.109C282.393 215.855 281.195 216.587 280.888 216.735C279.552 217.379 274.817 217.772 274.173 217.291C274.073 217.216 273.964 217.193 273.928 217.241C273.893 217.288 274.006 218.439 274.178 219.801C274.35 221.161 274.688 224.525 274.925 227.275C275.164 230.025 275.548 233.299 275.779 234.552C276.241 237.066 276.468 239.722 276.498 242.972C276.526 246.031 276.719 247.614 277.606 252.045C278.798 258.004 279.201 259.241 281.948 265.349C283.13 267.98 284.072 269.329 287.808 273.743C293.091 279.984 295.115 282.101 303.412 290.049C306.455 292.966 309.909 296.305 311.085 297.471C318.805 305.115 331.069 314.449 345.87 323.953C347.223 324.82 348.362 325.49 348.4 325.438C348.439 325.387 348.241 325.11 347.961 324.826C346.976 323.818 343.357 319.347 342.452 318.024C341.951 317.289 340.788 315.28 339.873 313.563C338.289 310.598 338.177 310.432 337.663 310.306C337.28 310.211 336.308 309.563 334.348 308.095C331.977 306.319 331.275 305.709 329.517 303.896C326.65 300.935 321.926 294.912 320.2 292.012C318.988 289.979 316.374 284.623 315.57 282.53C314.798 280.519 312.873 274.388 311.777 270.449C310.49 265.819 309.564 258.857 309.024 249.753C308.48 240.57 308.469 238.057 308.944 229.247C309.243 223.692 309.198 221.956 308.647 217.643C308.418 215.846 308.086 212.99 307.912 211.294C307.188 204.253 306.749 201.064 305.799 195.905C304.526 189.011 304.237 186.681 304.43 184.864C304.564 183.588 304.656 183.313 305.175 182.617C305.697 181.919 305.839 181.819 306.382 181.781C307.342 181.716 308.207 182.141 309.814 183.47C311.612 184.957 312.71 186.194 314.454 188.697C317.111 192.512 318.25 195.134 320.388 202.362C321.145 204.922 322.181 208.427 322.692 210.152C323.202 211.876 323.79 214.063 323.997 215.012C324.204 215.961 325.064 222.709 325.91 230.008C326.756 237.306 327.644 244.902 327.885 246.884C328.804 254.465 329.64 261.943 330.145 267.102C331.807 284.11 332.351 287.288 335.25 297.002C337.371 304.108 338.062 305.832 341.325 312.172C343.924 317.224 344.678 318.355 349.434 324.338C350.539 325.731 351.643 327.131 351.885 327.454C352.251 327.938 353.246 328.609 357.844 331.481C360.878 333.377 364.319 335.55 365.492 336.31C366.665 337.07 368.34 338.07 369.213 338.532C372.048 340.033 384.51 349.602 387.189 352.333C388.16 353.324 388.918 354.325 388.851 354.528C388.822 354.618 387.658 353.797 386.059 352.562C380.497 348.261 368.048 339.973 365.681 338.995C361.804 337.394 356.996 336.467 351.94 336.343L350.186 336.301L348.159 337.353C343.92 339.554 342.252 341.007 339.012 345.316C334.736 350.999 332.594 353.302 328.304 356.816C324.263 360.126 321.274 362.124 313.708 366.573C303.05 372.839 299.306 374.594 293.938 375.838C292.692 376.126 290.487 376.66 289.034 377.023C287.58 377.388 285.058 377.922 283.427 378.211C281.797 378.5 279.469 378.944 278.255 379.196C275.079 379.857 262.461 381.473 260.193 381.512C259.135 381.53 256.562 381.604 254.478 381.677C247.776 381.909 240.318 381.418 231.881 380.186C225.614 379.271 220.611 377.937 217.63 376.383C215.919 375.493 215.407 374.193 216.364 373.175C217.576 371.883 221.487 371.282 231.439 370.855C239.113 370.525 244.961 369.954 253.977 368.652C262.27 367.454 264.248 367.071 270.262 365.492C275.232 364.186 278.528 363.638 282.802 363.403C285.671 363.244 294.194 363.205 297.3 363.335C299.142 363.412 304.661 364.009 306.476 364.328C307.479 364.504 310.078 365.336 310.419 365.591C310.719 365.816 310.852 365.751 314.902 363.358C319.751 360.494 321.481 359.382 324.042 357.492C330.394 352.803 333.102 350.148 337.437 344.35C340.256 340.58 341.902 339.006 344.772 337.342C345.363 337 345.842 336.679 345.834 336.63C345.826 336.581 343.271 336.866 340.154 337.265C337.036 337.665 333.812 338.041 332.988 338.104C331.969 338.182 330.822 338.461 329.4 338.978C327.248 339.759 326.811 339.975 323.271 341.987C322.126 342.639 320.773 343.337 320.265 343.537C319.757 343.737 318.336 344.377 317.108 344.956C312.295 347.226 308.872 347.991 299.55 348.884C293.904 349.425 293.058 349.428 288.12 348.931C277.293 347.839 267.627 344.968 257.9 339.955C256.643 339.307 253.481 337.565 250.875 336.083C240.576 330.227 235.196 327.89 223.549 324.208C217.64 322.34 216.421 321.901 213.714 320.663C211.055 319.449 209.47 318.294 208.899 317.153C208.34 316.042 208.363 315.344 208.984 314.513C210.035 313.106 212.365 312.123 215.88 311.601C219.463 311.071 223.196 311.197 229.723 312.074C237.148 313.069 247.993 316.092 267.576 322.624C278.436 326.246 281.491 327.145 292.658 330.011C312.13 335.007 317.485 335.873 328.569 335.805C332.79 335.779 334.169 335.676 339.58 334.988C348.31 333.878 352.161 333.799 357.576 334.62L359.755 334.952L358.75 334.319C343.15 324.476 338.768 321.58 331.205 316.115C323.128 310.279 314.722 303.479 310.227 299.145C309.451 298.396 306.555 295.663 303.791 293.072C293.64 283.555 290.732 280.547 284.994 273.638C283.765 272.159 283.088 271.449 282.913 271.457C282.741 271.467 282.64 271.382 282.614 271.204C282.555 270.798 277.643 266.999 275.554 265.744C273.441 264.475 270.124 262.757 267.619 261.634C261.779 259.014 259.313 258.694 246.745 258.921C244.892 258.955 242.179 258.963 240.717 258.94C239.255 258.917 237.971 258.935 237.865 258.981C237.757 259.027 237.172 259.262 236.563 259.503C230.089 262.077 229.512 262.468 226.051 266.618C223.024 270.248 222.148 271.817 220.627 276.332C218.639 282.236 216.169 287.502 214.097 290.259C213.252 291.384 210.727 293.731 209.423 294.604C207.217 296.082 204.928 296.11 201.514 294.702C198.032 293.266 195.091 290.751 193.523 287.868C193.058 287.012 192.558 286.156 192.414 285.962C191.832 285.188 190.885 283.272 190.623 282.341L190.345 281.355L188.816 281.511C184.253 281.979 180.379 281.151 177.135 279.017C174.855 277.518 173.53 275.573 173.039 273.01C172.677 271.127 173.06 269.586 175.161 264.439C178.169 257.068 179.459 254.566 181.652 251.857C184.55 248.277 187.81 246.595 191.25 246.901L192.393 247.004L192.244 245.602C192.042 243.697 192.18 242 192.81 238.667C193.28 236.174 193.493 235.485 194.644 232.713C196.986 227.073 197.787 225.763 199.612 224.608C200.574 223.998 202.015 223.614 202.834 223.749C204.049 223.95 206.25 225.126 209.226 227.164C210.838 228.268 213.042 229.766 214.121 230.497C215.692 231.558 216.554 232.266 218.437 234.041C222.523 237.893 223.399 238.908 226.388 243.245C228.536 246.361 229.197 247.515 230.467 250.363C231.612 252.932 232.257 253.735 234.283 255.105C235.156 255.696 236.134 256.271 236.456 256.385C237.116 256.617 240.502 256.707 245.579 256.629C258.179 256.436 260.473 256.603 264.736 258.021C267.923 259.082 273.09 261.679 276.236 263.804C277.261 264.496 278.084 264.984 278.063 264.889C278.042 264.793 277.542 264.092 276.95 263.331C276.357 262.571 274.834 260.478 273.565 258.682C269.038 252.272 262.853 243.923 259.751 240.032C255.96 235.279 248.536 227.488 243.429 222.901C238.017 218.04 237.345 217.51 234.993 216.24C233.799 215.597 231.159 214.116 229.127 212.952C227.095 211.788 225 210.645 224.471 210.41C220.072 208.462 213.565 207.335 207.484 207.464C206.424 207.486 202.662 207.751 199.126 208.052C186.861 209.098 184.699 209.123 180.224 208.268C176.672 207.59 174.747 207.01 171.681 205.698C170.077 205.012 168.821 204.563 168.756 204.651C168.692 204.736 167.667 205.3 166.478 205.905C165.29 206.51 164.019 207.257 163.654 207.565C162.126 208.85 160.481 210.646 158.951 212.696C157.079 215.205 156.006 216.955 154.976 219.181C153.803 221.712 152.668 223.109 150.108 225.169C146.205 228.308 143.581 229.46 138.986 230.052C136.339 230.392 135.356 230.304 131.302 229.361C126.58 228.262 126.203 228.157 124.499 227.492C122.183 226.584 120.484 225.289 119.5 223.679C119.105 223.032 118.467 221.598 118.083 220.491C117.245 218.083 116.909 217.375 116.591 217.342C116.459 217.33 114.877 217.32 113.078 217.323C108.758 217.328 107.512 217.259 105.82 216.923C104.435 216.647 104.377 216.618 102.776 215.422C101.161 214.216 101.137 214.19 100.512 212.945C100.086 212.095 99.731 210.926 99.4195 209.337C98.4989 204.635 98.2515 203.639 97.4596 201.428C97.0167 200.191 95.826 197.511 94.8144 195.476C92.3211 190.461 92.0111 189.266 92.4963 186.521C93.0232 183.539 94.0883 181.096 95.9897 178.517C97.6599 176.251 98.4626 175.518 100.368 174.515C102.819 173.228 106.607 172.937 110.498 173.74C112.859 174.226 115.306 174.977 117.588 175.912L119.57 176.724L119.41 175.768C119.059 173.655 118.942 170.932 119.16 169.867C119.473 168.32 120.141 166.998 120.884 166.446C121.813 165.757 122.866 165.736 126.225 166.338C131.742 167.326 134.524 167.273 140.169 166.08C148.088 164.406 154.253 165.531 156.793 169.113C157.565 170.204 159.538 174.19 160.444 176.494C161.394 178.907 162.1 181.773 162.684 185.576C163.269 189.39 163.423 190.032 164.196 191.915C164.517 192.699 164.913 193.887 165.074 194.555C165.511 196.374 166.375 198.443 167.092 199.39C167.528 199.964 167.758 200.475 167.821 201.007C167.871 201.434 168.034 201.877 168.184 201.989C168.778 202.432 175.208 205.052 176.696 205.458C177.564 205.695 179.352 206.098 180.669 206.355C185.134 207.227 187.105 207.206 200.072 206.156C205.942 205.679 208.712 205.59 211.804 205.775C218.216 206.156 223.381 207.567 227.806 210.148C229.897 211.366 230.494 211.643 229.612 210.985C226.164 208.409 219.593 202.783 215.089 198.553C203.771 187.923 201.119 185.256 197.558 180.922C194.712 177.459 189.984 170.53 188.718 167.965C188.236 166.992 187.078 163.935 186.696 162.635C186.413 161.662 186.344 161.562 185.836 161.386C185.534 161.28 184.755 160.898 184.105 160.534C182.098 159.417 181.001 158.125 177.337 152.559C175.989 150.508 175.368 149.859 172.383 147.361C171.107 146.293 169.751 145.137 169.371 144.79L168.68 144.16L167.518 144.93C166.072 145.889 164.903 146.299 163.636 146.295C163.097 146.293 161.646 146.309 160.41 146.331C155.254 146.423 152.989 146.093 147.115 144.389C144.695 143.688 141.462 142.805 139.931 142.428C138.399 142.052 136.253 141.448 135.161 141.088C131.467 139.867 130.633 139.412 123.277 134.606C119.057 131.848 117.707 131.04 114.089 129.11C108.222 125.982 104.892 123.581 102.424 120.702C100.712 118.706 99.2418 116.53 98.3859 114.727C96.7924 111.369 95.468 105.225 95.844 102.934C96.1873 100.842 96.5131 100.101 97.9011 98.2512C99.041 96.731 99.3559 96.4139 101.054 95.0848C103.394 93.2512 105.514 91.9384 108.235 90.6379C110.193 89.701 110.329 89.6089 110.186 89.306C110.102 89.1274 109.484 88.0818 108.812 86.9849C108.139 85.8881 107.492 84.7911 107.372 84.5453C106.886 83.5496 106.049 80.5968 105.951 79.5305C105.44 73.9136 105.802 72.5587 109.016 68.0785L111.085 65.1965L112.895 63.7472ZM108.451 72.4021C107.802 73.8442 107.605 75.3539 107.749 77.785C107.943 81.0465 108.583 83.1223 110.198 85.7418C110.881 86.8481 111.543 88.0092 111.671 88.3239C111.799 88.6386 111.931 88.9189 111.968 88.9462C112.004 88.9735 112.526 88.8173 113.127 88.6002C113.729 88.3817 115.505 87.7874 117.074 87.2773C120.185 86.2681 121.058 85.8897 121.755 85.2484C122.154 84.8805 122.22 84.6705 122.267 83.5966C122.406 80.5127 123.521 75.5712 124.597 73.2816C126.296 69.6646 129.462 66.2065 132.988 64.1198C134.485 63.2337 138.053 61.9268 140.709 61.2924C145.027 60.2598 151.601 59.6514 161.644 59.3535C169.392 59.1249 173.716 57.9997 177.171 55.3161C178.113 54.5838 178.532 54.1128 180.091 52.0263C181.331 50.3661 182.16 49.1068 182.694 48.0677C183.124 47.2294 184.228 45.3872 185.146 43.9737L186.817 41.4039L184.168 39.2813C178.94 35.0912 176.525 33.9864 172.341 33.8719C169.162 33.784 166.018 34.4441 163.636 35.6958C162.121 36.4915 157.156 39.8278 153.582 42.4478C152.056 43.5675 149.877 45.024 148.742 45.6839C146.288 47.1101 140.95 49.7313 137.019 51.4394C133.585 52.9323 128.953 55.5227 125.372 57.9517C123.908 58.9453 121.541 60.4025 120.112 61.1905C117.267 62.7589 116.406 63.3275 114.045 65.1965C112.505 66.4159 112.428 66.5018 110.655 68.9887C109.658 70.3881 108.665 71.9233 108.451 72.4021ZM98.2824 101.551C97.5144 103.712 97.6799 105.724 98.9996 110.265C100.682 116.054 104.174 120.5 109.842 124.064C110.948 124.759 112.531 125.691 113.362 126.132C119.538 129.422 122.005 130.902 128.324 135.107C132.407 137.824 134.837 138.864 140.181 140.178C141.811 140.578 145.221 141.513 147.76 142.254C152.87 143.747 154.978 144.109 158.281 144.068C165.137 143.98 164.726 144.022 165.851 143.284C166.372 142.942 166.874 142.615 166.964 142.557C167.053 142.5 166.944 142.191 166.72 141.869C166.369 141.368 166.175 141.235 165.325 140.907C163.868 140.344 160.751 138.27 158.773 136.548C157.854 135.745 157.03 134.995 156.942 134.879C156.664 134.505 151.845 130.141 149.58 128.21C148.374 127.183 147.036 125.986 146.607 125.551C144.353 123.264 139.963 118.224 134.794 111.989C132.846 109.637 128.726 103.749 127.551 101.631C125.309 97.5956 123.387 92.4951 122.612 88.5265L122.271 86.777L121.55 87.2565C121.154 87.5213 118.951 88.4115 116.653 89.2357C114.357 90.0608 112.419 90.8138 112.347 90.9099C112.276 91.0046 112.08 91.086 111.913 91.092C111.11 91.1114 106.314 93.6132 104.168 95.1326C103.24 95.7905 101.371 97.2868 100.764 97.8597C99.8688 98.7072 98.6505 100.519 98.2824 101.551ZM126.683 74.1443C125.909 75.7988 125.443 77.3822 124.916 80.1674C124.325 83.2851 124.254 84.7415 124.568 87.2592C125.237 92.6059 127.857 98.6536 132.199 104.872C134.778 108.565 135.554 109.554 139.28 113.894C146.025 121.749 147.961 123.79 151.258 126.529C153.896 128.72 157.087 131.654 159.264 133.889C160.155 134.804 161.073 135.549 162.877 136.82C165.901 138.955 166.469 139.181 167.6 138.706C168.052 138.517 169.816 138.036 171.522 137.637C173.269 137.228 175.149 136.659 175.826 136.335C179.638 134.504 182.627 134.059 186.472 134.752C188.641 135.143 191.239 136.224 192.046 137.069L192.523 137.569L192.589 136.73C192.693 135.404 192.983 134.421 193.697 132.973C194.503 131.34 194.655 130.722 194.923 127.996C195.038 126.832 195.23 125.43 195.352 124.882C196.223 120.947 197.812 114.255 198.201 112.885C198.457 111.976 199.077 109.782 199.576 108.009C202.678 96.9853 203.35 94.8157 204.243 92.917C205.069 91.1607 205.21 90.6672 205.802 87.466C207.209 79.8398 208.675 63.3431 208.497 57.107C208.371 52.6718 207.498 47.7772 206.199 44.2331C204.747 40.2706 201.486 35.473 199.249 34.0142C198.455 33.4974 198.247 33.4368 197.542 33.5277C195.919 33.7366 194.25 35.0133 192.035 37.7438C189.907 40.3663 185.98 46.1375 184.374 49.0046C181.465 54.1916 178.794 56.9904 174.919 58.9127C171.812 60.4523 167.475 61.321 161.59 61.5777C146.29 62.2469 139.611 63.3329 134.672 65.9519C133.359 66.6485 131.032 68.3895 130.019 69.4327C129.051 70.4282 127.194 73.0504 126.683 74.1443ZM95.751 182.769C94.5729 185.648 94.1718 188.19 94.6143 189.973C94.7425 190.491 95.579 192.376 96.4699 194.163C99.1727 199.573 100.084 202.208 100.894 206.971C101.718 211.803 102.095 212.719 103.805 214.056C105.277 215.206 106.834 215.424 112.779 215.318C114.779 215.282 117.492 215.247 118.808 215.239C127.737 215.19 135.954 213.113 144.704 208.693C146.788 207.642 149.226 206.286 150.122 205.68C153.217 203.592 155.644 202.597 159.558 201.815L161.761 201.373L161.033 200.97C160.632 200.747 158.239 199.581 155.716 198.377C151.51 196.369 146.266 193.54 139.522 189.64C128.567 183.305 120.215 179.055 115.011 177.166C108.204 174.697 103.196 174.546 100.163 176.721C98.5748 177.862 96.719 180.405 95.751 182.769ZM120.718 170.168C120.331 171.976 120.693 177.054 121.236 177.459C121.403 177.584 122.198 177.994 123.002 178.372C126.649 180.086 134.639 184.423 140.619 187.938C149.038 192.885 156.128 196.604 164.486 200.457L166.123 201.212L165.57 200.561C164.709 199.549 163.754 197.412 163.165 195.187C162.968 194.44 162.546 193.225 162.229 192.486C161.406 190.573 161.234 189.894 160.699 186.481C159.832 180.962 159.046 178.22 157.188 174.234C155.27 170.124 154.566 169.2 152.712 168.354C151.213 167.669 149.948 167.39 147.84 167.278C145.513 167.153 143.675 167.339 140.12 168.059C134.683 169.159 131.727 169.181 126.38 168.159C124.603 167.818 122.854 167.574 122.494 167.613C121.895 167.678 121.801 167.747 121.38 168.448C121.129 168.87 120.832 169.643 120.718 170.168ZM210.429 66.6354C210.195 71.5476 209.108 80.8706 208.289 85.0041C207.979 86.5687 207.566 88.6806 207.373 89.6959C206.94 91.9676 206.869 92.2144 206.125 94.0385C205.476 95.6303 204.275 99.5785 202.655 105.462C202.085 107.53 201.305 110.268 200.923 111.548C200.156 114.114 200 114.712 198.884 119.406C198.463 121.179 197.924 123.418 197.686 124.383C197.448 125.348 197.129 127.184 196.975 128.464C196.652 131.153 196.442 131.872 195.422 133.768C194.964 134.621 194.561 135.661 194.371 136.48L194.064 137.809L195.284 137.734C195.956 137.694 197.236 137.582 198.128 137.487C199.02 137.392 200.44 137.281 201.283 137.24C202.126 137.2 203.014 137.11 203.256 137.043C204.93 136.57 210.767 134.33 211.19 133.999C212.192 133.21 215.246 129.431 216.784 127.072C218.095 125.063 218.312 124.631 218.791 123.106C220.766 116.794 223.513 108.835 224.49 106.595C225.118 105.152 226.001 102.908 226.451 101.611C226.9 100.312 227.657 98.2679 228.133 97.0693C228.608 95.8707 229.419 93.687 229.935 92.217C231.755 87.0349 233.401 83.5585 236.129 79.135C237.519 76.8822 238.73 75.4592 240.954 73.4626C243.565 71.1191 244.797 69.2585 244.606 67.9437C244.534 67.4447 244.402 67.2874 243.46 66.5832C241.375 65.0262 237.312 63.1946 234.975 62.7581C232.544 62.3038 226.319 63.0526 220.552 64.4911C219.066 64.8613 217.229 65.2133 216.469 65.2736C213.114 65.538 212.435 65.5431 211.53 65.314C211.002 65.1789 210.554 65.0927 210.535 65.1184C210.516 65.1465 210.467 65.8285 210.429 66.6354ZM168.387 140.954C168.433 141.549 169.127 142.35 171.095 144.086C171.994 144.877 173.413 146.129 174.25 146.871C176.324 148.704 177.784 150.379 179.28 152.644C182.099 156.904 183.31 158.359 184.749 159.22C185.274 159.534 185.97 159.86 186.297 159.944C186.823 160.079 186.912 160.047 187.079 159.657C187.183 159.417 187.318 158.733 187.377 158.14C187.437 157.546 187.567 156.547 187.667 155.922C187.766 155.294 187.824 153.921 187.793 152.869C187.763 151.816 187.782 150.577 187.833 150.113C187.974 148.848 188.586 147.045 189.117 146.327C189.39 145.958 189.809 144.987 190.115 144.016C190.405 143.096 190.85 141.976 191.106 141.528C191.69 140.501 191.728 140.241 191.411 139.439C191.271 139.081 191.225 138.623 191.309 138.42C191.484 138.003 191.433 137.969 189.692 137.36C188.246 136.853 185.944 136.445 184.29 136.4C181.471 136.323 179.408 136.78 176.739 138.071C175.779 138.534 174.353 138.953 171.978 139.469C170.115 139.873 168.536 140.272 168.471 140.354C168.407 140.439 168.369 140.708 168.387 140.954ZM119.649 219.175C120.727 222.395 121.676 223.892 123.226 224.82C124.621 225.656 126.769 226.4 129.311 226.929C130.572 227.19 132.373 227.583 133.313 227.802C135.635 228.341 137.344 228.403 139.55 228.034C143.116 227.436 145.874 226.145 149.08 223.573C151.307 221.787 152.305 220.547 153.338 218.283C154.401 215.956 156.017 213.426 158.268 210.568C161.227 206.812 162.725 205.555 165.807 204.24L166.956 203.749L166.339 203.425C165.811 203.149 165.364 203.154 163.235 203.463C157.47 204.299 154.881 205.208 151.295 207.655C149.617 208.8 143.71 211.846 141.212 212.854C138.43 213.976 132.495 215.797 130.004 216.293C127.622 216.768 123.491 217.209 120.756 217.28C119.897 217.303 119.169 217.36 119.14 217.405C119.108 217.451 119.338 218.247 119.649 219.175ZM236.844 148.593C236.829 148.936 236.986 150.483 237.193 152.029C237.577 154.899 237.615 156.289 237.414 160.176C237.202 164.279 236.55 166.592 234.413 170.825C233.774 172.087 233.087 173.561 232.882 174.1C232.374 175.438 232.26 177.746 232.593 179.947C232.841 181.592 232.999 182.036 234.102 184.175C235.798 187.466 236.761 188.793 239.335 191.38C242.441 194.502 244.482 195.978 254.126 202.086C259.433 205.447 262.892 207.816 267.366 211.154L271.277 214.071L271.115 212.211C270.685 207.253 270.105 204.575 268.559 200.38C266.742 195.449 264.871 191.654 261.693 186.45C259.621 183.057 258.571 181.076 257.187 177.935C256.712 176.859 255.68 174.619 254.894 172.954C252.995 168.941 252.205 167.058 251.021 163.719C249.153 158.453 247.923 156.13 245.165 152.67C243.829 150.993 243.504 150.674 241.802 149.382C238.029 146.516 236.944 146.344 236.844 148.593ZM249.306 152.856C249.061 154.051 249.16 154.457 250.074 155.977C251.079 157.651 251.488 158.593 252.997 162.71C254.313 166.303 255.014 167.907 258.821 176.03C261.163 181.026 261.845 182.303 264.239 186.149C266.958 190.522 268.902 194.589 270.842 199.962C272.426 204.352 272.919 206.743 273.448 212.638L273.509 213.316L273.995 212.519C274.262 212.08 275 210.877 275.637 209.846C277.618 206.639 279 203.786 279.878 201.1C280.319 199.747 280.925 197.972 281.225 197.152C282.309 194.205 283.976 185.875 284.226 182.174C284.425 179.196 284.556 178.476 285.75 173.74C287.494 166.827 287.902 163.137 287.347 159.334C287.067 157.413 286.868 156.691 286.319 155.615L285.64 154.279L283.936 153.015C279.803 149.947 275.101 149.041 266.311 149.621C263.493 149.807 261.521 149.732 257.959 149.306C255.505 149.012 252.66 149.241 251.51 149.824C250.507 150.333 249.555 151.644 249.306 152.856ZM197.922 230.743C197.466 231.735 196.707 233.491 196.233 234.647C194.5 238.884 193.655 244.961 194.542 246.813C194.808 247.368 194.826 247.377 196.168 247.64C198.805 248.16 202.409 249.075 206.581 250.287C210.198 251.337 218.514 253.514 224.46 254.969C226.77 255.533 231.379 256.275 231.457 256.093C231.493 256.015 231.263 255.689 230.946 255.372C230.037 254.459 229.25 253.145 228.297 250.954C227.244 248.531 226.207 246.77 224.031 243.715C221.951 240.796 220.358 238.997 217.362 236.186C215.057 234.021 214.731 233.767 210.43 230.777C206.869 228.302 205.573 227.475 204.288 226.865C203.393 226.439 202.507 226.068 202.32 226.039C201.945 225.982 200.767 226.51 200.133 227.018C199.583 227.46 198.918 228.579 197.922 230.743ZM180.748 257.547C179.791 259.385 176.89 266.194 175.841 269.061C175.201 270.813 175.097 272.072 175.486 273.349C175.947 274.857 176.612 275.811 177.868 276.765C180.819 279.005 184.931 279.811 189.953 279.133C192.289 278.818 193.801 278.437 197.684 277.186C203.853 275.198 207.682 273.372 212.264 270.233C214.945 268.395 218.618 266.229 223.104 263.84C224.26 263.225 225.94 262.233 226.837 261.636C227.736 261.04 229.388 260.117 230.509 259.589L232.547 258.626L231.771 258.546C229.141 258.278 225.815 257.691 223.109 257.021C215.105 255.032 209.342 253.531 205.271 252.37C196.038 249.74 190.603 248.802 188.528 249.478C187.123 249.938 185.232 251.237 183.848 252.694C183.137 253.443 181.773 255.58 180.748 257.547ZM236.085 196.694C235.922 197.262 236.069 199.187 236.319 199.761C236.63 200.478 242.659 205.052 246.368 207.387C249.032 209.063 254.145 211.873 255.643 212.484C255.998 212.627 257.324 212.951 258.589 213.2C259.852 213.45 261.48 213.813 262.207 214.006C262.932 214.2 264.314 214.448 265.278 214.556C266.24 214.664 267.538 214.87 268.161 215.011C268.782 215.153 269.286 215.23 269.279 215.182C269.245 214.946 258.048 207.216 253.942 204.593C246.71 199.975 243.208 197.601 241.099 195.888L239.172 194.322L238.496 194.599C237.214 195.123 236.309 195.911 236.085 196.694ZM192.48 282.245C192.647 282.727 193.055 283.571 193.385 284.123C196.439 289.218 195.949 288.609 198.576 290.565C201.101 292.445 201.971 292.88 204.162 293.362C206.495 293.873 207.382 293.613 209.61 291.758C213.134 288.823 215.966 283.76 218.722 275.467C219.79 272.259 220.658 270.43 222.196 268.166L223.526 266.208L222.259 266.948C221.562 267.355 219.944 268.28 218.662 268.998C217.379 269.718 215.067 271.17 213.524 272.223C210.49 274.293 206.888 276.236 203.768 277.485C201.452 278.411 196.364 280.054 194.01 280.631C193.077 280.861 192.281 281.121 192.245 281.21C192.207 281.3 192.313 281.765 192.48 282.245ZM289.118 167.313C288.964 168.533 288.327 171.657 287.701 174.258C286.838 177.838 286.524 179.547 286.402 181.298C286.121 185.346 285.969 186.459 285.071 190.96C284.251 195.065 283.063 199.223 281.372 203.89C280.857 205.311 278.797 209.308 278.085 210.27C277.772 210.692 277.259 211.511 276.947 212.09C276.199 213.475 275.281 214.707 274.745 215.043L274.314 215.313L275.298 215.456C276.316 215.603 279.347 215.293 280.025 214.971C280.239 214.872 281.37 214.152 282.541 213.372C284.616 211.99 284.689 211.924 285.455 210.751C285.888 210.087 286.857 208.344 287.607 206.876C289.146 203.871 289.838 201.729 290.436 198.132C290.676 196.699 290.973 195.637 291.416 194.648C292.058 193.215 292.734 191.289 293.7 188.132C294.083 186.879 294.657 185.602 295.825 183.394C297.811 179.645 299.45 176.198 299.925 174.773C300.402 173.336 300.261 172.119 299.407 170.341C298.478 168.407 297.774 167.891 294.25 166.57C292.838 166.04 291.179 165.3 290.567 164.925C289.47 164.255 289.45 164.251 289.423 164.671C289.408 164.905 289.271 166.095 289.118 167.313ZM306.482 188.446C306.574 189.281 307.148 192.729 307.756 196.109C308.364 199.49 308.898 202.716 308.942 203.278C309.081 205.03 310.007 213.227 310.507 217.139C311.131 222.003 311.188 223.947 310.881 229.981C310.448 238.489 310.469 240.356 311.093 249.935C311.51 256.316 312.592 264.687 313.443 268.151C314.132 270.954 316.891 279.867 317.773 282.152C318.622 284.343 320.732 288.741 321.933 290.819C323.272 293.139 328.279 299.588 330.857 302.318C333.171 304.767 334.555 306.124 334.635 306.016C334.659 305.984 334.434 305.616 334.138 305.199C333.096 303.738 325.909 289.09 325.081 286.744C324.233 284.338 323.806 282.326 323.22 277.939C322.792 274.75 322.667 272.768 322.643 268.786C322.605 262.443 322.588 262.239 321.38 254.03C320.37 247.169 319.793 242.111 319.301 235.793C319.132 233.626 318.709 230.643 318.189 227.972C317.729 225.597 317.26 222.569 317.148 221.244C316.891 218.174 316.072 213.135 315.473 210.948C315.22 210.017 314.586 208.118 314.065 206.73C313.545 205.342 312.79 203.155 312.389 201.87C311.986 200.587 311.165 198.23 310.562 196.633C309.96 195.035 309.18 192.862 308.83 191.803C308.138 189.707 307.373 187.581 306.768 186.063L306.383 185.096L306.347 186.014C306.33 186.517 306.39 187.612 306.482 188.446ZM308.579 185.541C308.691 185.699 309.574 188.047 310.539 190.763C311.506 193.477 312.6 196.495 312.973 197.468C313.343 198.44 313.957 200.217 314.337 201.415C314.715 202.612 315.462 204.748 315.995 206.16C316.528 207.571 317.16 209.398 317.397 210.221C318.038 212.428 318.79 216.782 319.207 220.701C319.409 222.602 319.924 225.881 320.351 227.987C320.884 230.604 321.263 233.348 321.552 236.663C322.162 243.64 322.466 246.163 323.68 254.278C324.793 261.711 324.903 263.1 324.89 269.623C324.884 272.784 325.005 274.259 325.622 278.515C326.428 284.085 326.985 286.059 328.711 289.486C329.703 291.456 332.727 297.778 333.662 299.834C334.468 301.613 334.42 301.358 333.107 296.904C330.462 287.933 329.834 284.268 328.184 268.185C327.746 263.896 326.911 256.681 325.785 247.43C325.544 245.445 324.782 239.034 324.092 233.185C321.986 215.314 321.949 215.099 319.877 208.426C319.3 206.567 318.457 203.751 318.006 202.17C316.955 198.486 315.881 195.571 314.798 193.462C313.356 190.653 311.047 187.467 309.007 185.467C308.526 184.998 308.226 185.05 308.579 185.541ZM210.978 316.262C211.143 316.474 211.349 316.542 211.629 316.475C212.611 316.24 219.689 316.612 221.663 317C227.959 318.24 230.404 318.792 232.408 319.422C233.676 319.821 236.124 320.507 237.846 320.948C239.568 321.387 242.395 322.177 244.13 322.704C245.864 323.23 248.721 324.086 250.481 324.606C252.238 325.126 254.909 325.935 256.415 326.407C257.921 326.876 261.717 327.959 264.851 328.814C267.983 329.668 271.848 330.723 273.438 331.159C275.028 331.594 277.944 332.33 279.919 332.794C281.893 333.259 284.662 333.936 286.074 334.299C289.772 335.253 291.939 335.628 295.616 335.952C297.405 336.11 300.599 336.399 302.716 336.597C305.984 336.899 311.166 337.148 311.271 337.007C311.29 336.983 310.501 336.799 309.521 336.596C304.998 335.663 299.177 334.267 292.116 332.426C280.276 329.339 277.159 328.398 266.496 324.682C252.748 319.891 241.592 316.53 234.428 315.024C229.897 314.07 223.806 313.403 219.945 313.436C215.153 313.478 210.054 315.083 210.978 316.262ZM217.041 319.577C217.908 319.932 221.221 321.066 224.399 322.093C233.28 324.964 239.29 327.321 244.555 329.996C245.774 330.615 248.968 332.379 251.65 333.915C261.986 339.834 266.902 342.12 273.778 344.203C278.316 345.58 287.43 347.127 292.731 347.42C294.87 347.539 300.292 347.084 305.687 346.333C309.672 345.777 312.731 344.866 315.853 343.3C316.828 342.811 318.23 342.151 318.969 341.832C319.706 341.514 321.269 340.69 322.444 340.001C325.619 338.138 325.46 338.284 324.244 338.358C323.665 338.392 322.28 338.561 321.165 338.734C319.123 339.047 313.339 339.412 310.205 339.424C307.761 339.432 306.074 339.327 300.529 338.817C291.557 337.993 290.344 337.809 285.163 336.507C283.698 336.138 280.686 335.403 278.469 334.875C276.252 334.347 272.912 333.479 271.046 332.949C269.179 332.417 265.646 331.439 263.195 330.774C260.743 330.108 257.035 329.031 254.955 328.384C247.442 326.038 241.991 324.42 238.535 323.508C236.596 322.996 233.647 322.156 231.982 321.645C228.143 320.465 220.584 318.961 217.53 318.77C216.276 318.692 215.296 318.696 215.354 318.779C215.412 318.862 216.172 319.221 217.041 319.577ZM219.341 374.268C219.776 374.343 221.512 374.531 223.196 374.686C233.035 375.59 235.67 375.692 240.209 375.356C241.499 375.259 243.801 375.093 245.325 374.988C246.846 374.883 249.215 374.698 250.589 374.58C251.96 374.461 254.73 374.366 256.744 374.367C258.757 374.37 261.707 374.235 263.297 374.07C264.887 373.904 267.115 373.735 268.249 373.694C271.703 373.57 275.826 373.118 285.811 371.771C294.941 370.54 301.523 369.39 305.253 368.374C306.899 367.927 308.837 367.047 308.797 366.768C308.755 366.469 306.186 365.969 302.967 365.635C299.338 365.256 295.714 365.139 288.939 365.178C280.965 365.223 277.418 365.634 271.364 367.219C265.789 368.677 264.827 368.88 258.877 369.866C249.849 371.36 239.355 372.464 229.329 372.973C224.234 373.231 218.815 373.772 218.614 374.04C218.577 374.09 218.903 374.193 219.341 374.268ZM225.134 377.026C227.987 377.78 233.683 378.677 238.638 379.154C241.819 379.457 248.898 379.808 250.973 379.765C259.514 379.584 262.797 379.34 269.274 378.403C272.92 377.875 277.744 377.075 279.992 376.625C282.239 376.174 284.761 375.671 285.594 375.508C286.426 375.343 288.089 374.958 289.288 374.653C290.486 374.349 292.467 373.866 293.688 373.581C295.783 373.094 298.514 372.217 299.446 371.732L299.862 371.517L299.317 371.636C296.147 372.338 292.44 372.944 289.058 373.316C286.809 373.565 283.726 373.986 282.207 374.251C278.981 374.818 272.597 375.473 268.643 375.644C267.117 375.709 264.757 375.883 263.396 376.03C262.035 376.176 259.751 376.291 258.318 376.285C254.174 376.268 251.058 376.425 241.713 377.125C236.336 377.527 232.437 377.422 225.655 376.69C224.501 376.566 223.563 376.497 223.568 376.539C223.574 376.581 224.278 376.799 225.134 377.026Z" fill="#5D7C78"/>
<path fill-rule="evenodd" clip-rule="evenodd" d="M112.895 63.7472C115.524 61.644 116.356 61.0953 119.376 59.4788C120.868 58.6815 123.191 57.2862 124.54 56.3793C127.917 54.1101 133.153 51.2309 136.442 49.8339C144.342 46.4807 148.659 44.1905 152.281 41.4356C154.617 39.6582 161.983 34.7018 163.168 34.1107C166.46 32.4657 171.985 31.8119 175.594 32.6395C177.961 33.1828 178.939 33.6801 181.724 35.7517C183.141 36.8063 185.037 38.3048 185.937 39.0804L187.572 40.4921L189.764 37.5586C192.159 34.353 193.117 33.372 194.948 32.2519C196.296 31.4271 198.018 31.1593 199.28 31.5795C201.415 32.289 204.522 35.8328 206.782 40.1338C209.823 45.9217 211.065 52.6283 210.722 61.3998C210.672 62.6468 210.634 63.7122 210.637 63.7673C210.658 64.3063 216.232 63.6212 219.254 62.7082C221.782 61.9438 225.12 61.2652 228.671 60.7913C232.445 60.2877 233.803 60.2546 235.489 60.6245C239.244 61.4502 245.309 64.7832 246.286 66.5592C247.462 68.6964 246.125 71.5874 242.51 74.7265C239.741 77.13 238.142 79.3044 235.454 84.3185C234.265 86.5338 232.754 90.149 231.602 93.5324C231.172 94.7944 230.43 96.8138 229.949 98.0215C229.471 99.2303 228.728 101.235 228.298 102.48C227.868 103.725 226.992 105.917 226.352 107.351C225.181 109.972 222.123 118.725 220.897 122.965C220.513 124.293 219.981 125.703 219.619 126.356C217.858 129.529 213.967 134.532 212.285 135.786C211.858 136.104 210.384 136.749 208.73 137.341C207.178 137.897 205.437 138.53 204.865 138.748C204.291 138.965 203.028 139.206 202.056 139.285C201.083 139.364 199.558 139.513 198.667 139.616C197.012 139.809 194.731 139.806 194.463 139.613C194.009 139.284 193.787 139.473 193.755 140.214C193.723 140.917 193.249 142.205 192.797 142.81C192.686 142.959 192.352 143.852 192.053 144.795C191.755 145.738 191.318 146.767 191.083 147.081C190.604 147.722 190.05 149.116 189.884 150.104C189.822 150.463 189.772 151.629 189.771 152.696C189.769 155.281 189.007 159.774 188.439 160.557L188.021 161.133L189.119 163.937C190.49 167.44 190.142 166.782 192.903 171.09C197.316 177.979 200.477 181.785 206.554 187.525C216.422 196.842 221.879 201.788 225.868 205.029C233.709 211.401 243.165 219.506 247.094 223.221C251.339 227.235 258.234 234.625 261.331 238.48C264.056 241.872 271.102 251.362 274.713 256.504C276.582 259.167 278.15 261.374 278.199 261.41C278.248 261.447 277.924 260.452 277.48 259.199C276.648 256.855 275.524 251.99 274.925 248.143C274.738 246.938 274.53 244.491 274.463 242.702C274.39 240.735 274.054 237.522 273.613 234.582C273.213 231.905 272.753 228.194 272.591 226.334C272.43 224.475 272.13 221.662 271.924 220.082L271.55 217.212L271.016 217.342C270.724 217.415 269.606 217.288 268.532 217.061C267.458 216.835 265.899 216.583 265.065 216.502C264.233 216.421 262.916 216.201 262.138 216.014C261.361 215.825 259.711 215.481 258.472 215.247C255.343 214.656 255.061 214.55 251.865 212.756C247.941 210.554 244.466 208.213 239.619 204.504C234.742 200.774 234.727 200.756 234.614 198.623C234.529 197.003 234.679 196.341 235.326 195.475C235.929 194.668 236.562 194.217 237.635 193.834C238.188 193.635 238.41 193.485 238.323 193.367C238.25 193.27 237.597 192.591 236.871 191.854C236.143 191.117 235.15 189.941 234.662 189.241C233.408 187.44 231.694 184.266 231.147 182.735C230.261 180.255 230.089 176.251 230.774 173.988C230.954 173.393 231.652 171.84 232.325 170.536C234.837 165.676 235.253 164.216 235.526 159.246C235.695 156.168 235.658 155.076 235.285 152.189C234.799 148.427 234.876 147.214 235.668 146.154C237.065 144.284 238.942 144.7 243.09 147.799C245.08 149.285 245.456 149.629 246.523 150.943C247.181 151.754 247.753 152.412 247.793 152.407C247.833 152.401 248.042 151.963 248.258 151.432C248.818 150.046 249.855 148.892 251.044 148.335C252.41 147.695 255.446 147.332 257.583 147.549C261.548 147.954 263.269 148.005 266.046 147.796C275.064 147.12 280.015 148.033 284.75 151.248C286.215 152.244 286.547 152.536 287.167 153.379C288.678 155.435 289.576 158.952 289.524 162.612L289.516 163.187L290.856 163.794C291.593 164.127 293.497 164.821 295.087 165.334C297.626 166.153 298.104 166.36 299.023 167.047C300.001 167.775 300.125 167.936 300.879 169.424C301.807 171.258 302.162 172.963 301.873 174.22C301.635 175.258 299.889 179.062 297.523 183.687C295.872 186.919 295.638 187.484 295.03 189.712C294.662 191.064 293.96 193.141 293.472 194.326C292.761 196.053 292.512 196.941 292.223 198.788C291.845 201.2 291.205 203.707 290.569 205.265C290.362 205.77 289.521 207.48 288.7 209.068C286.748 212.836 286.339 213.316 283.554 215.109C282.393 215.855 281.195 216.587 280.888 216.735C279.552 217.379 274.817 217.772 274.173 217.291C274.073 217.216 273.964 217.193 273.928 217.241C273.893 217.288 274.006 218.439 274.178 219.801C274.35 221.161 274.688 224.525 274.925 227.275C275.164 230.025 275.548 233.299 275.779 234.552C276.241 237.066 276.468 239.722 276.498 242.972C276.526 246.031 276.719 247.614 277.606 252.045C278.798 258.004 279.201 259.241 281.948 265.349C283.13 267.98 284.072 269.329 287.808 273.743C293.091 279.984 295.115 282.101 303.412 290.049C306.455 292.966 309.909 296.305 311.085 297.471C318.805 305.115 331.069 314.449 345.87 323.953C347.223 324.82 348.362 325.49 348.4 325.438C348.439 325.387 348.241 325.11 347.961 324.826C346.976 323.818 343.357 319.347 342.452 318.024C341.951 317.289 340.788 315.28 339.873 313.563C338.289 310.598 338.177 310.432 337.663 310.306C337.28 310.211 336.308 309.563 334.348 308.095C331.977 306.319 331.275 305.709 329.517 303.896C326.65 300.935 321.926 294.912 320.2 292.012C318.988 289.979 316.374 284.623 315.57 282.53C314.798 280.519 312.873 274.388 311.777 270.449C310.49 265.819 309.564 258.857 309.024 249.753C308.48 240.57 308.469 238.057 308.944 229.247C309.243 223.692 309.198 221.956 308.647 217.643C308.418 215.846 308.086 212.99 307.912 211.294C307.188 204.253 306.749 201.064 305.799 195.905C304.526 189.011 304.237 186.681 304.43 184.864C304.564 183.588 304.656 183.313 305.175 182.617C305.697 181.919 305.839 181.819 306.382 181.781C307.342 181.716 308.207 182.141 309.814 183.47C311.612 184.957 312.71 186.194 314.454 188.697C317.111 192.512 318.25 195.134 320.388 202.362C321.145 204.922 322.181 208.427 322.692 210.152C323.202 211.876 323.79 214.063 323.997 215.012C324.204 215.961 325.064 222.709 325.91 230.008C326.756 237.306 327.644 244.902 327.885 246.884C328.804 254.465 329.64 261.943 330.145 267.102C331.807 284.11 332.351 287.288 335.25 297.002C337.371 304.108 338.062 305.832 341.325 312.172C343.924 317.224 344.678 318.355 349.434 324.338C350.539 325.731 351.643 327.131 351.885 327.454C352.251 327.938 353.246 328.609 357.844 331.481C360.878 333.377 364.319 335.55 365.492 336.31C366.665 337.07 368.34 338.07 369.213 338.532C372.048 340.033 384.51 349.602 387.189 352.333C388.16 353.324 388.918 354.325 388.851 354.528C388.822 354.618 387.658 353.797 386.059 352.562C380.497 348.261 368.048 339.973 365.681 338.995C361.804 337.394 356.996 336.467 351.94 336.343L350.186 336.301L348.159 337.353C343.92 339.554 342.252 341.007 339.012 345.316C334.736 350.999 332.594 353.302 328.304 356.816C324.263 360.126 321.274 362.124 313.708 366.573C303.05 372.839 299.306 374.594 293.938 375.838C292.692 376.126 290.487 376.66 289.034 377.023C287.58 377.388 285.058 377.922 283.427 378.211C281.797 378.5 279.469 378.944 278.255 379.196C275.079 379.857 262.461 381.473 260.193 381.512C259.135 381.53 256.562 381.604 254.478 381.677C247.776 381.909 240.318 381.418 231.881 380.186C225.614 379.271 220.611 377.937 217.63 376.383C215.919 375.493 215.407 374.193 216.364 373.175C217.576 371.883 221.487 371.282 231.439 370.855C239.113 370.525 244.961 369.954 253.977 368.652C262.27 367.454 264.248 367.071 270.262 365.492C275.232 364.186 278.528 363.638 282.802 363.403C285.671 363.244 294.194 363.205 297.3 363.335C299.142 363.412 304.661 364.009 306.476 364.328C307.479 364.504 310.078 365.336 310.419 365.591C310.719 365.816 310.852 365.751 314.902 363.358C319.751 360.494 321.481 359.382 324.042 357.492C330.394 352.803 333.102 350.148 337.437 344.35C340.256 340.58 341.902 339.006 344.772 337.342C345.363 337 345.842 336.679 345.834 336.63C345.826 336.581 343.271 336.866 340.154 337.265C337.036 337.665 333.812 338.041 332.988 338.104C331.969 338.182 330.822 338.461 329.4 338.978C327.248 339.759 326.811 339.975 323.271 341.987C322.126 342.639 320.773 343.337 320.265 343.537C319.757 343.737 318.336 344.377 317.108 344.956C312.295 347.226 308.872 347.991 299.55 348.884C293.904 349.425 293.058 349.428 288.12 348.931C277.293 347.839 267.627 344.968 257.9 339.955C256.643 339.307 253.481 337.565 250.875 336.083C240.576 330.227 235.196 327.89 223.549 324.208C217.64 322.34 216.421 321.901 213.714 320.663C211.055 319.449 209.47 318.294 208.899 317.153C208.34 316.042 208.363 315.344 208.984 314.513C210.035 313.106 212.365 312.123 215.88 311.601C219.463 311.071 223.196 311.197 229.723 312.074C237.148 313.069 247.993 316.092 267.576 322.624C278.436 326.246 281.491 327.145 292.658 330.011C312.13 335.007 317.485 335.873 328.569 335.805C332.79 335.779 334.169 335.676 339.58 334.988C348.31 333.878 352.161 333.799 357.576 334.62L359.755 334.952L358.75 334.319C343.15 324.476 338.768 321.58 331.205 316.115C323.128 310.279 314.722 303.479 310.227 299.145C309.451 298.396 306.555 295.663 303.791 293.072C293.64 283.555 290.732 280.547 284.994 273.638C283.765 272.159 283.088 271.449 282.913 271.457C282.741 271.467 282.64 271.382 282.614 271.204C282.555 270.798 277.643 266.999 275.554 265.744C273.441 264.475 270.124 262.757 267.619 261.634C261.779 259.014 259.313 258.694 246.745 258.921C244.892 258.955 242.179 258.963 240.717 258.94C239.255 258.917 237.971 258.935 237.865 258.981C237.757 259.027 237.172 259.262 236.563 259.503C230.089 262.077 229.512 262.468 226.051 266.618C223.024 270.248 222.148 271.817 220.627 276.332C218.639 282.236 216.169 287.502 214.097 290.259C213.252 291.384 210.727 293.731 209.423 294.604C207.217 296.082 204.928 296.11 201.514 294.702C198.032 293.266 195.091 290.751 193.523 287.868C193.058 287.012 192.558 286.156 192.414 285.962C191.832 285.188 190.885 283.272 190.623 282.341L190.345 281.355L188.816 281.511C184.253 281.979 180.379 281.151 177.135 279.017C174.855 277.518 173.53 275.573 173.039 273.01C172.677 271.127 173.06 269.586 175.161 264.439C178.169 257.068 179.459 254.566 181.652 251.857C184.55 248.277 187.81 246.595 191.25 246.901L192.393 247.004L192.244 245.602C192.042 243.697 192.18 242 192.81 238.667C193.28 236.174 193.493 235.485 194.644 232.713C196.986 227.073 197.787 225.763 199.612 224.608C200.574 223.998 202.015 223.614 202.834 223.749C204.049 223.95 206.25 225.126 209.226 227.164C210.838 228.268 213.042 229.766 214.121 230.497C215.692 231.558 216.554 232.266 218.437 234.041C222.523 237.893 223.399 238.908 226.388 243.245C228.536 246.361 229.197 247.515 230.467 250.363C231.612 252.932 232.257 253.735 234.283 255.105C235.156 255.696 236.134 256.271 236.456 256.385C237.116 256.617 240.502 256.707 245.579 256.629C258.179 256.436 260.473 256.603 264.736 258.021C267.923 259.082 273.09 261.679 276.236 263.804C277.261 264.496 278.084 264.984 278.063 264.889C278.042 264.793 277.542 264.092 276.95 263.331C276.357 262.571 274.834 260.478 273.565 258.682C269.038 252.272 262.853 243.923 259.751 240.032C255.96 235.279 248.536 227.488 243.429 222.901C238.017 218.04 237.345 217.51 234.993 216.24C233.799 215.597 231.159 214.116 229.127 212.952C227.095 211.788 225 210.645 224.471 210.41C220.072 208.462 213.565 207.335 207.484 207.464C206.424 207.486 202.662 207.751 199.126 208.052C186.861 209.098 184.699 209.123 180.224 208.268C176.672 207.59 174.747 207.01 171.681 205.698C170.077 205.012 168.821 204.563 168.756 204.651C168.692 204.736 167.667 205.3 166.478 205.905C165.29 206.51 164.019 207.257 163.654 207.565C162.126 208.85 160.481 210.646 158.951 212.696C157.079 215.205 156.006 216.955 154.976 219.181C153.803 221.712 152.668 223.109 150.108 225.169C146.205 228.308 143.581 229.46 138.986 230.052C136.339 230.392 135.356 230.304 131.302 229.361C126.58 228.262 126.203 228.157 124.499 227.492C122.183 226.584 120.484 225.289 119.5 223.679C119.105 223.032 118.467 221.598 118.083 220.491C117.245 218.083 116.909 217.375 116.591 217.342C116.459 217.33 114.877 217.32 113.078 217.323C108.758 217.328 107.512 217.259 105.82 216.923C104.435 216.647 104.377 216.618 102.776 215.422C101.161 214.216 101.137 214.19 100.512 212.945C100.086 212.095 99.731 210.926 99.4195 209.337C98.4989 204.635 98.2515 203.639 97.4596 201.428C97.0167 200.191 95.826 197.511 94.8144 195.476C92.3211 190.461 92.0111 189.266 92.4963 186.521C93.0232 183.539 94.0883 181.096 95.9897 178.517C97.6599 176.251 98.4626 175.518 100.368 174.515C102.819 173.228 106.607 172.937 110.498 173.74C112.859 174.226 115.306 174.977 117.588 175.912L119.57 176.724L119.41 175.768C119.059 173.655 118.942 170.932 119.16 169.867C119.473 168.32 120.141 166.998 120.884 166.446C121.813 165.757 122.866 165.736 126.225 166.338C131.742 167.326 134.524 167.273 140.169 166.08C148.088 164.406 154.253 165.531 156.793 169.113C157.565 170.204 159.538 174.19 160.444 176.494C161.394 178.907 162.1 181.773 162.684 185.576C163.269 189.39 163.423 190.032 164.196 191.915C164.517 192.699 164.913 193.887 165.074 194.555C165.511 196.374 166.375 198.443 167.092 199.39C167.528 199.964 167.758 200.475 167.821 201.007C167.871 201.434 168.034 201.877 168.184 201.989C168.778 202.432 175.208 205.052 176.696 205.458C177.564 205.695 179.352 206.098 180.669 206.355C185.134 207.227 187.105 207.206 200.072 206.156C205.942 205.679 208.712 205.59 211.804 205.775C218.216 206.156 223.381 207.567 227.806 210.148C229.897 211.366 230.494 211.643 229.612 210.985C226.164 208.409 219.593 202.783 215.089 198.553C203.771 187.923 201.119 185.256 197.558 180.922C194.712 177.459 189.984 170.53 188.718 167.965C188.236 166.992 187.078 163.935 186.696 162.635C186.413 161.662 186.344 161.562 185.836 161.386C185.534 161.28 184.755 160.898 184.105 160.534C182.098 159.417 181.001 158.125 177.337 152.559C175.989 150.508 175.368 149.859 172.383 147.361C171.107 146.293 169.751 145.137 169.371 144.79L168.68 144.16L167.518 144.93C166.072 145.889 164.903 146.299 163.636 146.295C163.097 146.293 161.646 146.309 160.41 146.331C155.254 146.423 152.989 146.093 147.115 144.389C144.695 143.688 141.462 142.805 139.931 142.428C138.399 142.052 136.253 141.448 135.161 141.088C131.467 139.867 130.633 139.412 123.277 134.606C119.057 131.848 117.707 131.04 114.089 129.11C108.222 125.982 104.892 123.581 102.424 120.702C100.712 118.706 99.2418 116.53 98.3859 114.727C96.7924 111.369 95.468 105.225 95.844 102.934C96.1873 100.842 96.5131 100.101 97.9011 98.2512C99.041 96.731 99.3559 96.4139 101.054 95.0848C103.394 93.2512 105.514 91.9384 108.235 90.6379C110.193 89.701 110.329 89.6089 110.186 89.306C110.102 89.1274 109.484 88.0818 108.812 86.9849C108.139 85.8881 107.492 84.7911 107.372 84.5453C106.886 83.5496 106.049 80.5968 105.951 79.5305C105.44 73.9136 105.802 72.5587 109.016 68.0785L111.085 65.1965L112.895 63.7472ZM108.451 72.4021C107.802 73.8442 107.605 75.3539 107.749 77.785C107.943 81.0465 108.583 83.1223 110.198 85.7418C110.881 86.8481 111.543 88.0092 111.671 88.3239C111.799 88.6386 111.931 88.9189 111.968 88.9462C112.004 88.9735 112.526 88.8173 113.127 88.6002C113.729 88.3817 115.505 87.7874 117.074 87.2773C120.185 86.2681 121.058 85.8897 121.755 85.2484C122.154 84.8805 122.22 84.6705 122.267 83.5966C122.406 80.5127 123.521 75.5712 124.597 73.2816C126.296 69.6646 129.462 66.2065 132.988 64.1198C134.485 63.2337 138.053 61.9268 140.709 61.2924C145.027 60.2598 151.601 59.6514 161.644 59.3535C169.392 59.1249 173.716 57.9997 177.171 55.3161C178.113 54.5838 178.532 54.1128 180.091 52.0263C181.331 50.3661 182.16 49.1068 182.694 48.0677C183.124 47.2294 184.228 45.3872 185.146 43.9737L186.817 41.4039L184.168 39.2813C178.94 35.0912 176.525 33.9864 172.341 33.8719C169.162 33.784 166.018 34.4441 163.636 35.6958C162.121 36.4915 157.156 39.8278 153.582 42.4478C152.056 43.5675 149.877 45.024 148.742 45.6839C146.288 47.1101 140.95 49.7313 137.019 51.4394C133.585 52.9323 128.953 55.5227 125.372 57.9517C123.908 58.9453 121.541 60.4025 120.112 61.1905C117.267 62.7589 116.406 63.3275 114.045 65.1965C112.505 66.4159 112.428 66.5018 110.655 68.9887C109.658 70.3881 108.665 71.9233 108.451 72.4021ZM98.2824 101.551C97.5144 103.712 97.6799 105.724 98.9996 110.265C100.682 116.054 104.174 120.5 109.842 124.064C110.948 124.759 112.531 125.691 113.362 126.132C119.538 129.422 122.005 130.902 128.324 135.107C132.407 137.824 134.837 138.864 140.181 140.178C141.811 140.578 145.221 141.513 147.76 142.254C152.87 143.747 154.978 144.109 158.281 144.068C165.137 143.98 164.726 144.022 165.851 143.284C166.372 142.942 166.874 142.615 166.964 142.557C167.053 142.5 166.944 142.191 166.72 141.869C166.369 141.368 166.175 141.235 165.325 140.907C163.868 140.344 160.751 138.27 158.773 136.548C157.854 135.745 157.03 134.995 156.942 134.879C156.664 134.505 151.845 130.141 149.58 128.21C148.374 127.183 147.036 125.986 146.607 125.551C144.353 123.264 139.963 118.224 134.794 111.989C132.846 109.637 128.726 103.749 127.551 101.631C125.309 97.5956 123.387 92.4951 122.612 88.5265L122.271 86.777L121.55 87.2565C121.154 87.5213 118.951 88.4115 116.653 89.2357C114.357 90.0608 112.419 90.8138 112.347 90.9099C112.276 91.0046 112.08 91.086 111.913 91.092C111.11 91.1114 106.314 93.6132 104.168 95.1326C103.24 95.7905 101.371 97.2868 100.764 97.8597C99.8688 98.7072 98.6505 100.519 98.2824 101.551ZM126.683 74.1443C125.909 75.7988 125.443 77.3822 124.916 80.1674C124.325 83.2851 124.254 84.7415 124.568 87.2592C125.237 92.6059 127.857 98.6536 132.199 104.872C134.778 108.565 135.554 109.554 139.28 113.894C146.025 121.749 147.961 123.79 151.258 126.529C153.896 128.72 157.087 131.654 159.264 133.889C160.155 134.804 161.073 135.549 162.877 136.82C165.901 138.955 166.469 139.181 167.6 138.706C168.052 138.517 169.816 138.036 171.522 137.637C173.269 137.228 175.149 136.659 175.826 136.335C179.638 134.504 182.627 134.059 186.472 134.752C188.641 135.143 191.239 136.224 192.046 137.069L192.523 137.569L192.589 136.73C192.693 135.404 192.983 134.421 193.697 132.973C194.503 131.34 194.655 130.722 194.923 127.996C195.038 126.832 195.23 125.43 195.352 124.882C196.223 120.947 197.812 114.255 198.201 112.885C198.457 111.976 199.077 109.782 199.576 108.009C202.678 96.9853 203.35 94.8157 204.243 92.917C205.069 91.1607 205.21 90.6672 205.802 87.466C207.209 79.8398 208.675 63.3431 208.497 57.107C208.371 52.6718 207.498 47.7772 206.199 44.2331C204.747 40.2706 201.486 35.473 199.249 34.0142C198.455 33.4974 198.247 33.4368 197.542 33.5277C195.919 33.7366 194.25 35.0133 192.035 37.7438C189.907 40.3663 185.98 46.1375 184.374 49.0046C181.465 54.1916 178.794 56.9904 174.919 58.9127C171.812 60.4523 167.475 61.321 161.59 61.5777C146.29 62.2469 139.611 63.3329 134.672 65.9519C133.359 66.6485 131.032 68.3895 130.019 69.4327C129.051 70.4282 127.194 73.0504 126.683 74.1443ZM95.751 182.769C94.5729 185.648 94.1718 188.19 94.6143 189.973C94.7425 190.491 95.579 192.376 96.4699 194.163C99.1727 199.573 100.084 202.208 100.894 206.971C101.718 211.803 102.095 212.719 103.805 214.056C105.277 215.206 106.834 215.424 112.779 215.318C114.779 215.282 117.492 215.247 118.808 215.239C127.737 215.19 135.954 213.113 144.704 208.693C146.788 207.642 149.226 206.286 150.122 205.68C153.217 203.592 155.644 202.597 159.558 201.815L161.761 201.373L161.033 200.97C160.632 200.747 158.239 199.581 155.716 198.377C151.51 196.369 146.266 193.54 139.522 189.64C128.567 183.305 120.215 179.055 115.011 177.166C108.204 174.697 103.196 174.546 100.163 176.721C98.5748 177.862 96.719 180.405 95.751 182.769ZM120.718 170.168C120.331 171.976 120.693 177.054 121.236 177.459C121.403 177.584 122.198 177.994 123.002 178.372C126.649 180.086 134.639 184.423 140.619 187.938C149.038 192.885 156.128 196.604 164.486 200.457L166.123 201.212L165.57 200.561C164.709 199.549 163.754 197.412 163.165 195.187C162.968 194.44 162.546 193.225 162.229 192.486C161.406 190.573 161.234 189.894 160.699 186.481C159.832 180.962 159.046 178.22 157.188 174.234C155.27 170.124 154.566 169.2 152.712 168.354C151.213 167.669 149.948 167.39 147.84 167.278C145.513 167.153 143.675 167.339 140.12 168.059C134.683 169.159 131.727 169.181 126.38 168.159C124.603 167.818 122.854 167.574 122.494 167.613C121.895 167.678 121.801 167.747 121.38 168.448C121.129 168.87 120.832 169.643 120.718 170.168ZM210.429 66.6354C210.195 71.5476 209.108 80.8706 208.289 85.0041C207.979 86.5687 207.566 88.6806 207.373 89.6959C206.94 91.9676 206.869 92.2144 206.125 94.0385C205.476 95.6303 204.275 99.5785 202.655 105.462C202.085 107.53 201.305 110.268 200.923 111.548C200.156 114.114 200 114.712 198.884 119.406C198.463 121.179 197.924 123.418 197.686 124.383C197.448 125.348 197.129 127.184 196.975 128.464C196.652 131.153 196.442 131.872 195.422 133.768C194.964 134.621 194.561 135.661 194.371 136.48L194.064 137.809L195.284 137.734C195.956 137.694 197.236 137.582 198.128 137.487C199.02 137.392 200.44 137.281 201.283 137.24C202.126 137.2 203.014 137.11 203.256 137.043C204.93 136.57 210.767 134.33 211.19 133.999C212.192 133.21 215.246 129.431 216.784 127.072C218.095 125.063 218.312 124.631 218.791 123.106C220.766 116.794 223.513 108.835 224.49 106.595C225.118 105.152 226.001 102.908 226.451 101.611C226.9 100.312 227.657 98.2679 228.133 97.0693C228.608 95.8707 229.419 93.687 229.935 92.217C231.755 87.0349 233.401 83.5585 236.129 79.135C237.519 76.8822 238.73 75.4592 240.954 73.4626C243.565 71.1191 244.797 69.2585 244.606 67.9437C244.534 67.4447 244.402 67.2874 243.46 66.5832C241.375 65.0262 237.312 63.1946 234.975 62.7581C232.544 62.3038 226.319 63.0526 220.552 64.4911C219.066 64.8613 217.229 65.2133 216.469 65.2736C213.114 65.538 212.435 65.5431 211.53 65.314C211.002 65.1789 210.554 65.0927 210.535 65.1184C210.516 65.1465 210.467 65.8285 210.429 66.6354ZM168.387 140.954C168.433 141.549 169.127 142.35 171.095 144.086C171.994 144.877 173.413 146.129 174.25 146.871C176.324 148.704 177.784 150.379 179.28 152.644C182.099 156.904 183.31 158.359 184.749 159.22C185.274 159.534 185.97 159.86 186.297 159.944C186.823 160.079 186.912 160.047 187.079 159.657C187.183 159.417 187.318 158.733 187.377 158.14C187.437 157.546 187.567 156.547 187.667 155.922C187.766 155.294 187.824 153.921 187.793 152.869C187.763 151.816 187.782 150.577 187.833 150.113C187.974 148.848 188.586 147.045 189.117 146.327C189.39 145.958 189.809 144.987 190.115 144.016C190.405 143.096 190.85 141.976 191.106 141.528C191.69 140.501 191.728 140.241 191.411 139.439C191.271 139.081 191.225 138.623 191.309 138.42C191.484 138.003 191.433 137.969 189.692 137.36C188.246 136.853 185.944 136.445 184.29 136.4C181.471 136.323 179.408 136.78 176.739 138.071C175.779 138.534 174.353 138.953 171.978 139.469C170.115 139.873 168.536 140.272 168.471 140.354C168.407 140.439 168.369 140.708 168.387 140.954ZM119.649 219.175C120.727 222.395 121.676 223.892 123.226 224.82C124.621 225.656 126.769 226.4 129.311 226.929C130.572 227.19 132.373 227.583 133.313 227.802C135.635 228.341 137.344 228.403 139.55 228.034C143.116 227.436 145.874 226.145 149.08 223.573C151.307 221.787 152.305 220.547 153.338 218.283C154.401 215.956 156.017 213.426 158.268 210.568C161.227 206.812 162.725 205.555 165.807 204.24L166.956 203.749L166.339 203.425C165.811 203.149 165.364 203.154 163.235 203.463C157.47 204.299 154.881 205.208 151.295 207.655C149.617 208.8 143.71 211.846 141.212 212.854C138.43 213.976 132.495 215.797 130.004 216.293C127.622 216.768 123.491 217.209 120.756 217.28C119.897 217.303 119.169 217.36 119.14 217.405C119.108 217.451 119.338 218.247 119.649 219.175ZM236.844 148.593C236.829 148.936 236.986 150.483 237.193 152.029C237.577 154.899 237.615 156.289 237.414 160.176C237.202 164.279 236.55 166.592 234.413 170.825C233.774 172.087 233.087 173.561 232.882 174.1C232.374 175.438 232.26 177.746 232.593 179.947C232.841 181.592 232.999 182.036 234.102 184.175C235.798 187.466 236.761 188.793 239.335 191.38C242.441 194.502 244.482 195.978 254.126 202.086C259.433 205.447 262.892 207.816 267.366 211.154L271.277 214.071L271.115 212.211C270.685 207.253 270.105 204.575 268.559 200.38C266.742 195.449 264.871 191.654 261.693 186.45C259.621 183.057 258.571 181.076 257.187 177.935C256.712 176.859 255.68 174.619 254.894 172.954C252.995 168.941 252.205 167.058 251.021 163.719C249.153 158.453 247.923 156.13 245.165 152.67C243.829 150.993 243.504 150.674 241.802 149.382C238.029 146.516 236.944 146.344 236.844 148.593ZM249.306 152.856C249.061 154.051 249.16 154.457 250.074 155.977C251.079 157.651 251.488 158.593 252.997 162.71C254.313 166.303 255.014 167.907 258.821 176.03C261.163 181.026 261.845 182.303 264.239 186.149C266.958 190.522 268.902 194.589 270.842 199.962C272.426 204.352 272.919 206.743 273.448 212.638L273.509 213.316L273.995 212.519C274.262 212.08 275 210.877 275.637 209.846C277.618 206.639 279 203.786 279.878 201.1C280.319 199.747 280.925 197.972 281.225 197.152C282.309 194.205 283.976 185.875 284.226 182.174C284.425 179.196 284.556 178.476 285.75 173.74C287.494 166.827 287.902 163.137 287.347 159.334C287.067 157.413 286.868 156.691 286.319 155.615L285.64 154.279L283.936 153.015C279.803 149.947 275.101 149.041 266.311 149.621C263.493 149.807 261.521 149.732 257.959 149.306C255.505 149.012 252.66 149.241 251.51 149.824C250.507 150.333 249.555 151.644 249.306 152.856ZM197.922 230.743C197.466 231.735 196.707 233.491 196.233 234.647C194.5 238.884 193.655 244.961 194.542 246.813C194.808 247.368 194.826 247.377 196.168 247.64C198.805 248.16 202.409 249.075 206.581 250.287C210.198 251.337 218.514 253.514 224.46 254.969C226.77 255.533 231.379 256.275 231.457 256.093C231.493 256.015 231.263 255.689 230.946 255.372C230.037 254.459 229.25 253.145 228.297 250.954C227.244 248.531 226.207 246.77 224.031 243.715C221.951 240.796 220.358 238.997 217.362 236.186C215.057 234.021 214.731 233.767 210.43 230.777C206.869 228.302 205.573 227.475 204.288 226.865C203.393 226.439 202.507 226.068 202.32 226.039C201.945 225.982 200.767 226.51 200.133 227.018C199.583 227.46 198.918 228.579 197.922 230.743ZM180.748 257.547C179.791 259.385 176.89 266.194 175.841 269.061C175.201 270.813 175.097 272.072 175.486 273.349C175.947 274.857 176.612 275.811 177.868 276.765C180.819 279.005 184.931 279.811 189.953 279.133C192.289 278.818 193.801 278.437 197.684 277.186C203.853 275.198 207.682 273.372 212.264 270.233C214.945 268.395 218.618 266.229 223.104 263.84C224.26 263.225 225.94 262.233 226.837 261.636C227.736 261.04 229.388 260.117 230.509 259.589L232.547 258.626L231.771 258.546C229.141 258.278 225.815 257.691 223.109 257.021C215.105 255.032 209.342 253.531 205.271 252.37C196.038 249.74 190.603 248.802 188.528 249.478C187.123 249.938 185.232 251.237 183.848 252.694C183.137 253.443 181.773 255.58 180.748 257.547ZM236.085 196.694C235.922 197.262 236.069 199.187 236.319 199.761C236.63 200.478 242.659 205.052 246.368 207.387C249.032 209.063 254.145 211.873 255.643 212.484C255.998 212.627 257.324 212.951 258.589 213.2C259.852 213.45 261.48 213.813 262.207 214.006C262.932 214.2 264.314 214.448 265.278 214.556C266.24 214.664 267.538 214.87 268.161 215.011C268.782 215.153 269.286 215.23 269.279 215.182C269.245 214.946 258.048 207.216 253.942 204.593C246.71 199.975 243.208 197.601 241.099 195.888L239.172 194.322L238.496 194.599C237.214 195.123 236.309 195.911 236.085 196.694ZM192.48 282.245C192.647 282.727 193.055 283.571 193.385 284.123C196.439 289.218 195.949 288.609 198.576 290.565C201.101 292.445 201.971 292.88 204.162 293.362C206.495 293.873 207.382 293.613 209.61 291.758C213.134 288.823 215.966 283.76 218.722 275.467C219.79 272.259 220.658 270.43 222.196 268.166L223.526 266.208L222.259 266.948C221.562 267.355 219.944 268.28 218.662 268.998C217.379 269.718 215.067 271.17 213.524 272.223C210.49 274.293 206.888 276.236 203.768 277.485C201.452 278.411 196.364 280.054 194.01 280.631C193.077 280.861 192.281 281.121 192.245 281.21C192.207 281.3 192.313 281.765 192.48 282.245ZM289.118 167.313C288.964 168.533 288.327 171.657 287.701 174.258C286.838 177.838 286.524 179.547 286.402 181.298C286.121 185.346 285.969 186.459 285.071 190.96C284.251 195.065 283.063 199.223 281.372 203.89C280.857 205.311 278.797 209.308 278.085 210.27C277.772 210.692 277.259 211.511 276.947 212.09C276.199 213.475 275.281 214.707 274.745 215.043L274.314 215.313L275.298 215.456C276.316 215.603 279.347 215.293 280.025 214.971C280.239 214.872 281.37 214.152 282.541 213.372C284.616 211.99 284.689 211.924 285.455 210.751C285.888 210.087 286.857 208.344 287.607 206.876C289.146 203.871 289.838 201.729 290.436 198.132C290.676 196.699 290.973 195.637 291.416 194.648C292.058 193.215 292.734 191.289 293.7 188.132C294.083 186.879 294.657 185.602 295.825 183.394C297.811 179.645 299.45 176.198 299.925 174.773C300.402 173.336 300.261 172.119 299.407 170.341C298.478 168.407 297.774 167.891 294.25 166.57C292.838 166.04 291.179 165.3 290.567 164.925C289.47 164.255 289.45 164.251 289.423 164.671C289.408 164.905 289.271 166.095 289.118 167.313ZM306.482 188.446C306.574 189.281 307.148 192.729 307.756 196.109C308.364 199.49 308.898 202.716 308.942 203.278C309.081 205.03 310.007 213.227 310.507 217.139C311.131 222.003 311.188 223.947 310.881 229.981C310.448 238.489 310.469 240.356 311.093 249.935C311.51 256.316 312.592 264.687 313.443 268.151C314.132 270.954 316.891 279.867 317.773 282.152C318.622 284.343 320.732 288.741 321.933 290.819C323.272 293.139 328.279 299.588 330.857 302.318C333.171 304.767 334.555 306.124 334.635 306.016C334.659 305.984 334.434 305.616 334.138 305.199C333.096 303.738 325.909 289.09 325.081 286.744C324.233 284.338 323.806 282.326 323.22 277.939C322.792 274.75 322.667 272.768 322.643 268.786C322.605 262.443 322.588 262.239 321.38 254.03C320.37 247.169 319.793 242.111 319.301 235.793C319.132 233.626 318.709 230.643 318.189 227.972C317.729 225.597 317.26 222.569 317.148 221.244C316.891 218.174 316.072 213.135 315.473 210.948C315.22 210.017 314.586 208.118 314.065 206.73C313.545 205.342 312.79 203.155 312.389 201.87C311.986 200.587 311.165 198.23 310.562 196.633C309.96 195.035 309.18 192.862 308.83 191.803C308.138 189.707 307.373 187.581 306.768 186.063L306.383 185.096L306.347 186.014C306.33 186.517 306.39 187.612 306.482 188.446ZM308.579 185.541C308.691 185.699 309.574 188.047 310.539 190.763C311.506 193.477 312.6 196.495 312.973 197.468C313.343 198.44 313.957 200.217 314.337 201.415C314.715 202.612 315.462 204.748 315.995 206.16C316.528 207.571 317.16 209.398 317.397 210.221C318.038 212.428 318.79 216.782 319.207 220.701C319.409 222.602 319.924 225.881 320.351 227.987C320.884 230.604 321.263 233.348 321.552 236.663C322.162 243.64 322.466 246.163 323.68 254.278C324.793 261.711 324.903 263.1 324.89 269.623C324.884 272.784 325.005 274.259 325.622 278.515C326.428 284.085 326.985 286.059 328.711 289.486C329.703 291.456 332.727 297.778 333.662 299.834C334.468 301.613 334.42 301.358 333.107 296.904C330.462 287.933 329.834 284.268 328.184 268.185C327.746 263.896 326.911 256.681 325.785 247.43C325.544 245.445 324.782 239.034 324.092 233.185C321.986 215.314 321.949 215.099 319.877 208.426C319.3 206.567 318.457 203.751 318.006 202.17C316.955 198.486 315.881 195.571 314.798 193.462C313.356 190.653 311.047 187.467 309.007 185.467C308.526 184.998 308.226 185.05 308.579 185.541ZM210.978 316.262C211.143 316.474 211.349 316.542 211.629 316.475C212.611 316.24 219.689 316.612 221.663 317C227.959 318.24 230.404 318.792 232.408 319.422C233.676 319.821 236.124 320.507 237.846 320.948C239.568 321.387 242.395 322.177 244.13 322.704C245.864 323.23 248.721 324.086 250.481 324.606C252.238 325.126 254.909 325.935 256.415 326.407C257.921 326.876 261.717 327.959 264.851 328.814C267.983 329.668 271.848 330.723 273.438 331.159C275.028 331.594 277.944 332.33 279.919 332.794C281.893 333.259 284.662 333.936 286.074 334.299C289.772 335.253 291.939 335.628 295.616 335.952C297.405 336.11 300.599 336.399 302.716 336.597C305.984 336.899 311.166 337.148 311.271 337.007C311.29 336.983 310.501 336.799 309.521 336.596C304.998 335.663 299.177 334.267 292.116 332.426C280.276 329.339 277.159 328.398 266.496 324.682C252.748 319.891 241.592 316.53 234.428 315.024C229.897 314.07 223.806 313.403 219.945 313.436C215.153 313.478 210.054 315.083 210.978 316.262ZM217.041 319.577C217.908 319.932 221.221 321.066 224.399 322.093C233.28 324.964 239.29 327.321 244.555 329.996C245.774 330.615 248.968 332.379 251.65 333.915C261.986 339.834 266.902 342.12 273.778 344.203C278.316 345.58 287.43 347.127 292.731 347.42C294.87 347.539 300.292 347.084 305.687 346.333C309.672 345.777 312.731 344.866 315.853 343.3C316.828 342.811 318.23 342.151 318.969 341.832C319.706 341.514 321.269 340.69 322.444 340.001C325.619 338.138 325.46 338.284 324.244 338.358C323.665 338.392 322.28 338.561 321.165 338.734C319.123 339.047 313.339 339.412 310.205 339.424C307.761 339.432 306.074 339.327 300.529 338.817C291.557 337.993 290.344 337.809 285.163 336.507C283.698 336.138 280.686 335.403 278.469 334.875C276.252 334.347 272.912 333.479 271.046 332.949C269.179 332.417 265.646 331.439 263.195 330.774C260.743 330.108 257.035 329.031 254.955 328.384C247.442 326.038 241.991 324.42 238.535 323.508C236.596 322.996 233.647 322.156 231.982 321.645C228.143 320.465 220.584 318.961 217.53 318.77C216.276 318.692 215.296 318.696 215.354 318.779C215.412 318.862 216.172 319.221 217.041 319.577ZM219.341 374.268C219.776 374.343 221.512 374.531 223.196 374.686C233.035 375.59 235.67 375.692 240.209 375.356C241.499 375.259 243.801 375.093 245.325 374.988C246.846 374.883 249.215 374.698 250.589 374.58C251.96 374.461 254.73 374.366 256.744 374.367C258.757 374.37 261.707 374.235 263.297 374.07C264.887 373.904 267.115 373.735 268.249 373.694C271.703 373.57 275.826 373.118 285.811 371.771C294.941 370.54 301.523 369.39 305.253 368.374C306.899 367.927 308.837 367.047 308.797 366.768C308.755 366.469 306.186 365.969 302.967 365.635C299.338 365.256 295.714 365.139 288.939 365.178C280.965 365.223 277.418 365.634 271.364 367.219C265.789 368.677 264.827 368.88 258.877 369.866C249.849 371.36 239.355 372.464 229.329 372.973C224.234 373.231 218.815 373.772 218.614 374.04C218.577 374.09 218.903 374.193 219.341 374.268ZM225.134 377.026C227.987 377.78 233.683 378.677 238.638 379.154C241.819 379.457 248.898 379.808 250.973 379.765C259.514 379.584 262.797 379.34 269.274 378.403C272.92 377.875 277.744 377.075 279.992 376.625C282.239 376.174 284.761 375.671 285.594 375.508C286.426 375.343 288.089 374.958 289.288 374.653C290.486 374.349 292.467 373.866 293.688 373.581C295.783 373.094 298.514 372.217 299.446 371.732L299.862 371.517L299.317 371.636C296.147 372.338 292.44 372.944 289.058 373.316C286.809 373.565 283.726 373.986 282.207 374.251C278.981 374.818 272.597 375.473 268.643 375.644C267.117 375.709 264.757 375.883 263.396 376.03C262.035 376.176 259.751 376.291 258.318 376.285C254.174 376.268 251.058 376.425 241.713 377.125C236.336 377.527 232.437 377.422 225.655 376.69C224.501 376.566 223.563 376.497 223.568 376.539C223.574 376.581 224.278 376.799 225.134 377.026Z" fill="black" fill-opacity="0.2"/>
</g>
<defs>
<clipPath id="clip0_1_3948">
<rect width="265.74" height="395.69" fill="white" transform="matrix(-0.598496 0.801126 0.801126 0.598496 159.045 0.998779)"/>
</clipPath>
</defs>
</svg>
