<svg width="297" height="86" viewBox="0 0 297 86" fill="none" xmlns="http://www.w3.org/2000/svg">
<g clip-path="url(#clip0_267_15)">
<path d="M294.707 -2.67029e-05H2.29328C1.0424 -2.67029e-05 0 1.05286 0 2.35844C0 3.66403 1.0424 4.6748 2.29328 4.6748H294.707C295.999 4.6748 297 3.62191 297 2.35844C297 1.05286 295.999 -2.67029e-05 294.707 -2.67029e-05Z" fill="#C8A898"/>
<path d="M147.353 26.9119C148.395 18.7836 154.066 8.88643 162.864 7.66507C167.2 7.03334 171.203 9.01278 172.788 12.4663C172.954 12.7611 174.247 15.3301 173.33 18.1097C172.829 19.6259 171.412 21.858 169.827 21.7317C169.035 21.6474 168.243 21.0578 167.951 20.2997C167.659 19.5838 167.909 19.0363 168.034 18.1097C168.118 17.5622 168.368 15.5407 167.701 14.193C166.7 12.2136 163.865 11.9609 163.573 11.9187C160.654 11.6661 158.569 13.8139 158.236 14.1509C157.569 14.8247 156.901 15.8355 156.818 16.004C156.359 16.7199 156.068 17.3517 155.734 17.9413C154.191 20.7209 153.232 23.5848 152.857 26.7855C152.148 32.8923 153.649 39.2939 157.36 44.1372C167.951 57.9511 188.84 54.4555 194.678 38.1567C194.803 37.8198 194.928 37.4829 195.012 37.146C189.466 35.8404 183.92 32.6396 183.086 26.6592C182.253 20.6367 187.923 17.1832 193.427 18.4045C200.932 20.0471 202.016 28.1332 200.64 34.8296C205.811 34.8717 211.356 33.1871 214.609 31.0392C224.324 24.5955 228.201 12.7189 237.583 6.06469C246.339 -0.126305 266.812 -0.168423 263.476 15.7934C261.6 24.8061 248.049 26.9961 244.963 21.3947C244.088 19.8365 244.046 17.3095 244.963 15.6249C245.088 15.3722 246.089 13.5613 247.173 13.7718C247.965 13.8982 248.632 15.0774 248.591 15.9618C248.549 16.3409 248.382 16.5093 248.382 17.0568C248.382 17.478 248.466 17.8992 248.632 18.4467C249.133 19.9628 251.635 20.6788 253.427 20.5946C255.429 20.4682 257.389 19.3311 258.431 17.478C259.348 15.7934 259.14 14.1509 258.973 12.8453C258.681 10.7816 257.806 8.67585 256.68 7.49662C253.011 3.62198 245.797 4.2116 240.543 8.21258C234.873 12.5926 231.537 19.289 226.951 24.6798C220.238 32.5554 210.856 38.1567 200.349 37.8619C200.223 37.8619 200.057 37.8619 199.89 37.8198C199.723 38.3252 199.515 38.8727 199.306 39.336C196.012 47.1695 189.091 53.192 180.918 55.2978C163.198 59.9305 144.851 46.0324 147.353 26.9119ZM195.887 34.1979C196.262 32.429 196.429 30.5759 196.096 29.1019C195.303 25.3957 187.59 21.5632 188.715 26.7855C189.633 30.8708 192.385 33.145 195.887 34.1979Z" fill="#C8A898"/>
<path d="M116.499 55.2978C108.326 53.192 101.447 47.1695 98.111 39.336C97.9025 38.8727 97.7357 38.3252 97.5272 37.8198C97.3604 37.8198 97.2353 37.8198 97.0686 37.8619C86.5612 38.1567 77.1796 32.5554 70.4666 24.6798C65.88 19.289 62.5443 12.5926 56.8737 8.21257C51.62 4.16948 44.4066 3.62197 40.7374 7.49661C39.6116 8.67585 38.6943 10.7816 38.4441 12.8453C38.2773 14.1509 38.0271 15.7934 38.9861 17.478C39.9868 19.3311 41.9883 20.4682 43.9897 20.5946C45.8243 20.7209 48.2843 19.9628 48.7847 18.4467C48.9515 17.8992 49.0349 17.478 49.0349 17.0568C49.0349 16.5093 48.8264 16.3409 48.8264 15.9618C48.743 15.0774 49.4101 13.8982 50.244 13.7718C51.3698 13.5613 52.3288 15.3722 52.4539 15.6249C53.3712 17.3095 53.3295 19.8365 52.4539 21.3947C49.3684 26.9961 35.8173 24.8061 33.9409 15.7934C30.6053 -0.126312 51.078 -0.126312 59.8341 6.06468C69.2157 12.7189 73.0934 24.5955 82.8086 31.0392C86.0608 33.1871 91.6064 34.9138 96.7767 34.8296C95.359 28.0911 96.4431 20.0471 103.99 18.4045C109.452 17.1832 115.123 20.6367 114.331 26.6592C113.497 32.6396 107.993 35.8404 102.406 37.146C102.531 37.525 102.656 37.8619 102.739 38.1567C108.618 54.4555 129.466 57.9511 140.057 44.1372C143.81 39.2518 145.311 32.8502 144.56 26.7855C144.185 23.6269 143.184 20.7209 141.683 17.9413C141.35 17.3517 141.099 16.7199 140.599 16.0039C140.474 15.8355 139.849 14.8247 139.181 14.1509C138.848 13.8139 136.805 11.666 133.844 11.9187C133.552 11.9609 130.717 12.2136 129.716 14.193C129.008 15.5407 129.299 17.5622 129.383 18.1097C129.508 19.0363 129.758 19.5838 129.466 20.2997C129.174 21.0157 128.382 21.6474 127.59 21.7317C125.964 21.858 124.588 19.6259 124.088 18.1097C123.17 15.3301 124.504 12.8032 124.63 12.4662C126.256 9.05489 130.217 7.07545 134.553 7.66507C143.351 8.88642 149.022 18.7836 150.064 26.9119C152.608 46.0324 134.303 59.9305 116.499 55.2978ZM108.743 26.7855C109.911 21.5632 102.197 25.3536 101.363 29.1019C101.03 30.5759 101.196 32.429 101.572 34.1979C105.074 33.145 107.826 30.8707 108.743 26.7855Z" fill="#C8A898"/>
<path d="M273.566 19.2048C274.15 20.2998 273.733 21.5212 273.692 21.6896C272.816 24.6377 268.271 25.8591 265.394 24.3429C260.015 21.5212 262.434 14.2352 266.603 11.7083C279.279 4.04323 290.829 20.4683 282.823 31.7132C272.941 45.6113 252.468 40.3468 240.418 32.9766C232.162 27.9649 225.116 21.2685 217.527 15.3302C212.399 11.3292 204.101 3.95899 197.054 5.89631C194.678 6.52804 192.093 8.2969 191.676 10.9502C191.426 12.4663 191.842 14.4879 193.177 15.246C194.845 16.2146 197.597 15.0775 198.806 13.3929C199.598 12.2979 199.64 11.1186 200.64 10.8238C201.182 10.6554 201.849 10.8238 202.225 11.2029C202.808 11.7925 202.642 12.7611 202.558 13.3508C202.266 15.2039 200.849 18.0677 197.888 19.1627C196.721 19.626 195.303 19.6681 193.677 19.2469C189.799 18.1941 186.422 13.8983 187.506 9.77094C190.258 -1.09488 205.769 4.12746 211.773 7.70728C225.825 16.0883 236.415 29.9022 251.968 35.8405C261.641 39.5467 276.11 38.9991 280.738 27.7543C283.115 21.9002 281.572 14.9512 275.443 12.8454C271.357 11.4556 267.521 12.5085 266.27 17.0569C266.103 17.436 265.894 18.0677 265.853 18.8258C265.811 19.5418 265.769 20.5525 266.353 21.3527C267.229 22.4898 269.272 22.7425 270.356 21.8581C270.856 21.4791 271.315 20.721 271.357 19.9208C271.398 19.1627 271.065 18.6152 271.398 18.2362C271.607 18.0256 271.94 18.0256 272.065 18.0256C272.941 18.0256 273.483 19.0785 273.566 19.2048Z" fill="#C8A898"/>
<path d="M23.9334 18.8678C23.3497 19.9628 23.7666 21.142 23.8083 21.3105C24.6839 24.2586 29.2288 25.4799 32.1058 23.9638C37.4846 21.142 35.0662 13.856 30.8966 11.3291C18.2211 3.66407 6.67129 20.0891 14.6769 31.334C24.5588 45.2321 45.0315 39.9677 57.0816 32.5975C65.3374 27.5857 72.384 20.8893 79.9727 14.951C85.1013 10.9501 93.3988 3.62195 100.445 5.51715C102.822 6.14888 105.407 7.91774 105.824 10.571C106.074 12.0872 105.657 14.1087 104.323 14.8668C102.655 15.8355 99.9034 14.6984 98.6942 13.0137C97.9019 11.9187 97.8603 10.7395 96.8596 10.4447C96.3175 10.2762 95.6504 10.4447 95.2751 10.8237C94.6914 11.4133 94.8581 12.382 94.9415 12.9716C95.2334 14.8247 96.6511 17.6886 99.6115 18.7836C100.779 19.2468 102.197 19.2889 103.823 18.8678C107.7 17.8149 111.078 13.5191 109.994 9.39179C107.242 -1.47403 91.7309 3.7483 85.7267 7.32812C71.6752 15.7091 61.0845 29.523 45.5319 35.4613C35.8584 39.1675 21.3899 38.62 16.7617 27.3751C14.385 21.5211 15.9278 14.572 22.0571 12.4662C26.1433 11.0764 29.9793 12.1293 31.2302 16.6778C31.397 17.0568 31.6054 17.6886 31.6471 18.4466C31.6888 19.1626 31.7305 20.1734 31.1468 20.9736C30.2712 22.1107 28.2698 22.3634 27.144 21.479C26.6436 21.0999 26.185 20.3418 26.1433 19.5416C26.1016 18.7836 26.4352 18.2361 26.1016 17.857C25.8931 17.6464 25.5595 17.6464 25.4345 17.6464C24.5588 17.6886 23.9751 18.7414 23.9334 18.8678Z" fill="#C8A898"/>
<path d="M122.044 57.1509C126.255 51.7601 132.802 50.7914 133.844 50.7493C143.601 50.2439 149.605 59.383 149.939 59.9305C150.773 58.667 152.19 56.8139 154.358 55.1714C155.859 54.0343 160.196 50.7072 165.575 51.4231C171.37 52.1812 177.291 57.4036 176.958 62.5838C176.749 65.4055 174.748 67.3007 174.331 67.7219C171.787 70.2067 167.117 71.1753 164.949 69.1538C163.948 68.2273 163.49 66.6269 163.782 65.237C164.032 64.142 164.907 62.7101 166.075 62.6259C166.7 62.5838 167.451 62.8786 167.659 63.4261C167.868 63.8472 167.534 64.142 167.534 64.858C167.534 65.5319 167.784 66.3742 168.285 66.7532C169.327 67.5534 172.037 66.5005 172.996 64.6053C173.83 62.9207 173.163 61.0676 172.996 60.6465C171.621 56.8982 166.659 54.4555 162.322 54.666C157.694 54.8766 153.483 58.1195 151.356 62.8365C152.232 64.5632 152.982 66.3742 153.608 68.143C155.651 73.9971 155.818 81.4094 150.022 84.9471C144.018 88.6112 142.058 82.0412 142.642 76.3134C143.017 72.6073 144.56 68.5221 146.895 64.7738C146.144 63.2576 145.31 61.7836 144.351 60.478C140.432 55.1714 134.845 52.1812 128.757 55.0872C127.465 55.7189 125.463 56.6034 124.337 58.6249C122.503 61.8678 123.587 66.7532 125.463 67.3428C126.422 67.6376 127.881 66.8796 128.549 65.8688C129.341 64.6474 128.757 63.5103 129.674 62.7522C130.175 62.3311 130.925 62.2468 131.551 62.4153C132.134 62.5838 132.551 63.047 132.718 63.384C133.636 65.1949 130.592 70.5015 126.172 71.0069C118.5 71.9334 118.583 61.573 122.044 57.1509ZM148.271 81.8727C151.106 85.3262 149.897 72.3967 149.313 70.6278C149.063 69.8698 148.771 69.0696 148.438 68.2694C146.269 73.4496 145.686 78.7561 148.271 81.8727Z" fill="#C8A898"/>
</g>
<defs>
<clipPath id="clip0_267_15">
<rect width="297" height="86" fill="white" transform="matrix(1 0 0 -1 0 86)"/>
</clipPath>
</defs>
</svg>
