<svg width="472" height="194" viewBox="0 0 472 194" fill="none" xmlns="http://www.w3.org/2000/svg">
<g clip-path="url(#clip0_1_3936)">
<path d="M471.954 34.1034C471.136 30.1889 469.608 27.1409 466.768 24.294C464.174 21.6947 461.057 19.575 457.738 18.0123C450.623 14.6549 442.581 13.3707 434.756 13.8348C414.798 15.0107 398.113 27.7289 380.085 34.9234C360.946 42.5667 339.522 43.4022 319.796 37.4144C310.057 34.4593 301.259 29.6784 292.831 24.0619C284.558 18.5539 276.563 12.5042 267.719 7.92446C231.524 -10.8433 187.797 6.79499 157.467 29.2915C128.249 50.9835 105.776 81.0769 90.4178 113.924C82.2527 131.377 76.7733 151.243 63.1906 165.493C50.6111 178.675 31.9811 184.122 14.1538 181.368C9.84746 180.702 5.54111 179.511 1.46629 177.964C0.216063 177.484 -0.601988 179.496 0.555632 180.114C15.9288 188.438 35.0681 187.448 50.5957 179.975C68.0834 171.558 77.6068 154.755 85.0155 137.581C88.7662 128.901 92.2545 120.129 96.4374 111.65C100.466 103.496 104.927 95.5434 109.819 87.8692C119.59 72.5518 131.135 58.3328 144.455 45.986C157.621 33.7785 172.532 23.4585 188.846 15.97C207.399 7.44482 228.977 1.68917 249.351 6.14516C269.324 10.5083 283.972 25.5318 301.49 34.9853C319.132 44.5007 339.723 48.0593 359.541 45.3671C369.62 43.9901 379.143 40.8802 388.374 36.6254C397.851 32.2467 406.926 26.9552 416.666 23.1646C430.989 17.5946 449.882 15.5987 462.291 26.7696C464.931 29.1523 467.493 32.1848 469.422 35.171C470.287 36.5171 472.278 35.6506 471.954 34.1034Z" fill="white"/>
<path d="M462.816 52.2214C453.077 40.3851 434.663 37.4918 420.864 43.0154C412.9 46.2027 406.016 51.3394 398.684 55.6871C391.414 60.0039 383.743 63.6708 375.717 66.3475C360.267 71.5152 343.35 72.9541 327.915 66.9199C313.314 61.2107 301.768 49.916 288.726 41.5455C275.992 33.3608 261.668 28.9512 246.48 29.4154C231.555 29.8795 217 34.5212 203.834 41.4218C190.328 48.508 178.165 58.1008 167.793 69.2717C156.387 81.5411 146.678 95.2804 137.51 109.267C128.218 123.455 119.327 137.922 109.557 151.785C100.389 164.781 90.1399 178.552 76.2794 186.814C72.93 188.81 69.5035 190.62 65.8299 191.935C65.1817 192.167 65.4286 193.127 66.1232 192.987C81.5118 189.754 93.2578 178.49 102.951 166.715C113.462 153.966 122.522 140.15 131.506 126.302C149.024 99.3187 166.805 70.9272 193.94 52.6082C217.864 36.4552 249.66 27.0791 277.026 40.3078C291.072 47.1001 302.339 58.2246 315.644 66.1927C322.358 70.2 329.597 73.279 337.299 74.7334C345.295 76.2496 353.429 76.2032 361.47 75.0273C377.924 72.6292 393.205 65.4655 407.158 56.6464C414.134 52.2368 421.235 47.6261 429.477 46.1253C436.623 44.8256 444.31 46.0634 450.777 49.3281C453.941 50.9217 457.044 53.0104 459.791 55.2384C461.936 57.0023 464.591 54.372 462.816 52.2214Z" fill="white"/>
</g>
<defs>
<clipPath id="clip0_1_3936">
<rect width="472" height="193" fill="white" transform="translate(0 0.00268555)"/>
</clipPath>
</defs>
</svg>
