<svg width="382" height="74" viewBox="0 0 382 74" fill="none" xmlns="http://www.w3.org/2000/svg">
<g clip-path="url(#clip0_314_1155)">
<path d="M215.277 40.6557C219.053 43.6473 222.93 46.3364 226.991 48.2355C231.036 50.1347 235.299 51.2607 239.361 51.0086C243.372 50.8238 247.232 49.3784 249.43 46.5717C250.521 45.1935 251.193 43.5633 251.36 41.9666C251.495 40.37 251.058 38.7733 250.27 37.5128C249.481 36.2523 248.306 35.3112 247.03 34.9414C245.738 34.5549 244.395 34.6893 243.288 35.1263C242.163 35.5633 241.291 36.3196 240.754 37.2103C240.3 38.1347 240.116 39.1095 240.25 39.9666C240.435 41.7145 241.408 42.8742 242.163 43.3784C242.919 43.9162 243.456 43.9666 243.422 44.017C243.439 43.9834 242.919 43.9498 242.113 43.4456C241.307 42.975 240.233 41.849 239.931 40.017C239.747 39.1095 239.881 38.0507 240.351 37.0086C240.888 36.0002 241.828 35.1095 243.053 34.5549C244.261 34.017 245.755 33.7986 247.249 34.1851C248.759 34.5549 250.135 35.5969 251.092 36.9918C252.049 38.3868 252.619 40.1683 252.518 42.0675C252.401 43.933 251.679 45.8154 250.488 47.412C248.088 50.6893 243.774 52.3868 239.461 52.6893C235.064 53.0422 230.465 51.9162 226.203 49.9666C221.923 48.017 217.912 45.2607 214.052 42.2187C210.225 39.1767 206.65 36.0675 202.706 33.9834C198.829 31.8826 194.466 30.8742 190.572 31.6305C186.678 32.2859 183.59 35.1767 182.348 38.3532C182.147 39.1767 181.878 39.9834 181.912 40.8238C181.811 41.6641 181.996 42.4204 182.231 43.1767C182.751 44.6557 183.758 45.9162 184.933 46.7901C186.108 47.6641 187.467 48.1683 188.759 48.2019C190.052 48.2187 191.277 47.7986 192.099 47.0591C193.811 45.496 194.063 43.1431 193.811 41.5296C193.559 39.8322 192.67 38.7565 191.948 38.2355C191.596 37.9498 191.277 37.8154 191.059 37.7145C190.841 37.6137 190.74 37.5296 190.74 37.496C190.74 37.4624 190.874 37.4624 191.109 37.5128C191.361 37.5464 191.713 37.6473 192.15 37.8994C193.006 38.3532 194.147 39.5128 194.55 41.3784C194.751 42.3028 194.818 43.3616 194.6 44.5044C194.382 45.6305 193.862 46.8742 192.838 47.8658C191.814 48.8574 190.32 49.4288 188.743 49.4456C187.165 49.4456 185.52 48.891 184.111 47.8994C182.701 46.9078 181.476 45.4792 180.804 43.6809C180.502 42.7901 180.25 41.7817 180.351 40.7901C180.301 39.7817 180.569 38.807 180.821 37.8154C181.509 35.8826 182.734 34.1347 184.346 32.7229C184.765 32.4036 185.151 32.017 185.621 31.7313C186.091 31.4624 186.561 31.1767 187.031 30.891C187.551 30.6893 188.055 30.4708 188.575 30.2691C189.095 30.0675 189.649 29.9834 190.203 29.8322C194.634 28.9246 199.417 30.0338 203.579 32.2523C207.825 34.4708 211.484 37.6641 215.277 40.6557Z" fill="white"/>
<path d="M286.638 40.5881C290.415 43.5797 294.275 46.2688 298.32 48.2015C302.347 50.1343 306.61 51.2436 310.672 51.0419C312.669 50.9242 314.666 50.6553 316.395 49.8654L317.049 49.6133L317.654 49.2604C318.056 49.0251 318.459 48.8066 318.845 48.5545C319.567 48.0167 320.238 47.4116 320.792 46.7226C321.933 45.378 322.605 43.7478 322.806 42.1511C323.007 40.5545 322.571 38.9578 321.833 37.6805C321.077 36.4032 319.936 35.4284 318.661 35.0083C317.402 34.5881 316.042 34.6721 314.918 35.0587C313.794 35.462 312.82 36.1511 312.317 37.0587C311.813 37.9326 311.545 38.9074 311.645 39.7646C311.746 41.5125 312.703 42.7057 313.458 43.1931C314.213 43.7142 314.75 43.7814 314.733 43.8318C314.75 43.7982 314.23 43.7646 313.424 43.2772C312.619 42.8234 311.545 41.6637 311.343 39.7982C311.175 38.8906 311.41 37.8318 311.931 36.8234C312.451 35.7982 313.491 34.9915 314.7 34.4705C315.925 33.9831 317.419 33.815 318.896 34.2352C320.372 34.6553 321.732 35.7142 322.655 37.1427C323.561 38.5713 324.132 40.3528 323.964 42.2352C323.796 44.0839 323.075 45.9831 321.833 47.5293C321.228 48.3192 320.49 49.0251 319.684 49.6637C319.265 49.9494 318.812 50.2184 318.375 50.4873L317.704 50.8906L316.982 51.1931C315.069 52.1175 312.921 52.4705 310.756 52.6385C306.375 52.9578 301.777 51.8318 297.531 49.8486C293.268 47.8822 289.257 45.1259 285.413 42.0671C281.587 39.0251 278.012 35.9326 274.068 33.8654C270.174 31.7982 265.827 30.8066 261.951 31.5965C258.074 32.2856 255.002 35.1931 253.811 38.3864C253.71 38.8066 253.609 39.2099 253.509 39.6133C253.391 40.0167 253.442 40.4368 253.408 40.8402C253.29 41.6805 253.525 42.4368 253.744 43.1763C254.281 44.6553 255.304 45.8822 256.479 46.7562C257.671 47.6133 259.03 48.1175 260.323 48.1175C261.615 48.1175 262.84 47.6973 263.629 46.941C265.24 45.3276 265.324 42.9242 264.921 41.3444C264.552 39.6805 263.595 38.6385 262.874 38.1343C262.521 37.8654 262.202 37.7141 261.984 37.6133C261.766 37.5125 261.665 37.4284 261.665 37.3948C261.665 37.3612 261.8 37.3612 262.034 37.4116C262.286 37.4452 262.639 37.5461 263.075 37.7814C263.931 38.2184 265.106 39.294 265.643 41.1259C265.911 42.0167 266.079 43.0755 265.945 44.2352C265.794 45.378 265.391 46.6721 264.401 47.6973C263.394 48.7394 261.9 49.3108 260.323 49.3612C258.728 49.3948 257.1 48.8402 255.674 47.8822C254.264 46.8906 253.022 45.4957 252.334 43.6973C252.015 42.8066 251.746 41.7982 251.83 40.8234C251.864 40.336 251.797 39.815 251.931 39.3276C252.049 38.8402 252.149 38.336 252.267 37.8486C253.609 34.0335 257.1 30.6889 261.581 29.815C266.012 28.8738 270.778 29.9662 274.957 32.1511C279.187 34.3864 282.862 37.5797 286.638 40.5881Z" fill="white"/>
<path d="M232.144 24.689C233.184 22.9075 234.091 21.0251 234.326 19.1932C234.577 17.3949 234.091 15.6806 232.748 14.773C231.489 13.7815 229.744 13.5966 228.368 13.9831C226.975 14.4705 225.884 15.5125 225.212 16.6554C223.887 18.9579 224.138 21.6302 225.397 22.5209C226.001 22.9915 226.656 23.042 227.042 22.9915C227.461 22.9411 227.629 22.773 227.646 22.7899C227.629 22.773 227.478 22.9579 227.059 23.0756C226.656 23.1932 225.951 23.2268 225.229 22.773C223.668 21.8823 223.064 18.9411 224.34 16.2016C224.977 14.8403 226.152 13.4621 227.898 12.7226C229.66 12.0672 231.892 12.168 233.688 13.4117C234.158 13.6806 234.527 14.1176 234.93 14.5209C235.249 14.9915 235.601 15.4789 235.786 16.0167C236.205 17.0924 236.289 18.2857 236.172 19.4117C235.92 21.6974 234.947 23.731 233.822 25.6806C231.523 29.6302 228.082 32.5041 224.591 34.2688C221.05 35.9831 217.475 36.5378 214.555 36.4537C211.618 36.3697 209.319 35.7142 207.808 35.126C206.315 34.4873 205.559 33.9999 205.61 33.8991C205.727 33.5294 209 35.21 214.555 35.0756C217.308 34.9915 220.58 34.3361 223.786 32.6722C226.941 30.9579 230.063 28.2857 232.144 24.689Z" fill="white"/>
<path d="M381.144 48.3528C382.504 53.1931 382.168 58.2015 380.624 62.6385C380.406 63.1931 380.255 63.7646 379.986 64.2688L379.147 65.7982C378.878 66.3024 378.593 66.8234 378.241 67.2772C377.922 67.7477 377.553 68.2015 377.167 68.6217C375.656 70.3192 373.843 71.6973 371.863 72.6217C367.919 74.5377 363.354 74.3864 359.897 72.6721C358.151 71.815 356.674 70.5545 355.667 69.0419C354.728 67.4956 354.19 65.7477 354.308 64.0671C354.576 60.6385 357.43 58.2351 360.048 58.1175C362.666 57.899 364.881 59.4116 365.452 61.1595C366.073 62.9074 365.418 64.3696 364.881 65.0755C364.613 65.462 364.327 65.6805 364.126 65.815C363.941 65.9494 363.841 66.0335 363.841 66.0335C363.841 66.0335 363.925 65.9494 364.109 65.7982C364.294 65.6637 364.562 65.4284 364.797 65.025C365.284 64.3024 365.821 62.8738 365.15 61.2772C364.562 59.6973 362.465 58.4368 360.098 58.7393C358.923 58.8738 357.765 59.4452 356.859 60.4032C355.953 61.3444 355.332 62.7057 355.281 64.1343C355.248 65.5965 355.751 67.0755 356.624 68.4032C357.564 69.6973 358.89 70.7729 360.467 71.4788C363.623 72.9074 367.667 72.941 371.141 71.1427C372.887 70.2688 374.498 69.0082 375.824 67.462C376.16 67.0755 376.478 66.6721 376.764 66.2519C377.083 65.8486 377.318 65.378 377.553 64.9074L378.291 63.5124C378.526 63.0419 378.66 62.5209 378.845 62.0167C380.221 57.983 380.49 53.2603 379.264 48.9074C378.643 46.7393 377.586 44.7393 376.143 43.1259C374.615 41.6133 372.904 40.2519 370.906 39.4788C369.967 38.9914 368.892 38.7898 367.902 38.4368C366.862 38.2688 365.855 37.9662 364.797 37.9158C363.757 37.815 362.733 37.7141 361.709 37.7645C360.686 37.7309 359.679 37.8486 358.688 37.9494C356.708 38.2015 354.795 38.7561 352.932 39.1427C351.119 39.7814 349.34 40.336 347.645 40.9914C344.272 42.3696 341.167 43.7645 338.297 45.0251C332.574 47.5797 327.623 49.0419 324.115 49.5124C322.37 49.7141 320.994 49.815 320.07 49.7477C319.147 49.7141 318.661 49.6637 318.661 49.5965C318.661 49.3948 320.607 49.4284 323.981 48.7561C327.371 48.0671 332.121 46.4368 337.726 43.7477C340.546 42.4032 343.634 40.941 347.024 39.4788C348.736 38.773 350.582 38.1679 352.428 37.4788C353.402 37.2435 354.392 37.0082 355.382 36.773C356.389 36.5713 357.379 36.2183 358.453 36.1511C359.511 36.0166 360.585 35.899 361.676 35.9158C362.767 35.8486 363.874 35.9494 364.982 36.0503C366.106 36.1007 367.214 36.42 368.339 36.6049C369.43 36.9746 370.588 37.1931 371.645 37.7309C373.86 38.5713 375.824 40.0839 377.569 41.8318C379.264 43.6637 380.439 45.9326 381.144 48.3528Z" fill="white"/>
<path d="M255.12 32.3193C255.304 28.353 257.553 24.6891 260.574 22.1345C263.595 19.5798 267.355 18.0336 271.148 16.9244C273.397 16.2689 275.696 15.7479 277.844 14.8404C280.009 13.9328 282.057 12.5883 283.332 10.6387C282.812 13.1597 282.006 15.5967 280.714 17.8319C279.405 20.0672 277.576 22.0168 275.293 23.2101C273.044 24.3866 270.493 24.7731 267.993 25.0756C265.475 25.3782 263.025 25.479 260.658 26.4034C258.309 27.3109 255.942 29.9328 255.12 32.3193Z" fill="white"/>
<path d="M274.538 30.9915C277.257 28.1008 281.352 26.7898 285.313 26.8403C289.273 26.8907 293.117 28.1512 296.725 29.7982C298.857 30.773 300.938 31.8823 303.153 32.605C305.385 33.3277 307.802 33.647 310.051 33.0083C308.003 34.5714 305.822 35.8991 303.371 36.7394C300.938 37.5798 298.269 37.8655 295.768 37.2772C293.301 36.7058 291.12 35.3277 289.022 33.9159C286.924 32.5041 284.994 30.9747 282.611 30.1344C280.227 29.2772 276.72 29.7142 274.538 30.9915Z" fill="white"/>
<path d="M364.143 17.7311C366.006 15.6135 368.204 13.5967 370.99 12.7395C372.35 12.3194 373.76 12.1681 375.153 12.3026C376.546 12.4706 377.871 13.0084 378.946 13.832C381.111 15.5799 381.866 18.3194 381.497 20.6219C381.329 21.7984 380.775 22.8404 380.12 23.6975C379.399 24.5042 378.576 25.1597 377.687 25.5294C375.925 26.3362 374.062 26.353 372.635 25.832C371.192 25.3614 370.202 24.3362 369.799 23.3614C369.413 22.353 369.631 21.4958 369.866 21.0084C370.134 20.521 370.369 20.3698 370.353 20.353C370.369 20.3698 370.134 20.5547 369.933 21.0421C369.765 21.5126 369.648 22.353 370.067 23.2269C370.856 25.0084 374.213 26.3194 377.234 24.6387C377.989 24.2689 378.643 23.6471 379.197 22.958C379.684 22.2185 380.087 21.3782 380.154 20.4202C380.372 18.5379 379.6 16.353 377.922 15.1429C377.083 14.5547 376.059 14.1681 374.951 14.0673C373.843 14 372.685 14.1513 371.561 14.521C369.312 15.2437 367.365 17.0252 365.62 19.0084C362.196 23.1597 359.293 27.6471 356.188 31.3446C355.449 32.3026 354.677 33.1933 353.888 34.0336C353.1 34.874 352.395 35.7311 351.606 36.4706C350.079 38 348.501 39.2773 347.024 40.3698C344.053 42.5547 341.267 43.7815 339.304 44.3698C337.34 44.9748 336.199 45.0589 336.182 44.958C336.048 44.5715 340.63 43.7816 346.185 39.2605C347.561 38.1345 349.021 36.8404 350.448 35.311C351.186 34.5715 351.858 33.6975 352.596 32.874C353.335 32.0336 354.073 31.1597 354.778 30.2017C357.765 26.521 360.534 22.1009 364.143 17.7311Z" fill="white"/>
<path d="M362.112 64.5714C362.062 64.1344 362.095 63.6806 362.079 63.2268C362.062 63.0084 362.045 62.7731 361.961 62.5714C361.827 62.2521 361.525 62.0168 361.206 61.8655C360.165 61.3781 358.839 61.7479 358.017 62.5546C357.195 63.3613 356.507 64.3865 356.372 65.5294C356.238 66.6722 356.305 67.8991 357.144 69.0924C356.993 69.1764 356.322 69.0924 356.221 68.9579C355.231 67.7479 354.929 66.1176 354.862 64.5546C354.828 63.8487 354.828 63.1092 354.996 62.4201C355.533 60.084 357.832 58.3697 360.232 58.2689C362.162 58.1848 364.176 59.126 365.116 60.8067C365.871 62.1344 365.821 63.8991 364.982 65.1764C364.092 66.521 362.313 66.3193 362.112 64.5714Z" fill="white"/>
<path d="M373.659 21.9998C373.659 23.1427 372.736 24.0671 371.594 24.0671C370.453 24.0671 369.53 23.1427 369.53 21.9998C369.53 20.857 370.453 19.9326 371.594 19.9326C372.753 19.9326 373.659 20.857 373.659 21.9998Z" fill="white"/>
<path d="M259.635 37.664C258.628 38.0338 258.225 39.3615 258.309 40.4203C258.426 41.664 259.299 42.8573 258.98 44.0674C258.628 45.3615 256.966 45.9329 255.691 45.5296C254.415 45.1262 253.458 44.0506 252.67 42.9582C253.878 46.2355 257.335 48.2355 260.776 48.7397C261.514 48.8405 263.998 47.5128 264.367 47.0422C265.475 45.6808 265.777 44.0002 265.693 42.2523C265.576 39.7313 263.025 36.3867 259.635 37.664Z" fill="white"/>
<path d="M245.218 43.1764C245.721 42.2521 245.637 41.3109 245.436 40.4369C245.218 39.5126 244.395 38.7563 244.345 37.7983C244.295 36.7395 245.268 35.8487 246.309 35.6638C247.349 35.4621 248.407 35.7983 249.38 36.2184C248.893 35.5798 248.222 35.0924 247.484 34.8235C246.745 34.5546 245.956 34.5042 245.184 34.521C243.607 34.5546 241.844 34.9579 240.989 36.2857C240.703 36.7395 240.418 37.2941 240.317 37.8151C240.065 39.0252 240.032 40.2857 240.502 41.4285C240.871 42.3193 241.576 43.126 242.398 43.6134C242.751 43.8319 243.288 44.0672 243.707 44C244.194 43.9159 244.916 43.7479 245.218 43.1764Z" fill="white"/>
<path d="M228.888 20.7565C228.888 22.0674 227.831 23.1262 226.521 23.1262C225.212 23.1262 224.155 22.0674 224.155 20.7565C224.155 19.4455 225.212 18.3867 226.521 18.3867C227.831 18.4035 228.888 19.4624 228.888 20.7565Z" fill="white"/>
<path d="M167.932 42.2017C164.088 45.2437 160.06 48 155.781 49.9496C151.518 51.8992 146.919 53.0252 142.522 52.6723C138.192 52.3866 133.896 50.6891 131.496 47.395C130.304 45.7983 129.582 43.916 129.465 42.0504C129.381 40.1681 129.952 38.3866 130.908 36.9748C131.865 35.5631 133.258 34.5378 134.751 34.1681C136.245 33.7983 137.739 34 138.947 34.5378C140.172 35.0757 141.112 35.9832 141.649 36.9916C142.119 38.0504 142.237 39.1093 142.052 40C141.767 41.832 140.676 42.9748 139.87 43.4286C139.065 43.916 138.528 43.9496 138.561 44C138.544 43.9664 139.065 43.8992 139.837 43.3614C140.592 42.874 141.565 41.6975 141.75 39.9496C141.884 39.0925 141.7 38.1177 141.247 37.1933C140.709 36.3025 139.82 35.5462 138.712 35.1093C137.605 34.6723 136.245 34.5378 134.97 34.9244C133.694 35.2941 132.519 36.2353 131.731 37.5126C130.942 38.7731 130.505 40.353 130.64 41.9664C130.807 43.5799 131.479 45.1933 132.57 46.5715C134.751 49.3782 138.628 50.8236 142.64 51.0084C146.718 51.2437 150.981 50.1345 155.025 48.2353C159.087 46.3194 162.964 43.6471 166.74 40.6555C170.516 37.6639 174.192 34.4706 178.404 32.2689C182.567 30.0504 187.35 28.9412 191.78 29.8488C192.317 30 192.871 30.0841 193.408 30.2857C193.929 30.5042 194.449 30.7059 194.952 30.9076C195.422 31.1933 195.892 31.4622 196.362 31.7479C196.832 32.0168 197.218 32.4034 197.638 32.7395C199.249 34.1513 200.474 35.8992 201.162 37.832C201.414 38.8236 201.682 39.7983 201.632 40.8068C201.733 41.7983 201.481 42.7899 201.179 43.6975C200.491 45.4958 199.266 46.9244 197.873 47.916C196.463 48.9076 194.818 49.4454 193.241 49.4622C191.663 49.4286 190.169 48.8572 189.145 47.8656C188.122 46.874 187.601 45.6471 187.383 44.521C187.165 43.3782 187.232 42.3194 187.434 41.395C187.836 39.5294 188.978 38.3698 189.834 37.916C190.27 37.6639 190.622 37.5631 190.874 37.5294C191.126 37.479 191.243 37.479 191.243 37.5126C191.243 37.5462 191.143 37.6135 190.925 37.7311C190.706 37.832 190.387 37.9832 190.035 38.2521C189.313 38.7731 188.424 39.8488 188.172 41.5462C187.92 43.1597 188.172 45.5126 189.884 47.0757C190.723 47.8152 191.931 48.2353 193.224 48.2185C194.516 48.1681 195.876 47.6807 197.05 46.8068C198.225 45.9328 199.232 44.6891 199.752 43.1933C199.971 42.437 200.172 41.6807 200.071 40.8404C200.105 40.0168 199.853 39.2101 199.635 38.3698C198.393 35.1933 195.322 32.3025 191.411 31.6471C187.518 30.8908 183.171 31.8992 179.277 34C175.333 36.0504 171.775 39.1597 167.932 42.2017Z" fill="white"/>
<path d="M96.57 42.1175C92.7267 45.1596 88.7323 47.9159 84.4526 49.8991C80.2065 51.8822 75.6079 53.0083 71.2275 52.689C69.0625 52.5209 66.8975 52.168 65.001 51.2436L64.2793 50.9243L63.608 50.5209C63.1716 50.2352 62.7185 49.9831 62.2989 49.6974C61.4933 49.0587 60.7549 48.3528 60.1507 47.5629C58.9087 45.9999 58.1871 44.1175 58.0192 42.2688C57.8514 40.3864 58.4052 38.5881 59.3283 37.1764C60.2514 35.7478 61.6108 34.689 63.0877 34.2688C64.5646 33.8486 66.0583 33.9999 67.2835 34.5041C68.4919 35.0083 69.5324 35.8318 70.0527 36.857C70.573 37.8654 70.7912 38.9243 70.6401 39.8318C70.4387 41.6806 69.3646 42.8402 68.559 43.3108C67.7534 43.7982 67.2164 43.8318 67.2499 43.8654C67.2332 43.8318 67.7534 43.7646 68.5255 43.2436C69.2807 42.7562 70.2541 41.5629 70.338 39.815C70.4555 38.9579 70.187 37.9831 69.6667 37.1091C69.1464 36.2016 68.173 35.5125 67.0653 35.1091C65.9409 34.7058 64.5982 34.6217 63.3227 35.0587C62.064 35.4789 60.9059 36.4537 60.1507 37.731C59.3954 39.0083 58.9591 40.6049 59.1773 42.2016C59.3787 43.7982 60.05 45.4285 61.1912 46.773C61.7451 47.4621 62.4164 48.0503 63.1381 48.6049C63.5241 48.857 63.9269 49.0755 64.3297 49.3108L64.9339 49.6638L65.5884 49.9159C67.3171 50.7058 69.2975 50.9747 71.3114 51.0923C75.373 51.3108 79.6359 50.1848 83.6638 48.252C87.7085 46.3192 91.5854 43.6301 95.3448 40.6385C99.121 37.6301 102.797 34.4537 107.009 32.2688C111.188 30.0839 115.971 28.9915 120.385 29.9327C124.866 30.8066 128.357 34.1512 129.7 37.9663C129.817 38.4705 129.935 38.9579 130.035 39.4453C130.17 39.9327 130.103 40.4369 130.136 40.9411C130.237 41.9327 129.952 42.9243 129.633 43.815C128.945 45.6133 127.686 47.0251 126.293 47.9999C124.866 48.9579 123.238 49.5125 121.644 49.4789C120.066 49.4285 118.573 48.857 117.566 47.8318C116.575 46.8066 116.156 45.5125 116.022 44.3696C115.871 43.21 116.038 42.1512 116.324 41.2604C116.861 39.4285 118.036 38.3696 118.892 37.9159C119.328 37.6806 119.68 37.5797 119.932 37.5461C120.167 37.4957 120.301 37.4957 120.301 37.5293C120.301 37.5629 120.201 37.6301 119.982 37.7478C119.764 37.8486 119.445 37.9831 119.093 38.2688C118.371 38.7898 117.431 39.815 117.045 41.4789C116.643 43.0587 116.726 45.4453 118.338 47.0755C119.126 47.8318 120.352 48.2688 121.644 48.252C122.936 48.2352 124.296 47.731 125.487 46.8906C126.662 46.0167 127.686 44.7898 128.223 43.3108C128.458 42.5713 128.676 41.7982 128.559 40.9747C128.508 40.5713 128.575 40.1512 128.458 39.7478C128.357 39.3444 128.256 38.9243 128.156 38.5209C126.964 35.3276 123.893 32.4201 120.016 31.731C116.139 30.9411 111.775 31.9327 107.899 33.9999C103.971 35.9831 100.397 39.0755 96.57 42.1175Z" fill="white"/>
<path d="M148.161 25.6806C147.02 23.731 146.063 21.6974 145.812 19.4117C145.694 18.2857 145.778 17.0924 146.198 16.0167C146.382 15.4621 146.735 14.9915 147.053 14.5209C147.456 14.1176 147.826 13.6806 148.295 13.4117C150.091 12.168 152.323 12.0672 154.086 12.7226C155.831 13.4621 157.006 14.8403 157.644 16.2016C158.919 18.9411 158.332 21.8823 156.754 22.773C156.032 23.2268 155.328 23.1764 154.925 23.0756C154.505 22.9579 154.354 22.773 154.337 22.7899C154.337 22.773 154.522 22.9411 154.942 22.9915C155.328 23.042 155.982 22.9915 156.586 22.5209C157.845 21.6302 158.097 18.9579 156.771 16.6554C156.116 15.5125 155.025 14.4705 153.616 13.9831C152.239 13.5966 150.494 13.7646 149.235 14.773C147.893 15.6806 147.406 17.3949 147.658 19.1932C147.893 21.0083 148.799 22.9075 149.839 24.6722C151.921 28.2688 155.042 30.9579 158.197 32.6554C161.403 34.3193 164.676 34.9747 167.428 35.0588C172.983 35.21 176.256 33.5125 176.374 33.8823C176.424 33.9999 175.669 34.4705 174.175 35.1092C172.664 35.6974 170.365 36.3529 167.428 36.4369C164.508 36.5209 160.933 35.9831 157.392 34.252C153.901 32.5209 150.46 29.6302 148.161 25.6806Z" fill="white"/>
<path d="M2.73568 48.8909C1.49373 53.2438 1.77905 57.9665 3.15526 62.0001C3.33987 62.5043 3.47414 63.0253 3.7091 63.4959L4.44756 64.8909C4.68252 65.3615 4.91748 65.8152 5.23636 66.2354C5.52168 66.6724 5.84056 67.0757 6.17622 67.4455C7.50208 68.9917 9.11326 70.2522 10.8587 71.1262C14.3328 72.9077 18.3775 72.8909 21.5327 71.4455C23.1104 70.7396 24.4362 69.664 25.3761 68.3699C26.2488 67.0421 26.7523 65.5631 26.7187 64.101C26.6516 62.6724 26.0474 61.311 25.1411 60.3699C24.2348 59.4119 23.06 58.8404 21.902 58.706C19.5356 58.4035 17.4377 59.6808 16.8503 61.2438C16.1789 62.8404 16.716 64.269 17.2027 64.9917C17.4545 65.3783 17.7062 65.6136 17.8908 65.7648C18.0754 65.9161 18.1593 66.0001 18.1593 66.0001C18.1593 66.0001 18.0586 65.9329 17.874 65.7816C17.6726 65.6472 17.4041 65.4287 17.1188 65.0421C16.5817 64.3362 15.9272 62.8909 16.5482 61.1262C17.102 59.3783 19.3174 57.8657 21.9523 58.0841C24.5705 58.2018 27.4236 60.6052 27.6921 64.0337C27.7928 65.7312 27.2726 67.4623 26.3327 69.0085C25.3257 70.5211 23.8488 71.7984 22.1034 72.6388C18.6461 74.3531 14.0811 74.5043 10.137 72.5883C8.1734 71.664 6.36083 70.2858 4.85035 68.5883C4.46434 68.1682 4.09511 67.7312 3.77623 67.2438C3.40701 66.79 3.13848 66.2858 2.86995 65.7648L2.03079 64.2354C1.76226 63.7144 1.61122 63.143 1.39304 62.6052C-0.151009 58.1682 -0.486671 53.1598 0.87276 48.3194C1.56087 45.9161 2.75247 43.6304 4.43078 41.7816C6.17622 40.0337 8.13984 38.5211 10.3552 37.6808C11.4125 37.143 12.5706 36.9245 13.6615 36.5547C14.7859 36.3699 15.8936 36.0673 17.0181 36.0001C18.1258 35.8993 19.2335 35.8152 20.3244 35.8657C21.4153 35.8489 22.4894 35.9665 23.5467 36.101C24.6208 36.1682 25.611 36.5211 26.618 36.7228C27.625 36.9581 28.5984 37.1934 29.5719 37.4287C31.4348 38.1178 33.2641 38.7228 34.976 39.4287C38.383 40.8909 41.4711 42.3699 44.2906 43.6976C49.8962 46.3867 54.6458 48.0169 58.036 48.706C61.4262 49.3783 63.373 49.3615 63.3562 49.5463C63.3562 49.6136 62.8695 49.664 61.9464 49.6976C61.0234 49.7648 59.6472 49.664 57.9017 49.4623C54.394 48.9917 49.443 47.5127 43.72 44.9749C40.8669 43.7144 37.7452 42.3194 34.3718 40.9413C32.6767 40.2858 30.8977 39.7312 29.0851 39.0925C27.2222 38.706 25.3089 38.1514 23.3285 37.8993C22.3383 37.7816 21.3314 37.6808 20.3076 37.7144C19.2838 37.664 18.26 37.7648 17.2195 37.8657C16.1789 37.9161 15.172 38.2186 14.1146 38.3867C13.1244 38.7396 12.0671 38.9413 11.1104 39.4287C9.11326 40.2018 7.40138 41.5631 5.87412 43.0757C4.39721 44.7228 3.35666 46.7228 2.73568 48.8909Z" fill="white"/>
<path d="M126.88 32.3193C126.696 28.353 124.447 24.6891 121.426 22.1345C118.405 19.5798 114.645 18.0336 110.852 16.9244C108.603 16.2689 106.304 15.7479 104.156 14.8404C101.991 13.9328 99.9434 12.5883 98.6678 10.6387C99.1881 13.1597 99.9937 15.5967 101.286 17.8319C102.595 20.0672 104.424 22.0168 106.707 23.2101C108.956 24.3866 111.507 24.7731 114.008 25.0756C116.525 25.3782 118.975 25.479 121.342 26.4034C123.691 27.3109 126.058 29.9328 126.88 32.3193Z" fill="white"/>
<path d="M107.445 30.9915C104.727 28.1008 100.631 26.7898 96.6706 26.8403C92.7098 26.8907 88.8665 28.1512 85.2581 29.7982C83.1267 30.773 81.0456 31.8823 78.8302 32.605C76.5981 33.3277 74.1813 33.647 71.9324 33.0083C73.9799 34.5714 76.1617 35.8991 78.612 36.7394C81.0456 37.5798 83.7141 37.8655 86.2148 37.2772C88.6819 36.7058 90.8637 35.3277 92.9616 33.9159C95.0595 32.5041 96.9895 30.9747 99.3727 30.1344C101.773 29.2772 105.264 29.7142 107.445 30.9915Z" fill="white"/>
<path d="M16.3803 19.025C14.6349 17.0418 12.688 15.2603 10.4391 14.5376C9.31465 14.1679 8.15661 14.0166 7.04893 14.0839C5.94125 14.1847 4.91748 14.5713 4.07832 15.1595C2.4168 16.3696 1.64477 18.5713 1.84617 20.4368C1.93009 21.3948 2.3161 22.2351 2.80281 22.9746C3.35665 23.6637 4.01119 24.2855 4.76643 24.6553C7.78739 26.336 11.144 25.025 11.9328 23.2435C12.3692 22.3696 12.2517 21.5292 12.0671 21.0587C11.8657 20.5713 11.6307 20.3864 11.6475 20.3696C11.6307 20.3864 11.8825 20.5376 12.1342 21.025C12.3692 21.4956 12.5873 22.3696 12.2013 23.378C11.7985 24.3528 10.8083 25.378 9.365 25.8486C7.93843 26.3696 6.09229 26.3528 4.31329 25.5461C3.407 25.1763 2.60141 24.5208 1.87974 23.7141C1.2252 22.857 0.671354 21.815 0.503523 20.6385C0.134295 18.336 0.889534 15.5965 3.05455 13.8486C4.12867 13.025 5.45454 12.4872 6.84753 12.3192C8.24053 12.1847 9.65031 12.336 11.0097 12.7561C13.7789 13.5965 15.9775 15.6301 17.8572 17.7477C21.4656 22.1175 24.2348 26.5376 27.2222 30.2351C27.9271 31.1931 28.6656 32.0671 29.404 32.9074C30.1425 33.7477 30.8138 34.6049 31.5522 35.3444C32.9788 36.8738 34.4389 38.1679 35.8152 39.2939C41.3704 43.815 45.9521 44.6049 45.8179 44.9914C45.8011 45.0923 44.6598 45.025 42.6962 44.4032C40.7326 43.815 37.9634 42.5881 34.976 40.4032C33.4991 39.3108 31.9215 38.0334 30.3942 36.504C29.6054 35.7645 28.9005 34.9074 28.1117 34.0671C27.3229 33.2267 26.5509 32.336 25.8124 31.378C22.7076 27.6637 19.8041 23.1595 16.3803 19.025Z" fill="white"/>
<path d="M19.888 64.5714C19.9383 64.1344 19.9048 63.6806 19.9216 63.2268C19.9383 63.0084 19.9551 62.7731 20.039 62.5714C20.1733 62.2521 20.4754 62.0168 20.7943 61.8655C21.8348 61.3781 23.1439 61.7479 23.9831 62.5546C24.8054 63.3613 25.4935 64.3865 25.6278 65.5294C25.7621 66.6722 25.6949 67.8991 24.8558 69.0924C25.0068 69.1764 25.6782 69.0924 25.7789 68.9579C26.7691 67.7479 27.0712 66.1176 27.1383 64.5546C27.1718 63.8487 27.1718 63.1092 27.004 62.4201C26.467 60.084 24.1677 58.3697 21.7677 58.2689C19.8376 58.1848 17.8237 59.126 16.8838 60.8067C16.1286 62.1344 16.1957 63.8991 17.0349 65.1764C17.9076 66.521 19.6698 66.3193 19.888 64.5714Z" fill="white"/>
<path d="M8.32446 21.9998C8.32446 23.1427 9.24753 24.0671 10.3888 24.0671C11.53 24.0671 12.4531 23.1427 12.4531 21.9998C12.4531 20.857 11.53 19.9326 10.3888 19.9326C9.24753 19.9326 8.32446 20.857 8.32446 21.9998Z" fill="white"/>
<path d="M122.366 37.664C123.373 38.0338 123.775 39.3615 123.691 40.4203C123.574 41.664 122.701 42.8573 123.02 44.0674C123.373 45.3615 125.034 45.9329 126.31 45.5296C127.585 45.1262 128.542 44.0506 129.331 42.9582C128.122 46.2355 124.665 48.2355 121.224 48.7397C120.486 48.8405 118.002 47.5128 117.633 47.0422C116.525 45.6808 116.223 44.0002 116.307 42.2523C116.424 39.7313 118.975 36.3867 122.366 37.664Z" fill="white"/>
<path d="M136.765 43.1764C136.262 42.2521 136.346 41.3109 136.547 40.4369C136.782 39.5126 137.588 38.7563 137.638 37.7983C137.689 36.7395 136.715 35.8487 135.675 35.6638C134.634 35.4621 133.577 35.7983 132.603 36.2184C133.09 35.5798 133.761 35.0924 134.5 34.8235C135.238 34.5546 136.027 34.5042 136.799 34.521C138.377 34.5546 140.139 34.9579 140.995 36.2857C141.28 36.7395 141.565 37.2941 141.666 37.8151C141.918 39.0252 141.951 40.2857 141.482 41.4285C141.112 42.3193 140.407 43.126 139.585 43.6134C139.233 43.8319 138.696 44.0672 138.276 44C137.806 43.9159 137.068 43.7479 136.765 43.1764Z" fill="white"/>
<path d="M153.095 20.7565C153.095 22.0674 154.153 23.1262 155.462 23.1262C156.771 23.1262 157.828 22.0674 157.828 20.7565C157.828 19.4455 156.771 18.3867 155.462 18.3867C154.153 18.4035 153.095 19.4624 153.095 20.7565Z" fill="white"/>
<path d="M196.446 7.73089C193.476 10.2687 191.495 13.8485 190.841 17.7141H190.824C189.968 13.8821 187.803 10.4368 184.698 8.05021C188.944 6.13425 190.673 0.0166016 190.673 0.0166016C190.673 0.0166016 192.821 6.35274 196.446 7.73089Z" fill="white"/>
<path d="M197.52 15.2434C199.937 12.1005 203.512 9.52909 206.852 9.22657C208.228 9.10892 209.839 9.57951 210.51 11.2266C211.115 12.7056 210.712 14.6888 209.806 15.8652C208.916 17.0417 207.641 17.5627 206.399 17.7644C205.157 17.9661 203.898 17.9156 202.656 18.1341C198.376 18.9072 194.801 23.0081 192.133 27.6131C191.629 28.4871 191.227 29.4787 190.757 30.3526C192.301 24.7056 194.315 19.3946 197.52 15.2434Z" fill="white"/>
<path d="M183.842 15.2434C181.425 12.1005 177.85 9.52909 174.511 9.22657C173.134 9.10892 171.523 9.57951 170.852 11.2266C170.248 12.7056 170.667 14.6888 171.557 15.8652C172.446 17.0417 173.722 17.5627 174.964 17.7644C176.206 17.9661 177.464 17.9156 178.706 18.1341C182.986 18.9072 186.561 23.0081 189.229 27.6131C189.733 28.4871 190.136 29.4787 190.606 30.3526C189.062 24.7056 187.048 19.3946 183.842 15.2434Z" fill="white"/>
</g>
<defs>
<clipPath id="clip0_314_1155">
<rect width="382" height="74" fill="white"/>
</clipPath>
</defs>
</svg>
