<svg width="381" height="34" viewBox="0 0 381 34" fill="none" xmlns="http://www.w3.org/2000/svg">
<g clip-path="url(#clip0_362_3827)">
<path d="M375.941 18.7993H206.185C205.419 18.7993 204.806 18.1953 204.806 17.4403C204.806 16.6853 205.419 16.0813 206.185 16.0813H375.941C376.708 16.0813 377.321 16.6853 377.321 17.4403C377.321 18.1701 376.708 18.7993 375.941 18.7993Z" fill="white"/>
<path d="M381 17.4153C381 19.9319 378.931 21.9704 376.376 21.9704C373.821 21.9704 371.752 19.9319 371.752 17.4153C371.752 14.8986 373.821 12.8601 376.376 12.8601C378.905 12.8601 381 14.8986 381 17.4153Z" fill="white"/>
<path d="M358.954 0.452952C361.406 -0.654376 364.267 0.427785 365.877 1.96294C366.056 2.13911 367.563 3.62394 367.844 5.83859C368.38 9.99107 364.395 14.5714 360.563 17.0629C364.497 19.3782 368.61 23.6817 368.304 27.809C368.125 30.0488 366.72 31.584 366.541 31.7853C365.034 33.396 362.249 34.6291 359.72 33.6728C358.187 33.094 357.395 31.9363 357.165 31.5588C355.581 29.0673 356.884 26.2738 357.293 25.4182C357.574 24.8142 358.136 23.6062 358.954 23.6062C359.388 23.6062 359.848 23.9585 360.027 24.3863C360.461 25.4685 358.903 26.2487 358.954 27.8342C358.979 28.9918 359.899 30.1746 361.048 30.6276C361.202 30.678 362.172 31.0555 363.297 30.678C365.008 30.0991 366.004 28.1865 365.8 26.7772C365.723 26.2487 365.723 24.8645 363.705 22.7505C360.691 19.6047 356.757 18.447 354.228 17.9689C354.279 17.5159 354.33 17.088 354.381 16.635C357.063 15.8549 360.767 14.3197 363.552 11.0984C365.391 8.95924 365.366 7.67575 365.442 6.97109C365.57 5.56176 364.446 3.69944 362.735 3.22127C361.61 2.89411 360.64 3.32194 360.486 3.39744C359.362 3.92593 358.519 5.13393 358.545 6.29159C358.57 7.87708 360.205 8.58175 359.822 9.68907C359.669 10.1421 359.209 10.5196 358.775 10.5447C357.983 10.5951 357.344 9.41224 357.012 8.83341C356.552 7.97775 355.096 5.28493 356.552 2.69277C356.731 2.31528 357.472 1.13245 358.954 0.452952Z" fill="white"/>
<path d="M174.814 18.7993H5.05822C4.29183 18.7993 3.67871 18.1953 3.67871 17.4403C3.67871 16.6853 4.29183 16.0813 5.05822 16.0813H174.814C175.581 16.0813 176.194 16.6853 176.194 17.4403C176.194 18.1701 175.581 18.7993 174.814 18.7993Z" fill="white"/>
<path d="M0 17.4153C0 19.9319 2.06926 21.9704 4.62391 21.9704C7.17856 21.9704 9.24782 19.9319 9.24782 17.4153C9.24782 14.8986 7.2041 12.8601 4.62391 12.8601C2.06926 12.8601 0 14.8986 0 17.4153Z" fill="white"/>
<path d="M22.0214 0.452952C19.569 -0.654376 16.7078 0.427785 15.0983 1.96294C14.9451 2.13911 13.4378 3.62394 13.1568 5.83859C12.5948 9.99107 16.58 14.5462 20.412 17.0629C16.4778 19.3782 12.3649 23.6817 12.6714 27.809C12.8502 30.0488 14.2553 31.584 14.4341 31.7853C15.9414 33.396 18.7259 34.6291 21.255 33.6728C22.7878 33.094 23.5798 31.9363 23.8097 31.5588C25.3936 29.0673 24.0907 26.2738 23.6819 25.4182C23.4009 24.789 22.8134 23.581 22.0214 23.581C21.5871 23.581 21.1273 23.9333 20.9485 24.3612C20.5142 25.4433 22.0725 26.2235 22.0214 27.809C21.9959 28.9666 21.0762 30.1495 19.9266 30.6025C19.7733 30.6528 18.8026 31.0303 17.6785 30.6528C15.9669 30.074 14.9706 28.1613 15.175 26.752C15.2516 26.2235 15.2516 24.8393 17.2698 22.7253C20.2843 19.5795 24.2184 18.4219 26.7475 17.9437C26.6964 17.4907 26.6453 17.0629 26.5942 16.6099C23.9119 15.8297 20.2076 14.2945 17.4231 11.0732C15.6093 8.98441 15.6348 7.70092 15.5582 6.99625C15.4304 5.58693 16.5545 3.7246 18.2661 3.24644C19.4157 2.91927 20.3865 3.3471 20.5397 3.39744C21.6638 3.92593 22.4813 5.13393 22.4557 6.31676C22.4302 7.90225 20.8207 8.60691 21.2039 9.68907C21.3572 10.1421 21.8171 10.5196 22.2258 10.5447C23.0177 10.5951 23.6564 9.41224 23.9885 8.83341C24.4483 7.97775 25.9045 5.28493 24.4483 2.69277C24.244 2.31528 23.5287 1.13245 22.0214 0.452952Z" fill="white"/>
<path d="M178.245 12.7826C178.994 12.7662 179.676 11.5214 179.643 10.5878C179.543 7.57421 171.442 5.78896 171.508 11.8654C171.591 18.7607 181.705 17.4668 185.348 14.9281C188.293 12.8808 191.719 8.95 191.154 5.13382C190.788 2.66067 188.991 0.44958 186.43 0.0564968C184.018 -0.303829 180.042 1.57969 181.04 4.49506C181.639 6.24755 185.598 7.21388 186.247 6.37858C186.446 6.11653 186.396 5.57604 186.13 5.34674C185.831 5.10106 185.448 5.36312 184.899 5.2976C184.101 5.19933 183.286 4.44592 183.169 3.67614C183.003 2.52964 184.417 1.35039 185.748 1.2685C186.962 1.20299 187.827 2.07105 188.06 2.3331C188.991 3.36495 189.108 5.62517 188.842 6.8208C188.309 9.11378 186.563 11.2594 184.833 12.8317C182.587 14.8954 176.848 18.2038 174.27 14.404C173.438 13.1593 173.238 11.2757 174.386 10.1292C174.469 9.99822 174.785 9.53962 175.384 9.4086C176.066 9.24481 176.831 9.58876 177.114 10.1129C177.497 10.8008 176.848 11.3904 177.28 12.1274C177.48 12.455 177.863 12.7989 178.245 12.7826Z" fill="white"/>
<path d="M204.33 11.8325C204.612 11.4886 203.847 10.8335 204.097 10.1619C204.346 9.52318 205.344 9.39215 205.444 9.39215C206.409 9.2775 207.39 9.8835 207.806 10.7352C208.189 11.505 207.989 12.2748 207.873 12.7334C207.706 13.3885 207.241 14.1255 206.742 14.6169C203.282 18.0727 197.892 14.8134 195.397 11.8981C193.683 9.89988 192.12 7.39398 192.735 4.67516C192.935 3.8071 193.351 2.79163 193.966 2.15287C197.992 -1.95812 200.237 6.49316 196.345 5.37943C195.38 5.101 194.548 5.72338 195.779 6.26387C197.642 7.06641 200.67 6.70608 200.687 4.13467C200.703 1.46498 196.861 -0.222005 194.582 0.0236724C191.787 0.334863 190.207 3.3485 190.356 5.91992C190.556 9.35939 193.767 12.8153 196.478 14.6988C198.973 16.4349 202.101 17.5159 205.178 17.0409C207.873 16.6314 210.717 14.4367 209.969 11.4067C209.42 9.14647 206.858 7.57414 204.546 7.75431C204.147 7.78706 202.633 7.95085 202.134 9.06458C201.718 9.98178 202.134 11.2265 202.966 11.7179C203.431 11.9963 204.113 12.0946 204.33 11.8325Z" fill="white"/>
<path d="M177.182 21.5942C176.799 22.0037 177.597 22.7898 177.348 23.7562C177.198 24.3622 176.649 24.9845 176.034 25.0828C175.036 25.2466 174.104 24.1329 173.771 23.2484C173.439 22.364 173.638 21.5615 173.705 21.2503C174.104 19.7271 175.385 18.8099 175.934 18.5151C178.745 16.9427 183.536 19.1702 186.181 22.0856C186.48 22.4131 189.624 25.8362 188.842 29.3085C188.643 30.1765 188.227 31.192 187.611 31.8307C187.295 32.1583 186.381 33.0428 185.133 32.9445C183.952 32.8462 182.638 31.8471 182.638 30.586C182.638 29.8326 183.12 28.9645 183.819 28.7188C184.484 28.4895 185.05 28.9154 185.516 28.5387C185.748 28.3421 185.915 27.9818 185.798 27.7361C185.466 26.9991 182.405 26.9008 181.307 28.4732C181.057 28.8335 180.908 29.2921 180.891 29.8653C180.874 32.535 184.717 34.222 186.996 33.9763C189.791 33.6651 191.371 30.6515 191.221 28.0801C191.022 24.6406 187.811 21.1847 185.1 19.3012C182.604 17.5651 179.477 16.4841 176.4 16.9591C173.705 17.3686 170.86 19.5633 171.609 22.5933C172.158 24.8535 174.72 26.4259 177.032 26.2457C178.329 26.1474 179.111 25.6233 179.444 24.9354C180.059 23.6579 179.095 21.7416 177.997 21.4796C177.93 21.4468 177.431 21.3322 177.182 21.5942Z" fill="white"/>
<path d="M203.347 21.2011C197.891 25.1811 210.168 29.5869 210.084 22.1183C210.001 15.223 199.887 16.5169 196.244 19.0555C193.3 21.1029 189.873 25.0337 190.439 28.8499C190.805 31.323 192.601 33.5341 195.163 33.9272C197.575 34.2875 201.551 32.404 200.553 29.4886C199.954 27.7525 195.961 26.7862 195.346 27.6051C195.18 27.8344 195.246 28.2602 195.446 28.5223C195.978 29.2757 197.292 28.6533 198.041 29.2921C198.357 29.5705 198.673 30.1765 198.374 31.6833C196.594 32.6333 194.664 32.6169 193.533 31.6506C192.152 30.4713 192.485 28.3094 192.751 27.1629C193.283 24.8699 195.03 22.7243 196.76 21.152C199.006 19.0883 204.745 15.7799 207.323 19.5797C208.155 20.8244 208.354 22.7079 207.207 23.8544C207.123 24.0182 206.857 24.4932 206.308 24.6897C205.393 25.0173 204.295 24.3458 204.162 23.6906C204.013 22.9536 205.127 22.5114 204.928 21.8563C204.778 21.3813 203.863 20.8244 203.347 21.2011Z" fill="white"/>
<path d="M188.344 17.4015C188.344 18.81 189.492 19.9401 190.922 19.9401C192.353 19.9401 193.501 18.81 193.501 17.4015C193.501 15.9929 192.353 14.8628 190.922 14.8628C189.508 14.8628 188.344 15.9929 188.344 17.4015Z" fill="white"/>
</g>
<defs>
<clipPath id="clip0_362_3827">
<rect width="381" height="34" fill="white"/>
</clipPath>
</defs>
</svg>
