<svg width="297" height="86" viewBox="0 0 297 86" fill="none" xmlns="http://www.w3.org/2000/svg">
<g clip-path="url(#clip0_267_7)">
<path d="M294.707 86H2.29328C1.0424 86 0 84.9471 0 83.6416C0 82.336 1.0424 81.3252 2.29328 81.3252H294.707C295.999 81.3252 297 82.3781 297 83.6416C297 84.9471 295.999 86 294.707 86Z" fill="#C8A898"/>
<path d="M147.353 59.0881C148.395 67.2164 154.066 77.1136 162.864 78.3349C167.2 78.9667 171.203 76.9872 172.788 73.5337C172.954 73.2389 174.247 70.6699 173.33 67.8903C172.829 66.3741 171.412 64.142 169.827 64.2683C169.035 64.3526 168.243 64.9422 167.951 65.7003C167.659 66.4162 167.909 66.9637 168.034 67.8903C168.118 68.4378 168.368 70.4593 167.701 71.807C166.7 73.7864 163.865 74.0391 163.573 74.0813C160.654 74.3339 158.569 72.1861 158.236 71.8491C157.569 71.1753 156.901 70.1645 156.818 69.996C156.359 69.2801 156.068 68.6483 155.734 68.0587C154.191 65.2791 153.232 62.4152 152.857 59.2145C152.148 53.1077 153.649 46.7061 157.36 41.8628C167.951 28.0489 188.84 31.5445 194.678 47.8433C194.803 48.1802 194.928 48.5171 195.012 48.854C189.466 50.1596 183.92 53.3604 183.086 59.3408C182.253 65.3633 187.923 68.8168 193.427 67.5955C200.932 65.9529 202.016 57.8668 200.64 51.1704C205.811 51.1283 211.356 52.8129 214.609 54.9608C224.324 61.4045 228.201 73.2811 237.583 79.9353C246.339 86.1263 266.812 86.1684 263.476 70.2066C261.6 61.1939 248.049 59.0039 244.963 64.6053C244.088 66.1635 244.046 68.6905 244.963 70.3751C245.088 70.6278 246.089 72.4387 247.173 72.2282C247.965 72.1018 248.632 70.9226 248.591 70.0382C248.549 69.6591 248.382 69.4907 248.382 68.9432C248.382 68.522 248.466 68.1008 248.632 67.5533C249.133 66.0372 251.635 65.3212 253.427 65.4054C255.429 65.5318 257.389 66.6689 258.431 68.522C259.348 70.2066 259.14 71.8491 258.973 73.1547C258.681 75.2184 257.806 77.3242 256.68 78.5034C253.011 82.378 245.797 81.7884 240.543 77.7874C234.873 73.4074 231.537 66.711 226.951 61.3202C220.238 53.4446 210.856 47.8433 200.349 48.1381C200.223 48.1381 200.057 48.1381 199.89 48.1802C199.723 47.6748 199.515 47.1273 199.306 46.664C196.012 38.8305 189.091 32.808 180.918 30.7022C163.198 26.0695 144.851 39.9676 147.353 59.0881ZM195.887 51.8021C196.262 53.571 196.429 55.4241 196.096 56.8981C195.303 60.6043 187.59 64.4368 188.715 59.2145C189.633 55.1292 192.385 52.855 195.887 51.8021Z" fill="#C8A898"/>
<path d="M116.499 30.7022C108.326 32.808 101.447 38.8305 98.111 46.664C97.9025 47.1273 97.7357 47.6748 97.5272 48.1802C97.3604 48.1802 97.2353 48.1802 97.0686 48.1381C86.5612 47.8433 77.1796 53.4446 70.4666 61.3202C65.88 66.711 62.5443 73.4074 56.8737 77.7874C51.62 81.8305 44.4066 82.378 40.7374 78.5034C39.6116 77.3242 38.6943 75.2184 38.4441 73.1547C38.2773 71.8491 38.0271 70.2066 38.9861 68.522C39.9868 66.6689 41.9883 65.5318 43.9897 65.4054C45.8243 65.2791 48.2843 66.0372 48.7847 67.5533C48.9515 68.1008 49.0349 68.522 49.0349 68.9432C49.0349 69.4907 48.8264 69.6591 48.8264 70.0382C48.743 70.9226 49.4101 72.1018 50.244 72.2282C51.3698 72.4387 52.3288 70.6278 52.4539 70.3751C53.3712 68.6905 53.3295 66.1635 52.4539 64.6053C49.3684 59.0039 35.8173 61.1939 33.9409 70.2066C30.6053 86.1263 51.078 86.1263 59.8341 79.9353C69.2157 73.2811 73.0934 61.4045 82.8086 54.9608C86.0608 52.8129 91.6064 51.0862 96.7767 51.1704C95.359 57.9089 96.4431 65.9529 103.99 67.5955C109.452 68.8168 115.123 65.3633 114.331 59.3408C113.497 53.3604 107.993 50.1596 102.406 48.854C102.531 48.475 102.656 48.1381 102.739 47.8433C108.618 31.5445 129.466 28.0489 140.057 41.8628C143.81 46.7482 145.311 53.1498 144.56 59.2145C144.185 62.3731 143.184 65.2791 141.683 68.0587C141.35 68.6483 141.099 69.2801 140.599 69.9961C140.474 70.1645 139.849 71.1753 139.181 71.8491C138.848 72.1861 136.805 74.334 133.844 74.0813C133.552 74.0391 130.717 73.7864 129.716 71.807C129.008 70.4593 129.299 68.4378 129.383 67.8903C129.508 66.9637 129.758 66.4162 129.466 65.7003C129.174 64.9843 128.382 64.3526 127.59 64.2683C125.964 64.142 124.588 66.3741 124.088 67.8903C123.17 70.6699 124.504 73.1968 124.63 73.5338C126.256 76.9451 130.217 78.9245 134.553 78.3349C143.351 77.1136 149.022 67.2164 150.064 59.0881C152.608 39.9676 134.303 26.0695 116.499 30.7022ZM108.743 59.2145C109.911 64.4368 102.197 60.6464 101.363 56.8981C101.03 55.4241 101.196 53.571 101.572 51.8021C105.074 52.855 107.826 55.1293 108.743 59.2145Z" fill="#C8A898"/>
<path d="M273.566 66.7952C274.15 65.7002 273.733 64.4788 273.692 64.3104C272.816 61.3623 268.271 60.1409 265.394 61.6571C260.015 64.4788 262.434 71.7648 266.603 74.2917C279.279 81.9568 290.829 65.5317 282.823 54.2868C272.941 40.3887 252.468 45.6532 240.418 53.0234C232.162 58.0351 225.116 64.7315 217.527 70.6698C212.399 74.6708 204.101 82.041 197.054 80.1037C194.678 79.472 192.093 77.7031 191.676 75.0498C191.426 73.5337 191.842 71.5121 193.177 70.754C194.845 69.7854 197.597 70.9225 198.806 72.6071C199.598 73.7021 199.64 74.8814 200.64 75.1762C201.182 75.3446 201.849 75.1762 202.225 74.7971C202.808 74.2075 202.642 73.2389 202.558 72.6492C202.266 70.7961 200.849 67.9323 197.888 66.8373C196.721 66.374 195.303 66.3319 193.677 66.7531C189.799 67.8059 186.422 72.1017 187.506 76.2291C190.258 87.0949 205.769 81.8725 211.773 78.2927C225.825 69.9117 236.415 56.0978 251.968 50.1595C261.641 46.4533 276.11 47.0009 280.738 58.2457C283.115 64.0998 281.572 71.0488 275.443 73.1546C271.357 74.5444 267.521 73.4915 266.27 68.9431C266.103 68.564 265.894 67.9323 265.853 67.1742C265.811 66.4582 265.769 65.4475 266.353 64.6473C267.229 63.5102 269.272 63.2575 270.356 64.1419C270.856 64.5209 271.315 65.279 271.357 66.0792C271.398 66.8373 271.065 67.3848 271.398 67.7638C271.607 67.9744 271.94 67.9744 272.065 67.9744C272.941 67.9744 273.483 66.9215 273.566 66.7952Z" fill="#C8A898"/>
<path d="M23.9334 67.1322C23.3497 66.0372 23.7666 64.858 23.8083 64.6895C24.6839 61.7414 29.2288 60.5201 32.1058 62.0362C37.4846 64.858 35.0662 72.144 30.8966 74.6709C18.2211 82.3359 6.67129 65.9109 14.6769 54.666C24.5588 40.7679 45.0315 46.0323 57.0816 53.4025C65.3374 58.4143 72.384 65.1107 79.9727 71.049C85.1013 75.0499 93.3988 82.3781 100.445 80.4828C102.822 79.8511 105.407 78.0823 105.824 75.429C106.074 73.9128 105.657 71.8913 104.323 71.1332C102.655 70.1645 99.9034 71.3016 98.6942 72.9863C97.9019 74.0813 97.8603 75.2605 96.8596 75.5553C96.3175 75.7238 95.6504 75.5553 95.2751 75.1763C94.6914 74.5867 94.8581 73.618 94.9415 73.0284C95.2334 71.1753 96.6511 68.3114 99.6115 67.2164C100.779 66.7532 102.197 66.7111 103.823 67.1322C107.7 68.1851 111.078 72.4809 109.994 76.6082C107.242 87.474 91.7309 82.2517 85.7267 78.6719C71.6752 70.2909 61.0845 56.477 45.5319 50.5387C35.8584 46.8325 21.3899 47.38 16.7617 58.6249C14.385 64.4789 15.9278 71.428 22.0571 73.5338C26.1433 74.9236 29.9793 73.8707 31.2302 69.3222C31.397 68.9432 31.6054 68.3114 31.6471 67.5534C31.6888 66.8374 31.7305 65.8266 31.1468 65.0264C30.2712 63.8893 28.2698 63.6366 27.144 64.521C26.6436 64.9001 26.185 65.6582 26.1433 66.4584C26.1016 67.2164 26.4352 67.7639 26.1016 68.143C25.8931 68.3536 25.5595 68.3536 25.4345 68.3536C24.5588 68.3114 23.9751 67.2586 23.9334 67.1322Z" fill="#C8A898"/>
<path d="M122.044 28.8491C126.255 34.2399 132.802 35.2086 133.844 35.2507C143.601 35.7561 149.605 26.617 149.939 26.0695C150.773 27.333 152.19 29.1861 154.358 30.8286C155.859 31.9657 160.196 35.2928 165.575 34.5769C171.37 33.8188 177.291 28.5964 176.958 23.4162C176.749 20.5945 174.748 18.6993 174.331 18.2781C171.787 15.7933 167.117 14.8247 164.949 16.8462C163.948 17.7727 163.49 19.3731 163.782 20.763C164.032 21.858 164.907 23.2899 166.075 23.3741C166.7 23.4162 167.451 23.1214 167.659 22.5739C167.868 22.1528 167.534 21.858 167.534 21.142C167.534 20.4681 167.784 19.6258 168.285 19.2468C169.327 18.4466 172.037 19.4995 172.996 21.3947C173.83 23.0793 173.163 24.9324 172.996 25.3535C171.621 29.1018 166.659 31.5445 162.322 31.334C157.694 31.1234 153.483 27.8805 151.356 23.1635C152.232 21.4368 152.982 19.6258 153.608 17.857C155.651 12.0029 155.818 4.59058 150.022 1.05287C144.018 -2.61119 142.058 3.95884 142.642 9.68656C143.017 13.3927 144.56 17.4779 146.895 21.2262C146.144 22.7424 145.31 24.2164 144.351 25.522C140.432 30.8286 134.845 33.8188 128.757 30.9128C127.465 30.2811 125.463 29.3966 124.337 27.3751C122.503 24.1322 123.587 19.2468 125.463 18.6572C126.422 18.3624 127.881 19.1204 128.549 20.1312C129.341 21.3526 128.757 22.4897 129.674 23.2478C130.175 23.6689 130.925 23.7532 131.551 23.5847C132.134 23.4162 132.551 22.953 132.718 22.616C133.636 20.8051 130.592 15.4985 126.172 14.9931C118.5 14.0666 118.583 24.427 122.044 28.8491ZM148.271 4.1273C151.106 0.673827 149.897 13.6033 149.313 15.3722C149.063 16.1302 148.771 16.9304 148.438 17.7306C146.269 12.5504 145.686 7.24386 148.271 4.1273Z" fill="#C8A898"/>
</g>
<defs>
<clipPath id="clip0_267_7">
<rect width="297" height="86" fill="white"/>
</clipPath>
</defs>
</svg>
