<svg width="558" height="109" viewBox="0 0 558 109" fill="none" xmlns="http://www.w3.org/2000/svg">
<g clip-path="url(#clip0_362_2565)">
<path d="M314.372 59.3698C319.887 63.7385 325.548 67.6654 331.479 70.4388C337.386 73.2121 343.611 74.8565 349.542 74.4884C355.4 74.2184 361.037 72.1077 364.247 68.009C365.84 65.9965 366.821 63.6158 367.066 61.2842C367.262 58.9526 366.625 56.621 365.473 54.7802C364.321 52.9395 362.605 51.5651 360.743 51.0251C358.856 50.4606 356.895 50.657 355.277 51.2951C353.635 51.9332 352.361 53.0377 351.576 54.3385C350.915 55.6883 350.645 57.1118 350.841 58.3635C351.111 60.916 352.532 62.6095 353.635 63.3458C354.738 64.1312 355.522 64.2048 355.473 64.2784C355.498 64.2294 354.738 64.1803 353.562 63.444C352.385 62.7568 350.817 61.1124 350.376 58.4372C350.106 57.1118 350.302 55.5656 350.988 54.0439C351.773 52.5714 353.145 51.2706 354.934 50.4606C356.699 49.6753 358.88 49.3562 361.061 49.9207C363.267 50.4606 365.277 51.9823 366.674 54.0194C368.071 56.0565 368.904 58.6581 368.757 61.4314C368.585 64.1557 367.532 66.9046 365.791 69.2362C362.287 74.0221 355.988 76.5009 349.689 76.9427C343.268 77.4581 336.553 75.8137 330.327 72.9667C324.078 70.1197 318.22 66.0946 312.583 61.6523C306.995 57.21 301.775 52.6695 296.015 49.6262C290.354 46.5583 283.982 45.0857 278.296 46.1901C272.61 47.1473 268.1 51.3687 266.286 56.0074C265.992 57.21 265.6 58.3881 265.649 59.6152C265.502 60.8424 265.772 61.9468 266.115 63.0513C266.875 65.2111 268.345 67.0518 270.061 68.3281C271.776 69.6043 273.762 70.3406 275.649 70.3897C277.536 70.4142 279.325 69.8006 280.526 68.7207C283.026 66.4382 283.393 63.0022 283.026 60.646C282.658 58.1672 281.359 56.5964 280.305 55.8356C279.791 55.4184 279.325 55.222 279.006 55.0748C278.688 54.9275 278.541 54.8048 278.541 54.7557C278.541 54.7066 278.737 54.7066 279.08 54.7802C279.448 54.8293 279.962 54.9766 280.599 55.3447C281.849 56.0074 283.516 57.7009 284.104 60.4252C284.398 61.775 284.496 63.3213 284.178 64.9902C283.859 66.6346 283.099 68.4508 281.604 69.8988C280.109 71.3469 277.928 72.1813 275.624 72.2059C273.32 72.2059 270.919 71.396 268.86 69.9479C266.801 68.4999 265.012 66.4137 264.032 63.7876C263.59 62.4868 263.223 61.0142 263.37 59.5662C263.296 58.0936 263.688 56.6701 264.056 55.222C265.061 52.3995 266.85 49.8471 269.203 47.7854C269.816 47.3191 270.379 46.7546 271.066 46.3374C271.752 45.9447 272.438 45.5275 273.124 45.1102C273.884 44.8157 274.619 44.4967 275.379 44.2021C276.139 43.9076 276.948 43.7849 277.756 43.564C284.227 42.2387 291.212 43.8585 297.29 47.0982C303.491 50.3379 308.833 55.0011 314.372 59.3698Z" fill="white"/>
<path d="M418.583 59.2715C424.098 63.6402 429.735 67.5671 435.641 70.3895C441.523 73.212 447.748 74.8319 453.679 74.5373C456.596 74.3655 459.513 73.9728 462.037 72.8193L462.993 72.4512L463.875 71.9358C464.463 71.5922 465.051 71.2731 465.615 70.905C466.669 70.1196 467.649 69.236 468.458 68.2297C470.125 66.2663 471.105 63.8856 471.399 61.554C471.693 59.2224 471.056 56.8908 469.978 55.0255C468.875 53.1603 467.208 51.7368 465.346 51.1232C463.507 50.5096 461.522 50.6323 459.88 51.1968C458.238 51.7858 456.817 52.7921 456.081 54.1174C455.346 55.3937 454.954 56.8172 455.101 58.0689C455.248 60.6214 456.645 62.3639 457.748 63.0757C458.851 63.8365 459.635 63.9347 459.611 64.0083C459.635 63.9592 458.875 63.9102 457.699 63.1984C456.522 62.5357 454.954 60.8423 454.66 58.118C454.415 56.7926 454.758 55.2464 455.518 53.7738C456.277 52.2767 457.797 51.0986 459.562 50.3378C461.351 49.626 463.532 49.3806 465.689 49.9942C467.845 50.6078 469.831 52.154 471.179 54.2402C472.502 56.3263 473.335 58.9279 473.09 61.6767C472.845 64.3765 471.791 67.1499 469.978 69.4078C469.095 70.5614 468.017 71.5922 466.841 72.5248C466.228 72.942 465.566 73.3347 464.929 73.7274L463.949 74.3165L462.895 74.7582C460.101 76.1081 456.964 76.6235 453.802 76.8689C447.405 77.3353 440.69 75.6909 434.489 72.7948C428.264 69.9232 422.406 65.8982 416.794 61.4313C411.206 56.989 405.986 52.473 400.226 49.4542C394.54 46.4354 388.192 44.9874 382.531 46.1409C376.869 47.1472 372.384 51.3931 370.644 56.0563C370.497 56.6699 370.35 57.259 370.203 57.848C370.031 58.437 370.105 59.0506 370.056 59.6396C369.884 60.8668 370.228 61.9712 370.546 63.0511C371.33 65.2109 372.825 67.0026 374.541 68.2788C376.281 69.5305 378.266 70.2668 380.154 70.2668C382.041 70.2668 383.83 69.6533 384.982 68.5488C387.335 66.1927 387.457 62.683 386.869 60.3759C386.33 57.9462 384.933 56.4245 383.879 55.6882C383.364 55.2955 382.899 55.0746 382.58 54.9274C382.261 54.7801 382.114 54.6574 382.114 54.6083C382.114 54.5592 382.31 54.5592 382.653 54.6328C383.021 54.6819 383.536 54.8292 384.173 55.1728C385.423 55.8109 387.139 57.3817 387.923 60.0569C388.315 61.3577 388.56 62.9039 388.364 64.5974C388.143 66.2663 387.555 68.1561 386.109 69.6532C384.639 71.1749 382.457 72.0094 380.154 72.083C377.825 72.1321 375.448 71.3222 373.365 69.9232C371.306 68.4752 369.492 66.4381 368.487 63.812C368.022 62.5112 367.63 61.0386 367.752 59.6151C367.801 58.9034 367.703 58.1425 367.899 57.4308C368.071 56.719 368.218 55.9827 368.389 55.271C370.35 49.6997 375.448 44.8156 381.992 43.5393C388.462 42.1649 395.422 43.7602 401.525 46.9508C407.701 50.2151 413.069 54.8783 418.583 59.2715Z" fill="white"/>
<path d="M339.004 36.0538C340.523 33.4522 341.847 30.7034 342.19 28.0282C342.557 25.4021 341.847 22.8987 339.886 21.5734C338.048 20.1253 335.499 19.8553 333.489 20.4198C331.455 21.1316 329.862 22.6533 328.881 24.3222C326.945 27.6846 327.313 31.587 329.151 32.8878C330.033 33.575 330.989 33.6486 331.553 33.575C332.166 33.5013 332.411 33.2559 332.435 33.2804C332.411 33.2559 332.19 33.5259 331.577 33.6977C330.989 33.8695 329.96 33.9186 328.906 33.2559C326.627 31.9551 325.744 27.6601 327.607 23.6595C328.538 21.6715 330.254 19.659 332.803 18.5791C335.376 17.6219 338.636 17.7692 341.258 19.5854C341.945 19.9781 342.484 20.6162 343.072 21.2052C343.538 21.8924 344.052 22.6042 344.322 23.3896C344.935 24.9603 345.057 26.7029 344.886 28.3473C344.518 31.6851 343.097 34.6549 341.454 37.5019C338.097 43.2695 333.072 47.4664 327.975 50.0434C322.803 52.5468 317.583 53.3567 313.318 53.234C309.029 53.1113 305.672 52.1541 303.466 51.2951C301.285 50.3625 300.182 49.6507 300.255 49.5035C300.427 48.9635 305.206 51.4178 313.318 51.2215C317.338 51.0988 322.117 50.1416 326.798 47.7118C331.406 45.2084 335.965 41.3061 339.004 36.0538Z" fill="white"/>
<path d="M556.591 70.6105C558.577 77.6789 558.086 84.9928 555.832 91.4721C555.513 92.2821 555.292 93.1165 554.9 93.8528L553.675 96.0863C553.283 96.8225 552.866 97.5834 552.351 98.246C551.886 98.9333 551.347 99.5959 550.783 100.21C548.577 102.688 545.93 104.701 543.038 106.051C537.279 108.849 530.612 108.628 525.563 106.124C523.015 104.873 520.858 103.032 519.387 100.823C518.015 98.5651 517.231 96.0126 517.402 93.5583C517.794 88.5515 521.961 85.0418 525.784 84.87C529.607 84.551 532.843 86.7599 533.676 89.3123C534.583 91.8648 533.627 94.0001 532.843 95.0309C532.45 95.5954 532.034 95.9144 531.74 96.1108C531.47 96.3071 531.323 96.4299 531.323 96.4299C531.323 96.4299 531.446 96.3071 531.715 96.0863C531.985 95.8899 532.377 95.5463 532.72 94.9573C533.431 93.9019 534.215 91.8157 533.235 89.4841C532.377 87.1771 529.313 85.3364 525.858 85.7781C524.142 85.9745 522.451 86.8089 521.127 88.2079C519.804 89.5823 518.897 91.5703 518.824 93.6565C518.775 95.7917 519.51 97.9515 520.784 99.8904C522.157 101.78 524.093 103.351 526.397 104.382C531.004 106.468 536.911 106.517 541.984 103.891C544.533 102.615 546.886 100.774 548.822 98.516C549.312 97.9515 549.778 97.3625 550.195 96.7489C550.66 96.1599 551.003 95.4727 551.347 94.7855L552.425 92.7484C552.768 92.0612 552.964 91.3003 553.234 90.564C555.243 84.6737 555.636 77.7771 553.846 71.4204C552.94 68.2543 551.396 65.3337 549.288 62.9775C547.058 60.7687 544.558 58.7807 541.641 57.6517C540.269 56.9399 538.7 56.6454 537.254 56.13C535.735 55.8846 534.264 55.4428 532.72 55.3692C531.2 55.2219 529.705 55.0746 528.21 55.1483C526.715 55.0992 525.245 55.271 523.799 55.4183C520.907 55.7864 518.113 56.5963 515.392 57.1608C512.745 58.0935 510.148 58.9034 507.672 59.8606C502.746 61.8731 498.212 63.9102 494.021 65.7509C485.663 69.4815 478.433 71.6167 473.311 72.3039C470.762 72.5985 468.752 72.7457 467.404 72.6475C466.056 72.5985 465.346 72.5248 465.346 72.4267C465.346 72.1321 468.189 72.1812 473.115 71.1995C478.066 70.1932 485.002 67.8125 493.188 63.8856C497.305 61.9222 501.815 59.7869 506.765 57.6517C509.265 56.6209 511.961 55.7373 514.657 54.731C516.079 54.3874 517.525 54.0438 518.971 53.7002C520.441 53.4057 521.887 52.8903 523.456 52.7921C525 52.5958 526.568 52.424 528.161 52.4485C529.754 52.3504 531.372 52.4976 532.99 52.6449C534.632 52.7185 536.249 53.1848 537.891 53.4548C539.484 53.9948 541.175 54.3138 542.72 55.0992C545.955 56.3264 548.822 58.5352 551.371 61.0877C553.846 63.7629 555.562 67.0763 556.591 70.6105Z" fill="white"/>
<path d="M372.556 47.1963C372.825 41.4041 376.109 36.0537 380.521 32.3232C384.933 28.5926 390.422 26.3346 395.961 24.7148C399.246 23.7576 402.603 22.9968 405.74 21.6714C408.902 20.3461 411.892 18.3827 413.755 15.5356C412.995 19.2171 411.819 22.7759 409.931 26.0401C408.02 29.3044 405.348 32.1514 402.015 33.8939C398.731 35.6119 395.006 36.1764 391.354 36.6182C387.677 37.06 384.099 37.2072 380.644 38.5571C377.212 39.8825 373.757 43.7112 372.556 47.1963Z" fill="white"/>
<path d="M400.912 45.2573C404.883 41.0359 410.863 39.1215 416.647 39.1952C422.431 39.2688 428.043 41.1095 433.313 43.5148C436.425 44.9383 439.464 46.5581 442.699 47.6135C445.959 48.6688 449.488 49.1351 452.772 48.2025C449.782 50.485 446.596 52.4239 443.018 53.6511C439.464 54.8782 435.567 55.2955 431.916 54.4365C428.313 53.602 425.127 51.5894 422.063 49.5278C419 47.4662 416.181 45.2328 412.701 44.0056C409.221 42.7539 404.098 43.392 400.912 45.2573Z" fill="white"/>
<path d="M531.764 25.8931C534.485 22.8006 537.695 19.8554 541.764 18.6037C543.749 17.9902 545.808 17.7693 547.842 17.9656C549.876 18.211 551.812 18.9964 553.381 20.199C556.543 22.7515 557.645 26.7521 557.106 30.1145C556.861 31.8325 556.052 33.3542 555.097 34.6059C554.043 35.7839 552.842 36.7411 551.543 37.2811C548.969 38.4591 546.249 38.4837 544.166 37.7229C542.058 37.0356 540.612 35.5385 540.024 34.115C539.46 32.6424 539.779 31.3907 540.122 30.679C540.514 29.9672 540.857 29.7463 540.833 29.7218C540.857 29.7463 540.514 30.0163 540.22 30.7281C539.975 31.4153 539.803 32.6424 540.416 33.9187C541.568 36.5202 546.47 38.4346 550.881 35.9803C551.984 35.4403 552.94 34.5322 553.749 33.526C554.459 32.4461 555.048 31.2189 555.146 29.82C555.464 27.0711 554.337 23.8805 551.886 22.1134C550.66 21.2544 549.165 20.6899 547.548 20.5426C545.93 20.4445 544.239 20.6654 542.597 21.2053C539.313 22.2607 536.47 24.8622 533.921 27.7583C528.921 33.8205 524.681 40.3735 520.147 45.773C519.069 47.172 517.941 48.4728 516.79 49.6999C515.638 50.9271 514.608 52.1788 513.456 53.2587C511.226 55.4921 508.922 57.3574 506.766 58.9527C502.427 62.1433 498.359 63.9349 495.492 64.7939C492.624 65.6775 490.957 65.8002 490.933 65.653C490.737 65.0885 497.428 63.9349 505.54 57.3328C507.55 55.6884 509.682 53.7986 511.765 51.5652C512.844 50.4853 513.824 49.209 514.902 48.0064C515.981 46.7793 517.059 45.503 518.088 44.1041C522.451 38.7291 526.495 32.2743 531.764 25.8931Z" fill="white"/>
<path d="M528.799 94.2945C528.725 93.6564 528.774 92.9937 528.75 92.3311C528.725 92.012 528.701 91.6684 528.578 91.3739C528.382 90.9076 527.941 90.564 527.475 90.3431C525.956 89.6313 524.02 90.1713 522.819 91.3493C521.618 92.5274 520.613 94.0245 520.417 95.6935C520.221 97.3624 520.319 99.1541 521.544 100.897C521.324 101.019 520.343 100.897 520.196 100.7C518.75 98.9332 518.309 96.5525 518.211 94.27C518.162 93.2392 518.162 92.1593 518.407 91.153C519.192 87.7415 522.549 85.2381 526.054 85.0908C528.872 84.9681 531.813 86.3425 533.186 88.7968C534.289 90.7358 534.215 93.3128 532.99 95.1781C531.691 97.1415 529.093 96.847 528.799 94.2945Z" fill="white"/>
<path d="M545.66 32.1267C545.66 33.7957 544.312 35.1455 542.645 35.1455C540.979 35.1455 539.631 33.7957 539.631 32.1267C539.631 30.4578 540.979 29.1079 542.645 29.1079C544.337 29.1079 545.66 30.4578 545.66 32.1267Z" fill="white"/>
<path d="M379.149 55.001C377.678 55.541 377.09 57.4799 377.212 59.0261C377.384 60.8423 378.658 62.5848 378.193 64.352C377.678 66.2418 375.252 67.0762 373.389 66.4872C371.526 65.8982 370.129 64.3274 368.978 62.7321C370.742 67.518 375.791 70.4387 380.815 71.175C381.894 71.3222 385.521 69.3833 386.06 68.6961C387.678 66.7081 388.119 64.2538 387.996 61.7013C387.825 58.0198 384.099 53.1357 379.149 55.001Z" fill="white"/>
<path d="M358.096 63.0512C358.831 61.7013 358.709 60.3269 358.415 59.0507C358.096 57.7008 356.895 56.5963 356.822 55.1974C356.748 53.6512 358.17 52.3504 359.689 52.0804C361.209 51.7859 362.753 52.2767 364.174 52.8903C363.464 51.9577 362.483 51.2459 361.405 50.8532C360.326 50.4606 359.174 50.3869 358.047 50.4115C355.743 50.4606 353.17 51.0496 351.92 52.9885C351.503 53.6512 351.087 54.4611 350.94 55.2219C350.572 56.989 350.523 58.8298 351.209 60.4987C351.748 61.7995 352.778 62.9776 353.979 63.6893C354.493 64.0084 355.278 64.352 355.89 64.2538C356.601 64.1311 357.655 63.8857 358.096 63.0512Z" fill="white"/>
<path d="M334.249 30.3107C334.249 32.225 332.705 33.7713 330.794 33.7713C328.882 33.7713 327.338 32.225 327.338 30.3107C327.338 28.3963 328.882 26.8501 330.794 26.8501C332.705 26.8746 334.249 28.4209 334.249 30.3107Z" fill="white"/>
<path d="M245.234 61.6276C239.621 66.07 233.739 70.095 227.489 72.942C221.264 75.789 214.549 77.4334 208.127 76.918C201.804 76.5008 195.53 74.0219 192.025 69.2115C190.285 66.8799 189.231 64.131 189.06 61.4068C188.937 58.6579 189.77 56.0563 191.167 53.9947C192.564 51.9331 194.599 50.436 196.78 49.896C198.961 49.3561 201.143 49.6506 202.907 50.436C204.696 51.2213 206.069 52.5467 206.853 54.0193C207.539 55.5655 207.711 57.1117 207.441 58.4125C207.025 61.0877 205.432 62.7566 204.255 63.4193C203.079 64.131 202.294 64.1801 202.343 64.2538C202.319 64.2047 203.079 64.1065 204.206 63.3211C205.309 62.6094 206.73 60.8914 207 58.3389C207.196 57.0872 206.927 55.6637 206.265 54.3138C205.481 53.013 204.182 51.9086 202.564 51.2704C200.946 50.6323 198.961 50.436 197.099 51.0005C195.236 51.5404 193.52 52.9148 192.368 54.7801C191.216 56.6208 190.579 58.9279 190.775 61.284C191.02 63.6402 192.001 65.9963 193.594 68.0089C196.78 72.1076 202.441 74.2183 208.299 74.4883C214.255 74.8319 220.48 73.212 226.386 70.4386C232.318 67.6407 237.979 63.7384 243.493 59.3697C249.008 55.001 254.375 50.3378 260.527 47.1226C266.605 43.8829 273.59 42.2631 280.06 43.5884C280.845 43.8093 281.653 43.932 282.438 44.2266C283.197 44.5456 283.957 44.8401 284.692 45.1346C285.379 45.5519 286.065 45.9446 286.751 46.3618C287.437 46.7545 288.001 47.319 288.614 47.8098C290.967 49.8715 292.756 52.424 293.761 55.2464C294.128 56.6945 294.52 58.118 294.447 59.5906C294.594 61.0386 294.226 62.4867 293.785 63.812C292.78 66.4381 290.991 68.5243 288.957 69.9723C286.898 71.4204 284.496 72.2057 282.193 72.2303C279.889 72.1812 277.708 71.3467 276.212 69.8987C274.717 68.4506 273.958 66.659 273.639 65.0146C273.32 63.3457 273.419 61.7994 273.713 60.4496C274.301 57.7253 275.967 56.0318 277.217 55.3691C277.855 55.001 278.369 54.8537 278.737 54.8046C279.105 54.731 279.276 54.731 279.276 54.7801C279.276 54.8292 279.129 54.9274 278.81 55.0992C278.492 55.2464 278.026 55.4673 277.511 55.86C276.458 56.6208 275.159 58.1916 274.791 60.6705C274.423 63.0266 274.791 66.4626 277.291 68.7452C278.516 69.8251 280.281 70.4386 282.168 70.4141C284.055 70.3405 286.04 69.6287 287.756 68.3525C289.472 67.0762 290.942 65.26 291.702 63.0757C292.021 61.9713 292.315 60.8668 292.168 59.6396C292.217 58.437 291.849 57.259 291.53 56.0318C289.717 51.3932 285.232 47.1717 279.521 46.2145C273.835 45.1101 267.487 46.5827 261.801 49.6506C256.042 52.6449 250.846 57.1853 245.234 61.6276Z" fill="white"/>
<path d="M141.023 61.505C135.41 65.9473 129.577 69.9724 123.327 72.8685C117.127 75.7646 110.411 77.409 104.015 76.9426C100.853 76.6972 97.6913 76.1818 94.9218 74.8319L93.8679 74.3656L92.8876 73.7766C92.2504 73.3593 91.5886 72.9912 90.9759 72.574C89.7995 71.6413 88.7211 70.6105 87.8388 69.457C86.0252 67.1745 84.9713 64.4256 84.7262 61.7259C84.4811 58.9771 85.2899 56.3509 86.6379 54.2893C87.9859 52.2031 89.9711 50.6569 92.1278 50.0433C94.2846 49.4298 96.4659 49.6507 98.255 50.387C100.02 51.1232 101.539 52.3259 102.299 53.823C103.059 55.2956 103.377 56.8418 103.157 58.1671C102.863 60.8669 101.294 62.5604 100.118 63.2476C98.9412 63.9593 98.1569 64.0084 98.206 64.0575C98.1815 64.0084 98.9412 63.9102 100.069 63.1494C101.172 62.4376 102.593 60.6951 102.716 58.1426C102.887 56.8909 102.495 55.4674 101.735 54.1911C100.975 52.8658 99.5539 51.8595 97.9364 51.2705C96.2943 50.6815 94.3336 50.5588 92.4709 51.1969C90.6328 51.8105 88.9417 53.234 87.8388 55.0992C86.7359 56.9645 86.0987 59.2961 86.4173 61.6277C86.7114 63.9593 87.6918 66.34 89.3583 68.3035C90.1671 69.3097 91.1475 70.1687 92.2013 70.9787C92.765 71.3468 93.3533 71.6659 93.9415 72.0095L94.8238 72.5249L95.7796 72.893C98.304 74.0466 101.196 74.4392 104.137 74.611C110.068 74.9301 116.293 73.2857 122.175 70.4632C128.082 67.6408 133.744 63.7139 139.233 59.3452C144.748 54.952 150.115 50.3133 156.267 47.1227C162.37 43.9321 169.355 42.3368 175.8 43.7112C182.344 44.9875 187.442 49.8715 189.403 55.4428C189.574 56.1791 189.746 56.8909 189.893 57.6026C190.089 58.3144 189.991 59.0507 190.04 59.787C190.187 61.235 189.77 62.6831 189.305 63.9839C188.3 66.61 186.462 68.6716 184.427 70.0951C182.344 71.4941 179.967 72.304 177.638 72.2549C175.335 72.1813 173.153 71.3468 171.683 69.8497C170.237 68.3525 169.624 66.4627 169.428 64.7938C169.207 63.1003 169.453 61.5541 169.869 60.2533C170.654 57.5781 172.369 56.0319 173.619 55.3692C174.256 55.0256 174.771 54.8783 175.139 54.8293C175.482 54.7556 175.678 54.7556 175.678 54.8047C175.678 54.8538 175.531 54.952 175.212 55.1238C174.894 55.271 174.428 55.4674 173.913 55.8846C172.859 56.6455 171.487 58.1426 170.923 60.5724C170.335 62.8794 170.457 66.3645 172.81 68.7452C173.962 69.8497 175.751 70.4878 177.638 70.4632C179.526 70.4387 181.511 69.7024 183.251 68.4753C184.967 67.199 186.462 65.4074 187.246 63.2476C187.589 62.1677 187.908 61.0387 187.736 59.8361C187.663 59.247 187.761 58.6334 187.589 58.0444C187.442 57.4554 187.295 56.8418 187.148 56.2528C185.408 51.5896 180.923 47.3436 175.261 46.3373C169.6 45.1838 163.227 46.6318 157.566 49.6507C151.831 52.5467 146.611 57.0627 141.023 61.505Z" fill="white"/>
<path d="M216.362 37.5019C214.696 34.6549 213.299 31.6851 212.931 28.3473C212.76 26.7029 212.882 24.9603 213.495 23.3896C213.764 22.5796 214.279 21.8924 214.745 21.2052C215.333 20.6162 215.872 19.9781 216.558 19.5854C219.181 17.7692 222.44 17.6219 225.014 18.5791C227.563 19.659 229.278 21.6715 230.21 23.6595C232.072 27.6601 231.215 31.9551 228.911 33.2559C227.857 33.9186 226.828 33.8449 226.239 33.6977C225.627 33.5259 225.406 33.2559 225.382 33.2804C225.382 33.2559 225.651 33.5013 226.264 33.575C226.828 33.6486 227.783 33.575 228.666 32.8878C230.504 31.587 230.871 27.6846 228.935 24.3222C227.979 22.6533 226.386 21.1316 224.328 20.4198C222.318 19.8553 219.769 20.1008 217.931 21.5734C215.97 22.8987 215.259 25.4021 215.627 28.0282C215.97 30.6789 217.294 33.4523 218.813 36.0293C221.852 41.2815 226.411 45.2084 231.019 47.6873C235.7 50.1171 240.479 51.0742 244.498 51.1969C252.611 51.4178 257.39 48.939 257.561 49.4789C257.635 49.6507 256.532 50.3379 254.351 51.2706C252.145 52.1296 248.787 53.0868 244.498 53.2095C240.234 53.3322 235.013 52.5468 229.842 50.0189C224.744 47.4909 219.72 43.2695 216.362 37.5019Z" fill="white"/>
<path d="M3.99511 71.396C2.18147 77.7527 2.59812 84.6493 4.60783 90.5396C4.87742 91.2759 5.07349 92.0368 5.41661 92.724L6.49499 94.7611C6.83812 95.4483 7.18124 96.1109 7.6469 96.7245C8.06355 97.3626 8.52921 97.9517 9.01938 98.4916C10.9556 100.75 13.3084 102.59 15.8573 103.867C20.9306 106.468 26.8372 106.444 31.4448 104.333C33.7486 103.302 35.6848 101.731 37.0573 99.8415C38.3317 97.9026 39.067 95.7428 39.018 93.6075C38.9199 91.5214 38.0376 89.5334 36.7141 88.1589C35.3907 86.76 33.6751 85.9255 31.984 85.7292C28.5283 85.2874 25.4647 87.1527 24.6069 89.4352C23.6265 91.7668 24.4108 93.853 25.1216 94.9083C25.4892 95.4728 25.8568 95.8164 26.1264 96.0373C26.396 96.2582 26.5186 96.3809 26.5186 96.3809C26.5186 96.3809 26.3715 96.2827 26.1019 96.0618C25.8078 95.8655 25.4157 95.5464 24.999 94.9819C24.2147 93.9511 23.2589 91.8404 24.1657 89.2634C24.9745 86.7109 28.2097 84.502 32.0575 84.8211C35.8809 84.9929 40.0473 88.5025 40.4395 93.5094C40.5865 95.9882 39.8267 98.5162 38.4543 100.774C36.9837 102.983 34.827 104.848 32.2781 106.075C27.2293 108.579 20.563 108.8 14.8034 106.002C11.9359 104.652 9.28898 102.639 7.0832 100.161C6.5195 99.547 5.98031 98.9088 5.51465 98.1971C4.97546 97.5344 4.58332 96.7981 4.19118 96.0373L2.96575 93.8039C2.57361 93.043 2.35303 92.2086 2.03442 91.4232C-0.220374 84.9438 -0.710547 77.6299 1.27465 70.5615C2.27951 67.0518 4.01962 63.714 6.47049 61.0142C9.01938 58.4617 11.8869 56.2529 15.122 55.0257C16.6661 54.2403 18.3572 53.9213 19.9502 53.3813C21.5923 53.1113 23.2099 52.6696 24.852 52.5714C26.4695 52.4241 28.0871 52.3014 29.6802 52.375C31.2732 52.3505 32.8418 52.5223 34.3858 52.7186C35.9544 52.8168 37.4004 53.3322 38.8709 53.6267C40.3414 53.9703 41.7629 54.3139 43.1844 54.6575C45.9049 55.6638 48.5763 56.5474 51.0762 57.5782C56.0515 59.7134 60.5611 61.8732 64.6785 63.8121C72.8644 67.739 79.8004 70.1197 84.7511 71.126C89.7018 72.1077 92.5448 72.0832 92.5203 72.3532C92.5203 72.4513 91.8096 72.525 90.4616 72.574C89.1136 72.6722 87.1039 72.525 84.555 72.2304C79.4327 71.5432 72.2027 69.3834 63.8452 65.6774C59.6787 63.8367 55.1201 61.7996 50.1939 59.7871C47.7185 58.8299 45.1206 58.02 42.4737 57.0873C39.7532 56.5228 36.9592 55.7129 34.0672 55.3448C32.6212 55.173 31.1507 55.0257 29.6557 55.0748C28.1606 55.0012 26.6656 55.1484 25.1461 55.2957C23.6265 55.3693 22.156 55.8111 20.612 56.0565C19.166 56.5719 17.6219 56.8664 16.2249 57.5782C13.3084 58.7072 10.8085 60.6952 8.57823 62.904C6.42147 65.3093 4.90193 68.2299 3.99511 71.396Z" fill="white"/>
<path d="M185.286 47.1963C185.016 41.4041 181.732 36.0537 177.321 32.3232C172.909 28.5926 167.419 26.3346 161.88 24.7148C158.596 23.7576 155.238 22.9968 152.101 21.6714C148.94 20.3461 145.95 18.3827 144.087 15.5356C144.847 19.2171 146.023 22.7759 147.91 26.0401C149.822 29.3044 152.493 32.1514 155.827 33.8939C159.111 35.6119 162.836 36.1764 166.488 36.6182C170.164 37.06 173.742 37.2072 177.198 38.5571C180.629 39.8825 184.085 43.7112 185.286 47.1963Z" fill="white"/>
<path d="M156.904 45.2573C152.934 41.0359 146.954 39.1215 141.17 39.1952C135.386 39.2688 129.773 41.1095 124.504 43.5148C121.391 44.9383 118.352 46.5581 115.117 47.6135C111.857 48.6688 108.328 49.1351 105.044 48.2025C108.034 50.485 111.22 52.4239 114.798 53.6511C118.352 54.8782 122.249 55.2955 125.901 54.4365C129.504 53.602 132.69 51.5894 135.753 49.5278C138.817 47.4662 141.635 45.2328 145.116 44.0056C148.62 42.7539 153.718 43.392 156.904 45.2573Z" fill="white"/>
<path d="M23.9207 27.7827C21.3718 24.8867 18.5288 22.2851 15.2446 21.2297C13.6025 20.6898 11.9114 20.4689 10.2939 20.5671C8.67629 20.7143 7.18126 21.2788 5.95583 22.1378C3.52947 23.9049 2.40208 27.1201 2.69618 29.8444C2.81872 31.2433 3.38242 32.4705 4.09317 33.5504C4.90196 34.5567 5.8578 35.4648 6.96068 36.0047C11.3722 38.459 16.274 36.5447 17.4259 33.9431C18.0631 32.6668 17.8915 31.4397 17.6219 30.7525C17.3278 30.0407 16.9847 29.7707 17.0092 29.7462C16.9847 29.7707 17.3524 29.9916 17.72 30.7034C18.0631 31.3906 18.3817 32.6668 17.818 34.1394C17.2298 35.5629 15.7838 37.0601 13.6761 37.7473C11.5928 38.5081 8.89687 38.4836 6.29895 37.3055C4.97548 36.7655 3.79907 35.8084 2.7452 34.6303C1.78936 33.3786 0.980576 31.8569 0.735489 30.1389C0.196299 26.7765 1.29919 22.7759 4.4608 20.2235C6.02936 19.0208 7.96554 18.2355 9.99976 17.99C12.034 17.7937 14.0927 18.0146 16.0779 18.6282C20.1218 19.8553 23.3325 22.825 26.0774 25.9175C31.3468 32.2987 35.3907 38.7535 39.7532 44.153C40.7826 45.552 41.861 46.8282 42.9394 48.0554C44.0178 49.2826 44.9981 50.5343 46.0765 51.6142C48.1597 53.8476 50.292 55.7374 52.3017 57.3818C60.414 63.9839 67.1049 65.1374 66.9088 65.7019C66.8843 65.8492 65.2177 65.751 62.3502 64.8429C59.4827 63.9839 55.4388 62.1922 51.0762 59.0016C48.9195 57.4063 46.6157 55.5411 44.3854 53.3076C43.2335 52.2277 42.2041 50.976 41.0522 49.7489C39.9003 48.5217 38.7729 47.2209 37.6945 45.822C33.1604 40.3979 28.9204 33.8204 23.9207 27.7827Z" fill="white"/>
<path d="M29.0426 94.2945C29.1162 93.6564 29.0671 92.9937 29.0917 92.3311C29.1162 92.012 29.1407 91.6684 29.2632 91.3739C29.4593 90.9076 29.9004 90.564 30.3661 90.3431C31.8856 89.6313 33.7973 90.1713 35.0227 91.3493C36.2237 92.5274 37.2285 94.0245 37.4246 95.6935C37.6207 97.3624 37.5226 99.1541 36.2972 100.897C36.5178 101.019 37.4981 100.897 37.6452 100.7C39.0912 98.9332 39.5323 96.5525 39.6304 94.27C39.6794 93.2392 39.6794 92.1593 39.4343 91.153C38.65 87.7415 35.2923 85.2381 31.7876 85.0908C28.9691 84.9681 26.0281 86.3425 24.6556 88.7968C23.5527 90.7358 23.6507 93.3128 24.8762 95.1781C26.1506 97.1415 28.724 96.847 29.0426 94.2945Z" fill="white"/>
<path d="M12.1562 32.1267C12.1562 33.7957 13.5042 35.1455 15.1708 35.1455C16.8374 35.1455 18.1854 33.7957 18.1854 32.1267C18.1854 30.4578 16.8374 29.1079 15.1708 29.1079C13.5042 29.1079 12.1562 30.4578 12.1562 32.1267Z" fill="white"/>
<path d="M178.693 55.001C180.164 55.541 180.752 57.4799 180.629 59.0261C180.458 60.8423 179.183 62.5848 179.649 64.352C180.164 66.2418 182.59 67.0762 184.453 66.4872C186.315 65.8982 187.712 64.3274 188.864 62.7321C187.099 67.518 182.051 70.4387 177.026 71.175C175.948 71.3222 172.321 69.3833 171.782 68.6961C170.164 66.7081 169.723 64.2538 169.845 61.7013C170.017 58.0198 173.742 53.1357 178.693 55.001Z" fill="white"/>
<path d="M199.721 63.0512C198.985 61.7013 199.108 60.3269 199.402 59.0507C199.745 57.7008 200.922 56.5963 200.995 55.1974C201.069 53.6512 199.647 52.3504 198.128 52.0804C196.608 51.7859 195.064 52.2767 193.643 52.8903C194.353 51.9577 195.334 51.2459 196.412 50.8532C197.49 50.4606 198.642 50.3869 199.77 50.4115C202.074 50.4606 204.647 51.0496 205.897 52.9885C206.314 53.6512 206.73 54.4611 206.877 55.2219C207.245 56.989 207.294 58.8298 206.608 60.4987C206.068 61.7995 205.039 62.9776 203.838 63.6893C203.323 64.0084 202.539 64.352 201.926 64.2538C201.24 64.1311 200.162 63.8857 199.721 63.0512Z" fill="white"/>
<path d="M223.568 30.3107C223.568 32.225 225.112 33.7713 227.024 33.7713C228.936 33.7713 230.48 32.225 230.48 30.3107C230.48 28.3963 228.936 26.8501 227.024 26.8501C225.112 26.8746 223.568 28.4209 223.568 30.3107Z" fill="white"/>
<path d="M286.874 11.2897C282.536 14.9957 279.644 20.2234 278.688 25.8684H278.663C277.413 20.2725 274.252 15.2412 269.718 11.756C275.918 8.95812 278.443 0.0244141 278.443 0.0244141C278.443 0.0244141 281.58 9.27718 286.874 11.2897Z" fill="white"/>
<path d="M288.442 22.2606C291.972 17.6711 297.192 13.916 302.069 13.4742C304.079 13.3024 306.432 13.9896 307.412 16.3948C308.294 18.5546 307.706 21.4507 306.383 23.1687C305.084 24.8868 303.221 25.6476 301.407 25.9421C299.594 26.2366 297.756 26.163 295.942 26.4821C289.692 27.611 284.472 33.5996 280.575 40.3244C279.84 41.6006 279.252 43.0487 278.565 44.3249C280.82 36.0784 283.761 28.3228 288.442 22.2606Z" fill="white"/>
<path d="M268.468 22.2606C264.939 17.6711 259.718 13.916 254.841 13.4742C252.831 13.3024 250.479 13.9896 249.498 16.3948C248.616 18.5546 249.229 21.4507 250.528 23.1687C251.827 24.8868 253.689 25.6476 255.503 25.9421C257.317 26.2366 259.155 26.163 260.968 26.4821C267.218 27.611 272.438 33.5996 276.335 40.3244C277.07 41.6006 277.659 43.0487 278.345 44.3249C276.09 36.0784 273.149 28.3228 268.468 22.2606Z" fill="white"/>
</g>
<defs>
<clipPath id="clip0_362_2565">
<rect width="557.841" height="108.063" fill="white"/>
</clipPath>
</defs>
</svg>
