<svg width="558" height="109" viewBox="0 0 558 109" fill="none" xmlns="http://www.w3.org/2000/svg">
<g clip-path="url(#clip0_362_2606)">
<path d="M314.372 49.6299C319.887 45.2613 325.548 41.3344 331.479 38.561C337.386 35.7876 343.611 34.1432 349.542 34.5114C355.4 34.7813 361.037 36.8921 364.247 40.9908C365.84 43.0033 366.821 45.384 367.066 47.7156C367.262 50.0472 366.625 52.3788 365.473 54.2195C364.321 56.0603 362.605 57.4347 360.743 57.9746C358.856 58.5391 356.895 58.3428 355.277 57.7046C353.635 57.0665 352.361 55.9621 351.576 54.6613C350.915 53.3114 350.645 51.8879 350.841 50.6362C351.111 48.0837 352.532 46.3903 353.635 45.654C354.738 44.8686 355.522 44.7949 355.473 44.7213C355.498 44.7704 354.738 44.8195 353.562 45.5558C352.385 46.243 350.817 47.8874 350.376 50.5626C350.106 51.8879 350.302 53.4341 350.988 54.9558C351.773 56.4284 353.145 57.7292 354.934 58.5391C356.699 59.3245 358.88 59.6436 361.061 59.0791C363.267 58.5391 365.277 57.0174 366.674 54.9804C368.071 52.9433 368.904 50.3417 368.757 47.5683C368.585 44.844 367.532 42.0952 365.791 39.7636C362.287 34.9777 355.988 32.4988 349.689 32.0571C343.268 31.5416 336.553 33.186 330.327 36.033C324.078 38.8801 318.22 42.9051 312.583 47.3474C306.995 51.7897 301.775 56.3302 296.015 59.3736C290.354 62.4415 283.982 63.9141 278.296 62.8096C272.61 61.8524 268.1 57.631 266.286 52.9924C265.992 51.7897 265.6 50.6117 265.649 49.3845C265.502 48.1574 265.772 47.0529 266.115 45.9485C266.875 43.7887 268.345 41.9479 270.061 40.6717C271.776 39.3955 273.762 38.6592 275.649 38.6101C277.536 38.5855 279.325 39.1991 280.526 40.279C283.026 42.5615 283.393 45.9976 283.026 48.3537C282.658 50.8326 281.359 52.4033 280.305 53.1642C279.791 53.5814 279.325 53.7777 279.006 53.925C278.688 54.0723 278.541 54.195 278.541 54.2441C278.541 54.2932 278.737 54.2932 279.08 54.2195C279.448 54.1704 279.962 54.0232 280.599 53.655C281.849 52.9924 283.516 51.2989 284.104 48.5746C284.398 47.2247 284.496 45.6785 284.178 44.0096C283.859 42.3652 283.099 40.549 281.604 39.1009C280.109 37.6529 277.928 36.8184 275.624 36.7939C273.32 36.7939 270.919 37.6038 268.86 39.0519C266.801 40.4999 265.012 42.5861 264.032 45.2122C263.59 46.513 263.223 47.9856 263.37 49.4336C263.296 50.9062 263.688 52.3297 264.056 53.7777C265.061 56.6002 266.85 59.1527 269.203 61.2143C269.816 61.6806 270.379 62.2451 271.066 62.6624C271.752 63.0551 272.438 63.4723 273.124 63.8895C273.884 64.184 274.619 64.5031 275.379 64.7976C276.139 65.0921 276.948 65.2149 277.756 65.4357C284.227 66.7611 291.212 65.1412 297.29 61.9015C303.491 58.6618 308.833 53.9986 314.372 49.6299Z" fill="white"/>
<path d="M418.583 49.7283C424.098 45.3596 429.735 41.4327 435.641 38.6102C441.523 35.7877 447.748 34.1679 453.679 34.4624C456.596 34.6342 459.513 35.0269 462.037 36.1804L462.993 36.5486L463.875 37.064C464.463 37.4076 465.051 37.7267 465.615 38.0948C466.669 38.8802 467.649 39.7637 468.458 40.77C470.125 42.7335 471.105 45.1141 471.399 47.4457C471.693 49.7773 471.056 52.1089 469.978 53.9742C468.875 55.8395 467.208 57.263 465.346 57.8766C463.507 58.4902 461.522 58.3674 459.88 57.803C458.238 57.2139 456.817 56.2077 456.081 54.8823C455.346 53.6061 454.954 52.1826 455.101 50.9309C455.248 48.3784 456.645 46.6358 457.748 45.9241C458.851 45.1632 459.635 45.0651 459.611 44.9914C459.635 45.0405 458.875 45.0896 457.699 45.8014C456.522 46.464 454.954 48.1575 454.66 50.8818C454.415 52.2071 454.758 53.7533 455.518 55.2259C456.277 56.7231 457.797 57.9011 459.562 58.662C461.351 59.3737 463.532 59.6191 465.689 59.0056C467.845 58.392 469.831 56.8458 471.179 54.7596C472.502 52.6734 473.335 50.0719 473.09 47.323C472.845 44.6233 471.791 41.8499 469.978 39.5919C469.095 38.4384 468.017 37.4076 466.841 36.475C466.228 36.0577 465.566 35.665 464.929 35.2723L463.949 34.6833L462.895 34.2415C460.101 32.8917 456.964 32.3762 453.802 32.1308C447.405 31.6645 440.69 33.3089 434.489 36.205C428.264 39.0765 422.406 43.1016 416.794 47.5685C411.206 52.0108 405.986 56.5267 400.226 59.5455C394.54 62.5643 388.192 64.0124 382.531 62.8588C376.869 61.8526 372.384 57.6066 370.644 52.9434C370.497 52.3298 370.35 51.7408 370.203 51.1518C370.031 50.5627 370.105 49.9491 370.056 49.3601C369.884 48.133 370.228 47.0285 370.546 45.9486C371.33 43.7888 372.825 41.9972 374.541 40.7209C376.281 39.4692 378.266 38.7329 380.154 38.7329C382.041 38.7329 383.83 39.3465 384.982 40.4509C387.335 42.8071 387.457 46.3168 386.869 48.6238C386.33 51.0536 384.933 52.5753 383.879 53.3116C383.364 53.7042 382.899 53.9251 382.58 54.0724C382.261 54.2197 382.114 54.3424 382.114 54.3915C382.114 54.4405 382.31 54.4405 382.653 54.3669C383.021 54.3178 383.536 54.1706 384.173 53.827C385.423 53.1888 387.139 51.6181 387.923 48.9429C388.315 47.6421 388.56 46.0959 388.364 44.4024C388.143 42.7335 387.555 40.8436 386.109 39.3465C384.639 37.8248 382.457 36.9904 380.154 36.9167C377.825 36.8676 375.448 37.6776 373.365 39.0765C371.306 40.5246 369.492 42.5617 368.487 45.1878C368.022 46.4886 367.63 47.9611 367.752 49.3846C367.801 50.0964 367.703 50.8572 367.899 51.569C368.071 52.2807 368.218 53.017 368.389 53.7288C370.35 59.3001 375.448 64.1842 381.992 65.4604C388.462 66.8348 395.422 65.2395 401.525 62.0489C407.701 58.7847 413.069 54.1215 418.583 49.7283Z" fill="white"/>
<path d="M339.004 72.9459C340.523 75.5475 341.847 78.2963 342.19 80.9715C342.557 83.5977 341.847 86.1011 339.886 87.4264C338.048 88.8744 335.499 89.1444 333.489 88.5799C331.455 87.8682 329.862 86.3465 328.881 84.6776C326.945 81.3151 327.313 77.4128 329.151 76.112C330.033 75.4248 330.989 75.3512 331.553 75.4248C332.166 75.4984 332.411 75.7439 332.435 75.7193C332.411 75.7439 332.19 75.4739 331.577 75.3021C330.989 75.1303 329.96 75.0812 328.906 75.7439C326.627 77.0446 325.744 81.3397 327.607 85.3402C328.538 87.3282 330.254 89.3408 332.803 90.4207C335.376 91.3778 338.636 91.2306 341.258 89.4144C341.945 89.0217 342.484 88.3836 343.072 87.7945C343.538 87.1073 344.052 86.3956 344.322 85.6102C344.935 84.0394 345.057 82.2969 344.886 80.6525C344.518 77.3146 343.097 74.3449 341.454 71.4979C338.097 65.7302 333.072 61.5334 327.975 58.9563C322.803 56.4529 317.583 55.643 313.318 55.7657C309.029 55.8884 305.672 56.8456 303.466 57.7046C301.285 58.6373 300.182 59.349 300.255 59.4963C300.427 60.0362 305.206 57.5819 313.318 57.7783C317.338 57.901 322.117 58.8582 326.798 61.2879C331.406 63.7913 335.965 67.6937 339.004 72.9459Z" fill="white"/>
<path d="M556.591 38.3893C558.577 31.3209 558.086 24.007 555.832 17.5276C555.513 16.7177 555.292 15.8832 554.9 15.1469L553.675 12.9135C553.283 12.1772 552.866 11.4164 552.351 10.7537C551.886 10.0665 551.347 9.40383 550.783 8.79025C548.577 6.31139 545.93 4.29886 543.038 2.94899C537.279 0.15107 530.612 0.371952 525.563 2.87535C523.015 4.12705 520.858 5.96779 519.387 8.17667C518.015 10.4346 517.231 12.9871 517.402 15.4415C517.794 20.4483 521.961 23.9579 525.784 24.1297C529.607 24.4488 532.843 22.2399 533.676 19.6874C534.583 17.1349 533.627 14.9997 532.843 13.9689C532.45 13.4044 532.034 13.0853 531.74 12.889C531.47 12.6926 531.323 12.5699 531.323 12.5699C531.323 12.5699 531.446 12.6926 531.715 12.9135C531.985 13.1098 532.377 13.4535 532.72 14.0425C533.431 15.0978 534.215 17.184 533.235 19.5156C532.377 21.8227 529.313 23.6634 525.858 23.2216C524.142 23.0253 522.451 22.1908 521.127 20.7919C519.804 19.4174 518.897 17.4294 518.824 15.3433C518.775 13.208 519.51 11.0482 520.784 9.10931C522.157 7.21949 524.093 5.64874 526.397 4.61792C531.004 2.53175 536.911 2.48266 541.984 5.10878C544.533 6.38502 546.886 8.22577 548.822 10.4837C549.312 11.0482 549.778 11.6373 550.195 12.2508C550.66 12.8399 551.003 13.5271 551.347 14.2143L552.425 16.2514C552.768 16.9386 552.964 17.6994 553.234 18.4357C555.243 24.3261 555.636 31.2227 553.846 37.5794C552.94 40.7454 551.396 43.6661 549.288 46.0222C547.058 48.2311 544.558 50.2191 541.641 51.3481C540.269 52.0598 538.7 52.3543 537.254 52.8697C535.735 53.1152 534.264 53.557 532.72 53.6306C531.2 53.7778 529.705 53.9251 528.21 53.8515C526.715 53.9006 525.245 53.7288 523.799 53.5815C520.907 53.2134 518.113 52.4034 515.392 51.8389C512.745 50.9063 510.148 50.0964 507.672 49.1392C502.746 47.1267 498.212 45.0896 494.021 43.2488C485.663 39.5183 478.433 37.383 473.311 36.6958C470.762 36.4013 468.752 36.254 467.404 36.3522C466.056 36.4013 465.346 36.4749 465.346 36.5731C465.346 36.8676 468.189 36.8185 473.115 37.8003C478.066 38.8065 485.002 41.1872 493.188 45.1141C497.305 47.0776 501.815 49.2128 506.765 51.3481C509.265 52.3789 511.961 53.2624 514.657 54.2687C516.079 54.6123 517.525 54.9559 518.971 55.2995C520.441 55.594 521.887 56.1094 523.456 56.2076C525 56.404 526.568 56.5758 528.161 56.5512C529.754 56.6494 531.372 56.5021 532.99 56.3549C534.632 56.2812 536.249 55.8149 537.891 55.545C539.484 55.005 541.175 54.6859 542.72 53.9006C545.955 52.6734 548.822 50.4645 551.371 47.912C553.846 45.2368 555.562 41.9235 556.591 38.3893Z" fill="white"/>
<path d="M372.556 61.8034C372.825 67.5956 376.109 72.946 380.521 76.6766C384.933 80.4072 390.422 82.6651 395.961 84.285C399.246 85.2422 402.603 86.003 405.74 87.3283C408.902 88.6537 411.892 90.6171 413.755 93.4641C412.995 89.7826 411.819 86.2239 409.931 82.9596C408.02 79.6954 405.348 76.8484 402.015 75.1058C398.731 73.3878 395.006 72.8233 391.354 72.3815C387.677 71.9398 384.099 71.7925 380.644 70.4426C377.212 69.1173 373.757 65.2886 372.556 61.8034Z" fill="white"/>
<path d="M400.912 63.7424C404.883 67.9639 410.863 69.8782 416.647 69.8046C422.431 69.731 428.043 67.8902 433.313 65.485C436.425 64.0615 439.464 62.4417 442.699 61.3863C445.959 60.3309 449.488 59.8646 452.772 60.7973C449.782 58.5147 446.596 56.5758 443.018 55.3487C439.464 54.1215 435.567 53.7043 431.916 54.5633C428.313 55.3978 425.127 57.4103 422.063 59.4719C419 61.5336 416.181 63.767 412.701 64.9941C409.221 66.2458 404.098 65.6077 400.912 63.7424Z" fill="white"/>
<path d="M531.764 83.1069C534.485 86.1994 537.695 89.1446 541.764 90.3963C543.749 91.0098 545.808 91.2307 547.842 91.0344C549.876 90.789 551.812 90.0036 553.381 88.801C556.543 86.2485 557.645 82.2479 557.106 78.8855C556.861 77.1675 556.052 75.6458 555.097 74.3941C554.043 73.2161 552.842 72.2589 551.543 71.7189C548.969 70.5409 546.249 70.5163 544.166 71.2771C542.058 71.9644 540.612 73.4615 540.024 74.885C539.46 76.3576 539.779 77.6093 540.122 78.321C540.514 79.0328 540.857 79.2537 540.833 79.2782C540.857 79.2537 540.514 78.9837 540.22 78.2719C539.975 77.5847 539.803 76.3576 540.416 75.0813C541.568 72.4798 546.47 70.5654 550.881 73.0197C551.984 73.5597 552.94 74.4678 553.749 75.474C554.459 76.5539 555.048 77.7811 555.146 79.18C555.464 81.9289 554.337 85.1195 551.886 86.8866C550.66 87.7456 549.165 88.3101 547.548 88.4574C545.93 88.5555 544.239 88.3346 542.597 87.7947C539.313 86.7393 536.47 84.1378 533.921 81.2417C528.921 75.1795 524.681 68.6265 520.147 63.227C519.069 61.828 517.941 60.5272 516.79 59.3001C515.638 58.0729 514.608 56.8212 513.456 55.7413C511.226 53.5079 508.922 51.6426 506.766 50.0473C502.427 46.8567 498.359 45.0651 495.492 44.2061C492.624 43.3225 490.957 43.1998 490.933 43.347C490.737 43.9115 497.428 45.0651 505.54 51.6672C507.55 53.3116 509.682 55.2014 511.765 57.4348C512.844 58.5147 513.824 59.791 514.902 60.9936C515.981 62.2207 517.059 63.497 518.088 64.8959C522.451 70.2709 526.495 76.7257 531.764 83.1069Z" fill="white"/>
<path d="M528.799 14.7052C528.725 15.3434 528.774 16.006 528.75 16.6687C528.725 16.9878 528.701 17.3314 528.578 17.6259C528.382 18.0922 527.941 18.4358 527.475 18.6567C525.956 19.3684 524.02 18.8285 522.819 17.6504C521.618 16.4723 520.613 14.9752 520.417 13.3063C520.221 11.6373 520.319 9.8457 521.544 8.10314C521.324 7.98042 520.343 8.10314 520.196 8.29949C518.75 10.0666 518.309 12.4473 518.211 14.7298C518.162 15.7606 518.162 16.8405 518.407 17.8468C519.192 21.2583 522.549 23.7617 526.054 23.9089C528.872 24.0316 531.813 22.6572 533.186 20.2029C534.289 18.264 534.215 15.687 532.99 13.8217C531.691 11.8582 529.093 12.1528 528.799 14.7052Z" fill="white"/>
<path d="M545.66 76.873C545.66 75.2041 544.312 73.8542 542.645 73.8542C540.979 73.8542 539.631 75.2041 539.631 76.873C539.631 78.542 540.979 79.8918 542.645 79.8918C544.337 79.8918 545.66 78.542 545.66 76.873Z" fill="white"/>
<path d="M379.149 53.9987C377.678 53.4588 377.09 51.5199 377.212 49.9737C377.384 48.1575 378.658 46.4149 378.193 44.6478C377.678 42.758 375.252 41.9235 373.389 42.5125C371.526 43.1016 370.129 44.6723 368.978 46.2676C370.742 41.4817 375.791 38.5611 380.815 37.8248C381.894 37.6775 385.521 39.6165 386.06 40.3037C387.678 42.2917 388.119 44.746 387.996 47.2985C387.825 50.9799 384.099 55.864 379.149 53.9987Z" fill="white"/>
<path d="M358.096 45.9486C358.831 47.2984 358.709 48.6729 358.415 49.9491C358.096 51.299 356.895 52.4034 356.822 53.8024C356.748 55.3486 358.17 56.6494 359.689 56.9194C361.209 57.2139 362.753 56.723 364.174 56.1094C363.464 57.0421 362.483 57.7538 361.405 58.1465C360.326 58.5392 359.174 58.6128 358.047 58.5883C355.743 58.5392 353.17 57.9502 351.92 56.0113C351.503 55.3486 351.087 54.5387 350.94 53.7778C350.572 52.0107 350.523 50.17 351.209 48.5011C351.748 47.2003 352.778 46.0222 353.979 45.3104C354.493 44.9914 355.278 44.6478 355.89 44.746C356.601 44.8687 357.655 45.1141 358.096 45.9486Z" fill="white"/>
<path d="M334.249 78.6891C334.249 76.7747 332.705 75.2285 330.794 75.2285C328.882 75.2285 327.338 76.7747 327.338 78.6891C327.338 80.6034 328.882 82.1497 330.794 82.1497C332.705 82.1251 334.249 80.5789 334.249 78.6891Z" fill="white"/>
<path d="M245.234 47.3721C239.621 42.9298 233.739 38.9047 227.489 36.0577C221.264 33.2107 214.549 31.5663 208.127 32.0817C201.804 32.499 195.53 34.9778 192.025 39.7883C190.285 42.1199 189.231 44.8687 189.06 47.593C188.937 50.3418 189.77 52.9434 191.167 55.005C192.564 57.0667 194.599 58.5638 196.78 59.1037C198.961 59.6437 201.143 59.3492 202.907 58.5638C204.696 57.7784 206.069 56.4531 206.853 54.9805C207.539 53.4343 207.711 51.8881 207.441 50.5873C207.025 47.9121 205.432 46.2431 204.255 45.5805C203.079 44.8687 202.294 44.8196 202.343 44.746C202.319 44.7951 203.079 44.8933 204.206 45.6786C205.309 46.3904 206.73 48.1084 207 50.6609C207.196 51.9126 206.927 53.3361 206.265 54.686C205.481 55.9868 204.182 57.0912 202.564 57.7293C200.946 58.3674 198.961 58.5638 197.099 57.9993C195.236 57.4593 193.52 56.0849 192.368 54.2197C191.216 52.3789 190.579 50.0719 190.775 47.7157C191.02 45.3596 192.001 43.0034 193.594 40.9909C196.78 36.8922 202.441 34.7815 208.299 34.5115C214.255 34.1679 220.48 35.7877 226.386 38.5611C232.318 41.359 237.979 45.2614 243.493 49.6301C249.008 53.9988 254.375 58.662 260.527 61.8771C266.605 65.1168 273.59 66.7367 280.06 65.4113C280.845 65.1904 281.653 65.0677 282.438 64.7732C283.197 64.4541 283.957 64.1596 284.692 63.8651C285.379 63.4479 286.065 63.0552 286.751 62.638C287.437 62.2453 288.001 61.6808 288.614 61.1899C290.967 59.1283 292.756 56.5758 293.761 53.7533C294.128 52.3053 294.52 50.8818 294.447 49.4092C294.594 47.9611 294.226 46.5131 293.785 45.1878C292.78 42.5617 290.991 40.4755 288.957 39.0274C286.898 37.5794 284.496 36.794 282.193 36.7695C279.889 36.8186 277.708 37.653 276.212 39.1011C274.717 40.5491 273.958 42.3408 273.639 43.9852C273.32 45.6541 273.419 47.2003 273.713 48.5502C274.301 51.2745 275.967 52.968 277.217 53.6306C277.855 53.9988 278.369 54.146 278.737 54.1951C279.105 54.2687 279.276 54.2687 279.276 54.2197C279.276 54.1706 279.129 54.0724 278.81 53.9006C278.492 53.7533 278.026 53.5324 277.511 53.1398C276.458 52.3789 275.159 50.8082 274.791 48.3293C274.423 45.9732 274.791 42.5371 277.291 40.2546C278.516 39.1747 280.281 38.5611 282.168 38.5857C284.055 38.6593 286.04 39.371 287.756 40.6473C289.472 41.9235 290.942 43.7397 291.702 45.9241C292.021 47.0285 292.315 48.1329 292.168 49.3601C292.217 50.5627 291.849 51.7408 291.53 52.9679C289.717 57.6066 285.232 61.828 279.521 62.7852C273.835 63.8897 267.487 62.4171 261.801 59.3492C256.042 56.3549 250.846 51.8144 245.234 47.3721Z" fill="white"/>
<path d="M141.023 47.4948C135.41 43.0524 129.577 39.0274 123.327 36.1313C117.127 33.2352 110.411 31.5908 104.015 32.0571C100.853 32.3025 97.6913 32.818 94.9218 34.1678L93.8679 34.6341L92.8876 35.2232C92.2504 35.6404 91.5886 36.0086 90.9759 36.4258C89.7995 37.3584 88.7211 38.3892 87.8388 39.5428C86.0252 41.8253 84.9713 44.5741 84.7262 47.2739C84.4811 50.0227 85.2899 52.6488 86.6379 54.7104C87.9859 56.7966 89.9711 58.3428 92.1278 58.9564C94.2846 59.57 96.4659 59.3491 98.255 58.6128C100.02 57.8765 101.539 56.6739 102.299 55.1768C103.059 53.7042 103.377 52.158 103.157 50.8326C102.863 48.1329 101.294 46.4394 100.118 45.7522C98.9412 45.0404 98.1569 44.9914 98.206 44.9423C98.1815 44.9914 98.9412 45.0895 100.069 45.8504C101.172 46.5621 102.593 48.3047 102.716 50.8572C102.887 52.1089 102.495 53.5324 101.735 54.8086C100.975 56.1339 99.5539 57.1402 97.9364 57.7293C96.2943 58.3183 94.3336 58.441 92.4709 57.8029C90.6328 57.1893 88.9417 55.7658 87.8388 53.9005C86.7359 52.0352 86.0987 49.7036 86.4173 47.372C86.7114 45.0404 87.6918 42.6598 89.3583 40.6963C90.1671 39.69 91.1475 38.831 92.2013 38.0211C92.765 37.653 93.3533 37.3339 93.9415 36.9903L94.8238 36.4749L95.7796 36.1067C98.304 34.9532 101.196 34.5605 104.137 34.3887C110.068 34.0697 116.293 35.714 122.175 38.5365C128.082 41.359 133.744 45.2859 139.233 49.6546C144.748 54.0478 150.115 58.6864 156.267 61.877C162.37 65.0677 169.355 66.663 175.8 65.2885C182.344 64.0123 187.442 59.1282 189.403 53.5569C189.574 52.8206 189.746 52.1089 189.893 51.3971C190.089 50.6854 189.991 49.9491 190.04 49.2128C190.187 47.7647 189.77 46.3167 189.305 45.0159C188.3 42.3898 186.462 40.3282 184.427 38.9047C182.344 37.5057 179.967 36.6958 177.638 36.7449C175.335 36.8185 173.153 37.653 171.683 39.1501C170.237 40.6472 169.624 42.537 169.428 44.206C169.207 45.8995 169.453 47.4457 169.869 48.7465C170.654 51.4217 172.369 52.9679 173.619 53.6305C174.256 53.9742 174.771 54.1214 175.139 54.1705C175.482 54.2441 175.678 54.2441 175.678 54.195C175.678 54.146 175.531 54.0478 175.212 53.876C174.894 53.7287 174.428 53.5324 173.913 53.1151C172.859 52.3543 171.487 50.8572 170.923 48.4274C170.335 46.1203 170.457 42.6352 172.81 40.2545C173.962 39.1501 175.751 38.512 177.638 38.5365C179.526 38.5611 181.511 39.2973 183.251 40.5245C184.967 41.8007 186.462 43.5924 187.246 45.7522C187.589 46.8321 187.908 47.9611 187.736 49.1637C187.663 49.7527 187.761 50.3663 187.589 50.9553C187.442 51.5444 187.295 52.158 187.148 52.747C185.408 57.4102 180.923 61.6562 175.261 62.6624C169.6 63.816 163.227 62.3679 157.566 59.3491C151.831 56.453 146.611 51.9371 141.023 47.4948Z" fill="white"/>
<path d="M216.362 71.4979C214.696 74.3449 213.299 77.3146 212.931 80.6525C212.76 82.2969 212.882 84.0394 213.495 85.6102C213.764 86.4201 214.279 87.1073 214.745 87.7945C215.333 88.3836 215.872 89.0217 216.558 89.4144C219.181 91.2306 222.44 91.3778 225.014 90.4207C227.563 89.3408 229.278 87.3282 230.21 85.3402C232.072 81.3397 231.215 77.0446 228.911 75.7439C227.857 75.0812 226.828 75.1548 226.239 75.3021C225.627 75.4739 225.406 75.7439 225.382 75.7193C225.382 75.7439 225.651 75.4984 226.264 75.4248C226.828 75.3512 227.783 75.4248 228.666 76.112C230.504 77.4128 230.871 81.3151 228.935 84.6776C227.979 86.3465 226.386 87.8682 224.328 88.5799C222.318 89.1444 219.769 88.899 217.931 87.4264C215.97 86.1011 215.259 83.5977 215.627 80.9715C215.97 78.3209 217.294 75.5475 218.813 72.9705C221.852 67.7182 226.411 63.7913 231.019 61.3125C235.7 58.8827 240.479 57.9255 244.498 57.8028C252.611 57.5819 257.39 60.0608 257.561 59.5208C257.635 59.349 256.532 58.6618 254.351 57.7292C252.145 56.8702 248.787 55.913 244.498 55.7903C240.234 55.6676 235.013 56.4529 229.842 58.9809C224.744 61.5088 219.72 65.7302 216.362 71.4979Z" fill="white"/>
<path d="M3.99511 37.6038C2.18147 31.2471 2.59812 24.3505 4.60783 18.4601C4.87742 17.7238 5.07349 16.963 5.41661 16.2758L6.49499 14.2387C6.83812 13.5515 7.18124 12.8888 7.6469 12.2752C8.06355 11.6371 8.52921 11.0481 9.01938 10.5081C10.9556 8.25017 13.3084 6.40944 15.8573 5.13319C20.9306 2.53162 26.8372 2.55616 31.4448 4.66687C33.7486 5.69769 35.6848 7.26844 37.0573 9.15826C38.3317 11.0972 39.067 13.257 39.018 15.3922C38.9199 17.4784 38.0376 19.4664 36.7141 20.8408C35.3907 22.2398 33.6751 23.0742 31.984 23.2706C28.5283 23.7124 25.4647 21.8471 24.6069 19.5646C23.6265 17.233 24.4108 15.1468 25.1216 14.0914C25.4892 13.527 25.8568 13.1833 26.1264 12.9625C26.396 12.7416 26.5186 12.6189 26.5186 12.6189C26.5186 12.6189 26.3715 12.717 26.1019 12.9379C25.8078 13.1343 25.4157 13.4533 24.999 14.0178C24.2147 15.0486 23.2589 17.1593 24.1657 19.7364C24.9745 22.2889 28.2097 24.4977 32.0575 24.1787C35.8809 24.0069 40.0473 20.4972 40.4395 15.4904C40.5865 13.0115 39.8267 10.4836 38.4543 8.22562C36.9837 6.01674 34.827 4.15146 32.2781 2.9243C27.2293 0.420902 20.563 0.20002 14.8034 2.99794C11.9359 4.34781 9.28898 6.36034 7.0832 8.8392C6.5195 9.45278 5.98031 10.0909 5.51465 10.8027C4.97546 11.4653 4.58332 12.2016 4.19118 12.9625L2.96575 15.1959C2.57361 15.9567 2.35303 16.7912 2.03442 17.5766C-0.220374 24.056 -0.710547 31.3698 1.27465 38.4382C2.27951 41.9479 4.01962 45.2858 6.47049 47.9855C9.01938 50.538 11.8869 52.7469 15.122 53.9741C16.6661 54.7594 18.3572 55.0785 19.9502 55.6185C21.5923 55.8884 23.2099 56.3302 24.852 56.4284C26.4695 56.5756 28.0871 56.6983 29.6802 56.6247C31.2732 56.6493 32.8418 56.4775 34.3858 56.2811C35.9544 56.1829 37.4004 55.6675 38.8709 55.373C40.3414 55.0294 41.7629 54.6858 43.1844 54.3422C45.9049 53.3359 48.5763 52.4524 51.0762 51.4216C56.0515 49.2863 60.5611 47.1265 64.6785 45.1876C72.8644 41.2607 79.8004 38.88 84.7511 37.8738C89.7018 36.892 92.5448 36.9166 92.5203 36.6466C92.5203 36.5484 91.8096 36.4748 90.4616 36.4257C89.1136 36.3275 87.1039 36.4748 84.555 36.7693C79.4327 37.4565 72.2027 39.6163 63.8452 43.3223C59.6787 45.1631 55.1201 47.2001 50.1939 49.2127C47.7185 50.1699 45.1206 50.9798 42.4737 51.9124C39.7532 52.4769 36.9592 53.2869 34.0672 53.655C32.6212 53.8268 31.1507 53.9741 29.6557 53.925C28.1606 53.9986 26.6656 53.8513 25.1461 53.7041C23.6265 53.6305 22.156 53.1887 20.612 52.9432C19.166 52.4278 17.6219 52.1333 16.2249 51.4216C13.3084 50.2926 10.8085 48.3046 8.57823 46.0957C6.42147 43.6905 4.90193 40.7698 3.99511 37.6038Z" fill="white"/>
<path d="M185.286 61.8034C185.016 67.5956 181.732 72.946 177.321 76.6766C172.909 80.4072 167.419 82.6651 161.88 84.285C158.596 85.2422 155.238 86.003 152.101 87.3283C148.94 88.6537 145.95 90.6171 144.087 93.4641C144.847 89.7826 146.023 86.2239 147.91 82.9596C149.822 79.6954 152.493 76.8484 155.827 75.1058C159.111 73.3878 162.836 72.8233 166.488 72.3815C170.164 71.9398 173.742 71.7925 177.198 70.4426C180.629 69.1173 184.085 65.2886 185.286 61.8034Z" fill="white"/>
<path d="M156.904 63.7424C152.934 67.9639 146.954 69.8782 141.17 69.8046C135.386 69.731 129.773 67.8902 124.504 65.485C121.391 64.0615 118.352 62.4417 115.117 61.3863C111.857 60.3309 108.328 59.8646 105.044 60.7973C108.034 58.5147 111.22 56.5758 114.798 55.3487C118.352 54.1215 122.249 53.7043 125.901 54.5633C129.504 55.3978 132.69 57.4103 135.753 59.4719C138.817 61.5336 141.635 63.767 145.116 64.9941C148.62 66.2458 153.718 65.6077 156.904 63.7424Z" fill="white"/>
<path d="M23.9207 81.217C21.3718 84.1131 18.5288 86.7147 15.2446 87.77C13.6025 88.31 11.9114 88.5309 10.2939 88.4327C8.67629 88.2854 7.18126 87.7209 5.95583 86.8619C3.52947 85.0948 2.40208 81.8797 2.69618 79.1554C2.81872 77.7564 3.38242 76.5293 4.09317 75.4494C4.90196 74.4431 5.8578 73.535 6.96068 72.9951C11.3722 70.5407 16.274 72.4551 17.4259 75.0567C18.0631 76.3329 17.8915 77.5601 17.6219 78.2473C17.3278 78.959 16.9847 79.229 17.0092 79.2536C16.9847 79.229 17.3524 79.0081 17.72 78.2964C18.0631 77.6092 18.3817 76.3329 17.818 74.8603C17.2298 73.4368 15.7838 71.9397 13.6761 71.2525C11.5928 70.4916 8.89687 70.5162 6.29895 71.6943C4.97548 72.2342 3.79907 73.1914 2.7452 74.3695C1.78936 75.6212 0.980576 77.1428 0.735489 78.8609C0.196299 82.2233 1.29919 86.2238 4.4608 88.7763C6.02936 89.9789 7.96554 90.7643 9.99976 91.0097C12.034 91.2061 14.0927 90.9852 16.0779 90.3716C20.1218 89.1444 23.3325 86.1747 26.0774 83.0823C31.3468 76.7011 35.3907 70.2462 39.7532 64.8467C40.7826 63.4478 41.861 62.1715 42.9394 60.9444C44.0178 59.7172 44.9981 58.4655 46.0765 57.3856C48.1597 55.1522 50.292 53.2624 52.3017 51.618C60.414 45.0159 67.1049 43.8623 66.9088 43.2978C66.8843 43.1506 65.2177 43.2488 62.3502 44.1568C59.4827 45.0159 55.4388 46.8075 51.0762 49.9981C48.9195 51.5934 46.6157 53.4587 44.3854 55.6921C43.2335 56.772 42.2041 58.0237 41.0522 59.2509C39.9003 60.478 38.7729 61.7788 37.6945 63.1778C33.1604 68.6018 28.9204 75.1794 23.9207 81.217Z" fill="white"/>
<path d="M29.0426 14.7052C29.1162 15.3434 29.0671 16.006 29.0917 16.6687C29.1162 16.9878 29.1407 17.3314 29.2632 17.6259C29.4593 18.0922 29.9004 18.4358 30.3661 18.6567C31.8856 19.3684 33.7973 18.8285 35.0227 17.6504C36.2237 16.4723 37.2285 14.9752 37.4246 13.3063C37.6207 11.6373 37.5226 9.8457 36.2972 8.10314C36.5178 7.98042 37.4981 8.10314 37.6452 8.29949C39.0912 10.0666 39.5323 12.4473 39.6304 14.7298C39.6794 15.7606 39.6794 16.8405 39.4343 17.8468C38.65 21.2583 35.2923 23.7617 31.7876 23.9089C28.9691 24.0316 26.0281 22.6572 24.6556 20.2029C23.5527 18.264 23.6507 15.687 24.8762 13.8217C26.1506 11.8582 28.724 12.1528 29.0426 14.7052Z" fill="white"/>
<path d="M12.1562 76.873C12.1562 75.2041 13.5042 73.8542 15.1708 73.8542C16.8374 73.8542 18.1854 75.2041 18.1854 76.873C18.1854 78.542 16.8374 79.8918 15.1708 79.8918C13.5042 79.8918 12.1562 78.542 12.1562 76.873Z" fill="white"/>
<path d="M178.693 53.9987C180.164 53.4588 180.752 51.5199 180.629 49.9737C180.458 48.1575 179.183 46.4149 179.649 44.6478C180.164 42.758 182.59 41.9235 184.453 42.5125C186.315 43.1016 187.712 44.6723 188.864 46.2676C187.099 41.4817 182.051 38.5611 177.026 37.8248C175.948 37.6775 172.321 39.6165 171.782 40.3037C170.164 42.2917 169.723 44.746 169.845 47.2985C170.017 50.9799 173.742 55.864 178.693 53.9987Z" fill="white"/>
<path d="M199.721 45.9486C198.985 47.2984 199.108 48.6729 199.402 49.9491C199.745 51.299 200.922 52.4034 200.995 53.8024C201.069 55.3486 199.647 56.6494 198.128 56.9194C196.608 57.2139 195.064 56.723 193.643 56.1094C194.353 57.0421 195.334 57.7538 196.412 58.1465C197.49 58.5392 198.642 58.6128 199.77 58.5883C202.074 58.5392 204.647 57.9502 205.897 56.0113C206.314 55.3486 206.73 54.5387 206.877 53.7778C207.245 52.0107 207.294 50.17 206.608 48.5011C206.068 47.2003 205.039 46.0222 203.838 45.3104C203.323 44.9914 202.539 44.6478 201.926 44.746C201.24 44.8687 200.162 45.1141 199.721 45.9486Z" fill="white"/>
<path d="M223.568 78.6891C223.568 76.7747 225.112 75.2285 227.024 75.2285C228.936 75.2285 230.48 76.7747 230.48 78.6891C230.48 80.6034 228.936 82.1497 227.024 82.1497C225.112 82.1251 223.568 80.5789 223.568 78.6891Z" fill="white"/>
<path d="M286.874 97.71C282.536 94.004 279.644 88.7763 278.688 83.1314H278.663C277.413 88.7272 274.252 93.7586 269.718 97.2437C275.918 100.042 278.443 108.975 278.443 108.975C278.443 108.975 281.58 99.7226 286.874 97.71Z" fill="white"/>
<path d="M288.442 86.7394C291.972 91.3289 297.192 95.084 302.069 95.5258C304.079 95.6976 306.432 95.0104 307.412 92.6052C308.294 90.4454 307.706 87.5493 306.383 85.8313C305.084 84.1132 303.221 83.3524 301.407 83.0579C299.594 82.7634 297.756 82.837 295.942 82.5179C289.692 81.389 284.472 75.4004 280.575 68.6756C279.84 67.3994 279.252 65.9513 278.565 64.6751C280.82 72.9216 283.761 80.6772 288.442 86.7394Z" fill="white"/>
<path d="M268.468 86.7394C264.939 91.3289 259.718 95.084 254.841 95.5258C252.831 95.6976 250.479 95.0104 249.498 92.6052C248.616 90.4454 249.229 87.5493 250.528 85.8313C251.827 84.1132 253.689 83.3524 255.503 83.0579C257.317 82.7634 259.155 82.837 260.968 82.5179C267.218 81.389 272.438 75.4004 276.335 68.6756C277.07 67.3994 277.659 65.9513 278.345 64.6751C276.09 72.9216 273.149 80.6772 268.468 86.7394Z" fill="white"/>
</g>
<defs>
<clipPath id="clip0_362_2606">
<rect width="557.841" height="108.063" fill="white" transform="matrix(1 0 0 -1 0 109)"/>
</clipPath>
</defs>
</svg>
