<svg width="375" height="289" viewBox="0 0 375 289" fill="none" xmlns="http://www.w3.org/2000/svg">
<g clip-path="url(#clip0_1_11503)">
<path d="M60.25 287.318C78.3635 261.698 106.853 247.052 134.701 234.02C133.032 226.698 133.844 219.161 137.383 212.447C141.761 204.145 150.087 199.826 156.251 193.105C156.595 192.728 157.203 192.963 157.252 193.457C158.003 200.478 158.787 207.776 156.688 214.655C154.849 220.697 150.77 224.264 146.557 228.516C162.929 220.898 179.274 212.99 194.016 202.489C197.982 199.668 201.79 196.632 205.469 193.439C205.523 193.366 205.58 193.303 205.634 193.23C205.578 193.16 205.539 193.073 205.49 192.989C205.417 193.345 204.964 193.624 204.583 193.338C199.089 189.134 195.667 182.767 195.236 175.842C194.682 166.963 200.308 160.018 203.043 151.981C203.204 151.519 203.772 151.357 204.085 151.777C209.097 158.605 214.635 166.271 214.701 175.119C214.746 180.674 212.413 185.735 209.189 190.133C209.64 189.71 210.078 189.281 210.519 188.861C216.154 181.636 219.168 173.332 219.972 164.125C219.991 163.909 220.344 163.938 220.345 164.148C220.361 171.64 218.202 178.815 214.354 185.086C217.156 182.231 219.862 179.286 222.439 176.216C224.469 170.013 225.746 163.742 225.531 157.146C225.372 152.436 224.652 153.499 221.633 156.336C218.564 159.221 214.531 162.075 214.244 166.674C214.216 167.204 213.401 167.29 213.397 166.727C213.298 160.248 221.058 155.414 225.208 151.515C225.548 151.195 226.076 151.356 226.132 151.836C227.092 159.676 226.383 167.6 223.499 174.933C225.871 172.051 228.15 169.088 230.31 166.032C233.295 161.822 235.955 157.497 238.378 153.093C238.921 151.722 239.604 150.438 240.426 149.242C246.933 136.553 251.642 123.172 256.239 109.373C246.523 111.827 236.742 111.645 227.096 108.828C227.009 108.801 226.933 108.77 226.873 108.723C206.472 106.382 190.503 91.1038 184.954 71.5715C184.758 70.86 185.526 70.4235 186.086 70.8183C191.261 74.5157 197.281 73.7986 203.238 73.8108C198.393 70.1062 193.418 67.5402 187.341 66.0608C186.859 65.9399 187.012 65.2148 187.509 65.3092C193.675 66.4494 199.791 69.422 204.319 73.8269C204.699 73.8369 205.069 73.8501 205.449 73.8601C204.192 70.6901 202.18 68.9597 201.923 65.0787C201.566 59.8239 201.753 55.1904 199.977 50.0731C199.831 49.6553 200.24 49.1024 200.699 49.253C208.214 51.6513 219.036 53.2355 224.287 59.8427C225.212 55.159 226.15 50.5153 225.806 45.6105C225.773 45.1337 226.334 44.7088 226.776 44.9759C232.188 48.2755 236.969 52.3994 241.006 57.1732C237.502 49.2151 232.568 42.3174 226.231 36.2272C225.97 35.9684 226.334 35.5517 226.616 35.8041C233.547 42.0894 238.727 49.8489 242.117 58.5192C242.566 59.0829 243.017 59.6567 243.449 60.237C241.981 54.9425 242.711 49.314 245.777 44.6356C250.001 38.188 257.533 34.9116 261.264 28.0364C261.431 27.728 261.929 27.5557 262.193 27.8579C268.813 35.3735 272.738 44.9448 272.173 55.0266C272.418 54.8588 272.666 54.7011 272.911 54.5333C272.879 54.433 272.866 54.3263 272.918 54.2101C275.754 47.3471 280.065 41.5133 285.704 36.7675C283.721 36.5669 282.721 34.0556 283.315 32.2914C284.104 29.9657 287.179 28.573 289.477 29.2696C291.592 29.9146 292.308 32.54 291.323 34.3974C290.505 35.9131 288.718 36.524 287.079 36.2564C281.448 41.0222 277.062 46.9686 274.136 53.7276C279.116 50.5788 284.622 48.1344 289.998 45.7989C290.299 45.6682 290.744 45.8787 290.815 46.1992C291.151 47.6517 291.404 49.1201 291.614 50.5915C296.145 47.5654 300.749 44.66 305.435 41.8719C305.844 41.6289 306.282 41.886 306.348 42.3297C307.572 50.0613 307.665 58.2029 305.472 65.7879C305.93 65.662 306.395 65.5561 306.843 65.4334C310.967 60.0145 316.384 55.75 322.794 53.3568C321.858 52.4522 321.728 50.7117 322.362 49.5876C323.53 47.5051 326.603 47.3087 328.522 48.3385C330.4 49.348 331.821 51.7563 330.355 53.7029C328.572 56.0732 325.462 55.0963 323.251 54.0506C323.198 54.0235 323.155 53.9931 323.122 53.9595C323.112 53.9627 323.095 53.9792 323.085 53.9825C317.26 56.5407 312.279 60.166 308.317 65.0564C311.547 64.3116 314.833 63.8138 318.035 63.4653C318.743 63.3915 318.975 64.2133 318.634 64.7001C314.79 70.1281 313.609 76.5557 311.157 82.619C309.21 87.4338 306.291 91.7435 302.511 95.3127C295.841 101.599 286.889 105.423 277.711 105.322C277.832 105.56 277.802 105.88 277.541 106.031C271.409 109.729 264.505 110.665 257.684 108.629C257.655 108.849 257.516 109.038 257.242 109.115C257.182 109.135 257.118 109.144 257.058 109.164C253.305 121.627 249.404 133.772 243.914 145.391C245.236 144.266 246.689 143.276 248.294 142.48C251.414 140.918 254.874 140.098 258.336 139.799C263.353 139.373 268.34 140.806 273.312 140.14C273.706 140.09 274.005 140.569 273.812 140.897C270.404 146.782 266.727 152.931 260.496 156.186C253.494 159.833 245.14 159.3 237.538 158.624C236.992 158.579 237.054 157.607 237.611 157.648C243.985 158.024 250.767 158.6 256.921 156.478C260.689 155.171 263.738 152.978 266.394 150.049C267.267 149.08 272.526 143.228 272.032 141.871C271.762 141.139 265.733 140.973 265.173 140.921C261.751 140.588 258.429 140.599 255.047 141.249C250.202 142.173 245.901 144.405 242.761 147.79C241.299 150.743 239.723 153.655 238.025 156.529C244.152 152.677 250.766 149.853 257.625 147.58C257.866 147.502 257.996 147.87 257.755 147.948C250.929 150.287 244.588 153.511 238.389 157.175C238.121 157.339 237.853 157.127 237.822 156.894C237.686 157.126 237.55 157.358 237.412 157.58C229.019 171.399 218.497 183.913 206.269 194.509C202.527 197.745 198.652 200.747 194.663 203.564C202.784 201.183 211.046 200.815 219.369 202.454C219.726 202.527 219.885 202.985 219.629 203.256C214.708 208.612 208.797 213.268 201.978 215.938C202.027 215.955 202.067 215.975 202.12 216.002C206.22 218.121 209.423 221.481 213.868 222.99C214.394 223.174 214.517 223.898 213.934 224.12C199.782 229.414 178.467 234.909 168.589 219.168C148.763 229.441 127.811 237.809 108.315 248.695C107.742 249.013 107.182 249.338 106.612 249.666C114.213 246.19 123.539 243.696 131.868 244.359C139.387 244.951 144.355 251.506 151.713 252.526C152.306 252.612 152.349 253.395 151.939 253.705C137.784 264.581 116.546 266.131 104.644 251.055C104.588 250.985 104.575 250.911 104.586 250.841C87.9002 260.575 72.6454 272.405 60.9774 287.991C60.6058 288.488 59.8949 287.832 60.25 287.318ZM289.951 34.1655C290.815 33.1334 290.649 31.2492 289.361 30.6248C287.867 29.9119 285.553 30.8814 284.749 32.2373C284.142 33.275 284.402 34.3869 285.139 35.1231C285.187 34.9302 285.369 34.7719 285.589 34.8338C287.039 35.273 288.865 35.4689 289.951 34.1655ZM324.308 52.9669C324.517 53.0986 324.585 53.3092 324.56 53.5055C325.893 53.9604 327.428 54.3171 328.656 53.5547C330.4 52.4703 329.622 50.4741 328.139 49.5914C326.999 48.9084 325.345 48.7673 324.194 49.5269C322.862 50.4117 323.025 52.1525 324.308 52.9669ZM200.169 75.2568C195.389 75.3183 190.951 75.1695 186.853 72.9177C192.733 91.3133 207.662 104.436 226.674 107.968C226.735 107.816 226.853 107.667 227.044 107.572C231.095 105.664 235.235 104.481 239.476 103.985C223.581 98.471 206.538 91.7006 194.593 79.44C194.342 79.1779 194.689 78.7777 194.967 79.0201C208.413 90.6074 224.02 96.5687 240.275 103.062C240.631 103.202 240.644 103.619 240.467 103.897C241.556 103.8 242.654 103.733 243.748 103.722C235.128 101.748 228.359 95.1105 225.162 86.8651C224.586 85.3906 224.126 83.867 223.774 82.3311C223.65 82.36 223.524 82.3456 223.398 82.2645C215.858 77.5267 209.23 75.1294 200.169 75.2568ZM212.309 54.203C210.058 53.4802 207.79 52.8073 205.542 52.0945C204.418 51.7381 203.283 51.385 202.159 51.0286C201.624 51.2571 201.583 51.6467 202.022 52.1803C201.836 53.1151 202.82 55.5762 202.964 56.6372C203.225 58.6121 203.207 60.578 203.208 62.5707C203.21 65.5265 203.228 67.8792 204.812 70.6555C205.341 71.5699 205.885 72.1911 206.342 72.9182C206.644 72.3444 207.626 72.5696 207.446 73.2811C207.39 73.5205 207.325 73.7632 207.269 74.0026C207.752 74.0569 208.238 74.1211 208.718 74.1986C213.533 75.0005 217.952 77.1818 222.013 79.8331C215.29 73.7129 210.203 66.0009 207.46 57.3096C207.369 57.0289 207.781 56.8959 207.888 57.1601C211.401 65.9014 216.381 73.3159 223.302 79.7045C222.722 76.0939 222.614 72.3974 222.912 68.7579C223.127 66.0639 223.606 63.429 224.114 60.8176C220.974 57.1046 216.835 55.6522 212.309 54.203ZM231.841 50.0153C230.94 49.321 229.794 48.2079 228.743 47.8056C226.6 46.9704 227.485 47.2381 227.318 49.3626C227.139 51.7236 226.96 54.018 226.485 56.3531C225.141 63.0325 223.598 69.5436 224.207 76.4334C225.288 88.6623 232.547 100.246 245.102 102.631C241.3 99.8522 238.143 96.4324 235.604 92.3148C235.371 91.9362 235.596 91.3317 236.097 91.3361C238.044 91.3598 239.95 91.5964 241.784 92.0223C236.454 83.5583 233.883 73.6157 233.463 63.6751C233.452 63.4684 233.765 63.4445 233.79 63.658C234.769 74.0933 238.072 83.146 242.958 92.3291C247.329 93.5737 251.263 95.9673 254.338 99.4798C254.356 99.2967 254.361 99.1068 254.38 98.9236C252.975 96.8753 253.735 93.3964 253.57 91.0691C253.209 85.9375 252.149 80.8765 250.437 76.0264C246.848 65.8149 240.384 56.6546 231.841 50.0153ZM267.692 38.1828C266.59 35.8372 265.303 33.0535 263.446 31.1845C261.833 29.5576 262.219 30.0641 260.845 31.0951C260.237 31.5463 259.488 32.8294 259.013 33.3484C256.094 36.5618 252.431 39.019 249.43 42.1484C244.387 47.4326 242.872 54.2005 244.9 61.196C244.991 61.51 244.815 61.7551 244.591 61.8498C245.854 63.7002 247.037 65.61 248.085 67.6185C250.519 72.2683 252.357 77.2328 253.449 82.3608C253.542 82.7848 253.601 83.2085 253.681 83.6257C253.638 78.2471 254.146 72.8566 255.12 67.5701C256.804 58.4444 261.483 49.7014 261.541 40.3483C261.542 40.2816 261.649 40.2692 261.651 40.3459C262.064 48.5169 258.147 56.0836 256.412 63.9192C254.342 73.2915 254.137 82.6367 254.891 92.1369C255.616 82.4797 256.685 72.7555 262.343 64.6042C264.879 60.9609 268.025 58.0061 271.525 55.4908C271.308 49.4708 270.275 43.6703 267.692 38.1828ZM254.545 97.0324C254.631 95.9635 254.705 94.8878 254.775 93.8021C254.618 93.8307 254.429 93.7591 254.394 93.5488C254.382 93.4421 254.373 93.3454 254.36 93.2386C254.344 94.5614 254.358 95.9078 254.545 97.0324ZM289.562 48.8408C288.211 47.4727 288.156 48.0221 286.364 48.8228C285.027 49.4209 283.707 50.0358 282.394 50.6708C279.75 51.9572 277.149 53.3074 274.669 54.8952C269.591 58.1531 265.247 62.2371 262.099 67.4179C256.481 76.6858 256.551 88.3893 255.717 98.9787C258.552 93.9984 262.702 90.1326 267.832 87.6549C273.113 78.3075 278.345 68.9429 283.584 59.565C283.719 59.333 284.064 59.5093 283.955 59.7549C279.498 69.1129 274.427 78.3256 268.964 87.145C269.557 86.8869 270.153 86.6389 270.768 86.4177C271.247 86.2519 271.62 86.6851 271.576 87.1312C270.884 93.2232 268.119 98.9005 263.233 101.963C263.527 101.946 263.827 101.949 264.114 101.945C272.695 97.1112 279.957 90.6668 284.856 81.9857C287.549 77.2175 289.36 71.9816 290.301 66.5949C290.937 62.8683 292.688 51.9938 289.562 48.8408ZM305.789 46.7734C305.655 45.3994 305.969 44.2458 304.502 43.8231C303.817 43.6238 301.06 45.9323 300.497 46.2806C297.574 48.1111 294.691 49.9953 291.821 51.9196C292.729 60.0083 291.711 68.1434 288.956 75.6003C290.025 74.3467 291.193 73.2273 292.44 72.2152C296.767 66.8414 299.069 60.3503 300.993 53.7159C301.014 53.6428 301.124 53.6737 301.1 53.7368C299.453 59.6506 297.838 65.7312 294.368 70.7725C297.54 68.6176 301.12 67.0728 304.86 65.9525C305.751 59.5524 306.438 53.2737 305.789 46.7734ZM304.55 91.0218C310.779 83.3721 311.538 73.3053 316.612 65.1323C306.176 66.4239 296.399 69.3408 288.986 77.2734C288.754 77.5146 288.481 77.4922 288.279 77.3472C283.991 87.7796 276.265 96.6992 265.668 101.951C267.169 101.998 268.658 102.181 270.126 102.47C269.995 102.303 269.97 102.056 270.205 101.925C283.39 94.4623 295.292 85.1894 305.766 74.2412C305.948 74.0495 306.255 74.3154 306.077 74.5171C295.754 85.6932 283.881 95.0897 270.636 102.571C270.636 102.571 270.636 102.571 270.626 102.575C272.536 102.998 274.425 103.628 276.271 104.47C287.182 104.032 297.547 99.6078 304.55 91.0218ZM257.095 107.701C260.222 108.595 263.444 108.993 266.699 108.672C267.774 108.568 275.772 107.212 275.77 105.629C275.769 104.322 269.185 103.262 267.836 103.1C266.356 102.914 264.889 102.901 263.444 102.992C263.424 102.998 263.407 103.015 263.387 103.021C263.31 103.057 263.24 103.047 263.173 103.013C262.242 103.081 261.311 103.183 260.389 103.348C259.287 103.748 258.117 104.038 256.858 104.19C256.251 104.265 256.063 103.307 256.648 103.129C257.689 102.815 258.721 102.58 259.767 102.386C265.845 100.234 269.199 94.3548 270.207 87.9723C263.802 90.4854 258.822 95.0737 255.811 101.329C255.719 101.525 255.572 101.617 255.415 101.645C255.298 101.694 255.174 101.69 255.068 101.602C254.902 101.534 254.757 101.393 254.698 101.212C251.919 98.1357 247.456 94.3079 242.945 93.0754C242.78 93.184 242.56 93.1887 242.409 92.9608C242.402 92.9407 242.389 92.934 242.382 92.9139C241.304 92.6645 240.224 92.5818 239.166 92.7025C237.146 92.9347 237.765 92.7236 238.381 94.2185C238.978 95.6532 240.751 97.1616 241.838 98.2608C244.207 100.651 246.951 102.554 249.898 104.159C250.545 104.515 250.182 105.452 249.473 105.349C242.427 104.404 235.681 105.345 229.218 108.054C238.341 110.386 247.575 110.314 256.74 107.838C256.792 107.722 256.922 107.646 257.095 107.701ZM206.397 192.297C211.133 186.304 214.625 179.683 213.206 171.694C212.462 167.505 210.656 163.737 208.456 160.119C207.582 158.685 205.024 153.688 203.594 153.962C202.903 154.086 200.193 161.306 199.659 162.398C197.961 165.925 196.509 169.595 196.361 173.562C196.07 181.031 199.589 187.799 205.268 192.474C204.578 190.305 205.898 186.502 205.93 184.542C206.019 178.712 205.279 172.96 203.999 167.284C203.932 166.974 204.39 166.815 204.467 167.122C205.579 171.247 206.367 175.366 206.66 179.634C206.816 181.898 206.851 184.167 206.763 186.432C206.736 187.105 206.147 190.839 205.887 192.296C206.044 192.201 206.238 192.183 206.397 192.297ZM209.281 211.097C210.617 210.189 211.928 209.2 213.181 208.175C212.997 208.323 217.867 204.391 217.825 203.817C217.708 201.807 208.07 202.342 206.532 202.419C202.28 202.641 198.126 203.475 194.045 204.705C193.761 204.786 193.543 204.624 193.471 204.404C187.532 208.527 181.366 212.259 175.049 215.729C175.584 215.567 176.126 215.425 176.654 215.277C176.6 215.073 176.655 214.833 176.897 214.722C186.403 210.453 196.381 208.158 206.76 207.516C207.031 207.495 207.053 207.908 206.783 207.929C197.323 208.673 188.296 210.96 179.563 214.536C184.019 213.505 188.574 212.952 193.106 213.424C195.961 213.719 198.743 214.437 201.34 215.646C204.048 214.217 206.747 212.824 209.281 211.097ZM212.119 223.544C206.299 221.041 201.992 216.221 195.446 214.938C186.807 213.246 178.465 216.009 170.232 218.316C169.796 218.545 169.36 218.775 168.924 219.004C180.188 232.449 197.577 228.799 212.119 223.544ZM135.427 233.11C140.8 225.383 145.09 217.153 148.611 208.43C148.714 208.164 149.186 208.322 149.087 208.597C146.002 217.368 141.685 225.551 136.433 233.206C138.544 232.224 140.654 231.243 142.745 230.268C143.361 229.981 143.988 229.689 144.604 229.402C144.611 229.388 144.618 229.375 144.624 229.362C150.022 223.321 155.2 218.934 156.504 210.418C157.087 206.631 156.967 202.795 156.656 198.987C156.623 198.61 156.667 195.318 155.972 195.089C155.909 195.065 153.774 197.205 153.445 197.489C148.2 202.185 142.201 205.918 138.659 212.212C135.083 218.605 134.076 225.984 135.427 233.11ZM150.013 253.508C144 252.019 139.618 247.002 133.465 245.802C124.829 244.121 115.031 247.487 106.979 250.699C116.333 252.957 125.839 253.693 135.453 252.911C135.68 252.893 135.69 253.233 135.476 253.257C125.572 254.444 115.881 253.856 106.194 251.528C118.302 263.814 136.437 263.156 150.013 253.508Z" fill="#444351"/>
<path d="M217.102 33.8414C217.636 31.6534 219.624 29.9147 221.964 30.3651C224.361 30.8192 226.306 33.3021 225.756 35.7499C225.704 35.966 225.572 36.0748 225.432 36.1202C225.491 36.2341 225.513 36.3709 225.451 36.5236C224.647 38.7325 222.013 39.6725 219.844 39.0004C217.616 38.3145 216.567 36.0294 217.102 33.8414ZM224.628 36.1032C224.686 36.0071 224.766 35.9478 224.844 35.9118C224.778 35.8113 224.726 35.6842 224.744 35.5344C224.928 33.6699 223.635 31.7959 221.71 31.4991C219.891 31.2233 218.503 32.724 218.24 34.4145C217.64 38.318 222.883 39.037 224.628 36.1032Z" fill="#444351"/>
<path d="M181.805 61.1071C183.924 60.6658 186.507 61.9013 187.017 64.0951C187.158 64.7028 186.324 65.0054 186.086 64.4069C184.737 61.0228 179.382 61.5691 179.858 65.5786C180.337 69.6315 185.731 68.7957 186.415 65.2861C186.468 65.0033 186.921 65.034 186.925 65.3206C186.981 67.517 185.093 69.2566 182.96 69.4479C180.74 69.6451 179.032 67.894 178.739 65.7855C178.458 63.6837 179.636 61.5646 181.805 61.1071Z" fill="#444351"/>
<path d="M170.032 219.001C179.507 220.81 188.923 221.232 198.507 220.05C198.73 220.022 198.754 220.368 198.533 220.406C188.957 221.852 179.365 221.708 169.874 219.782C169.365 219.681 169.526 218.91 170.032 219.001Z" fill="#444351"/>
</g>
<defs>
<clipPath id="clip0_1_11503">
<rect width="330.375" height="196.179" fill="white" transform="matrix(-0.951522 0.30758 0.30758 0.951522 314.359 0)"/>
</clipPath>
</defs>
</svg>
