<svg width="211" height="83" viewBox="0 0 211 83" fill="none" xmlns="http://www.w3.org/2000/svg">
<path fill-rule="evenodd" clip-rule="evenodd" d="M207.839 29.9497C207.856 30.2902 207.701 30.4484 207.442 30.5781C207.579 30.0792 207.579 30.0792 207.839 29.9497ZM133.168 19.3437C133.168 19.3437 133.168 19.3437 133.185 19.2813C133.323 19.1854 135.967 18.1047 136.745 18.5215C136.711 19.8551 134.413 21.3001 133.548 22.0004C133.756 21.6551 135.397 19.7597 133.168 19.3437ZM155.344 23.5376C154.203 24.4306 152.337 25.5246 150.937 26.1445C150.419 26.4036 149.9 26.6627 149.278 26.894C150.177 26.0689 153.323 24.388 154.48 23.836C154.722 23.7686 155.206 23.6335 155.344 23.5376ZM152.233 23.4822C152.873 23.1895 157.504 20.5776 157.747 22.5249C157.954 23.7913 154.238 25.9176 153.322 26.403C152.665 26.7581 150.419 28.0161 149.831 28.1217C150.972 28.0349 153.444 27.1749 154.428 26.8434C155.707 26.2579 157.021 25.5471 158.161 24.2513C160.131 21.9771 158.904 21.1665 156.415 21.6862C154.877 21.9987 153.218 22.7475 152.233 23.4822ZM147.221 25.8546L149.589 23.7576C155.949 18.5353 161.635 19.7745 160.323 23.3054C159.908 24.3994 158.958 25.4116 158.232 26.0167C157.488 26.6834 156.4 27.3896 155.501 27.8117C155 28.0085 154.602 28.2341 153.997 28.4028L152.51 28.9316C153.046 29.0129 153.962 28.9308 154.636 28.9163C155.742 28.9541 155.621 28.9876 156.33 28.4456C158.196 26.948 160.564 24.4475 160.943 21.8671C161.099 20.5 160.683 19.1767 159.508 18.5828C157.036 17.4285 153.614 19.7034 152.352 20.63C151.04 21.7416 148.085 24.348 147.221 25.8546ZM145.286 28.4069C145.407 28.7759 145.148 28.9056 144.975 29.1262L145.131 28.5651C145.286 28.4069 145.269 28.4692 145.286 28.4069ZM132.77 20.7782C131.267 20.9659 127.205 24.3404 126.532 25.5634L128.174 24.4736C129.159 23.7396 132.39 21.7475 132.77 20.7782ZM162.452 38.5992C161.726 38.3982 158.718 36.7599 157.854 36.2512C156.903 35.6524 154.31 34.1281 153.843 33.3948C155.9 34.0316 158.856 35.8577 160.62 37.1514C161.086 37.4827 162.158 38.4507 162.452 38.5992ZM165.131 41.4226C163.852 41.2026 162.487 40.0863 161.483 39.6742C162.279 40.0287 163.109 40.2585 163.073 39.1748C163.645 39.5337 164.647 40.7517 165.131 41.4226ZM127.015 23.0118C126.359 23.7696 124.838 25.2287 124.545 26.2891C124.32 27.1002 124.648 27.1233 124.873 27.5218C124.58 27.7762 118.789 30.1343 118.496 30.3886C118.721 29.981 120.034 28.8673 120.483 28.4547C121.952 27.1827 123.42 25.9107 124.855 24.7642L127.015 23.0118ZM162.176 41.6119C162.176 41.6119 165.443 43.9268 167.638 44.8704C168.33 45.1961 170.612 46.2307 170.249 44.7199C169.609 42.5954 166.514 39.6571 164.768 38.301C163.765 37.4863 160.896 35.3486 159.686 34.8793C160.602 35.6028 168.796 41.0951 166.135 42.641C165.062 43.2837 163.196 41.9613 162.176 41.6119ZM157.49 32.324C157.974 32.5923 159.478 33.2102 160.342 33.7179C161.206 34.2256 161.984 34.6424 162.832 35.2127C164.422 36.3243 165.822 37.3169 167.153 38.5581C168.572 39.8904 171.251 42.7146 171.58 44.7522C171.805 45.9563 171.045 46.6853 170.111 46.8296C167.363 47.0754 161.607 42.8629 159.67 41.3871C158.737 40.7259 151.684 35.1467 151.009 34.7587C151.234 35.1565 152.686 36.3649 153.118 36.82C155.262 38.7567 157.769 40.9948 159.982 42.6821C162.557 44.6714 168.193 48.5149 172.065 47.8412C174.986 47.374 173.723 44.6745 172.824 43.0831C170.403 38.921 162.123 34.1439 157.507 32.2616C151.82 29.8143 153.255 30.2787 148.07 30.4537C147.948 30.4873 147.845 30.4587 147.724 30.4922L147.483 30.5596L150.473 32.6637C149.729 30.9133 151.285 30.5385 152.875 30.8447C154.586 31.1163 155.969 31.7677 157.49 32.324ZM137.143 20.713C137.316 20.4925 137.748 20.1422 138.041 19.8879C138.837 19.0334 139.856 17.7719 140.305 16.5532C141.428 14.1115 140.08 12.9319 137.643 13.2647C132.285 14.0638 125.493 20.8453 121.744 24.7082C120.777 25.7834 115.558 30.9181 114.901 32.0795C115.644 31.8154 115.057 31.9213 116.283 30.7164C119.981 27.0405 122.21 25.0387 126.462 21.7846C128.466 20.1911 130.609 18.9045 132.994 17.9532C137.522 16.1181 139.442 17.6572 137.143 20.713ZM87.3136 24.8427C86.8128 25.8458 84.8428 28.12 84.0301 28.6333C84.3585 27.8517 84.9459 26.9396 85.4295 26.4024C85.8796 25.9893 86.9335 25.0059 87.3136 24.8427ZM48.4744 20.3318C48.3352 17.6077 46.1048 15.1771 42.8566 17.6343C40.8694 19.1655 39.3317 21.8957 38.088 24.7738C38.1052 24.7114 38.7444 21.5981 38.8652 21.1617C39.6076 18.077 41.1619 13.6733 43.4605 11.8257C44.1692 11.2837 45.3096 10.7933 46.4336 11.5743C47.8168 12.6285 48.3012 15.3147 48.3876 17.0174C48.5087 17.7892 48.5778 19.5542 48.4744 20.3318ZM138.135 45.7643C137.081 45.5395 129.958 41.4186 129.249 40.7525C130.701 41.1545 132.81 42.4097 134.072 43.0954C135.524 43.8996 136.838 44.801 138.135 45.7643ZM146.294 51.3811C145.688 49.5348 140.018 45.0106 138.531 44.3304C139.119 45.0301 140.087 45.5666 140.416 46.3967C140.589 46.9816 140.226 47.486 139.759 47.5581C139.171 47.6638 138.584 47.3668 138.065 47.2232C139.673 48.2718 144.082 51.3055 146.294 51.3811ZM123.769 37.5563C123.354 37.4414 121.851 36.421 121.367 36.1526C120.606 35.6735 119.724 35.2281 118.964 34.7489C120.381 34.8728 125.117 36.3188 126.655 36.8117C133.138 38.8082 140.674 42.2384 145.809 46.2785C147.659 47.6634 151.34 50.8994 151.22 53.3503C151.186 54.6839 149.89 54.929 148.784 54.8912C145.414 54.562 140.936 51.3749 138.291 49.2329C137.824 48.9022 137.375 48.5094 137.012 48.2075C137.513 48.4135 138.636 49.1944 139.207 49.5538C140.832 50.5407 145.033 53.1142 146.726 52.6436C147.798 52.4032 147.832 51.4724 147.4 50.6145C146 47.2047 137.028 41.6991 133.916 40.0321C132.274 39.1075 130.597 38.3075 128.886 37.6316C127.97 37.3108 126.846 36.9326 125.895 36.7363C124.183 36.4621 124.34 37.1102 123.769 37.5563ZM75.1835 38.4037C74.8901 38.658 74.5792 39.7808 74.4584 40.2172C74.5796 40.1836 74.4756 40.1548 74.5968 40.1213L75.426 39.5455C75.7021 39.3535 76.0829 39.1904 76.2897 38.845C76.5141 38.84 77.7933 37.8511 78.0694 37.6591C82.1996 34.4386 85.7594 31.6642 89.9416 28.2559C92.8617 25.7742 100.724 19.1559 100.36 13.2134C100.238 11.6353 99.5988 10.3171 98.1293 9.57462C96.5904 8.67866 94.6376 8.87619 93.2896 9.30831C87.9144 10.9759 83.63 17.1748 80.9173 22.131C79.9152 24.1363 77.1338 29.7446 76.5985 31.6778C77.7217 29.639 78.7231 27.6335 79.9331 25.685C89.4361 10.7246 98.9082 11.6017 96.2136 18.5101C95.4021 20.6353 93.8812 22.4969 92.6544 24.1044C90.3045 26.9454 86.6932 30.3096 83.9107 32.6952C83.0125 33.5203 80.0398 36.1888 78.7605 35.1634C77.2734 34.0804 79.7617 29.9346 80.47 28.5863C82.3708 25.3525 86.2065 19.9689 88.8337 19.3533C90.1644 18.9835 90.7526 20.0861 90.5276 21.2998C90.3379 22.389 89.6298 23.7367 89.0589 24.5861C88.1777 26.1551 85.3783 29.8112 83.8751 30.4025C83.2699 30.5705 82.6479 30.3983 82.4577 29.8758C82.2501 29.0121 83.1829 27.2569 83.7186 26.5319C84.3058 25.6206 85.0838 24.8285 85.7918 24.2862C86.2063 23.9983 86.6382 23.6481 86.9325 23.3932C87.2087 23.2012 87.3644 23.043 87.6067 22.9759C87.9523 22.9373 88.1256 23.1196 88.3327 23.1769C88.7642 22.4239 89.3523 21.5121 89.265 20.6153C88.4873 20.6013 86.8283 22.1563 86.1888 22.8525C84.0291 25.4105 80.0723 30.8276 79.6409 33.9985C80.4187 34.0125 83.9264 31.0224 84.8601 30.072C87.4002 27.7535 96.0923 19.7533 95.3486 15.9886C95.072 14.5688 93.1532 15.045 92.2718 15.405C86.3612 17.7969 81.6098 24.874 78.4658 30.9868C77.7913 32.2103 75.2692 37.2864 75.1835 38.4037ZM107.474 54.463C104.38 53.9418 99.5053 51.7866 96.6704 50.3296C94.7001 49.3813 88.8569 46.2858 88.2693 44.7799C89.4785 44.0409 95.4766 45.769 97.0152 46.2622C101.734 47.7702 108.286 50.7263 112.348 53.395C113.766 54.3245 117.811 57.0563 117.569 58.3325C115.668 59.552 107.181 56.3291 106.472 55.6622C107.267 55.6139 108.114 56.1841 108.822 55.6419C110.81 54.1107 105.399 51.4706 104.414 50.9965C101.25 49.5164 97.4994 48.1413 94.1458 46.9442C93.541 46.7096 92.1582 46.0582 91.7256 46.4082C91.2938 46.7585 91.5012 47.2186 91.7775 47.4301C92.4349 47.8815 105.468 52.0276 107.474 54.463ZM39.0588 38.2032C39.5082 38.1934 39.8017 37.9391 39.8538 37.3495C39.9919 36.8508 40.0089 36.3857 40.1472 35.8862C40.3194 34.86 41.4248 30.8683 42.7214 31.0259C43.689 31.1596 43.6725 32.4311 43.5513 33.2701C44.2592 31.5189 44.9675 29.3651 44.6561 27.6673C44.5349 26.8954 44.3964 25.7824 43.3419 26.3637C41.4062 27.3051 39.9037 30.7163 39.4025 32.9274C39.0062 34.3614 38.4361 37.2254 39.0588 38.2032ZM41.4955 37.8712L41.0468 38.6866C41.0292 38.3461 41.3061 38.1543 41.4955 37.8712ZM118.519 53.6943C119.038 53.838 121.026 55.5303 121.475 55.9231C122.443 56.8624 123.221 57.6826 123.74 58.6319C124.224 59.3028 125.071 60.6792 124.83 61.9555C124.64 63.4473 123.154 63.9755 122.134 64.0286C114.373 65.4384 96.2739 51.7643 95.4093 51.6599L102.445 55.2869C104.9 56.5036 107.475 57.6874 110.12 58.6212C112.471 59.4065 116.481 60.6512 118.261 59.4653C120.559 58.0203 116.722 54.9433 115.546 53.9466C111.76 51.0852 106.264 48.3542 101.423 46.4769C100.524 46.0936 86.6094 40.6959 86.904 44.8733C86.9561 45.089 86.9561 45.089 87.0075 45.3046C87.1801 45.4867 87.1801 45.4867 87.2322 45.7024C85.9187 45.2045 84.4665 44.3996 83.1869 43.7768C81.804 43.1254 80.2655 42.6322 78.8654 42.0432C80.2828 41.7645 87.0754 42.6379 88.8908 42.9393C96.1849 44.0195 103.237 45.9724 110.014 48.9229C112.399 49.9862 114.457 51.0258 116.652 52.3727L118.07 53.3022C118.259 53.421 118.467 53.4785 118.519 53.6943ZM46.0217 27.5756C46.626 26.1985 47.092 23.3064 47.161 21.8481C47.3323 16.3896 44.1701 17.3269 41.6468 20.791C40.7135 22.1442 39.9189 23.8042 39.2282 25.493C37.6563 29.5562 37.1383 32.636 37.0187 36.6986C37.0019 38.3727 36.7948 40.3297 37.1928 41.7151C37.6423 42.9143 38.1956 42.5298 38.9208 41.9252C39.6988 41.1331 39.4906 40.6727 39.5943 39.4933C38.5576 39.6089 38.0388 39.4653 37.6236 38.1422C37.3813 37.4039 37.4506 36.3484 37.5883 35.4469C37.8126 33.4276 38.3649 31.0293 39.2979 29.2733C40.2827 27.3303 43.1507 23.4239 45.0697 25.3656C45.5195 25.7586 45.779 26.4345 45.8478 26.9913C45.9345 27.0824 45.9 27.2071 45.9859 27.298L46.0217 27.5756ZM38.1616 45.4751C37.5568 45.2405 37.2798 44.2234 37.2967 43.7582C38.1439 43.9257 38.5239 43.7625 39.1981 43.3451C39.3366 43.2492 39.6473 42.9325 39.7688 43.3018C39.8036 43.5799 38.6973 45.1536 38.1616 45.4751ZM39.9323 5.61113C39.535 5.8367 38.1523 8.40856 38.0315 8.84492C35.0772 15.0774 34.6811 21.7489 35.2705 28.4921C35.2532 29.3598 35.7388 35.2687 35.5311 35.6147C36.2049 33.5856 35.8738 23.8922 38.9834 16.2933C40.2619 13.2899 42.0065 10.6176 44.3227 9.91588C45.895 9.47877 47.4166 10.4371 48.1253 11.5058C48.8512 12.5123 49.1975 13.6828 49.4741 15.1026C50.582 20.3777 48.924 28.3793 46.9725 34.2175C45.4874 38.7753 43.5868 43.2173 41.1167 47.3002C40.443 48.5239 39.0605 50.2896 38.8012 50.8219C43.0866 46.6368 46.6986 43.2728 49.7217 37.5971C51.3111 34.6798 52.5892 31.2736 53.4177 27.8778C54.0221 25.6953 55.1786 19.9055 54.9707 17.8336C55.299 15.8431 54.8483 12.2266 54.5196 10.591C53.9659 8.15491 53.2046 6.06402 51.9777 4.44825C49.505 1.27937 45.6506 0.681826 42.2982 3.11096C41.8505 3.52394 40.1222 4.92542 39.9323 5.61113ZM12.6501 44.0508C12.7539 42.8706 12.8744 42.0315 13.4791 41.0571C14.4815 41.469 14.7068 44.6874 14.6387 46.1452C14.5004 47.45 13.914 51.5848 12.5139 51.8011C12.5483 50.4675 12.3401 48.7982 12.6166 47.3982C13.1006 47.2638 13.1873 47.3549 13.5152 46.9759C13.8259 46.6592 13.9813 46.0981 13.9818 45.6948C13.9984 44.8269 13.7216 44.2133 12.6501 44.0508ZM35.4672 53.5917C35.1392 53.9707 34.5168 54.201 34.0327 54.3362C34.188 53.7752 34.3781 53.0887 34.5162 52.59C34.5849 51.9379 34.7405 51.3761 34.7926 50.7865C35.086 48.5178 35.2409 46.3451 35.4133 44.1092C35.4652 43.1168 35.413 41.6921 35.6376 40.881C35.707 41.0344 35.8282 43.0152 35.9148 43.9117C36.0881 44.8993 36.4509 46.0074 37.2118 46.4865C38.9926 47.718 40.7895 44.4554 41.67 42.8863C42.6893 40.8186 43.7259 38.6886 44.5721 36.438L47.0248 29.1942C45.3501 35.6459 42.1892 44.2381 38.0418 49.5353C36.1237 52.0261 34.9487 52.2376 34.6373 52.5541C34.2231 53.2472 34.8798 53.6983 35.4672 53.5917ZM82.0871 68.718C81.1192 68.9869 75.8815 67.3352 74.5508 66.8995C75.1379 65.5847 73.3056 64.9431 72.0267 64.3205C69.1226 63.1136 64.3516 61.3897 61.3265 60.2156C59.2864 59.5165 59.9613 59.9047 59.3389 60.135C59.0624 59.9242 58.4921 59.565 58.4573 59.2869C61.0845 58.6712 68.7766 61.5404 71.4736 62.6899C74.9645 64.1936 79.5799 66.4792 82.0871 68.718ZM49.9524 56.1263C50.0736 57.3017 56.798 60.439 57.9389 60.7549C57.5236 60.2372 56.4863 59.5473 57.0917 58.5731C57.506 57.8824 58.5262 57.8286 59.5118 57.9001C65.5789 58.17 76.8143 63.1613 81.7418 66.7415C82.3814 67.2542 83.2116 67.8868 83.5048 68.4386C84.0929 69.5411 83.2456 70.1798 82.2607 70.1084C79.0286 70.0859 72.9094 67.586 69.5734 66.7293C70.1264 67.1509 76.6606 69.7658 77.7667 70.2071C80.792 71.3805 87.8274 73.7985 91.0069 72.7989C92.6138 72.2371 91.0925 70.4727 90.5046 69.7729C85.8885 64.6674 74.1166 59.9972 67.4792 58.1592C64.4715 57.3263 61.3253 56.5894 58.1968 56.1928C56.2607 55.926 51.1791 55.3242 49.9524 56.1263ZM51.0764 58.9217C49.8488 58.5146 47.0141 57.4612 45.3717 56.9392C43.315 56.3026 41.4137 55.9103 39.339 55.3358L39.9442 55.1678C40.1685 55.1628 40.4109 55.0957 40.6352 55.0907C44.0056 54.6138 47.013 54.2385 50.5042 54.1305C54.4449 54.0129 58.4547 54.0494 62.5688 54.5175C71.142 55.4141 80.3208 57.7546 87.8229 62.1148C92.0582 64.5637 97.8324 68.7139 99.6306 73.1063C100.357 74.919 100.409 77.1492 98.4047 77.9372C92.9087 80.0412 82.9687 74.8045 77.6278 71.9153C76.8497 71.4985 75.6053 70.7512 74.9998 70.5164C75.2763 70.7272 78.7338 71.9531 79.4425 72.2164C82.3984 73.2363 91.4391 76.0754 92.8897 72.8512C94.4793 69.1285 84.7125 63.6705 80.9609 61.8933C73.3893 58.185 61.0824 54.2401 52.3189 54.4317C51.0917 54.4275 49.0521 54.5346 48.7069 55.7814C48.1892 57.2496 50.3673 58.2555 51.0764 58.9217ZM14.9336 53.9493C15.9007 50.457 16.2285 46.8547 16.2619 43.5073C16.2612 40.6873 16.0008 36.7879 15.067 34.515C12.8531 29.2021 11.2474 36.2099 10.8678 39.1938C10.5227 41.6495 10.4197 44.0388 10.7484 46.4797C10.7656 47.2228 10.9732 48.0865 11.0256 48.7051C11.1641 48.6092 11.0256 48.7051 11.1813 48.5468C11.1986 48.4845 11.2158 48.4221 11.2331 48.3598L11.2503 47.0885C11.4402 46.4028 11.5265 46.0911 11.4749 45.472C11.3017 44.4844 11.2843 43.3378 11.5953 42.215C12.4239 38.8185 14.481 39.0526 15.4496 41.6036C16.4704 44.3704 16.0391 50.3611 13.8791 52.5163C13.4299 52.9289 13.2915 53.0248 12.6871 53.193C12.5839 55.1787 13.6562 57.3558 12.0141 57.2366C12.2733 57.5098 12.4121 57.8167 12.9475 57.8978C13.535 57.3893 13.708 57.1687 14.1742 56.2903C14.4847 55.5701 14.7092 54.7597 14.9336 53.9493ZM9.51712 26.7323C7.53114 33.904 8.57093 45.8752 10.4573 53.1788C10.7856 54.4115 10.9934 55.2745 11.5816 56.377L11.2007 52.5113C11.218 52.449 10.9588 52.1759 10.8894 52.0224C10.7168 51.8404 10.7341 51.7781 10.578 51.5335C9.95591 50.1523 9.62626 48.5173 9.43599 46.7859C9.03746 43.3852 9.20961 39.1358 10.263 35.3317C10.6257 34.0219 11.1267 32.6169 12.0079 31.8534C12.9061 31.0282 14.2201 31.1228 15.2748 32.154C16.4678 33.4911 17.0389 36.2684 17.3162 38.4938C17.8189 43.1314 17.6127 49.1173 16.1793 54.2935C15.6958 56.0397 14.9357 58.3805 13.6396 59.0291C11.7038 59.9704 10.528 57.362 10.1133 56.441C9.09286 54.077 8.40097 50.1252 7.89867 47.0993C7.10243 41.507 6.46048 32.1309 8.48094 25.6399C9.9488 21.1444 12.749 19.5028 15.6537 23.5304C16.4662 24.628 17.175 26.1002 17.6594 27.5775C19.2505 31.9126 19.8051 37.5722 19.7027 42.3778C19.583 47.2459 18.3051 53.07 16.6472 57.8477C16.2671 58.8163 15.6282 60.3181 15.4036 61.1292C15.4727 60.8799 16.0428 60.0302 16.2676 59.6226C18.6172 55.5734 20.6381 50.6942 21.8816 46.2037C24.3857 37.1611 23.8306 27.8754 20.8383 19.7286C20.5787 19.0526 20.2507 18.2227 19.9393 17.7338C19.0918 15.9546 19.0404 15.739 17.7261 14.0319C14.7348 9.91323 9.63565 7.36019 6.26641 12.2688C2.68967 17.5227 4.00547 26.0785 4.97501 31.853C5.47732 34.879 5.99595 37.8431 6.61943 40.8355C7.70942 46.5763 8.92093 52.6862 9.30292 58.9692C9.42453 60.5474 9.49362 62.3124 9.25263 63.9907C9.0111 65.267 8.73422 65.4587 9.4429 65.7221C9.75391 65.8082 9.87509 65.7747 10.1167 65.7074C10.3929 65.5153 11.8101 64.8331 11.9831 64.6126C13.6762 62.5302 15.4379 57.3777 16.2845 54.7245C18.4952 47.1452 18.839 40.6597 17.8868 34.0175C17.3506 30.7129 16.6408 28.0322 15.4305 25.5485C15.0497 24.9061 13.6151 22.4274 12.2322 22.5814C10.8474 22.7364 9.94867 25.1738 9.51712 26.7323ZM46.8114 75.9366C45.8952 76.0185 43.0781 75.3055 41.9199 75.0519C42.5591 73.9529 41.9195 73.4402 41.0555 72.9325C40.1049 72.3336 36.3535 70.5557 35.3857 71.2282C34.4351 71.8383 35.801 72.9548 36.3192 73.0983C34.5045 72.7971 30.1309 70.8477 28.6271 69.4237C28.7828 69.2655 28.886 69.2941 29.215 69.318C29.3362 69.2845 29.5605 69.2795 29.6817 69.2459C30.1139 69.2985 30.4422 69.3223 30.8744 69.3749C31.7388 69.48 32.5859 69.6474 33.5189 69.9058C36.8714 70.6999 45.048 73.8367 46.8114 75.9366ZM18.4973 66.0817C17.7545 67.5547 18.8091 68.1823 19.8291 68.9346C19.622 68.8773 13.5028 67.1827 13.1741 66.7561C13.7268 66.7749 17.3913 66.0439 18.4973 66.0817ZM19.604 66.9251C19.9496 68.0955 26.916 70.7629 28.593 71.1601C28.1777 70.6424 27.6596 70.499 27.3828 69.8854C27.106 69.2718 27.296 68.5853 27.8318 68.2638C30.1994 66.9723 38.22 69.8645 40.5194 70.8368C42.11 71.5458 48.4883 74.3196 48.4197 76.1807C48.4196 76.9861 47.6766 77.2509 47.1059 77.2942C45.9654 77.3811 43.9774 76.8977 42.7154 76.6154C44.9971 77.2472 47.1922 77.7879 49.5603 78.1081C50.96 78.2944 54.8836 78.6426 55.1431 77.3042C55.3501 76.1526 52.4288 74.2026 51.1836 73.4551C49.351 72.4107 47.3636 71.524 45.3407 70.7625C39.1003 68.2961 32.0656 66.6836 25.3419 66.3662C24.0283 66.2702 20.2434 66.2296 19.604 66.9251ZM8.99108 67.7463C9.73394 67.4822 9.50925 67.0844 10.529 67.4339C11.0305 67.6399 12.0847 67.8647 12.5683 68.1329L8.99108 67.7463ZM33.7417 65.8718L33.3962 65.9103C34.8481 66.3124 36.3517 66.5274 37.9075 66.9582C39.4806 67.3267 41.0192 67.8199 42.5577 68.3131C46.1356 69.5052 55.1247 72.9349 56.3525 76.5644C57.1652 78.8709 54.4175 79.5203 52.7063 79.6505C52.153 79.6315 50.9431 79.5649 50.6842 79.6946C53.8817 80.6472 59.69 81.4502 62.0577 80.1586C64.028 79.0926 62.1086 76.7481 61.3309 75.9287C60.1903 74.8066 58.7032 73.7237 57.0784 72.7368C51.8752 69.7514 45.4794 67.8461 39.4298 66.7078C38.3567 66.5457 34.9344 66.0007 33.7417 65.8718ZM122.428 65.3853C122.669 65.318 123.257 65.2123 123.516 65.0826C124.864 64.6505 125.901 63.7287 126.109 62.1746C126.747 58.2556 121.733 54.1817 118.829 52.1687C118.069 51.6895 117.291 51.2729 116.548 50.7314C115.165 50.08 113.92 49.3325 112.537 48.6811C102.96 44.1491 92.9173 41.7036 82.4431 40.8174C81.7866 40.7699 80.7837 40.7606 80.1445 40.6507C80.4033 40.5211 87.9392 38.7135 88.4059 38.6414C89.3045 38.219 106.26 35.0582 107.781 34.8076C108.265 34.6731 112.274 33.9033 112.672 34.0806C113.156 34.3489 113.191 34.2242 113.485 34.3727C115.317 35.4171 116.199 35.4599 118.083 36.3171C121.056 37.6775 124.755 40.045 127.262 41.8808C130.961 44.6511 134.142 47.6806 137.72 50.4844C140.296 52.4737 146.952 57.4721 150.737 55.9019C153.346 54.9458 152.776 52.1694 151.531 50.2129C148.159 45.0493 140.103 40.67 134.399 38.2842C130.51 36.6032 126.534 35.2338 122.472 34.1751C121.003 33.8354 119.62 33.5866 118.272 33.2134C118.652 33.0501 120.259 32.8911 120.951 32.8135C127.104 31.966 134.311 31.3429 140.361 30.8694C141.26 30.8499 142.296 30.7342 143.195 30.7147C143.523 30.7384 143.506 30.8008 143.765 31.0739C144.111 31.4382 145.114 31.85 145.701 32.1469C147.153 32.9518 148.83 34.558 149.885 35.5882C154.466 40.013 161.917 46.9775 168.123 48.7631C173.291 50.2614 176.661 48.1735 174.517 43.4161C173.272 40.6543 169.434 37.5773 166.997 35.8947C165.389 34.8455 163.764 33.8577 162.018 32.9044C160.047 31.9558 158.146 31.161 156.175 30.2117L159.303 30.2054C165.353 30.1348 172.595 30.193 178.749 30.554C179.63 30.5967 181.307 30.5912 182.136 30.8208C182.222 31.3145 182.413 31.4344 183.035 31.6067C183.571 31.688 184.193 31.8603 184.712 32.0039C185.662 32.2 185.11 32.584 185.888 32.598C186.786 32.5784 186.665 32.612 187.495 32.8418C189.466 33.3875 191.384 33.7175 193.441 33.9513C197.053 34.2134 200.89 34.0669 203.846 33.4753C204.693 33.24 205.298 33.072 206.249 32.8647C206.957 32.7252 207.943 32.394 208.375 32.043C211.623 29.9886 210.24 25.7112 204.606 25.896C202.566 26.0024 201.425 26.4926 199.593 26.6566C196.188 26.8554 192.939 27.7008 189.932 28.4797C189.189 28.7438 188.48 28.883 187.633 29.1191C187.27 29.22 186.908 29.3209 186.441 29.393C184.298 29.8742 185.664 29.7818 182.5 29.5107C176.278 28.9965 167.186 28.7615 160.688 28.8421C159.789 28.8617 158.769 28.915 158.009 28.8387C158.354 28.3973 158.942 27.8881 159.426 27.3511C161.016 25.6427 162.45 23.2871 162.224 20.874C162.068 17.4062 158.715 16.2091 155.483 17.3955C151.248 18.9755 145.166 24.8117 143.352 29.3455C142.419 29.4897 141.295 29.5143 140.275 29.5674L131.011 30.3593C128.954 30.5281 127.001 30.7263 124.927 30.9574C123.994 31.1017 122.957 31.218 121.919 31.3335C121.107 31.4441 119.69 31.7235 118.912 31.7095C119.067 31.5513 119.569 31.3545 119.81 31.2872C120.19 31.124 120.346 30.9657 120.726 30.8025C122.886 29.8562 129.074 27.2725 131.044 26.2065C131.441 25.9809 131.58 25.885 131.96 25.7218C135.33 24.0367 142.052 19.5189 142.086 14.9625C142.051 13.4755 141.048 12.258 139.112 11.9904C132.561 11.0489 123.23 21.3571 118.72 25.9498C117.338 27.3129 114.814 29.9716 113.605 31.5168C112.534 32.9661 114.158 32.3412 108.887 33.2322C107.487 33.4485 106.19 33.6944 104.774 33.9732L96.6331 35.5463C93.107 36.1814 88.1125 37.2825 84.6212 38.1958C84.0333 38.3015 80.9056 39.1141 80.5766 39.0901C80.4209 39.2483 79.1074 39.5558 78.8656 39.6238C78.3989 39.6959 77.3277 39.9363 77.0681 40.0657L78.6062 38.9472L80.455 37.5119C81.1637 36.9699 81.7515 36.4607 82.4422 35.9808C85.9676 33.3311 90.4429 29.6692 93.709 26.7464C95.7998 24.8412 98.6337 21.8658 100.24 18.8861C103.903 11.7088 100.065 6.6173 93.9289 7.80503C93.1166 7.91569 92.3738 8.17979 91.6127 8.50677C84.8901 11.4121 79.9829 20.6626 77.1501 26.8607C75.5605 30.5834 74.1789 34.3637 72.5728 38.1489C72.0717 39.5547 71.9336 40.0534 71.7442 41.5454C70.7241 41.5985 56.034 46.2598 55.3076 46.4614C52.5941 47.3887 49.8806 48.316 47.2712 49.2714L40.2894 51.9036C40.0478 51.9709 39.5293 52.23 39.1831 52.2684L42.1036 49.3841C45.1274 46.5284 47.9444 43.2127 50.2077 39.4752C52.7304 35.2055 54.3881 30.0243 55.4414 25.0113C55.8038 23.2987 55.9245 21.6534 56.1665 19.9745C56.2864 16.3147 56.5977 14.7893 55.9743 10.9915C55.4202 8.15257 54.4003 5.38521 52.8094 3.46805C50.89 1.12358 48.0549 -0.332676 44.7021 0.484726C42.3 1.09557 39.9841 3.00552 38.2913 5.49073C34.9048 11.2671 33.7141 16.779 33.7672 23.4415C33.6468 26.295 33.9936 29.0773 34.132 31.8011C34.2366 34.6498 34.3756 37.3746 34.2379 40.2904C34.2387 43.5139 33.8433 50.9911 32.7719 54.0519C32.2881 55.3952 32.3916 55.0212 31.3726 55.4773L16.0084 62.5703C16.2849 61.9757 16.786 61.3754 17.1657 60.8094C17.5627 60.181 17.8395 59.5857 18.2372 58.9575C20.3279 55.038 22.2967 49.943 23.367 45.6738C25.0072 39.3467 25.0753 33.8596 24.2964 28.2049C23.3959 21.3757 20.179 11.6214 13.6794 8.88188C10.3776 7.49774 7.8374 8.60728 6.12666 10.3492C2.15231 14.6204 2.37855 21.8671 2.86416 26.9706C3.48782 32.3809 4.59532 37.2531 5.51259 42.4083C6.44713 47.5012 7.51991 52.4988 7.90122 57.9762C8.16156 60.6667 8.4907 63.9139 7.07367 66.6097C6.43447 67.7088 6.59038 67.5498 5.69161 67.9729C5.41473 68.1647 5.25975 68.3231 4.98287 68.5149C4.0843 68.9373 1.2327 70.3633 0.904564 70.743L2.66745 71.2312L6.74578 69.0031C7.00467 68.8734 8.18006 69.0647 8.50907 69.0887C11.1533 69.2168 13.6082 69.6274 16.2527 70.1583C28.1275 72.4399 37.0988 77.1399 47.9542 80.2802C52.1894 81.5201 59.743 83.2762 62.7502 81.2884C65.1523 79.8722 64.2703 77.4123 62.7662 75.5855C58.6517 70.6859 48.5392 67.2816 42.3163 65.961C32.4119 63.8224 24.7203 63.7739 15.18 65.1607C14.7133 65.2328 14.0049 65.3722 13.5555 65.382L25.4438 59.5453C26.602 58.9935 32.374 56.294 32.9102 56.3753C33.1007 57.3006 33.014 57.2095 34.4836 57.1466C35.1746 57.0695 35.9524 57.0835 36.7128 57.1598C38.355 57.279 39.9453 57.5851 41.5356 57.8913C44.9234 58.561 48.5358 59.6284 51.7862 60.797C57.8706 63.0188 63.4546 65.8411 69.0034 68.7879C75.8145 72.4199 87.5696 79.5695 95.3298 79.7712C98.1125 79.8035 101.379 78.8952 101.465 75.36C101.568 70.9572 96.0353 65.9335 91.8169 63.0195C78.9381 54.2827 61.6699 51.7173 46.3391 53.0443C44.9735 53.1359 43.47 53.3244 42.191 53.5072C41.4999 53.5843 40.8081 53.6612 40.0998 53.8006C39.5119 53.9063 38.6651 54.1416 38.0952 54.1852L45.2327 51.3947C46.0795 51.1594 46.8396 50.833 47.7046 50.5348C50.2103 49.5499 54.8942 47.9601 57.5732 47.1575C58.0744 46.9607 70.8985 42.9915 71.9524 42.8136C72.1948 42.7464 73.871 43.1435 74.3205 43.1337C74.8738 43.1527 75.3233 43.143 75.8587 43.2241C81.8049 43.9303 94.3899 52.5186 99.8006 55.9641C103.016 58.0635 106.335 60.1907 109.861 61.9734C112.714 63.3673 116.102 64.8433 119.334 65.2676C120.509 65.4589 121.305 65.4098 122.428 65.3853Z" fill="#5D7C78"/>
<path fill-rule="evenodd" clip-rule="evenodd" d="M207.839 29.9497C207.856 30.2902 207.701 30.4484 207.442 30.5781C207.579 30.0792 207.579 30.0792 207.839 29.9497ZM133.168 19.3437C133.168 19.3437 133.168 19.3437 133.185 19.2813C133.323 19.1854 135.967 18.1047 136.745 18.5215C136.711 19.8551 134.413 21.3001 133.548 22.0004C133.756 21.6551 135.397 19.7597 133.168 19.3437ZM155.344 23.5376C154.203 24.4306 152.337 25.5246 150.937 26.1445C150.419 26.4036 149.9 26.6627 149.278 26.894C150.177 26.0689 153.323 24.388 154.48 23.836C154.722 23.7686 155.206 23.6335 155.344 23.5376ZM152.233 23.4822C152.873 23.1895 157.504 20.5776 157.747 22.5249C157.954 23.7913 154.238 25.9176 153.322 26.403C152.665 26.7581 150.419 28.0161 149.831 28.1217C150.972 28.0349 153.444 27.1749 154.428 26.8434C155.707 26.2579 157.021 25.5471 158.161 24.2513C160.131 21.9771 158.904 21.1665 156.415 21.6862C154.877 21.9987 153.218 22.7475 152.233 23.4822ZM147.221 25.8546L149.589 23.7576C155.949 18.5353 161.635 19.7745 160.323 23.3054C159.908 24.3994 158.958 25.4116 158.232 26.0167C157.488 26.6834 156.4 27.3896 155.501 27.8117C155 28.0085 154.602 28.2341 153.997 28.4028L152.51 28.9316C153.046 29.0129 153.962 28.9308 154.636 28.9163C155.742 28.9541 155.621 28.9876 156.33 28.4456C158.196 26.948 160.564 24.4475 160.943 21.8671C161.099 20.5 160.683 19.1767 159.508 18.5828C157.036 17.4285 153.614 19.7034 152.352 20.63C151.04 21.7416 148.085 24.348 147.221 25.8546ZM145.286 28.4069C145.407 28.7759 145.148 28.9056 144.975 29.1262L145.131 28.5651C145.286 28.4069 145.269 28.4692 145.286 28.4069ZM132.77 20.7782C131.267 20.9659 127.205 24.3404 126.532 25.5634L128.174 24.4736C129.159 23.7396 132.39 21.7475 132.77 20.7782ZM162.452 38.5992C161.726 38.3982 158.718 36.7599 157.854 36.2512C156.903 35.6524 154.31 34.1281 153.843 33.3948C155.9 34.0316 158.856 35.8577 160.62 37.1514C161.086 37.4827 162.158 38.4507 162.452 38.5992ZM165.131 41.4226C163.852 41.2026 162.487 40.0863 161.483 39.6742C162.279 40.0287 163.109 40.2585 163.073 39.1748C163.645 39.5337 164.647 40.7517 165.131 41.4226ZM127.015 23.0118C126.359 23.7696 124.838 25.2287 124.545 26.2891C124.32 27.1002 124.648 27.1233 124.873 27.5218C124.58 27.7762 118.789 30.1343 118.496 30.3886C118.721 29.981 120.034 28.8673 120.483 28.4547C121.952 27.1827 123.42 25.9107 124.855 24.7642L127.015 23.0118ZM162.176 41.6119C162.176 41.6119 165.443 43.9268 167.638 44.8704C168.33 45.1961 170.612 46.2307 170.249 44.7199C169.609 42.5954 166.514 39.6571 164.768 38.301C163.765 37.4863 160.896 35.3486 159.686 34.8793C160.602 35.6028 168.796 41.0951 166.135 42.641C165.062 43.2837 163.196 41.9613 162.176 41.6119ZM157.49 32.324C157.974 32.5923 159.478 33.2102 160.342 33.7179C161.206 34.2256 161.984 34.6424 162.832 35.2127C164.422 36.3243 165.822 37.3169 167.153 38.5581C168.572 39.8904 171.251 42.7146 171.58 44.7522C171.805 45.9563 171.045 46.6853 170.111 46.8296C167.363 47.0754 161.607 42.8629 159.67 41.3871C158.737 40.7259 151.684 35.1467 151.009 34.7587C151.234 35.1565 152.686 36.3649 153.118 36.82C155.262 38.7567 157.769 40.9948 159.982 42.6821C162.557 44.6714 168.193 48.5149 172.065 47.8412C174.986 47.374 173.723 44.6745 172.824 43.0831C170.403 38.921 162.123 34.1439 157.507 32.2616C151.82 29.8143 153.255 30.2787 148.07 30.4537C147.948 30.4873 147.845 30.4587 147.724 30.4922L147.483 30.5596L150.473 32.6637C149.729 30.9133 151.285 30.5385 152.875 30.8447C154.586 31.1163 155.969 31.7677 157.49 32.324ZM137.143 20.713C137.316 20.4925 137.748 20.1422 138.041 19.8879C138.837 19.0334 139.856 17.7719 140.305 16.5532C141.428 14.1115 140.08 12.9319 137.643 13.2647C132.285 14.0638 125.493 20.8453 121.744 24.7082C120.777 25.7834 115.558 30.9181 114.901 32.0795C115.644 31.8154 115.057 31.9213 116.283 30.7164C119.981 27.0405 122.21 25.0387 126.462 21.7846C128.466 20.1911 130.609 18.9045 132.994 17.9532C137.522 16.1181 139.442 17.6572 137.143 20.713ZM87.3136 24.8427C86.8128 25.8458 84.8428 28.12 84.0301 28.6333C84.3585 27.8517 84.9459 26.9396 85.4295 26.4024C85.8796 25.9893 86.9335 25.0059 87.3136 24.8427ZM48.4744 20.3318C48.3352 17.6077 46.1048 15.1771 42.8566 17.6343C40.8694 19.1655 39.3317 21.8957 38.088 24.7738C38.1052 24.7114 38.7444 21.5981 38.8652 21.1617C39.6076 18.077 41.1619 13.6733 43.4605 11.8257C44.1692 11.2837 45.3096 10.7933 46.4336 11.5743C47.8168 12.6285 48.3012 15.3147 48.3876 17.0174C48.5087 17.7892 48.5778 19.5542 48.4744 20.3318ZM138.135 45.7643C137.081 45.5395 129.958 41.4186 129.249 40.7525C130.701 41.1545 132.81 42.4097 134.072 43.0954C135.524 43.8996 136.838 44.801 138.135 45.7643ZM146.294 51.3811C145.688 49.5348 140.018 45.0106 138.531 44.3304C139.119 45.0301 140.087 45.5666 140.416 46.3967C140.589 46.9816 140.226 47.486 139.759 47.5581C139.171 47.6638 138.584 47.3668 138.065 47.2232C139.673 48.2718 144.082 51.3055 146.294 51.3811ZM123.769 37.5563C123.354 37.4414 121.851 36.421 121.367 36.1526C120.606 35.6735 119.724 35.2281 118.964 34.7489C120.381 34.8728 125.117 36.3188 126.655 36.8117C133.138 38.8082 140.674 42.2384 145.809 46.2785C147.659 47.6634 151.34 50.8994 151.22 53.3503C151.186 54.6839 149.89 54.929 148.784 54.8912C145.414 54.562 140.936 51.3749 138.291 49.2329C137.824 48.9022 137.375 48.5094 137.012 48.2075C137.513 48.4135 138.636 49.1944 139.207 49.5538C140.832 50.5407 145.033 53.1142 146.726 52.6436C147.798 52.4032 147.832 51.4724 147.4 50.6145C146 47.2047 137.028 41.6991 133.916 40.0321C132.274 39.1075 130.597 38.3075 128.886 37.6316C127.97 37.3108 126.846 36.9326 125.895 36.7363C124.183 36.4621 124.34 37.1102 123.769 37.5563ZM75.1835 38.4037C74.8901 38.658 74.5792 39.7808 74.4584 40.2172C74.5796 40.1836 74.4756 40.1548 74.5968 40.1213L75.426 39.5455C75.7021 39.3535 76.0829 39.1904 76.2897 38.845C76.5141 38.84 77.7933 37.8511 78.0694 37.6591C82.1996 34.4386 85.7594 31.6642 89.9416 28.2559C92.8617 25.7742 100.724 19.1559 100.36 13.2134C100.238 11.6353 99.5988 10.3171 98.1293 9.57462C96.5904 8.67866 94.6376 8.87619 93.2896 9.30831C87.9144 10.9759 83.63 17.1748 80.9173 22.131C79.9152 24.1363 77.1338 29.7446 76.5985 31.6778C77.7217 29.639 78.7231 27.6335 79.9331 25.685C89.4361 10.7246 98.9082 11.6017 96.2136 18.5101C95.4021 20.6353 93.8812 22.4969 92.6544 24.1044C90.3045 26.9454 86.6932 30.3096 83.9107 32.6952C83.0125 33.5203 80.0398 36.1888 78.7605 35.1634C77.2734 34.0804 79.7617 29.9346 80.47 28.5863C82.3708 25.3525 86.2065 19.9689 88.8337 19.3533C90.1644 18.9835 90.7526 20.0861 90.5276 21.2998C90.3379 22.389 89.6298 23.7367 89.0589 24.5861C88.1777 26.1551 85.3783 29.8112 83.8751 30.4025C83.2699 30.5705 82.6479 30.3983 82.4577 29.8758C82.2501 29.0121 83.1829 27.2569 83.7186 26.5319C84.3058 25.6206 85.0838 24.8285 85.7918 24.2862C86.2063 23.9983 86.6382 23.6481 86.9325 23.3932C87.2087 23.2012 87.3644 23.043 87.6067 22.9759C87.9523 22.9373 88.1256 23.1196 88.3327 23.1769C88.7642 22.4239 89.3523 21.5121 89.265 20.6153C88.4873 20.6013 86.8283 22.1563 86.1888 22.8525C84.0291 25.4105 80.0723 30.8276 79.6409 33.9985C80.4187 34.0125 83.9264 31.0224 84.8601 30.072C87.4002 27.7535 96.0923 19.7533 95.3486 15.9886C95.072 14.5688 93.1532 15.045 92.2718 15.405C86.3612 17.7969 81.6098 24.874 78.4658 30.9868C77.7913 32.2103 75.2692 37.2864 75.1835 38.4037ZM107.474 54.463C104.38 53.9418 99.5053 51.7866 96.6704 50.3296C94.7001 49.3813 88.8569 46.2858 88.2693 44.7799C89.4785 44.0409 95.4766 45.769 97.0152 46.2622C101.734 47.7702 108.286 50.7263 112.348 53.395C113.766 54.3245 117.811 57.0563 117.569 58.3325C115.668 59.552 107.181 56.3291 106.472 55.6622C107.267 55.6139 108.114 56.1841 108.822 55.6419C110.81 54.1107 105.399 51.4706 104.414 50.9965C101.25 49.5164 97.4994 48.1413 94.1458 46.9442C93.541 46.7096 92.1582 46.0582 91.7256 46.4082C91.2938 46.7585 91.5012 47.2186 91.7775 47.4301C92.4349 47.8815 105.468 52.0276 107.474 54.463ZM39.0588 38.2032C39.5082 38.1934 39.8017 37.9391 39.8538 37.3495C39.9919 36.8508 40.0089 36.3857 40.1472 35.8862C40.3194 34.86 41.4248 30.8683 42.7214 31.0259C43.689 31.1596 43.6725 32.4311 43.5513 33.2701C44.2592 31.5189 44.9675 29.3651 44.6561 27.6673C44.5349 26.8954 44.3964 25.7824 43.3419 26.3637C41.4062 27.3051 39.9037 30.7163 39.4025 32.9274C39.0062 34.3614 38.4361 37.2254 39.0588 38.2032ZM41.4955 37.8712L41.0468 38.6866C41.0292 38.3461 41.3061 38.1543 41.4955 37.8712ZM118.519 53.6943C119.038 53.838 121.026 55.5303 121.475 55.9231C122.443 56.8624 123.221 57.6826 123.74 58.6319C124.224 59.3028 125.071 60.6792 124.83 61.9555C124.64 63.4473 123.154 63.9755 122.134 64.0286C114.373 65.4384 96.2739 51.7643 95.4093 51.6599L102.445 55.2869C104.9 56.5036 107.475 57.6874 110.12 58.6212C112.471 59.4065 116.481 60.6512 118.261 59.4653C120.559 58.0203 116.722 54.9433 115.546 53.9466C111.76 51.0852 106.264 48.3542 101.423 46.4769C100.524 46.0936 86.6094 40.6959 86.904 44.8733C86.9561 45.089 86.9561 45.089 87.0075 45.3046C87.1801 45.4867 87.1801 45.4867 87.2322 45.7024C85.9187 45.2045 84.4665 44.3996 83.1869 43.7768C81.804 43.1254 80.2655 42.6322 78.8654 42.0432C80.2828 41.7645 87.0754 42.6379 88.8908 42.9393C96.1849 44.0195 103.237 45.9724 110.014 48.9229C112.399 49.9862 114.457 51.0258 116.652 52.3727L118.07 53.3022C118.259 53.421 118.467 53.4785 118.519 53.6943ZM46.0217 27.5756C46.626 26.1985 47.092 23.3064 47.161 21.8481C47.3323 16.3896 44.1701 17.3269 41.6468 20.791C40.7135 22.1442 39.9189 23.8042 39.2282 25.493C37.6563 29.5562 37.1383 32.636 37.0187 36.6986C37.0019 38.3727 36.7948 40.3297 37.1928 41.7151C37.6423 42.9143 38.1956 42.5298 38.9208 41.9252C39.6988 41.1331 39.4906 40.6727 39.5943 39.4933C38.5576 39.6089 38.0388 39.4653 37.6236 38.1422C37.3813 37.4039 37.4506 36.3484 37.5883 35.4469C37.8126 33.4276 38.3649 31.0293 39.2979 29.2733C40.2827 27.3303 43.1507 23.4239 45.0697 25.3656C45.5195 25.7586 45.779 26.4345 45.8478 26.9913C45.9345 27.0824 45.9 27.2071 45.9859 27.298L46.0217 27.5756ZM38.1616 45.4751C37.5568 45.2405 37.2798 44.2234 37.2967 43.7582C38.1439 43.9257 38.5239 43.7625 39.1981 43.3451C39.3366 43.2492 39.6473 42.9325 39.7688 43.3018C39.8036 43.5799 38.6973 45.1536 38.1616 45.4751ZM39.9323 5.61113C39.535 5.8367 38.1523 8.40856 38.0315 8.84492C35.0772 15.0774 34.6811 21.7489 35.2705 28.4921C35.2532 29.3598 35.7388 35.2687 35.5311 35.6147C36.2049 33.5856 35.8738 23.8922 38.9834 16.2933C40.2619 13.2899 42.0065 10.6176 44.3227 9.91588C45.895 9.47877 47.4166 10.4371 48.1253 11.5058C48.8512 12.5123 49.1975 13.6828 49.4741 15.1026C50.582 20.3777 48.924 28.3793 46.9725 34.2175C45.4874 38.7753 43.5868 43.2173 41.1167 47.3002C40.443 48.5239 39.0605 50.2896 38.8012 50.8219C43.0866 46.6368 46.6986 43.2728 49.7217 37.5971C51.3111 34.6798 52.5892 31.2736 53.4177 27.8778C54.0221 25.6953 55.1786 19.9055 54.9707 17.8336C55.299 15.8431 54.8483 12.2266 54.5196 10.591C53.9659 8.15491 53.2046 6.06402 51.9777 4.44825C49.505 1.27937 45.6506 0.681826 42.2982 3.11096C41.8505 3.52394 40.1222 4.92542 39.9323 5.61113ZM12.6501 44.0508C12.7539 42.8706 12.8744 42.0315 13.4791 41.0571C14.4815 41.469 14.7068 44.6874 14.6387 46.1452C14.5004 47.45 13.914 51.5848 12.5139 51.8011C12.5483 50.4675 12.3401 48.7982 12.6166 47.3982C13.1006 47.2638 13.1873 47.3549 13.5152 46.9759C13.8259 46.6592 13.9813 46.0981 13.9818 45.6948C13.9984 44.8269 13.7216 44.2133 12.6501 44.0508ZM35.4672 53.5917C35.1392 53.9707 34.5168 54.201 34.0327 54.3362C34.188 53.7752 34.3781 53.0887 34.5162 52.59C34.5849 51.9379 34.7405 51.3761 34.7926 50.7865C35.086 48.5178 35.2409 46.3451 35.4133 44.1092C35.4652 43.1168 35.413 41.6921 35.6376 40.881C35.707 41.0344 35.8282 43.0152 35.9148 43.9117C36.0881 44.8993 36.4509 46.0074 37.2118 46.4865C38.9926 47.718 40.7895 44.4554 41.67 42.8863C42.6893 40.8186 43.7259 38.6886 44.5721 36.438L47.0248 29.1942C45.3501 35.6459 42.1892 44.2381 38.0418 49.5353C36.1237 52.0261 34.9487 52.2376 34.6373 52.5541C34.2231 53.2472 34.8798 53.6983 35.4672 53.5917ZM82.0871 68.718C81.1192 68.9869 75.8815 67.3352 74.5508 66.8995C75.1379 65.5847 73.3056 64.9431 72.0267 64.3205C69.1226 63.1136 64.3516 61.3897 61.3265 60.2156C59.2864 59.5165 59.9613 59.9047 59.3389 60.135C59.0624 59.9242 58.4921 59.565 58.4573 59.2869C61.0845 58.6712 68.7766 61.5404 71.4736 62.6899C74.9645 64.1936 79.5799 66.4792 82.0871 68.718ZM49.9524 56.1263C50.0736 57.3017 56.798 60.439 57.9389 60.7549C57.5236 60.2372 56.4863 59.5473 57.0917 58.5731C57.506 57.8824 58.5262 57.8286 59.5118 57.9001C65.5789 58.17 76.8143 63.1613 81.7418 66.7415C82.3814 67.2542 83.2116 67.8868 83.5048 68.4386C84.0929 69.5411 83.2456 70.1798 82.2607 70.1084C79.0286 70.0859 72.9094 67.586 69.5734 66.7293C70.1264 67.1509 76.6606 69.7658 77.7667 70.2071C80.792 71.3805 87.8274 73.7985 91.0069 72.7989C92.6138 72.2371 91.0925 70.4727 90.5046 69.7729C85.8885 64.6674 74.1166 59.9972 67.4792 58.1592C64.4715 57.3263 61.3253 56.5894 58.1968 56.1928C56.2607 55.926 51.1791 55.3242 49.9524 56.1263ZM51.0764 58.9217C49.8488 58.5146 47.0141 57.4612 45.3717 56.9392C43.315 56.3026 41.4137 55.9103 39.339 55.3358L39.9442 55.1678C40.1685 55.1628 40.4109 55.0957 40.6352 55.0907C44.0056 54.6138 47.013 54.2385 50.5042 54.1305C54.4449 54.0129 58.4547 54.0494 62.5688 54.5175C71.142 55.4141 80.3208 57.7546 87.8229 62.1148C92.0582 64.5637 97.8324 68.7139 99.6306 73.1063C100.357 74.919 100.409 77.1492 98.4047 77.9372C92.9087 80.0412 82.9687 74.8045 77.6278 71.9153C76.8497 71.4985 75.6053 70.7512 74.9998 70.5164C75.2763 70.7272 78.7338 71.9531 79.4425 72.2164C82.3984 73.2363 91.4391 76.0754 92.8897 72.8512C94.4793 69.1285 84.7125 63.6705 80.9609 61.8933C73.3893 58.185 61.0824 54.2401 52.3189 54.4317C51.0917 54.4275 49.0521 54.5346 48.7069 55.7814C48.1892 57.2496 50.3673 58.2555 51.0764 58.9217ZM14.9336 53.9493C15.9007 50.457 16.2285 46.8547 16.2619 43.5073C16.2612 40.6873 16.0008 36.7879 15.067 34.515C12.8531 29.2021 11.2474 36.2099 10.8678 39.1938C10.5227 41.6495 10.4197 44.0388 10.7484 46.4797C10.7656 47.2228 10.9732 48.0865 11.0256 48.7051C11.1641 48.6092 11.0256 48.7051 11.1813 48.5468C11.1986 48.4845 11.2158 48.4221 11.2331 48.3598L11.2503 47.0885C11.4402 46.4028 11.5265 46.0911 11.4749 45.472C11.3017 44.4844 11.2843 43.3378 11.5953 42.215C12.4239 38.8185 14.481 39.0526 15.4496 41.6036C16.4704 44.3704 16.0391 50.3611 13.8791 52.5163C13.4299 52.9289 13.2915 53.0248 12.6871 53.193C12.5839 55.1787 13.6562 57.3558 12.0141 57.2366C12.2733 57.5098 12.4121 57.8167 12.9475 57.8978C13.535 57.3893 13.708 57.1687 14.1742 56.2903C14.4847 55.5701 14.7092 54.7597 14.9336 53.9493ZM9.51712 26.7323C7.53114 33.904 8.57093 45.8752 10.4573 53.1788C10.7856 54.4115 10.9934 55.2745 11.5816 56.377L11.2007 52.5113C11.218 52.449 10.9588 52.1759 10.8894 52.0224C10.7168 51.8404 10.7341 51.7781 10.578 51.5335C9.95591 50.1523 9.62626 48.5173 9.43599 46.7859C9.03746 43.3852 9.20961 39.1358 10.263 35.3317C10.6257 34.0219 11.1267 32.6169 12.0079 31.8534C12.9061 31.0282 14.2201 31.1228 15.2748 32.154C16.4678 33.4911 17.0389 36.2684 17.3162 38.4938C17.8189 43.1314 17.6127 49.1173 16.1793 54.2935C15.6958 56.0397 14.9357 58.3805 13.6396 59.0291C11.7038 59.9704 10.528 57.362 10.1133 56.441C9.09286 54.077 8.40097 50.1252 7.89867 47.0993C7.10243 41.507 6.46048 32.1309 8.48094 25.6399C9.9488 21.1444 12.749 19.5028 15.6537 23.5304C16.4662 24.628 17.175 26.1002 17.6594 27.5775C19.2505 31.9126 19.8051 37.5722 19.7027 42.3778C19.583 47.2459 18.3051 53.07 16.6472 57.8477C16.2671 58.8163 15.6282 60.3181 15.4036 61.1292C15.4727 60.8799 16.0428 60.0302 16.2676 59.6226C18.6172 55.5734 20.6381 50.6942 21.8816 46.2037C24.3857 37.1611 23.8306 27.8754 20.8383 19.7286C20.5787 19.0526 20.2507 18.2227 19.9393 17.7338C19.0918 15.9546 19.0404 15.739 17.7261 14.0319C14.7348 9.91323 9.63565 7.36019 6.26641 12.2688C2.68967 17.5227 4.00547 26.0785 4.97501 31.853C5.47732 34.879 5.99595 37.8431 6.61943 40.8355C7.70942 46.5763 8.92093 52.6862 9.30292 58.9692C9.42453 60.5474 9.49362 62.3124 9.25263 63.9907C9.0111 65.267 8.73422 65.4587 9.4429 65.7221C9.75391 65.8082 9.87509 65.7747 10.1167 65.7074C10.3929 65.5153 11.8101 64.8331 11.9831 64.6126C13.6762 62.5302 15.4379 57.3777 16.2845 54.7245C18.4952 47.1452 18.839 40.6597 17.8868 34.0175C17.3506 30.7129 16.6408 28.0322 15.4305 25.5485C15.0497 24.9061 13.6151 22.4274 12.2322 22.5814C10.8474 22.7364 9.94867 25.1738 9.51712 26.7323ZM46.8114 75.9366C45.8952 76.0185 43.0781 75.3055 41.9199 75.0519C42.5591 73.9529 41.9195 73.4402 41.0555 72.9325C40.1049 72.3336 36.3535 70.5557 35.3857 71.2282C34.4351 71.8383 35.801 72.9548 36.3192 73.0983C34.5045 72.7971 30.1309 70.8477 28.6271 69.4237C28.7828 69.2655 28.886 69.2941 29.215 69.318C29.3362 69.2845 29.5605 69.2795 29.6817 69.2459C30.1139 69.2985 30.4422 69.3223 30.8744 69.3749C31.7388 69.48 32.5859 69.6474 33.5189 69.9058C36.8714 70.6999 45.048 73.8367 46.8114 75.9366ZM18.4973 66.0817C17.7545 67.5547 18.8091 68.1823 19.8291 68.9346C19.622 68.8773 13.5028 67.1827 13.1741 66.7561C13.7268 66.7749 17.3913 66.0439 18.4973 66.0817ZM19.604 66.9251C19.9496 68.0955 26.916 70.7629 28.593 71.1601C28.1777 70.6424 27.6596 70.499 27.3828 69.8854C27.106 69.2718 27.296 68.5853 27.8318 68.2638C30.1994 66.9723 38.22 69.8645 40.5194 70.8368C42.11 71.5458 48.4883 74.3196 48.4197 76.1807C48.4196 76.9861 47.6766 77.2509 47.1059 77.2942C45.9654 77.3811 43.9774 76.8977 42.7154 76.6154C44.9971 77.2472 47.1922 77.7879 49.5603 78.1081C50.96 78.2944 54.8836 78.6426 55.1431 77.3042C55.3501 76.1526 52.4288 74.2026 51.1836 73.4551C49.351 72.4107 47.3636 71.524 45.3407 70.7625C39.1003 68.2961 32.0656 66.6836 25.3419 66.3662C24.0283 66.2702 20.2434 66.2296 19.604 66.9251ZM8.99108 67.7463C9.73394 67.4822 9.50925 67.0844 10.529 67.4339C11.0305 67.6399 12.0847 67.8647 12.5683 68.1329L8.99108 67.7463ZM33.7417 65.8718L33.3962 65.9103C34.8481 66.3124 36.3517 66.5274 37.9075 66.9582C39.4806 67.3267 41.0192 67.8199 42.5577 68.3131C46.1356 69.5052 55.1247 72.9349 56.3525 76.5644C57.1652 78.8709 54.4175 79.5203 52.7063 79.6505C52.153 79.6315 50.9431 79.5649 50.6842 79.6946C53.8817 80.6472 59.69 81.4502 62.0577 80.1586C64.028 79.0926 62.1086 76.7481 61.3309 75.9287C60.1903 74.8066 58.7032 73.7237 57.0784 72.7368C51.8752 69.7514 45.4794 67.8461 39.4298 66.7078C38.3567 66.5457 34.9344 66.0007 33.7417 65.8718ZM122.428 65.3853C122.669 65.318 123.257 65.2123 123.516 65.0826C124.864 64.6505 125.901 63.7287 126.109 62.1746C126.747 58.2556 121.733 54.1817 118.829 52.1687C118.069 51.6895 117.291 51.2729 116.548 50.7314C115.165 50.08 113.92 49.3325 112.537 48.6811C102.96 44.1491 92.9173 41.7036 82.4431 40.8174C81.7866 40.7699 80.7837 40.7606 80.1445 40.6507C80.4033 40.5211 87.9392 38.7135 88.4059 38.6414C89.3045 38.219 106.26 35.0582 107.781 34.8076C108.265 34.6731 112.274 33.9033 112.672 34.0806C113.156 34.3489 113.191 34.2242 113.485 34.3727C115.317 35.4171 116.199 35.4599 118.083 36.3171C121.056 37.6775 124.755 40.045 127.262 41.8808C130.961 44.6511 134.142 47.6806 137.72 50.4844C140.296 52.4737 146.952 57.4721 150.737 55.9019C153.346 54.9458 152.776 52.1694 151.531 50.2129C148.159 45.0493 140.103 40.67 134.399 38.2842C130.51 36.6032 126.534 35.2338 122.472 34.1751C121.003 33.8354 119.62 33.5866 118.272 33.2134C118.652 33.0501 120.259 32.8911 120.951 32.8135C127.104 31.966 134.311 31.3429 140.361 30.8694C141.26 30.8499 142.296 30.7342 143.195 30.7147C143.523 30.7384 143.506 30.8008 143.765 31.0739C144.111 31.4382 145.114 31.85 145.701 32.1469C147.153 32.9518 148.83 34.558 149.885 35.5882C154.466 40.013 161.917 46.9775 168.123 48.7631C173.291 50.2614 176.661 48.1735 174.517 43.4161C173.272 40.6543 169.434 37.5773 166.997 35.8947C165.389 34.8455 163.764 33.8577 162.018 32.9044C160.047 31.9558 158.146 31.161 156.175 30.2117L159.303 30.2054C165.353 30.1348 172.595 30.193 178.749 30.554C179.63 30.5967 181.307 30.5912 182.136 30.8208C182.222 31.3145 182.413 31.4344 183.035 31.6067C183.571 31.688 184.193 31.8603 184.712 32.0039C185.662 32.2 185.11 32.584 185.888 32.598C186.786 32.5784 186.665 32.612 187.495 32.8418C189.466 33.3875 191.384 33.7175 193.441 33.9513C197.053 34.2134 200.89 34.0669 203.846 33.4753C204.693 33.24 205.298 33.072 206.249 32.8647C206.957 32.7252 207.943 32.394 208.375 32.043C211.623 29.9886 210.24 25.7112 204.606 25.896C202.566 26.0024 201.425 26.4926 199.593 26.6566C196.188 26.8554 192.939 27.7008 189.932 28.4797C189.189 28.7438 188.48 28.883 187.633 29.1191C187.27 29.22 186.908 29.3209 186.441 29.393C184.298 29.8742 185.664 29.7818 182.5 29.5107C176.278 28.9965 167.186 28.7615 160.688 28.8421C159.789 28.8617 158.769 28.915 158.009 28.8387C158.354 28.3973 158.942 27.8881 159.426 27.3511C161.016 25.6427 162.45 23.2871 162.224 20.874C162.068 17.4062 158.715 16.2091 155.483 17.3955C151.248 18.9755 145.166 24.8117 143.352 29.3455C142.419 29.4897 141.295 29.5143 140.275 29.5674L131.011 30.3593C128.954 30.5281 127.001 30.7263 124.927 30.9574C123.994 31.1017 122.957 31.218 121.919 31.3335C121.107 31.4441 119.69 31.7235 118.912 31.7095C119.067 31.5513 119.569 31.3545 119.81 31.2872C120.19 31.124 120.346 30.9657 120.726 30.8025C122.886 29.8562 129.074 27.2725 131.044 26.2065C131.441 25.9809 131.58 25.885 131.96 25.7218C135.33 24.0367 142.052 19.5189 142.086 14.9625C142.051 13.4755 141.048 12.258 139.112 11.9904C132.561 11.0489 123.23 21.3571 118.72 25.9498C117.338 27.3129 114.814 29.9716 113.605 31.5168C112.534 32.9661 114.158 32.3412 108.887 33.2322C107.487 33.4485 106.19 33.6944 104.774 33.9732L96.6331 35.5463C93.107 36.1814 88.1125 37.2825 84.6212 38.1958C84.0333 38.3015 80.9056 39.1141 80.5766 39.0901C80.4209 39.2483 79.1074 39.5558 78.8656 39.6238C78.3989 39.6959 77.3277 39.9363 77.0681 40.0657L78.6062 38.9472L80.455 37.5119C81.1637 36.9699 81.7515 36.4607 82.4422 35.9808C85.9676 33.3311 90.4429 29.6692 93.709 26.7464C95.7998 24.8412 98.6337 21.8658 100.24 18.8861C103.903 11.7088 100.065 6.6173 93.9289 7.80503C93.1166 7.91569 92.3738 8.17979 91.6127 8.50677C84.8901 11.4121 79.9829 20.6626 77.1501 26.8607C75.5605 30.5834 74.1789 34.3637 72.5728 38.1489C72.0717 39.5547 71.9336 40.0534 71.7442 41.5454C70.7241 41.5985 56.034 46.2598 55.3076 46.4614C52.5941 47.3887 49.8806 48.316 47.2712 49.2714L40.2894 51.9036C40.0478 51.9709 39.5293 52.23 39.1831 52.2684L42.1036 49.3841C45.1274 46.5284 47.9444 43.2127 50.2077 39.4752C52.7304 35.2055 54.3881 30.0243 55.4414 25.0113C55.8038 23.2987 55.9245 21.6534 56.1665 19.9745C56.2864 16.3147 56.5977 14.7893 55.9743 10.9915C55.4202 8.15257 54.4003 5.38521 52.8094 3.46805C50.89 1.12358 48.0549 -0.332676 44.7021 0.484726C42.3 1.09557 39.9841 3.00552 38.2913 5.49073C34.9048 11.2671 33.7141 16.779 33.7672 23.4415C33.6468 26.295 33.9936 29.0773 34.132 31.8011C34.2366 34.6498 34.3756 37.3746 34.2379 40.2904C34.2387 43.5139 33.8433 50.9911 32.7719 54.0519C32.2881 55.3952 32.3916 55.0212 31.3726 55.4773L16.0084 62.5703C16.2849 61.9757 16.786 61.3754 17.1657 60.8094C17.5627 60.181 17.8395 59.5857 18.2372 58.9575C20.3279 55.038 22.2967 49.943 23.367 45.6738C25.0072 39.3467 25.0753 33.8596 24.2964 28.2049C23.3959 21.3757 20.179 11.6214 13.6794 8.88188C10.3776 7.49774 7.8374 8.60728 6.12666 10.3492C2.15231 14.6204 2.37855 21.8671 2.86416 26.9706C3.48782 32.3809 4.59532 37.2531 5.51259 42.4083C6.44713 47.5012 7.51991 52.4988 7.90122 57.9762C8.16156 60.6667 8.4907 63.9139 7.07367 66.6097C6.43447 67.7088 6.59038 67.5498 5.69161 67.9729C5.41473 68.1647 5.25975 68.3231 4.98287 68.5149C4.0843 68.9373 1.2327 70.3633 0.904564 70.743L2.66745 71.2312L6.74578 69.0031C7.00467 68.8734 8.18006 69.0647 8.50907 69.0887C11.1533 69.2168 13.6082 69.6274 16.2527 70.1583C28.1275 72.4399 37.0988 77.1399 47.9542 80.2802C52.1894 81.5201 59.743 83.2762 62.7502 81.2884C65.1523 79.8722 64.2703 77.4123 62.7662 75.5855C58.6517 70.6859 48.5392 67.2816 42.3163 65.961C32.4119 63.8224 24.7203 63.7739 15.18 65.1607C14.7133 65.2328 14.0049 65.3722 13.5555 65.382L25.4438 59.5453C26.602 58.9935 32.374 56.294 32.9102 56.3753C33.1007 57.3006 33.014 57.2095 34.4836 57.1466C35.1746 57.0695 35.9524 57.0835 36.7128 57.1598C38.355 57.279 39.9453 57.5851 41.5356 57.8913C44.9234 58.561 48.5358 59.6284 51.7862 60.797C57.8706 63.0188 63.4546 65.8411 69.0034 68.7879C75.8145 72.4199 87.5696 79.5695 95.3298 79.7712C98.1125 79.8035 101.379 78.8952 101.465 75.36C101.568 70.9572 96.0353 65.9335 91.8169 63.0195C78.9381 54.2827 61.6699 51.7173 46.3391 53.0443C44.9735 53.1359 43.47 53.3244 42.191 53.5072C41.4999 53.5843 40.8081 53.6612 40.0998 53.8006C39.5119 53.9063 38.6651 54.1416 38.0952 54.1852L45.2327 51.3947C46.0795 51.1594 46.8396 50.833 47.7046 50.5348C50.2103 49.5499 54.8942 47.9601 57.5732 47.1575C58.0744 46.9607 70.8985 42.9915 71.9524 42.8136C72.1948 42.7464 73.871 43.1435 74.3205 43.1337C74.8738 43.1527 75.3233 43.143 75.8587 43.2241C81.8049 43.9303 94.3899 52.5186 99.8006 55.9641C103.016 58.0635 106.335 60.1907 109.861 61.9734C112.714 63.3673 116.102 64.8433 119.334 65.2676C120.509 65.4589 121.305 65.4098 122.428 65.3853Z" fill="black" fill-opacity="0.2"/>
</svg>
