<svg width="382" height="74" viewBox="0 0 382 74" fill="none" xmlns="http://www.w3.org/2000/svg">
<g clip-path="url(#clip0_314_1196)">
<path d="M215.277 33.3443C219.053 30.3527 222.93 27.6636 226.991 25.7645C231.036 23.8653 235.299 22.7393 239.361 22.9914C243.372 23.1762 247.232 24.6216 249.43 27.4283C250.521 28.8065 251.193 30.4367 251.36 32.0334C251.495 33.63 251.058 35.2267 250.27 36.4872C249.481 37.7477 248.306 38.6888 247.03 39.0586C245.738 39.4451 244.395 39.3107 243.288 38.8737C242.163 38.4367 241.291 37.6804 240.754 36.7897C240.3 35.8653 240.116 34.8905 240.25 34.0334C240.435 32.2855 241.408 31.1258 242.163 30.6216C242.919 30.0838 243.456 30.0334 243.422 29.983C243.439 30.0166 242.919 30.0502 242.113 30.5544C241.307 31.025 240.233 32.151 239.931 33.983C239.747 34.8905 239.881 35.9493 240.351 36.9914C240.888 37.9998 241.828 38.8905 243.053 39.4451C244.261 39.983 245.755 40.2014 247.249 39.8149C248.759 39.4451 250.135 38.4031 251.092 37.0082C252.049 35.6132 252.619 33.8317 252.518 31.9325C252.401 30.067 251.679 28.1846 250.488 26.588C248.088 23.3107 243.774 21.6132 239.461 21.3107C235.064 20.9578 230.465 22.0838 226.203 24.0334C221.923 25.983 217.912 28.7393 214.052 31.7813C210.225 34.8233 206.65 37.9325 202.706 40.0166C198.829 42.1174 194.466 43.1258 190.572 42.3695C186.678 41.7141 183.59 38.8233 182.348 35.6468C182.147 34.8233 181.878 34.0166 181.912 33.1762C181.811 32.3359 181.996 31.5796 182.231 30.8233C182.751 29.3443 183.758 28.0838 184.933 27.2099C186.108 26.3359 187.467 25.8317 188.759 25.7981C190.052 25.7813 191.277 26.2014 192.099 26.9409C193.811 28.504 194.063 30.8569 193.811 32.4704C193.559 34.1678 192.67 35.2435 191.948 35.7645C191.596 36.0502 191.277 36.1846 191.059 36.2855C190.841 36.3863 190.74 36.4704 190.74 36.504C190.74 36.5376 190.874 36.5376 191.109 36.4872C191.361 36.4536 191.713 36.3527 192.15 36.1006C193.006 35.6468 194.147 34.4872 194.55 32.6216C194.751 31.6972 194.818 30.6384 194.6 29.4956C194.382 28.3695 193.862 27.1258 192.838 26.1342C191.814 25.1426 190.32 24.5712 188.743 24.5544C187.165 24.5544 185.52 25.109 184.111 26.1006C182.701 27.0922 181.476 28.5208 180.804 30.3191C180.502 31.2099 180.25 32.2183 180.351 33.2099C180.301 34.2183 180.569 35.193 180.821 36.1846C181.509 38.1174 182.734 39.8653 184.346 41.2771C184.765 41.5964 185.151 41.983 185.621 42.2687C186.091 42.5376 186.561 42.8233 187.031 43.109C187.551 43.3107 188.055 43.5292 188.575 43.7309C189.095 43.9325 189.649 44.0166 190.203 44.1678C194.634 45.0754 199.417 43.9662 203.579 41.7477C207.825 39.5292 211.484 36.3359 215.277 33.3443Z" fill="white"/>
<path d="M286.638 33.4119C290.415 30.4203 294.275 27.7312 298.32 25.7985C302.347 23.8657 306.61 22.7564 310.672 22.9581C312.669 23.0758 314.666 23.3447 316.395 24.1346L317.049 24.3867L317.654 24.7396C318.056 24.9749 318.459 25.1934 318.845 25.4455C319.567 25.9833 320.238 26.5884 320.792 27.2774C321.933 28.622 322.605 30.2522 322.806 31.8489C323.007 33.4455 322.571 35.0422 321.833 36.3195C321.077 37.5968 319.936 38.5716 318.661 38.9917C317.402 39.4119 316.042 39.3279 314.918 38.9413C313.794 38.538 312.82 37.8489 312.317 36.9413C311.813 36.0674 311.545 35.0926 311.645 34.2354C311.746 32.4875 312.703 31.2943 313.458 30.8069C314.213 30.2858 314.75 30.2186 314.733 30.1682C314.75 30.2018 314.23 30.2354 313.424 30.7228C312.619 31.1766 311.545 32.3363 311.343 34.2018C311.175 35.1094 311.41 36.1682 311.931 37.1766C312.451 38.2018 313.491 39.0085 314.7 39.5295C315.925 40.0169 317.419 40.185 318.896 39.7648C320.372 39.3447 321.732 38.2858 322.655 36.8573C323.561 35.4287 324.132 33.6472 323.964 31.7648C323.796 29.9161 323.075 28.0169 321.833 26.4707C321.228 25.6808 320.49 24.9749 319.684 24.3363C319.265 24.0506 318.812 23.7816 318.375 23.5127L317.704 23.1094L316.982 22.8069C315.069 21.8825 312.921 21.5295 310.756 21.3615C306.375 21.0422 301.777 22.1682 297.531 24.1514C293.268 26.1178 289.257 28.8741 285.413 31.9329C281.587 34.9749 278.012 38.0674 274.068 40.1346C270.174 42.2018 265.827 43.1934 261.951 42.4035C258.074 41.7144 255.002 38.8069 253.811 35.6136C253.71 35.1934 253.609 34.7901 253.509 34.3867C253.391 33.9833 253.442 33.5632 253.408 33.1598C253.29 32.3195 253.525 31.5632 253.744 30.8237C254.281 29.3447 255.304 28.1178 256.479 27.2438C257.671 26.3867 259.03 25.8825 260.323 25.8825C261.615 25.8825 262.84 26.3027 263.629 27.059C265.24 28.6724 265.324 31.0758 264.921 32.6556C264.552 34.3195 263.595 35.3615 262.874 35.8657C262.521 36.1346 262.202 36.2859 261.984 36.3867C261.766 36.4875 261.665 36.5716 261.665 36.6052C261.665 36.6388 261.8 36.6388 262.034 36.5884C262.286 36.5548 262.639 36.4539 263.075 36.2186C263.931 35.7816 265.106 34.706 265.643 32.8741C265.911 31.9833 266.079 30.9245 265.945 29.7648C265.794 28.622 265.391 27.3279 264.401 26.3027C263.394 25.2606 261.9 24.6892 260.323 24.6388C258.728 24.6052 257.1 25.1598 255.674 26.1178C254.264 27.1094 253.022 28.5043 252.334 30.3027C252.015 31.1934 251.746 32.2018 251.83 33.1766C251.864 33.664 251.797 34.185 251.931 34.6724C252.049 35.1598 252.149 35.664 252.267 36.1514C253.609 39.9665 257.1 43.3111 261.581 44.185C266.012 45.1262 270.778 44.0338 274.957 41.8489C279.187 39.6136 282.862 36.4203 286.638 33.4119Z" fill="white"/>
<path d="M232.144 49.311C233.184 51.0925 234.091 52.9749 234.326 54.8068C234.577 56.6051 234.091 58.3194 232.748 59.227C231.489 60.2185 229.744 60.4034 228.368 60.0169C226.975 59.5295 225.884 58.4875 225.212 57.3446C223.887 55.0421 224.138 52.3698 225.397 51.4791C226.001 51.0085 226.656 50.958 227.042 51.0085C227.461 51.0589 227.629 51.227 227.646 51.2101C227.629 51.227 227.478 51.0421 227.059 50.9244C226.656 50.8068 225.951 50.7732 225.229 51.227C223.668 52.1177 223.064 55.0589 224.34 57.7984C224.977 59.1597 226.152 60.5379 227.898 61.2774C229.66 61.9328 231.892 61.832 233.688 60.5883C234.158 60.3194 234.527 59.8824 234.93 59.4791C235.249 59.0085 235.601 58.5211 235.786 57.9833C236.205 56.9076 236.289 55.7143 236.172 54.5883C235.92 52.3026 234.947 50.269 233.822 48.3194C231.523 44.3698 228.082 41.4959 224.591 39.7312C221.05 38.0169 217.475 37.4622 214.555 37.5463C211.618 37.6303 209.319 38.2858 207.808 38.874C206.315 39.5127 205.559 40.0001 205.61 40.1009C205.727 40.4706 209 38.79 214.555 38.9244C217.308 39.0085 220.58 39.6639 223.786 41.3278C226.941 43.0421 230.063 45.7143 232.144 49.311Z" fill="white"/>
<path d="M381.144 25.6472C382.504 20.8069 382.168 15.7985 380.624 11.3615C380.406 10.8069 380.255 10.2354 379.986 9.73125L379.147 8.20184C378.878 7.69763 378.593 7.17663 378.241 6.72285C377.922 6.25226 377.553 5.79847 377.167 5.37831C375.656 3.68083 373.843 2.30268 371.863 1.37831C367.919 -0.537655 363.354 -0.386398 359.897 1.32788C358.151 2.18503 356.674 3.44553 355.667 4.95814C354.728 6.50436 354.19 8.25226 354.308 9.93293C354.576 13.3615 357.43 15.7649 360.048 15.8825C362.666 16.101 364.881 14.5884 365.452 12.8405C366.073 11.0926 365.418 9.63041 364.881 8.92453C364.613 8.53797 364.327 8.31949 364.126 8.18503C363.941 8.05058 363.841 7.96654 363.841 7.96654C363.841 7.96654 363.925 8.05058 364.109 8.20184C364.294 8.33629 364.562 8.57159 364.797 8.97495C365.284 9.69764 365.821 11.1262 365.15 12.7228C364.562 14.3027 362.465 15.5632 360.098 15.2607C358.923 15.1262 357.765 14.5548 356.859 13.5968C355.953 12.6556 355.332 11.2943 355.281 9.86571C355.248 8.40352 355.751 6.92453 356.624 5.59679C357.564 4.30268 358.89 3.22705 360.467 2.52117C363.623 1.0926 367.667 1.05898 371.141 2.8573C372.887 3.73125 374.498 4.99176 375.824 6.53798C376.16 6.92453 376.478 7.32789 376.764 7.74806C377.083 8.15142 377.318 8.62201 377.553 9.0926L378.291 10.4876C378.526 10.9581 378.66 11.4791 378.845 11.9833C380.221 16.017 380.49 20.7397 379.264 25.0926C378.643 27.2607 377.586 29.2607 376.143 30.8741C374.615 32.3867 372.904 33.7481 370.906 34.5212C369.967 35.0086 368.892 35.2102 367.902 35.5632C366.862 35.7312 365.855 36.0338 364.797 36.0842C363.757 36.185 362.733 36.2859 361.709 36.2355C360.686 36.2691 359.679 36.1514 358.688 36.0506C356.708 35.7985 354.795 35.2439 352.932 34.8573C351.119 34.2186 349.34 33.664 347.645 33.0086C344.272 31.6304 341.167 30.2355 338.297 28.9749C332.574 26.4203 327.623 24.9581 324.115 24.4876C322.37 24.2859 320.994 24.185 320.07 24.2523C319.147 24.2859 318.661 24.3363 318.661 24.4035C318.661 24.6052 320.607 24.5716 323.981 25.2439C327.371 25.9329 332.121 27.5632 337.726 30.2523C340.546 31.5968 343.634 33.059 347.024 34.5212C348.736 35.227 350.582 35.8321 352.428 36.5212C353.402 36.7565 354.392 36.9918 355.382 37.227C356.389 37.4287 357.379 37.7817 358.453 37.8489C359.511 37.9834 360.585 38.101 361.676 38.0842C362.767 38.1514 363.874 38.0506 364.982 37.9497C366.106 37.8993 367.214 37.58 368.339 37.3951C369.43 37.0254 370.588 36.8069 371.645 36.2691C373.86 35.4287 375.824 33.9161 377.569 32.1682C379.264 30.3363 380.439 28.0674 381.144 25.6472Z" fill="white"/>
<path d="M255.12 41.6807C255.304 45.647 257.553 49.3109 260.574 51.8655C263.595 54.4202 267.355 55.9664 271.148 57.0756C273.397 57.7311 275.696 58.2521 277.844 59.1596C280.009 60.0672 282.057 61.4117 283.332 63.3613C282.812 60.8403 282.006 58.4033 280.714 56.1681C279.405 53.9328 277.576 51.9832 275.293 50.7899C273.044 49.6134 270.493 49.2269 267.993 48.9244C265.475 48.6218 263.025 48.521 260.658 47.5966C258.309 46.6891 255.942 44.0672 255.12 41.6807Z" fill="white"/>
<path d="M274.538 43.0085C277.257 45.8992 281.352 47.2102 285.313 47.1597C289.273 47.1093 293.117 45.8488 296.725 44.2018C298.857 43.227 300.938 42.1177 303.153 41.395C305.385 40.6723 307.802 40.353 310.051 40.9917C308.003 39.4286 305.822 38.1009 303.371 37.2606C300.938 36.4202 298.269 36.1345 295.768 36.7228C293.301 37.2942 291.12 38.6723 289.022 40.0841C286.924 41.4959 284.994 43.0253 282.611 43.8656C280.227 44.7228 276.72 44.2858 274.538 43.0085Z" fill="white"/>
<path d="M364.143 56.2689C366.006 58.3865 368.204 60.4033 370.99 61.2605C372.35 61.6806 373.76 61.8319 375.153 61.6974C376.546 61.5294 377.871 60.9916 378.946 60.168C381.111 58.4201 381.866 55.6806 381.497 53.3781C381.329 52.2016 380.775 51.1596 380.12 50.3025C379.399 49.4958 378.576 48.8403 377.687 48.4706C375.925 47.6638 374.062 47.647 372.635 48.168C371.192 48.6386 370.202 49.6638 369.799 50.6386C369.413 51.647 369.631 52.5042 369.866 52.9916C370.134 53.479 370.369 53.6302 370.353 53.647C370.369 53.6302 370.134 53.4453 369.933 52.9579C369.765 52.4874 369.648 51.647 370.067 50.7731C370.856 48.9916 374.213 47.6806 377.234 49.3613C377.989 49.7311 378.643 50.3529 379.197 51.042C379.684 51.7815 380.087 52.6218 380.154 53.5798C380.372 55.4621 379.6 57.647 377.922 58.8571C377.083 59.4453 376.059 59.8319 374.951 59.9327C373.843 60 372.685 59.8487 371.561 59.479C369.312 58.7563 367.365 56.9748 365.62 54.9916C362.196 50.8403 359.293 46.3529 356.188 42.6554C355.449 41.6974 354.677 40.8067 353.888 39.9664C353.1 39.126 352.395 38.2689 351.606 37.5294C350.079 36 348.501 34.7227 347.024 33.6302C344.053 31.4453 341.267 30.2185 339.304 29.6302C337.34 29.0252 336.199 28.9411 336.182 29.042C336.048 29.4285 340.63 30.2184 346.185 34.7395C347.561 35.8655 349.021 37.1596 350.448 38.689C351.186 39.4285 351.858 40.3025 352.596 41.126C353.335 41.9664 354.073 42.8403 354.778 43.7983C357.765 47.479 360.534 51.8991 364.143 56.2689Z" fill="white"/>
<path d="M362.112 9.42862C362.062 9.8656 362.095 10.3194 362.079 10.7732C362.062 10.9916 362.045 11.2269 361.961 11.4286C361.827 11.7479 361.525 11.9832 361.206 12.1345C360.165 12.6219 358.839 12.2521 358.017 11.4454C357.195 10.6387 356.507 9.61349 356.372 8.47063C356.238 7.32777 356.305 6.10089 357.144 4.90761C356.993 4.82357 356.322 4.90761 356.221 5.04206C355.231 6.25215 354.929 7.8824 354.862 9.44542C354.828 10.1513 354.828 10.8908 354.996 11.5799C355.533 13.916 357.832 15.6303 360.232 15.7311C362.162 15.8152 364.176 14.874 365.116 13.1933C365.871 11.8656 365.821 10.1009 364.982 8.82358C364.092 7.47904 362.313 7.68072 362.112 9.42862Z" fill="white"/>
<path d="M373.659 52.0002C373.659 50.8573 372.736 49.9329 371.594 49.9329C370.453 49.9329 369.53 50.8573 369.53 52.0002C369.53 53.143 370.453 54.0674 371.594 54.0674C372.753 54.0674 373.659 53.143 373.659 52.0002Z" fill="white"/>
<path d="M259.635 36.336C258.628 35.9662 258.225 34.6385 258.309 33.5797C258.426 32.336 259.299 31.1427 258.98 29.9326C258.628 28.6385 256.966 28.0671 255.691 28.4704C254.415 28.8738 253.458 29.9494 252.67 31.0418C253.878 27.7645 257.335 25.7645 260.776 25.2603C261.514 25.1595 263.998 26.4872 264.367 26.9578C265.475 28.3192 265.777 29.9998 265.693 31.7477C265.576 34.2687 263.025 37.6133 259.635 36.336Z" fill="white"/>
<path d="M245.218 30.8236C245.721 31.7479 245.637 32.6891 245.436 33.5631C245.218 34.4874 244.395 35.2437 244.345 36.2017C244.295 37.2605 245.268 38.1513 246.309 38.3362C247.349 38.5379 248.407 38.2017 249.38 37.7816C248.893 38.4202 248.222 38.9076 247.484 39.1765C246.745 39.4454 245.956 39.4958 245.184 39.479C243.607 39.4454 241.844 39.0421 240.989 37.7143C240.703 37.2605 240.418 36.7059 240.317 36.1849C240.065 34.9748 240.032 33.7143 240.502 32.5715C240.871 31.6807 241.576 30.874 242.398 30.3866C242.751 30.1681 243.288 29.9328 243.707 30C244.194 30.0841 244.916 30.2521 245.218 30.8236Z" fill="white"/>
<path d="M228.888 53.2435C228.888 51.9326 227.831 50.8738 226.521 50.8738C225.212 50.8738 224.155 51.9326 224.155 53.2435C224.155 54.5545 225.212 55.6133 226.521 55.6133C227.831 55.5965 228.888 54.5376 228.888 53.2435Z" fill="white"/>
<path d="M167.932 31.7983C164.088 28.7563 160.06 26 155.781 24.0504C151.518 22.1008 146.919 20.9748 142.522 21.3277C138.192 21.6134 133.896 23.3109 131.496 26.605C130.304 28.2017 129.582 30.084 129.465 31.9496C129.381 33.8319 129.952 35.6134 130.908 37.0252C131.865 38.4369 133.258 39.4622 134.751 39.8319C136.245 40.2017 137.739 40 138.947 39.4622C140.172 38.9243 141.112 38.0168 141.649 37.0084C142.119 35.9496 142.237 34.8907 142.052 34C141.767 32.168 140.676 31.0252 139.87 30.5714C139.065 30.084 138.528 30.0504 138.561 30C138.544 30.0336 139.065 30.1008 139.837 30.6386C140.592 31.126 141.565 32.3025 141.75 34.0504C141.884 34.9075 141.7 35.8823 141.247 36.8067C140.709 37.6975 139.82 38.4538 138.712 38.8907C137.605 39.3277 136.245 39.4622 134.97 39.0756C133.694 38.7059 132.519 37.7647 131.731 36.4874C130.942 35.2269 130.505 33.647 130.64 32.0336C130.807 30.4201 131.479 28.8067 132.57 27.4285C134.751 24.6218 138.628 23.1764 142.64 22.9916C146.718 22.7563 150.981 23.8655 155.025 25.7647C159.087 27.6806 162.964 30.3529 166.74 33.3445C170.516 36.3361 174.192 39.5294 178.404 41.7311C182.567 43.9496 187.35 45.0588 191.78 44.1512C192.317 44 192.871 43.9159 193.408 43.7143C193.929 43.4958 194.449 43.2941 194.952 43.0924C195.422 42.8067 195.892 42.5378 196.362 42.2521C196.832 41.9832 197.218 41.5966 197.638 41.2605C199.249 39.8487 200.474 38.1008 201.162 36.168C201.414 35.1764 201.682 34.2017 201.632 33.1932C201.733 32.2017 201.481 31.2101 201.179 30.3025C200.491 28.5042 199.266 27.0756 197.873 26.084C196.463 25.0924 194.818 24.5546 193.241 24.5378C191.663 24.5714 190.169 25.1428 189.145 26.1344C188.122 27.126 187.601 28.3529 187.383 29.479C187.165 30.6218 187.232 31.6806 187.434 32.605C187.836 34.4706 188.978 35.6302 189.834 36.084C190.27 36.3361 190.622 36.4369 190.874 36.4706C191.126 36.521 191.243 36.521 191.243 36.4874C191.243 36.4538 191.143 36.3865 190.925 36.2689C190.706 36.168 190.387 36.0168 190.035 35.7479C189.313 35.2269 188.424 34.1512 188.172 32.4538C187.92 30.8403 188.172 28.4874 189.884 26.9243C190.723 26.1848 191.931 25.7647 193.224 25.7815C194.516 25.8319 195.876 26.3193 197.05 27.1932C198.225 28.0672 199.232 29.3109 199.752 30.8067C199.971 31.563 200.172 32.3193 200.071 33.1596C200.105 33.9832 199.853 34.7899 199.635 35.6302C198.393 38.8067 195.322 41.6975 191.411 42.3529C187.518 43.1092 183.171 42.1008 179.277 40C175.333 37.9496 171.775 34.8403 167.932 31.7983Z" fill="white"/>
<path d="M96.57 31.8825C92.7267 28.8404 88.7323 26.0841 84.4526 24.1009C80.2065 22.1178 75.6079 20.9917 71.2275 21.311C69.0625 21.4791 66.8975 21.832 65.001 22.7564L64.2793 23.0757L63.608 23.4791C63.1716 23.7648 62.7185 24.0169 62.2989 24.3026C61.4933 24.9413 60.7549 25.6472 60.1507 26.4371C58.9087 28.0001 58.1871 29.8825 58.0192 31.7312C57.8514 33.6136 58.4052 35.4119 59.3283 36.8236C60.2514 38.2522 61.6108 39.311 63.0877 39.7312C64.5646 40.1514 66.0583 40.0001 67.2835 39.4959C68.4919 38.9917 69.5324 38.1682 70.0527 37.143C70.573 36.1346 70.7912 35.0757 70.6401 34.1682C70.4387 32.3194 69.3646 31.1598 68.559 30.6892C67.7534 30.2018 67.2164 30.1682 67.2499 30.1346C67.2332 30.1682 67.7534 30.2354 68.5255 30.7564C69.2807 31.2438 70.2541 32.4371 70.338 34.185C70.4555 35.0421 70.187 36.0169 69.6667 36.8909C69.1464 37.7984 68.173 38.4875 67.0653 38.8909C65.9409 39.2942 64.5982 39.3783 63.3227 38.9413C62.064 38.5211 60.9059 37.5463 60.1507 36.269C59.3954 34.9917 58.9591 33.3951 59.1773 31.7984C59.3787 30.2018 60.05 28.5715 61.1912 27.227C61.7451 26.5379 62.4164 25.9497 63.1381 25.3951C63.5241 25.143 63.9269 24.9245 64.3297 24.6892L64.9339 24.3362L65.5884 24.0841C67.3171 23.2942 69.2975 23.0253 71.3114 22.9077C75.373 22.6892 79.6359 23.8152 83.6638 25.748C87.7085 27.6808 91.5854 30.3699 95.3448 33.3615C99.121 36.3699 102.797 39.5463 107.009 41.7312C111.188 43.9161 115.971 45.0085 120.385 44.0673C124.866 43.1934 128.357 39.8488 129.7 36.0337C129.817 35.5295 129.935 35.0421 130.035 34.5547C130.17 34.0673 130.103 33.5631 130.136 33.0589C130.237 32.0673 129.952 31.0757 129.633 30.185C128.945 28.3867 127.686 26.9749 126.293 26.0001C124.866 25.0421 123.238 24.4875 121.644 24.5211C120.066 24.5715 118.573 25.143 117.566 26.1682C116.575 27.1934 116.156 28.4875 116.022 29.6304C115.871 30.79 116.038 31.8488 116.324 32.7396C116.861 34.5715 118.036 35.6304 118.892 36.0841C119.328 36.3194 119.68 36.4203 119.932 36.4539C120.167 36.5043 120.301 36.5043 120.301 36.4707C120.301 36.4371 120.201 36.3699 119.982 36.2522C119.764 36.1514 119.445 36.0169 119.093 35.7312C118.371 35.2102 117.431 34.185 117.045 32.5211C116.643 30.9413 116.726 28.5547 118.338 26.9245C119.126 26.1682 120.352 25.7312 121.644 25.748C122.936 25.7648 124.296 26.269 125.487 27.1094C126.662 27.9833 127.686 29.2102 128.223 30.6892C128.458 31.4287 128.676 32.2018 128.559 33.0253C128.508 33.4287 128.575 33.8488 128.458 34.2522C128.357 34.6556 128.256 35.0757 128.156 35.4791C126.964 38.6724 123.893 41.5799 120.016 42.269C116.139 43.0589 111.775 42.0673 107.899 40.0001C103.971 38.0169 100.397 34.9245 96.57 31.8825Z" fill="white"/>
<path d="M148.161 48.3194C147.02 50.269 146.063 52.3026 145.812 54.5883C145.694 55.7143 145.778 56.9076 146.198 57.9833C146.382 58.5379 146.735 59.0085 147.053 59.4791C147.456 59.8824 147.826 60.3194 148.295 60.5883C150.091 61.832 152.323 61.9328 154.086 61.2774C155.831 60.5379 157.006 59.1597 157.644 57.7984C158.919 55.0589 158.332 52.1177 156.754 51.227C156.032 50.7732 155.328 50.8236 154.925 50.9244C154.505 51.0421 154.354 51.227 154.337 51.2101C154.337 51.227 154.522 51.0589 154.942 51.0085C155.328 50.958 155.982 51.0085 156.586 51.4791C157.845 52.3698 158.097 55.0421 156.771 57.3446C156.116 58.4875 155.025 59.5295 153.616 60.0169C152.239 60.4034 150.494 60.2354 149.235 59.227C147.893 58.3194 147.406 56.6051 147.658 54.8068C147.893 52.9917 148.799 51.0925 149.839 49.3278C151.921 45.7312 155.042 43.0421 158.197 41.3446C161.403 39.6807 164.676 39.0253 167.428 38.9412C172.983 38.79 176.256 40.4875 176.374 40.1177C176.424 40.0001 175.669 39.5295 174.175 38.8908C172.664 38.3026 170.365 37.6471 167.428 37.5631C164.508 37.4791 160.933 38.0169 157.392 39.748C153.901 41.4791 150.46 44.3698 148.161 48.3194Z" fill="white"/>
<path d="M2.73568 25.1091C1.49373 20.7562 1.77905 16.0335 3.15526 11.9999C3.33987 11.4957 3.47414 10.9747 3.7091 10.5041L4.44756 9.10913C4.68252 8.63854 4.91748 8.18476 5.23636 7.7646C5.52168 7.32762 5.84056 6.92426 6.17622 6.55451C7.50208 5.00829 9.11326 3.74779 10.8587 2.87384C14.3328 1.09233 18.3775 1.10913 21.5327 2.55451C23.1104 3.2604 24.4362 4.33602 25.3761 5.63014C26.2488 6.95787 26.7523 8.43686 26.7187 9.89905C26.6516 11.3276 26.0474 12.689 25.1411 13.6301C24.2348 14.5881 23.06 15.1596 21.902 15.294C19.5356 15.5965 17.4377 14.3192 16.8503 12.7562C16.1789 11.1596 16.716 9.73098 17.2027 9.0083C17.4545 8.62174 17.7062 8.38644 17.8908 8.23518C18.0754 8.08392 18.1593 7.99989 18.1593 7.99989C18.1593 7.99989 18.0586 8.06712 17.874 8.21838C17.6726 8.35283 17.4041 8.57132 17.1188 8.95787C16.5817 9.66375 15.9272 11.1091 16.5482 12.8738C17.102 14.6217 19.3174 16.1343 21.9523 15.9159C24.5705 15.7982 27.4236 13.3948 27.6921 9.96628C27.7928 8.2688 27.2726 6.5377 26.3327 4.99148C25.3257 3.47888 23.8488 2.20156 22.1034 1.36123C18.6461 -0.353054 14.0811 -0.504311 10.137 1.41166C8.1734 2.33603 6.36083 3.71417 4.85035 5.41165C4.46434 5.83182 4.09511 6.2688 3.77623 6.75619C3.40701 7.20997 3.13848 7.71417 2.86995 8.23518L2.03079 9.76459C1.76226 10.2856 1.61122 10.857 1.39304 11.3948C-0.151009 15.8318 -0.486671 20.8402 0.87276 25.6806C1.56087 28.0839 2.75247 30.3696 4.43078 32.2184C6.17622 33.9663 8.13984 35.4789 10.3552 36.3192C11.4125 36.857 12.5706 37.0755 13.6615 37.4453C14.7859 37.6301 15.8936 37.9327 17.0181 37.9999C18.1258 38.1007 19.2335 38.1848 20.3244 38.1343C21.4153 38.1511 22.4894 38.0335 23.5467 37.899C24.6208 37.8318 25.611 37.4789 26.618 37.2772C27.625 37.0419 28.5984 36.8066 29.5719 36.5713C31.4348 35.8822 33.2641 35.2772 34.976 34.5713C38.383 33.1091 41.4711 31.6301 44.2906 30.3024C49.8962 27.6133 54.6458 25.9831 58.036 25.294C61.4262 24.6217 63.373 24.6385 63.3562 24.4537C63.3562 24.3864 62.8695 24.336 61.9464 24.3024C61.0234 24.2352 59.6472 24.336 57.9017 24.5377C54.394 25.0083 49.443 26.4873 43.72 29.0251C40.8669 30.2856 37.7452 31.6806 34.3718 33.0587C32.6767 33.7142 30.8977 34.2688 29.0851 34.9075C27.2222 35.294 25.3089 35.8486 23.3285 36.1007C22.3383 36.2184 21.3314 36.3192 20.3076 36.2856C19.2838 36.336 18.26 36.2352 17.2195 36.1343C16.1789 36.0839 15.172 35.7814 14.1146 35.6133C13.1244 35.2604 12.0671 35.0587 11.1104 34.5713C9.11326 33.7982 7.40138 32.4369 5.87412 30.9243C4.39721 29.2772 3.35666 27.2772 2.73568 25.1091Z" fill="white"/>
<path d="M126.88 41.6807C126.696 45.647 124.447 49.3109 121.426 51.8655C118.405 54.4202 114.645 55.9664 110.852 57.0756C108.603 57.7311 106.304 58.2521 104.156 59.1596C101.991 60.0672 99.9434 61.4117 98.6678 63.3613C99.1881 60.8403 99.9937 58.4033 101.286 56.1681C102.595 53.9328 104.424 51.9832 106.707 50.7899C108.956 49.6134 111.507 49.2269 114.008 48.9244C116.525 48.6218 118.975 48.521 121.342 47.5966C123.691 46.6891 126.058 44.0672 126.88 41.6807Z" fill="white"/>
<path d="M107.445 43.0085C104.727 45.8992 100.631 47.2102 96.6706 47.1597C92.7098 47.1093 88.8665 45.8488 85.2581 44.2018C83.1267 43.227 81.0456 42.1177 78.8302 41.395C76.5981 40.6723 74.1813 40.353 71.9324 40.9917C73.9799 39.4286 76.1617 38.1009 78.612 37.2606C81.0456 36.4202 83.7141 36.1345 86.2148 36.7228C88.6819 37.2942 90.8637 38.6723 92.9616 40.0841C95.0595 41.4959 96.9895 43.0253 99.3727 43.8656C101.773 44.7228 105.264 44.2858 107.445 43.0085Z" fill="white"/>
<path d="M16.3803 54.975C14.6349 56.9582 12.688 58.7397 10.4391 59.4624C9.31465 59.8321 8.15661 59.9834 7.04893 59.9161C5.94125 59.8153 4.91748 59.4287 4.07832 58.8405C2.4168 57.6304 1.64477 55.4287 1.84617 53.5632C1.93009 52.6052 2.3161 51.7649 2.80281 51.0254C3.35665 50.3363 4.01119 49.7145 4.76643 49.3447C7.78739 47.664 11.144 48.975 11.9328 50.7565C12.3692 51.6304 12.2517 52.4708 12.0671 52.9413C11.8657 53.4287 11.6307 53.6136 11.6475 53.6304C11.6307 53.6136 11.8825 53.4624 12.1342 52.975C12.3692 52.5044 12.5873 51.6304 12.2013 50.622C11.7985 49.6472 10.8083 48.622 9.365 48.1514C7.93843 47.6304 6.09229 47.6472 4.31329 48.4539C3.407 48.8237 2.60141 49.4792 1.87974 50.2859C1.2252 51.143 0.671354 52.185 0.503523 53.3615C0.134295 55.664 0.889534 58.4035 3.05455 60.1514C4.12867 60.975 5.45454 61.5128 6.84753 61.6808C8.24053 61.8153 9.65031 61.664 11.0097 61.2439C13.7789 60.4035 15.9775 58.3699 17.8572 56.2523C21.4656 51.8825 24.2348 47.4624 27.2222 43.7649C27.9271 42.8069 28.6656 41.9329 29.404 41.0926C30.1425 40.2523 30.8138 39.3951 31.5522 38.6556C32.9788 37.1262 34.4389 35.8321 35.8152 34.7061C41.3704 30.185 45.9521 29.3951 45.8179 29.0086C45.8011 28.9077 44.6598 28.975 42.6962 29.5968C40.7326 30.185 37.9634 31.4119 34.976 33.5968C33.4991 34.6892 31.9215 35.9666 30.3942 37.496C29.6054 38.2355 28.9005 39.0926 28.1117 39.9329C27.3229 40.7733 26.5509 41.664 25.8124 42.622C22.7076 46.3363 19.8041 50.8405 16.3803 54.975Z" fill="white"/>
<path d="M19.888 9.42862C19.9383 9.8656 19.9048 10.3194 19.9216 10.7732C19.9383 10.9916 19.9551 11.2269 20.039 11.4286C20.1733 11.7479 20.4754 11.9832 20.7943 12.1345C21.8348 12.6219 23.1439 12.2521 23.9831 11.4454C24.8054 10.6387 25.4935 9.61349 25.6278 8.47063C25.7621 7.32777 25.6949 6.10089 24.8558 4.90761C25.0068 4.82357 25.6782 4.90761 25.7789 5.04206C26.7691 6.25215 27.0712 7.8824 27.1383 9.44542C27.1718 10.1513 27.1718 10.8908 27.004 11.5799C26.467 13.916 24.1677 15.6303 21.7677 15.7311C19.8376 15.8152 17.8237 14.874 16.8838 13.1933C16.1286 11.8656 16.1957 10.1009 17.0349 8.82358C17.9076 7.47904 19.6698 7.68072 19.888 9.42862Z" fill="white"/>
<path d="M8.32446 52.0002C8.32446 50.8573 9.24753 49.9329 10.3888 49.9329C11.53 49.9329 12.4531 50.8573 12.4531 52.0002C12.4531 53.143 11.53 54.0674 10.3888 54.0674C9.24753 54.0674 8.32446 53.143 8.32446 52.0002Z" fill="white"/>
<path d="M122.366 36.336C123.373 35.9662 123.775 34.6385 123.691 33.5797C123.574 32.336 122.701 31.1427 123.02 29.9326C123.373 28.6385 125.034 28.0671 126.31 28.4704C127.585 28.8738 128.542 29.9494 129.331 31.0418C128.122 27.7645 124.665 25.7645 121.224 25.2603C120.486 25.1595 118.002 26.4872 117.633 26.9578C116.525 28.3192 116.223 29.9998 116.307 31.7477C116.424 34.2687 118.975 37.6133 122.366 36.336Z" fill="white"/>
<path d="M136.765 30.8236C136.262 31.7479 136.346 32.6891 136.547 33.5631C136.782 34.4874 137.588 35.2437 137.638 36.2017C137.689 37.2605 136.715 38.1513 135.675 38.3362C134.634 38.5379 133.577 38.2017 132.603 37.7816C133.09 38.4202 133.761 38.9076 134.5 39.1765C135.238 39.4454 136.027 39.4958 136.799 39.479C138.377 39.4454 140.139 39.0421 140.995 37.7143C141.28 37.2605 141.565 36.7059 141.666 36.1849C141.918 34.9748 141.951 33.7143 141.482 32.5715C141.112 31.6807 140.407 30.874 139.585 30.3866C139.233 30.1681 138.696 29.9328 138.276 30C137.806 30.0841 137.068 30.2521 136.765 30.8236Z" fill="white"/>
<path d="M153.095 53.2435C153.095 51.9326 154.153 50.8738 155.462 50.8738C156.771 50.8738 157.828 51.9326 157.828 53.2435C157.828 54.5545 156.771 55.6133 155.462 55.6133C154.153 55.5965 153.095 54.5376 153.095 53.2435Z" fill="white"/>
<path d="M196.446 66.2691C193.476 63.7313 191.495 60.1515 190.841 56.2859H190.824C189.968 60.1179 187.803 63.5632 184.698 65.9498C188.944 67.8658 190.673 73.9834 190.673 73.9834C190.673 73.9834 192.821 67.6473 196.446 66.2691Z" fill="white"/>
<path d="M197.52 58.7566C199.937 61.8995 203.512 64.4709 206.852 64.7734C208.228 64.8911 209.839 64.4205 210.51 62.7734C211.115 61.2944 210.712 59.3112 209.806 58.1348C208.916 56.9583 207.641 56.4373 206.399 56.2356C205.157 56.0339 203.898 56.0844 202.656 55.8659C198.376 55.0928 194.801 50.9919 192.133 46.3869C191.629 45.5129 191.227 44.5213 190.757 43.6474C192.301 49.2944 194.315 54.6054 197.52 58.7566Z" fill="white"/>
<path d="M183.842 58.7566C181.425 61.8995 177.85 64.4709 174.511 64.7734C173.134 64.8911 171.523 64.4205 170.852 62.7734C170.248 61.2944 170.667 59.3112 171.557 58.1348C172.446 56.9583 173.722 56.4373 174.964 56.2356C176.206 56.0339 177.464 56.0844 178.706 55.8659C182.986 55.0928 186.561 50.9919 189.229 46.3869C189.733 45.5129 190.136 44.5213 190.606 43.6474C189.062 49.2944 187.048 54.6054 183.842 58.7566Z" fill="white"/>
</g>
<defs>
<clipPath id="clip0_314_1196">
<rect width="382" height="74" fill="white" transform="matrix(1 0 0 -1 0 74)"/>
</clipPath>
</defs>
</svg>
