<svg width="416" height="204" viewBox="0 0 416 204" fill="none" xmlns="http://www.w3.org/2000/svg">
<g clip-path="url(#clip0_1_3939)">
<path d="M414.84 0.991608C414.535 -0.606337 412.261 -0.0889074 412.154 1.35685C411.529 9.57486 411.406 17.9146 410.063 26.0717C408.736 34.0919 406.492 42.0512 402.784 49.3257C399.213 56.3414 394.284 62.8093 387.859 67.4662C380.182 73.0361 371.117 75.5776 361.869 77.1604C352.117 78.8344 342.167 79.5953 332.644 82.3499C324.541 84.6935 317.154 88.6351 310.699 94.0377C298.46 104.234 290.356 118.494 282.68 132.191C274.637 146.542 266.747 161.395 254.691 172.87C242.421 184.527 226.855 192.471 210.388 196.276C193.922 200.08 176.433 199.67 160.317 194.495C141.912 188.59 126.392 176.431 111.726 164.271C96.9074 151.99 82.3179 138.993 64.7219 130.76C48.53 123.181 29.2553 118.829 11.7357 124.307C7.59996 125.601 3.81523 127.732 0.320459 130.273C-0.351026 130.76 0.213632 131.795 0.976682 131.399C9.29393 127.123 18.6947 124.779 28.065 124.87C37.4352 124.962 46.6987 127.184 55.4127 130.532C74.0159 137.684 89.2159 150.346 104.233 163.054C119.143 175.67 134.327 188.484 152.564 196.048C168.39 202.607 185.91 204.372 202.834 202.013C219.728 199.67 236.164 193.11 249.792 182.807C263.375 172.535 272.775 158.838 281.169 144.244C289.227 130.243 296.506 115.313 307.601 103.382C312.866 97.7206 318.986 92.9572 326.021 89.6852C335.162 85.4545 345.387 84.237 355.246 82.8217C364.937 81.4368 374.704 79.8388 383.555 75.4711C390.926 71.8187 397.137 66.2487 401.945 59.6134C411.62 46.2972 415.573 29.0089 416 12.786C416.092 8.79871 415.603 4.91799 414.84 0.991608Z" fill="white"/>
<path d="M396.344 7.45946C396.313 6.57679 394.925 6.0137 394.513 6.95725C393.856 8.46389 393.047 9.92487 392.452 11.4619C391.766 13.2425 391.277 15.1448 390.697 16.971C389.629 20.3039 388.408 23.5759 386.882 26.7413C383.845 33.057 379.892 38.9466 374.673 43.6644C369.332 48.4886 362.846 51.5932 355.734 52.765C346.715 54.2564 337.467 52.9781 328.387 53.0998C320.344 53.2064 312.576 54.6065 305.266 58.0306C298.933 60.9983 293.24 65.2747 288.265 70.1446C277.537 80.6454 269.937 93.8551 263.451 107.247C256.767 121.066 250.662 135.356 241.673 147.911C232.364 160.938 219.545 170.8 203.78 174.589C188.229 178.333 172.449 175.381 158.303 168.335C144.568 161.486 132.527 151.777 120.348 142.585C107.193 132.662 93.6111 123.744 78.3653 117.322C62.6312 110.702 45.9204 106.502 28.9196 104.949C24.7076 104.569 20.5261 104.371 16.2988 104.478C14.7879 104.508 14.8185 106.7 16.2988 106.791C25.1502 107.354 33.971 108.115 42.6851 109.789C51.2923 111.448 59.7621 113.791 67.9878 116.789C83.9509 122.618 98.5251 131.095 112.138 141.185C136.571 159.31 161.919 182.899 194.715 180.281C210.953 178.988 226.046 171.744 237.339 160.056C248.159 148.855 255.286 134.808 261.925 120.914C268.548 107.05 274.927 92.9267 284.633 80.8737C293.775 69.5206 305.861 59.9786 320.741 58.0306C329.806 56.8436 338.978 58.1067 348.089 57.8632C356.177 57.6502 364.128 56.0827 371.117 51.8519C383.326 44.4709 391.308 31.0178 395.199 17.595C396.191 14.2013 396.496 11.0358 396.344 7.45946Z" fill="white"/>
</g>
<defs>
<clipPath id="clip0_1_3939">
<rect width="416" height="203" fill="white" transform="translate(0 0.00244141)"/>
</clipPath>
</defs>
</svg>
