<svg width="473" height="462" viewBox="0 0 473 462" fill="none" xmlns="http://www.w3.org/2000/svg">
<g clip-path="url(#clip0_1_3950)">
<path fill-rule="evenodd" clip-rule="evenodd" d="M347.783 402.282C344.992 404.164 344.118 404.643 340.977 406.009C339.424 406.682 336.995 407.884 335.577 408.678C332.027 410.665 326.574 413.109 323.183 414.234C315.036 416.933 310.547 418.864 306.713 421.316C304.24 422.897 296.495 427.238 295.266 427.731C291.851 429.102 286.291 429.305 282.762 428.186C280.447 427.452 279.512 426.877 276.905 424.586C275.578 423.419 273.811 421.771 272.977 420.925L271.462 419.385L269.039 422.131C266.391 425.131 265.356 426.031 263.44 426.998C262.029 427.71 260.292 427.837 259.068 427.316C256.997 426.435 254.189 422.65 252.286 418.18C249.727 412.164 249.034 405.378 250.09 396.664C250.241 395.425 250.366 394.366 250.367 394.311C250.389 393.772 244.778 394.001 241.692 394.665C239.111 395.222 235.728 395.627 232.15 395.81C228.348 396.005 226.992 395.927 225.341 395.422C221.666 394.293 215.893 390.478 215.063 388.628C214.065 386.403 215.632 383.63 219.491 380.795C222.446 378.625 224.216 376.588 227.304 371.809C228.669 369.698 230.469 366.217 231.892 362.939C232.423 361.716 233.328 359.764 233.905 358.599C234.48 357.433 235.383 355.496 235.913 354.29C236.443 353.083 237.494 350.97 238.249 349.593C239.63 347.076 243.389 338.601 244.956 334.475C245.447 333.182 246.092 331.821 246.506 331.199C248.519 328.18 252.804 323.51 254.583 322.396C255.034 322.115 256.555 321.592 258.252 321.136C259.845 320.708 261.631 320.219 262.219 320.048C262.808 319.879 264.087 319.741 265.062 319.741C266.038 319.742 267.57 319.718 268.467 319.687C270.133 319.629 272.406 319.818 272.656 320.032C273.083 320.397 273.319 320.227 273.411 319.491C273.5 318.792 274.078 317.547 274.578 316.981C274.701 316.842 275.106 315.979 275.481 315.064C275.854 314.148 276.374 313.158 276.633 312.864C277.163 312.264 277.828 310.92 278.074 309.948C278.165 309.595 278.31 308.437 278.398 307.375C278.61 304.798 279.735 300.382 280.365 299.647L280.828 299.108L279.962 296.224C278.88 292.62 279.174 293.305 276.772 288.786C272.935 281.561 270.093 277.51 264.503 271.296C255.426 261.206 250.39 255.833 246.678 252.278C239.381 245.289 230.615 236.443 227.001 232.42C223.097 228.074 216.826 220.148 214.052 216.053C211.613 212.451 205.362 202.419 202.181 197.001C200.536 194.195 199.152 191.867 199.106 191.827C199.06 191.787 199.303 192.805 199.643 194.09C200.282 196.493 201.006 201.433 201.29 205.317C201.378 206.533 201.387 208.989 201.307 210.777C201.22 212.744 201.294 215.974 201.495 218.94C201.675 221.64 201.832 225.376 201.842 227.243C201.851 229.11 201.921 231.938 201.999 233.529L202.137 236.419L202.68 236.333C202.978 236.285 204.082 236.502 205.134 236.816C206.185 237.129 207.719 237.506 208.543 237.655C209.367 237.803 210.661 238.13 211.421 238.379C212.18 238.63 213.797 239.108 215.013 239.442C218.084 240.285 218.355 240.414 221.395 242.462C225.127 244.976 228.4 247.592 232.929 251.683C237.487 255.798 237.5 255.816 237.439 257.952C237.392 259.573 237.189 260.22 236.474 261.031C235.806 261.787 235.139 262.185 234.039 262.479C233.471 262.632 233.238 262.764 233.315 262.888C233.38 262.991 233.975 263.721 234.639 264.514C235.305 265.309 236.199 266.562 236.628 267.299C237.731 269.196 239.182 272.499 239.602 274.069C240.283 276.613 240.129 280.618 239.263 282.818C239.034 283.396 238.212 284.887 237.436 286.132C234.537 290.771 234.004 292.193 233.327 297.124C232.909 300.178 232.856 301.27 232.994 304.177C233.172 307.966 232.996 309.169 232.121 310.161C230.576 311.911 228.739 311.344 224.857 307.918C222.995 306.274 222.648 305.901 221.691 304.505C221.101 303.643 220.585 302.94 220.544 302.943C220.504 302.945 220.26 303.365 220.002 303.877C219.331 305.212 218.203 306.278 216.973 306.736C215.559 307.263 212.504 307.379 210.391 306.988C206.473 306.262 204.761 306.071 201.976 306.053C192.934 305.994 188.074 304.68 183.616 301.091C182.236 299.98 181.929 299.661 181.38 298.771C180.041 296.599 179.432 293.02 179.781 289.377L179.836 288.804L178.55 288.09C177.843 287.698 176.001 286.852 174.459 286.211C171.995 285.188 171.536 284.943 170.675 284.183C169.76 283.378 169.649 283.208 169.019 281.663C168.243 279.76 168.028 278.031 168.418 276.803C168.739 275.787 170.789 272.138 173.524 267.721C175.432 264.634 175.712 264.09 176.498 261.919C176.976 260.601 177.844 258.588 178.427 257.446C179.275 255.783 179.596 254.919 180.035 253.101C180.607 250.727 181.45 248.281 182.21 246.78C182.457 246.293 183.434 244.657 184.382 243.142C186.634 239.545 187.081 239.099 190.002 237.539C191.22 236.89 192.474 236.258 192.792 236.136C194.176 235.602 198.927 235.596 199.529 236.127C199.623 236.21 199.731 236.242 199.77 236.197C199.809 236.153 199.79 234.997 199.729 233.625C199.668 232.256 199.605 228.875 199.592 226.116C199.578 223.355 199.462 220.06 199.333 218.793C199.077 216.25 199.067 213.585 199.301 210.343C199.522 207.292 199.459 205.698 198.935 201.21C198.232 195.173 197.931 193.907 195.69 187.596C194.726 184.878 193.896 183.456 190.532 178.753C185.775 172.104 183.929 169.829 176.307 161.232C173.51 158.077 170.34 154.468 169.262 153.211C162.189 144.964 150.726 134.663 136.747 123.987C135.469 123.013 134.388 122.252 134.346 122.3C134.303 122.349 134.478 122.641 134.734 122.947C135.634 124.032 138.877 128.782 139.671 130.174C140.111 130.948 141.106 133.044 141.879 134.831C143.216 137.914 143.315 138.089 143.816 138.256C144.19 138.382 145.106 139.106 146.941 140.73C149.159 142.692 149.809 143.358 151.414 145.308C154.031 148.492 158.249 154.879 159.734 157.91C160.776 160.035 162.946 165.586 163.576 167.737C164.183 169.804 165.603 176.072 166.375 180.087C167.281 184.806 167.638 191.82 167.435 200.938C167.23 210.135 167.037 212.641 165.847 221.383C165.097 226.895 165.001 228.629 165.198 232.973C165.281 234.782 165.379 237.655 165.414 239.36C165.563 246.437 165.741 249.651 166.269 254.87C166.977 261.845 167.075 264.191 166.736 265.986C166.498 267.247 166.384 267.514 165.81 268.165C165.233 268.818 165.083 268.906 164.539 268.899C163.577 268.886 162.75 268.393 161.256 266.937C159.584 265.309 158.591 263.987 157.056 261.35C154.718 257.331 153.796 254.625 152.254 247.248C151.708 244.635 150.96 241.057 150.59 239.296C150.222 237.537 149.814 235.309 149.686 234.346C149.557 233.383 149.248 226.587 148.999 219.244C148.749 211.901 148.482 204.258 148.403 202.263C148.104 194.633 147.879 187.111 147.795 181.928C147.522 164.842 147.239 161.63 145.14 151.712C143.604 144.457 143.055 142.682 140.319 136.098C138.14 130.852 137.479 129.664 133.227 123.313C132.238 121.835 131.252 120.349 131.036 120.008C130.711 119.496 129.774 118.746 125.425 115.509C122.555 113.373 119.302 110.928 118.195 110.075C117.088 109.222 115.5 108.088 114.668 107.557C111.964 105.831 100.321 95.2791 97.8738 92.3399C96.9868 91.2732 96.312 90.2137 96.3954 90.017C96.4318 89.9297 97.5247 90.8424 99.0181 92.2031C104.212 96.9425 115.946 106.216 118.226 107.383C121.959 109.294 126.676 110.61 131.705 111.144L133.45 111.328L135.556 110.445C139.96 108.596 141.74 107.284 145.32 103.253C150.044 97.9357 152.366 95.8153 156.928 92.6619C161.225 89.6912 164.366 87.9426 172.27 84.1247C183.402 78.7455 187.276 77.3011 192.728 76.4986C193.992 76.3125 196.234 75.9593 197.712 75.7156C199.19 75.4707 201.747 75.1434 203.397 74.9885C205.045 74.8325 207.401 74.5799 208.631 74.427C211.851 74.0263 224.559 73.442 226.822 73.5878C227.878 73.6564 230.448 73.7916 232.532 73.8887C239.23 74.2025 246.623 75.298 254.933 77.2131C261.105 78.6345 265.982 80.3708 268.827 82.1625C270.46 83.189 270.864 84.5262 269.828 85.4632C268.515 86.6519 264.568 86.9325 254.614 86.5487C246.939 86.2536 241.064 86.3472 231.972 86.9109C223.609 87.4305 221.606 87.6516 215.483 88.7363C210.424 89.6329 207.094 89.9112 202.815 89.7981C199.942 89.7224 191.444 89.0689 188.359 88.6867C186.53 88.4601 181.078 87.4154 179.295 86.9501C178.309 86.6928 175.787 85.6521 175.468 85.3702C175.186 85.1219 175.049 85.1759 170.818 87.2314C165.751 89.6919 163.937 90.6591 161.231 92.3341C154.518 96.4912 151.604 98.9176 146.811 104.343C143.695 107.871 141.926 109.306 138.93 110.731C138.313 111.024 137.81 111.306 137.814 111.355C137.818 111.405 140.388 111.328 143.527 111.184C146.667 111.039 149.911 110.927 150.738 110.93C151.759 110.935 152.925 110.751 154.385 110.351C156.593 109.747 157.046 109.569 160.738 107.85C161.932 107.294 163.337 106.709 163.86 106.551C164.383 106.393 165.851 105.871 167.123 105.393C172.104 103.522 175.577 103.038 184.942 102.906C190.613 102.826 191.456 102.892 196.337 103.789C207.04 105.758 216.44 109.406 225.727 115.194C226.927 115.942 229.937 117.936 232.414 119.624C242.203 126.299 247.375 129.065 258.683 133.683C264.421 136.026 265.6 136.562 268.197 138.016C270.748 139.443 272.234 140.722 272.711 141.907C273.177 143.059 273.098 143.753 272.411 144.53C271.249 145.847 268.847 146.638 265.301 146.872C261.688 147.109 257.977 146.68 251.542 145.274C244.223 143.679 233.66 139.783 214.673 131.68C204.144 127.187 201.173 126.042 190.275 122.277C171.274 115.714 166.008 114.416 154.954 113.582C150.745 113.264 149.363 113.254 143.914 113.5C135.122 113.896 131.278 113.662 125.948 112.403L123.803 111.895L124.753 112.607C139.501 123.687 143.632 126.93 150.726 132.992C158.301 139.465 166.126 146.927 170.254 151.612C170.967 152.422 173.631 155.381 176.174 158.189C185.517 168.5 188.171 171.734 193.329 179.087C194.433 180.661 195.05 181.424 195.225 181.43C195.397 181.434 195.491 181.527 195.502 181.706C195.528 182.116 200.115 186.302 202.095 187.722C204.098 189.159 207.263 191.142 209.669 192.465C215.277 195.551 217.709 196.07 230.254 196.867C232.103 196.983 234.808 197.196 236.263 197.338C237.718 197.48 239 197.566 239.109 197.529C239.22 197.493 239.823 197.306 240.449 197.115C247.111 195.076 247.718 194.733 251.505 190.878C254.817 187.507 255.818 186.014 257.701 181.638C260.163 175.915 263.053 170.867 265.342 168.288C266.276 167.235 268.984 165.102 270.355 164.338C272.674 163.044 274.957 163.203 278.245 164.883C281.599 166.598 284.325 169.344 285.654 172.345C286.047 173.236 286.476 174.13 286.604 174.335C287.121 175.154 287.909 177.14 288.094 178.09L288.292 179.095L289.828 179.063C294.414 178.968 298.208 180.109 301.267 182.5C303.418 184.179 304.581 186.226 304.861 188.821C305.068 190.727 304.562 192.231 302.049 197.19C298.452 204.292 296.962 206.68 294.556 209.202C291.376 212.534 287.991 213.946 284.586 213.361L283.456 213.166L283.49 214.575C283.537 216.49 283.261 218.171 282.362 221.441C281.691 223.887 281.423 224.556 280.05 227.226C277.257 232.657 276.352 233.897 274.439 234.9C273.43 235.43 271.963 235.695 271.157 235.494C269.963 235.194 267.866 233.844 265.065 231.57C263.547 230.339 261.473 228.666 260.457 227.851C258.978 226.665 258.176 225.89 256.444 223.967C252.685 219.796 251.894 218.712 249.267 214.146C247.38 210.866 246.815 209.662 245.781 206.72C244.85 204.067 244.272 203.214 242.364 201.684C241.542 201.024 240.614 200.371 240.302 200.232C239.663 199.947 236.295 199.581 231.229 199.246C218.656 198.413 216.383 198.061 212.248 196.3C209.158 194.983 204.22 191.974 201.257 189.601C200.292 188.828 199.511 188.274 199.524 188.371C199.538 188.469 199.979 189.207 200.508 190.014C201.036 190.82 202.384 193.03 203.503 194.923C207.494 201.68 212.978 210.505 215.754 214.635C219.146 219.68 225.912 228.05 230.628 233.037C235.627 238.323 236.254 238.905 238.494 240.362C239.633 241.101 242.143 242.791 244.073 244.116C246.004 245.441 247.999 246.752 248.507 247.029C252.733 249.328 259.127 250.981 265.198 251.347C266.257 251.412 270.028 251.453 273.577 251.44C285.886 251.396 288.043 251.547 292.433 252.763C295.919 253.728 297.79 254.462 300.739 256.02C302.282 256.834 303.497 257.384 303.57 257.301C303.64 257.221 304.708 256.742 305.941 256.236C307.175 255.73 308.503 255.088 308.891 254.812C310.519 253.655 312.305 251.999 313.996 250.08C316.066 247.731 317.278 246.075 318.486 243.94C319.861 241.513 321.106 240.212 323.825 238.368C327.97 235.556 330.679 234.622 335.307 234.406C337.972 234.283 338.945 234.45 342.909 235.72C347.526 237.199 347.894 237.334 349.537 238.136C351.772 239.23 353.36 240.659 354.21 242.343C354.55 243.02 355.07 244.501 355.363 245.635C356.002 248.104 356.28 248.837 356.593 248.895C356.724 248.918 358.3 249.057 360.094 249.2C364.399 249.546 365.636 249.716 367.295 250.189C368.653 250.577 368.709 250.61 370.207 251.933C371.718 253.266 371.74 253.294 372.262 254.586C372.618 255.468 372.876 256.662 373.057 258.271C373.592 263.032 373.758 264.045 374.367 266.313C374.708 267.582 375.677 270.35 376.519 272.461C378.597 277.662 378.808 278.878 378.101 281.574C377.334 284.503 376.073 286.851 373.969 289.267C372.12 291.391 371.26 292.056 369.279 292.9C366.731 293.983 362.933 293.965 359.12 292.849C356.806 292.172 354.428 291.224 352.23 290.107L350.321 289.136L350.402 290.102C350.58 292.237 350.475 294.96 350.172 296.004C349.733 297.52 348.96 298.784 348.175 299.273C347.193 299.885 346.141 299.82 342.842 298.947C337.425 297.513 334.647 297.34 328.924 298.069C320.895 299.093 314.842 297.471 312.602 293.694C311.921 292.544 310.279 288.411 309.564 286.041C308.813 283.558 308.342 280.645 308.07 276.807C307.797 272.957 307.696 272.305 307.078 270.366C306.822 269.558 306.524 268.342 306.418 267.663C306.13 265.814 305.437 263.682 304.8 262.68C304.412 262.072 304.224 261.544 304.205 261.009C304.19 260.579 304.063 260.125 303.922 260C303.367 259.51 297.171 256.376 295.721 255.851C294.875 255.544 293.127 254.997 291.835 254.634C287.455 253.402 285.489 253.261 272.479 253.254C266.59 253.251 263.822 253.115 260.755 252.679C254.396 251.777 249.363 249.951 245.162 247.019C243.177 245.635 242.605 245.31 243.43 246.038C246.657 248.886 252.749 255.028 256.894 259.609C267.309 271.125 269.736 273.999 272.932 278.608C275.487 282.291 279.636 289.582 280.689 292.241C281.091 293.251 281.996 296.392 282.27 297.718C282.474 298.711 282.535 298.816 283.026 299.034C283.319 299.164 284.064 299.607 284.683 300.023C286.592 301.3 287.58 302.677 290.779 308.523C291.956 310.676 292.522 311.374 295.294 314.106C296.479 315.274 297.737 316.537 298.087 316.914L298.724 317.597L299.945 316.924C301.464 316.087 302.663 315.773 303.926 315.88C304.462 315.926 305.91 316.028 307.143 316.107C312.29 316.434 314.521 316.947 320.236 319.124C322.591 320.019 325.742 321.162 327.238 321.662C328.733 322.162 330.823 322.939 331.882 323.387C335.465 324.904 336.259 325.424 343.2 330.813C347.181 333.905 348.461 334.821 351.911 337.038C357.503 340.634 360.627 343.297 362.852 346.368C364.397 348.496 365.685 350.784 366.391 352.651C367.706 356.127 368.527 362.359 367.965 364.612C367.453 366.669 367.068 367.382 365.534 369.112C364.274 370.534 363.935 370.825 362.134 372.011C359.653 373.648 357.433 374.784 354.615 375.859C352.588 376.634 352.444 376.715 352.562 377.028C352.631 377.213 353.162 378.305 353.743 379.453C354.324 380.601 354.88 381.747 354.98 382.002C355.383 383.034 355.977 386.045 355.988 387.116C356.041 392.756 355.57 394.076 352.002 398.28L349.705 400.985L347.783 402.282ZM352.917 394.017C353.681 392.633 354 391.144 354.054 388.709C354.126 385.443 353.657 383.322 352.26 380.579C351.67 379.421 351.104 378.21 351.002 377.886C350.901 377.562 350.791 377.272 350.757 377.242C350.723 377.212 350.19 377.325 349.573 377.492C348.955 377.661 347.138 378.109 345.532 378.49C342.349 379.243 341.448 379.549 340.702 380.131C340.274 380.465 340.191 380.669 340.057 381.736C339.667 384.798 338.154 389.633 336.896 391.827C334.907 395.294 331.471 398.483 327.787 400.276C326.223 401.037 322.561 402.05 319.862 402.466C315.474 403.144 308.872 403.215 298.838 402.695C291.097 402.293 286.696 403.063 283.034 405.456C282.036 406.11 281.58 406.545 279.857 408.498C278.485 410.052 277.557 411.239 276.94 412.232C276.444 413.032 275.193 414.778 274.163 416.112L272.288 418.538L274.756 420.869C279.626 425.47 281.944 426.768 286.104 427.222C289.266 427.569 292.452 427.166 294.929 426.113C296.503 425.443 301.723 422.521 305.498 420.201C307.111 419.209 309.401 417.935 310.586 417.369C313.147 416.147 318.681 413.969 322.738 412.586C326.282 411.378 331.11 409.173 334.876 407.043C336.416 406.172 338.894 404.912 340.382 404.243C343.345 402.911 344.25 402.415 346.755 400.744C348.389 399.654 348.472 399.574 350.442 397.24C351.55 395.926 352.664 394.477 352.917 394.017ZM365.423 365.792C366.364 363.701 366.363 361.682 365.416 357.049C364.211 351.141 361.092 346.427 355.732 342.413C354.687 341.631 353.185 340.573 352.393 340.066C346.505 336.284 344.166 334.608 338.211 329.904C334.362 326.864 332.024 325.629 326.805 323.884C325.213 323.353 321.89 322.144 319.42 321.199C314.448 319.296 312.377 318.763 309.081 318.535C302.241 318.065 302.654 318.056 301.473 318.701C300.925 318.999 300.398 319.284 300.304 319.335C300.211 319.385 300.294 319.701 300.491 320.04C300.801 320.568 300.983 320.717 301.804 321.113C303.21 321.793 306.148 324.113 307.979 325.99C308.83 326.865 309.59 327.68 309.668 327.803C309.915 328.198 314.363 332.94 316.464 335.048C317.582 336.17 318.818 337.472 319.21 337.94C321.271 340.403 325.236 345.783 329.881 352.418C331.631 354.921 335.258 361.124 336.258 363.331C338.163 367.536 339.665 372.776 340.114 376.794L340.311 378.566L341.069 378.146C341.485 377.915 343.754 377.207 346.111 376.572C348.466 375.936 350.46 375.344 350.539 375.254C350.617 375.165 350.819 375.1 350.986 375.107C351.788 375.153 356.772 373.05 359.034 371.71C360.013 371.13 361.997 369.791 362.649 369.269C363.61 368.497 364.972 366.791 365.423 365.792ZM334.887 390.798C335.793 389.212 336.386 387.671 337.138 384.938C337.98 381.879 338.17 380.433 338.062 377.898C337.83 372.515 335.71 366.274 331.889 359.723C329.619 355.832 328.925 354.783 325.565 350.155C319.481 341.777 317.718 339.585 314.655 336.587C312.203 334.189 309.261 331.005 307.274 328.6C306.46 327.616 305.605 326.799 303.911 325.385C301.071 323.011 300.523 322.74 299.357 323.121C298.892 323.273 297.094 323.609 295.361 323.868C293.587 324.134 291.666 324.547 290.965 324.816C287.017 326.331 284.002 326.531 280.226 325.527C278.096 324.961 275.594 323.672 274.859 322.764L274.424 322.227L274.29 323.058C274.078 324.371 273.71 325.327 272.88 326.713C271.944 328.274 271.742 328.878 271.253 331.573C271.044 332.724 270.738 334.106 270.572 334.642C269.385 338.493 267.257 345.033 266.757 346.368C266.428 347.253 265.632 349.389 264.99 351.115C261.001 361.85 260.156 363.958 259.111 365.778C258.144 367.461 257.964 367.942 257.114 371.084C255.091 378.57 252.288 394.893 251.957 401.123C251.722 405.554 252.195 410.503 253.201 414.141C254.325 418.209 257.185 423.256 259.297 424.892C260.046 425.471 260.248 425.549 260.959 425.515C262.593 425.439 264.36 424.303 266.79 421.761C269.124 419.321 273.508 413.888 275.342 411.161C278.663 406.228 281.553 403.656 285.572 402.055C288.793 400.773 293.187 400.26 299.073 400.483C314.377 401.061 321.122 400.521 326.257 398.313C327.623 397.725 330.083 396.18 331.179 395.222C332.224 394.309 334.289 391.846 334.887 390.798ZM374.552 285.049C375.961 282.276 376.567 279.775 376.271 277.961C376.186 277.435 375.505 275.488 374.763 273.634C372.509 268.023 371.815 265.322 371.395 260.509C370.967 255.626 370.666 254.683 369.07 253.211C367.696 251.944 366.162 251.6 360.228 251.222C358.232 251.096 355.525 250.91 354.213 250.811C345.31 250.134 336.951 251.535 327.87 255.229C325.708 256.107 323.167 257.26 322.225 257.791C318.971 259.621 316.471 260.415 312.506 260.876L310.274 261.137L310.968 261.598C311.349 261.853 313.639 263.21 316.056 264.615C320.085 266.958 325.081 270.205 331.486 274.641C341.888 281.845 349.867 286.76 354.9 289.067C361.484 292.081 366.464 292.639 369.663 290.718C371.339 289.71 373.395 287.326 374.552 285.049ZM348.643 295.578C349.175 293.806 349.228 288.717 348.72 288.268C348.564 288.131 347.805 287.657 347.034 287.215C343.539 285.21 335.928 280.237 330.253 276.247C322.265 270.632 315.501 266.348 307.484 261.828L305.914 260.942L306.412 261.637C307.188 262.715 307.966 264.922 308.372 267.189C308.508 267.949 308.829 269.194 309.085 269.956C309.749 271.93 309.866 272.621 310.122 276.066C310.537 281.638 311.097 284.434 312.625 288.558C314.202 292.81 314.829 293.789 316.608 294.783C318.046 295.588 319.284 295.968 321.376 296.252C323.685 296.566 325.532 296.529 329.134 296.101C334.642 295.447 337.59 295.665 342.836 297.119C344.58 297.604 346.303 297.989 346.665 297.98C347.267 297.964 347.367 297.903 347.843 297.237C348.128 296.838 348.487 296.091 348.643 295.578ZM250.807 391.469C251.44 386.592 253.282 377.389 254.435 373.335C254.871 371.801 255.454 369.73 255.729 368.734C256.346 366.505 256.436 366.265 257.326 364.507C258.103 362.973 259.62 359.136 261.714 353.404C262.451 351.389 263.45 348.723 263.935 347.479C264.908 344.984 265.112 344.4 266.606 339.812C267.17 338.08 267.89 335.892 268.206 334.95C268.521 334.007 268.988 332.203 269.246 330.94C269.787 328.286 270.055 327.587 271.225 325.78C271.751 324.966 272.238 323.963 272.494 323.162L272.908 321.862L271.685 321.838C271.013 321.823 269.727 321.831 268.831 321.853C267.934 321.875 266.51 321.87 265.666 321.842C264.823 321.814 263.931 321.831 263.684 321.879C261.977 322.213 255.977 323.971 255.529 324.267C254.466 324.971 251.115 328.49 249.389 330.716C247.92 332.611 247.668 333.024 247.067 334.505C244.585 340.636 241.2 348.345 240.043 350.498C239.3 351.885 238.237 354.05 237.683 355.306C237.13 356.564 236.209 358.54 235.638 359.696C235.066 360.852 234.081 362.962 233.447 364.386C231.211 369.402 229.288 372.734 226.209 376.92C224.641 379.053 223.318 380.372 220.939 382.182C218.146 384.305 216.767 386.059 216.85 387.385C216.882 387.888 217 388.056 217.882 388.834C219.833 390.556 223.733 392.712 226.027 393.337C228.413 393.987 234.678 393.747 240.544 392.783C242.055 392.535 243.914 392.333 244.677 392.335C248.042 392.344 248.719 392.395 249.602 392.697C250.117 392.874 250.557 392.997 250.578 392.973C250.6 392.946 250.704 392.27 250.807 391.469ZM298.755 320.817C298.758 320.22 298.131 319.365 296.311 317.475C295.48 316.613 294.167 315.25 293.393 314.443C291.476 312.447 290.157 310.658 288.849 308.279C286.387 303.804 285.298 302.255 283.933 301.281C283.436 300.925 282.769 300.544 282.449 300.433C281.937 300.255 281.845 300.28 281.647 300.655C281.524 300.886 281.334 301.557 281.227 302.143C281.119 302.73 280.908 303.715 280.757 304.33C280.607 304.948 280.438 306.312 280.383 307.363C280.327 308.415 280.208 309.648 280.12 310.106C279.876 311.356 279.119 313.102 278.532 313.776C278.229 314.121 277.732 315.055 277.348 315.998C276.984 316.891 276.45 317.971 276.158 318.396C275.493 319.373 275.434 319.629 275.684 320.454C275.795 320.822 275.803 321.282 275.703 321.477C275.495 321.879 275.543 321.917 277.229 322.666C278.629 323.289 280.89 323.883 282.535 324.062C285.338 324.368 287.431 324.081 290.197 323.011C291.191 322.628 292.646 322.326 295.055 322.005C296.945 321.754 298.552 321.484 298.623 321.408C298.694 321.328 298.754 321.064 298.755 320.817ZM353.695 246.82C352.882 243.523 352.058 241.953 350.589 240.902C349.266 239.956 347.187 239.04 344.696 238.306C343.46 237.943 341.697 237.405 340.778 237.11C338.508 236.384 336.81 236.183 334.58 236.371C330.978 236.677 328.124 237.74 324.719 240.042C322.354 241.641 321.258 242.796 320.045 244.968C318.796 247.201 316.979 249.591 314.504 252.256C311.25 255.76 309.654 256.891 306.475 257.951L305.29 258.346L305.878 258.719C306.382 259.037 306.828 259.068 308.976 258.934C314.789 258.57 317.444 257.874 321.216 255.727C322.983 254.722 329.118 252.167 331.689 251.366C334.553 250.474 340.617 249.141 343.14 248.849C345.553 248.571 349.705 248.466 352.437 248.618C353.295 248.665 354.026 248.668 354.059 248.625C354.094 248.582 353.93 247.77 353.695 246.82ZM231.147 307.634C231.19 307.294 231.159 305.74 231.078 304.181C230.929 301.29 231.004 299.901 231.521 296.043C232.066 291.972 232.904 289.719 235.378 285.674C236.117 284.468 236.923 283.055 237.17 282.534C237.786 281.242 238.087 278.951 237.934 276.73C237.82 275.071 237.7 274.615 236.775 272.393C235.352 268.975 234.5 267.574 232.145 264.786C229.303 261.423 227.389 259.785 218.274 252.913C213.257 249.132 210.002 246.489 205.815 242.798L202.155 239.573L202.164 241.44C202.19 246.416 202.55 249.132 203.749 253.439C205.159 258.502 206.715 262.436 209.46 267.882C211.249 271.432 212.134 273.492 213.258 276.735C213.644 277.846 214.49 280.162 215.138 281.885C216.705 286.041 217.339 287.981 218.247 291.405C219.681 296.806 220.717 299.221 223.185 302.894C224.38 304.674 224.678 305.019 226.269 306.445C229.797 309.608 230.865 309.868 231.147 307.634ZM219.073 302.372C219.415 301.2 219.348 300.788 218.561 299.199C217.696 297.449 217.365 296.477 216.196 292.25C215.176 288.562 214.608 286.907 211.474 278.501C209.546 273.33 208.971 272.003 206.898 267.975C204.544 263.394 202.937 259.183 201.44 253.67C200.218 249.166 199.921 246.743 199.874 240.824L199.868 240.143L199.319 240.898C199.017 241.314 198.184 242.453 197.465 243.428C195.23 246.464 193.62 249.195 192.527 251.801C191.977 253.113 191.228 254.833 190.863 255.626C189.543 258.475 187.203 266.642 186.653 270.311C186.213 273.263 186.024 273.97 184.449 278.592C182.148 285.341 181.441 288.986 181.685 292.82C181.808 294.758 181.947 295.494 182.407 296.611L182.975 297.998L184.57 299.397C188.441 302.79 193.053 304.076 201.861 304.212C204.685 304.256 206.644 304.492 210.16 305.206C212.582 305.699 215.436 305.702 216.63 305.215C217.671 304.788 218.726 303.559 219.073 302.372ZM276.623 228.923C277.158 227.972 278.057 226.283 278.623 225.169C280.695 221.087 282.032 215.099 281.298 213.181C281.079 212.607 281.061 212.596 279.745 212.225C277.159 211.492 273.641 210.287 269.582 208.739C266.062 207.399 257.951 204.552 252.143 202.618C249.887 201.869 245.354 200.754 245.26 200.929C245.219 201.004 245.421 201.347 245.712 201.689C246.543 202.673 247.221 204.046 247.992 206.308C248.844 208.808 249.735 210.648 251.655 213.87C253.491 216.948 254.932 218.871 257.689 221.917C259.811 224.262 260.115 224.541 264.158 227.871C267.507 230.628 268.731 231.557 269.962 232.27C270.82 232.767 271.672 233.209 271.856 233.254C272.225 233.341 273.442 232.91 274.116 232.455C274.699 232.06 275.454 230.998 276.623 228.923ZM295.92 203.605C297.023 201.851 300.469 195.3 301.747 192.528C302.527 190.834 302.734 189.588 302.45 188.283C302.114 186.743 301.528 185.737 300.354 184.685C297.594 182.212 293.561 181.074 288.501 181.341C286.148 181.466 284.609 181.723 280.638 182.653C274.327 184.133 270.362 185.642 265.541 188.397C262.719 190.011 258.881 191.871 254.216 193.887C253.014 194.406 251.259 195.258 250.316 195.78C249.372 196.301 247.65 197.086 246.49 197.522L244.38 198.316L245.147 198.459C247.746 198.939 251.013 199.795 253.656 200.683C261.472 203.316 267.094 205.282 271.057 206.769C280.045 210.142 285.386 211.52 287.509 211.014C288.947 210.67 290.937 209.529 292.435 208.189C293.205 207.501 294.739 205.482 295.92 203.605ZM235.816 259.755C236.025 259.202 236.035 257.272 235.832 256.678C235.581 255.939 229.944 250.889 226.437 248.261C223.918 246.374 219.051 243.157 217.608 242.426C217.265 242.255 215.97 241.824 214.729 241.472C213.491 241.121 211.898 240.627 211.189 240.375C210.482 240.123 209.125 239.763 208.173 239.577C207.223 239.391 205.946 239.08 205.337 238.889C204.729 238.697 204.233 238.58 204.236 238.627C204.251 238.866 214.781 247.481 218.661 250.43C225.493 255.621 228.79 258.271 230.753 260.15L232.547 261.868L233.243 261.646C234.563 261.228 235.529 260.517 235.816 259.755ZM286.236 178.034C286.108 177.54 285.771 176.666 285.487 176.088C282.857 170.763 283.296 171.409 280.837 169.245C278.473 167.167 277.642 166.663 275.497 166.004C273.213 165.304 272.308 165.492 269.937 167.159C266.186 169.798 262.951 174.614 259.529 182.655C258.204 185.766 257.19 187.518 255.473 189.649L253.989 191.493L255.311 190.858C256.039 190.509 257.727 189.719 259.063 189.107C260.4 188.494 262.823 187.235 264.446 186.311C267.638 184.495 271.386 182.851 274.598 181.861C276.981 181.125 282.186 179.902 284.579 179.518C285.529 179.365 286.342 179.171 286.386 179.085C286.431 178.999 286.363 178.526 286.236 178.034ZM180.569 284.724C180.821 283.521 181.711 280.459 182.546 277.918C183.697 274.419 184.15 272.742 184.414 271.006C185.023 266.995 185.265 265.898 186.526 261.485C187.677 257.46 189.199 253.412 191.265 248.898C191.893 247.524 194.271 243.708 195.06 242.807C195.406 242.412 195.984 241.637 196.342 241.086C197.2 239.766 198.215 238.613 198.777 238.322L199.229 238.088L198.259 237.865C197.256 237.635 194.211 237.699 193.508 237.964C193.287 238.045 192.102 238.671 190.871 239.353C188.69 240.562 188.612 240.622 187.753 241.728C187.268 242.355 186.16 244.013 185.293 245.415C183.515 248.286 182.651 250.364 181.762 253.9C181.407 255.309 181.024 256.343 180.502 257.293C179.745 258.668 178.916 260.533 177.696 263.602C177.212 264.819 176.536 266.045 175.192 268.15C172.908 271.725 170.994 275.028 170.404 276.409C169.812 277.804 169.854 279.028 170.56 280.87C171.329 282.873 171.988 283.444 175.393 285.047C176.758 285.691 178.351 286.563 178.931 286.986C179.97 287.743 179.989 287.749 180.05 287.332C180.084 287.1 180.318 285.926 180.569 284.724ZM164.982 262.248C164.958 261.41 164.666 257.926 164.335 254.507C164.004 251.089 163.734 247.83 163.736 247.266C163.74 245.508 163.484 237.263 163.304 233.324C163.077 228.425 163.179 226.483 163.976 220.493C165.1 212.049 165.23 210.186 165.387 200.589C165.491 194.195 165.094 185.764 164.528 182.241C164.068 179.392 162.044 170.284 161.35 167.935C160.683 165.682 158.937 161.127 157.909 158.958C156.763 156.537 152.298 149.702 149.951 146.772C147.843 144.142 146.575 142.677 146.485 142.779C146.459 142.808 146.654 143.193 146.915 143.633C147.834 145.174 153.806 160.358 154.441 162.763C155.09 165.231 155.351 167.27 155.579 171.69C155.746 174.904 155.709 176.89 155.409 180.86C154.932 187.185 154.931 187.39 155.467 195.671C155.917 202.591 156.08 207.679 156.056 214.016C156.048 216.189 156.228 219.197 156.528 221.902C156.794 224.306 157.015 227.362 157.018 228.691C157.025 231.772 157.431 236.861 157.85 239.089C158.027 240.039 158.505 241.983 158.911 243.409C159.316 244.834 159.891 247.076 160.186 248.389C160.483 249.7 161.11 252.117 161.581 253.757C162.051 255.398 162.651 257.628 162.915 258.712C163.434 260.858 164.023 263.038 164.502 264.601L164.808 265.596L164.918 264.684C164.976 264.183 165.006 263.087 164.982 262.248ZM162.656 264.974C162.557 264.807 161.867 262.395 161.126 259.61C160.384 256.826 159.539 253.728 159.246 252.729C158.956 251.729 158.488 249.909 158.208 248.684C157.929 247.46 157.358 245.271 156.941 243.819C156.524 242.37 156.044 240.498 155.874 239.658C155.415 237.406 155.02 233.005 154.923 229.066C154.876 227.154 154.629 223.844 154.374 221.711C154.057 219.059 153.902 216.293 153.883 212.965C153.843 205.962 153.746 203.423 153.195 195.236C152.691 187.737 152.694 186.343 153.238 179.843C153.501 176.694 153.5 175.213 153.232 170.921C152.881 165.305 152.487 163.292 151.046 159.736C150.217 157.691 147.717 151.144 146.953 149.019C146.294 147.18 146.321 147.438 147.267 151.984C149.174 161.141 149.501 164.845 149.837 181.009C149.925 185.319 150.171 192.578 150.54 201.89C150.619 203.888 150.857 210.34 151.069 216.226C151.714 234.208 151.734 234.426 153.256 241.245C153.68 243.145 154.291 246.02 154.613 247.633C155.36 251.39 156.193 254.382 157.101 256.573C158.31 259.49 160.352 262.853 162.222 265.012C162.664 265.519 162.967 265.492 162.656 264.974ZM270.567 142.625C270.42 142.401 270.219 142.316 269.935 142.36C268.937 142.514 261.913 141.568 259.977 141.02C253.802 139.272 251.41 138.524 249.464 137.732C248.233 137.231 245.849 136.349 244.169 135.769C242.488 135.191 239.735 134.174 238.048 133.508C236.363 132.842 233.585 131.756 231.873 131.095C230.164 130.434 227.568 129.411 226.105 128.818C224.642 128.228 220.947 126.839 217.893 125.732C214.84 124.626 211.074 123.26 209.525 122.697C207.976 122.134 205.129 121.163 203.198 120.54C201.269 119.916 198.564 119.016 197.186 118.539C193.578 117.288 191.449 116.737 187.811 116.115C186.04 115.812 182.88 115.265 180.787 114.895C177.554 114.328 172.409 113.658 172.293 113.79C172.273 113.813 173.044 114.061 174.004 114.342C178.436 115.641 184.125 117.505 191.013 119.914C202.562 123.954 205.591 125.146 215.917 129.717C229.23 135.611 240.076 139.868 247.093 141.952C251.531 143.271 257.548 144.432 261.399 144.712C266.179 145.06 271.391 143.875 270.567 142.625ZM264.793 138.828C263.957 138.403 260.748 137.004 257.664 135.721C249.047 132.138 243.247 129.3 238.218 126.206C237.053 125.489 234.014 123.471 231.465 121.722C221.645 114.982 216.931 112.304 210.248 109.668C205.837 107.927 196.879 105.644 191.619 104.92C189.496 104.628 184.056 104.64 178.618 104.95C174.6 105.18 171.477 105.839 168.238 107.146C167.227 107.554 165.776 108.097 165.014 108.355C164.253 108.612 162.628 109.306 161.401 109.897C158.084 111.496 158.256 111.363 159.473 111.389C160.053 111.402 161.447 111.346 162.572 111.265C164.633 111.119 170.428 111.225 173.552 111.469C175.989 111.659 177.662 111.901 183.147 112.86C192.022 114.412 193.216 114.693 198.274 116.413C199.704 116.9 202.647 117.877 204.813 118.583C206.98 119.291 210.238 120.427 212.055 121.107C213.872 121.789 217.314 123.052 219.703 123.914C222.093 124.777 225.7 126.152 227.721 126.966C235.018 129.915 240.319 131.971 243.69 133.162C245.581 133.83 248.452 134.906 250.069 135.552C253.8 137.04 261.212 139.154 264.24 139.592C265.484 139.773 266.461 139.848 266.409 139.761C266.358 139.673 265.631 139.253 264.793 138.828ZM266.95 84.1308C266.522 84.0209 264.807 83.6926 263.141 83.4009C253.408 81.6998 250.79 81.3832 246.239 81.3493C244.945 81.3409 242.638 81.3187 241.111 81.2997C239.585 81.2805 237.21 81.2722 235.831 81.2787C234.455 81.285 231.686 81.1549 229.678 80.9897C227.672 80.8231 224.722 80.7175 223.123 80.7532C221.525 80.7888 219.29 80.7765 218.157 80.7247C214.704 80.5676 210.558 80.6822 200.497 81.2125C191.297 81.6966 184.643 82.3078 180.843 83.0175C179.166 83.3285 177.162 84.0476 177.18 84.3291C177.198 84.6308 179.717 85.3378 182.898 85.9331C186.484 86.6062 190.087 87.0174 196.843 87.5299C204.794 88.1336 208.362 88.0117 214.525 86.9246C220.2 85.9251 221.176 85.8012 227.186 85.3029C236.306 84.5473 246.855 84.3015 256.889 84.6096C261.988 84.7664 267.434 84.6683 267.655 84.4175C267.697 84.3707 267.38 84.2419 266.95 84.1308ZM261.4 80.9111C258.618 79.9271 253.014 78.5698 248.114 77.6921C244.968 77.1305 237.941 76.2049 235.869 76.0796C227.342 75.5643 224.05 75.5409 217.518 75.9483C213.841 76.1774 208.968 76.5825 206.691 76.8481C204.415 77.1149 201.861 77.4109 201.017 77.5063C200.174 77.6028 198.485 77.8512 197.266 78.0573C196.047 78.2633 194.033 78.5833 192.793 78.7679C190.666 79.0829 187.872 79.735 186.904 80.1422L186.471 80.3234L187.024 80.2484C190.241 79.8072 193.985 79.5045 197.386 79.4086C199.648 79.3438 202.755 79.1751 204.29 79.0344C207.552 78.7317 213.968 78.5984 217.923 78.7496C219.449 78.8082 221.816 78.8267 223.184 78.7909C224.552 78.7564 226.838 78.8278 228.266 78.95C232.394 79.3046 235.513 79.4009 244.884 79.4641C250.276 79.5009 254.153 79.9226 260.853 81.2035C261.993 81.4214 262.923 81.566 262.922 81.5242C262.919 81.4813 262.235 81.2065 261.4 80.9111Z" fill="#5D7C78"/>
<path fill-rule="evenodd" clip-rule="evenodd" d="M347.783 402.282C344.992 404.164 344.118 404.643 340.977 406.009C339.424 406.682 336.995 407.884 335.577 408.678C332.027 410.665 326.574 413.109 323.183 414.234C315.036 416.933 310.547 418.864 306.713 421.316C304.24 422.897 296.495 427.238 295.266 427.731C291.851 429.102 286.291 429.305 282.762 428.186C280.447 427.452 279.512 426.877 276.905 424.586C275.578 423.419 273.811 421.771 272.977 420.925L271.462 419.385L269.039 422.131C266.391 425.131 265.356 426.031 263.44 426.998C262.029 427.71 260.292 427.837 259.068 427.316C256.997 426.435 254.189 422.65 252.286 418.18C249.727 412.164 249.034 405.378 250.09 396.664C250.241 395.425 250.366 394.366 250.367 394.311C250.389 393.772 244.778 394.001 241.692 394.665C239.111 395.222 235.728 395.627 232.15 395.81C228.348 396.005 226.992 395.927 225.341 395.422C221.666 394.293 215.893 390.478 215.063 388.628C214.065 386.403 215.632 383.63 219.491 380.795C222.446 378.625 224.216 376.588 227.304 371.809C228.669 369.698 230.469 366.217 231.892 362.939C232.423 361.716 233.328 359.764 233.905 358.599C234.48 357.433 235.383 355.496 235.913 354.29C236.443 353.083 237.494 350.97 238.249 349.593C239.63 347.076 243.389 338.601 244.956 334.475C245.447 333.182 246.092 331.821 246.506 331.199C248.519 328.18 252.804 323.51 254.583 322.396C255.034 322.115 256.555 321.592 258.252 321.136C259.845 320.708 261.631 320.219 262.219 320.048C262.808 319.879 264.087 319.741 265.062 319.741C266.038 319.742 267.57 319.718 268.467 319.687C270.133 319.629 272.406 319.818 272.656 320.032C273.083 320.397 273.319 320.227 273.411 319.491C273.5 318.792 274.078 317.547 274.578 316.981C274.701 316.842 275.106 315.979 275.481 315.064C275.854 314.148 276.374 313.158 276.633 312.864C277.163 312.264 277.828 310.92 278.074 309.948C278.165 309.595 278.31 308.437 278.398 307.375C278.61 304.798 279.735 300.382 280.365 299.647L280.828 299.108L279.962 296.224C278.88 292.62 279.174 293.305 276.772 288.786C272.935 281.561 270.093 277.51 264.503 271.296C255.426 261.206 250.39 255.833 246.678 252.278C239.381 245.289 230.615 236.443 227.001 232.42C223.097 228.074 216.826 220.148 214.052 216.053C211.613 212.451 205.362 202.419 202.181 197.001C200.536 194.195 199.152 191.867 199.106 191.827C199.06 191.787 199.303 192.805 199.643 194.09C200.282 196.493 201.006 201.433 201.29 205.317C201.378 206.533 201.387 208.989 201.307 210.777C201.22 212.744 201.294 215.974 201.495 218.94C201.675 221.64 201.832 225.376 201.842 227.243C201.851 229.11 201.921 231.938 201.999 233.529L202.137 236.419L202.68 236.333C202.978 236.285 204.082 236.502 205.134 236.816C206.185 237.129 207.719 237.506 208.543 237.655C209.367 237.803 210.661 238.13 211.421 238.379C212.18 238.63 213.797 239.108 215.013 239.442C218.084 240.285 218.355 240.414 221.395 242.462C225.127 244.976 228.4 247.592 232.929 251.683C237.487 255.798 237.5 255.816 237.439 257.952C237.392 259.573 237.189 260.22 236.474 261.031C235.806 261.787 235.139 262.185 234.039 262.479C233.471 262.632 233.238 262.764 233.315 262.888C233.38 262.991 233.975 263.721 234.639 264.514C235.305 265.309 236.199 266.562 236.628 267.299C237.731 269.196 239.182 272.499 239.602 274.069C240.283 276.613 240.129 280.618 239.263 282.818C239.034 283.396 238.212 284.887 237.436 286.132C234.537 290.771 234.004 292.193 233.327 297.124C232.909 300.178 232.856 301.27 232.994 304.177C233.172 307.966 232.996 309.169 232.121 310.161C230.576 311.911 228.739 311.344 224.857 307.918C222.995 306.274 222.648 305.901 221.691 304.505C221.101 303.643 220.585 302.94 220.544 302.943C220.504 302.945 220.26 303.365 220.002 303.877C219.331 305.212 218.203 306.278 216.973 306.736C215.559 307.263 212.504 307.379 210.391 306.988C206.473 306.262 204.761 306.071 201.976 306.053C192.934 305.994 188.074 304.68 183.616 301.091C182.236 299.98 181.929 299.661 181.38 298.771C180.041 296.599 179.432 293.02 179.781 289.377L179.836 288.804L178.55 288.09C177.843 287.698 176.001 286.852 174.459 286.211C171.995 285.188 171.536 284.943 170.675 284.183C169.76 283.378 169.649 283.208 169.019 281.663C168.243 279.76 168.028 278.031 168.418 276.803C168.739 275.787 170.789 272.138 173.524 267.721C175.432 264.634 175.712 264.09 176.498 261.919C176.976 260.601 177.844 258.588 178.427 257.446C179.275 255.783 179.596 254.919 180.035 253.101C180.607 250.727 181.45 248.281 182.21 246.78C182.457 246.293 183.434 244.657 184.382 243.142C186.634 239.545 187.081 239.099 190.002 237.539C191.22 236.89 192.474 236.258 192.792 236.136C194.176 235.602 198.927 235.596 199.529 236.127C199.623 236.21 199.731 236.242 199.77 236.197C199.809 236.153 199.79 234.997 199.729 233.625C199.668 232.256 199.605 228.875 199.592 226.116C199.578 223.355 199.462 220.06 199.333 218.793C199.077 216.25 199.067 213.585 199.301 210.343C199.522 207.292 199.459 205.698 198.935 201.21C198.232 195.173 197.931 193.907 195.69 187.596C194.726 184.878 193.896 183.456 190.532 178.753C185.775 172.104 183.929 169.829 176.307 161.232C173.51 158.077 170.34 154.468 169.262 153.211C162.189 144.964 150.726 134.663 136.747 123.987C135.469 123.013 134.388 122.252 134.346 122.3C134.303 122.349 134.478 122.641 134.734 122.947C135.634 124.032 138.877 128.782 139.671 130.174C140.111 130.948 141.106 133.044 141.879 134.831C143.216 137.914 143.315 138.089 143.816 138.256C144.19 138.382 145.106 139.106 146.941 140.73C149.159 142.692 149.809 143.358 151.414 145.308C154.031 148.492 158.249 154.879 159.734 157.91C160.776 160.035 162.946 165.586 163.576 167.737C164.183 169.804 165.603 176.072 166.375 180.087C167.281 184.806 167.638 191.82 167.435 200.938C167.23 210.135 167.037 212.641 165.847 221.383C165.097 226.895 165.001 228.629 165.198 232.973C165.281 234.782 165.379 237.655 165.414 239.36C165.563 246.437 165.741 249.651 166.269 254.87C166.977 261.845 167.075 264.191 166.736 265.986C166.498 267.247 166.384 267.514 165.81 268.165C165.233 268.818 165.083 268.906 164.539 268.899C163.577 268.886 162.75 268.393 161.256 266.937C159.584 265.309 158.591 263.987 157.056 261.35C154.718 257.331 153.796 254.625 152.254 247.248C151.708 244.635 150.96 241.057 150.59 239.296C150.222 237.537 149.814 235.309 149.686 234.346C149.557 233.383 149.248 226.587 148.999 219.244C148.749 211.901 148.482 204.258 148.403 202.263C148.104 194.633 147.879 187.111 147.795 181.928C147.522 164.842 147.239 161.63 145.14 151.712C143.604 144.457 143.055 142.682 140.319 136.098C138.14 130.852 137.479 129.664 133.227 123.313C132.238 121.835 131.252 120.349 131.036 120.008C130.711 119.496 129.774 118.746 125.425 115.509C122.555 113.373 119.302 110.928 118.195 110.075C117.088 109.222 115.5 108.088 114.668 107.557C111.964 105.831 100.321 95.2791 97.8738 92.3399C96.9868 91.2732 96.312 90.2137 96.3954 90.017C96.4318 89.9297 97.5247 90.8424 99.0181 92.2031C104.212 96.9425 115.946 106.216 118.226 107.383C121.959 109.294 126.676 110.61 131.705 111.144L133.45 111.328L135.556 110.445C139.96 108.596 141.74 107.284 145.32 103.253C150.044 97.9357 152.366 95.8153 156.928 92.6619C161.225 89.6912 164.366 87.9426 172.27 84.1247C183.402 78.7455 187.276 77.3011 192.728 76.4986C193.992 76.3125 196.234 75.9593 197.712 75.7156C199.19 75.4707 201.747 75.1434 203.397 74.9885C205.045 74.8325 207.401 74.5799 208.631 74.427C211.851 74.0263 224.559 73.442 226.822 73.5878C227.878 73.6564 230.448 73.7916 232.532 73.8887C239.23 74.2025 246.623 75.298 254.933 77.2131C261.105 78.6345 265.982 80.3708 268.827 82.1625C270.46 83.189 270.864 84.5262 269.828 85.4632C268.515 86.6519 264.568 86.9325 254.614 86.5487C246.939 86.2536 241.064 86.3472 231.972 86.9109C223.609 87.4305 221.606 87.6516 215.483 88.7363C210.424 89.6329 207.094 89.9112 202.815 89.7981C199.942 89.7224 191.444 89.0689 188.359 88.6867C186.53 88.4601 181.078 87.4154 179.295 86.9501C178.309 86.6928 175.787 85.6521 175.468 85.3702C175.186 85.1219 175.049 85.1759 170.818 87.2314C165.751 89.6919 163.937 90.6591 161.231 92.3341C154.518 96.4912 151.604 98.9176 146.811 104.343C143.695 107.871 141.926 109.306 138.93 110.731C138.313 111.024 137.81 111.306 137.814 111.355C137.818 111.405 140.388 111.328 143.527 111.184C146.667 111.039 149.911 110.927 150.738 110.93C151.759 110.935 152.925 110.751 154.385 110.351C156.593 109.747 157.046 109.569 160.738 107.85C161.932 107.294 163.337 106.709 163.86 106.551C164.383 106.393 165.851 105.871 167.123 105.393C172.104 103.522 175.577 103.038 184.942 102.906C190.613 102.826 191.456 102.892 196.337 103.789C207.04 105.758 216.44 109.406 225.727 115.194C226.927 115.942 229.937 117.936 232.414 119.624C242.203 126.299 247.375 129.065 258.683 133.683C264.421 136.026 265.6 136.562 268.197 138.016C270.748 139.443 272.234 140.722 272.711 141.907C273.177 143.059 273.098 143.753 272.411 144.53C271.249 145.847 268.847 146.638 265.301 146.872C261.688 147.109 257.977 146.68 251.542 145.274C244.223 143.679 233.66 139.783 214.673 131.68C204.144 127.187 201.173 126.042 190.275 122.277C171.274 115.714 166.008 114.416 154.954 113.582C150.745 113.264 149.363 113.254 143.914 113.5C135.122 113.896 131.278 113.662 125.948 112.403L123.803 111.895L124.753 112.607C139.501 123.687 143.632 126.93 150.726 132.992C158.301 139.465 166.126 146.927 170.254 151.612C170.967 152.422 173.631 155.381 176.174 158.189C185.517 168.5 188.171 171.734 193.329 179.087C194.433 180.661 195.05 181.424 195.225 181.43C195.397 181.434 195.491 181.527 195.502 181.706C195.528 182.116 200.115 186.302 202.095 187.722C204.098 189.159 207.263 191.142 209.669 192.465C215.277 195.551 217.709 196.07 230.254 196.867C232.103 196.983 234.808 197.196 236.263 197.338C237.718 197.48 239 197.566 239.109 197.529C239.22 197.493 239.823 197.306 240.449 197.115C247.111 195.076 247.718 194.733 251.505 190.878C254.817 187.507 255.818 186.014 257.701 181.638C260.163 175.915 263.053 170.867 265.342 168.288C266.276 167.235 268.984 165.102 270.355 164.338C272.674 163.044 274.957 163.203 278.245 164.883C281.599 166.598 284.325 169.344 285.654 172.345C286.047 173.236 286.476 174.13 286.604 174.335C287.121 175.154 287.909 177.14 288.094 178.09L288.292 179.095L289.828 179.063C294.414 178.968 298.208 180.109 301.267 182.5C303.418 184.179 304.581 186.226 304.861 188.821C305.068 190.727 304.562 192.231 302.049 197.19C298.452 204.292 296.962 206.68 294.556 209.202C291.376 212.534 287.991 213.946 284.586 213.361L283.456 213.166L283.49 214.575C283.537 216.49 283.261 218.171 282.362 221.441C281.691 223.887 281.423 224.556 280.05 227.226C277.257 232.657 276.352 233.897 274.439 234.9C273.43 235.43 271.963 235.695 271.157 235.494C269.963 235.194 267.866 233.844 265.065 231.57C263.547 230.339 261.473 228.666 260.457 227.851C258.978 226.665 258.176 225.89 256.444 223.967C252.685 219.796 251.894 218.712 249.267 214.146C247.38 210.866 246.815 209.662 245.781 206.72C244.85 204.067 244.272 203.214 242.364 201.684C241.542 201.024 240.614 200.371 240.302 200.232C239.663 199.947 236.295 199.581 231.229 199.246C218.656 198.413 216.383 198.061 212.248 196.3C209.158 194.983 204.22 191.974 201.257 189.601C200.292 188.828 199.511 188.274 199.524 188.371C199.538 188.469 199.979 189.207 200.508 190.014C201.036 190.82 202.384 193.03 203.503 194.923C207.494 201.68 212.978 210.505 215.754 214.635C219.146 219.68 225.912 228.05 230.628 233.037C235.627 238.323 236.254 238.905 238.494 240.362C239.633 241.101 242.143 242.791 244.073 244.116C246.004 245.441 247.999 246.752 248.507 247.029C252.733 249.328 259.127 250.981 265.198 251.347C266.257 251.412 270.028 251.453 273.577 251.44C285.886 251.396 288.043 251.547 292.433 252.763C295.919 253.728 297.79 254.462 300.739 256.02C302.282 256.834 303.497 257.384 303.57 257.301C303.64 257.221 304.708 256.742 305.941 256.236C307.175 255.73 308.503 255.088 308.891 254.812C310.519 253.655 312.305 251.999 313.996 250.08C316.066 247.731 317.278 246.075 318.486 243.94C319.861 241.513 321.106 240.212 323.825 238.368C327.97 235.556 330.679 234.622 335.307 234.406C337.972 234.283 338.945 234.45 342.909 235.72C347.526 237.199 347.894 237.334 349.537 238.136C351.772 239.23 353.36 240.659 354.21 242.343C354.55 243.02 355.07 244.501 355.363 245.635C356.002 248.104 356.28 248.837 356.593 248.895C356.724 248.918 358.3 249.057 360.094 249.2C364.399 249.546 365.636 249.716 367.295 250.189C368.653 250.577 368.709 250.61 370.207 251.933C371.718 253.266 371.74 253.294 372.262 254.586C372.618 255.468 372.876 256.662 373.057 258.271C373.592 263.032 373.758 264.045 374.367 266.313C374.708 267.582 375.677 270.35 376.519 272.461C378.597 277.662 378.808 278.878 378.101 281.574C377.334 284.503 376.073 286.851 373.969 289.267C372.12 291.391 371.26 292.056 369.279 292.9C366.731 293.983 362.933 293.965 359.12 292.849C356.806 292.172 354.428 291.224 352.23 290.107L350.321 289.136L350.402 290.102C350.58 292.237 350.475 294.96 350.172 296.004C349.733 297.52 348.96 298.784 348.175 299.273C347.193 299.885 346.141 299.82 342.842 298.947C337.425 297.513 334.647 297.34 328.924 298.069C320.895 299.093 314.842 297.471 312.602 293.694C311.921 292.544 310.279 288.411 309.564 286.041C308.813 283.558 308.342 280.645 308.07 276.807C307.797 272.957 307.696 272.305 307.078 270.366C306.822 269.558 306.524 268.342 306.418 267.663C306.13 265.814 305.437 263.682 304.8 262.68C304.412 262.072 304.224 261.544 304.205 261.009C304.19 260.579 304.063 260.125 303.922 260C303.367 259.51 297.171 256.376 295.721 255.851C294.875 255.544 293.127 254.997 291.835 254.634C287.455 253.402 285.489 253.261 272.479 253.254C266.59 253.251 263.822 253.115 260.755 252.679C254.396 251.777 249.363 249.951 245.162 247.019C243.177 245.635 242.605 245.31 243.43 246.038C246.657 248.886 252.749 255.028 256.894 259.609C267.309 271.125 269.736 273.999 272.932 278.608C275.487 282.291 279.636 289.582 280.689 292.241C281.091 293.251 281.996 296.392 282.27 297.718C282.474 298.711 282.535 298.816 283.026 299.034C283.319 299.164 284.064 299.607 284.683 300.023C286.592 301.3 287.58 302.677 290.779 308.523C291.956 310.676 292.522 311.374 295.294 314.106C296.479 315.274 297.737 316.537 298.087 316.914L298.724 317.597L299.945 316.924C301.464 316.087 302.663 315.773 303.926 315.88C304.462 315.926 305.91 316.028 307.143 316.107C312.29 316.434 314.521 316.947 320.236 319.124C322.591 320.019 325.742 321.162 327.238 321.662C328.733 322.162 330.823 322.939 331.882 323.387C335.465 324.904 336.259 325.424 343.2 330.813C347.181 333.905 348.461 334.821 351.911 337.038C357.503 340.634 360.627 343.297 362.852 346.368C364.397 348.496 365.685 350.784 366.391 352.651C367.706 356.127 368.527 362.359 367.965 364.612C367.453 366.669 367.068 367.382 365.534 369.112C364.274 370.534 363.935 370.825 362.134 372.011C359.653 373.648 357.433 374.784 354.615 375.859C352.588 376.634 352.444 376.715 352.562 377.028C352.631 377.213 353.162 378.305 353.743 379.453C354.324 380.601 354.88 381.747 354.98 382.002C355.383 383.034 355.977 386.045 355.988 387.116C356.041 392.756 355.57 394.076 352.002 398.28L349.705 400.985L347.783 402.282ZM352.917 394.017C353.681 392.633 354 391.144 354.054 388.709C354.126 385.443 353.657 383.322 352.26 380.579C351.67 379.421 351.104 378.21 351.002 377.886C350.901 377.562 350.791 377.272 350.757 377.242C350.723 377.212 350.19 377.325 349.573 377.492C348.955 377.661 347.138 378.109 345.532 378.49C342.349 379.243 341.448 379.549 340.702 380.131C340.274 380.465 340.191 380.669 340.057 381.736C339.667 384.798 338.154 389.633 336.896 391.827C334.907 395.294 331.471 398.483 327.787 400.276C326.223 401.037 322.561 402.05 319.862 402.466C315.474 403.144 308.872 403.215 298.838 402.695C291.097 402.293 286.696 403.063 283.034 405.456C282.036 406.11 281.58 406.545 279.857 408.498C278.485 410.052 277.557 411.239 276.94 412.232C276.444 413.032 275.193 414.778 274.163 416.112L272.288 418.538L274.756 420.869C279.626 425.47 281.944 426.768 286.104 427.222C289.266 427.569 292.452 427.166 294.929 426.113C296.503 425.443 301.723 422.521 305.498 420.201C307.111 419.209 309.401 417.935 310.586 417.369C313.147 416.147 318.681 413.969 322.738 412.586C326.282 411.378 331.11 409.173 334.876 407.043C336.416 406.172 338.894 404.912 340.382 404.243C343.345 402.911 344.25 402.415 346.755 400.744C348.389 399.654 348.472 399.574 350.442 397.24C351.55 395.926 352.664 394.477 352.917 394.017ZM365.423 365.792C366.364 363.701 366.363 361.682 365.416 357.049C364.211 351.141 361.092 346.427 355.732 342.413C354.687 341.631 353.185 340.573 352.393 340.066C346.505 336.284 344.166 334.608 338.211 329.904C334.362 326.864 332.024 325.629 326.805 323.884C325.213 323.353 321.89 322.144 319.42 321.199C314.448 319.296 312.377 318.763 309.081 318.535C302.241 318.065 302.654 318.056 301.473 318.701C300.925 318.999 300.398 319.284 300.304 319.335C300.211 319.385 300.294 319.701 300.491 320.04C300.801 320.568 300.983 320.717 301.804 321.113C303.21 321.793 306.148 324.113 307.979 325.99C308.83 326.865 309.59 327.68 309.668 327.803C309.915 328.198 314.363 332.94 316.464 335.048C317.582 336.17 318.818 337.472 319.21 337.94C321.271 340.403 325.236 345.783 329.881 352.418C331.631 354.921 335.258 361.124 336.258 363.331C338.163 367.536 339.665 372.776 340.114 376.794L340.311 378.566L341.069 378.146C341.485 377.915 343.754 377.207 346.111 376.572C348.466 375.936 350.46 375.344 350.539 375.254C350.617 375.165 350.819 375.1 350.986 375.107C351.788 375.153 356.772 373.05 359.034 371.71C360.013 371.13 361.997 369.791 362.649 369.269C363.61 368.497 364.972 366.791 365.423 365.792ZM334.887 390.798C335.793 389.212 336.386 387.671 337.138 384.938C337.98 381.879 338.17 380.433 338.062 377.898C337.83 372.515 335.71 366.274 331.889 359.723C329.619 355.832 328.925 354.783 325.565 350.155C319.481 341.777 317.718 339.585 314.655 336.587C312.203 334.189 309.261 331.005 307.274 328.6C306.46 327.616 305.605 326.799 303.911 325.385C301.071 323.011 300.523 322.74 299.357 323.121C298.892 323.273 297.094 323.609 295.361 323.868C293.587 324.134 291.666 324.547 290.965 324.816C287.017 326.331 284.002 326.531 280.226 325.527C278.096 324.961 275.594 323.672 274.859 322.764L274.424 322.227L274.29 323.058C274.078 324.371 273.71 325.327 272.88 326.713C271.944 328.274 271.742 328.878 271.253 331.573C271.044 332.724 270.738 334.106 270.572 334.642C269.385 338.493 267.257 345.033 266.757 346.368C266.428 347.253 265.632 349.389 264.99 351.115C261.001 361.85 260.156 363.958 259.111 365.778C258.144 367.461 257.964 367.942 257.114 371.084C255.091 378.57 252.288 394.893 251.957 401.123C251.722 405.554 252.195 410.503 253.201 414.141C254.325 418.209 257.185 423.256 259.297 424.892C260.046 425.471 260.248 425.549 260.959 425.515C262.593 425.439 264.36 424.303 266.79 421.761C269.124 419.321 273.508 413.888 275.342 411.161C278.663 406.228 281.553 403.656 285.572 402.055C288.793 400.773 293.187 400.26 299.073 400.483C314.377 401.061 321.122 400.521 326.257 398.313C327.623 397.725 330.083 396.18 331.179 395.222C332.224 394.309 334.289 391.846 334.887 390.798ZM374.552 285.049C375.961 282.276 376.567 279.775 376.271 277.961C376.186 277.435 375.505 275.488 374.763 273.634C372.509 268.023 371.815 265.322 371.395 260.509C370.967 255.626 370.666 254.683 369.07 253.211C367.696 251.944 366.162 251.6 360.228 251.222C358.232 251.096 355.525 250.91 354.213 250.811C345.31 250.134 336.951 251.535 327.87 255.229C325.708 256.107 323.167 257.26 322.225 257.791C318.971 259.621 316.471 260.415 312.506 260.876L310.274 261.137L310.968 261.598C311.349 261.853 313.639 263.21 316.056 264.615C320.085 266.958 325.081 270.205 331.486 274.641C341.888 281.845 349.867 286.76 354.9 289.067C361.484 292.081 366.464 292.639 369.663 290.718C371.339 289.71 373.395 287.326 374.552 285.049ZM348.643 295.578C349.175 293.806 349.228 288.717 348.72 288.268C348.564 288.131 347.805 287.657 347.034 287.215C343.539 285.21 335.928 280.237 330.253 276.247C322.265 270.632 315.501 266.348 307.484 261.828L305.914 260.942L306.412 261.637C307.188 262.715 307.966 264.922 308.372 267.189C308.508 267.949 308.829 269.194 309.085 269.956C309.749 271.93 309.866 272.621 310.122 276.066C310.537 281.638 311.097 284.434 312.625 288.558C314.202 292.81 314.829 293.789 316.608 294.783C318.046 295.588 319.284 295.968 321.376 296.252C323.685 296.566 325.532 296.529 329.134 296.101C334.642 295.447 337.59 295.665 342.836 297.119C344.58 297.604 346.303 297.989 346.665 297.98C347.267 297.964 347.367 297.903 347.843 297.237C348.128 296.838 348.487 296.091 348.643 295.578ZM250.807 391.469C251.44 386.592 253.282 377.389 254.435 373.335C254.871 371.801 255.454 369.73 255.729 368.734C256.346 366.505 256.436 366.265 257.326 364.507C258.103 362.973 259.62 359.136 261.714 353.404C262.451 351.389 263.45 348.723 263.935 347.479C264.908 344.984 265.112 344.4 266.606 339.812C267.17 338.08 267.89 335.892 268.206 334.95C268.521 334.007 268.988 332.203 269.246 330.94C269.787 328.286 270.055 327.587 271.225 325.78C271.751 324.966 272.238 323.963 272.494 323.162L272.908 321.862L271.685 321.838C271.013 321.823 269.727 321.831 268.831 321.853C267.934 321.875 266.51 321.87 265.666 321.842C264.823 321.814 263.931 321.831 263.684 321.879C261.977 322.213 255.977 323.971 255.529 324.267C254.466 324.971 251.115 328.49 249.389 330.716C247.92 332.611 247.668 333.024 247.067 334.505C244.585 340.636 241.2 348.345 240.043 350.498C239.3 351.885 238.237 354.05 237.683 355.306C237.13 356.564 236.209 358.54 235.638 359.696C235.066 360.852 234.081 362.962 233.447 364.386C231.211 369.402 229.288 372.734 226.209 376.92C224.641 379.053 223.318 380.372 220.939 382.182C218.146 384.305 216.767 386.059 216.85 387.385C216.882 387.888 217 388.056 217.882 388.834C219.833 390.556 223.733 392.712 226.027 393.337C228.413 393.987 234.678 393.747 240.544 392.783C242.055 392.535 243.914 392.333 244.677 392.335C248.042 392.344 248.719 392.395 249.602 392.697C250.117 392.874 250.557 392.997 250.578 392.973C250.6 392.946 250.704 392.27 250.807 391.469ZM298.755 320.817C298.758 320.22 298.131 319.365 296.311 317.475C295.48 316.613 294.167 315.25 293.393 314.443C291.476 312.447 290.157 310.658 288.849 308.279C286.387 303.804 285.298 302.255 283.933 301.281C283.436 300.925 282.769 300.544 282.449 300.433C281.937 300.255 281.845 300.28 281.647 300.655C281.524 300.886 281.334 301.557 281.227 302.143C281.119 302.73 280.908 303.715 280.757 304.33C280.607 304.948 280.438 306.312 280.383 307.363C280.327 308.415 280.208 309.648 280.12 310.106C279.876 311.356 279.119 313.102 278.532 313.776C278.229 314.121 277.732 315.055 277.348 315.998C276.984 316.891 276.45 317.971 276.158 318.396C275.493 319.373 275.434 319.629 275.684 320.454C275.795 320.822 275.803 321.282 275.703 321.477C275.495 321.879 275.543 321.917 277.229 322.666C278.629 323.289 280.89 323.883 282.535 324.062C285.338 324.368 287.431 324.081 290.197 323.011C291.191 322.628 292.646 322.326 295.055 322.005C296.945 321.754 298.552 321.484 298.623 321.408C298.694 321.328 298.754 321.064 298.755 320.817ZM353.695 246.82C352.882 243.523 352.058 241.953 350.589 240.902C349.266 239.956 347.187 239.04 344.696 238.306C343.46 237.943 341.697 237.405 340.778 237.11C338.508 236.384 336.81 236.183 334.58 236.371C330.978 236.677 328.124 237.74 324.719 240.042C322.354 241.641 321.258 242.796 320.045 244.968C318.796 247.201 316.979 249.591 314.504 252.256C311.25 255.76 309.654 256.891 306.475 257.951L305.29 258.346L305.878 258.719C306.382 259.037 306.828 259.068 308.976 258.934C314.789 258.57 317.444 257.874 321.216 255.727C322.983 254.722 329.118 252.167 331.689 251.366C334.553 250.474 340.617 249.141 343.14 248.849C345.553 248.571 349.705 248.466 352.437 248.618C353.295 248.665 354.026 248.668 354.059 248.625C354.094 248.582 353.93 247.77 353.695 246.82ZM231.147 307.634C231.19 307.294 231.159 305.74 231.078 304.181C230.929 301.29 231.004 299.901 231.521 296.043C232.066 291.972 232.904 289.719 235.378 285.674C236.117 284.468 236.923 283.055 237.17 282.534C237.786 281.242 238.087 278.951 237.934 276.73C237.82 275.071 237.7 274.615 236.775 272.393C235.352 268.975 234.5 267.574 232.145 264.786C229.303 261.423 227.389 259.785 218.274 252.913C213.257 249.132 210.002 246.489 205.815 242.798L202.155 239.573L202.164 241.44C202.19 246.416 202.55 249.132 203.749 253.439C205.159 258.502 206.715 262.436 209.46 267.882C211.249 271.432 212.134 273.492 213.258 276.735C213.644 277.846 214.49 280.162 215.138 281.885C216.705 286.041 217.339 287.981 218.247 291.405C219.681 296.806 220.717 299.221 223.185 302.894C224.38 304.674 224.678 305.019 226.269 306.445C229.797 309.608 230.865 309.868 231.147 307.634ZM219.073 302.372C219.415 301.2 219.348 300.788 218.561 299.199C217.696 297.449 217.365 296.477 216.196 292.25C215.176 288.562 214.608 286.907 211.474 278.501C209.546 273.33 208.971 272.003 206.898 267.975C204.544 263.394 202.937 259.183 201.44 253.67C200.218 249.166 199.921 246.743 199.874 240.824L199.868 240.143L199.319 240.898C199.017 241.314 198.184 242.453 197.465 243.428C195.23 246.464 193.62 249.195 192.527 251.801C191.977 253.113 191.228 254.833 190.863 255.626C189.543 258.475 187.203 266.642 186.653 270.311C186.213 273.263 186.024 273.97 184.449 278.592C182.148 285.341 181.441 288.986 181.685 292.82C181.808 294.758 181.947 295.494 182.407 296.611L182.975 297.998L184.57 299.397C188.441 302.79 193.053 304.076 201.861 304.212C204.685 304.256 206.644 304.492 210.16 305.206C212.582 305.699 215.436 305.702 216.63 305.215C217.671 304.788 218.726 303.559 219.073 302.372ZM276.623 228.923C277.158 227.972 278.057 226.283 278.623 225.169C280.695 221.087 282.032 215.099 281.298 213.181C281.079 212.607 281.061 212.596 279.745 212.225C277.159 211.492 273.641 210.287 269.582 208.739C266.062 207.399 257.951 204.552 252.143 202.618C249.887 201.869 245.354 200.754 245.26 200.929C245.219 201.004 245.421 201.347 245.712 201.689C246.543 202.673 247.221 204.046 247.992 206.308C248.844 208.808 249.735 210.648 251.655 213.87C253.491 216.948 254.932 218.871 257.689 221.917C259.811 224.262 260.115 224.541 264.158 227.871C267.507 230.628 268.731 231.557 269.962 232.27C270.82 232.767 271.672 233.209 271.856 233.254C272.225 233.341 273.442 232.91 274.116 232.455C274.699 232.06 275.454 230.998 276.623 228.923ZM295.92 203.605C297.023 201.851 300.469 195.3 301.747 192.528C302.527 190.834 302.734 189.588 302.45 188.283C302.114 186.743 301.528 185.737 300.354 184.685C297.594 182.212 293.561 181.074 288.501 181.341C286.148 181.466 284.609 181.723 280.638 182.653C274.327 184.133 270.362 185.642 265.541 188.397C262.719 190.011 258.881 191.871 254.216 193.887C253.014 194.406 251.259 195.258 250.316 195.78C249.372 196.301 247.65 197.086 246.49 197.522L244.38 198.316L245.147 198.459C247.746 198.939 251.013 199.795 253.656 200.683C261.472 203.316 267.094 205.282 271.057 206.769C280.045 210.142 285.386 211.52 287.509 211.014C288.947 210.67 290.937 209.529 292.435 208.189C293.205 207.501 294.739 205.482 295.92 203.605ZM235.816 259.755C236.025 259.202 236.035 257.272 235.832 256.678C235.581 255.939 229.944 250.889 226.437 248.261C223.918 246.374 219.051 243.157 217.608 242.426C217.265 242.255 215.97 241.824 214.729 241.472C213.491 241.121 211.898 240.627 211.189 240.375C210.482 240.123 209.125 239.763 208.173 239.577C207.223 239.391 205.946 239.08 205.337 238.889C204.729 238.697 204.233 238.58 204.236 238.627C204.251 238.866 214.781 247.481 218.661 250.43C225.493 255.621 228.79 258.271 230.753 260.15L232.547 261.868L233.243 261.646C234.563 261.228 235.529 260.517 235.816 259.755ZM286.236 178.034C286.108 177.54 285.771 176.666 285.487 176.088C282.857 170.763 283.296 171.409 280.837 169.245C278.473 167.167 277.642 166.663 275.497 166.004C273.213 165.304 272.308 165.492 269.937 167.159C266.186 169.798 262.951 174.614 259.529 182.655C258.204 185.766 257.19 187.518 255.473 189.649L253.989 191.493L255.311 190.858C256.039 190.509 257.727 189.719 259.063 189.107C260.4 188.494 262.823 187.235 264.446 186.311C267.638 184.495 271.386 182.851 274.598 181.861C276.981 181.125 282.186 179.902 284.579 179.518C285.529 179.365 286.342 179.171 286.386 179.085C286.431 178.999 286.363 178.526 286.236 178.034ZM180.569 284.724C180.821 283.521 181.711 280.459 182.546 277.918C183.697 274.419 184.15 272.742 184.414 271.006C185.023 266.995 185.265 265.898 186.526 261.485C187.677 257.46 189.199 253.412 191.265 248.898C191.893 247.524 194.271 243.708 195.06 242.807C195.406 242.412 195.984 241.637 196.342 241.086C197.2 239.766 198.215 238.613 198.777 238.322L199.229 238.088L198.259 237.865C197.256 237.635 194.211 237.699 193.508 237.964C193.287 238.045 192.102 238.671 190.871 239.353C188.69 240.562 188.612 240.622 187.753 241.728C187.268 242.355 186.16 244.013 185.293 245.415C183.515 248.286 182.651 250.364 181.762 253.9C181.407 255.309 181.024 256.343 180.502 257.293C179.745 258.668 178.916 260.533 177.696 263.602C177.212 264.819 176.536 266.045 175.192 268.15C172.908 271.725 170.994 275.028 170.404 276.409C169.812 277.804 169.854 279.028 170.56 280.87C171.329 282.873 171.988 283.444 175.393 285.047C176.758 285.691 178.351 286.563 178.931 286.986C179.97 287.743 179.989 287.749 180.05 287.332C180.084 287.1 180.318 285.926 180.569 284.724ZM164.982 262.248C164.958 261.41 164.666 257.926 164.335 254.507C164.004 251.089 163.734 247.83 163.736 247.266C163.74 245.508 163.484 237.263 163.304 233.324C163.077 228.425 163.179 226.483 163.976 220.493C165.1 212.049 165.23 210.186 165.387 200.589C165.491 194.195 165.094 185.764 164.528 182.241C164.068 179.392 162.044 170.284 161.35 167.935C160.683 165.682 158.937 161.127 157.909 158.958C156.763 156.537 152.298 149.702 149.951 146.772C147.843 144.142 146.575 142.677 146.485 142.779C146.459 142.808 146.654 143.193 146.915 143.633C147.834 145.174 153.806 160.358 154.441 162.763C155.09 165.231 155.351 167.27 155.579 171.69C155.746 174.904 155.709 176.89 155.409 180.86C154.932 187.185 154.931 187.39 155.467 195.671C155.917 202.591 156.08 207.679 156.056 214.016C156.048 216.189 156.228 219.197 156.528 221.902C156.794 224.306 157.015 227.362 157.018 228.691C157.025 231.772 157.431 236.861 157.85 239.089C158.027 240.039 158.505 241.983 158.911 243.409C159.316 244.834 159.891 247.076 160.186 248.389C160.483 249.7 161.11 252.117 161.581 253.757C162.051 255.398 162.651 257.628 162.915 258.712C163.434 260.858 164.023 263.038 164.502 264.601L164.808 265.596L164.918 264.684C164.976 264.183 165.006 263.087 164.982 262.248ZM162.656 264.974C162.557 264.807 161.867 262.395 161.126 259.61C160.384 256.826 159.539 253.728 159.246 252.729C158.956 251.729 158.488 249.909 158.208 248.684C157.929 247.46 157.358 245.271 156.941 243.819C156.524 242.37 156.044 240.498 155.874 239.658C155.415 237.406 155.02 233.005 154.923 229.066C154.876 227.154 154.629 223.844 154.374 221.711C154.057 219.059 153.902 216.293 153.883 212.965C153.843 205.962 153.746 203.423 153.195 195.236C152.691 187.737 152.694 186.343 153.238 179.843C153.501 176.694 153.5 175.213 153.232 170.921C152.881 165.305 152.487 163.292 151.046 159.736C150.217 157.691 147.717 151.144 146.953 149.019C146.294 147.18 146.321 147.438 147.267 151.984C149.174 161.141 149.501 164.845 149.837 181.009C149.925 185.319 150.171 192.578 150.54 201.89C150.619 203.888 150.857 210.34 151.069 216.226C151.714 234.208 151.734 234.426 153.256 241.245C153.68 243.145 154.291 246.02 154.613 247.633C155.36 251.39 156.193 254.382 157.101 256.573C158.31 259.49 160.352 262.853 162.222 265.012C162.664 265.519 162.967 265.492 162.656 264.974ZM270.567 142.625C270.42 142.401 270.219 142.316 269.935 142.36C268.937 142.514 261.913 141.568 259.977 141.02C253.802 139.272 251.41 138.524 249.464 137.732C248.233 137.231 245.849 136.349 244.169 135.769C242.488 135.191 239.735 134.174 238.048 133.508C236.363 132.842 233.585 131.756 231.873 131.095C230.164 130.434 227.568 129.411 226.105 128.818C224.642 128.228 220.947 126.839 217.893 125.732C214.84 124.626 211.074 123.26 209.525 122.697C207.976 122.134 205.129 121.163 203.198 120.54C201.269 119.916 198.564 119.016 197.186 118.539C193.578 117.288 191.449 116.737 187.811 116.115C186.04 115.812 182.88 115.265 180.787 114.895C177.554 114.328 172.409 113.658 172.293 113.79C172.273 113.813 173.044 114.061 174.004 114.342C178.436 115.641 184.125 117.505 191.013 119.914C202.562 123.954 205.591 125.146 215.917 129.717C229.23 135.611 240.076 139.868 247.093 141.952C251.531 143.271 257.548 144.432 261.399 144.712C266.179 145.06 271.391 143.875 270.567 142.625ZM264.793 138.828C263.957 138.403 260.748 137.004 257.664 135.721C249.047 132.138 243.247 129.3 238.218 126.206C237.053 125.489 234.014 123.471 231.465 121.722C221.645 114.982 216.931 112.304 210.248 109.668C205.837 107.927 196.879 105.644 191.619 104.92C189.496 104.628 184.056 104.64 178.618 104.95C174.6 105.18 171.477 105.839 168.238 107.146C167.227 107.554 165.776 108.097 165.014 108.355C164.253 108.612 162.628 109.306 161.401 109.897C158.084 111.496 158.256 111.363 159.473 111.389C160.053 111.402 161.447 111.346 162.572 111.265C164.633 111.119 170.428 111.225 173.552 111.469C175.989 111.659 177.662 111.901 183.147 112.86C192.022 114.412 193.216 114.693 198.274 116.413C199.704 116.9 202.647 117.877 204.813 118.583C206.98 119.291 210.238 120.427 212.055 121.107C213.872 121.789 217.314 123.052 219.703 123.914C222.093 124.777 225.7 126.152 227.721 126.966C235.018 129.915 240.319 131.971 243.69 133.162C245.581 133.83 248.452 134.906 250.069 135.552C253.8 137.04 261.212 139.154 264.24 139.592C265.484 139.773 266.461 139.848 266.409 139.761C266.358 139.673 265.631 139.253 264.793 138.828ZM266.95 84.1308C266.522 84.0209 264.807 83.6926 263.141 83.4009C253.408 81.6998 250.79 81.3832 246.239 81.3493C244.945 81.3409 242.638 81.3187 241.111 81.2997C239.585 81.2805 237.21 81.2722 235.831 81.2787C234.455 81.285 231.686 81.1549 229.678 80.9897C227.672 80.8231 224.722 80.7175 223.123 80.7532C221.525 80.7888 219.29 80.7765 218.157 80.7247C214.704 80.5676 210.558 80.6822 200.497 81.2125C191.297 81.6966 184.643 82.3078 180.843 83.0175C179.166 83.3285 177.162 84.0476 177.18 84.3291C177.198 84.6308 179.717 85.3378 182.898 85.9331C186.484 86.6062 190.087 87.0174 196.843 87.5299C204.794 88.1336 208.362 88.0117 214.525 86.9246C220.2 85.9251 221.176 85.8012 227.186 85.3029C236.306 84.5473 246.855 84.3015 256.889 84.6096C261.988 84.7664 267.434 84.6683 267.655 84.4175C267.697 84.3707 267.38 84.2419 266.95 84.1308ZM261.4 80.9111C258.618 79.9271 253.014 78.5698 248.114 77.6921C244.968 77.1305 237.941 76.2049 235.869 76.0796C227.342 75.5643 224.05 75.5409 217.518 75.9483C213.841 76.1774 208.968 76.5825 206.691 76.8481C204.415 77.1149 201.861 77.4109 201.017 77.5063C200.174 77.6028 198.485 77.8512 197.266 78.0573C196.047 78.2633 194.033 78.5833 192.793 78.7679C190.666 79.0829 187.872 79.735 186.904 80.1422L186.471 80.3234L187.024 80.2484C190.241 79.8072 193.985 79.5045 197.386 79.4086C199.648 79.3438 202.755 79.1751 204.29 79.0344C207.552 78.7317 213.968 78.5984 217.923 78.7496C219.449 78.8082 221.816 78.8267 223.184 78.7909C224.552 78.7564 226.838 78.8278 228.266 78.95C232.394 79.3046 235.513 79.4009 244.884 79.4641C250.276 79.5009 254.153 79.9226 260.853 81.2035C261.993 81.4214 262.923 81.566 262.922 81.5242C262.919 81.4813 262.235 81.2065 261.4 80.9111Z" fill="black" fill-opacity="0.2"/>
</g>
<defs>
<clipPath id="clip0_1_3950">
<rect width="265.74" height="395.69" fill="white" transform="matrix(0.661681 -0.749786 -0.749786 -0.661681 296.682 461.068)"/>
</clipPath>
</defs>
</svg>
