<svg width="181" height="215" viewBox="0 0 181 215" fill="none" xmlns="http://www.w3.org/2000/svg">
<g clip-path="url(#clip0_1_5611)">
<path d="M227.287 132.992C234.232 119.034 227.07 102.663 214.461 94.814C209.101 91.4876 203.393 89.6395 197.512 88.8351C208.862 86.5958 217.066 78.0732 221.384 67.0286C225.681 56.0492 227.483 43.6566 214.266 39.6997C206.063 37.243 207.213 39.3953 199.877 27.9811C198.228 25.4374 197.425 23.1328 195.146 21.0239C191.522 17.6323 186.596 15.6973 181.734 15.0451C167.346 13.0666 155.583 22.6545 146.381 32.7425C147.076 26.0027 146.403 19.4151 143.473 13.3275C135.161 -4.02209 114.696 -2.63065 101.154 7.21818C93.2111 12.9796 87.0694 13.8275 77.694 13.1101C73.0931 12.7622 69.4037 12.9144 65.671 15.9147C59.7029 20.7413 58.4224 30.0248 59.3556 37.1342C59.6595 39.504 60.2454 41.8304 61.005 44.0915C50.9569 36.7212 37.8704 31.6119 26.1947 38.6779C21.2031 41.6999 17.8827 46.4395 16.7108 52.1575C15.9729 55.7448 16.407 59.4191 16.3636 63.0282C16.2767 71.8769 13.998 76.8991 8.07331 83.5302C0.586045 91.9224 -3.7978 100.51 4.38393 110.663C12.4137 120.643 25.4568 120.295 36.5249 116.36C35.7219 116.99 34.8972 117.621 34.116 118.295C25.7606 125.448 17.6657 135.753 16.2333 147.037C14.9746 156.929 19.4453 159.125 26.9759 163.821C41.0607 172.583 48.2007 198.433 68.9263 186.41C74.2216 183.345 78.7574 178.562 82.794 173.452C82.794 187.693 84.4217 207.304 101.219 211.304C111.311 213.696 119.84 205.499 130.105 208.912C136.984 211.217 142.779 216.674 150.44 214.478C165.197 210.239 167.324 190.063 166.174 177.475C165.458 169.561 163.722 161.647 161.052 154.059C173.401 167.213 192.607 182.91 211.749 173.865C217.5 171.148 222.014 165.995 223.815 159.886C224.835 156.385 224.466 153.429 224.01 149.928C223.858 148.732 223.511 148.124 223.142 147.667C223.251 144.928 223.186 142.167 223.207 139.405C224.032 137.166 226.224 135.166 227.287 132.992ZM75.9578 15.5886C78.2365 15.9147 80.5153 16.2191 82.8157 16.5235C88.5451 16.9583 92.0826 16.5235 96.9873 13.6971C104.626 9.30534 109.922 3.00036 119.449 2.34812C134.011 1.34802 143.43 12.9144 143.821 26.7201C144.32 43.8523 133.751 62.0498 127.761 77.6601C127.718 77.747 127.739 77.834 127.718 77.921C124.875 77.8775 122.249 79.856 121.359 82.5519C121.294 82.3562 121.185 82.1823 121.098 81.9866C121.12 81.8996 121.164 81.8344 121.164 81.7257C121.554 72.6596 121.945 63.6152 122.357 54.5708C125.048 54.1577 126.828 51.1357 126.632 48.5484C126.415 45.6568 123.789 43.7436 120.99 43.9175C118.169 44.0915 115.738 46.2439 115.955 49.2007C116.15 51.8531 118.364 54.0055 121.012 54.0273C121.142 54.2229 121.337 54.3534 121.576 54.4621C120.274 62.9195 119.558 71.529 119.492 80.0734C117.952 79.0298 115.781 78.7254 113.481 79.008C106.927 65.1153 97.2694 53.5924 84.8774 44.4611C85.1813 43.8088 85.3115 42.9827 85.2898 42.3522C85.2681 41.0042 84.7255 39.6345 83.8357 38.6127C81.774 36.3081 78.3451 36.7212 76.4353 39.004C74.5689 41.2651 74.6991 44.6785 77.3034 46.2873C79.3 47.5483 81.991 47.2005 83.6187 45.5481C83.6404 45.5481 83.6404 45.5481 83.6621 45.5481C83.9876 45.4612 84.2698 45.2872 84.4868 45.0481C96.0975 54.2882 105.169 66.0285 111.484 79.4211C107.6 80.443 103.823 82.965 102.782 86.2044C89.7821 75.7251 74.8727 64.5501 66.5391 49.8964C63.7395 44.9611 61.7212 39.0692 61.6778 33.3078C61.1569 24.546 65.9097 18.6106 75.9578 15.5886ZM132.47 87.922C132.731 88.0524 133.056 88.0524 133.338 87.8133C134.706 86.7262 137.071 86.7697 138.156 88.2264C139.263 89.683 138.656 91.7485 137.288 92.792C136.442 93.4443 136.854 94.6401 137.679 94.7488C137.787 94.814 137.896 94.8357 138.048 94.8357C141.911 94.3792 146.034 96.2272 147.315 100.184C148.704 104.532 145.687 108.75 141.564 109.924C139.871 110.403 140.587 112.968 142.28 112.555C142.974 112.381 143.647 112.12 144.298 111.816C144.537 112.077 144.906 112.229 145.296 112.164C147.206 111.816 147.597 113.664 146.251 114.859C144.884 116.055 142.757 115.773 141.086 115.599C140.565 115.533 140.392 116.099 140.544 116.49C140.522 116.49 140.522 116.468 140.5 116.468C139.502 116.294 138.894 117.555 139.806 118.142C140.999 118.925 141.867 119.664 142.106 121.143C142.345 122.512 142.019 124.078 140.978 125.056C138.395 127.469 134.575 125.643 132.687 123.36C132.449 123.078 132.167 123.056 131.906 123.165C131.342 122.752 130.278 122.991 130.127 123.773C129.562 126.382 128.781 128.817 126.003 129.839C123.594 130.731 120.99 129.926 119.21 128.187C119.297 127.839 119.362 127.513 119.362 127.143C119.384 125.882 117.518 125.643 117.192 126.839C116.584 129.1 114.696 131.296 112.07 130.578C109.509 129.883 108.772 127.274 108.989 124.947C108.989 124.904 109.01 124.861 109.032 124.795C109.119 124.078 108.207 123.686 107.665 124.013C106.645 124.6 106.037 125.708 104.952 126.295C104.8 126.382 104.648 126.426 104.496 126.491C104.106 125.404 102.261 125.534 101.914 126.817C101.675 126.774 101.458 126.709 101.241 126.6C99.852 125.882 99.3528 123.752 100.156 122.447C100.525 122.23 100.85 121.925 101.154 121.578C101.87 120.708 100.98 119.382 99.9171 119.969C98.0073 121.012 95.3596 121.382 94.0575 119.121C92.8204 116.968 94.2745 114.272 96.3362 113.359C96.8787 113.12 96.5966 112.446 96.1409 112.316C96.2928 112.164 96.4447 112.055 96.5532 111.881C97.0958 111.055 96.0324 110.12 95.2511 110.576C93.8621 111.381 91.9089 110.598 91.757 108.837C91.6268 107.315 92.6468 106.163 93.8404 105.272C93.9273 105.228 93.9924 105.163 94.0575 105.098C94.5349 104.772 95.0124 104.489 95.4681 104.25C96.0107 103.967 95.7285 103.358 95.2728 103.228C95.2945 102.663 94.7953 102.119 94.1009 102.271C91.6051 102.771 91.2579 99.9232 92.6902 98.4883C94.2094 96.9664 96.64 97.0533 98.5932 97.2925C98.7885 97.3142 98.8971 97.2055 98.9839 97.0751C99.1358 97.0316 99.2877 96.9881 99.4396 96.9229C100.004 96.6403 99.9822 95.7489 99.4396 95.4445C98.3979 94.901 97.4864 94.7705 96.7919 93.6834C96.2277 92.792 95.989 91.5093 96.6834 90.5962C98.0507 88.8134 101.067 89.7265 101.914 91.531C102.261 92.2702 103.281 91.8572 103.346 91.1832C103.346 91.1832 103.346 91.2049 103.368 91.2049C103.693 91.8137 104.713 91.4006 104.496 90.7266C104.214 89.9004 104.171 89.096 104.301 88.3133C104.431 88.1394 104.475 87.9002 104.409 87.7046C105.256 84.6173 108.902 82.204 112.439 81.3996C112.569 81.704 112.721 81.9866 112.873 82.291C113.394 83.465 115.109 82.4432 114.588 81.2909C114.566 81.2474 114.544 81.1822 114.523 81.1387C117.235 81.0517 119.492 82.1171 119.775 84.8782C119.905 86.1175 121.706 86.1827 121.749 84.8782C122.14 84.9652 122.596 84.813 122.704 84.3564C123.269 81.617 126.198 79.3342 129.02 80.443C131.646 81.4865 132.145 84.3781 131.559 86.8349C131.32 87.4654 131.906 87.9437 132.47 87.922ZM121.663 52.2879C121.315 52.3967 121.098 52.5923 120.968 52.8097C117.865 51.8531 117.257 46.6787 121.164 46.483C125.005 46.2873 124.853 51.3531 121.663 52.2879ZM83.0544 42.7218C83.011 43.374 82.6204 43.9175 82.577 44.5263C79.9944 46.4613 75.7408 43.3957 78.3451 40.4607C79.517 39.1344 81.3617 39.1127 82.4251 40.5911C82.8591 41.1999 83.0978 41.9826 83.0544 42.7218ZM3.42903 103.076C-0.433958 91.2049 12.9346 85.9653 17.2533 77.1165C21.1814 69.0505 17.7308 59.8974 20.3568 51.5705C26.5853 31.9381 48.7215 37.5473 61.3088 47.1787C61.6127 47.3962 61.9382 47.3961 62.2203 47.2874C69.4906 64.5066 88.0894 78.3558 102.543 88.0089C102.543 88.4873 102.586 88.9873 102.717 89.4874C100.98 86.9219 96.6183 86.5088 94.6434 89.1612C93.4498 90.7918 93.6017 93.0312 94.6 94.7053C94.817 95.0749 95.0992 95.4227 95.4464 95.7489C95.0124 95.7489 94.5783 95.7706 94.166 95.8358C94.0792 95.7489 93.9924 95.6619 93.8404 95.6184C78.9527 91.6398 64.0433 90.444 48.7432 91.9441C48.4828 89.5091 46.139 87.5741 43.73 87.5089C40.9956 87.4219 39.0424 89.77 38.9556 92.379C38.8687 94.9444 40.7351 97.336 43.4045 97.3795C44.5764 97.4012 45.7266 96.9664 46.6164 96.2272C47.5062 95.488 47.8101 94.6618 47.9837 93.6182C48.4177 93.5095 48.7866 93.1617 48.8083 92.5312C48.8083 92.4442 48.7866 92.3572 48.7866 92.2702C63.4139 91.3789 77.7808 92.792 91.9523 96.5316C90.9757 97.0751 90.1945 97.923 89.7821 99.2057C89.3481 100.554 89.8038 102.119 90.7153 103.163C73.2016 99.858 54.9501 103.728 40.236 113.685C27.3883 117.381 8.65927 119.186 3.42903 103.076ZM46.8552 93.3791C45.6832 95.4662 41.6249 95.488 41.5381 92.6833C41.4947 91.5093 42.1458 90.2266 43.4045 90.0744C44.8586 89.9004 46.2475 91.118 46.3994 92.5312C46.4428 92.9008 46.6164 93.1834 46.8552 93.3791ZM75.0897 177.735C65.085 187.78 53.3875 189.063 44.099 178.127C40.1058 173.431 36.9372 167.974 32.0977 164.038C30.101 162.408 27.2147 161.516 25.4134 159.886C17.9478 153.168 17.9695 146.624 22.1797 137.884C26.3466 129.187 33.3781 121.904 41.2343 116.447C55.9918 106.163 73.7876 102.75 91.3664 105.032C89.9557 106.38 89.1311 108.25 89.8906 110.185C90.4983 111.75 92.2779 113.033 93.9706 113.12C92.994 113.838 92.2996 114.903 91.9523 116.077C91.757 116.055 91.54 116.142 91.3664 116.36C81.3834 129.078 69.2084 138.558 54.9067 145.797C54.8199 145.667 54.7331 145.537 54.6245 145.428C54.3641 145.167 54.082 145.08 53.7999 145.102C52.1505 143.406 49.2858 143.602 47.5279 145.036C45.336 146.841 45.4879 149.993 47.3543 151.972C49.2424 153.95 52.3892 154.211 54.2773 152.124C55.6663 150.624 56.1871 148.102 55.2105 146.276C69.5123 140.297 81.9476 130.513 91.6919 118.469C91.7787 119.034 91.9306 119.599 92.2128 120.121C93.2328 122.034 95.7719 123.23 98.0507 123.034C97.6166 124.73 98.1592 126.774 99.5264 127.97C100.112 128.491 100.85 128.774 101.588 128.948C99.2877 147.298 87.9374 164.821 75.0897 177.735ZM52.7148 150.32C51.7164 151.559 50.0671 151.385 49.0471 150.254C46.6598 147.645 50.2407 145.189 52.7582 146.254C52.7582 146.406 52.8016 146.58 52.8884 146.732C53.5177 147.95 53.6262 149.211 52.7148 150.32ZM161.182 164.625C164.286 177.779 167.802 216.435 142.866 211.587C133.165 209.695 128.521 202.716 117.995 205.521C108.229 208.13 98.9405 211.043 91.5617 201.281C85.2464 192.933 85.1596 182.258 85.203 172.191C85.203 171.691 84.9425 171.365 84.5736 171.191C86.8306 168.147 88.9574 165.06 90.954 162.169C97.9639 151.95 102.999 141.167 104.344 128.861C104.518 128.817 104.692 128.796 104.865 128.752C105.668 128.47 106.558 128.013 107.318 127.404C107.578 129.818 109.401 132.144 111.745 132.753C112.287 132.883 112.852 132.927 113.394 132.883C113.155 145.558 111.246 157.994 107.773 170.169C107.383 169.93 107.014 169.974 106.71 170.126C103.932 169.061 100.829 170.474 99.5481 173.17C98.1592 176.105 99.8302 179.279 102.695 180.497C105.538 181.714 108.837 180.714 110.095 177.779C111.159 175.279 110.486 172.344 108.424 170.626C112.374 158.19 114.436 145.689 114.718 132.644C116.324 132.187 117.778 131.122 118.624 129.687C120.578 131.818 123.529 132.883 126.459 132.057C128.586 131.47 130.452 129.861 131.494 127.883C132.557 140.384 136.485 153.124 142.953 163.864C141.108 164.625 139.762 166.8 139.632 168.735C139.415 171.778 141.933 174.039 144.862 174.148C147.662 174.257 150.223 172.322 150.353 169.408C150.461 166.713 148.595 163.908 145.752 163.93C145.73 163.93 145.709 163.951 145.687 163.951C145.578 163.821 145.448 163.712 145.253 163.669C145.079 163.625 144.906 163.625 144.732 163.625C144.732 163.604 144.732 163.604 144.71 163.582C138.807 151.276 134.793 139.579 132.318 126.143C132.297 126.035 132.232 125.991 132.167 125.926C132.21 125.73 132.253 125.534 132.297 125.339C134.793 128.296 139.914 129.078 142.67 126.056C142.801 125.904 142.887 125.73 143.018 125.578C150.939 137.797 157.797 150.341 161.182 164.625ZM103.802 178.301C102.131 177.648 100.959 175.974 101.653 174.192C102.326 172.431 104.323 171.387 106.146 171.67C106.232 171.887 106.363 172.083 106.601 172.235C109.726 174.279 107.643 179.779 103.802 178.301ZM145.21 165.582C145.296 165.539 145.361 165.452 145.427 165.408C148.053 166.778 149.159 171.604 145.144 171.713C143.604 171.757 142.063 170.8 142.063 169.126C142.084 167.213 143.625 166.213 145.21 165.582ZM222.404 135.34C221.927 135.362 221.449 135.666 221.406 136.275C221.384 136.601 221.363 136.949 221.341 137.297C220.082 139.666 219.279 141.449 219.171 144.558C219.149 145.558 219.865 146.428 220.017 147.363C221.276 155.277 222.122 161.886 215.633 167.865C198.011 184.149 175.137 164.147 161.747 152.842C161.356 152.515 160.9 152.689 160.705 153.016C156.885 142.536 151.199 132.731 143.734 124.534C143.69 124.491 143.625 124.491 143.56 124.447C144.559 121.947 144.146 118.425 141.954 116.99C143.213 117.229 144.58 117.251 145.774 116.968C158.383 123.404 168.995 131.644 178.761 141.906C177.264 142.667 176.699 144.949 177.351 146.58C178.349 149.102 181.517 150.537 183.97 149.189C186.183 147.95 187.268 144.906 185.858 142.688C184.751 140.927 182.364 140.188 180.454 140.862C180.411 140.797 180.411 140.732 180.345 140.688C171.426 130.209 159.793 121.925 147.206 116.381C148.053 115.86 148.704 115.077 148.986 113.881C149.355 112.338 148.226 110.511 146.816 109.902C147.271 109.468 147.662 109.011 148.031 108.511C158.057 112.077 168.735 113.751 179.369 113.207C178.87 115.49 179.976 117.99 182.19 119.056C185.055 120.425 188.701 119.077 189.721 115.99C190.632 113.251 189.157 109.881 186.335 108.968C184.013 108.207 180.779 109.315 179.846 111.642C169.082 111.859 158.839 110.663 148.508 107.794C149.984 105.489 150.592 102.619 149.767 99.8362C148.595 95.8141 144.645 93.2051 140.587 93.0747C158.535 83.8129 176.331 77.7036 196.188 73.8771C196.622 75.9425 198.64 77.7036 200.68 77.921C203.437 78.2254 205.477 75.8338 205.542 73.2248C205.607 70.5724 203.589 68.2678 200.854 68.507C198.879 68.6809 197.1 70.0289 196.644 71.8334C196.47 71.8769 196.34 72.0073 196.253 72.203C196.231 72.203 196.21 72.203 196.166 72.203C176.526 74.6815 157.059 81.7475 140.283 92.3355C141.064 90.5962 140.913 88.422 139.719 86.9219C138.308 85.1608 135.791 84.6825 133.816 85.5087C133.838 85.4 133.816 85.2913 133.838 85.2043C145.839 78.1166 156.495 68.1374 163.808 56.2449C165.935 57.919 169.256 56.7232 170.08 54.2012C171.1 51.1357 168.648 48.5484 165.718 48.1571C163.244 47.8092 159.989 49.092 159.837 51.9836C159.75 53.6794 160.987 55.6361 162.636 55.9622C154.52 67.2677 145.361 76.573 133.881 84.3347C133.773 81.9649 132.253 79.5733 130.127 78.5297C130.148 78.4862 130.192 78.4428 130.213 78.3775C135.118 66.2459 143.365 51.027 145.839 36.2428C154.39 27.3941 164.394 17.6105 177.394 17.4366C184.512 17.3496 192.607 20.3499 196.362 26.8071C198.402 30.3292 198.423 34.634 201.418 37.6343C202.916 39.1344 204.63 39.8302 206.583 40.5694C208.515 41.3086 211.857 41.1564 213.506 42.2C217.652 44.8742 221.449 55.2013 220.929 59.8974C219.323 74.138 206.627 86.074 193.041 88.3133C192.998 88.3133 192.976 88.3568 192.954 88.3786C178.501 87.6394 163.374 92.5312 150.179 97.336C148.79 97.836 149.355 100.075 150.809 99.5971C167.085 94.3139 184.382 88.2699 201.635 92.6833C222.187 97.9447 232.561 116.425 222.404 135.34ZM179.521 143.21C179.781 143.384 180.107 143.406 180.476 143.167C182.906 141.536 185.814 144.362 183.883 146.776C182.885 148.015 181.235 148.08 180.042 147.08C179.087 146.276 178.349 144.036 179.521 143.21ZM181.344 113.055C182.407 111.859 183.405 110.75 185.228 110.99C187.03 111.229 188.202 113.164 187.919 114.925C187.594 116.968 185.337 118.034 183.471 117.381C181.626 116.729 180.953 114.816 181.344 113.055ZM197.903 73.6814C197.903 73.6597 197.946 73.6379 197.946 73.5944C198.271 70.1811 203.762 69.2244 203.654 73.2683C203.61 74.7467 202.699 76.1599 201.114 76.1817C199.422 76.2469 198.315 75.0946 197.903 73.6814ZM162.116 51.9618C162.485 50.5921 164.264 50.2008 165.501 50.3965C166.933 50.6139 168.474 51.614 168.279 53.2446C168.04 55.2665 166.044 55.1795 164.611 54.636C164.438 54.5708 164.286 54.5925 164.134 54.636C164.09 54.6143 164.047 54.5925 164.004 54.5708C162.767 54.4621 161.768 53.2446 162.116 51.9618Z" fill="#C3C8BB"/>
<path d="M94.014 88.77C83.445 83.4869 73.1582 77.7472 63.1752 71.4422C64.5207 69.6376 64.5641 66.9417 63.3922 64.985C61.6777 62.1151 57.9015 62.0499 55.5577 64.1806C53.2356 66.2895 52.8666 70.1159 55.5794 72.0509C57.0335 73.0945 59.3122 73.3989 61.0267 72.6597C61.2654 72.7901 61.5475 72.8336 61.8296 72.6597C62.242 72.3988 62.5892 72.0944 62.9147 71.7248C72.5722 78.5516 82.6638 84.7261 93.2544 90.031C94.1225 90.5093 94.8821 89.2048 94.014 88.77ZM57.2071 70.6595C55.3407 69.442 55.4492 67.1156 57.0986 65.7242C60.7445 62.6587 63.8262 67.9201 61.3088 70.8334C60.0067 71.4639 58.5092 71.5074 57.2071 70.6595Z" fill="#C3C8BB"/>
</g>
<defs>
<clipPath id="clip0_1_5611">
<rect width="230" height="215" fill="white"/>
</clipPath>
</defs>
</svg>
