<svg width="239" height="246" viewBox="0 0 239 246" fill="none" xmlns="http://www.w3.org/2000/svg">
<g clip-path="url(#clip0_1_5615)">
<path d="M-39.5589 266.477C-34.5774 263.807 -29.6775 261.055 -24.8593 258.204C-32.3071 248.163 -36.4883 236.189 -36.3577 223.593C-36.2107 208.719 -29.8898 194.763 -28.0442 180.119C-27.9625 179.431 -26.9335 179.087 -26.5252 179.726C-20.139 189.898 -14.5531 203.363 -12.5932 216.909C-3.87135 202.888 7.02272 190.619 19.6154 179.972C20.0401 179.611 20.7751 179.922 20.8078 180.479C20.8241 180.742 20.8241 180.987 20.8404 181.249C20.9221 181.298 20.9874 181.397 20.9548 181.511C20.9221 181.593 20.8894 181.659 20.8731 181.741C22.2451 206.377 11.596 231.619 -7.4156 247.164C6.84308 237.483 20.2361 226.656 32.5185 214.125C33.4168 213.207 34.2661 212.257 35.1318 211.34C35.0011 211.094 34.9848 210.783 35.1971 210.505C43.4453 198.858 46.0749 183.461 48.3125 169.636C36.8794 169.193 24.0744 165.852 22.0001 156.384C21.8694 155.761 21.8041 155.123 21.8041 154.484C12.2983 153.566 -8.90193 147.456 -3.29971 133.713C-2.10741 130.814 -0.441422 128.685 -0.114761 125.474C-0.0657654 125.015 -0.931427 120.298 -0.621109 118.807C-0.212784 116.825 -0.0984497 116.17 1.58385 114.827C6.07542 111.207 13.0496 112.058 18.0802 114.122C17.3125 112.042 16.9042 109.929 17.0185 107.75C17.7861 92.9588 34.8705 100.658 41.42 92.0415C46.7772 85.0143 53.0327 82.5737 58.9616 83.278C52.0527 78.2001 46.6139 72.0574 42.253 64.5061C41.9426 63.9819 42.2366 63.0973 42.9879 63.2448C55.7277 65.9475 67.9447 70.4849 79.1818 77.119C87.92 82.2788 98.3894 88.8965 98.7814 100.101C98.8631 100.166 98.9447 100.215 99.0264 100.281C98.5038 87.2093 95.1718 74.9404 89.4553 63.2284C89.3573 63.2284 89.2593 63.212 89.1776 63.1792C89.145 63.1629 89.1123 63.1465 89.0796 63.1465C88.802 63.9327 87.5117 63.7526 87.7077 62.8844C87.724 62.7861 87.7403 62.6878 87.773 62.6059C77.6302 58.4617 68.6961 51.8768 61.7055 43.3753C52.9674 32.7444 49.8805 18.5754 40.3583 8.66521C39.8683 8.15742 40.4727 7.22374 41.126 7.35478C53.3594 9.87737 66.2625 13.1207 75.2129 22.4411C76.0622 23.3257 76.8462 24.2594 77.5975 25.2094C76.8462 16.8718 78.0385 8.86178 81.0765 0.950038C81.2725 0.458625 81.9421 0.409484 82.2524 0.802614C96.5111 19.1323 104.71 41.3441 90.3046 62.1637C90.4026 62.4421 90.3046 62.737 90.1086 62.9499C94.7798 71.2875 97.7851 80.1166 99.3041 89.3388C98.0628 80.6735 97.1645 71.8117 99.0591 63.1956C101.019 54.3666 105.935 46.7497 110.704 39.2147C111.064 38.6414 111.946 38.9854 112.011 39.5751C114.379 58.3962 114.984 80.477 100.398 94.8098C100.268 94.9245 100.121 94.8917 100.023 94.7934C100.251 96.9884 100.415 99.2162 100.48 101.46C100.48 101.477 100.464 101.509 100.464 101.526C101.819 102.787 103.061 104.196 104.351 105.473C108.777 109.88 111.799 109.552 117.27 111.321C126.368 114.27 124.457 125.769 120.521 132.321C113.269 144.393 98.8958 151.437 85.323 153.828C83.7387 156.761 81.1745 159.349 78.2019 161.527C71.5053 169.39 65.1682 177.531 58.782 185.639C73.3836 178.972 88.5733 173.894 104.122 170.307C104.155 170.291 104.155 170.258 104.204 170.258C104.237 170.258 104.269 170.242 104.302 170.242C104.237 170.094 104.188 169.914 104.253 169.734C112.403 145.507 134.796 132.993 157.874 125.867C157.923 125.851 157.972 125.834 158.021 125.818C158.25 125.752 158.478 125.671 158.707 125.605C159.246 125.441 159.769 125.916 159.556 126.473C151.962 145.556 136.609 160.659 117.646 167.621C127.364 165.95 137.197 164.869 147.094 164.361C147.127 164.328 147.16 164.296 147.192 164.263C147.274 164.017 147.47 163.837 147.715 163.755C168.687 143.64 199.278 154.959 221.279 167.342C221.36 167.359 221.442 167.375 221.524 167.391C221.752 167.441 221.916 167.588 221.997 167.752C222.144 167.834 222.308 167.916 222.455 168.014C223.026 168.342 223.206 169.341 222.438 169.586C208.915 174.042 194.542 177.809 180.185 179.169C189.658 185.557 195.13 195.173 200.454 205.165C200.781 205.787 200.013 206.311 199.474 206.131C179.042 199.219 148.728 191.995 147.225 165.426C147.029 165.409 146.849 165.311 146.768 165.131C131.578 166.359 116.682 168.898 102.097 172.633C121.974 175.156 138.748 187.654 153.644 200.349C154.199 200.824 153.954 201.725 153.236 201.839C138.765 204.051 124 205.869 110.166 200.251C118.675 207.458 126.302 216.009 133.277 223.969C133.701 224.444 133.195 225.395 132.542 225.214C106.67 217.974 70.4437 217.237 58.2266 188.293C58.1123 188.014 58.2756 187.752 58.5043 187.638C58.0796 187.752 57.7366 187.539 57.5896 187.195C48.9822 198.088 40.244 208.834 30.3136 218.629C19.3868 229.408 7.46375 239.449 -5.24332 248.327C7.36574 244.494 18.7661 237.549 31.5549 234.207C42.6776 231.291 51.8078 234.731 62.8162 234.256C63.7145 234.224 64.2698 235.354 63.5022 235.96C42.4653 252.357 15.2056 261.513 -10.6985 252.062C-19.7797 258.057 -29.2201 263.43 -38.9873 268.033C-39.9019 268.344 -40.4246 266.935 -39.5589 266.477ZM47.7572 15.4303C51.9384 22.3429 54.5517 30.0744 59.0269 36.8395C63.4532 43.5391 69.2351 49.3869 75.8009 54.0062C76.5359 54.514 86.842 61.0989 87.2503 60.5748C87.332 60.4765 81.3215 53.8752 80.6845 53.138C74.8699 46.5859 68.8104 40.2303 63.1918 33.4979C57.4263 26.5854 53.2287 16.708 45.3072 11.9741C46.3526 13.4319 47.5449 15.0863 47.7572 15.4303ZM81.3541 3.94765C77.4669 5.20895 78.6755 23.0145 79.0838 27.1259C84.7187 35.2342 87.3157 45.1935 89.0633 54.9727C90.8926 37.6258 85.666 20.9505 81.7625 3.93127C81.6155 3.93127 81.4685 3.91489 81.3541 3.94765ZM92.9179 20.197C91.8236 17.7236 86.3683 5.89692 82.6444 4.14422C88.1486 22.1463 93.5059 40.9838 89.8473 59.7394C89.8963 60.0178 89.9289 60.2963 89.9779 60.5584C97.0175 48.1584 98.8141 33.5471 92.9179 20.197ZM88.557 58.6255C84.6371 39.6733 79.1982 21.9006 59.4516 13.9561C55.695 12.4491 50.3541 9.92651 46.3362 10.0575C45.7482 10.0739 43.8863 9.17301 43.6576 9.66442C43.6576 9.66442 43.7719 9.82822 43.9516 10.0739C44.0659 10.0412 44.1966 10.0412 44.3436 10.1067C53.6044 14.6932 57.753 25.1603 64.1392 32.81C71.881 42.0813 80.4885 50.5827 88.3773 59.7394C88.4263 59.3462 88.4916 58.9859 88.557 58.6255ZM106.066 49.3542C102.669 55.4477 100.219 61.8033 99.5327 68.8305C99.4674 69.4529 101.003 89.437 100.627 89.6991C101.166 89.3224 102.244 83.2616 102.293 83.0815C103.191 79.4122 104.008 75.743 104.629 72.0083C106.295 61.9343 105.739 51.5819 110.786 42.4908C109.48 42.2942 105.592 50.206 106.066 49.3542ZM100.023 94.302C109.202 82.4099 112.387 69.0271 111.897 54.1209C111.848 52.5647 112.174 46.3566 111.472 43.6702C107.536 51.1233 107.471 59.1497 106.474 67.389C105.445 75.9723 103.24 84.31 101.003 92.6476C100.839 93.2701 99.9411 93.3356 99.8267 92.6312C99.9084 93.1882 99.9574 93.7451 100.023 94.302ZM214.174 165.328C210.744 163.558 207.265 161.871 203.688 160.381C185.706 152.928 165.387 151.568 149.463 163.755C171.561 166.196 193.937 162.756 215.905 166.228C215.415 165.966 214.844 165.672 214.174 165.328ZM183.272 176.908C193.627 175.582 203.917 173.436 213.929 170.438C217.294 169.439 218.747 168.882 218.47 168.112C202.202 165.115 185.755 166.196 169.275 166.196C165.894 166.196 162.513 166.163 159.148 166.016C154.853 165.835 147.617 163.673 151.374 170.815C156.666 180.905 174.207 178.088 183.272 176.908ZM184.758 199.481C187.943 200.578 191.259 201.987 194.542 202.724C196.518 203.166 197.4 203.052 197.596 202.577C187.535 194.599 177.212 187.212 165.959 180.971C165.273 180.594 165.747 179.431 166.449 179.824C177.523 185.967 188.057 193.076 197.449 201.577C196.877 200.316 195.211 198.35 194.003 196.336C189.887 189.521 185.02 183.559 178.258 179.251C175.644 179.464 173.047 179.611 170.434 179.644C161.843 179.742 153.17 177.072 149.152 169.865C153.742 186.049 169.389 194.223 184.758 199.481ZM143.615 132.108C138.128 134.467 132.803 137.317 127.919 140.757C121.517 145.262 115.719 150.847 111.472 157.465C110.802 158.497 105.723 167.31 106.736 167.588C108.385 168.047 114.967 161.822 116.437 160.725C130.206 150.438 143.321 139.315 155.898 127.603C153.922 126.915 145.412 131.355 143.615 132.108ZM146.114 145.737C148.368 143.132 157.188 132.223 156.649 128.603C140.888 143.525 124.114 157.252 106.311 169.685C121.713 165.835 135.612 157.858 146.114 145.737ZM18.5375 115.171C10.3057 112.189 2.75984 113.189 1.46954 122.951C1.07755 125.9 0.963196 127.931 0.146545 130.732C-1.66641 136.891 -2.04205 142.428 3.42949 146.949C8.50905 151.142 15.5649 152.403 21.9021 153.222C22.3757 149.439 24.9727 145.851 28.1086 143.918C28.1903 143.869 28.2719 143.836 28.3536 143.787C23.813 142.886 19.3378 141.347 15.3035 139.168C14.9932 140.659 13.0006 141.658 11.645 141.658C9.45636 141.658 7.98637 139.741 8.31303 137.595C8.63969 135.384 10.6977 133.631 12.9516 134.221C14.7809 134.713 16.3325 136.596 16.0875 138.546C20.7098 140.446 25.3157 141.92 30.2319 142.854C32.9758 141.756 35.8341 141.625 38.6597 142.067C38.2514 140.937 38.4474 139.61 39.362 138.726C39.2314 138.709 39.117 138.644 39.019 138.546C33.1555 132.37 22.4737 124.278 18.5375 115.171ZM13.1313 135.63C11.547 134.991 10.0117 136.023 9.70135 137.661C9.42369 139.102 10.322 140.38 11.841 140.249C13.2293 140.134 13.7519 139.266 14.2582 138.136C14.4542 137.694 14.9279 137.776 15.1565 138.087C14.8789 137.022 14.2419 136.072 13.1313 135.63ZM56.3157 84.5065C49.9131 84.8833 46.5322 88.0283 42.8736 92.9752C41.3546 95.0228 40.6523 96.7919 38.2514 97.9549C36.2098 98.9541 33.8251 98.8722 31.6202 98.9377C23.9927 99.2162 16.9369 103.246 19.4848 112.206C22.2287 121.821 33.3515 130.552 39.9664 137.776C40.097 137.907 40.1297 138.054 40.1134 138.185C40.93 137.808 41.91 137.841 42.743 138.202C42.057 136.236 42.7103 133.894 44.5723 132.796C44.7682 132.681 44.9642 132.599 45.1766 132.518C41.4037 128.029 38.774 123.033 37.0917 117.448C35.2951 117.939 33.3678 116.989 32.6002 115.269C31.7835 113.418 32.8615 111.452 34.6418 110.732C36.4221 110.011 38.578 110.666 39.2314 112.583C39.7704 114.122 39.215 116.186 37.7287 116.973C37.6961 117.087 37.6471 117.185 37.5491 117.267C39.509 122.82 42.4816 127.816 46.3362 132.288C47.6592 132.19 49.0148 132.714 49.9458 133.681C49.7498 131.764 50.9421 129.749 52.8204 129.16C55.107 128.455 57.459 129.979 58.0143 132.206C58.1123 132.567 57.5406 132.681 57.41 132.354C56.675 130.683 54.7477 129.487 52.9347 130.175C51.1544 130.847 50.5665 132.73 50.9094 134.467C50.9584 134.729 50.7298 134.876 50.5011 134.86C50.3705 135.04 50.1255 135.122 49.9458 134.876C48.8515 133.337 46.7282 132.55 45.0132 133.566C43.2983 134.581 42.8573 136.776 43.7393 138.496C43.8699 138.758 43.6903 138.955 43.4616 139.004C43.3636 139.119 43.2003 139.184 43.0369 139.07C40.8483 137.53 38.2187 140.069 39.6397 142.248C42.155 142.755 44.6376 143.673 47.0059 144.705C55.891 144.082 60.9869 135.433 69.4474 133.795C69.4474 133.746 69.431 133.681 69.4637 133.631C70.2477 132.272 70.0844 130.273 68.6307 129.389C66.9648 128.373 65.1681 129.635 64.4005 131.109C64.3352 131.24 64.2045 131.289 64.0902 131.305C63.9268 131.518 63.5512 131.486 63.4695 131.158C63.3552 130.699 63.1102 130.257 62.7672 129.913C62.5059 129.962 62.2282 129.831 62.2609 129.504C61.8035 129.209 61.2646 129.045 60.7256 129.143C59.4026 129.356 58.7493 130.699 58.8473 131.928C58.8799 132.387 58.1613 132.616 58.0306 132.141C57.5896 130.421 58.7003 128.521 60.4806 128.16C61.1665 128.029 61.8199 128.144 62.4079 128.439C63.2082 123.279 63.2572 118.217 62.6365 113.025C61.3952 112.779 60.3826 111.731 60.1539 110.437C59.8436 108.766 61.0196 107.292 62.6365 106.98C64.2045 106.669 65.9031 107.488 66.3114 109.11C66.7361 110.764 65.7888 112.681 64.1065 113.074C63.8942 113.123 63.7635 113.008 63.6818 112.861C63.6328 112.959 63.5512 113.058 63.4042 113.074C63.3225 113.074 63.2408 113.074 63.1592 113.074C64.2208 118.332 64.2372 123.77 63.2245 129.029C63.5185 129.323 63.7635 129.651 63.9268 130.028C64.7108 128.209 67.3568 127.39 69.0717 128.275C70.9664 129.258 71.636 131.911 70.4764 133.664C71.489 133.55 72.518 133.5 73.645 133.599C73.7593 133.615 73.8573 133.631 73.9553 133.648C73.9226 133.615 73.9063 133.566 73.9389 133.5C77.1076 126.539 76.4542 116.072 79.3778 108.111C76.8789 96.8246 69.7577 83.7039 56.3157 84.5065ZM37.0591 116.104C37.0918 116.104 37.1407 116.104 37.1734 116.104C37.9411 115.416 38.3657 114.45 38.1044 113.369C37.7941 112.058 36.5038 111.551 35.2951 111.977C34.2008 112.37 33.4005 113.467 33.8742 114.63C34.3151 115.76 35.6708 116.514 36.8468 116.121C36.8794 116.104 36.8958 116.121 36.9284 116.104C36.9611 116.104 37.0101 116.088 37.0591 116.104ZM62.9795 112.173C63.1265 112.239 63.2572 112.304 63.4205 112.337C63.5185 112.353 63.5838 112.402 63.6328 112.468C63.6655 112.353 63.7472 112.239 63.8778 112.173C64.9721 111.698 65.6745 110.535 65.2988 109.339C64.9558 108.258 63.7472 107.931 62.7509 108.275C60.8889 108.913 61.2646 111.141 62.6365 112.009C62.7509 111.927 62.9305 111.96 62.9795 112.14C62.9795 112.14 62.9795 112.157 62.9795 112.173ZM46.4016 68.3063C49.3741 74.4653 55.695 79.576 61.1176 83.6548C68.2714 85.4566 74.6739 91.7631 78.0222 99.9533C78.1692 99.7895 78.3979 99.724 78.5775 99.9041C79.1818 100.51 79.6718 101.182 80.3905 101.673C81.0601 102.115 81.8278 102.361 82.6118 102.492C83.6897 101.231 85.0127 100.133 86.6297 99.2653C87.2013 98.9541 87.7893 98.7084 88.361 98.5118C74.7229 87.2257 60.7909 76.9552 45.9606 67.3562C46.0912 67.602 46.2219 67.9296 46.4016 68.3063ZM79.9985 106.702C80.5865 105.375 81.3051 104.147 82.1708 103.033C80.8641 102.885 79.4595 102.345 78.5775 101.378C79.1818 103.098 79.6718 104.867 79.9985 106.702ZM61.2156 69.9607C57.8183 68.6831 54.3557 67.5692 50.8604 66.6191C47.7898 65.8001 45.3399 64.3423 45.6176 66.1441C61.3299 74.58 76.2746 85.2928 89.194 97.5781C89.3736 97.7419 89.4063 97.9549 89.3736 98.135C92.3299 97.3652 95.3188 97.8402 98.1281 99.5601C98.1444 99.5601 98.1444 99.5765 98.1608 99.5765C95.0738 83.9987 74.7066 75.0223 61.2156 69.9607ZM115.817 135.089C120.537 129.602 124.931 120.494 118.626 115.007C115.359 112.173 111.635 113.058 107.977 110.895C106.033 109.749 104.563 108.045 102.979 106.489C101.084 104.638 99.5001 102.394 97.0828 101.165C90.2556 97.66 84.4084 101.984 81.3051 107.718C76.9769 115.711 78.9205 125.572 74.2493 133.648C74.2329 133.681 74.2003 133.697 74.1839 133.713C76.1602 133.959 78.0712 134.581 79.7861 135.532C81.6154 132.37 83.6081 129.34 85.127 125.982C87.0217 121.821 88.4263 117.497 89.4226 113.041C89.4226 113.025 89.4553 113.008 89.4553 112.992C88.7366 112.386 88.3283 111.387 88.361 110.437C88.4263 108.586 90.2393 107.57 91.9216 108.062C93.6692 108.569 94.7798 110.437 93.8815 112.14C93.1629 113.533 91.4479 114.253 89.9943 113.696C88.4263 121.379 85.6497 129.848 80.7661 136.138C83.1344 137.677 85.078 139.872 86.1397 142.608C86.2867 142.968 86.401 143.345 86.499 143.705C91.7746 140.675 96.5438 137.432 100.905 133.206C100.823 133.124 100.725 133.058 100.643 132.976C100.545 132.862 100.529 132.73 100.545 132.616C100.496 132.599 100.431 132.583 100.398 132.518C99.1244 130.699 99.7287 128.046 101.623 126.899C103.436 125.802 105.658 126.653 106.719 128.357C107.748 129.995 107.454 132.108 105.854 133.271C104.465 134.287 102.424 134.401 101.068 133.337C96.9031 137.71 92.1339 141.625 86.7277 144.344C86.7113 144.344 86.7113 144.344 86.695 144.344C87.381 147.113 87.1197 149.717 86.156 152.125C97.2788 149.258 108.206 143.918 115.817 135.089ZM90.9743 112.583C91.1866 112.615 91.3009 112.73 91.3499 112.877C92.8852 112.32 93.6855 110.044 91.6112 109.307C89.096 108.389 88.6713 112.271 90.9743 112.583ZM101.868 132.485C101.836 132.518 101.803 132.55 101.77 132.583C104.041 133.861 107.373 131.862 105.707 129.127C105.021 127.997 103.6 127.259 102.342 127.898C100.823 128.668 100.3 130.699 101.084 132.141C101.101 132.174 101.084 132.19 101.084 132.223C101.166 132.223 101.248 132.223 101.329 132.288C101.427 132.37 101.525 132.436 101.623 132.501C101.656 132.468 101.705 132.436 101.738 132.387C101.819 132.321 101.934 132.403 101.868 132.485ZM82.6934 154.156C82.6444 154.156 82.5791 154.172 82.5301 154.189C81.7625 154.287 81.6645 153.173 82.3994 153.009C82.7588 152.928 83.1181 152.846 83.4774 152.764C83.5591 152.6 83.6734 152.453 83.7387 152.272C89.047 141.035 75.9642 133.173 66.2298 136.613C59.5169 138.971 55.5643 144.918 48.6228 145.769C48.5902 145.982 48.4105 146.162 48.1655 146.048C48.0185 145.982 47.8552 145.917 47.6918 145.851C47.3489 145.868 47.0059 145.884 46.6629 145.884C46.3035 145.884 46.1729 145.524 46.2219 145.229C44.0333 144.377 41.7793 143.705 39.4437 143.394C37.8431 143.181 35.0828 143.214 32.4205 143.787C32.4205 144.098 32.1918 144.426 31.7835 144.377C31.4405 144.328 31.0975 144.279 30.7545 144.213C28.4516 144.934 26.4263 146.13 25.6423 148.03C25.6586 148.128 25.675 148.21 25.675 148.308C23.1597 151.715 22.9637 156.58 25.724 160.086C27.5206 162.363 30.0359 163.853 32.6655 164.984C34.0865 165.606 35.5564 165.737 36.9611 165.54C38.627 166.048 40.293 166.507 41.9753 166.851C52.0201 168.915 62.8325 167.981 71.9463 163.133C75.9806 161.003 80.1455 158.087 82.6934 154.156ZM150.622 199.841C150.753 199.251 145.935 195.992 145.461 195.615C131.872 184.787 117.336 176.368 100.104 173.174C100.039 173.157 100.006 173.108 99.9574 173.075C91.0559 175.418 82.2851 178.235 73.6123 181.462C84.3431 179.759 94.8288 181.855 105.396 184.853C120.651 189.161 135.89 193.96 150.573 199.988C150.573 199.939 150.606 199.907 150.622 199.841ZM135.71 202.183C139.336 201.954 144.269 202.069 147.764 200.873C148.303 200.693 148.989 200.758 149.561 200.693C137.621 196.074 125.453 192.29 113.203 188.62C100.006 184.673 86.597 180.545 72.8773 183.068C86.1724 183.887 97.8014 190.095 108.124 198.432C108.271 198.088 108.647 197.843 109.088 198.039C117.597 201.823 126.466 202.757 135.71 202.183ZM62.3752 193.42C63.0775 194.927 64.5148 196.352 65.6091 197.597C72.4036 205.328 81.6481 210.357 91.2682 213.617C100.905 216.877 110.982 218.482 120.896 220.628C122.807 221.037 124.931 221.84 126.874 221.987C127.282 222.02 127.609 222.053 127.936 222.086C111.766 211.963 94.9432 202.953 77.3525 195.566C73.4653 193.928 68.5981 190.93 64.4005 190.455C61.1502 190.095 60.3989 189.243 62.3752 193.42ZM58.9289 187.49C83.3141 197.073 106.817 207.72 129.079 221.594C129.046 221.496 128.997 221.414 128.965 221.299C127.903 217.843 122.089 213.633 119.508 210.963C105.086 196.074 88.1813 184.689 67.0138 183.985C64.2372 185.099 61.4606 186.262 58.7003 187.457C58.782 187.474 58.8636 187.457 58.9289 187.49ZM74.282 163.984C70.3784 166.196 66.2461 167.752 62.8979 168.522C59.5496 169.292 54.5027 169.783 49.0802 169.619C48.5248 181.577 45.5849 195.402 39.656 206.344C51.6771 192.65 62.1139 177.515 74.282 163.984ZM18.2598 183.051C17.1982 182.822 12.3146 188.424 11.6776 189.046C2.43318 197.99 -5.35767 208.08 -12.2339 218.941C-12.2502 218.973 -12.2828 218.99 -12.3155 219.023C-11.2702 228.015 -11.8745 236.959 -14.9451 244.953C-1.4214 225.886 9.86465 205.345 19.3868 183.968C19.1581 183.493 18.7988 183.166 18.2598 183.051ZM33.4332 235.354C22.1144 237.909 12.1023 244.216 1.22453 247.885C2.26984 247.819 3.18449 247.77 3.70715 247.688C9.58702 246.853 15.4505 245.87 21.2814 244.773C33.6618 242.43 45.8952 239.416 57.998 235.894C49.7825 235.37 41.9916 233.421 33.4332 235.354ZM58.047 237.451C36.1281 243.741 13.8173 248.196 -8.85292 250.719C-9.04892 250.85 -9.26123 250.997 -9.45723 251.128C14.5686 257.861 37.9901 251.226 58.047 237.451ZM17.2472 204.903C18.4558 200.136 19.2398 195.222 19.5011 190.308C19.5828 188.768 20.0238 186.376 19.6808 184.755C10.42 208.637 -2.36873 230.62 -17.8361 250.964C-18.5547 252.177 -19.3387 253.356 -20.2043 254.503C-1.94406 243.233 11.8573 226.099 17.2472 204.903ZM-16.7418 204.821C-17.5094 202.216 -24.4019 184.362 -26.4272 183.33C-21.8213 207.392 -22.3276 231.75 -23.0626 256.124C-12.2175 241.791 -11.8255 221.627 -16.7418 204.821ZM-23.8793 244.15C-23.2096 224.133 -23.5036 204.165 -27.3255 184.46C-28.3872 187.654 -29.5141 196.237 -29.9061 197.712C-31.0168 202.003 -32.2091 206.279 -33.1074 210.636C-35.247 221.086 -35.149 231.521 -31.7844 241.709C-31.0168 244.019 -25.3329 256.042 -24.9409 255.731C-23.1116 254.257 -23.9446 246.296 -23.8793 244.15Z" fill="#C8CEBC"/>
<path d="M108.075 106.997C115.131 98.4135 123.509 90.1741 132.542 83.6875C132.607 83.6384 132.672 83.6384 132.721 83.6384C133.064 83.3927 133.391 83.1469 133.734 82.9012C133.718 82.8849 133.685 82.8685 133.669 82.8357C127.201 68.7486 125.273 48.3058 140.822 39.1819C142.815 38.0189 145.053 37.1671 147.388 36.7085C148.401 24.3904 153.807 12.8094 163.215 4.65199C166.22 2.0475 170.222 -0.999254 174.468 0.311179C176.33 0.884494 176.739 2.08026 178.241 3.06309C182.112 5.61843 184.676 6.79782 189.168 6.87973C190.409 6.89611 191.602 6.8142 192.843 6.97801C203.28 8.27206 204.325 20.0168 201.875 28.3217C200.536 32.8754 198.331 36.9706 195.603 40.7217C206.138 34.792 222.504 30.8934 232.173 39.1491C236.142 42.5399 237.889 47.3394 236.795 52.4337C235.799 57.0529 233.659 59.8376 234.28 64.8009C234.9 69.8788 237.383 73.8756 238.543 78.757C241.336 90.5345 231.617 98.9868 220.429 99.3472C219.335 99.3799 218.241 99.3472 217.146 99.298C220.887 104.081 226.015 113.123 221.883 119.004C219.874 121.87 216.068 122.263 212.982 123.017C206.563 124.589 203.312 126.555 198.853 131.174C197.204 132.894 196.453 134.549 194.28 135.843C177.539 145.802 161.418 113.844 157.466 102.509C157.384 102.296 157.449 102.099 157.547 101.968C148.058 100.379 138.993 91.8613 134.485 83.7039C132.999 84.9815 131.496 86.2592 129.928 87.4386C129.781 87.5533 129.634 87.5697 129.487 87.5697C122.644 94.2692 115.849 100.936 109.234 107.881C108.597 108.553 107.47 107.734 108.075 106.997ZM230.327 94.6788C239.604 88.5197 237.024 80.3131 233.839 71.7134C232.859 69.0762 231.797 66.3734 231.748 63.5232C231.65 57.5607 236.648 51.9914 234.655 45.9143C229.494 30.058 205.076 37.6094 194.117 42.6546C188.727 49.3869 181.688 54.9562 174.893 59.985C174.321 60.4109 173.684 59.5591 174.223 59.1169C182.863 52.0733 192.092 45.1116 197.482 35.0704C200.095 30.1891 202.381 23.8007 201.418 18.1658C199.948 9.58249 193.839 9.0747 186.816 8.73071C178.176 8.30482 170.761 0.0982337 162.627 7.92807C154.624 15.6269 150.018 25.6517 148.401 36.561C152.255 35.9713 156.273 36.4628 159.671 38.4284C162.594 40.132 164.244 42.5071 165.044 45.2263C167.38 38.8052 170.793 32.4332 175.383 27.4044C173.652 26.1103 172.443 24.3249 173.407 22.0152C174.305 19.8366 176.788 18.8047 178.895 19.9185C180.773 20.9014 181.851 23.2601 180.838 25.2422C180.218 26.4543 178.895 27.388 177.506 27.5354C177.49 27.9777 176.935 28.42 176.412 28.1087C176.281 28.0432 176.167 27.9449 176.053 27.8794C171.643 34.0385 167.935 40.1975 165.502 47.4704C165.714 49.0921 165.681 50.7956 165.485 52.4992C166.612 52.188 167.886 52.6302 168.752 53.5639C170.173 55.1037 169.781 57.2004 169.176 59.035C169.258 59.0186 169.356 59.0022 169.438 58.9858C172.002 53.4984 175.399 48.4205 179.695 44.1452C178.96 43.3917 178.519 42.2287 178.503 41.2786C178.454 39.4768 179.76 37.8551 181.639 37.937C183.37 38.0189 185.134 39.5259 185.134 41.3277C185.134 43.2115 183.484 44.2435 181.818 44.7349C181.72 44.8495 181.606 44.9151 181.459 44.9314C181.377 44.9314 181.296 44.9151 181.214 44.8987C180.92 44.9642 180.642 45.0133 180.381 45.0461C180.152 45.0789 179.989 44.9314 179.891 44.7512C176.314 49.174 173.243 53.8096 170.744 58.8875C171.822 58.9694 172.884 59.3953 173.472 60.0014C174.615 61.1972 174.599 62.9007 173.864 64.2276C180.234 62.4585 186.293 60.0014 192.222 57.1021C192.026 56.8236 191.847 56.5124 191.749 56.152C191.683 55.9555 191.716 55.7589 191.798 55.6278C191.651 54.301 192.173 52.8596 193.235 51.975C195.032 50.468 197.482 51.2051 198.592 53.138C199.654 54.989 199.278 57.528 197.188 58.4453C195.783 59.0677 194.068 58.7729 192.908 57.8228C192.892 57.8064 192.859 57.8228 192.843 57.8064C192.81 57.7737 192.794 57.7573 192.778 57.7245C192.68 57.6426 192.582 57.5444 192.484 57.4461C186.816 60.8532 180.773 63.3758 174.436 65.2759C176.363 65.3087 178.241 67.2088 178.552 69.1089C178.617 69.4857 178.601 69.846 178.568 70.19C190.197 70.9271 200.911 69.7969 212.051 66.6027C212.051 66.5208 212.018 66.4553 212.034 66.3734C212.067 65.8492 212.671 65.8328 212.965 66.1277C212.867 64.6043 213.765 63.0154 215.186 62.2783C217.424 61.1153 219.792 62.5895 220.462 64.85C221.148 67.1105 220.119 69.715 217.702 70.2883C215.513 70.8125 212.459 69.371 212.1 66.9959C201.369 70.878 189.756 72.3686 178.405 71.1892C178.388 71.1892 178.372 71.1729 178.356 71.1729C177.588 73.4825 175.024 75.1369 172.704 75.4482C172.361 75.4973 172.263 75.0059 172.557 74.8748C174.517 73.9575 176.869 72.598 177.147 70.19C177.408 68.0114 175.187 66.1768 173.162 67.0122C172.492 67.2907 171.986 66.3734 172.541 65.9147C172.802 65.7018 173.08 65.5544 173.374 65.4397C173.26 65.3906 173.145 65.3087 173.08 65.2104C172.623 65.6199 172.051 65.9311 171.414 66.0622C170.973 66.1441 170.842 65.4889 171.218 65.3087C172.884 64.5715 173.848 61.9507 172.149 60.7058C171.561 60.2799 170.793 60.1325 170.075 60.2635C170.058 60.2635 170.042 60.2799 170.009 60.2799C169.895 60.5092 169.781 60.7222 169.666 60.9679C169.454 61.4429 168.85 61.3282 168.67 60.9679C168.539 61.0498 168.392 61.1317 168.245 61.1972C167.886 61.361 167.412 61.017 167.494 60.6075C167.625 60.0506 167.935 59.6738 168.327 59.379C168.621 58.216 168.866 56.9547 168.621 55.7916C168.311 54.2847 166.661 52.9251 165.24 53.8588C165.11 54.6286 164.946 55.4149 164.767 56.1684C162.937 63.7525 160.749 69.6822 164.652 77.1845C166.743 81.2141 170.467 83.966 171.904 88.4214C171.904 88.4378 171.92 88.4542 171.92 88.487C172.606 88.5361 173.407 88.6671 174.125 88.5197C174.256 88.2413 174.615 88.0447 174.958 88.1593C174.975 88.143 175.007 88.1266 175.024 88.1102C175.775 87.4714 175.677 86.3903 175.22 85.6204C174.338 84.097 172.525 83.9987 171.104 83.2944C170.761 83.1306 170.777 82.5081 171.218 82.5081C171.512 82.4917 171.806 82.5081 172.1 82.5409C173.848 82.2952 178.127 81.6236 177.474 79.1501C176.869 76.8569 174.142 77.0207 172.312 76.7094C171.675 76.5948 171.659 75.6119 172.329 75.5464C174.909 75.2843 178.519 76.218 178.797 79.3139C178.911 80.5752 178.323 81.4106 177.408 81.9839C177.425 81.9839 177.441 81.9839 177.457 82.0003C187.829 88.2085 199.343 94.0891 211.218 96.7591C217.702 98.2824 224.643 98.4626 230.327 94.6788ZM176.069 26.2741C176.183 26.2905 176.281 26.2741 176.396 26.2741C176.445 26.225 176.494 26.1759 176.543 26.1267C176.739 25.9301 177.033 26.0448 177.082 26.2578C177.98 26.1431 178.813 25.75 179.352 24.9146C180.185 23.5714 179.499 21.9006 178.143 21.2126C176.706 20.4918 175.187 21.2617 174.632 22.7196C174.027 24.2921 174.926 25.406 176.069 26.2741ZM181.426 43.6046C182.504 43.2115 183.598 42.6546 183.745 41.5243C183.892 40.4104 182.684 39.4112 181.655 39.3293C180.446 39.231 179.793 40.3449 179.891 41.4424C179.989 42.5727 180.61 43.0804 181.426 43.6046ZM192.876 55.5459C192.908 55.5787 192.925 55.6115 192.957 55.6606C193.464 57.0038 195.064 57.6754 196.42 57.2004C197.792 56.709 198.037 55.1692 197.416 53.9734C196.763 52.7121 195.26 52.0897 194.084 53.0561C193.333 53.6786 192.908 54.6123 192.876 55.5459ZM214.141 67.8149C214.909 68.6503 215.921 69.1744 217.228 68.9124C218.943 68.5848 219.564 66.7829 219.09 65.2595C218.649 63.7853 217.179 62.7861 215.709 63.5723C214.272 64.3422 213.374 66.226 214.141 67.7494C214.141 67.7657 214.141 67.7985 214.141 67.8149ZM197.694 130.323C201.989 125.949 203.149 124.147 209.503 122.214C211.544 121.592 216.068 121.215 217.636 120.216C225.607 115.138 219.678 104.753 215.954 99.6912C215.84 99.5274 215.823 99.3636 215.856 99.2161C202.12 98.004 188.008 89.8138 176.739 83.065C176.51 82.9176 176.445 82.7211 176.494 82.5245C175.726 82.8193 174.877 82.9995 174.044 83.0978C175.514 83.7203 176.739 84.8833 176.918 86.5377C177.049 87.7662 176.592 88.5525 175.857 89.0275C179.466 92.8278 183.778 95.6288 188.678 97.5126C189.658 96.0383 191.553 95.4486 193.251 96.0056C195.358 96.6936 196.191 99.0196 195.358 101.018C194.542 102.934 192.369 104.016 190.442 103.049C188.841 102.247 187.878 100.297 188.547 98.5937C188.449 98.479 188.384 98.3316 188.384 98.1842C183.059 96.5953 178.421 93.5813 174.632 89.5025C173.848 89.65 172.982 89.6172 172.198 89.4206C172.802 91.8122 172.786 94.1873 171.986 96.2185C178.65 102.509 185.624 108.373 192.81 114.057C192.827 113.991 192.859 113.909 192.908 113.844C194.117 112.157 196.796 112.157 198.347 113.336C200.078 114.663 200.062 117.104 198.706 118.692C197.416 120.216 195.195 120.609 193.627 119.282C192.271 118.136 191.863 116.153 192.696 114.614C185.134 109.503 178.045 103.721 171.332 97.529C170.532 98.823 169.323 99.9369 167.641 100.707C164.685 102.083 161.614 102.459 158.56 102.115C163.852 114.843 180.136 148.144 197.694 130.323ZM193.954 100.428C195.146 97.4798 191.079 96.2513 189.658 98.6264C189.56 98.7739 189.429 98.8558 189.299 98.8885C189.25 101.411 192.745 103.393 193.954 100.428ZM193.725 115.334C193.66 115.285 193.578 115.236 193.513 115.187C192.908 117.497 195.669 120.052 197.596 117.841C198.478 116.825 198.559 115.236 197.367 114.434C196.208 113.647 194.868 113.959 193.872 114.827C193.856 114.843 193.823 114.843 193.807 114.859C193.872 114.909 193.921 114.958 193.986 115.007C194.199 115.171 193.954 115.482 193.725 115.334ZM144.71 93.8597C147.16 95.6943 150.018 97.2013 152.925 98.2169C157.008 99.642 166.841 101.64 169.683 96.0056C169.356 95.5469 169.683 94.9245 170.124 94.8262C170.532 93.3683 170.581 91.5501 170.124 89.2241C169.095 84.1134 163.705 80.5097 161.549 75.8577C160.079 72.6799 159.752 69.584 160.21 66.1113C160.847 61.3118 163.264 56.8072 163.591 51.9914C164.505 38.2482 149.12 35.3161 139.842 42.1959C128.23 50.812 129.242 66.2424 133.064 78.7242C133.342 78.6587 133.636 78.7406 133.767 79.0846C136.021 85.0962 139.565 89.994 144.71 93.8597Z" fill="#C8CEBC"/>
</g>
<defs>
<clipPath id="clip0_1_5615">
<rect width="279" height="268" fill="white" transform="matrix(-1 0 0 1 239 0)"/>
</clipPath>
</defs>
</svg>
