<svg width="400" height="401" viewBox="0 0 400 401" fill="none" xmlns="http://www.w3.org/2000/svg">
<g clip-path="url(#clip0_1_2)">
<mask id="mask0_1_2" style="mask-type:luminance" maskUnits="userSpaceOnUse" x="0" y="0" width="400" height="401">
<path d="M400 0.5H0V400.5H400V0.5Z" fill="red"/>
</mask>
<g mask="url(#mask0_1_2)">
<path d="M249.028 320.068C249.028 320.068 216.361 265.949 194.421 258.879C172.481 251.809 162.451 260.364 149.498 260.741C136.545 261.118 118.815 263.382 113.533 272.562C108.251 281.742 106.365 303.623 92.029 323.24C77.693 342.857 55.686 363.355 78.196 327.767C100.706 292.179 108.051 296.845 115.042 281.239C122.033 265.633 119.317 239.74 100.706 236.973C82.095 234.206 51.971 287.652 68.542 295.574C85.113 303.496 108.754 275.203 108.377 244.519C108 213.835 105.696 211.589 105.696 211.589M105.696 211.589C105.696 211.589 89.59 210.73 89.334 185.956C89.307 183.313 90.147 180.704 91.769 178.618C93.65 176.199 95.761 172.066 96.078 166.568C96.708 155.646 93.595 167.325 83.014 152.533C72.433 137.741 90.787 130.724 68.654 129.968C46.521 129.212 66.603 153.828 72.973 161.278C79.343 168.728 82.475 178.985 91.328 172.939C100.181 166.893 80.976 155.674 81.408 149.952C81.84 144.23 85.275 135.486 89.158 139.031C93.041 142.576 104.184 152.875 116.509 136.667C128.834 120.459 106.717 123.836 111.613 111.342C116.509 98.848 137.106 103.408 138.457 91.083C139.808 78.758 121.405 85.511 115.158 68.797C108.911 52.083 91.859 66.433 82.067 73.862C72.275 81.291 66.535 99.186 95.574 90.238C124.613 81.29 107.899 61.031 89.496 64.745C71.093 68.459 30.742 70.654 32.768 57.485C34.794 44.316 93.379 36.887 115.834 36.718C138.289 36.549 162.263 59.511 155.847 73.524C149.431 87.537 128.158 61.199 129.678 57.654C131.198 54.109 145.886 59.848 156.86 76.056C167.834 92.264 161.756 87.537 174.25 101.55C186.744 115.563 174.756 121.304 175.938 130.083C177.12 138.862 183.179 126.538 179.896 122.148C176.613 117.758 174.081 107.628 153.99 106.446C133.899 105.264 135.478 118.766 156.522 112.355C177.566 105.944 165.133 122.148 164.626 130.252C164.119 138.356 163.614 129.238 156.354 128.563C149.094 127.888 151.964 130.759 158.886 133.291C165.808 135.823 161.587 132.277 165.47 130.589C169.353 128.901 174.418 124.849 171.886 127.719C169.354 130.589 163.444 136.499 163.782 123.161C164.12 109.823 176.445 126.706 176.276 134.135C176.107 141.564 188.769 149.668 190.12 155.239C191.471 160.81 186.236 150.512 173.574 159.291C160.912 168.07 177.964 172.798 180.834 170.772C183.704 168.746 173.068 169.927 181.51 166.382C189.952 162.837 186.406 170.603 184.211 173.642C182.016 176.681 188.938 188.33 181.341 194.408C173.744 200.486 180.327 189.681 175.769 189.512C171.211 189.343 169.691 194.404 174.081 191.958C178.471 189.512 186.743 190.019 186.912 186.811C187.081 183.603 187.588 174.317 176.107 184.616C164.626 194.915 170.029 191.876 174.587 195.421C179.145 198.966 183.367 207.07 182.354 210.447C181.341 213.824 174.454 204.802 175.263 197.954C176.072 191.106 185.73 199.98 186.912 204.707C188.094 209.434 181.847 208.928 182.016 216.188C182.185 223.448 186.912 233.239 178.808 238.473C170.704 243.707 156.265 236.447 140.861 236.954C125.457 237.461 114.99 250.798 143.185 246.071C171.38 241.344 164.964 241.006 165.302 237.292C165.64 233.578 147.405 222.434 127.483 217.538C107.561 212.642 105.696 211.589 105.696 211.589ZM105.696 211.589C105.696 211.589 168.237 298.123 202.297 267.778C236.357 237.433 234.996 256.22 249.028 231.833C263.06 207.446 280.056 218.531 259.611 226.66C239.166 234.789 226.85 241.686 198.768 231.34C170.686 220.994 192.264 210.224 191.926 195.62C191.588 181.016 182.218 202.626 191.166 205.074C200.114 207.522 201.634 204.652 209.569 204.99C217.504 205.328 209.569 197.646 206.783 197.477C203.997 197.308 204.335 204.145 206.277 204.061C208.219 203.977 199.608 191.568 196.822 188.107C194.036 184.646 191.964 187.279 191.964 182.959C191.964 178.639 191.141 174.183 189.633 180.56C188.125 186.937 189.359 190.433 194.227 194.41C199.095 198.387 207.254 204.558 199.712 197.153C192.17 189.748 198.688 181.129 201.081 176.743M201.081 176.743C203.474 172.357 203.607 170.895 194.302 166.641C184.997 162.387 190.979 158.001 190.979 158.001M201.081 176.743C197.738 180.302 194.065 176.063 192.196 174.638C191.949 174.45 192.076 174.06 192.386 174.045C195.811 173.874 197.523 173.176 193.619 170.116C184.429 162.913 190.979 158.001 190.979 158.001M201.081 176.743C205.202 172.357 181.807 166.109 190.979 158.001M190.979 158.001C200.151 149.893 207.461 149.228 211.715 141.784C215.969 134.34 213.31 118.256 218.627 109.616C223.944 100.976 231.919 87.02 254.383 79.975C276.847 72.93 276.092 60.234 253.453 64.555C234.682 68.138 207.595 96.989 217.298 98.85C227.001 100.711 236.571 96.058 251.193 85.69C265.815 75.322 251.194 96.058 245.212 107.888C239.23 119.718 242.952 143.113 264.619 144.575C286.286 146.037 295.323 117.858 280.436 116.263C265.549 114.668 265.017 127.96 284.025 139.657C303.033 151.354 286.949 156.273 273.657 154.013C260.365 151.753 247.153 112.69 272.019 94.04C296.885 75.39 356.858 101.72 333.454 137.557C310.05 173.394 275.31 196.797 322.849 227.88C370.388 258.963 373.679 202.648 360.88 193.506C348.081 184.364 355.76 219.104 336.379 238.485C318.527 256.337 272.442 232.306 259.279 194.681" stroke="black" stroke-linecap="round" stroke-linejoin="round"/>
</g>
</g>
<defs>
<clipPath id="clip0_1_2">
<rect width="400" height="400" fill="red" transform="translate(0 0.5)"/>
</clipPath>
</defs>
</svg>
