<svg width="50" height="50" viewBox="0 0 50 50" fill="none" xmlns="http://www.w3.org/2000/svg">
<g clip-path="url(#clip0_537_8189)">
<path d="M38.2812 37.5C39.5734 37.5 40.625 36.4484 40.625 35.1562C40.625 33.8641 39.5734 32.8125 38.2812 32.8125C36.9891 32.8125 35.9375 33.8641 35.9375 35.1562C35.9375 36.4484 36.9891 37.5 38.2812 37.5ZM38.2812 34.375C38.7117 34.375 39.0625 34.725 39.0625 35.1562C39.0625 35.5875 38.7117 35.9375 38.2812 35.9375C37.8508 35.9375 37.5 35.5875 37.5 35.1562C37.5 34.725 37.8508 34.375 38.2812 34.375Z" fill="#77795F"/>
<path d="M46.2188 31.8578C45.982 31.2906 46.1078 30.6461 46.5383 30.2148L47.675 29.0773L44.3594 25.7617L43.2211 26.8992C42.7906 27.3305 42.1453 27.4555 41.5484 27.2055C40.9875 26.9742 40.625 26.432 40.625 25.8242V24.2188H39.0227C38.9516 22.9586 38.718 21.7406 38.3305 20.5867L47.3711 11.5461C48.5625 10.3547 49.2188 8.77109 49.2188 7.08672C49.2188 3.61016 46.3898 0.78125 42.9133 0.78125C41.2289 0.78125 39.6453 1.4375 38.4547 2.62813L29.4234 11.6602C28.2555 11.268 27.0172 11.0398 25.7383 10.9719C24.6602 9.08828 22.6344 7.8125 20.3125 7.8125C19.718 7.8125 19.1445 7.90156 18.5984 8.05703C17.25 5.52187 14.6305 3.90625 11.7188 3.90625C7.41094 3.90625 3.90625 7.41094 3.90625 11.7188C3.90625 12.3172 3.97969 12.9062 4.11328 13.4828C2.1875 14.0656 0.78125 15.8555 0.78125 17.9688C0.78125 20.5539 2.88359 22.6562 5.46875 22.6562H11.1359C11.0062 23.4289 10.9375 24.2133 10.9375 25C10.9375 26.7195 11.2555 28.1187 11.7688 29.3141L4.79922 36.2844L0.921094 46.3672C0.828125 46.6078 0.78125 46.8609 0.78125 47.1195C0.78125 48.2773 1.72344 49.2188 2.88047 49.2188C3.13906 49.2188 3.39219 49.1711 3.63359 49.0789L13.7164 45.2008L18.8125 40.1039C18.7742 40.2719 18.75 40.4453 18.75 40.625C18.75 41.2273 18.9852 41.7719 19.3594 42.1875C18.9844 42.6031 18.75 43.1477 18.75 43.75C18.75 44.8359 19.4961 45.7437 20.5 46.0078C21.1656 47.9141 22.9484 49.2188 25 49.2188C27.0516 49.2188 28.8344 47.9141 29.5 46.0078C30.5039 45.7437 31.25 44.8359 31.25 43.75C31.25 43.6914 31.2367 43.6367 31.2328 43.5797L32.2031 44.55L33.3414 43.4125C33.7719 42.9813 34.4148 42.8555 35.0133 43.1047C35.5742 43.3383 35.9375 43.8805 35.9375 44.4883V46.0938H40.625V44.4883C40.625 43.8805 40.9883 43.3375 41.5797 43.093C42.1469 42.857 42.7914 42.9813 43.2219 43.4125L44.3594 44.55L47.675 41.2344L46.5383 40.0969C46.1078 39.6656 45.982 39.0211 46.2313 38.4242C46.4633 37.8633 47.0055 37.5 47.6133 37.5H49.2188V32.8125H47.6133C47.0055 32.8125 46.4633 32.4492 46.2188 31.8578ZM34.5125 34.1609C35.3648 33.3289 36.2188 32.4789 36.9555 31.4961C37.3805 31.3414 37.8227 31.25 38.2812 31.25C40.4352 31.25 42.1875 33.0023 42.1875 35.1562C42.1875 37.3102 40.4352 39.0625 38.2812 39.0625C36.1273 39.0625 34.375 37.3102 34.375 35.1562C34.375 34.818 34.4273 34.4852 34.5125 34.1609ZM35.4508 15.6547L39.0625 12.0422L41.8641 14.8438L37.6914 19.0164C37.1063 17.7883 36.35 16.6586 35.4508 15.6547ZM36.2609 7.03125L37.5 5.79219L44.2078 12.5L42.9688 13.7391L36.2609 7.03125ZM42.9133 2.34375C45.5281 2.34375 47.6562 4.47188 47.6562 7.08672C47.6562 8.35313 47.1633 9.54453 46.2672 10.4406L45.3125 11.3953L38.6047 4.6875L39.5594 3.73281C40.4555 2.8375 41.6461 2.34375 42.9133 2.34375ZM35.1562 8.13594L37.9578 10.9375L34.3477 14.5477C33.3445 13.6477 32.2156 12.8906 30.9875 12.3047L35.1562 8.13594ZM37.5 25C37.5 29.0648 35.4531 31.0617 33.2859 33.175C31.7937 34.6305 30.2609 36.1352 29.3687 38.3281C29.2195 38.2977 29.0648 38.2812 28.9062 38.2812H25.7812V34.375C25.7812 33.0828 24.7297 32.0312 23.4375 32.0312H21.875C21.4445 32.0312 21.0938 31.6812 21.0938 31.25C21.0938 30.8188 21.4445 30.4688 21.875 30.4688H29.6875C30.9797 30.4688 32.0312 29.4172 32.0312 28.125C32.0312 26.8328 30.9797 25.7812 29.6875 25.7812H23.4375C23.007 25.7812 22.6562 25.4312 22.6562 25V22.6562H26.5625C28.7164 22.6562 30.4688 20.9039 30.4688 18.75C30.4688 16.5961 28.7164 14.8438 26.5625 14.8438C26.5406 14.8438 26.5203 14.85 26.4984 14.85C26.532 14.5891 26.5625 14.3281 26.5625 14.0625C26.5625 13.5516 26.4937 13.057 26.3781 12.5813C32.6063 13.275 37.5 18.6203 37.5 25ZM20.3125 40.625C20.3125 40.1937 20.6633 39.8438 21.0938 39.8438H28.9062C29.3367 39.8438 29.6875 40.1937 29.6875 40.625C29.6875 41.0563 29.3367 41.4062 28.9062 41.4062H21.0938C20.6633 41.4062 20.3125 41.0563 20.3125 40.625ZM10.4797 40.625L16.2227 34.882C17.1836 35.8352 18.0758 36.7992 18.7336 37.9734L13.2812 43.4266L10.4797 40.625ZM2.34375 17.9688C2.34375 16.2453 3.74531 14.8438 5.46875 14.8438C7.19219 14.8438 8.59375 16.2453 8.59375 17.9688H10.1562C10.1562 15.4516 8.16016 13.3969 5.66875 13.2914C5.53594 12.7805 5.46875 12.2531 5.46875 11.7188C5.46875 8.27266 8.27266 5.46875 11.7188 5.46875C14.0039 5.46875 16.0664 6.71094 17.1633 8.67266C15.4977 9.65 14.3211 11.3711 14.1016 13.3797C12.7375 13.7156 11.7188 14.9398 11.7188 16.4062H13.2812C13.2812 15.5445 13.982 14.8438 14.8438 14.8438C15.7055 14.8438 16.4062 15.5445 16.4062 16.4062H17.9688C17.9688 14.9727 16.9937 13.775 15.6758 13.4078C15.9961 11.1328 17.95 9.375 20.3125 9.375C22.8977 9.375 25 11.4773 25 14.0625C25 14.4734 24.9328 14.8758 24.8281 15.268C23.5469 15.9094 22.6562 17.2219 22.6562 18.75H24.2188C24.2188 17.4578 25.2703 16.4062 26.5625 16.4062C27.8547 16.4062 28.9062 17.4578 28.9062 18.75C28.9062 20.0422 27.8547 21.0938 26.5625 21.0938H5.46875C3.74531 21.0938 2.34375 19.6922 2.34375 17.9688ZM21.0938 22.6562V25C21.0938 26.2922 22.1453 27.3438 23.4375 27.3438H29.6875C30.118 27.3438 30.4688 27.6938 30.4688 28.125C30.4688 28.5562 30.118 28.9062 29.6875 28.9062H21.875C20.5828 28.9062 19.5312 29.9578 19.5312 31.25C19.5312 32.5422 20.5828 33.5938 21.875 33.5938H23.4375C23.868 33.5938 24.2188 33.9437 24.2188 34.375V38.2812H21.0938C20.9352 38.2812 20.7805 38.2977 20.6313 38.3281C19.7391 36.1352 18.2062 34.6305 16.7141 33.175C14.5469 31.0617 12.5 29.0648 12.5 25C12.5 24.2102 12.5945 23.4273 12.7406 22.6562H21.0938ZM15.107 33.7883L9.375 39.5203L6.57344 36.7188L12.5344 30.7578C13.268 31.9094 14.1773 32.8703 15.107 33.7883ZM5.76641 38.1211L11.8789 44.2336L6.70391 46.2242L3.77578 43.2961L5.76641 38.1211ZM3.07344 47.6203C2.73516 47.7516 2.34375 47.482 2.34375 47.1195C2.34375 47.0531 2.35625 46.9883 2.37891 46.9273L3.16172 44.8914L5.10781 46.8375L3.07344 47.6203ZM25 47.6562C23.8461 47.6562 22.8172 47.0422 22.2469 46.0938H27.7531C27.1828 47.0422 26.1539 47.6562 25 47.6562ZM28.9062 44.5312H21.0938C20.6633 44.5312 20.3125 44.1813 20.3125 43.75C20.3125 43.3187 20.6633 42.9688 21.0938 42.9688H28.9062C29.3367 42.9688 29.6875 43.3187 29.6875 43.75C29.6875 44.1813 29.3367 44.5312 28.9062 44.5312ZM47.6562 35.9375H47.6133C46.3703 35.9375 45.2609 36.6797 44.7766 37.8531C44.2953 39.007 44.5531 40.3211 45.4328 41.2016L45.4656 41.2344L44.3594 42.3406L44.3266 42.3078C43.4453 41.4266 42.1297 41.168 40.9523 41.6617C39.8047 42.1367 39.0625 43.2453 39.0625 44.4883V44.5312H37.5V44.4883C37.5 43.2453 36.7578 42.1359 35.5844 41.6508C34.4289 41.1688 33.1148 41.4273 32.2352 42.3078L32.2023 42.3406L31.1437 41.282C31.2062 41.0719 31.25 40.8547 31.25 40.625C31.25 40.0703 31.0484 39.5672 30.725 39.1648C31.2109 37.8531 31.9727 36.8039 32.8594 35.8352C33.1953 38.5305 35.4961 40.625 38.2812 40.625C41.2969 40.625 43.75 38.1711 43.75 35.1562C43.75 32.1414 41.2969 29.6875 38.2812 29.6875C38.2047 29.6875 38.1305 29.6953 38.0547 29.6984C38.5836 28.6008 38.9469 27.3281 39.0383 25.7812H39.0625V25.8242C39.0625 27.0672 39.8047 28.1773 40.9773 28.6609C42.1305 29.1438 43.4461 28.8859 44.3266 28.0047L44.3594 27.9719L45.4656 29.0781L45.4328 29.1109C44.5531 29.9914 44.2953 31.3063 44.7867 32.4844C45.2609 33.6328 46.3703 34.375 47.6133 34.375H47.6562V35.9375Z" fill="#77795F"/>
</g>
<defs>
<clipPath id="clip0_537_8189">
<rect width="50" height="50" fill="white"/>
</clipPath>
</defs>
</svg>
