<svg width="50" height="50" viewBox="0 0 50 50" fill="none" xmlns="http://www.w3.org/2000/svg">
<g clip-path="url(#clip0_537_8181)">
<path d="M47.5 0H17.5C16.1193 0 15 1.11927 15 2.5V20.8333H4.16667C2.78594 20.8333 1.66667 21.9526 1.66667 23.3333V40H0.833333C0.373125 40 0 40.3731 0 40.8333C0.00270833 43.1333 1.86667 44.9973 4.16667 45H30.8333C33.1322 45.0023 34.9977 43.1405 35 40.8417C35 40.8389 35 40.8361 35 40.8333C35 40.3731 34.6269 40 34.1667 40H33.3333V30.8333H42.5C42.9602 30.8333 43.3333 30.4602 43.3333 30C43.3333 29.5398 42.9602 29.1667 42.5 29.1667H38.1283L36.9383 25H47.5C48.8807 25 50 23.8807 50 22.5V2.5C50 1.11927 48.8807 0 47.5 0ZM32.6067 42.5983C32.1359 43.0681 31.4983 43.3324 30.8333 43.3333H4.16667C3.1075 43.3321 2.16365 42.6648 1.80917 41.6667H14.1667C14.1667 42.1269 14.5398 42.5 15 42.5H20C20.4602 42.5 20.8333 42.1269 20.8333 41.6667H33.1908C33.0667 42.0163 32.8672 42.3343 32.6067 42.5983ZM20 40C19.5398 40 19.1667 40.3731 19.1667 40.8333H15.8333C15.8333 40.3731 15.4602 40 15 40H3.33333V23.3333C3.33333 22.8731 3.70646 22.5 4.16667 22.5H30.8333C31.2935 22.5 31.6667 22.8731 31.6667 23.3333V40H20ZM36.395 29.1667H33.3333V25H35.205L36.395 29.1667ZM48.3333 22.5C48.3333 22.9602 47.9602 23.3333 47.5 23.3333H33.3333C33.3333 21.9526 32.2141 20.8333 30.8333 20.8333H16.6667V2.5C16.6667 2.03979 17.0398 1.66667 17.5 1.66667H47.5C47.9602 1.66667 48.3333 2.03979 48.3333 2.5V22.5Z" fill="#77795F"/>
<path d="M45.8337 31.667H39.167C37.7863 31.667 36.667 32.7863 36.667 34.167V47.5003C36.667 48.8811 37.7863 50.0003 39.167 50.0003H45.8337C47.2144 50.0003 48.3337 48.8811 48.3337 47.5003V34.167C48.3337 32.7863 47.2144 31.667 45.8337 31.667ZM46.667 47.5003C46.667 47.9605 46.2939 48.3337 45.8337 48.3337H39.167C38.7068 48.3337 38.3337 47.9605 38.3337 47.5003V34.167C38.3337 33.7068 38.7068 33.3337 39.167 33.3337H45.8337C46.2939 33.3337 46.667 33.7068 46.667 34.167V47.5003Z" fill="#77795F"/>
</g>
<defs>
<clipPath id="clip0_537_8181">
<rect width="50" height="50" fill="white"/>
</clipPath>
</defs>
</svg>
