<svg width="50" height="50" viewBox="0 0 50 50" fill="none" xmlns="http://www.w3.org/2000/svg">
<path d="M24.9997 38.2864C24.8354 38.2864 24.671 38.2441 24.5236 38.1593C19.5338 35.2944 19.0636 32.0713 19.093 30.8187C19.1286 29.3063 19.8755 28.0308 21.0912 27.4069C22.2552 26.8093 23.6531 26.8948 24.9997 27.6277C26.3464 26.8948 27.7442 26.8092 28.9083 27.4069C30.124 28.0308 30.8709 29.3063 30.9066 30.8187C30.936 32.0714 30.4658 35.2944 25.4759 38.1593C25.3285 38.2441 25.1641 38.2864 24.9997 38.2864ZM22.7504 28.927C22.4666 28.927 22.2015 28.9869 21.9646 29.1084C21.3826 29.4072 21.0239 30.0633 21.0051 30.8636C20.9631 32.652 22.4465 34.6275 24.9997 36.2162C27.5531 34.6276 29.0365 32.652 28.9944 30.8636C28.9756 30.0633 28.6169 29.4072 28.0349 29.1084C27.3577 28.7608 26.4478 28.9173 25.5388 29.5376C25.2136 29.7595 24.7858 29.7595 24.4607 29.5376C23.8696 29.1342 23.278 28.927 22.7504 28.927Z" fill="#77795F"/>
<path d="M44.1252 7.78652C44.6533 7.78652 45.0814 7.3584 45.0814 6.83027C45.0814 6.30215 44.6533 5.87402 44.1252 5.87402C43.5971 5.87402 43.1689 6.30215 43.1689 6.83027C43.1689 7.3584 43.5971 7.78652 44.1252 7.78652Z" fill="#77795F"/>
<path d="M43.1691 26.9125C43.6973 26.9125 44.1254 26.4844 44.1254 25.9562C44.1254 25.4281 43.6973 25 43.1691 25C42.641 25 42.2129 25.4281 42.2129 25.9562C42.2129 26.4844 42.641 26.9125 43.1691 26.9125Z" fill="#77795F"/>
<path d="M4.91719 17.349C5.44531 17.349 5.87344 16.9209 5.87344 16.3928C5.87344 15.8647 5.44531 15.4365 4.91719 15.4365C4.38907 15.4365 3.96094 15.8647 3.96094 16.3928C3.96094 16.9209 4.38907 17.349 4.91719 17.349Z" fill="#77795F"/>
<path d="M6.83027 37.432C7.3584 37.432 7.78652 37.0039 7.78652 36.4758C7.78652 35.9477 7.3584 35.5195 6.83027 35.5195C6.30215 35.5195 5.87402 35.9477 5.87402 36.4758C5.87402 37.0039 6.30215 37.432 6.83027 37.432Z" fill="#77795F"/>
<path d="M35.5189 47.9508H14.4807C11.8441 47.9508 9.69922 45.8059 9.69922 43.1693V6.83027C9.69922 4.19375 11.8441 2.04883 14.4807 2.04883H35.519C38.1556 2.04883 40.3005 4.19375 40.3005 6.83027V43.1692C40.3004 45.8059 38.1555 47.9508 35.5189 47.9508ZM14.4807 3.96143C12.8987 3.96143 11.6118 5.24844 11.6118 6.83027V43.1692C11.6118 44.7512 12.8988 46.0381 14.4807 46.0381H35.519C37.101 46.0381 38.3879 44.7511 38.3879 43.1692V6.83027C38.3879 5.24834 37.1009 3.96143 35.519 3.96143H14.4807Z" fill="#77795F"/>
<path d="M33.1282 12.568H16.8714C15.0259 12.568 13.5244 11.0665 13.5244 9.221C13.5244 7.37549 15.0259 5.87402 16.8714 5.87402H33.1283C34.9738 5.87402 36.4753 7.37549 36.4753 9.221C36.4753 11.0665 34.9738 12.568 33.1282 12.568ZM16.8714 7.78652C16.0805 7.78652 15.4369 8.42998 15.4369 9.221C15.4369 10.012 16.0804 10.6555 16.8714 10.6555H33.1283C33.9193 10.6555 34.5628 10.012 34.5628 9.221C34.5628 8.42998 33.9193 7.78652 33.1283 7.78652H16.8714Z" fill="#77795F"/>
<path d="M24.9996 43.1692C19.1993 43.1692 14.4805 38.4504 14.4805 32.6501C14.4805 26.8498 19.1993 22.1309 24.9996 22.1309C30.7999 22.1309 35.5188 26.8497 35.5188 32.65C35.5188 38.4503 30.7999 43.1692 24.9996 43.1692ZM24.9996 24.0435C20.2539 24.0435 16.393 27.9044 16.393 32.6501C16.393 37.3958 20.2539 41.2567 24.9996 41.2567C29.7453 41.2567 33.6062 37.3958 33.6062 32.6501C33.6062 27.9044 29.7453 24.0435 24.9996 24.0435Z" fill="#77795F"/>
<path d="M34.5625 16.393H15.4367C14.9086 16.393 14.4805 15.9648 14.4805 15.4367C14.4805 14.9086 14.9086 14.4805 15.4367 14.4805H34.5625C35.0906 14.4805 35.5188 14.9086 35.5188 15.4367C35.5188 15.9648 35.0906 16.393 34.5625 16.393Z" fill="#77795F"/>
<path d="M34.5625 20.2182H15.4367C14.9086 20.2182 14.4805 19.79 14.4805 19.2619C14.4805 18.7338 14.9086 18.3057 15.4367 18.3057H34.5625C35.0906 18.3057 35.5188 18.7338 35.5188 19.2619C35.5188 19.79 35.0906 20.2182 34.5625 20.2182Z" fill="#77795F"/>
<path d="M4.91768 11.6117C3.33574 11.6117 2.04883 10.3247 2.04883 8.74287C2.04883 7.16104 3.33574 5.87402 4.91768 5.87402C6.49961 5.87402 7.78652 7.16104 7.78652 8.74287C7.78652 10.3247 6.49951 11.6117 4.91768 11.6117ZM4.91768 7.78662C4.39033 7.78662 3.96143 8.21562 3.96143 8.74287C3.96143 9.27012 4.39043 9.69912 4.91768 9.69912C5.44492 9.69912 5.87393 9.27012 5.87393 8.74287C5.87393 8.21562 5.44492 7.78662 4.91768 7.78662Z" fill="#77795F"/>
<path d="M45.0817 45.0814C43.4998 45.0814 42.2129 43.7944 42.2129 42.2126C42.2129 40.6307 43.4999 39.3438 45.0817 39.3438C46.6636 39.3438 47.9506 40.6308 47.9506 42.2126C47.9506 43.7944 46.6636 45.0814 45.0817 45.0814ZM45.0817 41.2563C44.5545 41.2563 44.1255 41.6853 44.1255 42.2125C44.1255 42.7397 44.5545 43.1687 45.0817 43.1687C45.609 43.1687 46.038 42.7397 46.038 42.2125C46.038 41.6853 45.609 41.2563 45.0817 41.2563Z" fill="#77795F"/>
</svg>
