<svg width="50" height="50" viewBox="0 0 50 50" fill="none" xmlns="http://www.w3.org/2000/svg">
<path d="M43.0704 20.6683H42.9466V17.6361C42.9466 7.89598 35.0508 0 25.3105 0C15.5702 0 7.67438 7.89598 7.67438 17.6361V20.6683H6.93185C4.20905 20.6683 2.10512 23.0816 2.10512 25.8664V33.6015C2.03655 36.3005 4.16902 38.5441 6.86801 38.6126C6.88933 38.6132 6.91053 38.6136 6.93185 38.6138H11.511C12.1596 38.5834 12.6608 38.0327 12.6302 37.3841C12.6291 37.3608 12.6274 37.3375 12.6249 37.3142V22.1534C12.6249 21.4108 12.1917 20.6682 11.511 20.6682H10.1496V17.636C10.1496 9.26294 16.9374 2.47513 25.3105 2.47513C33.6836 2.47513 40.4714 9.26294 40.4714 17.636V20.6682H39.11C38.4293 20.6682 37.9961 21.4107 37.9961 22.1534V37.3142C37.9271 37.9599 38.3945 38.5393 39.0401 38.6084C39.0633 38.6109 39.0867 38.6126 39.11 38.6137H40.5332L40.4095 38.7993C38.5526 41.2671 35.6389 42.7125 32.5505 42.6978C31.8745 39.3826 28.6388 37.2432 25.3237 37.9194C22.4887 38.4975 20.4447 40.9803 20.4218 43.8736C20.4557 47.267 23.2164 50 26.61 49.9998C28.2899 49.9725 29.8911 49.2832 31.0654 48.0814C31.8576 47.2701 32.3768 46.2317 32.5505 45.1111C36.418 45.1258 40.0653 43.3136 42.3896 40.2225L43.5654 38.4898C46.2263 38.3042 47.897 36.6334 47.897 34.22V26.4849C47.8972 23.8243 45.917 20.6683 43.0704 20.6683ZM10.1496 36.1386H6.93185C5.59935 36.1061 4.54543 34.9997 4.57789 33.6672C4.57848 33.6453 4.57931 33.6234 4.58038 33.6014V25.8662C4.58038 24.443 5.57045 23.1434 6.93185 23.1434H10.1496V36.1386ZM29.2709 46.3489C28.5851 47.0925 27.6216 47.5183 26.6101 47.5247C24.5968 47.4928 22.9629 45.8862 22.8972 43.8737C22.8964 41.8573 24.5303 40.2221 26.5467 40.2212C28.5631 40.2204 30.1984 41.8543 30.1992 43.8707C30.1992 43.8717 30.1992 43.8727 30.1992 43.8737C30.2507 44.7925 29.9139 45.6906 29.2709 46.3489ZM45.4219 34.2202C45.4219 35.891 43.813 36.1386 43.0704 36.1386H40.4714V23.1436H43.0704C44.4318 23.1436 45.4219 25.0619 45.4219 26.4851V34.2202Z" fill="#77795F"/>
</svg>
