<svg width="50" height="50" viewBox="0 0 50 50" fill="none" xmlns="http://www.w3.org/2000/svg">
<g clip-path="url(#clip0_537_8111)">
<path d="M31.9433 13.1762C32.3477 13.1762 32.6754 12.8483 32.6754 12.444C32.6754 12.0396 32.3476 11.7119 31.9433 11.7119H18.0563C17.652 11.7119 17.3242 12.0397 17.3242 12.444C17.3242 12.8484 17.6521 13.1762 18.0563 13.1762H31.9433Z" fill="#77795F"/>
<path d="M13.334 19.5512V21.4561C13.334 22.3539 14.0645 23.0844 14.9623 23.0844H35.0378C35.9356 23.0844 36.6661 22.3539 36.6661 21.4561V19.5512C36.6661 18.6533 35.9356 17.9229 35.0378 17.9229H14.9623C14.0645 17.9229 13.334 18.6533 13.334 19.5512ZM35.2017 19.5512V21.4561C35.2017 21.5465 35.1281 21.62 35.0377 21.62H14.9623C14.8719 21.62 14.7983 21.5465 14.7983 21.4561V19.5512C14.7983 19.4607 14.8719 19.3872 14.9623 19.3872H35.0378C35.1281 19.3872 35.2017 19.4607 35.2017 19.5512Z" fill="#77795F"/>
<path d="M13.334 29.7431C13.334 30.6409 14.0645 31.3714 14.9623 31.3714H35.0378C35.9356 31.3714 36.6661 30.6409 36.6661 29.7431V27.8383C36.6661 26.9404 35.9356 26.21 35.0378 26.21H14.9623C14.0645 26.21 13.334 26.9404 13.334 27.8383V29.7431ZM14.7983 27.8383C14.7983 27.7478 14.8719 27.6743 14.9623 27.6743H35.0378C35.1282 27.6743 35.2018 27.7478 35.2018 27.8383V29.7431C35.2018 29.8335 35.1282 29.907 35.0378 29.907H14.9623C14.8719 29.907 14.7983 29.8335 14.7983 29.7431V27.8383Z" fill="#77795F"/>
<path d="M26.7032 35.0234H23.2972C21.9126 35.0234 20.7861 36.1499 20.7861 37.5345V37.634C20.7861 39.0186 21.9126 40.145 23.2972 40.145H26.7032C28.0878 40.145 29.2143 39.0186 29.2143 37.634V37.5345C29.2143 36.1499 28.0878 35.0234 26.7032 35.0234ZM27.7499 37.6341C27.7499 38.2112 27.2804 38.6808 26.7032 38.6808H23.2972C22.72 38.6808 22.2505 38.2112 22.2505 37.6341V37.5346C22.2505 36.9574 22.72 36.4879 23.2972 36.4879H26.7032C27.2804 36.4879 27.7499 36.9574 27.7499 37.5346V37.6341Z" fill="#77795F"/>
<path d="M28.4817 44.869H9.64424C8.89287 44.869 8.28164 44.2577 8.28164 43.5064V13.9089C8.28164 13.5045 7.95381 13.1768 7.54951 13.1768C7.14512 13.1768 6.81738 13.5046 6.81738 13.9089V43.5064C6.81738 45.0652 8.08555 46.3334 9.64434 46.3334H28.4818C28.8862 46.3334 29.214 46.0056 29.214 45.6013C29.214 45.197 28.8861 44.869 28.4817 44.869Z" fill="#77795F"/>
<path d="M41.1621 0.134549C40.2129 -0.148361 40.4971 0.119217 9.64434 0.017362C8.08565 0.017362 6.81738 1.28553 6.81738 2.84432V10.9802C6.81738 11.3845 7.14522 11.7123 7.54951 11.7123C7.95391 11.7123 8.28164 11.3845 8.28164 10.9802V8.88269H41.7183V43.5063C41.7183 44.0554 41.3915 44.5483 40.8857 44.7622C40.1532 45.0719 40.3766 46.1688 41.1713 46.1688C41.7906 46.1688 43.1826 45.1479 43.1826 43.5062V2.84432C43.1826 1.56375 42.3273 0.481815 41.1621 0.134549ZM41.7183 7.41834H8.28174V2.84432C8.28174 2.16111 8.78857 1.58846 9.454 1.4949C9.6333 1.46971 7.97285 1.4864 40.3557 1.48162C41.1084 1.48162 41.7183 2.09441 41.7183 2.84422V7.41834Z" fill="#77795F"/>
<path d="M12.1971 2.20996C10.9619 2.20996 9.95703 3.21475 9.95703 4.4499C9.95703 5.68506 10.9619 6.68994 12.1971 6.68994C13.4322 6.68994 14.437 5.68506 14.437 4.4499C14.437 3.21475 13.4321 2.20996 12.1971 2.20996ZM12.1971 5.22559C11.7694 5.22559 11.4214 4.87764 11.4214 4.4499C11.4214 4.02217 11.7693 3.67432 12.1971 3.67432C12.6247 3.67432 12.9727 4.02227 12.9727 4.4499C12.9727 4.87754 12.6247 5.22559 12.1971 5.22559Z" fill="#77795F"/>
<path d="M18.0563 2.20996C16.8212 2.20996 15.8164 3.21475 15.8164 4.4499C15.8164 5.68506 16.8212 6.68994 18.0563 6.68994C19.2915 6.68994 20.2964 5.68506 20.2964 4.4499C20.2964 3.21475 19.2915 2.20996 18.0563 2.20996ZM18.0563 5.22559C17.6287 5.22559 17.2808 4.87764 17.2808 4.4499C17.2808 4.02217 17.6287 3.67432 18.0563 3.67432C18.484 3.67432 18.832 4.02227 18.832 4.4499C18.832 4.87754 18.4841 5.22559 18.0563 5.22559Z" fill="#77795F"/>
<path d="M23.9168 2.20996C22.6816 2.20996 21.6768 3.21475 21.6768 4.4499C21.6768 5.68506 22.6816 6.68994 23.9168 6.68994C25.152 6.68994 26.1567 5.68506 26.1567 4.4499C26.1567 3.21475 25.152 2.20996 23.9168 2.20996ZM23.9168 5.22559C23.4892 5.22559 23.1411 4.87764 23.1411 4.4499C23.1411 4.02217 23.4891 3.67432 23.9168 3.67432C24.3444 3.67432 24.6924 4.02227 24.6924 4.4499C24.6924 4.87754 24.3445 5.22559 23.9168 5.22559Z" fill="#77795F"/>
<path d="M40.8148 42.4876C40.8148 42.0364 40.5814 41.6322 40.1906 41.4066L32.5942 37.0208C32.2034 36.7951 31.7367 36.7951 31.3459 37.0208C30.955 37.2465 30.7217 37.6506 30.7217 38.102V46.8735C30.7217 47.3247 30.955 47.7289 31.3459 47.9546C31.7368 48.1803 32.2034 48.1803 32.5942 47.9546L34.4384 46.8899L35.8562 49.3454C36.0986 49.7653 36.5399 50.0002 36.9931 50.0002C37.2152 50.0002 37.4402 49.9438 37.646 49.8249L39.2846 48.8788C39.9103 48.5176 40.1254 47.7147 39.7642 47.089L38.3464 44.6334L40.1905 43.5687C40.5815 43.3432 40.8148 42.939 40.8148 42.4876ZM37.5017 43.4305C37.193 43.6087 36.9723 43.8964 36.88 44.2406C36.7877 44.5849 36.8351 44.9445 37.0133 45.2532L38.419 47.6879L37.0473 48.4799L35.6415 46.045C35.3946 45.6175 34.9453 45.3782 34.4839 45.3782C34.2577 45.3782 34.0285 45.4358 33.819 45.5568L32.1861 46.4994V38.476L39.1347 42.4877L37.5017 43.4305Z" fill="#77795F"/>
</g>
<defs>
<clipPath id="clip0_537_8111">
<rect width="50" height="50" fill="white"/>
</clipPath>
</defs>
</svg>
