<svg width="80" height="79" viewBox="0 0 80 79" fill="none" xmlns="http://www.w3.org/2000/svg">
<g clip-path="url(#clip0_328_1387)">
<path d="M32.0991 4.85666C30.6705 3.6641 29.2711 3.25688 27.551 2.7624C25.6851 2.23884 24.0525 2.09341 16.1224 2.12249C16.1224 2.12249 14.4023 2.12249 13.5277 2.12249C13.1195 2.12249 12.828 2.12249 12.07 2.12249C10.9913 2.12249 10.5539 2.15158 9.85423 2.12249C9.85423 2.12249 4.19825 1.91888 2.68221 2.15158C2.62391 2.15158 2.5656 2.18067 2.50729 2.23884C2.50729 2.29701 2.47813 2.3261 2.47813 2.38427C2.39067 2.38427 2.33236 2.41336 2.2449 2.41336C2.15743 2.44245 2.12828 2.52971 2.12828 2.58788C1.89504 4.1004 2.09912 9.74326 2.09912 9.74326C2.12828 10.4413 2.09912 10.8486 2.09912 11.9539C2.09912 12.7392 2.09912 13.0301 2.09912 13.4082C2.09912 14.3099 2.09912 15.9969 2.09912 15.9969C2.09912 23.9086 2.21574 25.5665 2.76968 27.4281C3.2653 29.1442 3.67347 30.5404 4.8688 31.9656C8.0758 35.8051 13.4402 35.6306 14.1691 35.6015C15.5685 35.5433 19.0087 35.3688 21.5452 32.6056C21.8659 32.2565 24.8105 28.9406 23.7609 24.5776C23.7026 24.4321 23.586 23.9086 23.2945 23.2105C24.0233 23.5014 24.5481 23.6468 24.723 23.6759C29.0962 24.723 32.4198 21.7852 32.7697 21.4653C35.5685 18.9347 35.7143 15.5025 35.7726 14.1063C35.8017 13.3791 35.9767 8.05622 32.0991 4.85666ZM28.2507 22.3379C26.0933 23.0941 24.0233 22.367 23.9359 22.3379C23.2945 22.1052 22.7405 21.7561 22.3032 21.4071C21.8367 21.029 21.1079 20.36 20.5831 19.3128C20.379 18.8765 19.3294 16.6369 20.4373 14.2808C20.5248 14.0772 21.8659 11.3721 24.5189 11.1976C25.7726 11.1103 27.4927 11.5466 28.1924 12.8265C28.309 13.0301 28.7755 13.8154 28.5423 14.7462C28.3673 15.3279 27.93 15.9679 27.2886 16.2296C26.5889 16.4623 25.7434 16.346 25.5685 16.3169C25.1312 16.2296 24.8105 16.0551 24.6064 16.2296C24.4315 16.346 24.4023 16.6369 24.4606 16.8114C24.4898 16.9277 24.6356 17.1604 25.277 17.364C26.8222 17.8876 28.2216 17.3931 28.4548 17.3058C29.1837 16.8114 29.5044 16.1424 29.6501 15.8515C30.1749 14.6589 29.9708 13.35 29.6501 12.5938C28.6589 10.3541 24.8105 9.10335 21.9534 10.4413C19.0087 11.8084 17.9883 15.4734 18.6589 18.2657C18.688 18.4112 18.7464 18.5566 18.8047 18.702C18.6297 18.6438 18.484 18.5857 18.309 18.5566C15.5102 17.8585 11.8367 18.8765 10.4665 21.8143C9.12536 24.6648 10.379 28.5043 12.5947 29.5223C12.6822 29.5514 14.3732 30.3659 15.8601 29.5223C17.6093 28.5625 17.7259 26.1774 17.4052 25.1302C17.3469 24.8975 17.172 24.374 16.8513 24.3158C16.6764 24.2867 16.4431 24.4612 16.3557 24.6648C16.2099 24.9266 16.2974 25.2175 16.3557 25.4502C16.5015 26.1192 16.414 26.7882 16.2682 27.1372C16.0058 27.7771 15.3936 28.2134 14.7813 28.388C13.8484 28.6207 13.0612 28.1553 12.8571 28.0389C11.5743 27.3408 11.1079 25.6538 11.2245 24.374C11.4286 21.7271 14.1108 20.4181 14.3149 20.3018C16.6764 19.1965 18.9213 20.2436 19.3586 20.4472C20.4373 20.9708 21.137 21.7271 21.4869 22.1924C21.7493 22.5415 22.1283 23.0651 22.3907 23.7631C22.4198 23.8504 23.1487 25.9156 22.3907 28.068C20.9038 32.2565 14.4898 34.7871 9.88338 33.1291C9.3586 32.9546 7.14286 32.1402 5.65598 29.9877C4.72303 28.7079 4.43149 27.399 4.31487 26.7882C3.70262 23.705 3.67347 15.4152 4.34402 4.3331C15.5102 3.63501 23.8192 3.69318 26.9096 4.30401C27.5219 4.42036 28.8338 4.71123 30.1749 5.64201C32.3324 7.12544 33.1487 9.33604 33.3236 9.85961C34.9854 14.4553 32.449 20.8545 28.2507 22.3379Z" fill="#657150"/>
<path d="M71.0496 2.50104C70.9913 2.58831 70.9329 2.73374 70.9621 2.87917C70.9913 3.28639 71.4869 3.69361 71.9242 3.66452C72.3615 3.63543 72.4781 3.22822 73.0612 2.70465C73.207 2.58831 74.1399 1.74479 74.8105 1.77387C77.551 1.89022 78.9796 9.54007 73.1778 8.26025C71.312 7.85303 69.242 6.07873 67.7843 5.06069C64.9854 3.11187 62.7697 0.988526 59.3295 0.377701C54.344 -0.523992 47.4636 1.62844 43.965 5.9333C39.6793 1.65752 32.5073 1.39574 26.7639 2.41378C26.2391 2.47196 25.9184 2.79191 26.0058 2.99552C26.0641 3.11187 26.3557 3.14096 26.6181 3.14096C27.5802 3.22822 28.1341 3.57726 28.5423 3.72269C29.8542 4.159 32.3907 3.2573 34.9271 3.34456C38.0466 3.46091 41.1662 5.08978 42.8571 7.35856C42.8571 7.38764 42.8863 7.38764 42.8863 7.38764C42.3615 8.28934 42.0117 9.27829 41.8367 10.3545C41.4577 12.5651 42.3324 14.9211 44.8688 14.4267C48.6297 13.6995 46.793 9.77277 45.3936 7.62034C45.2478 7.41673 45.102 7.21312 44.9271 7.00951C46.8222 4.27535 49.9417 2.29744 53.1778 1.65752C58.1633 0.697657 60.9329 2.87917 64.5481 5.49699C68.4548 8.34751 73.8484 12.4778 78.3965 8.05664C83.4694 3.17004 75.1604 -3.78172 71.0496 2.50104ZM43.2653 10.9944C43.2945 10.1218 43.586 9.39464 43.9067 8.90016C44.0816 9.07468 44.344 9.36555 44.5773 9.77277C44.6356 9.86003 45.9767 12.0706 45.2187 12.9142C44.9271 13.205 44.4023 13.2923 44.0233 13.1468C43.2362 12.7978 43.2653 11.4307 43.2653 10.9944Z" fill="#657150"/>
<path d="M11.0787 41.5651C10.0292 41.7105 9.03791 42.0014 8.10496 42.4377C7.31779 41.7105 6.67639 40.9833 6.38485 40.6052C5.24782 39.0054 4.60642 37.0857 4.22741 35.1659C3.64432 32.1409 3.79009 29.0286 4.08164 25.9745C4.11079 25.5382 2.44899 25.7127 2.39068 26.1781C1.28281 32.1991 1.83674 39.209 6.55977 43.3103C1.63266 46.6843 -0.932937 54.0142 0.641407 59.4535C1.63266 62.8567 4.4898 65.5908 6.38485 68.4995C7.23033 69.8084 8.25074 71.2046 8.39651 72.8044C8.95044 78.9417 -1.57434 76.2657 3.90671 71.5536C3.96502 71.4955 4.1691 71.3209 4.1691 71.0883C4.1691 70.8265 3.90671 70.6229 3.73179 70.5356C3.1487 70.2738 2.39068 70.7974 2.04082 71.0301C1.74928 71.2628 0.174935 72.339 7.52881e-06 74.1424C-0.204074 76.3239 1.77843 78.3309 3.87756 78.8545C6.0933 79.4071 8.19243 78.3018 9.27114 76.9347C9.621 76.4984 10.1166 75.7422 10.3499 74.5205C10.5831 73.2407 10.6123 70.8265 5.18951 62.6531C3.58601 60.2388 2.5656 58.9008 2.27406 56.6611C2.06998 55.0614 2.33237 53.7815 2.59476 52.5308C3.44024 48.5168 5.51021 46.0735 5.94753 45.579C6.414 45.0555 6.93878 44.5319 7.49272 44.0665C7.87173 44.4737 8.45482 45.0846 9.32945 45.6372C10.8163 46.568 13.4402 47.4406 14.8688 46.248C15.277 45.9281 15.6851 45.3463 15.7726 44.6192C15.8018 44.4737 15.8892 43.7757 15.5102 43.1067C14.6939 41.5941 12.2741 41.3905 11.0787 41.5651ZM12.4781 45.5209C11.6035 45.8117 10.1458 44.91 8.86298 43.8047C9.12537 43.6302 9.53354 43.4266 10.0583 43.2521C10.4956 43.1067 11.3411 42.8449 12.3324 43.1067C12.7114 43.1939 13.7318 43.4848 13.8192 44.1247C13.8484 44.6483 13.3236 45.2591 12.4781 45.5209Z" fill="#657150"/>
<path d="M35.8017 21.3199C33.207 20.9999 31.1079 22.5415 30.8163 22.8033C27.9883 25.3339 28.8338 29.4642 28.863 29.6969C28.2799 29.5805 27.4052 29.4642 26.3557 29.6096C25.6268 29.6969 23.5568 29.9878 22.2449 31.6457C20.8455 33.4491 20.6414 36.4741 22.1283 37.783C22.9446 38.5102 24.0233 38.452 24.2274 38.452C25.6268 38.452 27.172 37.434 27.2012 36.2996C27.2303 35.776 26.9096 35.1943 26.4723 34.9325C26.0933 34.6998 25.481 34.5544 25.1312 34.8453C24.9563 34.9907 24.8105 35.2816 24.898 35.4852C24.9563 35.6597 25.1312 35.6597 25.3353 35.8342C25.5102 36.0087 25.6851 36.3287 25.656 36.5614C25.5977 37.0559 24.5481 37.5213 23.7609 37.2595C23.0612 37.0268 22.7697 36.3578 22.6822 36.1833C22.0408 34.7871 22.7405 32.7801 23.9942 31.6457C25.3353 30.4531 27.3469 30.1623 29.242 30.8604C29.4752 31.5875 29.7668 32.2565 30.0583 32.9255C31.0787 35.078 33.0612 37.114 35.5977 36.5032C38.2507 35.8633 36.9971 33.5364 35.277 32.1402C34.1691 31.2385 32.6239 30.5695 30.9912 30.1623C30.7872 29.5515 30.6122 28.9115 30.5248 28.3007C30.1749 25.7992 30.8746 23.4432 33.3528 22.5997C33.8775 22.4252 34.6647 22.1052 35.5394 22.3379C36.9096 22.716 37.9592 24.3449 37.5802 25.0139C37.4052 25.3629 36.793 25.5375 36.3265 25.4502C35.7726 25.3339 35.6268 24.8685 35.1603 24.9266C34.898 24.9557 34.6647 25.1302 34.5481 25.3629C34.4315 25.5665 34.4315 25.7992 34.4898 25.9447C34.723 26.7009 36.9971 27.2827 38.3673 26.2355C40.7872 24.374 37.9592 21.5816 35.8017 21.3199ZM35.3061 35.2234C35.4519 36.9395 32.274 33.1001 31.9825 32.4601C31.8367 32.1693 31.7201 31.8784 31.5743 31.5875C33.5568 32.3729 35.1603 33.6527 35.3061 35.2234Z" fill="#657150"/>
<path d="M3.11953 3.46082C3.20699 3.34447 3.67347 3.57716 4.05248 3.78077C4.5481 4.07164 14.2566 9.62724 14.6356 12.5941C14.6647 12.7977 14.723 13.3504 14.4023 13.7285C14.0816 14.1357 13.4985 14.1357 13.2945 14.1357C10.6706 14.1939 5.68513 6.74764 3.64431 4.30434C3.46938 4.12982 3.03207 3.57716 3.11953 3.46082Z" fill="#657150"/>
</g>
<defs>
<clipPath id="clip0_328_1387">
<rect width="80" height="79" fill="white"/>
</clipPath>
</defs>
</svg>
