<svg width="80" height="79" viewBox="0 0 80 79" fill="none" xmlns="http://www.w3.org/2000/svg">
<g clip-path="url(#clip0_328_1410)">
<path d="M47.9009 74.1433C49.3295 75.3359 50.7289 75.7431 52.449 76.2376C54.3149 76.7612 55.9475 76.9066 63.8776 76.8775C63.8776 76.8775 65.5977 76.8775 66.4723 76.8775C66.8805 76.8775 67.172 76.8775 67.93 76.8775C69.0087 76.8775 69.4461 76.8484 70.1458 76.8775C70.1458 76.8775 75.8018 77.0811 77.3178 76.8484C77.3761 76.8484 77.4344 76.8193 77.4927 76.7612C77.4927 76.703 77.5219 76.6739 77.5219 76.6157C77.6093 76.6157 77.6676 76.5866 77.7551 76.5866C77.8426 76.5576 77.8717 76.4703 77.8717 76.4121C78.105 74.8996 77.9009 69.2567 77.9009 69.2567C77.8717 68.5587 77.9009 68.1514 77.9009 67.0461C77.9009 66.2608 77.9009 65.9699 77.9009 65.5918C77.9009 64.6901 77.9009 63.0031 77.9009 63.0031C77.9009 55.0914 77.7843 53.4335 77.2303 51.5719C76.7347 49.8558 76.3265 48.4596 75.1312 47.0344C71.9242 43.1949 66.5598 43.3694 65.8309 43.3985C64.4315 43.4567 60.9913 43.6312 58.4548 46.3944C58.1341 46.7435 55.1895 50.0594 56.2391 54.4224C56.2974 54.5679 56.414 55.0914 56.7055 55.7895C55.9767 55.4986 55.4519 55.3532 55.277 55.3241C50.9038 54.277 47.5802 57.2148 47.2303 57.5347C44.4315 60.0653 44.2857 63.4975 44.2274 64.8937C44.1983 65.6209 44.0233 70.9438 47.9009 74.1433ZM51.7493 56.6621C53.9067 55.9059 55.9767 56.633 56.0641 56.6621C56.7055 56.8948 57.2595 57.2439 57.6968 57.5929C58.1633 57.971 58.8921 58.64 59.4169 59.6872C59.621 60.1235 60.6706 62.3631 59.5627 64.7192C59.4752 64.9228 58.1341 67.6279 55.4811 67.8024C54.2274 67.8897 52.5073 67.4534 51.8076 66.1735C51.691 65.9699 51.2245 65.1846 51.4577 64.2538C51.6327 63.6721 52.07 63.0321 52.7114 62.7704C53.4111 62.5377 54.2566 62.654 54.4315 62.6831C54.8688 62.7704 55.1895 62.9449 55.3936 62.7704C55.5685 62.654 55.5977 62.3631 55.5394 62.1886C55.5102 62.0723 55.3644 61.8396 54.723 61.636C53.1778 61.1124 51.7784 61.6069 51.5452 61.6942C50.8163 62.1886 50.4956 62.8576 50.3499 63.1485C49.8251 64.3411 50.0292 65.65 50.3499 66.4062C51.3411 68.6459 55.1895 69.8967 58.0466 68.5587C60.9913 67.1916 62.0117 63.5266 61.3411 60.7343C61.312 60.5888 61.2536 60.4434 61.1953 60.298C61.3703 60.3562 61.516 60.4143 61.691 60.4434C64.4898 61.1415 68.1633 60.1235 69.5335 57.1857C70.8746 54.3352 69.621 50.4957 67.4053 49.4777C67.3178 49.4486 65.6268 48.6341 64.1399 49.4777C62.3907 50.4375 62.2741 52.8226 62.5948 53.8698C62.6531 54.1025 62.828 54.626 63.1487 54.6842C63.3236 54.7133 63.5569 54.5388 63.6443 54.3352C63.7901 54.0734 63.7026 53.7825 63.6443 53.5498C63.4985 52.8808 63.586 52.2118 63.7318 51.8628C63.9942 51.2229 64.6064 50.7866 65.2187 50.612C66.1516 50.3793 66.9388 50.8447 67.1429 50.9611C68.4257 51.6592 68.8921 53.3462 68.7755 54.626C68.5714 57.2729 65.8892 58.5819 65.6851 58.6982C63.3236 59.8035 61.0787 58.7564 60.6414 58.5528C59.5627 58.0292 58.863 57.2729 58.5131 56.8076C58.2507 56.4585 57.8717 55.9349 57.6093 55.2369C57.5802 55.1496 56.8513 53.0844 57.6093 50.932C59.0962 46.7435 65.5102 44.2129 70.1166 45.8709C70.6414 46.0454 72.8571 46.8598 74.344 49.0123C75.277 50.2921 75.5685 51.601 75.6851 52.2118C76.2974 55.295 76.3265 63.5848 75.656 74.6669C64.4898 75.365 56.1808 75.3068 53.0904 74.696C52.4781 74.5796 51.1662 74.2888 49.8251 73.358C47.6676 71.8746 46.8513 69.664 46.6764 69.1404C45.0146 64.5447 47.551 58.1455 51.7493 56.6621Z" fill="#657150"/>
<path d="M8.95049 76.499C9.0088 76.4117 9.06711 76.2663 9.03796 76.1208C9.0088 75.7136 8.51318 75.3064 8.07586 75.3355C7.63854 75.3646 7.52192 75.7718 6.93883 76.2953C6.79306 76.4117 5.86012 77.2552 5.18956 77.2261C2.44904 77.1098 1.02046 69.4599 6.82221 70.7397C8.6881 71.147 10.7581 72.9213 12.2158 73.9393C15.0146 75.8881 17.2304 78.0115 20.6706 78.6223C25.656 79.524 32.5365 77.3716 36.035 73.0667C40.3208 77.3425 47.4928 77.6043 53.2362 76.5862C53.761 76.528 54.0817 76.2081 53.9942 76.0045C53.9359 75.8881 53.6444 75.859 53.382 75.859C52.4199 75.7718 51.8659 75.4227 51.4578 75.2773C50.1458 74.841 47.6094 75.7427 45.0729 75.6554C41.9534 75.5391 38.8339 73.9102 37.1429 71.6414C37.1429 71.6124 37.1138 71.6124 37.1138 71.6124C37.6385 70.7107 37.9884 69.7217 38.1633 68.6455C38.5423 66.4349 37.6677 64.0789 35.1313 64.5733C31.3703 65.3005 33.2071 69.2272 34.6065 71.3797C34.7522 71.5833 34.898 71.7869 35.0729 71.9905C33.1779 74.7247 30.0584 76.7026 26.8222 77.3425C21.8368 78.3023 19.0671 76.1208 15.452 73.503C11.5452 70.6525 6.15166 66.5222 1.60355 70.9434C-3.46933 75.83 4.8397 82.7817 8.95049 76.499ZM36.7348 68.0056C36.7056 68.8782 36.4141 69.6054 36.0934 70.0998C35.9184 69.9253 35.656 69.6344 35.4228 69.2272C35.3645 69.14 34.0234 66.9294 34.7814 66.0858C35.0729 65.795 35.5977 65.7077 35.9767 65.8532C36.7639 66.2022 36.7348 67.5693 36.7348 68.0056Z" fill="#657150"/>
<path d="M68.9213 37.4349C69.9709 37.2895 70.9621 36.9986 71.8951 36.5623C72.6822 37.2895 73.3236 38.0167 73.6152 38.3948C74.7522 39.9946 75.3936 41.9143 75.7726 43.8341C76.3557 46.8591 76.2099 49.9714 75.9184 53.0255C75.8892 53.4618 77.551 53.2873 77.6094 52.8219C78.7172 46.8009 78.1633 39.791 73.4403 35.6897C78.3674 32.3157 80.933 24.9858 79.3586 19.5465C78.3674 16.1433 75.5102 13.4092 73.6152 10.5005C72.7697 9.19157 71.7493 7.7954 71.6035 6.19562C71.0496 0.0582886 81.5744 2.73428 76.0933 7.44636C76.035 7.50453 75.8309 7.67905 75.8309 7.91175C75.8309 8.17353 76.0933 8.37714 76.2682 8.4644C76.8513 8.72618 77.6094 8.20262 77.9592 7.96992C78.2508 7.73723 79.8251 6.66101 80 4.85763C80.2041 2.67611 78.2216 0.669113 76.1225 0.14555C73.9067 -0.407104 71.8076 0.6982 70.7289 2.06528C70.379 2.50159 69.8834 3.25784 69.6502 4.4795C69.4169 5.75932 69.3878 8.17353 74.8105 16.3469C76.414 18.7612 77.4344 20.0992 77.726 22.3389C77.9301 23.9386 77.6677 25.2185 77.4053 26.4692C76.5598 30.4832 74.4898 32.9265 74.0525 33.421C73.586 33.9445 73.0612 34.4681 72.5073 34.9335C72.1283 34.5263 71.5452 33.9154 70.6706 33.3628C69.1837 32.432 66.5598 31.5594 65.1312 32.752C64.7231 33.0719 64.3149 33.6537 64.2274 34.3808C64.1983 34.5263 64.1108 35.2243 64.4898 35.8933C65.3061 37.4059 67.726 37.6095 68.9213 37.4349ZM67.5219 33.4791C68.3965 33.1883 69.8543 34.09 71.137 35.1953C70.8747 35.3698 70.4665 35.5734 69.9417 35.7479C69.5044 35.8933 68.6589 36.1551 67.6677 35.8933C67.2887 35.8061 66.2682 35.5152 66.1808 34.8753C66.1516 34.3517 66.6764 33.7409 67.5219 33.4791Z" fill="#657150"/>
<path d="M44.1983 57.6801C46.7931 58.0001 48.8922 56.4585 49.1837 56.1967C52.0117 53.6661 51.1662 49.5358 51.1371 49.3031C51.7202 49.4195 52.5948 49.5358 53.6444 49.3904C54.3732 49.3031 56.4432 49.0122 57.7552 47.3543C59.1546 45.5509 59.3587 42.5259 57.8718 41.217C57.0555 40.4898 55.9767 40.548 55.7727 40.548C54.3732 40.548 52.8281 41.566 52.7989 42.7004C52.7697 43.224 53.0904 43.8057 53.5278 44.0675C53.9068 44.3002 54.519 44.4456 54.8689 44.1547C55.0438 44.0093 55.1896 43.7184 55.1021 43.5148C55.0438 43.3403 54.8689 43.3403 54.6648 43.1658C54.4899 42.9913 54.3149 42.6713 54.3441 42.4386C54.4024 41.9441 55.452 41.4787 56.2391 41.7405C56.9388 41.9732 57.2304 42.6422 57.3179 42.8167C57.9593 44.2129 57.2595 46.2199 56.0059 47.3543C54.6648 48.5469 52.6531 48.8377 50.7581 48.1396C50.5248 47.4125 50.2333 46.7435 49.9418 46.0745C48.9213 43.922 46.9388 41.886 44.4024 42.4968C41.7493 43.1367 43.003 45.4636 44.7231 46.8598C45.831 47.7615 47.3762 48.4305 49.0088 48.8377C49.2129 49.4485 49.3878 50.0885 49.4753 50.6993C49.8251 53.2008 49.1254 55.5568 46.6473 56.4003C46.1225 56.5748 45.3353 56.8948 44.4607 56.6621C43.0904 56.284 42.0409 54.6551 42.4199 53.9861C42.5948 53.6371 43.2071 53.4625 43.6735 53.5498C44.2275 53.6661 44.3732 54.1315 44.8397 54.0734C45.1021 54.0443 45.3353 53.8698 45.452 53.6371C45.5686 53.4335 45.5686 53.2008 45.5103 53.0553C45.277 52.2991 43.003 51.7173 41.6327 52.7645C39.2129 54.626 42.0409 57.4184 44.1983 57.6801ZM44.6939 43.7766C44.5482 42.0605 47.726 45.8999 48.0176 46.5399C48.1633 46.8307 48.28 47.1216 48.4257 47.4125C46.4432 46.6271 44.8397 45.3473 44.6939 43.7766Z" fill="#657150"/>
<path d="M76.8805 75.5392C76.7931 75.6555 76.3266 75.4228 75.9476 75.2192C75.452 74.9284 65.7435 69.3728 65.3645 66.4059C65.3353 66.2023 65.277 65.6496 65.5977 65.2715C65.9184 64.8643 66.5015 64.8643 66.7056 64.8643C69.3295 64.8061 74.3149 72.2524 76.3557 74.6957C76.5307 74.8702 76.968 75.4228 76.8805 75.5392Z" fill="#657150"/>
</g>
<defs>
<clipPath id="clip0_328_1410">
<rect width="80" height="79" fill="white" transform="matrix(-1 0 0 -1 80 79)"/>
</clipPath>
</defs>
</svg>
