<svg width="80" height="79" viewBox="0 0 80 79" fill="none" xmlns="http://www.w3.org/2000/svg">
<g clip-path="url(#clip0_328_1394)">
<path d="M47.9009 4.85666C49.3295 3.6641 50.7289 3.25688 52.449 2.7624C54.3149 2.23884 55.9475 2.09341 63.8776 2.12249C63.8776 2.12249 65.5977 2.12249 66.4723 2.12249C66.8805 2.12249 67.172 2.12249 67.93 2.12249C69.0087 2.12249 69.4461 2.15158 70.1458 2.12249C70.1458 2.12249 75.8018 1.91888 77.3178 2.15158C77.3761 2.15158 77.4344 2.18067 77.4927 2.23884C77.4927 2.29701 77.5219 2.3261 77.5219 2.38427C77.6093 2.38427 77.6676 2.41336 77.7551 2.41336C77.8426 2.44245 77.8717 2.52971 77.8717 2.58788C78.105 4.1004 77.9009 9.74326 77.9009 9.74326C77.8717 10.4413 77.9009 10.8486 77.9009 11.9539C77.9009 12.7392 77.9009 13.0301 77.9009 13.4082C77.9009 14.3099 77.9009 15.9969 77.9009 15.9969C77.9009 23.9086 77.7843 25.5665 77.2303 27.4281C76.7347 29.1442 76.3265 30.5404 75.1312 31.9656C71.9242 35.8051 66.5598 35.6306 65.8309 35.6015C64.4315 35.5433 60.9913 35.3688 58.4548 32.6056C58.1341 32.2565 55.1895 28.9406 56.2391 24.5776C56.2974 24.4321 56.414 23.9086 56.7055 23.2105C55.9767 23.5014 55.4519 23.6468 55.277 23.6759C50.9038 24.723 47.5802 21.7852 47.2303 21.4653C44.4315 18.9347 44.2857 15.5025 44.2274 14.1063C44.1983 13.3791 44.0233 8.05622 47.9009 4.85666ZM51.7493 22.3379C53.9067 23.0941 55.9767 22.367 56.0641 22.3379C56.7055 22.1052 57.2595 21.7561 57.6968 21.4071C58.1633 21.029 58.8921 20.36 59.4169 19.3128C59.621 18.8765 60.6706 16.6369 59.5627 14.2808C59.4752 14.0772 58.1341 11.3721 55.4811 11.1976C54.2274 11.1103 52.5073 11.5466 51.8076 12.8265C51.691 13.0301 51.2245 13.8154 51.4577 14.7462C51.6327 15.3279 52.07 15.9679 52.7114 16.2296C53.4111 16.4623 54.2566 16.346 54.4315 16.3169C54.8688 16.2296 55.1895 16.0551 55.3936 16.2296C55.5685 16.346 55.5977 16.6369 55.5394 16.8114C55.5102 16.9277 55.3644 17.1604 54.723 17.364C53.1778 17.8876 51.7784 17.3931 51.5452 17.3058C50.8163 16.8114 50.4956 16.1424 50.3499 15.8515C49.8251 14.6589 50.0292 13.35 50.3499 12.5938C51.3411 10.3541 55.1895 9.10335 58.0466 10.4413C60.9913 11.8084 62.0117 15.4734 61.3411 18.2657C61.312 18.4112 61.2536 18.5566 61.1953 18.702C61.3703 18.6438 61.516 18.5857 61.691 18.5566C64.4898 17.8585 68.1633 18.8765 69.5335 21.8143C70.8746 24.6648 69.621 28.5043 67.4053 29.5223C67.3178 29.5514 65.6268 30.3659 64.1399 29.5223C62.3907 28.5625 62.2741 26.1774 62.5948 25.1302C62.6531 24.8975 62.828 24.374 63.1487 24.3158C63.3236 24.2867 63.5569 24.4612 63.6443 24.6648C63.7901 24.9266 63.7026 25.2175 63.6443 25.4502C63.4985 26.1192 63.586 26.7882 63.7318 27.1372C63.9942 27.7771 64.6064 28.2134 65.2187 28.388C66.1516 28.6207 66.9388 28.1553 67.1429 28.0389C68.4257 27.3408 68.8921 25.6538 68.7755 24.374C68.5714 21.7271 65.8892 20.4181 65.6851 20.3018C63.3236 19.1965 61.0787 20.2436 60.6414 20.4472C59.5627 20.9708 58.863 21.7271 58.5131 22.1924C58.2507 22.5415 57.8717 23.0651 57.6093 23.7631C57.5802 23.8504 56.8513 25.9156 57.6093 28.068C59.0962 32.2565 65.5102 34.7871 70.1166 33.1291C70.6414 32.9546 72.8571 32.1402 74.344 29.9877C75.277 28.7079 75.5685 27.399 75.6851 26.7882C76.2974 23.705 76.3265 15.4152 75.656 4.3331C64.4898 3.63501 56.1808 3.69318 53.0904 4.30401C52.4781 4.42036 51.1662 4.71123 49.8251 5.64201C47.6676 7.12544 46.8513 9.33604 46.6764 9.85961C45.0146 14.4553 47.551 20.8545 51.7493 22.3379Z" fill="#657150"/>
<path d="M8.95049 2.50104C9.0088 2.58831 9.06711 2.73374 9.03796 2.87917C9.0088 3.28639 8.51318 3.69361 8.07586 3.66452C7.63854 3.63543 7.52192 3.22822 6.93883 2.70465C6.79306 2.58831 5.86012 1.74479 5.18956 1.77387C2.44904 1.89022 1.02046 9.54007 6.82221 8.26025C8.6881 7.85303 10.7581 6.07873 12.2158 5.06069C15.0146 3.11187 17.2304 0.988526 20.6706 0.377701C25.656 -0.523992 32.5365 1.62844 36.035 5.9333C40.3208 1.65752 47.4928 1.39574 53.2362 2.41378C53.761 2.47196 54.0817 2.79191 53.9942 2.99552C53.9359 3.11187 53.6444 3.14096 53.382 3.14096C52.4199 3.22822 51.8659 3.57726 51.4578 3.72269C50.1458 4.159 47.6094 3.2573 45.0729 3.34456C41.9534 3.46091 38.8339 5.08978 37.1429 7.35856C37.1429 7.38764 37.1138 7.38764 37.1138 7.38764C37.6385 8.28934 37.9884 9.27829 38.1633 10.3545C38.5423 12.5651 37.6677 14.9211 35.1313 14.4267C31.3703 13.6995 33.2071 9.77277 34.6065 7.62034C34.7522 7.41673 34.898 7.21312 35.0729 7.00951C33.1779 4.27535 30.0584 2.29744 26.8222 1.65752C21.8368 0.697657 19.0671 2.87917 15.452 5.49699C11.5452 8.34751 6.15166 12.4778 1.60355 8.05664C-3.46933 3.17004 4.8397 -3.78172 8.95049 2.50104ZM36.7348 10.9944C36.7056 10.1218 36.4141 9.39464 36.0934 8.90016C35.9184 9.07468 35.656 9.36555 35.4228 9.77277C35.3645 9.86003 34.0234 12.0706 34.7814 12.9142C35.0729 13.205 35.5977 13.2923 35.9767 13.1468C36.7639 12.7978 36.7348 11.4307 36.7348 10.9944Z" fill="#657150"/>
<path d="M68.9213 41.5651C69.9709 41.7105 70.9621 42.0014 71.8951 42.4377C72.6822 41.7105 73.3236 40.9833 73.6152 40.6052C74.7522 39.0054 75.3936 37.0857 75.7726 35.1659C76.3557 32.1409 76.2099 29.0286 75.9184 25.9745C75.8892 25.5382 77.551 25.7127 77.6094 26.1781C78.7172 32.1991 78.1633 39.209 73.4403 43.3103C78.3674 46.6843 80.933 54.0142 79.3586 59.4535C78.3674 62.8567 75.5102 65.5908 73.6152 68.4995C72.7697 69.8084 71.7493 71.2046 71.6035 72.8044C71.0496 78.9417 81.5744 76.2657 76.0933 71.5536C76.035 71.4955 75.8309 71.3209 75.8309 71.0883C75.8309 70.8265 76.0933 70.6229 76.2682 70.5356C76.8513 70.2738 77.6094 70.7974 77.9592 71.0301C78.2508 71.2628 79.8251 72.339 80 74.1424C80.2041 76.3239 78.2216 78.3309 76.1225 78.8545C73.9067 79.4071 71.8076 78.3018 70.7289 76.9347C70.379 76.4984 69.8834 75.7422 69.6502 74.5205C69.4169 73.2407 69.3878 70.8265 74.8105 62.6531C76.414 60.2388 77.4344 58.9008 77.726 56.6611C77.9301 55.0614 77.6677 53.7815 77.4053 52.5308C76.5598 48.5168 74.4898 46.0735 74.0525 45.579C73.586 45.0555 73.0612 44.5319 72.5073 44.0665C72.1283 44.4737 71.5452 45.0846 70.6706 45.6372C69.1837 46.568 66.5598 47.4406 65.1312 46.248C64.7231 45.9281 64.3149 45.3463 64.2274 44.6192C64.1983 44.4737 64.1108 43.7757 64.4898 43.1067C65.3061 41.5941 67.726 41.3905 68.9213 41.5651ZM67.5219 45.5209C68.3965 45.8117 69.8543 44.91 71.137 43.8047C70.8747 43.6302 70.4665 43.4266 69.9417 43.2521C69.5044 43.1067 68.6589 42.8449 67.6677 43.1067C67.2887 43.1939 66.2682 43.4848 66.1808 44.1247C66.1516 44.6483 66.6764 45.2591 67.5219 45.5209Z" fill="#657150"/>
<path d="M44.1983 21.3199C46.7931 20.9999 48.8922 22.5415 49.1837 22.8033C52.0117 25.3339 51.1662 29.4642 51.1371 29.6969C51.7202 29.5805 52.5948 29.4642 53.6444 29.6096C54.3732 29.6969 56.4432 29.9878 57.7552 31.6457C59.1546 33.4491 59.3587 36.4741 57.8718 37.783C57.0555 38.5102 55.9767 38.452 55.7727 38.452C54.3732 38.452 52.8281 37.434 52.7989 36.2996C52.7697 35.776 53.0904 35.1943 53.5278 34.9325C53.9068 34.6998 54.519 34.5544 54.8689 34.8453C55.0438 34.9907 55.1896 35.2816 55.1021 35.4852C55.0438 35.6597 54.8689 35.6597 54.6648 35.8342C54.4899 36.0087 54.3149 36.3287 54.3441 36.5614C54.4024 37.0559 55.452 37.5213 56.2391 37.2595C56.9388 37.0268 57.2304 36.3578 57.3179 36.1833C57.9593 34.7871 57.2595 32.7801 56.0059 31.6457C54.6648 30.4531 52.6531 30.1623 50.7581 30.8604C50.5248 31.5875 50.2333 32.2565 49.9418 32.9255C48.9213 35.078 46.9388 37.114 44.4024 36.5032C41.7493 35.8633 43.003 33.5364 44.7231 32.1402C45.831 31.2385 47.3762 30.5695 49.0088 30.1623C49.2129 29.5515 49.3878 28.9115 49.4753 28.3007C49.8251 25.7992 49.1254 23.4432 46.6473 22.5997C46.1225 22.4252 45.3353 22.1052 44.4607 22.3379C43.0904 22.716 42.0409 24.3449 42.4199 25.0139C42.5948 25.3629 43.2071 25.5375 43.6735 25.4502C44.2275 25.3339 44.3732 24.8685 44.8397 24.9266C45.1021 24.9557 45.3353 25.1302 45.452 25.3629C45.5686 25.5665 45.5686 25.7992 45.5103 25.9447C45.277 26.7009 43.003 27.2827 41.6327 26.2355C39.2129 24.374 42.0409 21.5816 44.1983 21.3199ZM44.6939 35.2234C44.5482 36.9395 47.726 33.1001 48.0176 32.4601C48.1633 32.1693 48.28 31.8784 48.4257 31.5875C46.4432 32.3729 44.8397 33.6527 44.6939 35.2234Z" fill="#657150"/>
<path d="M76.8805 3.46082C76.7931 3.34447 76.3266 3.57716 75.9476 3.78077C75.452 4.07164 65.7435 9.62724 65.3645 12.5941C65.3353 12.7977 65.277 13.3504 65.5977 13.7285C65.9184 14.1357 66.5015 14.1357 66.7056 14.1357C69.3295 14.1939 74.3149 6.74764 76.3557 4.30434C76.5307 4.12982 76.968 3.57716 76.8805 3.46082Z" fill="#657150"/>
</g>
<defs>
<clipPath id="clip0_328_1394">
<rect width="80" height="79" fill="white" transform="matrix(-1 0 0 1 80 0)"/>
</clipPath>
</defs>
</svg>
