<svg width="80" height="79" viewBox="0 0 80 79" fill="none" xmlns="http://www.w3.org/2000/svg">
<g clip-path="url(#clip0_328_1403)">
<path d="M32.0991 74.1433C30.6705 75.3359 29.2711 75.7431 27.551 76.2376C25.6851 76.7612 24.0525 76.9066 16.1224 76.8775C16.1224 76.8775 14.4023 76.8775 13.5277 76.8775C13.1195 76.8775 12.828 76.8775 12.07 76.8775C10.9913 76.8775 10.5539 76.8484 9.85423 76.8775C9.85423 76.8775 4.19825 77.0811 2.68221 76.8484C2.62391 76.8484 2.5656 76.8193 2.50729 76.7612C2.50729 76.703 2.47813 76.6739 2.47813 76.6157C2.39067 76.6157 2.33236 76.5866 2.2449 76.5866C2.15743 76.5576 2.12828 76.4703 2.12828 76.4121C1.89504 74.8996 2.09912 69.2567 2.09912 69.2567C2.12828 68.5587 2.09912 68.1514 2.09912 67.0461C2.09912 66.2608 2.09912 65.9699 2.09912 65.5918C2.09912 64.6901 2.09912 63.0031 2.09912 63.0031C2.09912 55.0914 2.21574 53.4335 2.76968 51.5719C3.2653 49.8558 3.67347 48.4596 4.8688 47.0344C8.0758 43.1949 13.4402 43.3694 14.1691 43.3985C15.5685 43.4567 19.0087 43.6312 21.5452 46.3944C21.8659 46.7435 24.8105 50.0594 23.7609 54.4224C23.7026 54.5679 23.586 55.0914 23.2945 55.7895C24.0233 55.4986 24.5481 55.3532 24.723 55.3241C29.0962 54.277 32.4198 57.2148 32.7697 57.5347C35.5685 60.0653 35.7143 63.4975 35.7726 64.8937C35.8017 65.6209 35.9767 70.9438 32.0991 74.1433ZM28.2507 56.6621C26.0933 55.9059 24.0233 56.633 23.9359 56.6621C23.2945 56.8948 22.7405 57.2439 22.3032 57.5929C21.8367 57.971 21.1079 58.64 20.5831 59.6872C20.379 60.1235 19.3294 62.3631 20.4373 64.7192C20.5248 64.9228 21.8659 67.6279 24.5189 67.8024C25.7726 67.8897 27.4927 67.4534 28.1924 66.1735C28.309 65.9699 28.7755 65.1846 28.5423 64.2538C28.3673 63.6721 27.93 63.0321 27.2886 62.7704C26.5889 62.5377 25.7434 62.654 25.5685 62.6831C25.1312 62.7704 24.8105 62.9449 24.6064 62.7704C24.4315 62.654 24.4023 62.3631 24.4606 62.1886C24.4898 62.0723 24.6356 61.8396 25.277 61.636C26.8222 61.1124 28.2216 61.6069 28.4548 61.6942C29.1837 62.1886 29.5044 62.8576 29.6501 63.1485C30.1749 64.3411 29.9708 65.65 29.6501 66.4062C28.6589 68.6459 24.8105 69.8967 21.9534 68.5587C19.0087 67.1916 17.9883 63.5266 18.6589 60.7343C18.688 60.5888 18.7464 60.4434 18.8047 60.298C18.6297 60.3562 18.484 60.4143 18.309 60.4434C15.5102 61.1415 11.8367 60.1235 10.4665 57.1857C9.12536 54.3352 10.379 50.4957 12.5947 49.4777C12.6822 49.4486 14.3732 48.6341 15.8601 49.4777C17.6093 50.4375 17.7259 52.8226 17.4052 53.8698C17.3469 54.1025 17.172 54.626 16.8513 54.6842C16.6764 54.7133 16.4431 54.5388 16.3557 54.3352C16.2099 54.0734 16.2974 53.7825 16.3557 53.5498C16.5015 52.8808 16.414 52.2118 16.2682 51.8628C16.0058 51.2229 15.3936 50.7866 14.7813 50.612C13.8484 50.3793 13.0612 50.8447 12.8571 50.9611C11.5743 51.6592 11.1079 53.3462 11.2245 54.626C11.4286 57.2729 14.1108 58.5819 14.3149 58.6982C16.6764 59.8035 18.9213 58.7564 19.3586 58.5528C20.4373 58.0292 21.137 57.2729 21.4869 56.8076C21.7493 56.4585 22.1283 55.9349 22.3907 55.2369C22.4198 55.1496 23.1487 53.0844 22.3907 50.932C20.9038 46.7435 14.4898 44.2129 9.88338 45.8709C9.3586 46.0454 7.14286 46.8598 5.65598 49.0123C4.72303 50.2921 4.43149 51.601 4.31487 52.2118C3.70262 55.295 3.67347 63.5848 4.34402 74.6669C15.5102 75.365 23.8192 75.3068 26.9096 74.696C27.5219 74.5796 28.8338 74.2888 30.1749 73.358C32.3324 71.8746 33.1487 69.664 33.3236 69.1404C34.9854 64.5447 32.449 58.1455 28.2507 56.6621Z" fill="#657150"/>
<path d="M71.0496 76.499C70.9913 76.4117 70.9329 76.2663 70.9621 76.1208C70.9913 75.7136 71.4869 75.3064 71.9242 75.3355C72.3615 75.3646 72.4781 75.7718 73.0612 76.2953C73.207 76.4117 74.1399 77.2552 74.8105 77.2261C77.551 77.1098 78.9796 69.4599 73.1778 70.7397C71.312 71.147 69.242 72.9213 67.7843 73.9393C64.9854 75.8881 62.7697 78.0115 59.3295 78.6223C54.344 79.524 47.4636 77.3716 43.965 73.0667C39.6793 77.3425 32.5073 77.6043 26.7639 76.5862C26.2391 76.528 25.9184 76.2081 26.0058 76.0045C26.0641 75.8881 26.3557 75.859 26.6181 75.859C27.5802 75.7718 28.1341 75.4227 28.5423 75.2773C29.8542 74.841 32.3907 75.7427 34.9271 75.6554C38.0466 75.5391 41.1662 73.9102 42.8571 71.6414C42.8571 71.6124 42.8863 71.6124 42.8863 71.6124C42.3615 70.7107 42.0117 69.7217 41.8367 68.6455C41.4577 66.4349 42.3324 64.0789 44.8688 64.5733C48.6297 65.3005 46.793 69.2272 45.3936 71.3797C45.2478 71.5833 45.102 71.7869 44.9271 71.9905C46.8222 74.7247 49.9417 76.7026 53.1778 77.3425C58.1633 78.3023 60.9329 76.1208 64.5481 73.503C68.4548 70.6525 73.8484 66.5222 78.3965 70.9434C83.4694 75.83 75.1604 82.7817 71.0496 76.499ZM43.2653 68.0056C43.2945 68.8782 43.586 69.6054 43.9067 70.0998C44.0816 69.9253 44.344 69.6344 44.5773 69.2272C44.6356 69.14 45.9767 66.9294 45.2187 66.0858C44.9271 65.795 44.4023 65.7077 44.0233 65.8532C43.2362 66.2022 43.2653 67.5693 43.2653 68.0056Z" fill="#657150"/>
<path d="M11.0787 37.4349C10.0292 37.2895 9.03791 36.9986 8.10496 36.5623C7.31779 37.2895 6.67639 38.0167 6.38485 38.3948C5.24782 39.9946 4.60642 41.9143 4.22741 43.8341C3.64432 46.8591 3.79009 49.9714 4.08164 53.0255C4.11079 53.4618 2.44899 53.2873 2.39068 52.8219C1.28281 46.8009 1.83674 39.791 6.55977 35.6897C1.63266 32.3157 -0.932937 24.9858 0.641407 19.5465C1.63266 16.1433 4.4898 13.4092 6.38485 10.5005C7.23033 9.19157 8.25074 7.7954 8.39651 6.19562C8.95044 0.0582886 -1.57434 2.73428 3.90671 7.44636C3.96502 7.50453 4.1691 7.67905 4.1691 7.91175C4.1691 8.17353 3.90671 8.37714 3.73179 8.4644C3.1487 8.72618 2.39068 8.20262 2.04082 7.96992C1.74928 7.73723 0.174935 6.66101 7.52881e-06 4.85763C-0.204074 2.67611 1.77843 0.669113 3.87756 0.14555C6.0933 -0.407104 8.19243 0.6982 9.27114 2.06528C9.621 2.50159 10.1166 3.25784 10.3499 4.4795C10.5831 5.75932 10.6123 8.17353 5.18951 16.3469C3.58601 18.7612 2.5656 20.0992 2.27406 22.3389C2.06998 23.9386 2.33237 25.2185 2.59476 26.4692C3.44024 30.4832 5.51021 32.9265 5.94753 33.421C6.414 33.9445 6.93878 34.4681 7.49272 34.9335C7.87173 34.5263 8.45482 33.9154 9.32945 33.3628C10.8163 32.432 13.4402 31.5594 14.8688 32.752C15.277 33.0719 15.6851 33.6537 15.7726 34.3808C15.8018 34.5263 15.8892 35.2243 15.5102 35.8933C14.6939 37.4059 12.2741 37.6095 11.0787 37.4349ZM12.4781 33.4791C11.6035 33.1883 10.1458 34.09 8.86298 35.1953C9.12537 35.3698 9.53354 35.5734 10.0583 35.7479C10.4956 35.8933 11.3411 36.1551 12.3324 35.8933C12.7114 35.8061 13.7318 35.5152 13.8192 34.8753C13.8484 34.3517 13.3236 33.7409 12.4781 33.4791Z" fill="#657150"/>
<path d="M35.8017 57.6801C33.207 58.0001 31.1079 56.4585 30.8163 56.1967C27.9883 53.6661 28.8338 49.5358 28.863 49.3031C28.2799 49.4195 27.4052 49.5358 26.3557 49.3904C25.6268 49.3031 23.5568 49.0122 22.2449 47.3543C20.8455 45.5509 20.6414 42.5259 22.1283 41.217C22.9446 40.4898 24.0233 40.548 24.2274 40.548C25.6268 40.548 27.172 41.566 27.2012 42.7004C27.2303 43.224 26.9096 43.8057 26.4723 44.0675C26.0933 44.3002 25.481 44.4456 25.1312 44.1547C24.9563 44.0093 24.8105 43.7184 24.898 43.5148C24.9563 43.3403 25.1312 43.3403 25.3353 43.1658C25.5102 42.9913 25.6851 42.6713 25.656 42.4386C25.5977 41.9441 24.5481 41.4787 23.7609 41.7405C23.0612 41.9732 22.7697 42.6422 22.6822 42.8167C22.0408 44.2129 22.7405 46.2199 23.9942 47.3543C25.3353 48.5469 27.3469 48.8377 29.242 48.1396C29.4752 47.4125 29.7668 46.7435 30.0583 46.0745C31.0787 43.922 33.0612 41.886 35.5977 42.4968C38.2507 43.1367 36.9971 45.4636 35.277 46.8598C34.1691 47.7615 32.6239 48.4305 30.9912 48.8377C30.7872 49.4485 30.6122 50.0885 30.5248 50.6993C30.1749 53.2008 30.8746 55.5568 33.3528 56.4003C33.8775 56.5748 34.6647 56.8948 35.5394 56.6621C36.9096 56.284 37.9592 54.6551 37.5802 53.9861C37.4052 53.6371 36.793 53.4625 36.3265 53.5498C35.7726 53.6661 35.6268 54.1315 35.1603 54.0734C34.898 54.0443 34.6647 53.8698 34.5481 53.6371C34.4315 53.4335 34.4315 53.2008 34.4898 53.0553C34.723 52.2991 36.9971 51.7173 38.3673 52.7645C40.7872 54.626 37.9592 57.4184 35.8017 57.6801ZM35.3061 43.7766C35.4519 42.0605 32.274 45.8999 31.9825 46.5399C31.8367 46.8307 31.7201 47.1216 31.5743 47.4125C33.5568 46.6271 35.1603 45.3473 35.3061 43.7766Z" fill="#657150"/>
<path d="M3.11953 75.5392C3.20699 75.6555 3.67347 75.4228 4.05248 75.2192C4.5481 74.9284 14.2566 69.3728 14.6356 66.4059C14.6647 66.2023 14.723 65.6496 14.4023 65.2715C14.0816 64.8643 13.4985 64.8643 13.2945 64.8643C10.6706 64.8061 5.68513 72.2524 3.64431 74.6957C3.46938 74.8702 3.03207 75.4228 3.11953 75.5392Z" fill="#657150"/>
</g>
<defs>
<clipPath id="clip0_328_1403">
<rect width="80" height="79" fill="white" transform="matrix(1 0 0 -1 0 79)"/>
</clipPath>
</defs>
</svg>
