<svg width="223" height="257" viewBox="0 0 223 257" fill="none" xmlns="http://www.w3.org/2000/svg">
<g clip-path="url(#clip0_1_5674)">
<path d="M78.3228 179.047C78.6864 178.654 79.0802 178.321 79.4741 177.958C79.3226 177.776 79.2014 177.595 79.0802 177.383C78.7469 176.839 79.3226 176.082 79.9286 176.415C80.2013 176.566 80.474 176.687 80.7164 176.839C91.1392 168.097 107.955 164.618 121.529 168.187C121.62 168.157 121.741 168.157 121.832 168.127C117.742 165.737 113.621 163.559 109.409 161.593H109.379C109.288 161.623 109.228 161.653 109.137 161.623C108.652 161.502 108.137 161.381 107.652 161.26C97.4414 159.385 85.7763 161.986 75.6565 160.564C67.4758 159.445 57.5983 153.698 58.6588 144.169C58.6588 144.109 58.6891 144.078 58.7194 144.048C58.6285 144.018 58.5376 143.988 58.4467 143.957C57.7498 143.746 57.9316 142.778 58.6588 142.838C104.319 147.769 147.738 177.383 174.825 214.167C172.037 208.328 169.25 202.521 166.25 196.834C159.069 183.1 151.404 169.609 143.284 156.42C135.891 147.103 127.256 139.632 117.833 133.158C97.5323 127.562 72.1418 129.498 54.7805 116.945C46.7513 111.137 27.4509 96.8589 32.1775 84.6986C31.6018 84.2751 31.0565 83.8516 30.4808 83.3374C29.6021 82.5206 30.7838 81.1292 31.723 81.9156C32.026 82.1879 32.3593 82.4299 32.6926 82.6719C32.9653 82.5811 33.238 82.6114 33.4198 82.9441C33.4804 83.0651 33.5713 83.1559 33.6319 83.2769C40.6309 87.5723 50.9023 86.7556 58.5073 89.0243C66.6274 91.414 74.4445 94.5599 82.0495 98.2504C96.7445 105.359 108.167 116.582 117.257 129.861C124.135 134.399 130.619 139.571 136.285 145.47C134.315 142.415 132.346 139.36 130.316 136.365C117.075 116.945 101.744 98.5831 84.6552 82.4601C83.0797 80.9779 81.4738 79.5562 79.868 78.1344C64.9609 70.1183 48.2663 66.4581 33.7834 57.716C17.3008 47.7639 9.21094 27.164 0.151566 11.2225C-0.212021 10.557 0.0909576 9.37727 1.03023 9.43777C38.9039 11.9787 61.5675 44.2247 79.3529 74.3835C81.7466 76.3497 84.1099 78.3462 86.4429 80.4032C93.3813 86.5741 99.835 93.3197 106.016 100.398C105.986 100.338 105.955 100.277 105.925 100.217C105.319 99.0066 104.743 97.7664 104.198 96.4959C104.016 96.4959 103.834 96.4657 103.683 96.2842C81.5647 70.9048 72.9599 28.8277 95.9567 1.87539V1.84514C95.8052 1.36115 96.1991 1.0889 96.593 1.1494C96.8051 0.907404 96.9869 0.695658 97.199 0.453661C97.6232 -8.16174e-05 98.4109 -0.12108 98.8957 0.332663C109.591 10.8897 112.348 27.5875 114.5 41.8653C115.863 51.0006 115.893 59.773 114.136 68.8478C113.5 72.0845 112.682 74.2625 110.743 76.8942C104.925 84.8498 105.319 90.1133 106.895 98.2504C107.622 100.217 108.379 102.153 109.167 104.058C114.712 110.653 119.984 117.519 125.074 124.416C121.499 116.793 119.075 108.021 121.135 101.185C119.832 99.8536 119.105 97.9781 118.984 96.0724C118.832 93.1987 120.044 89.6293 122.802 88.268C126.498 86.4531 130.952 89.6293 131.77 93.3802C131.891 93.9247 131.346 94.5902 130.77 94.2574C130.073 93.8642 129.255 93.1382 128.437 92.4425C128.467 92.503 128.498 92.5937 128.498 92.6542C129.013 93.1987 129.498 93.7735 129.922 94.4087C131.285 95.9817 131.679 98.3109 130.922 100.277C129.982 102.758 126.862 103.181 124.589 102.909C124.165 102.848 123.771 102.758 123.408 102.637C123.135 111.56 125.013 121.149 128.77 129.438C128.922 129.649 129.073 129.831 129.195 130.043C136.951 140.811 144.041 152.034 150.737 163.468C149.283 156.995 148.677 150.34 148.495 143.655C145.071 128.984 139.648 114.948 140.769 99.2789C141.587 87.8446 141.435 63.7659 153.04 56.9295C153.464 56.6875 153.949 56.8388 154.252 57.1413C167.795 54.8726 170.038 78.7697 171.068 87.4513C171.946 94.9532 172.249 102.758 171.553 110.32C169.977 127.018 156.797 140.932 152.222 156.874C152.585 160.655 152.979 164.467 153.525 168.308C158.675 177.262 163.584 186.337 168.401 195.442C169.371 197.287 170.371 199.133 171.34 200.978C171.25 196.622 171.674 192.357 172.431 188.152C172.28 188.122 172.128 188.031 172.037 187.849C161.524 156.995 190.52 121.301 219.849 115.16C220.364 115.039 220.788 115.251 221 115.735C221.122 116.007 221.243 116.279 221.364 116.551C221.606 117.005 221.849 117.489 222.061 117.973C222.182 118.215 221.97 118.457 221.758 118.548C225.848 126.927 219.122 136.153 214.335 143.171C208.669 151.49 204.457 160.443 198.973 168.853C192.55 178.654 181.642 182.314 174.916 191.54C174.673 191.873 174.31 191.963 174.007 191.873C173.401 196.047 173.067 200.131 173.007 203.972C182.066 220.973 191.247 238.336 197.882 256.274C198.125 256.879 197.185 257.333 196.852 256.758C190.126 246.05 184.49 234.525 179.006 222.939C178.976 222.909 178.945 222.848 178.915 222.818C178.794 222.818 178.673 222.757 178.552 222.606C172.977 214.56 165.402 208.359 157.191 203.156C151.252 199.405 144.223 197.439 138.103 194.535C137.497 196.713 136.285 198.618 134.255 198.558C133.649 199.072 132.952 199.526 132.134 199.768C127.801 201.19 123.801 198.951 123.014 194.474C122.983 194.293 122.983 194.141 122.953 193.96C122.923 194.02 122.923 194.051 122.892 194.111C122.65 194.656 121.862 194.535 121.681 194.02C120.287 190.118 123.135 186.125 126.68 184.492C127.104 184.25 127.559 184.068 128.013 184.008C128.346 183.917 128.68 183.796 129.013 183.766C129.255 183.736 129.437 183.857 129.558 184.038C130.134 184.159 130.679 184.371 131.194 184.673C131.376 184.794 131.528 184.976 131.679 185.127C134.648 184.462 137.254 185.944 138.284 189.211C138.527 190.027 138.587 191.237 138.466 192.508C149.101 195.503 159.13 200.796 167.402 208.086C156.736 195.382 144.98 183.917 131.164 174.086C130.649 173.723 130.134 173.39 129.619 173.027C126.74 171.454 123.741 170.365 120.711 169.7C116.348 171.696 114.621 177.655 110.894 180.348C107.713 182.616 104.471 183.705 100.623 184.401C94.4115 185.551 85.2612 184.189 80.5952 179.289C80.0498 179.531 79.5347 179.773 78.9893 180.015C78.4137 180.227 77.8986 179.44 78.3228 179.047ZM77.5653 149.735C79.2317 150.673 80.8982 151.58 82.6858 152.306C85.7763 153.577 89.2607 154.394 92.7148 154.757C87.7457 152.972 82.6555 151.338 77.5653 149.735ZM95.472 155.845C87.0186 156.148 77.6865 153.849 71.4449 147.86C67.5667 146.68 63.6278 145.53 59.6889 144.381C62.1431 149.281 63.2036 153.335 68.5362 156.208C73.8385 159.082 80.8073 159.082 86.6247 159.203C88.5638 159.233 90.5635 159.233 92.533 159.203C81.4133 157.963 69.8997 156.057 64.5065 146.922C64.1732 146.377 64.8398 145.803 65.3245 146.196C72.5054 151.913 78.5955 154.999 87.7457 156.541C93.1086 157.449 98.4412 157.933 103.683 159.082C100.986 157.902 98.2292 156.874 95.472 155.845ZM106.895 126.352C100.017 122.329 92.836 118.669 85.5036 115.069C74.2324 109.564 62.9006 104.421 51.2052 99.8234C48.2662 98.6739 45.4787 97.4034 42.9336 95.8304C59.8101 113.617 83.6554 117.277 106.895 126.352ZM103.319 121.664C85.0188 109.896 65.5063 102.516 45.6605 94.0154C51.9021 97.7664 58.7194 100.459 65.8093 103.514C77.6865 108.656 89.3213 114.555 100.865 120.363C101.683 120.786 102.501 121.24 103.319 121.664ZM35.5407 89.5688C34.7529 89.2058 33.9349 88.8428 33.1471 88.4798C33.9349 104.21 61.3857 119.183 72.8993 122.359C83.3524 125.263 94.6842 125.112 105.349 127.229C79.2317 117.459 51.387 114.192 35.5407 89.5688ZM67.4455 94.1969C59.3859 91.1115 51.9021 89.0545 43.4184 88.389C40.7218 88.1773 38.4191 87.8143 36.2982 87.0278C36.9951 87.6631 37.6919 88.268 38.4191 88.8428C64.9306 97.3732 92.1694 109.322 113.379 127.29C113.409 127.32 113.409 127.35 113.409 127.381C113.924 127.683 114.439 127.986 114.924 128.288C102.289 112.377 86.7459 101.608 67.4455 94.1969ZM5.90836 14.0357C4.90849 18.5126 13.6649 30.8847 15.0586 33.2442C21.8153 44.8902 30.5111 53.7836 42.5397 59.894C52.2354 64.7944 62.7491 67.1539 72.3842 71.7215C72.2327 71.5703 72.0509 71.4493 71.8691 71.3283C44.1456 59.289 22.088 39.9293 6.12045 14.2474C6.02956 14.1567 5.96895 14.0962 5.90836 14.0357ZM62.6885 64.0382C53.4474 56.869 44.0547 49.8511 35.2983 42.1073C27.5115 36.1784 20.2397 29.221 13.3619 22.0518C20.4215 31.0964 27.7842 39.9293 36.4497 47.5522C44.2971 54.4793 53.5686 59.1377 62.6885 64.0382ZM6.72644 12.7955C17.9067 22.3846 28.2084 33.2744 38.9342 43.3777C46.721 49.6696 54.8108 55.5986 62.84 61.588C57.3862 55.8405 52.0536 49.9116 46.5695 44.2852C34.6317 32.0342 20.9366 22.2938 6.84764 12.735C6.81734 12.7652 6.75674 12.7652 6.72644 12.7955ZM9.72603 12.5837C9.27155 12.493 8.87766 12.4627 8.51407 12.4325C31.9351 27.2547 54.1139 46.1305 72.6569 67.1539C55.7198 43.8617 40.3885 19.0571 9.72603 12.5837ZM96.9566 46.9774C96.9566 55.1751 97.8959 63.7054 99.5623 72.145C99.0169 50.5771 102.592 28.737 97.502 7.3203C94.3509 18.1799 96.9566 36.0876 96.9566 46.9774ZM94.7145 10.7083C92.2603 21.6283 89.9576 31.5502 90.0484 43.4685C90.1393 55.6591 93.8661 67.3051 98.7442 78.3764C96.4415 67.7286 95.4114 56.6573 94.8963 47.0682C94.4115 38.2051 95.5629 29.4327 94.866 20.5393C94.5933 17.3329 94.26 13.945 94.7145 10.7083ZM103.38 85.9691C103.562 81.2199 111.015 71.903 111.985 68.3639C116.53 51.9384 111.288 30.8242 105.652 15.3667C105.774 15.6994 101.895 4.90034 98.2595 4.29535C102.986 16.3649 102.562 29.3722 102.744 42.2585C102.925 56.4153 102.592 70.5418 102.562 84.6986C102.835 85.6363 103.077 86.6043 103.35 87.5118C103.38 87.0278 103.38 86.5136 103.38 85.9691ZM100.744 86.8766C94.563 76.4707 91.321 64.4919 89.2304 52.6038C86.3217 35.9364 90.2908 22.9593 94.3206 7.6228C91.9876 10.8897 90.1999 14.4894 88.5335 18.1496C84.5037 27.043 84.2917 37.2673 85.14 46.7959C86.5338 62.3139 93.8055 75.6237 101.108 88.9335C100.986 88.2378 100.865 87.5723 100.744 86.8766ZM126.589 92.1702C126.528 91.898 126.437 91.656 126.377 91.4745C126.316 91.3535 126.377 91.2325 126.407 91.1115C125.862 90.8997 125.316 90.809 124.771 90.93C124.165 91.0812 123.711 91.535 123.347 92.0795C123.559 92.1702 123.741 92.3215 123.801 92.624C123.892 93.229 124.044 93.8037 124.226 94.3784C124.347 94.3482 124.438 94.2877 124.559 94.2877C125.074 94.2574 125.589 94.4087 126.074 94.2877C126.65 94.1667 126.771 93.592 126.74 92.9567C126.498 92.7147 126.498 92.4122 126.589 92.1702ZM127.134 97.9479C127.74 98.0991 128.104 98.1596 128.316 97.7967C128.589 97.2522 128.528 96.5262 128.286 95.7699C128.225 95.8607 128.225 95.9212 128.164 96.0119C127.559 96.8892 126.437 97.2219 125.377 97.0707C125.498 97.2824 125.589 97.4639 125.71 97.6757C126.195 97.7362 126.65 97.8269 127.134 97.9479ZM142.496 104.452C142.072 113.92 144.496 122.874 147.041 131.827C144.526 109.019 148.283 83.4886 151.737 61.1645C143.496 72.0543 143.041 92.019 142.496 104.452ZM152.888 59.773C151.889 72.629 150.404 85.3943 149.586 98.2806C149.071 106.388 149.222 114.525 149.192 122.632C149.253 121.633 149.313 120.605 149.374 119.607C150.798 99.5814 151.858 79.6469 152.979 59.652C152.949 59.6822 152.919 59.7125 152.888 59.773ZM154.222 58.4723C156.888 75.2607 153.888 93.4105 152.343 110.199C151.283 121.573 151.01 132.493 151.434 143.413C153.131 135.82 155.949 128.409 157.979 120.877C163.251 101.275 160.19 77.832 154.312 58.805C154.282 58.684 154.312 58.5933 154.343 58.4723C154.282 58.5025 154.252 58.5025 154.222 58.4723ZM169.674 102.334C169.795 91.1418 169.916 61.8602 155.555 58.7747C161.584 74.081 162.917 91.051 161.645 107.386C160.493 121.966 154.858 135.336 152.343 149.554C157.736 133.491 169.492 120.333 169.674 102.334ZM183.521 180.015C192.944 174.086 198.488 165.193 203.578 155.604C209.063 145.258 222.849 131.979 220.334 119.697C217.758 129.922 211.668 138.059 205.093 146.317C196.367 157.267 189.762 169.488 182.006 181.013C182.521 180.65 182.975 180.348 183.521 180.015ZM177.824 184.129C183.369 174.358 189.429 164.83 195.731 155.543C203.821 143.594 214.516 133.703 218.91 119.728C202.942 140.69 190.035 161.865 177.188 184.673C177.4 184.522 177.612 184.341 177.824 184.129ZM217.849 119.123C195.913 130.224 180.37 159.536 175.037 185.883C183.884 161.684 200.276 137.908 217.849 119.123ZM185.157 154.152C191.974 140.66 201.7 122.39 216.971 117.066C207.245 117.943 189.459 136.577 186.217 140.569C175.552 153.758 173.795 168.55 173.249 184.552C175.673 173.995 180.248 163.862 185.157 154.152ZM128.407 187.698C128.377 187.729 128.377 187.729 128.346 187.729C128.346 187.729 128.316 187.789 128.195 187.91C128.134 187.97 127.892 188.333 127.831 188.394C127.528 188.878 127.286 189.362 127.104 189.876C126.771 190.693 126.559 192.024 126.589 193.022C126.619 195.23 127.437 196.622 129.77 196.531C129.982 196.531 130.134 196.471 130.316 196.44C129.952 195.321 130.043 194.202 129.982 193.022C129.892 191.177 129.498 189.392 128.558 187.789C128.528 187.729 128.558 187.668 128.528 187.638C128.498 187.638 128.467 187.668 128.407 187.698ZM133.043 186.791C133.558 187.668 133.8 188.454 133.921 189.332C134.618 190.027 135.133 190.814 135.527 191.691C135.618 191.721 135.679 191.721 135.77 191.752C135.8 191.328 135.86 190.935 135.86 190.511C135.8 188.485 134.618 187.275 133.043 186.791ZM112.924 168.883C107.228 172.362 99.9562 173.783 93.4116 173.209C93.3207 173.209 93.2298 173.148 93.1995 173.088C90.6544 174.237 88.2002 175.508 85.7157 176.778C97.0475 176.294 107.713 175.961 117.439 169.155C115.924 168.974 114.439 168.913 112.924 168.883ZM110.985 177.323C112.833 175.538 114.227 173.511 115.772 171.817C107.046 177.595 94.2903 181.679 84.5643 177.746C84.4432 177.686 84.3522 177.595 84.3219 177.474C83.9281 177.686 83.5342 177.867 83.1403 178.079C92.1088 182.465 102.653 185.339 110.985 177.323Z" fill="white"/>
</g>
<defs>
<clipPath id="clip0_1_5674">
<rect width="223" height="257" fill="white" transform="matrix(-1 0 0 1 223 0)"/>
</clipPath>
</defs>
</svg>
