<svg width="871" height="1153" viewBox="0 0 871 1153" fill="none" xmlns="http://www.w3.org/2000/svg">
<path d="M869.927 480.524C870.155 479.926 870.384 479.328 870.612 478.73C871.083 477.197 870.107 476.049 868.878 475.741C868.42 473.534 867.962 471.328 867.356 469.088C866.618 466.478 863.426 465.696 861.683 467.932C831.878 507.104 768.753 519.522 725.905 538.772C696.639 551.963 662.663 570.802 659.369 605.255C658.746 606.228 658.02 607.115 657.355 608.14C656.656 609.313 657.528 610.376 658.515 610.66C641.075 621.323 625.256 633.836 613.992 650.254C618.861 633.136 622.985 615.757 626.52 598.245C626.805 598.217 626.995 598.198 627.261 597.979C646.168 579.884 648.715 554.325 657.289 531.084C659.539 529.612 661.737 528.098 663.997 526.721C698.555 505.044 743.436 483.098 760.062 443.426C760.96 441.371 759.183 439.393 757.195 439.161C733.775 436.382 709.378 437.774 685.78 442.873C689.628 431.895 693.338 420.98 696.954 410.074C698.158 410.624 699.9 409.347 699.257 407.686C698.992 406.946 698.769 406.154 698.504 405.413C699.027 403.923 699.508 402.485 699.979 400.952C742.983 361.51 794.454 329.175 814.45 271.769C827.477 234.471 835.622 181.751 813.891 145.735C814.246 141.578 814.359 137.397 813.954 133.316C813.747 131.228 810.782 131.765 810.476 133.521C810.181 135.372 809.79 137.232 809.399 139.092C809.181 138.827 808.963 138.561 808.745 138.295C808.078 136.877 807.315 135.467 806.552 134.058C806.552 134.058 806.552 134.058 806.595 134.006C806.952 133.251 806.307 132.549 805.572 132.383C804.88 131.207 804.231 129.978 803.445 128.811C802.151 126.88 799.103 129.006 800.164 131.009C800.515 131.645 800.718 132.247 801.026 132.935C800.623 133.215 800.323 133.581 800.138 134.126C765.509 220.365 655.643 298.814 692.749 400.527C690.612 403.138 688.527 405.791 686.598 408.572C685.42 410.224 687.795 412.43 689.329 410.982C690.117 410.232 690.905 409.482 691.693 408.732C688.172 420.587 684.736 432.338 681.135 443.866C668.218 446.982 655.585 451.029 643.558 456.357C653.989 409.782 650.634 362.386 647.572 315.055C651.959 317.251 656.393 314.602 660.119 312.072C664.833 308.867 669.084 303.888 674.039 300.707L673.997 300.76C673.534 303.346 673.561 305.548 674.147 307.598C674.104 308.609 674.06 309.619 674.111 310.621C674.276 312.761 676.225 313.572 677.976 313.348C678.701 313.419 679.537 313.144 679.997 312.474C680.04 312.422 680.04 312.422 680.083 312.37C680.477 311.995 680.776 311.63 680.962 311.084C681.038 310.884 681.071 310.737 681.147 310.538C682.635 307.657 682.931 304.848 682.721 301.274C682.807 300.211 682.542 299.471 682.14 298.793C682.017 297.559 681.8 296.335 681.626 295.058C681.399 293.739 679.906 292.691 678.596 293.014C672.868 294.69 668.353 298.929 663.989 302.77C660.689 305.737 653.342 314.285 648.273 311.966C647.917 311.762 647.589 311.843 647.314 311.966C647.062 307.487 646.767 303.059 646.515 298.58C652.714 283.772 660.228 269.168 668.466 255.594C669.311 255.414 670.066 254.811 670.333 253.634C670.499 252.898 670.623 252.215 670.842 251.522C670.833 251.427 670.875 251.375 670.866 251.28C670.942 251.08 670.966 250.838 670.947 250.649C671.005 250.259 671.114 249.913 671.171 249.524C689.309 254.606 697.6 218.837 674.12 219.323C671.297 219.367 668.562 221.75 669.347 224.834C671.059 231.468 674.022 233.806 680.175 234.483C679.588 238.711 675.134 243.088 670.501 240.342C668.106 238.904 664.058 240.125 664.146 243.423C664.299 246.427 664.401 249.388 664.365 252.411C664.36 252.843 664.45 253.265 664.677 253.626C662.154 263.943 652.853 276.474 648.41 285.306C647.569 286.972 646.832 288.723 646.043 290.432C645.235 275.033 644.756 259.554 645.096 244.136C646.239 244.548 647.63 243.594 646.963 242.175C640.702 229.288 657.525 207.569 670.364 195.929C671.716 196.512 673.381 196.393 674.772 195.439C679.519 192.088 685.424 183.492 677.485 179.783C668.584 175.548 662.696 187.209 662.433 194.232C662.366 195.485 663.347 196.202 664.315 196.296C658.189 203.141 651.075 210.66 646.39 218.51C647.584 204.923 649.545 191.356 652.76 177.854C657.433 178.104 661.934 174.202 665.224 171.14C668.918 167.799 671.721 163.204 671.266 158.122C670.429 149.675 660.953 145.929 653.584 146.524C652.868 146.548 652.222 146.805 651.567 146.966C650.795 145.462 647.902 145.273 647.33 147.247C647.197 147.836 647.064 148.424 646.93 149.013C641.404 153.209 639.253 161.476 643.921 167.478C644.191 167.786 644.504 168.043 644.893 168.099C645.293 171.654 646.471 175.322 649.601 176.925C649.852 177.043 650.094 177.067 650.345 177.185C644.796 197.583 641.803 218.155 640.461 238.945C624.716 231.898 617.853 212.937 607.058 198.78C610.405 196.287 613.178 193.326 614.376 190.905C615.65 188.285 612.042 185.244 609.602 186.735C608.358 187.723 606.991 188.435 605.501 188.872C604.296 189.28 604.266 190.913 605.067 191.743C604.407 192.336 603.695 192.887 602.921 193.3C602.269 190.586 601.014 188.076 599.269 186.909C597.88 185.946 595.982 186.136 594.14 186.896C592.936 186.346 591.322 186.508 590.633 187.775C590.182 188.539 589.878 189.336 589.573 190.134C587.142 192.678 585.545 195.905 586.748 198.373C587.582 200.014 588.558 201.162 589.696 202.007C591.207 204.203 593.782 205.527 597.682 205.231C600.064 205.088 601.555 203.693 602.43 201.88C614.258 216.796 621.982 238.642 640.192 242.998C639.078 263.19 639.364 283.482 640.186 303.863C639.382 305.909 638.527 307.911 637.775 310C637.1 311.888 639.215 312.922 640.572 312.115C641.121 324.425 641.818 336.767 642.419 349.12C632.345 339.826 628.838 324.746 622.671 312.808C616.671 301.093 610.318 289.701 604.963 277.73C619.093 276.217 625.833 251.387 608.572 246.936C592.298 242.769 578.067 266.961 594.899 273.851C595.201 275.93 595.518 276.713 596.546 278.862C597.346 280.651 599.291 280.935 600.805 280.256C607.785 295.563 616.036 310.167 623.662 325.217C629.137 335.978 631.29 347.073 642.596 352.84C644.211 387.999 644.963 423.148 639.833 457.928C622.741 465.825 606.929 475.989 593.24 488.241C581.309 471.322 564.517 452.255 561.831 430.958C575.174 433.598 585.05 414.3 574.51 401.746C557.737 381.91 532.675 406.565 553.101 420.236C551.581 422.305 551.218 425.409 554.002 426.903C554.106 426.988 554.253 427.022 554.357 427.107C555.348 427.918 556.33 428.634 557.344 429.204C559.227 451.587 575.655 475.675 591.004 490.334C564.447 514.899 546.348 547.434 543.751 586.993C541.903 590.102 540.064 593.306 538.363 596.448C536.469 597.165 534.618 597.829 532.672 598.504C528.824 599.8 529.971 606.059 533.872 604.806C529.172 613.951 525.017 623.282 521.398 632.703C519.362 612.635 515.479 592.8 509.2 573.445C506.357 564.577 503.798 555.68 501.377 546.721C502.236 546.203 502.868 545.325 502.693 544.049C498.403 513.328 510.081 483.21 516.531 453.521C521.057 432.46 519.035 412.055 515.651 390.972C507.436 340.468 481.103 293.795 443.534 259.462C441.586 257.693 438.401 258.923 438.873 261.751C447.717 315.211 424.875 367.583 430.103 421.309C434.961 470.808 476.767 503.9 495.237 547.624C495.648 549.356 496.017 551.14 496.523 552.863C509.579 601.922 518.583 645.397 515.194 696.777C513.67 719.599 510.253 742.178 505.565 764.502C503.774 750.304 499.787 736.662 494.817 723.262C494.917 722.821 494.974 722.432 494.875 721.915C484.461 641.008 485.577 504.311 378.129 497.882C378.067 497.744 378.1 497.597 378.039 497.46C377.722 495.718 375.473 496.231 375.287 497.736C373.94 497.679 372.635 497.57 371.288 497.514C367.549 497.505 367.164 503.295 370.955 503.346C372.587 503.374 374.176 503.454 375.818 503.577C380.192 546.75 388.651 590.04 404.728 630.41C421.756 673.128 465.89 686.674 489.271 723.867C489.612 724.408 490.081 724.792 490.584 725.029C496.756 740.896 501.491 757.243 503.412 774.686C497.634 800.043 490.387 825.068 482.437 849.779C481.443 852.802 486.058 854.4 487.095 851.325C510.272 784.925 527.872 711.081 522.147 639.768C527.49 626.964 533.209 614.553 539.648 602.645C573.823 590.159 602.222 569.196 631.332 548.64C622.881 598.754 613.235 648.413 594.558 695.911C594.025 697.306 593.336 698.573 592.803 699.968C583.499 673.776 585.033 644.772 577.252 617.995C576.949 616.875 575.484 616.112 574.525 617.071C574.397 617.227 574.311 617.332 574.183 617.488C573.042 614.2 567.073 614.895 567.165 618.719C567.15 619.056 567.179 619.341 567.259 619.668C567.37 622.724 567.942 625.111 569.031 627.398C569.064 628.21 569.044 628.978 568.878 629.714C567.846 632.358 570.715 633.747 572.675 632.736C573.837 633.338 575.418 632.365 575.182 630.951C575.012 630.201 574.936 629.442 574.861 628.683C575.133 627.074 575.206 625.389 575.036 623.681C575.993 620.278 576.951 630.917 577.079 631.719C578.802 640.892 579.586 650.254 580.698 659.536C582.525 675.072 584.523 690.399 590.745 704.824C569.247 754.808 536.141 797.906 499.93 838.2C495.352 843.26 490.827 848.363 486.31 853.56C485.897 853.746 485.494 854.026 485.256 854.529L481.409 859.228C481.101 859.498 480.844 859.812 480.64 860.168C421.622 928.532 369.723 1004.91 371.861 1099.01C371.977 1102.59 377.575 1102.99 377.502 1099.35C376.252 1031.62 402.716 976.628 438.628 926.06C455.093 929.249 469.646 916.048 483.587 907.317C484.355 908.295 485.517 908.897 486.964 908.512C490.409 907.496 491.802 904.624 492.925 901.445C493.643 899.504 491.363 897.288 489.464 898.437C481.67 902.957 474.259 907.965 466.693 912.846C459.306 917.612 450.396 922.963 441.316 922.244C454.849 903.586 469.63 885.426 484.723 867.522C485.41 868.172 486.302 868.466 487.379 868.214C525.266 858.855 556.355 838.436 585.264 814.402C587.047 814.99 590.431 813.836 593.193 812.696C605.31 807.791 618.41 806.046 631.128 802.853C641.786 800.155 652.278 797.233 662.965 794.82C662.3 795.845 661.687 796.913 660.988 798.085C659.924 799.917 662.152 802.09 663.823 800.58C666.463 798.207 668.344 795.91 670.187 793.233C670.989 793.104 671.781 792.881 672.583 792.753C673.428 792.572 674.24 791.58 673.956 790.65C673.559 789.54 673.213 788.472 672.764 787.319C672.305 786.071 670.36 785.787 669.486 786.641C667.781 788.298 666.447 789.822 665.174 791.483C662.199 791.925 658.427 792.064 656.462 792.548C646.018 794.986 635.578 797.95 625.162 800.672C617.313 802.705 609.469 804.306 601.582 805.96C600.6 806.202 595.631 807.803 591.721 808.962C594.679 806.413 597.637 803.864 600.638 801.262C601.71 801.442 602.958 800.982 603.395 799.596C603.505 799.249 603.614 798.903 603.766 798.504C613.538 789.761 623.186 780.742 632.887 771.765C633.432 771.95 634.139 771.831 634.41 771.181C634.563 770.782 634.705 770.289 634.857 769.89C638.371 766.662 641.842 763.487 645.408 760.301C669.266 767.014 692.338 755.643 713.891 745.382C714.398 746.146 715.214 746.639 716.239 746.344C716.471 746.273 716.799 746.193 717.083 746.164C717.093 746.259 717.145 746.302 717.154 746.396C717.277 746.672 717.453 746.99 717.671 747.255L717.723 747.298C717.941 747.564 718.244 747.725 718.496 747.843C718.6 747.929 718.799 748.005 718.946 748.038C719.093 748.071 719.24 748.104 719.387 748.137C719.534 748.171 719.724 748.152 719.914 748.133C721.782 749.575 724.068 750.4 726.516 750.921C734.48 752.471 744.103 745.611 744.58 737.368C745.017 730.662 739.613 725.453 733.404 724.207C728.76 723.283 723.88 726.264 721.6 730.327C720.95 730.057 720.276 730.029 719.754 730.56C716.995 733.185 715.441 736.36 715.661 740.028C715.618 740.081 715.575 740.133 715.575 740.133C695.141 751.048 671.215 762.506 648.09 757.876C654.339 752.265 660.649 746.792 667.021 741.456C674.252 745.284 683.037 741.575 690.4 737.051L690.357 737.103C690.389 738.873 692.171 740.419 693.899 739.479C698.816 736.877 700.007 731.486 701.625 726.532C702.923 722.711 698.518 720.325 695.513 722.4C693.59 723.791 691.383 725.21 690.052 727.261C689.763 727.721 689.62 728.215 689.529 728.751C684.507 732.226 679.323 735.046 673.487 736.111C691.69 721.537 710.958 708.534 732.274 698.777C732.401 699.578 732.381 700.347 732.604 701.14C734.093 706.981 739.01 710.657 745.007 710.247C754.567 709.528 761.748 701.715 760.029 692.111C758.816 685.188 753.086 678.142 746.147 676.298C737.191 673.937 729.17 683.416 731.459 692.005C731.558 692.522 731.88 692.873 732.245 693.172C732.212 693.319 732.231 693.509 732.207 693.751C707.366 704.198 685.552 719.565 665.013 736.673C664.875 736.735 664.79 736.839 664.662 736.996C655.589 744.568 646.786 752.447 638.087 760.413C643.744 742.545 646.384 723.254 651.287 705.03C651.78 705.172 652.392 705.063 652.673 704.507C653.837 702.234 654.583 700.578 654.689 698.746C654.931 698.77 655.088 698.898 655.33 698.921C663.978 699.635 674.752 688.922 673.636 680.072C672.769 673.258 665.983 669.098 659.659 668.63C655.124 668.318 650.814 671.242 649.757 675.086C648.871 674.361 647.239 674.333 646.516 675.747C643.085 682.705 643.313 692.746 649.624 696.953C642.602 718.936 637.04 742.115 633.125 764.984C631.326 766.65 629.569 768.264 627.769 769.93C620.666 776.585 613.501 783.103 606.336 789.62C606.807 788.087 607.278 786.554 607.792 784.969C608.396 782.848 606.054 781.453 604.492 782.616C604.679 780.154 604.772 777.7 604.959 775.237C605.184 772.195 605.037 761.523 607.149 755.752C607.315 755.975 607.428 756.155 607.646 756.421C608.447 757.251 609.567 756.947 610.043 755.941C610.95 753.981 612.665 751.46 612.345 749.192C612.639 749.258 612.89 749.377 613.132 749.401C621.102 750.518 627.336 744.286 628.026 736.74C628.587 730.31 625.395 723.25 619.553 720.385C616.831 719.029 613.244 719.58 610.77 721.218C606.769 723.872 605.232 728.196 604.683 732.804C604.563 734.014 606.185 734.905 607.101 733.999C608.849 732.29 611.029 729.627 613.264 728.492C614.038 728.079 614.665 727.633 615.139 727.585C616.027 727.353 615.993 727.5 616.339 727.609C616.486 727.642 616.842 727.846 617.572 728.444C617.207 728.145 618.672 729.867 618.61 729.729C619.633 731.352 620.059 732.747 620.342 734.636C620.8 737.801 619.829 740.582 616.559 741.916C614.898 742.562 611.173 743.175 610.079 741.32C608.767 739.199 610.388 735.73 611.755 734.059C612.61 733.015 611.146 731.293 610.021 732.029C606.783 734.174 604.408 737.288 604.476 741.355C604.568 744.221 606.009 746.185 608.057 747.513C601.751 749.152 601.996 755.981 601.17 761.671C599.4 773.303 598.702 785.114 598.288 796.897C588.593 805.442 578.784 813.806 568.6 821.776C557.481 830.464 545.524 837.941 533.268 844.825C521.923 851.235 501.237 852.351 492.054 861.227C492.272 860.534 492.396 859.851 492.615 859.158C492.767 858.76 492.773 858.328 492.735 857.948C506.812 841.392 521.088 824.912 534.671 808.214C559.838 777.366 578.94 743.82 593.84 708.491C594.77 708.206 595.487 707.223 595.037 706.07C594.985 706.028 594.976 705.933 594.966 705.838C600.952 691.291 606.141 676.442 610.785 661.407C615.841 652.465 622.371 644.382 629.874 636.92C629.588 637.907 630.873 638.784 631.766 638.12C660.739 616.667 696.053 625.346 729.285 627.525C758.086 629.476 782.366 621.099 806.755 606.096C850.08 579.562 878.399 530.714 869.927 480.524ZM654.622 170.047C654.688 169.753 654.764 169.554 654.788 169.312C655.131 167.935 653.096 167.229 652.659 168.615C652.559 169.056 652.459 169.497 652.264 169.948C650.691 167.614 650.708 163.443 650.611 161.008C650.546 159.385 650.628 157.796 650.71 156.206C651.574 155.256 652.633 154.815 654.132 154.473C656.149 154.031 658.208 154.495 660.261 155.392C661.76 156.008 663.215 157.635 663.484 158.902C663.843 160.592 662.465 163.126 660.727 164.93C659.127 166.672 657.19 168.4 655.258 169.696C655.215 169.748 654.94 169.871 654.622 170.047ZM601.493 269.308C601.166 268.43 600.754 267.657 600.428 266.779C599.827 265.066 597.478 265.062 596.339 266.135C594.899 263.212 595.655 260.692 598.651 258.522C606.139 251.397 612.492 272.47 601.493 269.308ZM560.664 420.148C560.455 419.978 560.247 419.807 559.995 419.688C559.734 419.475 559.493 419.451 559.18 419.195C558.284 418.374 557.307 418.185 556.358 418.28C556.305 418.237 556.391 418.133 556.287 418.047C553.965 414.925 553.081 411.324 553.782 407.276C559.475 401.385 564.1 402.119 567.647 409.384C571.342 415.723 567.094 424.104 560.664 420.148ZM448.925 274.689C498.753 335.54 486.267 404.414 486.258 474.433C482.667 452.221 479.731 429.847 477.165 407.34C472.486 365.923 468.426 321.089 449.847 283.031C449.522 280.236 449.25 277.484 448.925 274.689ZM435.181 420.321C430.458 390.554 437.981 359.128 442.699 329.852C443.405 325.372 446.078 312.212 447.769 299.294C452.25 372.553 458.112 451.041 485.608 517.678C486.162 518.917 488.056 518.2 487.787 516.933C478.657 475.1 467.397 434.486 461.404 391.907C456.722 358.686 453.981 325.222 450.765 291.805C477.634 359.847 475.985 438.466 487.872 511.509C488.45 517.825 489.313 524.112 490.365 530.381C471.838 493.324 442.013 463.151 435.181 420.321ZM493.228 511.882C490.131 429.379 509.684 340.914 450.695 273.697C487.318 309.609 506.797 360.613 512.911 410.704C517.81 450.469 497.021 487.779 496.266 526.578C495.165 521.752 494.244 516.812 493.228 511.882ZM395.182 506.523C428.692 526.981 448.238 554.494 462.24 591.334C473.718 621.574 471.455 654.341 478.364 685.375C463.791 650.509 459.117 613.98 446.319 578.649C439.537 560.016 429.117 545.294 416.466 532.233C410.037 521.999 402.131 512.823 392.032 505.689C393.114 505.964 394.195 506.239 395.182 506.523ZM458.961 645.77C454.756 636.223 450.889 626.691 447.804 616.84C441.573 597.001 436.212 574.822 427.88 554.571C437.319 568.577 444.545 584.434 449.485 604.786C452.666 618.03 455.301 632.047 458.961 645.77ZM379.114 504.445C379.096 504.255 379.077 504.065 379.015 503.927C379.689 503.956 380.372 504.079 381.003 504.159C380.87 504.748 380.874 505.274 381.405 505.796C394.318 517.153 405.601 527.524 415.213 538.445C430.353 564.531 436.544 597.506 445.999 625.216C453.674 647.546 464.44 668.656 474.645 689.917C445.654 661.386 431.102 630.113 418.127 591.062C408.223 561.239 399.118 529.803 379.385 504.753C379.356 504.468 379.261 504.478 379.114 504.445ZM442.243 671.936C396.734 635.812 389.421 566.863 380.214 511.188C398.759 544.073 409.379 579.191 421.878 614.887C432.573 645.445 448.314 679.522 477.624 696.28L477.719 696.27C479.106 699.151 480.494 702.031 481.786 704.92C469.875 692.552 455.868 682.743 442.243 671.936ZM484.76 700.117C470.31 629.248 471.019 550.82 405.697 509.638C469.435 533.39 478.367 622.066 484.816 685.686C485.427 691.855 486.039 698.024 486.702 704.236C486.034 702.817 485.376 701.493 484.76 700.117ZM798.074 296.559C781.341 329.34 750.343 349.223 722.469 372.099C748.973 336.852 773.032 298.208 792.546 260.115C807.64 230.613 821.354 193.965 815.781 160.45C832.369 201.152 816.447 260.498 798.074 296.559ZM810.807 162.482C825.208 241.072 749.3 315.492 706.648 381.209C722.121 335.711 738.528 291.412 764.967 249.223C779.857 225.396 802.434 193.562 810.807 162.482ZM735.954 245.615C741.593 237.237 747.44 229.031 753.34 220.867C723.705 271.428 696.787 323.778 692.325 381.256C684.293 332.124 707.365 287.876 735.954 245.615ZM695.467 396.037C694.861 393.798 694.36 391.643 693.85 389.394C694.116 389.176 694.33 388.915 694.387 388.526C710.513 295.947 762.758 225.961 802.132 143.607C803.091 142.648 804.125 142.449 805.515 143.412C806.168 145.167 806.821 146.923 807.37 148.593C796.681 192.079 771.237 230.287 747.463 267.943C723.015 306.531 708.685 351.483 695.467 396.037ZM547.68 580.704C553.709 533.229 583.227 496.961 624.562 472.112C643.104 460.955 663.975 453.974 684.784 448.772C689.41 447.589 714.867 443.837 732.312 444.34C663.896 458.007 560.85 500.356 549.343 578.141C548.806 579.01 548.217 579.836 547.68 580.704ZM551.384 582.777C561.213 567.366 572.37 552.78 585.728 539.124C619.344 504.553 660.8 488.175 705.693 474.087C707.364 473.536 706.939 471.183 705.136 471.364C643.486 479.32 590.651 519.173 554.725 570.077C578.658 496.796 668.079 464.92 736.835 447.433C738.24 447.101 738.582 445.724 738.142 444.666C739.352 444.784 740.424 444.965 741.496 445.145C708.96 481.907 669.31 500.549 625.604 522.76C596.044 537.802 567.822 556.208 550.926 584.932C551.145 584.239 551.217 583.513 551.384 582.777ZM633.471 538.792C633.428 538.845 633.428 538.845 633.385 538.897C605.885 557.806 580.39 578.095 549.877 591.746C594.262 518.379 703.543 518.633 745.442 446.282C748.681 447.539 750.079 449.555 748.316 452.56C728.003 487.905 679.797 508.698 646.867 529.877C642.315 532.778 637.867 535.764 633.471 538.792ZM635.239 545.996C641.282 541.699 647.482 537.531 653.682 533.363C647.942 553.779 641.341 577.589 627.388 593.462C630.438 577.82 633.038 561.984 635.239 545.996ZM728.66 734.363C729.8 733.291 730.929 733.082 731.551 733.067C733.278 733.086 735.07 734.727 735.495 736.122C735.727 737.01 735.622 737.883 735.342 738.438C734.363 740.166 732.644 741.201 730.77 742.107C728.757 743.076 726.115 743.006 724.094 741.962L724.365 741.312C724.67 740.515 724.481 739.575 724.111 738.75C725.802 737.43 727.127 735.811 728.66 734.363ZM740.028 685.155C741.287 683.831 742.625 683.792 743.602 683.982C747.468 684.792 750.52 688.512 752.063 692.479C753.677 696.678 751.909 700.114 747.642 702.028C741.819 704.672 738.785 701.143 737.841 696.445C737.978 696.383 738.116 696.321 738.254 696.26C740.508 695.315 739.448 692.354 737.451 692.027C737.509 690.679 737.662 689.322 737.929 688.145C738.542 687.077 739.207 686.052 740.028 685.155ZM649.621 689.19C647.599 685.703 648.205 681.664 649.721 678.109C649.929 679.239 650.379 680.392 651.303 681.497C652.175 682.56 654.106 682.222 654.544 680.837C655.529 677.719 655.511 675.612 659.207 675.672C662.376 675.738 665.663 677.469 666.87 680.463C668.868 685.151 660.769 691.427 657.281 692.495C654.077 693.536 651.294 692.041 649.621 689.19ZM863.794 479.078C864.078 480.008 864.215 480.905 864.446 481.793C863.296 484.688 861.946 487.507 860.492 490.241C861.302 485.846 861.828 481.48 861.912 477.015C862.724 476.981 863.349 477.494 863.794 479.078ZM856.542 487.617C855.793 492.15 854.802 496.658 853.413 501.015C825.998 536.736 769.834 553.632 732.839 572.965C710.925 584.413 685.272 594.893 662.269 608.414C662.351 607.783 662.484 607.195 662.522 606.616C687.933 568.555 734.312 565.102 774.201 550.318C807.014 538.113 839.719 519.018 856.542 487.617ZM770.403 526.976C790.687 518.903 810.876 510.84 830.247 500.798C837.813 496.876 844.872 492.191 851.746 487.092C852.278 486.655 852.809 486.219 853.332 485.687C825.878 532.627 774.661 545.288 725.634 560.7C701.744 568.176 679.721 579.012 664.319 598.145C676.997 558.294 736.151 540.619 770.403 526.976ZM650.957 621.914C648.09 622.968 645.328 624.107 642.708 625.712C676.61 598.877 723.594 581.704 759.058 565.304C787.512 552.146 824.911 536.893 849.181 512.462C834.729 545.542 804.141 574.393 774.684 589.52C737.291 608.702 691.538 607.348 651.954 620.376C651.162 620.599 650.943 621.292 650.957 621.914ZM737.341 622.26C718.046 622.422 694.466 617.071 672.993 617.978C714.029 609.453 758.95 608.207 793.648 583.592C819.478 565.235 846.28 535.9 857.078 503.666C858.565 501.744 859.999 499.779 861.33 497.729C849.752 542.405 817.046 573.098 777.604 597.23C776.342 598.028 777.237 599.807 778.623 599.285C824.085 580.779 857.669 538.161 865.801 490.139C865.877 489.94 866.005 489.783 866.081 489.584C876.563 557.64 800.052 621.625 737.341 622.26Z" fill="white"/>
<path d="M620.621 189.129C621.204 189.693 622.077 189.797 622.775 189.584C622.784 189.679 622.794 189.773 622.846 189.816C624.61 195.534 630.299 195.395 634.751 192.935C640.699 189.607 645.145 183.219 640.544 176.923C637.331 172.548 630.349 170.756 625.309 172.124C618.324 174.167 614.733 183.872 620.621 189.129ZM634.036 180.403C635.113 181.11 635.62 181.873 635.676 182.443C635.757 182.77 635.799 182.718 635.443 183.473C635.486 183.42 634.692 184.602 634.255 185.03C633.211 186.093 629.189 189.515 628.322 188.021C626.835 185.582 627.46 181.733 628.326 178.867C630.181 178.729 632.448 179.364 634.036 180.403Z" fill="white"/>
<path d="M674.803 268.282C674.698 269.155 674.655 270.166 674.611 271.176C673.476 272.776 672.558 274.641 672.21 276.449C671.886 278.015 673.774 278.689 674.927 278.238C675.392 278.095 675.839 277.763 676.337 277.473C676.877 278.09 677.503 278.602 678.49 278.887C683.043 280.347 686.614 276.73 689.117 273.46C690.176 272.06 689.87 269.454 688.196 268.52C685.256 266.898 682.021 266.168 678.898 267.536C678.15 265.789 675.095 265.904 674.803 268.282Z" fill="white"/>
<path d="M587.459 420.72C579.974 419.65 573.229 428.952 575.865 435.733C576.315 436.886 578.122 437.232 578.996 436.378C579.039 436.325 579.039 436.325 579.081 436.273C579.145 439.813 580.319 442.954 583.852 444.277C587.385 445.6 592.493 442.979 595.194 440.744C597.544 438.83 598.961 435.717 598.807 432.713C598.437 426.568 593.484 421.553 587.459 420.72ZM591.895 432.113C592.216 433.422 592.059 434.253 591.128 435.496C590.069 436.896 587.169 438.098 585.494 438.122C583.63 438.165 584.247 432.304 584.929 428.067C585.427 427.777 585.935 427.582 586.272 427.596C588.706 427.496 591.313 429.631 591.895 432.113Z" fill="white"/>
<path d="M544.082 448.17C543.662 450.704 546.74 452.265 548.594 453.085C549.945 453.668 551.768 452.719 552.111 451.342C552.739 448.979 551.825 447.01 552.083 444.78C552.48 441.529 547.404 440.6 546.462 443.666C546.386 443.865 546.415 444.15 546.296 444.402C546.049 444.81 545.389 445.403 545.132 445.716C544.534 446.447 544.229 447.245 544.082 448.17Z" fill="white"/>
<path d="M580.924 612.978C580.799 614.62 581.011 616.276 581.887 617.866C583.91 621.353 588.497 622.666 592.274 622.096C598.784 621.06 599.351 613.239 597.989 608.2C596.565 603.023 593.268 596.836 587.519 595.879C584.64 595.353 581.891 597.114 580.305 599.478C578.214 602.563 576.563 608.623 578.524 611.973C579.031 612.737 579.984 613.168 580.924 612.978ZM585.746 605.066C585.951 604.71 586.198 604.302 586.454 603.989C586.744 603.529 586.445 603.894 586.753 603.623C586.805 603.666 586.753 603.623 586.805 603.666C586.858 603.709 587.014 603.837 587.118 603.922C587.379 604.136 587.649 604.444 587.867 604.71C588.678 605.635 589.345 607.054 590.041 608.757C590.164 609.032 590.396 609.92 590.628 610.807C590.77 611.272 590.915 613.222 590.911 612.696C590.896 613.032 590.882 613.369 590.867 613.706C590.843 613.948 590.853 614.043 590.862 614.138C590.862 614.138 590.862 614.138 590.829 614.285C590.795 614.432 590.677 614.684 590.643 614.831C589.642 614.884 589.192 614.689 588.309 614.49C585.957 613.959 586.615 609.963 586.574 608.098C586.523 607.097 585.939 606.533 585.204 606.367C585.347 605.873 585.542 605.422 585.746 605.066Z" fill="white"/>
<path d="M736.097 753.794C727.792 750.745 719.938 758.53 719.969 766.578C719.978 766.673 720.031 766.716 720.04 766.81C719.256 773.407 721.964 780.42 728.97 781.97C736.996 783.657 746.475 778.249 746.767 769.593C747.024 763.002 742.314 756.094 736.097 753.794ZM733.298 774.874C727.124 776.883 725.099 769.993 725.607 764.479C726.505 763.382 727.412 762.381 728.57 761.498C729.102 761.061 730.16 760.62 730.625 760.477C731.28 760.316 732.428 760.296 732.628 760.372C735.915 761.145 738.531 764.333 739.301 767.754C739.703 769.391 739.507 770.801 738.852 771.921C737.726 773.615 735.339 774.19 733.298 774.874Z" fill="white"/>
<path d="M673.98 801.047C671.764 801.413 669.728 802.624 668.317 804.347C666.693 806.331 667.421 809.804 669.707 810.63C670.357 810.9 671.201 810.719 671.733 810.283C670.424 814.967 669.56 821.236 674.222 823.308C677.826 824.864 681.147 820.169 682.482 817.687C684.235 814.588 685.348 811.313 684.948 807.759C684.421 802.444 678.611 800.391 673.98 801.047ZM676.439 815.705C676.268 815.914 676.14 816.071 675.969 816.28C675.25 813.86 675.443 810.006 675.905 808.378C676.014 808.032 675.882 807.662 675.759 807.387C677.087 807.253 678.178 807.623 678.618 808.681C679.04 809.55 678.483 811.187 678.146 812.131C677.741 813.37 677.138 814.533 676.439 815.705Z" fill="white"/>
<path d="M652.915 747.088C661.234 734.8 668.718 720.87 678.615 709.526C678.553 710.347 678.543 711.21 678.637 712.159C678.763 713.92 681.22 714.536 682.403 713.411C682.531 713.254 682.659 713.098 682.787 712.941C684.338 713.6 686.184 713.367 687.291 711.483C688.194 709.955 689.044 708.384 689.757 706.875C696.408 707.262 701.978 702.055 703.065 695.619C704.024 690.299 702.189 683.391 697.253 680.483C690.633 676.546 683.643 683.382 683.196 689.992C683.172 690.234 683.234 690.372 683.348 690.552C682.041 693.319 681.317 696.65 681.608 699.593C668.976 713.32 660.778 729.718 650.815 745.717C650.031 746.994 652.037 748.374 652.915 747.088ZM691.53 687.048C691.753 686.881 692.83 686.63 692.546 686.658C692.641 686.649 693.03 686.706 693.177 686.739C693.281 686.824 693.428 686.857 693.532 686.943C694.4 687.479 694.864 688.295 695.428 689.628C695.982 690.866 696.089 692.437 696.041 693.88C695.924 696.575 694.533 698.488 692.33 699.476C692.588 698.204 692.75 696.941 692.756 695.551C692.791 693.487 690.691 692.116 688.849 692.876C688.261 692.743 687.734 692.748 687.165 692.805C687.389 691.68 687.622 690.65 687.832 689.863C689.066 688.78 690.215 687.802 691.53 687.048Z" fill="white"/>
<path d="M688.717 778.578C690.02 780.604 692.335 780.756 693.826 779.36C695.136 779.037 696.251 778.206 696.661 776.536C697.08 774.96 697.798 773.019 697.766 771.249C698.105 769.346 696.773 767.994 695.094 767.491L695.041 767.449L694.947 767.458C693.301 766.808 691.412 767.094 690.528 768.812C689.759 769.752 689.25 770.905 688.794 772.101C686.033 771.323 682.992 771.101 680.203 770.998C672.024 770.668 663.459 771.766 655.439 769.647C653.518 769.121 651.959 771.769 653.799 772.927C655.847 774.255 657.763 775.213 660.101 776.081C660.846 776.342 661.344 776.052 661.729 775.582C664.167 776.008 666.587 776.245 669.092 776.377C672.659 776.595 686.452 775.067 688.717 778.578Z" fill="white"/>
<path d="M593.898 312.1C595.307 306.016 587.282 303.37 584.677 308.999C584.559 309.25 584.44 309.502 584.321 309.753C581.808 308.568 579.137 308.213 576.735 310.083C573.525 312.514 574.025 316.585 575.217 319.916C575.951 321.999 577.553 323.659 579.573 324.703C578.758 329.529 578.763 334.417 580.063 339.319C580.527 341.093 583.05 341.415 583.683 339.579C585.69 333.722 587.655 327.918 589.861 322.137C590.749 320.946 591.472 319.532 592.09 318.032C593.821 318.577 595.552 319.123 597.198 319.772C607.044 323.385 614.628 331.251 624.431 334.917C626.172 335.557 627.991 333.122 626.564 331.779C617.524 323.245 606.05 315.769 593.898 312.1Z" fill="white"/>
<path d="M628.18 816.136C627.985 816.587 627.823 816.891 627.619 817.247C623.346 815.231 617.757 814.929 612.89 815.13C606.546 815.431 592.944 815.98 587.967 820.888C586.22 822.597 588.556 825.382 590.46 823.801C593.29 821.409 603.315 821.506 607.101 821.03C609.896 820.702 621.222 819.422 625.992 822.107C625.891 823.507 626.084 824.973 627.075 826.743C627.25 827.061 627.553 827.222 627.909 827.426C628.182 830.178 632.075 832.232 633.639 829.152C635.516 825.369 635.989 821.919 636.239 817.677C636.699 812.646 630.133 812.155 628.18 816.136Z" fill="white"/>
<path d="M554.19 666.7C555.643 664.924 556.74 663.904 557.516 661.574C557.625 661.227 557.753 661.07 557.82 660.776C558.441 660.762 559.02 660.8 559.59 660.742C567.511 662.344 573.625 669.878 579.219 675.068C580.323 676.06 582.753 675.433 582.142 673.625C580.07 667.219 574.775 661.664 568.564 657.973C569.206 656.232 568.686 653.888 567.173 652.649C562.47 648.712 556.636 647.859 551.783 652.084C547.197 656.091 546.939 662.682 550.902 666.885C551.964 667.929 553.335 667.744 554.19 666.7Z" fill="white"/>
</svg>
