<svg width="268" height="440" viewBox="0 0 268 440" fill="none" xmlns="http://www.w3.org/2000/svg">
<g clip-path="url(#clip0_107_191)">
<path d="M-65.8829 438.762C-64.2311 431.622 -62.4494 424.558 -60.5172 417.562C-45.45 423.499 -29.072 424.694 -13.3747 420.278C5.16259 415.074 20.4654 402.448 38.1416 395.194C38.9737 394.86 39.0556 393.455 38.1191 393.16C23.2472 388.596 4.53143 386.146 -13.0603 388.264C1.51233 372.61 13.16 354.827 22.2065 335.464C22.5132 334.811 21.8757 333.996 21.1687 334.143C20.8356 334.211 20.5286 334.294 20.1956 334.362C20.1065 334.276 19.9616 334.227 19.8294 334.307C19.7381 334.375 19.6672 334.438 19.5704 334.487C-11.6808 341.084 -39.6237 362.939 -52.6199 391.993C-45.3446 370.87 -36.3435 350.444 -24.8379 330.834C-23.9954 329.4 -23.0954 328.016 -22.2418 326.622C-21.8906 326.703 -21.4961 326.618 -21.2199 326.258C-9.45524 311.999 8.89737 303.509 25.4174 296.04C29.837 310.208 38.3438 325.115 50.8771 324.517C51.6992 324.47 52.5196 324.336 53.318 324.121C57.6793 335.714 72.485 360.2 87.7647 348.546C90.9847 346.074 93.0824 343.269 96.984 341.776C97.5406 341.56 103.729 341.052 105.487 340.16C107.825 338.98 108.606 338.615 109.715 336.056C112.72 329.209 109.297 320.763 105.016 315.161C107.875 315.42 110.654 315.218 113.338 314.339C131.563 308.386 116.164 289.591 124.716 278.481C131.686 269.401 132.62 260.744 129.735 253.557C138.417 260.495 147.933 265.232 158.845 268.144C159.605 268.356 160.611 267.689 160.172 266.798C152.486 251.757 142.684 237.99 130.593 226.158C121.189 216.958 109.378 206.081 95.2441 209.372C95.1346 209.292 95.0456 209.206 94.9361 209.126C111.448 205.369 127.907 205.4 144.477 208.605C144.51 208.728 144.564 208.845 144.632 208.936C144.664 208.972 144.695 209.007 144.706 209.048C143.818 209.661 144.479 211.216 145.498 210.677C145.615 210.624 145.732 210.57 145.824 210.502C154.433 221.804 165.684 230.769 178.672 236.653C194.913 244.007 213.663 243.09 229.268 251.669C230.069 252.111 231.031 251.039 230.646 250.265C223.357 235.798 214.939 220.735 200.265 212.673C198.872 211.908 197.44 211.241 195.999 210.621C206.672 208.748 216.279 204.551 225.138 198.076C225.686 197.665 225.521 196.81 224.925 196.554C197.196 184.886 166.666 182.116 145.52 207.182C145.139 207.153 144.804 207.376 144.604 207.693C132.605 204.658 120.555 203.875 108.516 205.085C119.765 203.715 131.143 201.849 141.27 196.568C151.64 191.134 159.496 182.406 167.299 173.891C167.894 173.248 167.166 172.259 166.407 172.376C142.086 175.764 114.288 182.46 101.309 205.562C101.21 205.764 101.301 205.937 101.457 206.026C98.6363 206.481 95.7971 207.028 92.9706 207.704C92.9501 207.71 92.9147 207.741 92.8942 207.747C90.8595 206.475 88.6792 205.396 86.6462 204.211C79.6426 200.156 79.0301 196.262 74.9687 190.007C68.2072 179.61 54.4834 185.885 47.6266 193.025C34.9928 206.181 31.0518 226.556 32.6536 244.36C29.5253 247.333 27.1583 251.418 25.4411 255.876C17.8803 266.915 9.84993 277.598 1.87708 288.332C5.26994 267.797 6.47831 247.063 5.70236 226.381C5.71179 226.334 5.75273 226.323 5.73616 226.262C5.72511 226.221 5.73454 226.175 5.72349 226.134C5.92981 226.166 6.17156 226.166 6.37462 226.024C33.8936 207.641 41.9593 175.376 43.0583 144.072C43.0622 144.005 43.0661 143.938 43.07 143.871C43.0746 143.563 43.0996 143.249 43.1041 142.94C43.1265 142.21 42.3561 141.716 41.732 142.17C20.4528 158.121 6.77193 182.444 4.48555 208.539C3.28668 195.806 1.31223 183.129 -1.40078 170.563C-1.37089 170.511 -1.34101 170.459 -1.31112 170.407C-1.03169 170.222 -0.872814 169.916 -0.853324 169.582C17.1912 136.531 -7.30034 102.044 -30.2168 78.6743C-30.2649 78.5775 -30.3129 78.4808 -30.361 78.3841C-30.4998 78.1143 -30.7392 77.9595 -30.9716 77.9126C-31.1236 77.7561 -31.2812 77.5793 -31.4538 77.4284C-32.0565 76.8231 -33.3659 76.9354 -33.4134 77.9796C-34.4073 96.4181 -34.2543 115.688 -31.0977 134.125C-42.285 124.418 -56.1516 120.812 -70.4393 117.517C-71.3276 117.318 -71.723 118.457 -71.3156 119.071C-55.7665 142.324 -36.4865 177.845 -2.77555 170.759C-2.6888 170.999 -2.50521 171.191 -2.25241 171.232C1.34971 190.668 3.2148 210.177 3.48058 229.702C-6.39463 205.663 -27.6866 188.877 -48.589 174.509C-49.3705 173.974 -50.4135 174.585 -50.3137 175.523C-48.1829 194.391 -45.4613 213.493 -33.7611 228.92C-45.646 220.697 -58.9112 214.032 -71.2185 207.986C-71.9558 207.614 -72.9718 208.569 -72.5257 209.326C-54.7277 239.279 -41.5542 284.394 -1.25125 289.923C-0.864594 289.972 -0.592322 289.679 -0.526372 289.354C-0.526032 289.925 -0.143914 290.282 0.335682 290.35C-10.3658 304.806 -20.8389 319.375 -29.7215 335.116C-39.4952 352.437 -48.0109 370.756 -54.8081 389.665C-54.2826 372.582 -49.459 355.962 -49.6084 338.82C-49.7266 323.907 -57.1134 313.635 -60.243 299.69C-60.5058 298.554 -62.1061 298.24 -62.6039 299.406C-75.9795 331.283 -78.2027 368.509 -57.6302 397.757C-62.0509 411.152 -65.5723 424.787 -68.021 438.571C-68.1006 439.821 -66.1633 440 -65.8829 438.762ZM218.312 244.687C208.259 241.784 197.713 241.122 187.746 237.801C177.876 234.52 168.613 229.253 160.62 222.591C159.737 221.842 148.022 211.159 148.539 210.47C148.634 210.335 158.916 215.633 160.053 216.182C170.208 221.252 180.199 226.695 190.513 231.458C201.101 236.344 214.865 238.267 223.46 246.588C221.284 245.772 218.814 244.837 218.312 244.687ZM221.298 198.741C221.037 204.034 198.377 208.53 193.101 209.407C181.062 205.087 167.738 205.197 154.926 206.309C175.986 198.164 198.592 199.08 221.181 198.224C221.231 198.408 221.301 198.586 221.298 198.741ZM197.081 189.745C200.542 190.28 217.167 193.12 220.616 197.191C196.258 196.375 170.905 196.025 148.704 206.937C148.34 206.969 147.981 207.022 147.637 207.049C160.752 194.049 178.404 186.867 197.081 189.745ZM150.533 208.176C175.543 206.688 199.592 207.5 216.199 229.546C219.353 233.741 224.312 239.577 225.507 244.653C225.685 245.395 227.441 247.422 226.904 247.875C226.904 247.875 226.661 247.787 226.293 247.645C226.295 247.49 226.251 247.327 226.119 247.165C217.255 237.116 202.772 235.454 191.052 230.039C176.848 223.474 163.313 215.565 149.202 208.777C149.676 208.583 150.105 208.38 150.533 208.176ZM156.197 183.122C149.731 189.433 142.617 194.646 134.068 197.877C133.312 198.169 107.819 202.991 107.618 203.55C107.907 202.748 115.116 199.353 115.325 199.23C119.606 196.867 123.916 194.606 128.373 192.568C140.399 187.082 153.524 184.283 163.178 174.895C163.865 176.464 155.293 184.003 156.197 183.122ZM102.071 205.861C113.828 190.352 129.475 181.847 148.268 177.429C150.229 176.965 157.877 174.461 161.472 174.434C153.489 181.878 143.481 184.669 133.521 188.698C123.143 192.884 113.469 198.459 103.807 204.075C103.084 204.49 103.306 205.637 104.225 205.542C103.501 205.628 102.789 205.754 102.071 205.861ZM-25.2959 86.8911C-21.9251 90.589 -18.64 94.3759 -15.5675 98.3519C-0.171514 118.354 8.39948 143.338 -1.4444 167.393C-11.9685 140.545 -15.2378 111.364 -27.0074 85.0272C-26.5141 85.5523 -25.9523 86.1686 -25.2959 86.8911ZM-29.3168 129.496C-31.161 116.081 -31.9596 102.472 -31.5998 88.9229C-31.4891 84.3724 -31.2847 82.3641 -30.2287 82.4519C-20.9807 101.811 -16.769 122.771 -11.1952 143.408C-10.0517 147.642 -8.86726 151.864 -7.54506 156.028C-5.86705 161.346 -0.717812 169.677 -10.9134 167.383C-25.3128 164.162 -27.7248 141.245 -29.3168 129.496ZM-58.0275 135.254C-60.4762 131.636 -63.358 127.96 -65.3895 124.097C-66.6106 121.772 -66.7656 120.629 -66.2383 120.223C-52.8664 130.129 -40.1432 140.562 -28.5379 152.547C-27.8351 153.279 -26.5419 152.293 -27.2707 151.546C-38.6924 139.753 -51.1395 128.961 -64.9399 120.07C-63.1703 120.36 -60.1504 121.783 -57.2238 122.616C-47.3161 125.47 -38.2188 129.552 -30.5482 136.566C-29.9304 139.91 -29.2363 143.212 -28.3934 146.495C-25.6106 157.286 -19.3406 167.245 -8.97482 169.844C-30.7517 169.559 -46.2584 152.725 -58.0275 135.254ZM40.0817 164.033C38.9901 171.702 37.2291 179.331 34.5821 186.608C31.1182 196.145 26.0989 205.291 19.2652 212.843C18.2021 214.029 8.90707 223.365 8.21659 222.191C7.08549 220.28 12.638 209.936 13.5123 207.725C21.7108 187.012 31.1742 166.834 41.5569 147.133C43.0851 149.375 40.4157 161.529 40.0817 164.033ZM22.2053 165.504C24.6977 161.803 35.3479 147.076 40.0541 146.529C26.7365 171.303 15.2557 196.941 5.74002 223.43C5.34131 202.844 10.6093 182.746 22.2053 165.504ZM103.551 314.942C110.061 324.244 111.364 334.03 99.6006 338.941C96.0486 340.427 93.5489 341.256 90.3247 343.224C83.2411 347.573 76.4492 349.912 68.9489 344.586C61.9905 339.641 58.0279 331.231 54.861 323.572C59.4295 321.702 63.0341 317.239 64.389 312.66C64.4227 312.541 64.4361 312.428 64.4699 312.309C67.1314 317.691 70.5692 322.775 74.6562 327.091C72.8984 327.983 72.3236 330.815 72.7821 332.513C73.5223 335.254 76.4145 336.448 78.9857 335.314C81.6387 334.159 83.1329 330.99 81.6337 328.367C80.4009 326.242 77.522 324.935 75.1689 325.899C71.231 320.753 67.831 315.483 65.0014 309.642C65.4449 305.835 64.6419 302.212 63.1335 298.823C64.6841 298.953 66.2759 298.259 67.0719 296.815C67.1366 296.974 67.2571 297.095 67.4131 297.184C77.1135 302.442 90.8386 313.087 103.551 314.942ZM79.8125 328.617C81.1466 330.386 80.3763 332.656 78.4342 333.598C76.7267 334.432 74.8262 333.738 74.4763 331.792C74.15 330.015 75.0582 329.067 76.2994 328.052C76.7858 327.657 76.5232 327.092 76.0569 326.91C77.4814 326.899 78.8841 327.376 79.8125 328.617ZM129.094 257.285C130.789 265.43 128.002 270.725 123.058 276.976C121.013 279.569 119.039 281.046 118.398 284.445C117.84 287.339 118.749 290.297 119.413 293.08C121.644 302.726 118.995 312.921 106.936 312.755C93.9919 312.564 79.3194 301.583 68.0548 295.738C67.8469 295.619 67.6516 295.628 67.4933 295.692C67.6879 294.542 67.3156 293.326 66.5835 292.405C69.2719 292.6 71.9782 290.992 72.72 288.29C72.797 288.006 72.833 287.732 72.8636 287.439C79.7485 290.649 86.8813 292.255 94.4306 292.476C94.4241 294.892 96.2632 296.985 98.6723 297.365C101.262 297.763 103.353 295.75 103.652 293.277C103.951 290.805 102.403 288.326 99.7866 288.155C97.6801 288 95.2887 289.392 94.8088 291.518C94.6765 291.598 94.5703 291.693 94.5011 291.843C86.8988 291.263 79.65 289.227 72.7579 285.909C72.4333 284.22 71.3198 282.699 69.7972 281.859C72.2585 281.458 74.373 279.285 74.4747 276.734C74.5815 273.633 71.8824 271.202 68.9106 271.258C68.4271 271.257 68.4771 272.012 68.9307 272.065C71.2673 272.421 73.4135 274.431 73.1669 276.933C72.9297 279.389 70.7745 280.761 68.4887 280.918C68.1446 280.945 68.0377 281.281 68.1355 281.562C67.9545 281.786 67.935 282.121 68.3028 282.263C70.5971 283.114 72.2978 285.507 71.6087 287.997C70.9196 290.488 68.3257 291.781 65.8781 291.257C65.5063 291.182 65.3215 291.473 65.3374 291.776C65.2272 291.937 65.2006 292.164 65.3991 292.33C68.0636 294.551 65.7801 298.701 62.5769 297.656C61.0916 294.678 59.1057 291.879 57.015 289.262C54.7878 277.925 63.8726 268.625 63.0581 257.478C63.1195 257.461 63.2069 257.46 63.2573 257.402C64.6912 255.961 67.2438 255.491 68.8408 257.013C70.6734 258.756 69.7049 261.432 68.1222 262.891C67.9805 263.017 67.9633 263.197 67.9815 263.346C67.7706 263.622 67.9386 264.082 68.3756 264.073C68.9875 264.062 69.623 264.219 70.1689 264.532C70.1959 264.876 70.4535 265.18 70.8519 265.028C71.375 265.501 71.7621 266.121 71.8215 266.829C72.0029 268.558 70.5453 269.829 68.9768 270.121C68.3926 270.235 68.3491 271.212 68.9869 271.216C71.2855 271.187 73.2844 269.155 73.1326 266.804C73.0643 265.901 72.7001 265.122 72.1327 264.485C78.3102 261.741 84.6189 259.971 91.3179 258.996C92.0448 260.467 93.6974 261.382 95.3919 261.231C97.5848 261.056 99.0293 259.086 98.8714 256.956C98.73 254.887 97.132 253.037 94.9674 253.073C92.7562 253.099 90.6816 254.932 90.7593 257.172C90.7697 257.454 90.9572 257.579 91.169 257.632C91.0628 257.726 90.9676 257.862 90.9969 258.051C91.0245 258.153 91.0521 258.256 91.0797 258.358C84.1497 258.803 77.3481 260.618 71.1196 263.661C70.6517 263.393 70.1595 263.196 69.6334 263.119C71.6405 261.524 71.7691 257.934 70.0836 256.085C68.2146 254.044 64.672 254.101 62.8739 256.145C62.6747 254.838 62.388 253.533 61.8841 252.155C61.8249 252.017 61.7713 251.9 61.7177 251.783C61.7697 251.813 61.8366 251.817 61.9075 251.754C69.5356 245.436 82.8371 242.721 91.7968 236.373C106.746 235.693 125.551 240.182 129.094 257.285ZM96.1202 292.064C96.1092 292.023 96.0926 291.962 96.0815 291.921C96.6817 290.727 97.7458 289.869 99.1852 289.832C100.928 289.778 101.999 291.222 101.875 292.88C101.754 294.383 100.653 295.755 99.0397 295.555C97.4781 295.384 96.078 293.941 96.1715 292.335C96.181 292.289 96.155 292.274 96.1644 292.228C96.1534 292.187 96.1572 292.12 96.1202 292.064ZM92.2663 258.279C92.1347 258.117 92.0087 257.975 91.9125 257.782C91.8589 257.665 91.7754 257.6 91.6769 257.56C91.8091 257.481 91.9248 257.34 91.9625 257.154C92.186 255.623 93.4019 254.351 95.0233 254.418C96.4903 254.483 97.3085 255.886 97.2156 257.249C97.047 259.797 94.136 260.078 92.5871 258.653C92.6507 258.482 92.549 258.268 92.3073 258.268C92.3073 258.268 92.2868 258.273 92.2663 258.279ZM152.693 264.232C143.99 262.588 135.466 256.398 128.535 250.985C123.863 242.635 113.817 236.746 102.449 235.318C102.604 235.078 102.609 234.77 102.323 234.606C101.361 234.053 100.356 233.667 99.4991 232.932C98.7199 232.243 98.1532 231.365 97.7243 230.427C98.9359 228.652 99.86 226.625 100.398 224.307C100.594 223.486 100.702 222.667 100.754 221.885C119.471 235.153 137.018 249.132 154.029 264.463C153.678 264.383 153.224 264.33 152.693 264.232ZM93.3473 235.121C94.8065 233.937 96.0987 232.622 97.1979 231.162C97.8241 232.748 98.9747 234.325 100.481 235.103C98.127 234.927 95.7504 234.911 93.3473 235.121ZM145.615 246.24C148.36 250.063 150.923 254.023 153.293 258.079C155.355 261.647 158.005 264.223 155.66 264.484C139.803 247.656 121.361 232.558 101.639 220.526C101.374 220.357 101.097 220.388 100.882 220.489C100.845 216.528 99.2401 212.945 96.1406 210.008C96.1351 209.987 96.1146 209.993 96.1091 209.972C116.62 208.58 134.727 231.054 145.615 246.24ZM45.7581 199.85C51.0192 192.087 60.9146 183.511 69.9044 189.554C74.5506 192.688 74.7047 197.649 78.6442 201.501C80.7345 203.548 83.3605 204.813 85.841 206.272C88.7949 208.02 92.1352 209.246 94.488 211.859C101.178 219.225 97.7512 228.006 91.6362 233.827C83.1106 241.945 70.1302 242.84 61.6183 251.415C61.5829 251.446 61.5734 251.493 61.5585 251.519C60.583 249.127 59.1588 246.944 57.3915 245.117C60.7236 241.76 63.8366 238.242 67.5193 235.206C72.0779 231.429 77.007 228.211 82.2379 225.459C82.2584 225.454 82.2678 225.407 82.2883 225.402C83.2887 226.097 84.6755 226.271 85.8518 225.91C88.1428 225.203 88.7988 222.59 87.6157 220.649C86.39 218.632 83.6808 217.872 81.8557 219.572C80.3588 220.941 80.0381 223.332 81.2258 224.965C72.1555 229.521 62.5115 235.856 56.3027 244.095C53.5775 241.649 50.1771 239.956 46.3995 239.55C45.8995 239.487 45.39 239.471 44.9065 239.47C46.9092 231.841 49.3493 224.774 53.1557 217.887C53.2856 217.962 53.4007 218.062 53.5306 218.137C53.7071 218.221 53.8764 218.197 54.0141 218.138C54.0512 218.194 54.0937 218.27 54.1867 218.289C56.8897 219.271 60.0015 217.618 60.7936 214.859C61.552 212.218 59.7362 209.724 57.2483 208.97C54.8532 208.234 52.312 209.315 51.4 211.712C50.6004 213.793 51.1476 216.389 52.9367 217.727C48.8798 224.418 45.6004 231.712 44.0308 239.4C44.0363 239.42 44.0363 239.42 44.0419 239.44C40.3504 239.516 37.184 240.722 34.5008 242.742C34.3212 227.846 37.2989 212.361 45.7581 199.85ZM82.2863 223.361C82.1735 223.107 81.9916 223.002 81.7908 222.991C81.9675 220.88 84.5422 219.109 86.1649 221.458C88.1619 224.298 83.4541 226.14 82.2863 223.361ZM53.7304 216.437C53.7005 216.489 53.6706 216.541 53.6407 216.593C51.2762 214.181 52.6467 209.335 56.6287 210.497C58.2731 210.975 59.6749 212.506 59.3019 214.296C58.8535 216.458 56.492 217.798 54.4255 217.303C54.379 217.293 54.364 217.319 54.3231 217.33C54.2955 217.228 54.2679 217.126 54.1584 217.046C54.0229 216.951 53.9078 216.85 53.7928 216.75C53.8227 216.698 53.8471 216.625 53.8974 216.568C53.9517 216.443 53.8107 216.328 53.7304 216.437ZM33.1336 247.763C33.1502 247.824 33.1518 247.912 33.1479 247.979C33.2847 248.973 34.7098 248.72 34.6659 247.744C34.6468 247.267 34.6276 246.789 34.6084 246.311C34.7855 246.154 34.9311 245.961 35.1341 245.818C47.3814 235.378 61.6319 249.107 60.6255 262.458C59.9482 271.66 53.8543 278.616 55.1376 287.596C54.8825 287.709 54.7181 287.995 54.9443 288.263C55.0758 288.425 55.213 288.607 55.3501 288.79C55.4456 289.225 55.5412 289.66 55.6572 290.089C55.7787 290.539 56.2732 290.581 56.6251 290.42C58.4298 292.873 60.0314 295.469 61.2103 298.289C62.0178 300.221 62.9104 303.689 63.0944 307.216C62.7054 307.321 62.3734 307.718 62.5729 308.213C62.7503 308.626 62.9277 309.039 63.1256 309.446C63.0038 312.573 62.1945 315.513 60.0851 317.136C59.9567 317.149 59.8489 317.156 59.726 317.189C56.3189 321.489 50.3056 323.376 44.9914 321.103C41.5384 319.622 38.8249 316.975 36.523 314.064C35.2646 312.494 34.6036 310.698 34.3742 308.873C33.1762 306.958 32.0396 305.027 31.0407 303.036C25.0642 291.154 22.574 277.3 25.5508 264.251C26.8474 258.48 29.0825 252.281 33.1336 247.763ZM-46.9325 178.121C-46.2398 177.758 -40.5366 182.692 -39.9056 183.158C-21.7787 196.52 -6.3406 211.88 3.479 232.38C3.52158 232.456 3.59402 232.48 3.65153 232.531C3.73491 244.468 3.18049 256.402 2.08114 268.351C0.580719 254.339 -5.58593 241.916 -12.9061 229.695C-23.4492 212.047 -34.6009 194.584 -47.1001 178.232C-47.0387 178.216 -47.0088 178.164 -46.9325 178.121ZM-44.8162 197.585C-45.756 192.967 -47.5676 186.829 -47.2554 182.049C-47.2125 181.313 -47.5264 180.476 -47.6379 179.738C-37.8272 193.13 -28.9831 207.09 -20.2547 221.191C-10.858 236.384 -1.16419 251.782 0.323636 269.814C-5.19649 253.442 -16.8878 240.975 -30.7984 230.863C-30.4182 230.563 -30.2382 230.01 -30.633 229.524C-38.2397 220.145 -42.4061 209.355 -44.8162 197.585ZM-9.06156 286.459C-11.1824 286.088 -13.4494 284.769 -15.3752 283.819C-27.3352 277.92 -36.7462 268.042 -44.0734 257.095C-51.4062 246.129 -56.8207 234.051 -62.8554 222.361C-64.0134 220.106 -65.7346 217.718 -66.5762 215.334C-66.7553 214.834 -66.9067 214.436 -67.0581 214.038C-48.9387 230.869 -31.9902 248.894 -16.8087 268.428C-13.447 272.743 -8.05475 277.826 -6.04142 282.922C-4.49179 286.87 -3.17324 287.524 -9.06156 286.459ZM-0.48576 288.773C-20.7083 261.472 -41.9631 235.634 -66.8307 212.44C-66.6968 212.448 -66.5779 212.482 -66.4235 212.484C-61.7453 212.647 -54.5178 218.507 -50.3084 220.837C-26.8232 233.871 -6.87898 251.197 1.16045 277.466C0.707573 281.319 0.193265 285.188 -0.367485 289.048C-0.415581 288.951 -0.422725 288.844 -0.48576 288.773ZM23.6964 261.613C22.2531 267.248 21.7061 272.948 21.8764 277.4C22.0468 281.853 23.1396 288.339 25.1783 295.074C10.4228 299.805 -5.8597 308.153 -17.5286 319.27C-4.48119 299.595 10.9034 281.417 23.6964 261.613ZM18.8166 338.201C19.4623 339.453 14.1132 347.459 13.5507 348.467C5.50061 363.062 -4.47406 376.224 -15.7202 388.5C-15.7556 388.531 -15.765 388.578 -15.7949 388.63C-27.3866 390.356 -38.3589 394.132 -47.3099 400.675C-28.0565 377.304 -6.20395 356.239 17.2891 337.1C17.9601 337.226 18.491 337.565 18.8166 338.201ZM-51.6766 336.854C-51.0418 351.891 -55.5366 366.557 -56.4429 381.416C-56.7146 380.085 -56.9625 378.923 -57.0369 378.241C-57.9816 370.596 -58.7365 362.922 -59.3371 355.25C-60.5971 338.957 -60.9681 322.62 -60.6604 306.276C-57.2267 316.387 -52.1557 325.485 -51.6766 336.854ZM-62.6216 306.74C-63.0689 336.311 -61.0909 365.753 -56.5759 394.992C-56.6733 395.282 -56.7858 395.597 -56.8832 395.887C-73.4224 368.074 -73.0535 336.506 -62.6216 306.74ZM-8.14813 346.845C-2.60008 343.722 3.27581 341.082 9.3285 339.096C11.2251 338.474 14.0646 337.115 16.2071 336.997C-10.5063 356.654 -33.652 380.089 -53.8447 406.324C-55.1164 407.633 -56.3251 409.013 -57.4652 410.484C-49.5577 383.814 -32.8136 360.748 -8.14813 346.845ZM3.44983 389.379C6.9642 389.461 31.6079 392.065 33.5825 394.253C1.95399 396.608 -28.314 405.463 -58.5251 414.61C-44.2817 396.192 -19.2154 388.895 3.44983 389.379ZM-43.2852 411.591C-18.497 403.997 6.55559 397.625 32.4739 395.76C28.8413 398.167 18.496 402.476 16.7863 403.464C11.7987 406.303 6.85927 409.239 1.71801 411.835C-10.6183 418.042 -23.691 421.441 -37.5614 420.667C-40.7074 420.485 -57.6549 417.426 -57.3985 416.83C-56.1749 414.041 -45.9447 412.397 -43.2852 411.591Z" fill="#EAE8E1"/>
<path d="M83.483 200.062C91.823 188.33 99.2856 175.057 104.337 161.557C104.376 161.459 104.354 161.377 104.338 161.315C104.529 160.803 104.725 160.311 104.916 159.799C104.942 159.814 104.974 159.849 105.02 159.858C124.812 163.203 151.011 158.716 157.154 136.166C157.933 133.278 158.241 130.188 158.024 127.109C173.075 121.683 185.719 111.004 192.732 96.4705C194.97 91.8281 197.424 85.7889 194.35 80.9135C193.004 78.7754 191.371 78.6677 189.635 77.1178C185.132 73.1331 182.791 70.3201 181.17 64.7233C180.73 63.1745 180.429 61.6538 179.804 60.1547C174.657 47.5223 159.626 50.1775 150.077 56.0485C144.839 59.2627 140.467 63.406 136.702 68.0877C140.549 52.8943 139.886 31.085 126.299 21.7637C120.719 17.9382 114.13 17.3698 108.134 20.4595C102.698 23.2663 99.9421 26.8855 93.5297 27.7835C86.974 28.7203 81.1396 26.9605 74.6473 27.156C58.9846 27.6339 51.7088 42.656 55.0424 56.7876C55.3716 58.169 55.7826 59.5283 56.2142 60.882C48.9718 57.8128 35.9377 54.4426 29.9865 61.602C27.0837 65.0852 27.8795 69.9833 27.9819 74.1032C28.1877 82.6718 26.8306 87.4053 22.5661 94.548C20.9746 97.1942 19.1613 98.6934 18.2788 101.85C11.4951 126.176 56.8848 135.576 72.387 136.699C72.6807 136.73 72.9043 136.581 73.0349 136.414C78.23 147.761 91.9404 156.237 103.659 159.129C102.565 161.421 101.477 163.734 100.533 166.096C100.44 166.318 100.469 166.508 100.519 166.692C94.4608 177.523 88.4275 188.281 81.9854 198.909C81.3615 199.933 82.7662 201.068 83.483 200.062ZM57.5288 42.8177C62.088 29.1218 73.2163 29.5833 85.0404 30.6689C88.6675 31.0059 92.4042 31.4231 95.9826 30.5224C103.467 28.6326 108.736 20.4943 117.005 20.9383C138.566 22.0494 137.387 55.1747 134.789 70.6012C128.199 79.6229 123.62 90.3178 119.633 100.523C119.295 101.383 120.574 101.893 120.945 101.069C126.825 87.8721 132.404 73.9667 143.129 63.8282C148.345 58.9082 155.555 53.8886 162.923 53.1933C174.146 52.1369 176.847 59.6148 179.652 68.2933C183.107 78.9689 195.87 85.4844 188.836 98.3125C181.922 110.933 170.952 120.084 157.866 125.791C157.299 120.765 155.326 115.9 151.721 112.309C148.603 109.223 145.077 107.959 141.408 107.875C148.643 102.783 155.451 96.3574 160.183 88.9129C162.386 90.6441 165.026 91.5549 167.586 89.5687C170.005 87.7084 170.455 84.2513 168.35 81.9889C166.487 79.9686 163.174 79.4149 161.04 81.352C159.735 82.5383 159.016 84.5101 159.301 86.2983C158.754 86.4681 158.389 87.3127 158.955 87.8621C159.081 88.0037 159.242 88.1137 159.363 88.2347C153.158 95.8357 146.715 102.557 138.449 108.06C136.351 108.341 134.233 108.957 132.17 109.777C132.178 108.261 131.194 106.815 129.735 106.046C127.33 104.787 124.842 105.985 122.754 107.361C122.747 107.253 122.734 107.125 122.727 107.017C128.717 101.954 133.914 95.986 137.804 89.1639C138.994 89.83 140.597 89.9897 141.79 89.6894C144.058 89.1426 145.643 86.959 144.905 84.6347C144.217 82.4943 141.737 80.7941 139.485 81.4023C137.131 82.0381 136.4 84.4521 136.349 86.7042C136.239 86.8656 136.196 87.0309 136.225 87.2205C136.253 87.3227 136.301 87.4195 136.349 87.5162C136.366 87.9065 136.399 88.2707 136.446 88.609C136.483 88.9064 136.722 89.0612 136.98 89.1231C132.663 95.095 127.909 100.505 122.408 105.348C121.941 104.026 121.05 102.84 120.094 102.308C118.213 101.28 116.089 101.876 114.68 103.244C114.736 94.6703 115.757 86.2531 117.375 77.8502C117.789 78.0016 118.239 78.1216 118.723 78.1226C118.99 78.1381 119.225 78.0309 119.361 77.8844C121.069 77.6206 122.694 76.4796 123.44 74.8516C124.715 72.0932 122.966 69.2741 120.175 68.5357C117.502 67.8311 114.457 69.1585 114.017 72.086C113.715 74.055 114.663 76.103 116.242 77.2345C116.268 77.2494 116.259 77.2958 116.285 77.3107C116.337 77.3406 116.363 77.3555 116.409 77.3649C116.545 77.46 116.701 77.5495 116.857 77.6391C114.516 85.8861 113.407 94.305 113.176 102.882C112.483 100.48 109.474 98.7689 106.994 99.0216C106.501 99.067 106.056 99.209 105.638 99.3661C100.783 85.0527 98.572 71.2543 98.7962 56.2276C98.8986 56.1999 98.9915 56.2187 99.0883 56.1706C99.7323 55.9528 99.5484 55.1905 99.0805 54.9219C101.017 54.5304 102.699 52.8692 103.14 50.8411C103.836 47.6465 101.193 45.1785 98.1416 45.1029C95.0847 45.0069 92.178 47.1745 92.2791 50.395C92.3643 53.3126 95.1987 56.6506 98.2884 56.2989C97.0662 71.0466 99.1311 86.0914 104.444 99.9078C104.45 99.9283 104.476 99.9432 104.481 99.9637C101.855 101.705 100.654 105.474 101.05 108.483C101.104 108.929 101.752 108.886 101.816 108.474C102.299 105.71 103.203 102.306 106.118 101.145C108.752 100.083 111.796 102.245 111.437 105.063C111.316 105.996 112.633 106.32 113.019 105.47C113.196 105.071 113.287 104.673 113.331 104.267C113.431 104.393 113.572 104.509 113.717 104.557C113.36 105.268 113.164 106.089 113.216 106.931C113.262 107.511 114.125 107.453 114.224 106.922C114.581 104.587 117.531 102.496 119.661 104.203C120.392 104.795 120.836 105.707 120.915 106.651C120.921 106.671 120.906 106.697 120.917 106.738C120.669 106.959 120.441 107.174 120.173 107.4C119.651 107.826 119.999 108.544 120.51 108.648C120.452 108.839 120.399 109.051 120.367 109.257C120.284 109.762 120.874 110.239 121.358 109.998C122.01 109.647 122.376 109.131 122.612 108.541C123.966 107.78 125.459 107.048 126.995 106.962C128.983 106.842 131.24 108.449 130.554 110.543C129.636 110.967 128.709 111.436 127.828 111.916C118.969 116.766 112.299 121.508 101.603 119.152C95.8606 117.895 91.1621 114.16 85.1081 113.864C85.0876 113.87 85.0616 113.855 85.0207 113.866C84.7273 113.024 84.2928 112.066 84.234 111.116C84.5378 110.858 84.6619 110.342 84.4026 109.951C84.4176 109.925 84.427 109.879 84.4419 109.853C84.9861 108.696 86.3703 108.454 87.4871 108.767C89.6891 109.357 90.4251 111.594 91.7859 113.136C92.1067 113.51 92.879 113.28 92.7299 112.727C92.6509 112.354 92.531 111.991 92.3906 111.634C92.1066 109.363 91.4986 103.777 94.8105 103.761C97.8807 103.743 98.5986 107.214 99.6062 109.4C99.9649 110.159 101.199 109.848 101.054 108.987C100.509 105.667 98.1212 101.462 94.1584 102.159C92.5435 102.442 91.6984 103.46 91.2913 104.799C91.2857 104.779 91.2802 104.758 91.2542 104.743C79.9882 93.8512 68.7449 81.4171 61.3923 67.4493C57.2955 59.8438 54.7226 51.2123 57.5288 42.8177ZM161.363 87.6724C161.304 87.5348 161.292 87.4065 161.253 87.2634C161.298 87.1854 161.343 87.1075 161.387 87.0295C161.567 86.7178 161.324 86.3883 161.041 86.3988C160.881 85.2352 161.09 84.0595 161.952 83.1026C163.349 81.6061 165.669 81.9012 166.987 83.3665C168.374 84.9231 167.926 87.085 166.292 88.2725C164.531 89.56 162.835 88.8111 161.363 87.6724ZM137.894 86.8135C138.021 85.331 138.347 83.7727 139.709 83.2071C141.052 82.6471 142.709 83.8233 143.159 85.0842C143.691 86.5645 142.52 87.7585 141.115 88.0063C139.67 88.265 138.825 87.6592 137.894 86.8135ZM119.099 76.5069C119.047 76.477 119 76.4676 118.928 76.4433C117.078 76.2626 115.698 74.485 115.833 72.6271C115.983 70.7432 117.824 69.9167 119.528 70.2903C121.326 70.6827 122.612 72.3542 121.802 74.153C121.278 75.3039 120.255 76.1508 119.099 76.5069ZM96.5743 54.0188C95.2707 53.3395 94.2732 52.2484 94.1588 50.5237C93.9882 48.2656 96.03 46.8802 98.0939 46.9592C100.085 47.0138 101.831 48.5173 101.346 50.6234C100.87 52.6831 98.8196 54.4438 96.6562 53.9967C96.6358 54.0022 96.5948 54.0133 96.5743 54.0188ZM24.0228 95.7126C28.0355 88.8574 29.895 86.7971 30.1616 78.1887C30.2489 75.422 29.1896 69.6295 29.908 67.3288C33.558 55.634 48.5413 59.553 56.1261 62.5077C56.3695 62.5956 56.5797 62.5608 56.7529 62.4701C62.9135 79.2615 77.9214 94.1681 90.1667 106.002C90.4283 106.239 90.696 106.254 90.9251 106.127C90.8163 107.188 90.8783 108.312 91.0373 109.388C89.7622 107.758 87.8945 106.616 85.7663 106.95C84.1868 107.201 83.3589 108.039 83.0139 109.119C77.0439 105.882 72.0852 101.428 68.0739 95.9281C69.5848 94.2033 69.6809 91.6318 68.4104 89.6927C66.838 87.2866 63.6496 87.0286 61.4339 88.7462C59.3151 90.4157 58.6988 93.5008 60.5583 95.588C62.1028 97.3214 64.8646 97.8702 66.767 96.4566C66.9435 96.5406 67.1498 96.5727 67.334 96.5229C71.1205 102.654 76.4559 107.445 82.8345 110.814C82.9155 111.845 83.2492 112.918 83.76 113.833C80.5669 113.884 77.6043 114.706 75.3366 116.394C65.2222 110.172 55.5351 103.418 46.0014 96.3378C46.0777 96.2952 46.169 96.2266 46.2343 96.1432C47.934 94.0602 47.028 90.706 45.0294 89.1611C42.7858 87.441 39.7412 88.2852 38.2141 90.5191C36.7468 92.649 37.0068 95.5632 39.1952 97.0788C41.0866 98.3894 43.7016 98.2317 45.344 96.6689C54.2884 104.413 63.9118 111.338 73.92 117.654C72.5735 119.093 71.5903 120.983 71.1972 123.349C70.4776 127.515 71.0453 131.488 72.5082 135.196C54.813 132.865 7.68954 123.714 24.0228 95.7126ZM62.6459 90.3061C65.9273 87.8178 68.8381 92.4958 66.3505 95.0769C66.1994 95.2494 66.1412 95.4406 66.1445 95.6153C63.0086 96.5281 59.3496 92.8203 62.6459 90.3061ZM44.0953 95.6237C44.1788 95.6889 44.2679 95.7746 44.3514 95.8398C41.6695 97.3761 37.5426 94.7821 39.6542 91.6223C40.625 90.1751 42.583 89.5366 43.9893 90.7587C45.3641 91.9454 45.4282 93.7276 44.6802 95.2682C44.6653 95.2942 44.6763 95.3351 44.6614 95.3611C44.5779 95.2958 44.4999 95.2511 44.4164 95.1858C44.1399 94.9753 43.8338 95.3871 44.0953 95.6237ZM87.5096 149.753C84.3883 147.305 81.5383 144.234 79.2859 140.936C76.124 136.304 70.3011 124.666 76.3817 119.206C77.0653 119.46 77.7327 118.841 77.7064 118.255C79.3901 117.252 81.6457 116.577 84.7072 116.365C91.4419 115.928 97.7683 121.461 104.311 122.591C108.779 123.359 112.759 122.723 116.944 120.978C122.726 118.56 127.538 114.013 133.446 111.978C150.311 106.194 159.179 124.471 153.719 138.41C146.879 155.86 127.254 159.8 110.363 159.227C110.351 158.857 110.149 158.517 109.675 158.469C101.4 157.676 94.0806 154.891 87.5096 149.753Z" fill="#EAE8E1"/>
</g>
<defs>
<clipPath id="clip0_107_191">
<rect width="361.889" height="346.914" fill="white" transform="translate(172.913) rotate(74.8855)"/>
</clipPath>
</defs>
</svg>
