<svg width="258" height="474" viewBox="0 0 258 474" fill="none" xmlns="http://www.w3.org/2000/svg">
<g clip-path="url(#clip0_107_195)">
<path fill-rule="evenodd" clip-rule="evenodd" d="M96.7481 406.301C95.9001 405.726 93.4914 403.969 91.3945 402.394C85.057 397.633 84.7823 397.465 74.6426 392.123C60.9129 384.889 59.1633 383.897 57.7443 382.543C55.9162 380.796 54.2957 378.364 53.759 376.555C53.2507 374.837 53.2488 372.611 53.7538 370.558C54.3867 367.99 57.3669 363.216 60.2554 360.145C60.8239 359.54 61.2822 359.03 61.274 359.012C61.2668 358.993 59.4799 356.53 57.3044 353.539C47.6062 340.208 44.0852 334.712 42.7397 330.798C40.487 324.249 41.1041 314.229 44.0187 309.987C45.5985 307.692 48.145 306.012 51.303 305.185C53.5359 304.6 55.2856 304.436 60.4381 304.333C62.8648 304.285 66.9732 304.14 69.5691 304.012C72.1651 303.883 75.7369 303.795 77.5056 303.817C84.0961 303.898 84.7477 303.836 92.0755 302.424C95.1712 301.829 96.977 301.228 101.261 299.366C104.397 298.003 108.647 295.962 108.755 295.765C108.792 295.697 108.381 295.528 107.839 295.39C106.016 294.926 103.489 293.779 102.247 292.854C100.399 291.478 98.193 289.356 97.2024 288.003C96.6975 287.316 95.456 285.356 94.4435 283.648C90.6257 277.219 89.9354 276.34 84.5786 271.091C78.4731 265.106 75.9477 262.276 72.7963 257.89C70.7341 255.019 69.7937 253.432 68.4361 250.536C66.4561 246.315 65.4958 241.465 65.9533 238.004C66.2339 235.876 67.2704 231.991 68.2508 229.385C69.6697 225.619 71.099 223.729 74.0484 221.722C75.5433 220.705 76.3649 220.414 77.5918 220.465C79.0017 220.525 79.6435 220.877 80.3834 221.996C81.21 223.248 81.508 224.092 82.0199 226.653C82.9009 231.056 83.907 233.592 86.4438 237.806C88.5111 241.244 90.8751 244.156 93.0018 245.884C94.0097 246.703 96.7109 247.93 100.36 249.228C110.844 252.958 115.622 254.93 121.091 257.782C126.528 260.617 127.799 261.528 131.844 265.488C135.856 269.414 138.139 271.996 140.324 275.076C142.205 277.726 145.424 281.817 147.897 284.698L149.177 286.189L150.296 285.833C151.474 285.458 152.644 285.544 154.097 286.114C154.978 286.457 157.297 286.392 163.482 285.85C166.204 285.611 166.963 285.434 171.089 284.085C176.647 282.266 178.535 281.527 180.087 280.563C182.066 279.332 184.776 277.203 188.289 274.116C190.129 272.5 193.173 269.875 195.058 268.285C198.883 265.052 200.021 263.934 203.753 259.739C205.176 258.138 208.138 254.847 210.337 252.425C214.866 247.433 217.84 243.929 220.72 240.196C222.808 237.487 226.573 232.273 226.534 232.143C226.521 232.101 226.062 232.253 225.515 232.481C224.01 233.103 219.961 234.582 218.119 235.18C216.203 235.802 213.388 236.281 210.497 236.474C205.297 236.824 202.491 237.328 201.496 238.094C199.774 239.42 199.139 240.125 197.841 242.165C197.099 243.331 196.366 244.323 196.21 244.366C195.784 244.49 195.537 245.064 195.138 246.862C194.938 247.762 194.506 249.098 194.178 249.835C189.403 260.546 189.021 261.207 186.046 263.922C183.649 266.112 183.075 266.527 180.934 267.622C177.917 269.163 173.095 270.341 169.899 270.316C167.12 270.293 163.637 269.709 161.525 268.909C157.74 267.479 156.911 267.029 156.125 265.982C155.161 264.695 154.76 263.479 154.818 262.029C154.865 260.91 154.962 260.631 155.861 259.011C156.637 257.611 157.065 257.034 157.833 256.35C158.372 255.869 158.8 255.426 158.783 255.368C158.765 255.307 158.31 254.831 157.772 254.311C156.626 253.201 156.325 252.468 156.412 250.994C156.525 249.064 157.152 247.305 158.522 245.069C160.709 241.498 162.973 239.626 166.648 238.354C169.656 237.311 175.51 236.126 177.869 236.081C178.897 236.061 180.886 235.992 182.286 235.928C183.687 235.864 185.945 235.858 187.305 235.916C189.454 236.008 189.777 235.97 189.779 235.627C189.779 235.41 189.936 235.066 190.127 234.862C190.764 234.175 191.714 234.178 194.156 234.873C197.431 235.804 199.868 236.044 201.879 235.628C203.945 235.2 206.413 234.88 209.707 234.61C214.675 234.206 216.307 233.876 222.082 232.111L227.777 230.368L229.392 228.061C230.278 226.792 232.159 224.191 233.569 222.279C237.292 217.236 238.889 214.936 241.548 210.79C242.852 208.757 245.078 205.336 246.496 203.185C250.132 197.666 252.519 193.933 252.484 193.814C252.468 193.761 251.333 194.139 249.962 194.66C246.366 196.022 243.547 196.713 238.437 197.483C234.573 198.063 231.314 198.658 225.142 199.904C224.04 200.126 223.83 200.244 223.454 200.849C222.997 201.586 220.704 203.937 218.876 205.547C215.934 208.136 208.661 212.632 203.691 214.934C202.055 215.69 199.845 216.74 198.774 217.265C197.706 217.789 195.817 218.591 194.578 219.043C193.338 219.498 191.08 220.386 189.56 221.017C186.728 222.192 182.363 223.512 175.989 225.117C172.1 226.097 162.073 229.233 159.623 230.238C158.794 230.575 156.488 231.701 154.497 232.74C150.495 234.824 147.615 235.831 146.34 235.594C144.703 235.287 144.038 234.046 144.496 232.154C144.776 230.997 145.563 229.884 148.109 227.041C154.881 219.482 159.464 216.944 176.532 211.306C181.906 209.532 186.685 207.862 190.476 206.434C192.323 205.738 195.167 204.76 196.796 204.264C199.553 203.423 210.005 200.828 216.842 199.288C218.472 198.921 220.236 198.479 220.76 198.306C221.285 198.135 222.061 198.006 222.484 198.018C223.225 198.042 226.992 197.429 231.697 196.514C232.935 196.274 236.188 195.76 238.922 195.372C242.731 194.833 244.788 194.403 247.717 193.541C249.817 192.921 252.142 192.147 252.883 191.821L254.23 191.228L256.371 187.066C258.638 182.66 260.556 178.549 264.282 170.115C269.026 159.378 272.963 151.046 276.934 143.328C278.111 141.044 279.096 139.05 279.124 138.902C279.153 138.751 278.213 139.184 277.033 139.864C272.273 142.602 267.331 144.289 261.999 144.995L258.932 145.402L259.135 146.289C259.312 147.07 259.274 147.269 258.83 147.919C258.109 148.979 257.398 149.431 253.266 151.448C249.075 153.496 241.287 156.605 237.937 157.567C232.525 159.12 226.216 159.774 217.183 159.717C210.736 159.679 204.11 160.406 195.435 162.104C184.309 164.283 181.982 164.344 181.352 162.472C180.992 161.394 182.218 160.047 185.778 157.607C189.04 155.373 192.322 153.686 199.044 150.789C206.422 147.608 211.02 146.001 216.554 144.671C223.081 143.103 227.526 142.54 233.78 142.489C234.892 142.48 238.13 142.45 240.974 142.424C246.811 142.37 248.83 142.429 253.006 142.776C256.303 143.052 257.792 143.065 260.344 142.837C267.057 142.242 273.234 140.167 279.191 136.505L280.588 135.646L287.078 123.966C293.603 112.228 295.433 109.149 300.178 101.934C303.07 97.538 304.567 95.2102 309.303 87.745C313.471 81.1792 315.71 77.8674 317.567 75.5238C319.623 72.9259 321.961 70.444 322.29 70.5046C322.503 70.5439 322.46 70.6913 322.099 71.1589C320.845 72.7831 317.833 77.7528 308.895 92.9565C307.051 96.0943 304.168 100.804 302.492 103.424C298.377 109.852 298.129 110.32 298.02 111.871C297.791 115.123 298.286 119.335 299.348 123.179C299.845 124.976 299.967 125.227 300.36 125.231C301.02 125.24 301.369 125.48 303.469 127.36C305.805 129.453 307.366 130.549 312.083 133.409C314.094 134.63 316.424 136.158 317.259 136.806C321.911 140.413 326.132 145.298 328.654 149.999C331.163 154.67 332.144 161.554 332.208 174.942C332.248 183.031 332.344 185.509 332.822 190.529C333.581 198.523 333.777 201.51 333.673 203.585C333.617 204.712 333.576 205.788 333.583 205.975C333.65 207.682 333.465 208.149 333.006 207.449C332.808 207.153 332.586 207.08 331.926 207.097C331.164 207.119 331.016 207.058 330.157 206.357C328.818 205.268 326.922 202.499 324.961 198.774C320.238 189.8 317.773 182.854 314.322 168.802C313.265 164.501 311.65 158.518 310.733 155.505C308.286 147.472 306.626 143.494 302.137 134.907C298.455 127.863 297.472 125.244 296.669 120.31C296.375 118.496 296.287 117.301 296.287 115.14L296.288 113.615L295.138 115.396C291.552 120.949 279.103 144.649 273.705 156.2C270.11 163.889 270.375 162.971 270.479 167.343C270.528 169.429 270.678 171.887 270.813 172.808C271.479 177.354 274.519 185.835 277.701 192.011L278.309 193.193L278.724 192.884C279.712 192.151 280.298 192.71 283.818 197.742C284.991 199.419 287.037 202.21 288.362 203.943C297.008 215.235 303.622 225.081 307.33 232.179C309.772 236.851 311.513 242.71 312.922 251.002C314.637 261.082 315.233 263.26 318.096 269.922C320.842 276.314 322.297 280.815 322.259 282.807C322.242 283.709 321.612 284.855 320.939 285.209C320.648 285.365 319.987 285.484 319.471 285.476C318.618 285.464 318.306 285.34 316.127 284.132C311.467 281.555 306.281 276.819 301.919 271.164C295.627 263.005 290.682 252.083 286.553 237.221C284.306 229.129 283.181 223.878 281.92 215.605C279.982 202.879 279.35 200.663 275.137 191.797C273.156 187.633 271.762 184.098 270.456 179.944C269.106 175.642 268.66 172.953 268.673 169.157C268.676 168.25 268.645 167.521 268.605 167.534C268.565 167.55 267.293 170.427 265.775 173.928C259.78 187.773 257.285 192.389 248.843 205.245C247.754 206.906 245.711 210.08 244.305 212.3C242.899 214.518 241.052 217.33 240.201 218.55L238.651 220.764L236.947 227.526C236.01 231.245 234.739 236.783 234.121 239.834C233.506 242.884 232.98 245.416 232.955 245.462C232.93 245.506 233.168 245.685 233.485 245.858C233.875 246.072 234.371 246.71 235.026 247.843C235.558 248.762 236.758 250.782 237.694 252.328C238.63 253.877 240.41 256.84 241.649 258.914C242.888 260.988 245.247 264.677 246.891 267.108C248.536 269.54 250.508 272.497 251.275 273.678C252.043 274.862 253.579 277.203 254.688 278.882C257.58 283.26 258.746 285.3 261.195 290.278C265.891 299.821 266.237 300.623 267.801 305.579C268.274 307.076 269.24 309.93 269.948 311.924C271.695 316.837 272.02 319.142 271.278 321.342C270.819 322.703 270.07 323.515 268.881 323.942C267.162 324.56 265.228 324.146 262.315 322.534C260.496 321.529 260.22 321.311 258.809 319.775C256.286 317.03 254.558 314.222 249.393 304.474C243.459 293.27 242.518 291.672 237.173 283.699C231.255 274.873 229.615 271.679 228.965 267.717C228.196 263.028 228.488 255.488 229.719 248.121C230.518 243.352 232.903 233.046 234.103 229.18C234.994 226.31 235.115 225.762 234.76 226.177C234.522 226.457 232.761 228.973 230.845 231.767C228.93 234.561 226.408 238.122 225.246 239.681C221.955 244.087 221.328 245.177 220.207 248.456C219.066 251.797 218.857 252.856 218.488 257.164C217.772 265.567 217.752 265.232 219.224 270.041C220.412 273.917 220.625 277.579 219.742 278.905L219.322 279.531L220.847 282.963C223.219 288.295 224.842 294.845 224.668 298.373C224.543 300.871 223.496 304.374 222.126 306.876C221.46 308.091 219.782 310.133 218.658 311.099C217.541 312.055 216.433 312.44 214.351 312.594C211.919 312.775 207.539 311.879 206.425 310.976C204.617 309.509 204.016 306.318 205.004 303.412L205.424 302.176L204.704 302.196C203.809 302.22 201.71 301.647 200.712 301.104C199.722 300.567 198.562 298.813 198.313 297.479C197.824 294.857 198.444 291.945 200.154 288.824C201.356 286.632 201.749 286.14 208.354 278.564C210.043 276.624 211.993 273.919 211.833 273.736C211.761 273.652 211.591 273.293 211.455 272.936C211.232 272.344 211.266 272.192 211.874 271.138C212.239 270.504 212.943 269.559 213.437 269.037C213.933 268.515 214.667 267.571 215.072 266.939C215.801 265.801 215.81 265.755 216.01 262.683C216.499 255.196 216.775 252.969 217.474 250.84C218.16 248.754 218.096 248.741 216.428 250.631C213.494 253.953 203.092 265.249 201.851 266.461C201.17 267.124 198.542 269.378 196.008 271.468C193.476 273.557 190.227 276.269 188.788 277.495C185.563 280.242 181.897 282.821 178.965 284.405C177.741 285.067 176.534 285.853 176.284 286.153C175.596 286.976 174.758 288.58 174.2 290.133C173.927 290.897 173.198 292.448 172.584 293.578C171.151 296.209 170.354 298.244 169.949 300.298C169.631 301.919 169.527 305.901 169.779 306.9C169.849 307.184 169.87 307.868 169.826 308.419C169.752 309.338 169.809 309.483 170.504 310.161C173.121 312.711 177.192 315.256 179.806 315.976C180.512 316.17 182.795 316.502 184.882 316.714C192.123 317.447 196.219 318.663 203.428 322.221C206.291 323.634 213.646 326.956 217.773 328.702C219.704 329.519 222.271 330.791 224.986 332.279C228.921 334.435 229.338 334.703 231.239 336.317C234.401 339.001 235.339 340.183 237.347 344.016C238.245 345.728 240.888 349.61 241.996 350.842C242.531 351.437 243.502 352.388 244.152 352.953C246.094 354.643 246.36 356.15 245.007 357.792C244.665 358.203 244.23 358.642 244.039 358.765C243.473 359.134 242.207 359.305 241.423 359.12C240.408 358.881 237.296 357.489 232.402 355.083C228.298 353.065 226.335 352.294 224.27 351.883C222.94 351.618 220.928 352.151 217.779 353.6C214.409 355.15 213.276 355.376 209.542 355.254C205.02 355.104 202.483 354.497 198.523 352.611C196.388 351.595 193.207 349.153 190.571 346.504C185.812 341.725 183.814 339.579 181.555 336.829C179.375 334.172 174.827 329.069 174.459 328.868C174.386 328.828 174.445 329.639 174.592 330.671C174.738 331.703 175.102 335.072 175.4 338.157C176.041 344.779 176.395 346.877 177.428 350.131C178.503 353.518 180.954 359.362 182.913 363.21C186.971 371.188 188.145 373.852 189.284 377.681C190.234 380.879 190.381 381.641 190.31 383.031C190.197 385.276 189.576 387.937 188.749 389.718C187.49 392.442 185.054 394.593 180.462 397.037C179.111 397.756 177.235 398.825 176.293 399.412C173.122 401.388 173.054 401.408 166.401 402.258C162.011 402.819 160.385 402.606 155.338 400.811C152.827 399.918 151.153 399.188 145.722 396.618C145.243 396.391 145.354 396.204 143.662 400.113C141.898 404.195 139.706 407.939 138.129 409.571C134.932 412.875 130.27 415.21 126.117 415.585C123.885 415.787 119.268 415.513 116.786 415.034C111.782 414.065 108.864 412.965 102.883 409.786C100.358 408.445 97.5987 406.876 96.7481 406.301ZM108.266 410.169C114.091 412.708 120.488 413.912 125.812 413.475C128.701 413.237 131.25 412.231 134.093 410.201C136.598 408.414 137.377 407.466 139.406 403.729C141.27 400.298 143.724 394.676 144.679 391.643C145.362 389.469 147.079 379.896 147.848 373.969C150.483 353.639 150.244 355.181 152.124 346.233C152.858 342.742 153.915 338.039 154.476 335.784C158.032 321.436 159.728 312.456 159.905 307.018C159.993 304.334 159.667 303.243 158.601 302.664C158.201 302.447 157.757 302.279 157.613 302.288C157.267 302.314 153.112 304.61 151.213 305.823C149.271 307.064 148.85 307.45 145.59 310.951C139.017 318.011 136.541 319.873 126.303 325.451C124.294 326.547 120.603 328.617 118.099 330.052C112.332 333.359 109.194 334.962 98.096 340.278C77.2213 350.275 70.2069 354.414 63.8039 360.507C60.4511 363.699 57.4309 367.93 56.4279 370.834C55.4492 373.67 55.832 376.34 57.5586 378.721C59.5221 381.429 58.8034 380.969 74.0503 389.325C86.1193 395.939 87.9321 396.979 89.4599 398.151C93.7794 401.467 96.6966 403.631 98.2099 404.637C100.577 406.216 105.855 409.119 108.266 410.169ZM64.3205 356.269C65.1787 355.519 67.1517 354.004 68.7055 352.904C74.1458 349.049 80.9413 345.421 97.7255 337.402C109.489 331.781 111.904 330.567 116.816 327.796C118.571 326.805 122.37 324.745 125.261 323.217C136.349 317.357 137.935 316.167 145.948 307.708C149.569 303.883 152.051 301.546 153.361 300.722L154.174 300.211L153.307 299.87C149.225 298.263 144.81 296.829 141.871 296.158C140.724 295.895 138.874 295.434 137.764 295.134C133.889 294.085 125.239 293.782 120.107 294.513C117.649 294.864 113.16 296.446 109.903 298.112C104.631 300.809 98.3976 303.461 95.4535 304.262C92.8022 304.981 86.7496 306.086 84.4322 306.269C83.2106 306.368 80.4037 306.412 78.1958 306.367C75.9879 306.322 72.155 306.38 69.6795 306.497C67.204 306.614 63.3984 306.696 61.2237 306.68C54.4857 306.631 51.8428 306.98 49.3525 308.247C46.947 309.469 45.5773 311.054 44.6996 313.628C42.7487 319.341 43.3444 327.673 46.0802 332.99C47.1322 335.03 53.2289 344.396 57.0131 349.783C58.6386 352.096 60.4753 354.897 61.0972 356.007C62.0239 357.664 62.2756 357.993 62.4967 357.83C62.6424 357.723 63.464 357.02 64.3205 356.269ZM147.077 395.721C147.449 395.806 149.026 396.423 150.582 397.094C152.139 397.765 153.827 398.448 154.336 398.613C154.843 398.778 155.964 399.19 156.825 399.525C158.817 400.299 160.979 400.831 162.334 400.879C162.915 400.9 164.425 400.753 165.686 400.555C166.948 400.357 168.54 400.122 169.225 400.036C171.175 399.791 173.031 399.066 174.87 397.829C175.804 397.202 177.429 396.216 178.484 395.634C181.846 393.78 182.662 393.26 183.965 392.126C185.836 390.504 186.7 389.074 187.295 386.623C188.085 383.382 188.042 382.256 187.004 378.773C186.078 375.672 184.171 371.486 180.07 363.56C176.718 357.083 173.958 349.397 173.271 344.64C173.109 343.515 172.791 340.446 172.565 337.82C172.337 335.194 172.013 332.062 171.844 330.86C170.987 324.792 169.074 317.272 167.729 314.701C167.279 313.84 166.753 312.778 166.56 312.342C166.165 311.442 162.624 306.529 162.416 306.591C162.34 306.611 162.255 307.301 162.226 308.122C162.131 310.818 161.39 315.978 160.457 320.429C159.372 325.6 157.565 333.513 156.719 336.793C156.387 338.076 155.385 342.569 154.491 346.776C152.884 354.336 152.115 359.145 150.498 371.749C149.225 381.671 147.299 391.47 146.013 394.564C145.541 395.705 145.536 395.773 145.957 395.676C146.203 395.615 146.707 395.638 147.077 395.721ZM201.973 351.365C204.45 352.287 206.979 352.758 209.799 352.824C212.429 352.887 214.094 352.522 216.792 351.293C222.869 348.527 224.489 348.64 231.886 352.351C235.827 354.328 240.524 356.525 241.812 356.993C242.431 357.217 242.766 357.092 243.396 356.399C243.871 355.876 243.711 355.38 242.851 354.72C240.584 352.982 237.051 348.368 235.06 344.551C234.499 343.476 233.724 342.144 233.334 341.589C232.605 340.548 230.622 338.785 228.125 336.961C226.39 335.69 220.736 332.757 216.89 331.131C214.191 329.99 207.296 326.72 200.109 323.175C194.297 320.308 190.928 319.337 184.558 318.69C179.697 318.197 178.697 317.922 175.518 316.204C172.787 314.728 171.685 313.89 169.747 311.801C169.211 311.223 168.764 310.769 168.752 310.792C168.74 310.814 169.219 311.76 169.817 312.895C171.129 315.386 171.879 317.538 172.771 321.377L173.445 324.271L176.603 327.596C178.34 329.423 180.978 332.371 182.467 334.145C184.833 336.963 188.429 340.812 192.549 344.937C194.227 346.615 197.402 349.16 198.824 349.966C199.47 350.331 200.888 350.961 201.973 351.365ZM109.713 293.992C110.552 294.135 111.367 294.169 111.527 294.07C111.688 293.972 111.888 293.928 111.976 293.977C112.064 294.025 113.675 293.599 115.56 293.029C118.393 292.175 119.554 291.95 122.263 291.729C127.446 291.305 134.97 291.634 137.814 292.409C138.651 292.636 140.843 293.196 142.684 293.655C144.524 294.113 146.407 294.629 146.863 294.804C147.322 294.98 148.376 295.351 149.207 295.631C151.52 296.411 154.413 297.483 154.887 297.738C155.12 297.864 154.314 296.77 153.098 295.307C151.88 293.843 150.218 291.731 149.407 290.61C148.595 289.488 147.11 287.588 146.109 286.382C142.536 282.087 140.695 279.739 138.23 276.325C133.997 270.463 127.426 263.744 123.869 261.644C119.529 259.08 112.065 255.763 104.35 252.969C101.68 252.003 98.7126 250.928 97.7544 250.578C96.7962 250.228 95.1221 249.515 94.0356 248.995C92.3826 248.203 91.8732 247.875 90.9359 246.989C88.0264 244.243 85.681 240.991 83.0037 235.992C81.7994 233.74 80.3893 229.356 79.9017 226.342C79.5958 224.447 78.8921 222.832 78.2107 222.459C76.9323 221.758 73.0931 224.515 71.606 227.201C70.3505 229.468 68.6498 235.014 68.2454 238.153C67.7502 241.997 68.927 246.639 71.7229 251.887C74.2528 256.636 78.5499 261.887 85.1196 268.266C91.389 274.352 92.5273 275.765 96.154 281.963C98.9982 286.824 99.6528 287.724 101.795 289.743C103.343 291.201 103.653 291.415 105.83 292.528C107.808 293.541 108.437 293.777 109.713 293.992ZM210.122 310.129C212.209 310.62 214.36 310.674 215.761 310.27C218.848 309.379 222.19 302.985 222.256 297.843C222.294 294.825 220.428 287.815 218.16 282.469C217.517 280.949 216.888 279.181 216.766 278.537C216.644 277.895 216.506 277.379 216.461 277.392C216.416 277.405 216.146 278.286 215.861 279.35C215.297 281.461 213.602 286.351 211.889 290.817C209.273 297.633 207.222 303.1 206.919 304.066C206.361 305.848 206.494 307.666 207.27 308.879C207.631 309.445 208.12 309.66 210.122 310.129ZM203.598 300.567C204.186 300.703 204.942 300.711 205.339 300.587C206.176 300.325 205.884 300.952 209.189 292.332C213.221 281.815 213.922 279.74 214.79 275.722C214.949 274.99 215.033 274.311 214.978 274.212C214.921 274.114 214.601 274.165 214.266 274.326C213.832 274.534 213.325 275.092 212.49 276.281C211.401 277.836 208.81 280.993 204.513 286.004C201.797 289.168 201.178 290.164 200.456 292.521C199.492 295.662 199.576 297.592 200.738 299.162C201.288 299.905 201.767 300.141 203.598 300.567ZM162.161 266.27C165.756 267.552 170.1 267.957 173.684 267.343C178.335 266.548 181.301 265.136 185.172 261.871C186.743 260.547 186.786 260.488 188.081 258.141C190.082 254.514 192.575 248.668 193.221 246.094C193.516 244.913 194.065 243.169 194.439 242.217C195.009 240.768 195.052 240.542 194.716 240.817C194.496 240.998 193.282 241.879 192.022 242.774C189.031 244.901 186.533 245.921 178.34 248.365C169.319 251.058 167.004 252.159 162.105 256.095C159.042 258.554 158.054 259.638 157.47 261.173C157.087 262.188 157.215 263.065 157.895 264.077C158.5 264.974 158.422 264.933 162.161 266.27ZM266.549 321.812C269.15 322.078 269.823 320.021 268.555 315.689C267.433 311.86 264.311 302.667 263.383 300.461C262.336 297.971 258.049 289.275 256.596 286.693C256.024 285.679 254.732 283.598 253.724 282.07C248.018 273.425 246.158 270.626 244.033 267.501C242.739 265.596 239.997 261.186 237.941 257.699C234.45 251.785 233.348 249.999 233.119 249.873C232.583 249.579 231.632 254.38 231.44 258.348C231.075 265.968 231.631 269.653 233.739 273.596C234.272 274.592 237.262 279.424 240.382 284.337C245.054 291.688 246.762 294.582 250.03 300.688C252.214 304.768 254.051 308.113 254.112 308.12C254.174 308.125 254.429 308.577 254.68 309.125C256.454 312.983 259.241 317.128 261.457 319.2C262.507 320.182 265.472 321.704 266.549 321.812ZM162.08 252.948C165.615 250.116 168.577 248.81 177.409 246.193C185.072 243.92 187.263 243.16 189.353 242.04C191.236 241.031 193.753 239.12 193.585 238.826C193.237 238.221 187.666 237.879 182.446 238.145C180.953 238.221 178.944 238.291 177.984 238.3C174.599 238.329 167.873 239.756 165.283 240.992C163.044 242.061 160.271 245.041 159.237 247.489C158.638 248.904 158.213 250.97 158.353 251.792C158.461 252.419 159.645 254.01 160.144 254.195C160.288 254.247 161.159 253.686 162.08 252.948ZM149.146 233.429C151.102 232.794 153.049 231.751 156.094 229.71C158.385 228.175 158.911 227.92 161.875 226.924C167.453 225.048 175.308 222.812 179.27 221.975C183.217 221.14 184.87 220.626 189.393 218.818C190.875 218.225 193.048 217.398 194.225 216.977C195.401 216.557 197.481 215.649 198.846 214.962C200.21 214.272 202.273 213.279 203.427 212.753C208.808 210.302 217.427 204.644 220.698 201.416C221.409 200.714 221.434 200.666 221.079 200.664C220.871 200.663 219.451 201.01 217.927 201.435C216.402 201.86 213.963 202.451 212.509 202.75C208.979 203.476 199.687 205.804 197.436 206.527C196.445 206.845 193.377 207.95 190.617 208.982C187.857 210.015 183.127 211.689 180.106 212.703C162.716 218.546 158.627 220.383 153.673 224.573C151.827 226.135 147.449 230.855 146.875 231.902C146.208 233.119 146.225 233.312 147.009 233.633C147.542 233.85 147.981 233.808 149.146 233.429ZM315.793 281.278C314.354 279.907 312.208 276.262 309.331 270.298C307.637 266.794 307.292 265.946 303.082 255.008C298.96 244.296 298.518 243.295 294.316 235.223C291.787 230.366 287.85 222.146 284.489 214.705C284.066 213.77 285.399 221.544 286.545 226.708C289.877 241.708 294.202 253.948 299.54 263.474C300.906 265.913 304.388 270.928 306.313 273.23C307.92 275.148 310.98 277.985 313.572 279.955C316.049 281.836 316.927 282.361 315.793 281.278ZM319.922 281.402C319.616 279.813 318.069 275.504 316.155 270.913C313.179 263.783 312.337 260.675 310.731 250.911C310.04 246.706 309.508 244.34 308.453 240.783C306.686 234.832 305.22 231.857 300.505 224.653C298.02 220.856 290.858 211.025 286.533 205.474C285.814 204.552 284.355 202.533 283.287 200.985L281.346 198.171L282.707 202.832C284.341 208.428 285.331 211.025 288.582 218.241C292.104 226.056 293.901 229.807 296.93 235.67C300.308 242.21 301.202 244.25 304.922 253.953C309.791 266.645 310.521 268.334 313.679 274.215C315.622 277.83 316.444 278.984 318.39 280.818C319.283 281.658 320.038 282.371 320.068 282.401C320.099 282.431 320.033 281.98 319.922 281.402ZM193.894 159.818C203.909 157.988 209.772 157.278 214.587 157.31C222.558 157.362 224.569 157.329 227.589 157.095C234.078 156.595 237.975 155.684 244.989 153.029C251.491 150.569 256.167 148.286 256.991 147.169L257.464 146.525L256.785 146.153C255.955 145.699 255.676 145.734 250.304 147.006C248.073 147.534 244.78 148.241 242.989 148.575C235.917 149.898 234.214 150.239 229.071 151.341C226.135 151.971 222.422 152.681 220.819 152.92C217.875 153.361 212.78 154.523 206.743 156.134C204.933 156.617 202.267 157.249 200.816 157.536C199.367 157.825 197.064 158.355 195.697 158.714C194.334 159.071 192.508 159.513 191.643 159.691C190.255 159.978 188.422 160.609 188.632 160.724C188.673 160.747 191.042 160.338 193.894 159.818ZM195.165 156.357C196.823 155.948 199.369 155.373 200.821 155.079C202.273 154.788 204.942 154.16 206.752 153.685C213.56 151.896 218.082 150.868 220.653 150.524C223.422 150.154 225.698 149.708 232.306 148.242C234.478 147.761 237.869 147.083 239.841 146.738C244.816 145.865 249.095 144.988 249.053 144.848C248.967 144.556 232.436 144.868 228.36 145.237C221.209 145.884 212.38 148.201 204.146 151.594C198.527 153.908 191.822 156.926 192.038 157.044C192.1 157.078 193.508 156.769 195.165 156.357ZM331.279 204.414C331.297 204.382 330.733 202.999 330.022 201.34C328.238 197.168 326.169 191.665 325.395 189.031C324.625 186.411 324.127 183.775 323.202 177.439C322.419 172.058 321.868 169.332 320.797 165.538C319.259 160.092 315.436 151.946 311.309 145.319C309.494 142.405 306.305 137.715 306.165 137.755C306.114 137.77 306.725 139.194 307.525 140.923C308.324 142.65 309.509 145.391 310.157 147.013C311.757 151.01 314.619 160.702 316.68 169.096C319.586 180.933 321.936 187.806 325.675 195.416C328.015 200.176 330.987 204.948 331.279 204.414ZM331.294 197.9C331.295 197.685 331.161 196.341 331.002 194.912C330.074 186.623 329.775 180.909 329.864 173.214C329.964 164.652 329.439 157.559 328.456 154.252C327.142 149.816 324.13 145.311 319.709 141.17C317.154 138.774 315.164 137.322 312.216 135.7C310.799 134.919 308.381 133.453 306.843 132.442C305.306 131.43 304.016 130.611 303.977 130.622C303.938 130.632 304.935 132.03 306.191 133.726C313.182 143.157 317.14 149.975 321.01 159.252C323.287 164.712 324.398 169.323 325.965 179.84C326.807 185.486 327.757 189.154 329.758 194.485C330.527 196.535 331.187 198.229 331.225 198.25C331.264 198.272 331.295 198.114 331.294 197.9Z" fill="#EAE8E1"/>
</g>
<defs>
<clipPath id="clip0_107_195">
<rect width="249" height="403" fill="white" transform="matrix(0.877003 0.480484 0.480484 -0.877003 0 353.433)"/>
</clipPath>
</defs>
</svg>
