<svg width="244" height="189" viewBox="0 0 244 189" fill="none" xmlns="http://www.w3.org/2000/svg">
<g clip-path="url(#clip0_107_186)">
<path d="M35.5365 83.1423C35.7477 83.2836 35.9766 83.4048 36.1672 83.5696C39.6624 86.5862 43.3911 89.2894 47.2518 91.8108C51.3748 94.5044 55.7877 96.6065 60.4639 98.1612C62.9122 98.9751 65.3576 99.7955 67.8699 100.385C69.8767 100.856 71.8957 101.28 73.9191 101.676C76.891 102.258 79.8588 102.864 82.8685 103.236C88.2746 103.904 93.6938 104.422 99.1373 104.675C101.745 104.796 104.351 104.919 106.956 105.077C108.628 105.179 110.294 105.348 111.964 105.487C112.732 105.551 113.523 105.524 114.266 105.7C115.36 105.96 116.452 106.283 117.484 106.722C119.113 107.415 120.713 108.2 122.199 109.17C123.328 109.906 124.366 110.783 125.454 111.585C127.101 112.802 128.438 114.329 129.773 115.862C130.102 116.239 130.287 116.663 130.349 117.162C130.45 117.994 130.586 118.822 130.71 119.651C131.153 122.605 132.433 125.173 134.322 127.454C136.23 129.758 138.508 131.641 140.974 133.312C141.051 133.364 141.147 133.391 141.235 133.424C141.263 133.434 141.299 133.423 141.392 133.419C141.409 133.284 141.466 133.132 141.441 132.995C141.131 131.281 140.762 129.578 140.5 127.857C139.914 124.013 136.882 119.481 134.412 117.693C133.522 117.049 132.606 116.449 131.613 115.982C131.251 115.812 130.968 115.582 130.72 115.272C130.316 114.771 129.876 114.299 129.455 113.811C129.378 113.721 129.321 113.612 129.136 113.328C129.566 113.554 129.807 113.682 130.048 113.809C130.305 113.943 130.568 114.068 130.82 114.21C133.776 115.868 136.826 117.333 139.955 118.631C140.607 118.902 141.105 119.274 141.487 119.871C142.395 121.286 143.69 122.297 145.112 123.149C148.725 125.311 152.629 125.913 156.751 125.233C157.833 125.054 158.898 124.789 159.968 124.55C160.178 124.504 160.375 124.396 160.581 124.314C160.54 123.879 160.203 123.753 159.955 123.581C159.136 123.01 158.301 122.461 157.464 121.917C155.893 120.895 154.265 119.979 152.492 119.349C149.741 118.374 146.931 117.698 143.986 117.792C143.378 117.812 142.767 117.896 142.167 118.004C141.768 118.076 141.413 118.056 141.044 117.887C139.139 117.016 137.199 116.213 135.325 115.278C133.133 114.187 130.982 113.01 128.84 111.823C127.517 111.089 126.246 110.261 124.946 109.482C123.067 108.355 121.19 107.221 119.202 106.289C119.063 106.224 118.93 106.147 118.792 106.077C118.891 105.834 119.066 105.893 119.217 105.906C122.043 106.152 124.856 106.499 127.654 106.968C130.641 107.467 133.624 107.99 136.57 108.708C139.141 109.335 141.671 110.087 144.168 110.961C146.483 111.771 148.758 112.679 150.991 113.691C154.253 115.171 157.429 116.816 160.498 118.663C161.712 119.394 162.915 120.144 164.119 120.893C164.391 121.062 164.642 121.264 164.921 121.463C164.902 121.604 164.913 121.737 164.867 121.847C164.32 123.141 164.111 124.513 163.955 125.892C163.839 126.917 163.749 127.946 163.707 128.976C163.52 133.581 164.604 137.877 166.956 141.83C168.173 143.875 169.756 145.606 171.774 146.907C172.758 147.542 173.822 147.996 174.942 148.319C175.189 148.39 175.446 148.436 175.7 148.47C176.654 148.6 177.057 148.281 177.194 147.304C177.212 147.183 177.233 147.061 177.26 146.899C177.574 146.956 177.855 147.007 178.137 147.056C179.76 147.328 181.051 146.761 182.038 145.475C182.311 145.118 182.54 144.725 182.762 144.332C183.067 143.792 183.413 143.286 183.907 142.909C185.003 142.072 185.511 140.923 185.724 139.605C185.765 139.35 185.815 139.097 185.839 138.84C185.891 138.274 186.093 137.776 186.482 137.359C187.301 136.481 187.544 135.469 187.22 134.316C187.203 134.257 187.22 134.189 187.221 134.084C187.423 134.022 187.635 133.959 187.849 133.892C189.384 133.415 190.357 132.368 190.871 130.874C191.027 130.417 191.137 129.943 191.236 129.47C191.4 128.69 191.749 128.017 192.297 127.44C192.675 127.043 193.045 126.639 193.412 126.232C193.786 125.82 194.037 125.334 194.227 124.814C194.461 124.173 194.435 123.545 194.115 122.942C193.949 122.629 193.822 122.311 193.721 121.967C193.635 121.673 193.437 121.378 193.209 121.168C192.618 120.624 192.024 120.067 191.36 119.621C188.674 117.818 185.856 116.264 182.748 115.297C181.542 114.921 180.308 114.697 179.045 114.646C177.265 114.573 175.504 114.712 173.765 115.128C172.241 115.492 170.83 116.107 169.539 116.988C168.1 117.972 166.728 119.04 165.545 120.377C165.355 120.297 165.165 120.251 165.014 120.148C162.697 118.561 160.244 117.204 157.793 115.841C154.971 114.271 152.058 112.892 149.08 111.652C147.296 110.909 145.465 110.278 143.655 109.594C143.569 109.563 143.49 109.512 143.291 109.413C143.505 109.356 143.611 109.318 143.722 109.299C144.966 109.08 146.134 109.292 147.285 109.812C148.344 110.29 149.483 110.54 150.621 110.781C152.252 111.123 153.887 111.125 155.524 110.87C157.008 110.639 158.387 110.117 159.658 109.306C160.969 108.469 162.136 107.455 163.247 106.372C163.377 106.246 163.462 106.074 163.616 105.858C163.437 105.792 163.33 105.744 163.219 105.714C163.127 105.689 163.029 105.679 162.932 105.675C161.179 105.61 159.494 105.171 157.805 104.754C156.169 104.351 154.512 104.13 152.823 104.313C150.166 104.601 147.863 105.67 145.944 107.523C145.538 107.914 145.128 108.092 144.588 108.13C142.523 108.279 140.461 108.211 138.411 107.974C137.521 107.872 136.654 107.576 135.774 107.381C130.295 106.164 124.766 105.239 119.17 104.789C114.964 104.452 110.752 104.155 106.54 103.897C102.328 103.638 98.1107 103.449 93.8944 103.233C93.7055 103.224 93.5136 103.258 93.3253 103.269C93.3165 103.239 93.3137 103.205 93.2955 103.187C93.2827 103.174 93.2497 103.183 93.2238 103.183C93.2626 103.207 93.302 103.23 93.3408 103.254C93.3951 103.183 93.4396 103.067 93.508 103.05C93.7257 102.995 93.9507 102.966 94.1737 102.945C100.518 102.349 106.738 101.102 112.873 99.3967C113.494 99.224 114.128 99.1011 114.757 98.9658C115.261 98.8569 115.776 98.7878 116.274 98.6616C118.443 98.1118 120.658 97.9354 122.881 97.7824C129.313 97.34 135.759 97.156 142.185 96.6128C142.41 96.5945 142.635 96.587 142.859 96.5606C145.005 96.309 147.106 96.5641 149.172 97.1414C150.723 97.5748 152.267 98.0389 153.818 98.4735C154.486 98.6608 155.055 98.984 155.554 99.4723C156.176 100.08 156.816 100.674 157.486 101.226C158.859 102.359 160.362 103.285 161.991 104.018C165.623 105.654 169.403 106.62 173.399 106.663C173.868 106.668 174.355 106.752 174.879 106.504C174.785 106.368 174.739 106.249 174.652 106.185C172.381 104.49 170.136 102.757 167.822 101.122C166.077 99.8894 164.157 98.9619 162.09 98.3764C160.15 97.8277 158.172 97.5988 156.16 97.7856C155.696 97.8287 155.275 97.778 154.836 97.6336C153.825 97.3014 152.802 97.01 151.785 96.6997C151.633 96.6538 151.485 96.5944 151.156 96.4771C151.497 96.402 151.661 96.3441 151.828 96.3334C158.318 95.9321 164.775 96.2431 171.207 97.1747C173.408 97.4936 175.607 97.8177 177.767 98.3567C180.369 99.0039 182.922 99.7947 185.4 100.82C185.701 100.945 185.975 101.071 186.135 101.399C186.913 102.998 188.252 104.046 189.697 104.989C191.463 106.143 193.44 106.699 195.495 107.012C196.705 107.195 197.925 107.315 199.14 107.454C199.288 107.47 199.441 107.425 199.682 107.398C199.545 107.171 199.469 107.001 199.354 106.863C198.575 105.919 197.783 104.985 197.001 104.042C195.799 102.593 194.461 101.294 192.831 100.336C192.196 99.9619 191.52 99.638 190.828 99.3853C189.895 99.0431 188.924 99.1244 187.963 99.3253C187.428 99.4375 186.892 99.5591 186.358 99.6795C186 99.7594 185.664 99.7158 185.32 99.578C180.59 97.6865 175.667 96.5758 170.62 95.963C169.12 95.7812 167.622 95.5954 166.098 95.4082C166.132 95.1821 166.317 95.2051 166.439 95.1814C169.127 94.6369 171.788 93.9872 174.422 93.2173C174.724 93.129 175.055 93.0988 175.372 93.1057C175.854 93.1177 176.338 93.1644 176.816 93.233C179.612 93.6394 182.03 92.7676 184.207 91.0647C185.205 90.2836 186.066 89.3683 186.818 88.3563C187.569 87.3483 188.276 86.3082 188.988 85.2717C189.147 85.0401 189.35 84.8089 189.307 84.4304C189.141 84.4032 188.958 84.3308 188.785 84.3495C186.991 84.5426 185.196 84.7433 183.403 84.9571C183.02 85.002 182.643 85.1001 182.266 85.1857C179.485 85.8184 177.348 87.3683 175.793 89.7445C175.457 90.2567 175.115 90.7649 174.772 91.2708C174.357 91.8816 173.808 92.2685 173.076 92.4584C169.234 93.4578 165.383 94.4089 161.423 94.8069C160.143 94.9354 158.852 94.9721 157.564 95.0271C156.631 95.0662 155.696 95.0617 154.76 95.0846C151.602 95.161 148.444 95.2268 145.288 95.3271C143.871 95.372 142.457 95.4882 141.042 95.5766C138.789 95.7188 136.539 95.8754 134.286 96.0081C130.231 96.2466 126.177 96.4742 122.121 96.7045C121.87 96.7181 121.618 96.7159 121.307 96.722C121.397 96.4507 121.594 96.4285 121.743 96.3658C123.819 95.4749 125.894 94.5854 127.896 93.5348C129.295 92.8006 130.682 92.0419 132.084 91.3119C132.51 91.0891 132.963 90.9159 133.411 90.736C134.248 90.3989 135.093 90.0784 135.929 89.7427C136.498 89.5158 137.047 89.227 137.63 89.0472C140.188 88.2607 142.757 87.5095 145.319 86.7303C146.269 86.441 147.222 86.4455 148.189 86.5844C149.146 86.7221 150.103 86.8553 151.062 86.9847C154.24 87.4178 157.285 86.8934 160.258 85.7476C163.172 84.6245 165.824 83.0485 168.331 81.208C168.527 81.0639 168.697 80.886 168.97 80.6428C168.641 80.5577 168.435 80.4722 168.223 80.4562C167.677 80.4154 167.13 80.3987 166.582 80.3814C164.616 80.3199 162.657 80.1936 160.707 79.9167C159.01 79.6761 157.308 79.6369 155.598 79.8258C153.964 80.0073 152.46 80.5345 151.066 81.3962C149.826 82.1625 148.67 83.0328 147.647 84.0742C147.534 84.1889 147.419 84.3026 147.304 84.4149C146.382 85.3246 146.373 85.2898 145.086 85.6456C143.067 86.2047 141.062 86.816 139.049 87.4038C138.748 87.4914 138.445 87.5671 138.141 87.6486C138.066 87.3791 138.239 87.3129 138.357 87.2187C139.393 86.3972 140.432 85.5799 141.466 84.7578C142.628 83.8333 143.741 82.8526 144.77 81.7799C145.115 81.42 145.518 81.2 145.984 81.0291C147.103 80.6163 148.209 80.1691 149.31 79.7088C151.889 78.6339 153.855 76.8098 155.502 74.5996C157.057 72.513 158.23 70.2278 159.086 67.7738C159.33 67.0727 159.595 66.3804 159.845 65.6815C159.951 65.3832 160.076 65.0836 159.968 64.7055C159.848 64.7088 159.715 64.68 159.61 64.7215C159.372 64.8153 159.142 64.9356 158.917 65.0613C156.805 66.2416 154.691 67.4164 152.588 68.6144C151.775 69.077 150.977 69.567 150.204 70.0904C147.722 71.7686 146.186 74.1423 145.271 76.9497C145.123 77.405 145.074 77.8944 144.993 78.3707C144.945 78.6564 144.92 78.9463 144.892 79.2346C144.822 79.9327 144.532 80.4812 144.009 80.9865C140.586 84.3016 136.829 87.1797 132.744 89.6192C129.112 91.7887 125.327 93.6733 121.411 95.2787C120.099 95.8164 118.756 96.2833 117.427 96.7785C117.312 96.8206 117.189 96.8374 116.969 96.8901C117.072 96.7419 117.105 96.6531 117.168 96.6092C119.98 94.6385 122.551 92.4006 124.783 89.7817C124.944 89.5911 125.162 89.421 125.388 89.3192C127.775 88.2471 129.462 86.4201 130.856 84.2743C132.196 82.2103 132.962 79.9247 133.381 77.5221C133.619 76.1582 133.764 74.7761 133.945 73.4019C133.957 73.3133 133.929 73.2189 133.917 73.085C133.815 73.1124 133.705 73.1075 133.66 73.159C132.389 74.6362 130.85 75.8138 129.336 77.0183C128.344 77.8066 127.504 78.7307 126.795 79.7841C125.973 81.0054 125.445 82.3495 125.046 83.751C124.681 85.0295 124.481 86.3374 124.501 87.6665C124.509 88.2261 124.301 88.6436 123.95 89.0486C122.062 91.2275 119.959 93.1729 117.642 94.8842C116.007 96.0926 114.325 97.2389 112.486 98.1209C111.879 98.4116 111.246 98.6755 110.596 98.845C105.156 100.26 99.6526 101.34 94.0483 101.818C91.6089 102.027 89.1576 102.108 86.7119 102.237C86.3264 102.258 85.9383 102.228 85.553 102.22C83.1317 102.168 80.7395 101.877 78.3667 101.403C75.6807 100.865 72.9901 100.353 70.3061 99.8076C68.1254 99.3641 65.9858 98.7618 63.8607 98.0997C61.6421 97.4089 59.4459 96.6617 57.2869 95.8045C54.8854 94.851 52.5726 93.7129 50.3518 92.3899C50.2428 92.3255 50.14 92.2499 49.942 92.1172C50.3925 92.087 50.7185 92.1849 51.0369 92.2719C55.493 93.4854 60.0264 94.3026 64.6141 94.8026C69.2088 95.304 73.8087 95.4201 78.404 94.7574C81.443 94.3181 84.4137 93.5695 87.364 92.7388C89.383 92.1702 91.3848 91.5408 93.3176 90.7198C93.9391 90.4554 94.5322 90.3813 95.1933 90.5013C96.8564 90.8041 98.5241 90.7735 100.199 90.5407C102.82 90.1775 105.151 89.1526 107.24 87.547C109.405 85.8821 111.254 83.9196 112.807 81.6725C113.43 80.77 114.062 79.8758 114.688 78.9744C114.775 78.8473 114.843 78.7077 114.97 78.4883C114.736 78.4692 114.586 78.4276 114.45 78.4528C114.135 78.5141 113.823 78.5981 113.514 78.6913C112.181 79.0949 110.821 79.3411 109.436 79.4838C108.378 79.5929 107.321 79.7209 106.269 79.872C104.826 80.0791 103.433 80.4708 102.073 80.999C99.4052 82.0335 97.2711 83.7438 95.6318 86.0691C95.0012 86.9639 94.4296 87.9035 93.8853 88.8547C93.6225 89.3136 93.2619 89.5549 92.797 89.7384C90.9355 90.4777 89.0371 91.1049 87.1111 91.6453C83.9117 92.5439 80.6927 93.3622 77.3829 93.7576C74.526 94.0993 71.6642 94.1447 68.7915 94.0093C65.9214 93.8751 63.0794 93.5076 60.2431 93.0797C60.0963 93.0575 59.9547 92.9977 59.8244 92.8568C60.1737 92.8344 60.5226 92.8056 60.8718 92.7908C65.1532 92.6175 69.3233 91.8487 73.3848 90.4749C74.9494 89.9457 76.4487 89.2739 77.8763 88.4493C78.4456 88.12 79.0429 87.9128 79.6923 87.8287C80.588 87.7124 81.4789 87.571 82.3746 87.4546C83.63 87.2911 84.8432 86.9704 86.0107 86.4863C89.035 85.2303 91.6798 83.4417 93.8293 80.9413C94.9475 79.6428 95.9452 78.2597 96.8798 76.8269C96.9483 76.7226 96.9853 76.5988 97.0303 76.4815C97.04 76.4549 97.025 76.4179 97.015 76.3294C96.9147 76.3131 96.7954 76.2658 96.6846 76.2817C96.4941 76.3085 96.3068 76.3642 96.1238 76.4278C94.8989 76.8524 93.6287 77.0725 92.3529 77.2733C91.2699 77.4453 90.1845 77.6087 89.1151 77.8462C84.8655 78.7958 81.6489 81.213 79.3 84.841C78.9138 85.4362 78.5349 86.0359 78.1644 86.6408C77.885 87.0957 77.4922 87.3985 77.027 87.6554C75.2089 88.6612 73.2863 89.4038 71.2969 89.9711C67.6832 91.0025 64.0025 91.6272 60.2391 91.687C57.097 91.7365 53.993 91.4238 50.9673 90.542C49.731 90.182 48.4879 89.8237 47.2835 89.3699C44.333 88.2595 41.671 86.6475 39.2127 84.6727C33.7402 80.2783 29.0924 75.1278 25.1032 69.3716C24.5723 68.6064 24.154 67.7633 23.6842 66.955C23.5707 66.76 23.4773 66.5535 23.3505 66.3682C23.2173 66.1725 22.9712 66.1283 22.7461 66.2262C22.5229 66.3234 22.3695 66.5343 22.4425 66.7673C22.5758 67.1944 22.7221 67.627 22.9292 68.0209C23.803 69.677 24.7609 71.2829 25.8282 72.8216C28.4572 76.6165 31.298 80.2436 34.3585 83.6985C43.3238 93.814 53.1929 102.946 64.0578 110.994C66.3897 112.72 68.7243 114.441 71.1931 115.967C73.0292 117.102 74.8883 118.202 76.7599 119.279C78.491 120.276 80.2582 121.213 81.9956 122.198C82.3241 122.384 82.6314 122.646 82.8767 122.935C83.7536 123.964 84.6055 125.017 85.4555 126.07C85.8603 126.572 86.2284 127.103 86.6289 127.607C87.4114 128.592 88.2186 129.558 88.6322 130.775C90.7975 134.899 93.8032 138.248 97.8738 140.545C101.73 142.721 105.867 143.948 110.345 143.797C111.086 143.771 111.825 143.697 112.563 143.631C112.749 143.615 112.929 143.544 113.203 143.475C113.074 143.331 113.017 143.217 112.924 143.169C112.639 143.02 112.341 142.893 112.048 142.759C110.846 142.21 109.64 141.67 108.445 141.108C106.653 140.266 105.042 139.152 103.571 137.828C102.255 136.642 100.942 135.45 99.5843 134.312C97.6029 132.651 95.4628 131.216 93.1382 130.07C92.0069 129.512 90.8269 129.073 89.5887 128.823C89.0855 128.721 88.7128 128.516 88.4014 128.09C87.469 126.815 86.4968 125.569 85.5426 124.31C85.4915 124.242 85.4615 124.157 85.4226 124.083C85.6506 123.902 85.8054 124.09 85.9646 124.159C87.6787 124.906 89.3902 125.663 91.1004 126.419C94.1697 127.777 97.3444 128.865 100.486 130.034C104.06 131.364 107.742 132.313 111.425 133.262C112.733 133.599 114.071 133.829 115.4 134.086C115.758 134.154 116.067 134.273 116.366 134.486C117.151 135.049 117.96 135.58 118.751 136.134C120.134 137.103 121.634 137.825 123.226 138.387C126.261 139.461 129.352 139.513 132.481 138.976C134.524 138.626 136.49 137.999 138.397 137.189C138.678 137.071 139.037 137.026 139.158 136.601C139.027 136.492 138.901 136.338 138.738 136.261C138.36 136.085 137.97 135.921 137.571 135.797C136.06 135.323 134.611 134.69 133.167 134.05C130.617 132.919 127.972 132.133 125.21 131.729C123.069 131.414 120.967 131.579 118.887 132.138C118.108 132.348 117.33 132.56 116.564 132.811C116.056 132.978 115.558 133.005 115.045 132.888C113.193 132.465 111.33 132.076 109.488 131.606C107.708 131.153 105.946 130.633 104.185 130.108C103.136 129.795 102.104 129.42 101.067 129.063C95.849 127.263 90.7624 125.14 85.7595 122.811C84.7428 122.337 83.6954 121.907 82.7708 121.24C82.4402 121.001 81.9991 120.922 81.6326 120.724C80.4409 120.081 79.2497 119.437 78.0791 118.758C76.1565 117.643 74.2404 116.511 72.3378 115.363C69.7142 113.779 67.2414 111.973 64.7826 110.148C64.2141 109.725 63.6473 109.299 63.0834 108.869C62.8868 108.719 62.7019 108.555 62.5685 108.276C62.7636 108.333 62.9618 108.378 63.1519 108.446C64.8217 109.044 66.4882 109.651 68.1573 110.247C70.2558 110.997 72.4235 111.504 74.5955 111.979C75.8228 112.248 77.0635 112.449 78.2974 112.692C78.5463 112.74 78.8215 112.785 79.0266 112.919C80.3349 113.775 81.7936 114.304 83.2415 114.841C85.9399 115.842 88.7261 116.515 91.5773 116.908C92.6968 117.062 93.8262 117.103 94.953 116.994C97.7858 116.72 100.567 116.176 103.292 115.348C103.838 115.181 104.406 115.043 104.943 114.647C104.82 114.499 104.747 114.364 104.633 114.285C104.504 114.195 104.34 114.157 104.189 114.097C102.326 113.373 100.47 112.633 98.6009 111.929C96.3638 111.087 94.0757 110.415 91.6981 110.105C89.7053 109.843 87.7073 109.887 85.7233 110.203C83.7801 110.512 81.8379 110.838 79.9975 111.581C79.6519 111.722 79.312 111.693 78.9545 111.647C77.1936 111.424 75.4642 111.032 73.7361 110.64C71.1866 110.063 68.6814 109.336 66.2464 108.372C64.8686 107.825 63.4547 107.364 62.0928 106.779C60.7609 106.207 59.4715 105.538 58.1744 104.887C57.8335 104.716 57.5176 104.478 57.2196 104.234C49.6467 98.0362 42.6458 91.2417 36.1012 83.9722C35.8823 83.7296 35.5159 83.5533 35.5479 83.1333C35.4763 83.1 35.4034 83.0661 35.3312 83.0341C35.3592 83.0076 35.3865 82.9793 35.4145 82.9528C35.462 83.0143 35.499 83.0789 35.5365 83.1423ZM178.059 119.985C180.012 120.791 180.59 121.115 182.209 122.225C183.139 122.863 183.979 123.617 184.747 124.445C185.124 124.851 185.43 125.304 185.535 125.862C185.628 126.353 185.487 126.757 185.06 127.033C184.845 127.172 184.605 127.274 184.382 127.403C184.075 127.579 183.753 127.736 183.474 127.95C182.707 128.541 182.307 129.31 182.436 130.303C182.46 130.494 182.49 130.686 182.506 130.878C182.531 131.16 182.42 131.39 182.183 131.535C181.936 131.685 181.678 131.818 181.414 131.935C181.12 132.065 180.808 132.155 180.513 132.283C179.018 132.935 178.378 134.054 178.566 135.678C178.599 135.966 178.646 136.253 178.672 136.541C178.727 137.197 178.417 137.65 177.858 137.956C177.392 138.211 176.891 138.292 176.365 138.269C175.512 138.232 174.723 137.981 173.961 137.611C171.509 136.421 169.476 134.748 167.884 132.519C166.314 130.32 165.529 127.893 165.549 125.193C165.557 124.218 165.656 123.258 166.005 122.346C166.716 120.482 167.961 119.194 169.971 118.77C171.02 118.55 172.08 118.535 173.144 118.634C174.925 118.798 176.608 119.329 178.059 119.985ZM176.073 147.288C175.884 147.305 175.746 147.354 175.637 147.319C174.934 147.092 174.211 146.904 173.544 146.595C171.973 145.868 170.674 144.773 169.54 143.469C168.408 142.17 167.51 140.727 166.811 139.157C165.509 136.235 164.795 133.182 164.81 129.973C164.811 129.811 164.716 129.588 165.015 129.508C165.071 129.623 165.131 129.735 165.179 129.85C166.536 133.178 168.729 135.808 171.793 137.683C172.834 138.321 173.896 138.949 175.116 139.207C175.616 139.313 176.126 139.378 176.667 139.467C176.753 139.654 176.857 139.851 176.939 140.057C177.494 141.439 177.503 142.733 176.458 143.943C175.885 144.606 175.736 145.438 175.911 146.313C175.975 146.625 176.016 146.94 176.073 147.288ZM192.24 121.945C192.044 122.019 191.841 122.11 191.631 122.173C190.539 122.505 189.537 123.006 188.669 123.757C188.547 123.862 188.415 123.955 188.286 124.052C187.819 124.403 187.289 124.453 186.725 124.423C186.216 124.396 185.943 124.07 185.614 123.748C184.83 122.987 184.03 122.233 183.173 121.559C181.618 120.335 179.854 119.472 178.019 118.739C175.993 117.93 173.915 117.422 171.719 117.462C171.59 117.464 171.459 117.397 171.203 117.326C171.466 117.179 171.6 117.096 171.74 117.026C172.787 116.501 173.906 116.206 175.055 116.01C177.205 115.642 179.355 115.604 181.484 116.111C183.182 116.516 184.805 117.149 186.349 117.971C187.23 118.439 188.121 118.896 188.969 119.421C189.898 119.996 190.792 120.63 191.683 121.265C191.906 121.421 192.19 121.567 192.24 121.945ZM184.72 132.515C185.266 133.031 185.652 133.581 185.95 134.193C186.351 135.014 186.397 135.804 185.711 136.517C185.623 136.61 185.56 136.726 185.476 136.826C185.069 137.309 184.842 137.863 184.764 138.49C184.708 138.937 184.604 139.379 184.534 139.824C184.398 140.693 183.989 141.403 183.301 141.945C182.629 142.475 182.151 143.157 181.725 143.885C181.53 144.219 181.314 144.539 181.094 144.857C180.319 145.981 178.595 146.492 177.029 145.387C177.075 145.224 177.098 145.029 177.182 144.869C177.302 144.643 177.46 144.433 177.619 144.231C178.46 143.157 178.633 141.958 178.29 140.665C178.207 140.352 178.102 140.047 178.016 139.737C177.968 139.562 177.94 139.38 177.898 139.179C178.839 138.825 179.426 138.168 179.79 137.281C180.958 137.124 181.625 136.387 182.063 135.383C182.127 135.236 182.191 135.084 182.284 134.954C182.509 134.643 182.718 134.311 182.992 134.046C183.525 133.533 184.097 133.062 184.72 132.515ZM186.656 125.54C187.894 125.645 188.771 125.171 189.58 124.467C190.37 123.779 191.328 123.39 192.341 123.145C192.518 123.102 192.71 123.112 192.872 123.099C193.398 123.715 193.352 124.328 192.972 124.92C192.713 125.322 192.421 125.723 192.071 126.045C190.937 127.087 190.241 128.346 189.989 129.867C189.926 130.243 189.81 130.624 189.639 130.966C189.108 132.036 188.287 132.753 187.058 132.904C186.753 132.942 186.498 132.876 186.295 132.609C185.985 132.202 185.647 131.816 185.319 131.419C185.36 131.116 185.437 130.828 185.43 130.545C185.416 130.041 185.59 129.615 185.807 129.172C186 128.776 186.083 128.323 186.208 127.894C186.252 127.741 186.244 127.561 186.32 127.429C186.634 126.885 186.74 126.297 186.656 125.54Z" fill="#DEE1D9"/>
</g>
<defs>
<clipPath id="clip0_107_186">
<rect width="113" height="217" fill="white" transform="matrix(0.389233 -0.921139 -0.921139 -0.389233 199.887 188.553)"/>
</clipPath>
</defs>
</svg>
