<svg width="244" height="189" viewBox="0 0 244 189" fill="none" xmlns="http://www.w3.org/2000/svg">
<g clip-path="url(#clip0_107_182)">
<path d="M208.335 105.41C208.123 105.269 207.894 105.148 207.704 104.983C204.209 101.967 200.48 99.2634 196.619 96.742C192.496 94.0484 188.083 91.9462 183.407 90.3915C180.959 89.5776 178.513 88.7572 176.001 88.1675C173.994 87.6964 171.975 87.2722 169.952 86.8768C166.98 86.2951 164.012 85.6891 161.003 85.3166C155.596 84.6485 150.177 84.1311 144.734 83.8777C142.126 83.7563 139.52 83.6341 136.915 83.4753C135.243 83.374 133.577 83.2048 131.907 83.0661C131.139 83.0017 130.348 83.0291 129.605 82.853C128.511 82.5932 127.419 82.2695 126.388 81.8305C124.758 81.1373 123.158 80.3524 121.672 79.383C120.543 78.6469 119.505 77.7702 118.417 76.9675C116.77 75.7505 115.433 74.2235 114.098 72.6912C113.77 72.3133 113.584 71.8902 113.523 71.3908C113.421 70.5589 113.286 69.7311 113.161 68.9019C112.718 65.9478 111.438 63.3801 109.549 61.0988C107.641 58.7946 105.363 56.9112 102.897 55.2411C102.82 55.1885 102.724 55.1618 102.636 55.1289C102.608 55.1187 102.572 55.1298 102.479 55.1333C102.462 55.2684 102.405 55.4207 102.43 55.5582C102.74 57.272 103.109 58.9751 103.371 60.6959C103.957 64.5393 106.99 69.0715 109.459 70.8597C110.349 71.5037 111.265 72.1037 112.258 72.571C112.62 72.7406 112.903 72.9703 113.151 73.2806C113.555 73.782 113.995 74.2532 114.416 74.7422C114.493 74.8314 114.55 74.941 114.735 75.2244C114.305 74.9984 114.064 74.8704 113.823 74.7442C113.566 74.6096 113.304 74.4849 113.051 74.343C110.095 72.6847 107.045 71.2197 103.916 69.9222C103.264 69.6511 102.766 69.2784 102.384 68.682C101.476 67.2671 100.181 66.2558 98.7593 65.4038C95.1465 63.2414 91.2418 62.6393 87.1197 63.3196C86.0384 63.4985 84.9727 63.7636 83.9028 64.0025C83.6934 64.0488 83.4962 64.1569 83.2903 64.2385C83.3312 64.674 83.6685 64.7997 83.9158 64.9716C84.7352 65.543 85.5702 66.0919 86.4074 66.6357C87.9777 67.6577 89.6065 68.5742 91.3794 69.2039C94.1299 70.1792 96.9396 70.8548 99.8849 70.7604C100.494 70.7402 101.104 70.6567 101.704 70.5486C102.103 70.4768 102.458 70.4964 102.827 70.6662C104.732 71.5371 106.672 72.34 108.546 73.2743C110.738 74.3658 112.889 75.5428 115.031 76.7298C116.354 77.4636 117.625 78.2918 118.925 79.0708C120.804 80.1975 122.681 81.3321 124.669 82.2641C124.808 82.3291 124.942 82.4053 125.079 82.4755C124.98 82.7189 124.805 82.66 124.654 82.6469C121.828 82.4011 119.015 82.0533 116.217 81.5849C113.23 81.0858 110.247 80.5623 107.301 79.8443C104.73 79.2178 102.2 78.4655 99.7033 77.5914C97.3881 76.7816 95.1127 75.8738 92.88 74.8614C89.6185 73.3821 86.4424 71.7367 83.373 69.8897C82.1586 69.159 80.9556 68.4086 79.7521 67.6596C79.4804 67.4911 79.2292 67.2885 78.9505 67.0895C78.9687 66.9486 78.9577 66.8153 79.0038 66.7061C79.5509 65.4114 79.7601 64.0398 79.9157 62.6608C80.0318 61.636 80.1224 60.6065 80.1643 59.5763C80.3511 54.9719 79.267 50.6761 76.9148 46.7224C75.6984 44.6779 74.1152 42.9472 72.0966 41.6454C71.1127 41.0106 70.0493 40.5566 68.9291 40.2334C68.6819 40.1627 68.4256 40.1172 68.1706 40.083C67.2169 39.9527 66.8144 40.2713 66.6769 41.2488C66.6593 41.3701 66.6386 41.4915 66.6116 41.6532C66.2971 41.5969 66.0157 41.5455 65.7346 41.4971C64.1108 41.2246 62.8197 41.7913 61.8335 43.0782C61.5604 43.4346 61.3314 43.8281 61.1087 44.2212C60.8042 44.7605 60.4585 45.267 59.9643 45.6434C58.868 46.4808 58.3596 47.6295 58.1471 48.9476C58.1065 49.2031 58.0562 49.4561 58.0321 49.7125C57.9796 50.2786 57.7781 50.7772 57.3894 51.1935C56.57 52.0713 56.3273 53.0841 56.6515 54.2368C56.6679 54.2958 56.6514 54.3639 56.6498 54.469C56.4477 54.5306 56.2356 54.5942 56.0224 54.6604C54.4874 55.1378 53.5138 56.1848 53.0003 57.6791C52.8441 58.1355 52.734 58.6099 52.6352 59.0829C52.4712 59.8623 52.1222 60.536 51.5737 61.1131C51.1964 61.5098 50.8265 61.9142 50.4586 62.321C50.0855 62.7332 49.8345 63.2185 49.6438 63.7385C49.4097 64.3795 49.4364 65.0082 49.756 65.6105C49.9219 65.9242 50.0495 66.2416 50.1504 66.5861C50.2361 66.8796 50.4344 67.1748 50.6626 67.3846C51.2533 67.9284 51.8474 68.4858 52.5116 68.9319C55.1971 70.7347 58.0154 72.2886 61.123 73.2555C62.3294 73.632 63.5633 73.8562 64.8261 73.9072C66.6065 73.9794 68.3672 73.8409 70.1059 73.4251C71.6298 73.0609 73.041 72.4455 74.3317 71.5646C75.7713 70.5811 77.143 69.5123 78.3263 68.1755C78.5159 68.2556 78.706 68.3022 78.8572 68.4044C81.1745 69.9918 83.6276 71.3485 86.0779 72.7117C88.9002 74.2812 91.8136 75.6609 94.7906 76.9005C96.5752 77.6438 98.4057 78.2749 100.216 78.9584C100.302 78.9902 100.381 79.0407 100.58 79.1399C100.366 79.1966 100.26 79.2344 100.149 79.2536C98.9054 79.4726 97.7366 79.2606 96.5862 78.7408C95.527 78.2626 94.388 78.0126 93.2497 77.7722C91.6189 77.4293 89.9846 77.4281 88.3475 77.6831C86.8632 77.9138 85.4839 78.4356 84.2134 79.2469C82.9016 80.0836 81.7351 81.0982 80.624 82.1806C80.4943 82.3066 80.4092 82.479 80.2554 82.6943C80.434 82.7606 80.5408 82.8088 80.652 82.8389C80.744 82.864 80.8425 82.8735 80.9388 82.8774C82.6916 82.9425 84.3766 83.3818 86.0665 83.7986C87.7024 84.2019 89.3589 84.4223 91.048 84.2398C93.7048 83.9515 96.0086 82.8828 97.9275 81.0295C98.333 80.6386 98.7433 80.4612 99.2831 80.4227C101.348 80.2735 103.41 80.3421 105.46 80.5784C106.35 80.6805 107.217 80.9764 108.097 81.1721C113.576 82.3888 119.105 83.314 124.701 83.7637C128.908 84.1011 133.119 84.3976 137.331 84.6562C141.543 84.9148 145.76 85.1035 149.977 85.3194C150.166 85.3288 150.357 85.295 150.546 85.2841C150.555 85.3139 150.557 85.3473 150.576 85.3657C150.588 85.3788 150.621 85.3697 150.647 85.3699C150.608 85.3459 150.569 85.3231 150.53 85.299C150.476 85.3696 150.432 85.4856 150.363 85.5026C150.145 85.5577 149.92 85.5867 149.697 85.6074C143.353 86.2035 137.133 87.4511 130.998 89.156C130.377 89.3287 129.743 89.4516 129.114 89.5869C128.61 89.6958 128.096 89.7649 127.597 89.8912C125.428 90.4409 123.213 90.6173 120.99 90.7703C114.558 91.2127 108.112 91.3968 101.686 91.9399C101.461 91.9582 101.236 91.9657 101.012 91.9921C98.8665 92.2438 96.7654 91.9887 94.6994 91.4113C93.1482 90.978 91.6038 90.5138 90.0531 90.0792C89.3852 89.8919 88.8161 89.5687 88.3168 89.0804C87.6948 88.4729 87.0548 87.8792 86.3851 87.3266C85.0118 86.1933 83.5094 85.2674 81.8797 84.5343C78.248 82.8986 74.468 81.9325 70.4725 81.8895C70.0032 81.8843 69.5163 81.8011 68.9924 82.0485C69.0864 82.1847 69.1325 82.3038 69.2187 82.3678C71.4904 84.0631 73.7355 85.7961 76.0495 87.4312C77.7944 88.6633 79.7139 89.5909 81.7811 90.1763C83.7214 90.7251 85.6989 90.954 87.7112 90.7671C88.1748 90.7241 88.5958 90.7748 89.0354 90.9192C90.0462 91.2513 91.0695 91.5428 92.0865 91.853C92.2386 91.8989 92.3865 91.9583 92.715 92.0757C92.374 92.1507 92.2103 92.2086 92.0435 92.2194C85.5534 92.6206 79.0963 92.3096 72.6642 91.378C70.463 91.0591 68.264 90.7351 66.1037 90.1961C63.5024 89.5488 60.9495 88.7581 58.4714 87.7324C58.1703 87.6082 57.8961 87.4816 57.7362 87.1536C56.9577 85.5546 55.6188 84.5063 54.1742 83.5634C52.4084 82.4097 50.4316 81.8533 48.3761 81.5408C47.1662 81.3574 45.9464 81.2373 44.7312 81.0991C44.5836 81.0827 44.4297 81.128 44.1887 81.1548C44.3257 81.3812 44.4023 81.5515 44.5167 81.6902C45.2965 82.634 46.0884 83.5677 46.8701 84.5108C48.072 85.9593 49.4104 87.2587 51.0399 88.2169C51.6748 88.5908 52.3508 88.9148 53.043 89.1675C53.9761 89.5097 54.9473 89.4283 55.9078 89.2275C56.4435 89.1153 56.9786 88.9936 57.5132 88.8733C57.8715 88.7933 58.2067 88.8369 58.5511 88.9748C63.281 90.8662 68.2046 91.9769 73.2513 92.5897C74.7512 92.7716 76.2494 92.9573 77.773 93.1446C77.7387 93.3706 77.554 93.3477 77.4322 93.3713C74.7437 93.9159 72.0827 94.5655 69.449 95.3354C69.1468 95.4238 68.8157 95.4539 68.4986 95.4471C68.0169 95.435 67.533 95.3884 67.0553 95.3198C64.2589 94.9133 61.8408 95.7851 59.6639 97.488C58.6665 98.2692 57.8052 99.1844 57.053 100.196C56.3025 101.204 55.5952 102.245 54.8831 103.281C54.7241 103.513 54.5208 103.744 54.5644 104.122C54.7305 104.15 54.9127 104.222 55.0859 104.203C56.8804 104.01 58.6751 103.809 60.4677 103.596C60.851 103.551 61.2277 103.453 61.6052 103.367C64.3861 102.734 66.5228 101.184 68.078 98.8082C68.4138 98.296 68.7556 97.7878 69.0995 97.282C69.5137 96.6711 70.0629 96.2843 70.7953 96.0943C74.6373 95.095 78.4881 94.1438 82.448 93.7458C83.7284 93.6174 85.0191 93.5806 86.3067 93.5257C87.2402 93.4866 88.1752 93.491 89.1109 93.4682C92.2691 93.3917 95.4273 93.326 98.5833 93.2256C99.9999 93.1807 101.414 93.0645 102.829 92.9762C105.082 92.834 107.332 92.6773 109.585 92.5446C113.64 92.3062 117.695 92.0785 121.75 91.8482C122.001 91.8347 122.253 91.8368 122.565 91.8307C122.474 92.1021 122.277 92.1243 122.128 92.1869C120.052 93.0778 117.977 93.9674 115.975 95.0179C114.576 95.7521 113.189 96.5109 111.787 97.2408C111.361 97.4636 110.908 97.6369 110.46 97.8168C109.623 98.1538 108.779 98.4743 107.942 98.8101C107.373 99.0369 106.824 99.3258 106.241 99.5055C103.683 100.292 101.114 101.043 98.5526 101.822C97.6022 102.112 96.6489 102.107 95.682 101.968C94.7252 101.831 93.7682 101.697 92.8095 101.568C89.6309 101.135 86.5865 101.659 83.6133 102.805C80.6987 103.928 78.0473 105.504 75.5398 107.345C75.3443 107.489 75.1742 107.667 74.9015 107.91C75.2298 107.995 75.4356 108.08 75.6477 108.097C76.1938 108.137 76.7409 108.154 77.2893 108.171C79.2548 108.233 81.2144 108.359 83.164 108.636C84.8609 108.877 86.5634 108.916 88.2736 108.727C89.907 108.545 91.4111 108.018 92.8054 107.157C94.0446 106.39 95.2007 105.52 96.224 104.479C96.3368 104.364 96.4521 104.25 96.567 104.138C97.4887 103.228 97.4984 103.263 98.7846 102.907C100.804 102.348 102.809 101.737 104.823 101.149C105.123 101.061 105.426 100.986 105.73 100.904C105.806 101.174 105.632 101.24 105.514 101.334C104.478 102.156 103.439 102.973 102.405 103.795C101.243 104.719 100.13 105.7 99.1013 106.773C98.7564 107.133 98.3527 107.353 97.887 107.524C96.7682 107.936 95.6622 108.384 94.5615 108.844C91.9826 109.919 90.0163 111.743 88.369 113.953C86.8138 116.04 85.6415 118.325 84.7852 120.779C84.541 121.48 84.276 122.172 84.0266 122.871C83.9204 123.17 83.7954 123.469 83.9035 123.847C84.0227 123.844 84.156 123.873 84.2608 123.831C84.4994 123.737 84.7294 123.617 84.9539 123.491C87.0661 122.311 89.1805 121.136 91.2834 119.938C92.0957 119.476 92.8937 118.986 93.6674 118.462C96.1492 116.784 97.685 114.41 98.6003 111.603C98.7483 111.148 98.7974 110.658 98.8777 110.182C98.9265 109.896 98.9511 109.606 98.9795 109.318C99.0495 108.62 99.3394 108.072 99.8621 107.566C103.285 104.251 107.042 101.373 111.127 98.9336C114.759 96.764 118.544 94.8794 122.46 93.274C123.772 92.7363 125.115 92.2694 126.444 91.7742C126.559 91.7321 126.682 91.7153 126.902 91.6627C126.799 91.8109 126.766 91.8996 126.704 91.9435C123.891 93.9142 121.32 96.1521 119.088 98.771C118.927 98.9616 118.709 99.1317 118.483 99.2336C116.096 100.306 114.409 102.133 113.015 104.278C111.675 106.342 110.91 108.628 110.49 111.031C110.252 112.395 110.107 113.777 109.926 115.151C109.915 115.239 109.942 115.334 109.954 115.468C110.056 115.44 110.166 115.445 110.211 115.394C111.482 113.916 113.021 112.739 114.536 111.534C115.527 110.746 116.367 109.822 117.076 108.769C117.898 107.547 118.426 106.203 118.826 104.802C119.19 103.523 119.39 102.215 119.37 100.886C119.362 100.327 119.57 99.9092 119.921 99.5041C121.809 97.3253 123.912 95.3798 126.229 93.6686C127.864 92.4601 129.546 91.3138 131.385 90.4318C131.992 90.1412 132.625 89.8773 133.275 89.7078C138.715 88.2928 144.219 87.2126 149.823 86.7343C152.262 86.5257 154.714 86.4447 157.159 86.3154C157.545 86.2944 157.933 86.3251 158.318 86.3332C160.739 86.385 163.132 86.6758 165.504 87.15C168.19 87.6874 170.881 88.1993 173.565 88.7452C175.746 89.1886 177.885 89.791 180.01 90.453C182.229 91.1438 184.425 91.8911 186.584 92.7482C188.986 93.7017 191.298 94.8398 193.519 96.1628C193.628 96.2272 193.731 96.3028 193.929 96.4355C193.479 96.4658 193.153 96.3678 192.834 96.2808C188.378 95.0673 183.845 94.2502 179.257 93.7502C174.662 93.2487 170.062 93.1327 165.467 93.7953C162.428 94.2347 159.457 94.9832 156.507 95.814C154.488 96.3825 152.486 97.0119 150.553 97.8329C149.932 98.0973 149.339 98.1715 148.678 98.0515C147.015 97.7486 145.347 97.7792 143.672 98.0121C141.051 98.3752 138.72 99.4002 136.631 101.006C134.466 102.671 132.617 104.633 131.064 106.88C130.441 107.783 129.809 108.677 129.183 109.578C129.096 109.705 129.028 109.845 128.902 110.064C129.135 110.084 129.285 110.125 129.421 110.1C129.736 110.039 130.049 109.955 130.357 109.861C131.69 109.458 133.051 109.212 134.435 109.069C135.493 108.96 136.55 108.832 137.602 108.681C139.045 108.474 140.438 108.082 141.798 107.554C144.466 106.519 146.6 104.809 148.239 102.484C148.87 101.589 149.441 100.649 149.986 99.698C150.249 99.2392 150.609 98.9978 151.074 98.8143C152.936 98.075 154.834 97.4479 156.76 96.9074C159.959 96.0088 163.178 95.1905 166.488 94.7951C169.345 94.4535 172.207 94.4081 175.08 94.5434C177.95 94.6777 180.792 95.0452 183.628 95.4731C183.775 95.4953 183.916 95.5551 184.047 95.6959C183.697 95.7184 183.348 95.7471 182.999 95.762C178.718 95.9353 174.548 96.704 170.486 98.0778C168.922 98.6071 167.422 99.2788 165.995 100.103C165.425 100.433 164.828 100.64 164.179 100.724C163.283 100.84 162.392 100.982 161.496 101.098C160.241 101.262 159.028 101.582 157.86 102.066C154.836 103.322 152.191 105.111 150.042 107.611C148.924 108.91 147.926 110.293 146.991 111.726C146.923 111.83 146.886 111.954 146.841 112.071C146.831 112.098 146.846 112.135 146.856 112.223C146.956 112.24 147.076 112.287 147.187 112.271C147.377 112.244 147.564 112.189 147.747 112.125C148.972 111.7 150.242 111.48 151.518 111.279C152.601 111.107 153.687 110.944 154.756 110.707C159.006 109.757 162.222 107.34 164.571 103.712C164.957 103.117 165.336 102.517 165.707 101.912C165.986 101.457 166.379 101.154 166.844 100.897C168.662 99.8915 170.585 99.149 172.574 98.5817C176.188 97.5502 179.869 96.9255 183.632 96.8658C186.774 96.8163 189.878 97.129 192.904 98.0107C194.14 98.3707 195.383 98.729 196.588 99.1828C199.538 100.293 202.2 101.905 204.658 103.88C210.131 108.274 214.779 113.425 218.768 119.181C219.299 119.946 219.717 120.789 220.187 121.598C220.3 121.793 220.394 121.999 220.521 122.185C220.654 122.38 220.9 122.424 221.125 122.327C221.348 122.229 221.502 122.018 221.429 121.785C221.295 121.358 221.149 120.926 220.942 120.532C220.068 118.876 219.11 117.27 218.043 115.731C215.414 111.936 212.573 108.309 209.513 104.854C200.547 94.7387 190.678 85.6063 179.813 77.5591C177.481 75.8323 175.147 74.112 172.678 72.5862C170.842 71.4503 168.983 70.3507 167.111 69.2733C165.38 68.2768 163.613 67.3401 161.875 66.3547C161.547 66.1684 161.24 65.9068 160.994 65.6178C160.117 64.5885 159.266 63.536 158.416 62.4829C158.011 61.9809 157.643 61.45 157.242 60.9453C156.46 59.9605 155.652 58.9943 155.239 57.7778C153.074 53.6533 150.068 50.3043 145.997 48.0082C142.141 45.8318 138.004 44.6047 133.526 44.7559C132.785 44.7814 132.046 44.8554 131.308 44.9218C131.122 44.9382 130.942 45.0092 130.668 45.0774C130.797 45.2221 130.855 45.3354 130.947 45.3838C131.232 45.5331 131.531 45.6593 131.823 45.7935C133.025 46.3429 134.231 46.8832 135.426 47.445C137.219 48.2865 138.83 49.4008 140.3 50.7252C141.616 51.9109 142.929 53.1032 144.287 54.2407C146.268 55.9022 148.408 57.3365 150.733 58.4828C151.864 59.0405 153.044 59.4793 154.282 59.7298C154.786 59.8322 155.158 60.0371 155.47 60.4629C156.402 61.7378 157.374 62.9835 158.328 64.2431C158.38 64.3106 158.41 64.3953 158.448 64.47C158.22 64.6509 158.066 64.4629 157.906 64.3941C156.192 63.6469 154.481 62.89 152.771 62.1336C149.701 60.7754 146.527 59.6882 143.385 58.5186C139.811 57.189 136.129 56.24 132.447 55.2905C131.138 54.9535 129.8 54.7239 128.472 54.4672C128.113 54.3985 127.804 54.2799 127.505 54.0664C126.72 53.5035 125.911 52.9732 125.12 52.4183C123.737 51.4493 122.237 50.7281 120.645 50.1659C117.61 49.0918 114.519 49.0401 111.39 49.5763C109.347 49.9263 107.381 50.5541 105.474 51.3633C105.193 51.4819 104.834 51.5264 104.713 51.9515C104.844 52.0607 104.971 52.2151 105.133 52.2913C105.511 52.4681 105.901 52.6314 106.3 52.7556C107.811 53.2301 109.26 53.8623 110.704 54.503C113.254 55.6341 115.899 56.4195 118.662 56.8237C120.802 57.1383 122.904 56.9741 124.984 56.4143C125.763 56.2043 126.541 55.9924 127.307 55.7415C127.815 55.5748 128.313 55.5478 128.826 55.6648C130.678 56.0876 132.541 56.4763 134.383 56.9466C136.163 57.4 137.926 57.9197 139.686 58.4446C140.736 58.7578 141.767 59.1322 142.804 59.4892C148.022 61.2898 153.109 63.4132 158.112 65.7417C159.128 66.2157 160.176 66.646 161.1 67.3125C161.431 67.5517 161.872 67.6309 162.238 67.8287C163.43 68.4716 164.621 69.1159 165.792 69.7944C167.715 70.9102 169.631 72.0415 171.533 73.1902C174.157 74.7737 176.63 76.58 179.089 78.4049C179.657 78.8274 180.224 79.2539 180.788 79.6836C180.984 79.8341 181.169 79.998 181.303 80.2765C181.107 80.2202 180.909 80.1747 180.719 80.1066C179.049 79.5083 177.383 78.9021 175.714 78.3056C173.615 77.5552 171.448 77.0483 169.276 76.5733C168.048 76.3044 166.808 76.1034 165.574 75.8608C165.325 75.8123 165.05 75.768 164.845 75.6339C163.536 74.7777 162.077 74.2486 160.63 73.7119C157.931 72.7111 155.145 72.0378 152.294 71.645C151.174 71.4906 150.045 71.4499 148.918 71.559C146.085 71.8327 143.304 72.3763 140.58 73.2045C140.033 73.3718 139.465 73.5101 138.929 73.9056C139.051 74.0539 139.124 74.1889 139.238 74.2676C139.367 74.3574 139.531 74.3961 139.682 74.4553C141.545 75.1798 143.402 75.9198 145.27 76.6236C147.507 77.4662 149.795 78.1374 152.173 78.4481C154.166 78.7095 156.164 78.6652 158.148 78.35C160.091 78.0405 162.033 77.7152 163.874 76.9716C164.219 76.8312 164.559 76.8599 164.917 76.9052C166.678 77.1285 168.407 77.5207 170.135 77.9123C172.684 78.4902 175.19 79.2163 177.625 80.1809C179.002 80.7278 180.416 81.189 181.778 81.7736C183.11 82.3456 184.4 83.0146 185.697 83.6653C186.038 83.8369 186.353 84.0746 186.652 84.3185C194.224 90.5166 201.225 97.311 207.77 104.581C207.989 104.823 208.355 104.999 208.323 105.419C208.395 105.453 208.468 105.487 208.54 105.519C208.512 105.545 208.485 105.573 208.457 105.6C208.409 105.538 208.372 105.474 208.335 105.41ZM65.8117 68.568C63.8594 67.7614 63.2814 67.4375 61.6624 66.3275C60.732 65.6892 59.8916 64.9358 59.1241 64.1075C58.7476 63.7017 58.4414 63.2491 58.3357 62.6912C58.2432 62.2002 58.3836 61.7953 58.811 61.5194C59.0259 61.3804 59.2665 61.2783 59.489 61.1502C59.7963 60.9736 60.1181 60.817 60.397 60.6024C61.164 60.0119 61.5638 59.2432 61.4355 58.2499C61.4107 58.0587 61.3814 57.867 61.3648 57.6746C61.3399 57.393 61.451 57.1626 61.6883 57.0177C61.9353 56.8678 62.1935 56.7349 62.4572 56.618C62.751 56.4879 63.0632 56.3976 63.3577 56.2693C64.8532 55.6174 65.493 54.4982 65.305 52.8746C65.2721 52.5864 65.2248 52.2999 65.1996 52.0119C65.1446 51.356 65.4539 50.903 66.0133 50.597C66.4793 50.342 66.9803 50.2611 67.5063 50.2842C68.3587 50.3211 69.1482 50.572 69.9105 50.9416C72.3618 52.1322 74.3951 53.8048 75.9866 56.0339C77.5573 58.2326 78.3424 60.6601 78.3221 63.3601C78.3145 64.3343 78.2151 65.2943 77.8661 66.207C77.155 68.0712 75.9097 69.3589 73.8998 69.7827C72.8515 70.003 71.7907 70.0175 70.7272 69.9189C68.9459 69.7545 67.2627 69.224 65.8117 68.568ZM67.7984 41.2646C67.9875 41.2481 68.1247 41.1988 68.2337 41.2341C68.937 41.4608 69.6599 41.6483 70.3267 41.9577C71.8979 42.6844 73.1968 43.7802 74.3313 45.0838C75.4631 46.3832 76.3612 47.8259 77.0602 49.3959C78.3622 52.3176 79.0759 55.3706 79.0607 58.5799C79.0597 58.7418 79.1553 58.9646 78.8565 59.0451C78.7998 58.9292 78.7397 58.818 78.6919 58.7029C77.3351 55.375 75.1416 52.7445 72.078 50.8694C71.037 50.2319 69.9751 49.6039 68.7555 49.3459C68.2552 49.2402 67.7454 49.175 67.2045 49.0858C67.118 48.8991 67.0145 48.7022 66.9318 48.4957C66.3769 47.1137 66.3679 45.82 67.4133 44.6102C67.986 43.9468 68.1354 43.1152 67.9603 42.24C67.8962 41.928 67.8547 41.6132 67.7984 41.2646ZM51.6307 66.6079C51.8275 66.5333 52.0296 66.4425 52.2399 66.3797C53.3323 66.0478 54.3337 65.5471 55.2023 64.7958C55.3246 64.6912 55.4558 64.598 55.5855 64.5012C56.0523 64.15 56.5818 64.0995 57.1462 64.1296C57.6554 64.1563 57.9277 64.4828 58.2572 64.8043C59.0406 65.5659 59.8412 66.3194 60.6981 66.994C62.2535 68.2181 64.0167 69.081 65.8517 69.8136C67.8781 70.6223 69.9562 71.1312 72.1516 71.0907C72.281 71.0887 72.4117 71.1562 72.6683 71.2263C72.4053 71.3741 72.2709 71.4567 72.1313 71.5264C71.0841 72.0521 69.9646 72.3466 68.8162 72.543C66.6662 72.9107 64.5161 72.949 62.387 72.4415C60.689 72.0365 59.0657 71.4042 57.5226 70.5821C56.6415 70.1133 55.7504 69.6571 54.9024 69.1318C53.9728 68.5567 53.0787 67.923 52.1883 67.2879C51.9648 67.1321 51.6806 66.986 51.6307 66.6079ZM59.1511 56.0376C58.6051 55.5219 58.2194 54.9713 57.9207 54.3595C57.5203 53.5392 57.4745 52.7492 58.1603 52.0355C58.2485 51.9426 58.3113 51.8267 58.3947 51.7271C58.8025 51.2437 59.0289 50.6898 59.1072 50.0626C59.1628 49.6158 59.2668 49.1741 59.3371 48.7289C59.4733 47.8596 59.8819 47.1498 60.5704 46.6073C61.2426 46.0779 61.7206 45.3959 62.1463 44.6673C62.3406 44.3342 62.5572 44.0136 62.7772 43.696C63.5525 42.5713 65.2762 42.0603 66.8418 43.1661C66.7959 43.329 66.7735 43.5233 66.6889 43.6837C66.5687 43.9102 66.4114 44.1194 66.2524 44.3219C65.4113 45.3958 65.2385 46.5944 65.5812 47.8882C65.6636 48.2003 65.769 48.5053 65.8551 48.8159C65.9035 48.9911 65.9309 49.1727 65.9728 49.3742C65.0321 49.7274 64.4451 50.3848 64.0813 51.2713C62.9126 51.4286 62.246 52.1657 61.8081 53.1695C61.7442 53.3171 61.6799 53.4692 61.587 53.5984C61.3622 53.9094 61.1527 54.2422 60.8788 54.5064C60.3465 55.0199 59.7742 55.4904 59.1511 56.0376ZM57.2155 63.0129C55.9771 62.9079 55.1003 63.3815 54.2913 64.0861C53.5016 64.7742 52.5429 65.1627 51.5303 65.4073C51.3529 65.4503 51.1608 65.4412 50.9992 65.4541C50.4728 64.8379 50.5191 64.2248 50.8992 63.6332C51.158 63.2308 51.4497 62.8302 51.8002 62.5079C52.934 61.4658 53.63 60.2064 53.8821 58.6859C53.9447 58.3095 54.0614 57.9283 54.2318 57.5867C54.7635 56.5168 55.5837 55.8002 56.8127 55.6485C57.1181 55.6105 57.3732 55.677 57.5759 55.9434C57.8862 56.3503 58.2236 56.7364 58.5516 57.1339C58.5108 57.4369 58.4337 57.7245 58.441 58.0079C58.4547 58.5116 58.2808 58.9376 58.0645 59.3808C57.871 59.7771 57.7885 60.2294 57.6636 60.6592C57.619 60.8119 57.6272 60.9916 57.5516 61.1235C57.2373 61.6679 57.1313 62.2558 57.2155 63.0129Z" fill="#DEE1D9"/>
</g>
<defs>
<clipPath id="clip0_107_182">
<rect width="113" height="217" fill="white" transform="matrix(-0.389233 0.921139 0.921139 0.389233 43.9836 0)"/>
</clipPath>
</defs>
</svg>
