<svg width="186" height="161" viewBox="0 0 186 161" fill="none" xmlns="http://www.w3.org/2000/svg">
<g clip-path="url(#clip0_18_4)">
<path fill-rule="evenodd" clip-rule="evenodd" d="M172.323 67.091C172.566 68.3946 172.602 68.7854 172.603 70.1348C172.603 70.8013 172.657 71.8674 172.722 72.5042C172.883 74.0987 172.912 76.4522 172.786 77.8541C172.485 81.2213 172.479 83.1462 172.764 84.9158C172.948 86.0575 173.303 89.5365 173.288 90.0577C173.249 91.507 172.45 93.5479 171.493 94.6479C170.865 95.3693 170.51 95.6171 169.274 96.1999C168.644 96.4966 167.772 96.8771 167.335 97.0457L166.541 97.352L167.154 98.6579C167.823 100.085 167.986 100.6 168.035 101.444C168.071 102.065 167.845 102.713 167.465 103.074C166.822 103.684 165.014 104.105 163.1 104.092C160.525 104.074 157.964 103.261 154.981 101.514C154.557 101.265 154.194 101.054 154.174 101.045C153.983 100.952 153.186 103.016 152.942 104.235C152.739 105.255 152.355 106.541 151.86 107.863C151.335 109.267 151.094 109.745 150.653 110.262C149.669 111.414 147.385 112.902 146.587 112.912C145.626 112.924 144.87 111.923 144.45 110.084C144.129 108.676 143.671 107.717 142.428 105.852C141.879 105.028 140.903 103.832 139.941 102.804C139.583 102.42 139.019 101.787 138.689 101.396C138.357 101.006 137.799 100.376 137.446 99.995C137.093 99.6144 136.494 98.9033 136.115 98.4147C135.422 97.5214 132.948 94.8345 131.703 93.6213C131.313 93.2413 130.922 92.7949 130.762 92.548C129.986 91.3473 128.971 89.0667 128.847 88.2495C128.816 88.0421 128.865 87.4105 128.967 86.726C129.062 86.0833 129.165 85.361 129.195 85.1218C129.227 84.8824 129.377 84.3988 129.53 84.0463C129.683 83.6938 129.915 83.1364 130.044 82.8074C130.284 82.1966 130.709 81.4046 130.825 81.3476C131.024 81.2508 131 81.1388 130.748 80.99C130.51 80.8484 130.15 80.4444 130.024 80.1752C129.993 80.1089 129.745 79.8271 129.473 79.5483C129.2 79.2697 128.924 78.9268 128.858 78.7871C128.725 78.5016 128.343 78.0506 128.031 77.8092C127.917 77.7213 127.522 77.4873 127.151 77.2891C126.254 76.8084 124.834 75.7099 124.667 75.367L124.545 75.1151L123.367 74.976C121.895 74.802 122.189 74.8033 120.179 74.963C116.967 75.2172 115.058 75.6092 111.936 76.6551C106.867 78.3538 104.136 79.3317 102.269 80.1159C98.6002 81.6572 94.0292 83.4385 92.0094 84.1137C89.8268 84.8433 85.9795 85.8671 84.0651 86.2277C82.3811 86.5449 77.7761 87.231 75.3194 87.5314C74.0476 87.6862 72.9895 87.8216 72.9678 87.8317C72.9461 87.8419 73.352 87.9139 73.8697 87.9923C74.8384 88.1383 76.7371 88.6507 78.1851 89.157C78.6382 89.3156 79.527 89.6975 80.161 90.0065C80.8578 90.3461 82.0366 90.8258 83.1399 91.2181C84.144 91.5761 85.5187 92.105 86.1948 92.3941C86.871 92.6833 87.9039 93.1012 88.4909 93.3227L89.5573 93.7257L89.6112 93.516C89.6404 93.4009 89.8921 93.036 90.1701 92.705C90.4481 92.3741 90.8249 91.8792 91.0079 91.6045C91.1904 91.3301 91.5113 90.9136 91.7208 90.678C91.9305 90.443 92.3565 89.9338 92.6678 89.5468C93.4537 88.5691 93.543 88.4913 94.7595 87.7136C96.2527 86.7591 97.7112 85.9862 99.8995 84.9909C102.101 83.9889 102.109 83.987 102.872 84.3438C103.45 84.6147 103.652 84.7897 103.833 85.1752C104.002 85.5348 104.041 85.8382 103.975 86.2822C103.941 86.5112 103.952 86.6162 104.009 86.6078C104.056 86.6003 104.414 86.4997 104.804 86.384C105.196 86.2681 105.789 86.1415 106.122 86.1018C106.981 86.0005 108.402 85.9941 109.035 86.0881C110.061 86.241 111.484 86.9243 112.143 87.5822C112.316 87.7552 112.726 88.286 113.055 88.7618C114.277 90.5365 114.707 90.952 116.383 91.9694C117.421 92.5994 117.807 92.7894 118.879 93.1955C120.276 93.7249 120.684 93.9771 120.905 94.4487C121.295 95.2812 120.802 95.8562 118.956 96.7222C118.07 97.1375 117.881 97.2042 117.226 97.3311C116.822 97.4095 116.487 97.4857 116.482 97.5008C116.476 97.5158 116.59 97.6699 116.734 97.8431C117.112 98.2951 117.32 98.8698 117.293 99.3858C117.262 99.9795 116.825 101.102 116.352 101.804C115.476 103.106 115.139 103.695 114.696 104.698C113.257 107.957 112.02 109.507 110.025 110.555C109.407 110.88 109.243 110.941 108.836 111C107.841 111.143 106.452 110.802 105.19 110.105L104.992 109.995L104.532 110.348C104.28 110.542 103.686 111.075 103.212 111.532C102.456 112.262 102.296 112.39 101.886 112.582C101.452 112.786 101.373 112.8 100.716 112.785C99.9067 112.767 99.2484 112.574 98.8655 112.241C98.5488 111.965 97.5515 110.652 96.384 108.972C95.5675 107.798 95.4147 107.612 94.7533 106.988C94.352 106.609 93.7605 105.979 93.4395 105.59C92.9712 105.022 92.7093 104.771 92.1211 104.328C91.3531 103.749 90.6011 103.061 90.1781 102.551C90.0408 102.385 89.6028 101.776 89.2036 101.196C88.2568 99.818 88.1659 99.5866 88.06 98.2864C88.0163 97.7447 87.9845 97.1924 87.99 97.0582C88.0141 96.4745 88.7567 94.7566 89.043 94.6223C89.0876 94.6014 89.1159 94.5676 89.106 94.5465C89.0961 94.5254 88.6753 94.351 88.17 94.158C87.6656 93.9654 86.4342 93.4583 85.4349 93.0304C84.435 92.6029 83.2263 92.1284 82.7483 91.9764C81.789 91.6701 80.8242 91.2562 79.6894 90.6633C78.6216 90.1052 78.0356 89.8781 76.3318 89.364C74.04 88.6722 73.5354 88.5826 70.9036 88.4029C69.77 88.3254 69.1265 88.4023 66.8996 88.8808C63.751 89.5578 62.6396 89.8681 58.3382 91.2753C56.7599 91.7912 54.9587 92.3714 54.3355 92.5637C50.2469 93.827 44.7274 96.3551 38.6784 99.7332C38.126 100.042 37.6819 100.314 37.6926 100.337C37.7034 100.359 37.8363 100.342 37.987 100.298C38.5202 100.142 40.7452 99.7149 41.3727 99.6462C41.7212 99.6084 42.6348 99.5775 43.4014 99.5781C44.7253 99.5782 44.8038 99.57 44.943 99.4151C45.0469 99.2995 45.4524 99.0822 46.3265 98.6737C47.3833 98.1796 47.7259 98.0491 48.6821 97.7749C50.2428 97.3281 53.2121 96.805 54.5402 96.7436C55.4714 96.7 57.8173 96.7859 58.6937 96.8952C59.5357 97 62.0231 97.4693 63.595 97.8197C65.4424 98.232 68.0332 99.2024 71.2963 100.705C74.5877 102.22 75.4628 102.683 78.4354 104.483C80.3099 105.618 80.9212 105.925 82.522 106.534C83.1889 106.788 84.2425 107.203 84.8641 107.457C87.4447 108.513 88.6341 108.952 90.6028 109.579C93.2342 110.417 94.0975 110.749 94.693 111.153C95.1113 111.437 95.1899 111.52 95.3351 111.829C95.4809 112.14 95.4892 112.208 95.4015 112.403C95.2458 112.749 94.9379 112.971 94.1779 113.282C93.3273 113.631 92.6939 113.783 91.5004 113.924C89.6818 114.139 88.5595 114.048 85.6516 113.449C84.6217 113.237 83.2117 112.947 82.5176 112.804C81.824 112.661 80.955 112.46 80.5869 112.355C80.2187 112.251 77.7145 111.297 75.0218 110.236C72.329 109.176 69.5254 108.074 68.7919 107.79C65.9879 106.702 63.2345 105.604 61.3483 104.822C55.1311 102.243 53.9259 101.842 50.013 101.046C47.1505 100.464 46.4232 100.384 43.6149 100.341C41.3776 100.306 40.8446 100.358 37.8832 100.9C37.1941 101.025 36.5026 101.149 36.3457 101.173C36.1094 101.21 35.6916 101.431 33.8402 102.496C32.6185 103.198 31.225 103.99 30.7432 104.257C30.2613 104.523 29.6028 104.919 29.2804 105.137C28.2328 105.843 22.595 108.397 21.1492 108.82C20.6247 108.974 20.1361 109.051 20.0781 108.991C20.0522 108.964 20.5534 108.712 21.2792 108.385C23.806 107.251 28.9962 104.465 29.7752 103.824C31.0511 102.774 32.2658 101.276 33.2473 99.5421L33.5872 98.9404L33.5979 98.0411C33.6203 96.1597 33.4252 95.3107 32.5296 93.3852C31.3485 90.8447 30.9463 89.6732 30.5217 87.5304C30.1217 85.5121 29.9822 84.1028 29.8413 80.6484C29.6422 75.7824 29.7275 74.156 30.292 72.0601C30.423 71.574 30.6467 70.7086 30.7902 70.1364C30.9335 69.5637 31.216 68.5884 31.4186 67.968C31.6205 67.3479 31.8985 66.457 32.0361 65.9883C32.3959 64.7622 34.1767 60.0782 34.5841 59.2831C34.7744 58.9125 35.2261 58.0048 35.5877 57.2672C36.7511 54.8956 38.3058 52.3957 40.3001 49.6932C41.7812 47.6856 43.1732 46.1951 44.2665 45.448C44.8934 45.0189 45.4401 45.0822 45.6162 45.6036C45.84 46.2643 45.3227 47.7348 43.6239 51.2715C42.3141 53.999 41.4272 56.1366 40.2058 59.5105C39.0828 62.6141 38.8487 63.3727 38.281 65.7552C37.812 67.7239 37.3907 68.9708 36.6792 70.4993C36.2015 71.5257 34.6334 74.4942 34.0117 75.5492C33.6431 76.1747 32.4111 77.981 31.9634 78.5524C31.7159 78.8684 30.9446 79.6166 30.7926 79.6879C30.6588 79.7506 30.6567 79.8089 30.7364 81.66C30.8314 83.8765 30.8966 84.6836 31.0776 85.9243C31.5278 89.0015 31.9478 90.4351 33.1572 93.0173C33.9439 94.6964 34.1851 95.5606 34.2304 96.8664C34.2397 97.1354 34.2625 97.3613 34.2808 97.3674C34.2994 97.3741 34.6745 96.4333 35.1144 95.2761C35.5544 94.119 36.0222 92.9289 36.1531 92.6309C36.315 92.2625 36.431 91.8121 36.5155 91.2221C36.6434 90.3296 36.6498 90.1377 36.6076 88.5343C36.5937 88.0154 36.6024 87.4161 36.6272 87.2024C36.652 86.9887 36.6936 86.3762 36.7203 85.842C36.8249 83.7487 37.1942 82.4174 38.6145 79.0128C39.4745 76.951 39.6306 76.6566 40.7197 75.0334C43.1089 71.4742 45.9004 68.6492 49.4478 66.2002C49.9062 65.8839 51.0982 65.1088 52.0968 64.4782C56.0429 61.987 57.8534 60.5516 61.2945 57.189C63.0404 55.4827 63.419 55.1405 64.3515 54.4299C65.267 53.7317 65.9623 53.3953 66.465 53.4087C66.9546 53.4208 67.1927 53.5583 67.3661 53.9281C67.6599 54.5546 67.569 55.5466 67.0979 56.8646C66.6172 58.2076 65.8804 59.4812 64.364 61.5862C62.6402 63.9811 59.5768 67.1878 53.6727 72.7788C50.3985 75.8794 49.5191 76.7738 46.4507 80.1217C41.1005 85.9593 39.8059 87.6591 37.7721 91.5227C36.9977 92.9939 36.7775 93.4918 36.0121 95.4996C34.7774 98.7386 34.0901 100.091 32.7996 101.82L32.28 102.515L32.6862 102.284C39.0016 98.6911 40.8211 97.7063 44.1235 96.093C47.6503 94.3701 51.573 92.7121 53.9133 91.9549C54.3175 91.8241 55.8045 91.3252 57.2177 90.8462C62.4082 89.086 63.9928 88.6339 67.4586 87.9227C68.2006 87.7703 68.5728 87.667 68.6024 87.6046C68.6308 87.5428 68.6792 87.5238 68.7456 87.5477C68.8979 87.6027 71.1295 86.6011 71.953 86.1083C72.7863 85.6096 73.9988 84.7764 74.8541 84.1145C76.8481 82.5718 77.417 81.7744 79.6712 77.3659C80.0032 76.7157 80.5041 75.7717 80.7835 75.2681C81.0629 74.7646 81.2947 74.3149 81.2986 74.2697C81.3027 74.2237 81.3296 73.9767 81.3587 73.7205C81.6663 70.9935 81.6375 70.7204 80.8381 68.7475C80.1387 67.0224 79.7563 66.4265 78.47 65.0604C76.7878 63.2737 75.4167 61.4382 74.8435 60.2065C74.6094 59.7041 74.2629 58.3911 74.2017 57.7761C74.0975 56.7353 74.5129 55.935 75.6354 55.0103C76.7808 54.0669 78.2004 53.5121 79.4933 53.5025C79.8766 53.4998 80.2669 53.4851 80.361 53.4711C80.7381 53.4126 81.5794 53.4391 81.9517 53.521L82.3459 53.6073L82.5752 53.0471C83.2597 51.3748 84.2664 50.1826 85.6101 49.4518C86.5539 48.9379 87.4758 48.8385 88.4574 49.1438C89.1787 49.3677 89.6428 49.7865 91.0413 51.4718C93.0437 53.885 93.6732 54.7978 94.2075 56.0625C94.9133 57.7338 94.8928 59.1785 94.1478 60.3171L93.8999 60.6949L94.4146 60.9033C95.1138 61.1867 95.6782 61.5496 96.7189 62.3872C97.4978 63.0132 97.6976 63.2149 98.4471 64.1295C99.9719 65.99 100.278 66.5114 100.341 67.3601C100.374 67.8074 100.24 68.3795 100.041 68.6389C99.7456 69.0236 98.9287 69.5698 97.6683 70.2255C96.9855 70.581 96.0558 71.0684 95.6017 71.3078C94.9415 71.6563 94.5357 71.8246 93.5693 72.1492C91.4728 72.8538 90.9573 72.9699 88.8957 73.2033C87.4145 73.371 86.8908 73.3866 85.6657 73.2991C84.5607 73.2198 84.162 73.2951 83.3101 73.7446C82.9427 73.9381 82.5615 74.1713 82.4621 74.262C82.259 74.4484 81.5989 75.6081 80.6839 77.3863C78.412 81.7994 77.9285 82.5655 76.6442 83.7836C75.684 84.6938 73.8227 86.0068 72.5007 86.7054C72.0699 86.9331 71.7474 87.1284 71.7847 87.1389C71.8219 87.1493 72.1581 87.1056 72.5323 87.041C72.9066 86.9765 73.9165 86.8358 74.7758 86.7282C77.8431 86.345 81.8919 85.7463 83.8196 85.3905C86.1743 84.9557 90.2593 83.8226 92.8007 82.8998C95.4942 81.9219 95.8029 81.7866 96.6806 81.2053C97.1259 80.9098 98.1302 80.2676 98.9117 79.7777C99.6932 79.2878 100.48 78.7721 100.659 78.6319C102.152 77.4652 103.752 75.4137 104.836 73.2772C105.025 72.9047 105.631 71.5484 106.183 70.2639C108.096 65.8088 108.489 65.053 109.616 63.6572C110.511 62.5489 111.07 61.9879 112.095 61.1662C112.631 60.7363 113.02 60.3834 113.002 60.3442C112.984 60.3063 112.978 59.8453 112.989 59.3202C112.999 58.795 112.975 58.2146 112.936 58.0309C112.773 57.2615 112.455 56.3564 112.027 55.4447C111.502 54.3282 111.094 53.6308 110.511 52.8596C109.85 51.9824 109.575 51.3287 109.335 50.057C108.968 48.1184 109.055 46.993 109.703 45.2868C110.076 44.3042 110.289 43.9787 111.369 42.7455C112.627 41.3089 112.734 41.1973 113.281 40.7289C114.026 40.0928 114.792 39.7427 115.534 39.6998C115.832 39.6828 116.448 39.7273 116.904 39.7993C117.896 39.9549 118.205 39.9697 118.275 39.8655C118.304 39.8219 118.601 39.2741 118.934 38.6483C119.734 37.1468 119.989 36.7265 120.42 36.2011C120.773 35.7711 120.794 35.7562 121.506 35.422C122.225 35.085 122.239 35.0815 122.787 35.0954C123.162 35.105 123.634 35.1989 124.244 35.3854C126.048 35.9384 126.44 36.0374 127.355 36.1726C127.867 36.2484 129.019 36.3321 129.914 36.3585C132.119 36.423 132.592 36.5372 133.455 37.2153C134.394 37.9518 135.045 38.7752 135.588 39.9145C136.065 40.9155 136.171 41.3304 136.165 42.1786C136.158 43.2691 135.556 44.6389 134.555 45.8417C133.947 46.5717 133.232 47.2826 132.484 47.9017L131.834 48.4395L132.195 48.5616C132.995 48.8318 133.962 49.2966 134.292 49.5697C134.771 49.9659 135.107 50.4434 135.161 50.804C135.228 51.2546 135.039 51.6244 134.207 52.6798C132.84 54.4128 132.341 55.3893 131.708 57.5719C130.82 60.6337 129.285 62.5668 127.569 62.7844C127.046 62.85 125.296 62.7958 124.327 62.6828C123.312 62.565 122.185 62.2784 120.756 61.7753C119.322 61.2705 119.07 61.2048 118.273 61.124C117.941 61.0901 117.455 61.0072 117.193 60.9391C116.48 60.7532 115.6 60.6695 115.138 60.7428C114.858 60.7877 114.638 60.7727 114.441 60.6958C114.283 60.6338 114.099 60.6084 114.032 60.6398C113.768 60.7636 111.665 62.5114 111.247 62.9532C111.004 63.2106 110.532 63.7567 110.199 64.1667C109.067 65.5564 108.708 66.2449 106.666 70.9448C105.742 73.0725 105.259 74.0515 104.621 75.0915C103.298 77.2483 101.849 78.7808 100.131 79.8392C99.32 80.3394 99.1129 80.4953 99.5054 80.3113C101.04 79.5915 104.215 78.3528 106.52 77.573C112.314 75.6143 113.733 75.1879 115.899 74.7552C117.631 74.4092 120.916 74.0525 122.042 74.0888C122.469 74.1021 123.746 74.2675 124.269 74.376C124.66 74.458 124.707 74.4526 124.863 74.3091C124.956 74.2236 125.233 74.0239 125.48 73.8655C126.241 73.3756 126.893 73.2343 129.507 72.9947C130.47 72.907 130.81 72.8118 132.232 72.2384C132.84 71.993 133.493 71.7366 133.685 71.669L134.031 71.546L133.98 70.9994C133.915 70.3191 133.99 69.8366 134.226 69.3972C134.327 69.2104 134.591 68.7031 134.813 68.2699C135.738 66.4613 136.272 65.7357 137.955 64.0114C138.648 63.3008 139.554 62.3413 139.97 61.8792C140.385 61.4171 140.993 60.7835 141.321 60.4711C142.431 59.4142 142.743 59.2088 145.778 57.5452C147.52 56.5912 148.051 56.2722 149.393 55.3732C151.569 53.9156 153.021 53.2045 154.48 52.8814C155.491 52.6571 156.52 52.5501 157.305 52.5875C158.767 52.6571 161.148 53.3375 161.874 53.8934C162.537 54.401 162.734 54.6518 163.119 55.4772C163.436 56.1554 163.487 56.3237 163.634 57.1602C163.837 58.3137 163.899 59.294 163.846 60.4807C163.808 61.3346 163.815 61.3991 163.946 61.4056C164.024 61.4097 164.502 61.3891 165.008 61.3591C165.514 61.3291 166.015 61.3079 166.123 61.3117C166.559 61.3276 167.74 61.5849 168.129 61.7488C170.175 62.6137 170.579 62.991 171.539 64.9393L172.156 66.193L172.323 67.091ZM170.141 63.9405C169.761 63.4473 169.273 63.0985 168.402 62.6974C167.232 62.1596 166.392 61.9965 165.182 62.0716C164.671 62.1032 164.145 62.1178 164.012 62.1038C163.879 62.0898 163.757 62.0838 163.741 62.0914C163.724 62.0991 163.682 62.3094 163.646 62.5585C163.61 62.8083 163.487 63.5354 163.373 64.1752C163.146 65.4433 163.115 65.817 163.209 66.1781C163.263 66.3851 163.323 66.447 163.688 66.6626C164.733 67.2834 166.243 68.588 166.839 69.3866C167.78 70.6485 168.394 72.3903 168.464 74.0024C168.494 74.6872 168.286 76.1692 168.013 77.2097C167.571 78.9016 166.562 81.2985 164.801 84.8429C163.442 87.5772 163.031 89.2884 163.322 90.9867C163.401 91.4498 163.487 91.6829 163.923 92.6117C164.269 93.3508 164.553 93.8725 164.815 94.2508C165.026 94.5558 165.462 95.2813 165.782 95.8629L166.365 96.9204L167.594 96.394C170.02 95.3555 170.852 94.7213 171.668 93.2892C172.289 92.2008 172.643 90.9862 172.651 89.9261C172.655 89.2523 172.418 86.9079 172.171 85.18C172.065 84.4418 171.964 83.4144 171.945 82.8978C171.905 81.7805 171.985 79.4393 172.122 77.7566C172.24 76.2864 172.2 74.1964 172.021 72.5014C171.947 71.8084 171.881 70.7155 171.872 70.0729C171.855 68.7934 171.818 68.3885 171.606 67.2215C171.468 66.4602 171.453 66.4175 170.918 65.3398C170.617 64.7337 170.268 64.1038 170.141 63.9405ZM161.902 54.9972C161.294 54.3293 160.564 54.0133 158.741 53.629C156.418 53.1388 154.225 53.527 151.935 54.8347C151.488 55.0897 150.87 55.4667 150.563 55.6734C148.273 57.2085 147.301 57.7908 144.668 59.2057C142.966 60.1199 142.153 60.7713 140.705 62.3838C140.263 62.8759 139.306 63.8872 138.577 64.6317C137.11 66.1301 136.593 66.7951 135.994 67.9503C134.752 70.3485 134.813 70.1976 134.861 70.7257C134.883 70.9703 134.904 71.2054 134.907 71.2472C134.91 71.2889 135.038 71.3085 135.191 71.2902C135.43 71.261 135.513 71.2187 135.785 70.9841C136.251 70.5825 137.55 69.8845 138.515 69.517C138.965 69.3466 139.378 69.1997 139.435 69.1907C139.616 69.1637 142.027 68.2992 143.118 67.8706C143.699 67.6424 144.363 67.3999 144.594 67.3315C145.807 66.9728 148.373 66.3831 151.498 65.7448C152.677 65.5044 155.487 65.166 156.441 65.1507C158.259 65.1211 160.388 65.3999 161.911 65.8675L162.582 66.0738L162.549 65.7342C162.531 65.5474 162.63 64.6167 162.77 63.6656C162.91 62.7147 163.008 61.9015 162.988 61.8587C162.968 61.8166 162.976 61.7334 163.005 61.6743C163.148 61.3915 163.169 59.261 163.039 58.2335C162.983 57.7888 162.81 56.8618 162.724 56.5444C162.595 56.0762 162.192 55.3167 161.902 54.9972ZM166.152 69.9512C165.721 69.3752 165.257 68.9196 164.387 68.2193C163.414 67.4355 162.921 67.1404 161.988 66.7821C160.006 66.0221 157.419 65.8099 154.453 66.164C152.691 66.3745 152.203 66.4606 150.004 66.9496C146.023 67.8349 144.954 68.1287 143.391 68.7656C142.14 69.2757 140.528 69.8397 139.348 70.181C138.865 70.3208 138.435 70.5015 137.659 70.8922C136.356 71.5466 136.172 71.7018 136.127 72.1829C136.109 72.3751 135.948 73.0772 135.77 73.744C135.588 74.4268 135.437 75.1857 135.424 75.4813C135.352 77.1453 134.952 78.2662 133.998 79.4737C133.459 80.1545 132.601 80.8565 132.158 80.9801L131.896 81.053L132.175 81.2314C132.616 81.5138 132.904 81.7969 133.275 82.314C133.692 82.897 133.879 83.0645 134.776 83.6637C135.159 83.9196 135.611 84.2467 135.778 84.3907C136.984 85.4235 139.014 87.2177 139.418 87.6072C139.686 87.8651 140.333 88.4875 140.856 88.9902C144.11 92.114 144.74 92.75 145.234 93.4127C145.69 94.0259 145.836 94.1664 146.838 94.9662C149.226 96.8707 154.685 100.442 156.885 101.538C158.449 102.317 160.312 102.922 161.784 103.129C163.43 103.36 165.702 103.118 166.625 102.611C166.951 102.431 167.011 102.37 167.11 102.108C167.339 101.506 167.205 100.689 166.668 99.4126C166.152 98.1865 164.876 95.7508 164.178 94.6607C162.915 92.6874 162.439 91.2399 162.49 89.5367C162.532 88.1717 163.035 86.5035 164.038 84.4114C166.646 78.9716 167.508 76.4494 167.515 74.2477C167.517 73.6619 167.344 72.5306 167.17 71.9848C167.003 71.4639 166.437 70.3318 166.152 69.9512ZM134.155 39.0425C133.373 38.0988 132.565 37.4875 131.863 37.3103C131.659 37.2588 130.849 37.1994 130.063 37.1772C127.682 37.1121 126.597 36.9397 124.792 36.337C122.96 35.7263 122.572 35.6872 121.79 36.0333C121.117 36.3312 120.752 36.8315 119.686 38.9167C119.327 39.6184 118.836 40.5673 118.594 41.026C116.954 44.137 116.15 47.3775 116.062 51.2379C116.04 52.1569 116.058 53.2557 116.103 53.6795C116.254 55.1421 116.149 56.1701 115.694 57.6751L115.439 58.5225L115.714 58.3442C115.866 58.2465 116.715 57.6314 117.602 56.9783C119.08 55.8898 121.037 54.5932 123.643 52.9739C127.877 50.344 130.904 48.231 132.526 46.7737C134.648 44.867 135.63 43.1551 135.437 41.698C135.336 40.9343 134.796 39.8174 134.155 39.0425ZM133.898 50.0556C133.342 49.5855 131.511 48.7687 131.269 48.8821C131.195 48.9169 130.905 49.1169 130.624 49.3263C129.352 50.275 126.362 52.2458 124.031 53.6712C120.749 55.6779 118.141 57.4507 115.251 59.6392L114.685 60.0678L115.014 59.9965C115.525 59.8853 116.445 59.9501 117.327 60.1587C117.623 60.2285 118.124 60.3076 118.44 60.3345C119.257 60.4039 119.525 60.4701 120.81 60.9175C122.888 61.641 123.987 61.8769 125.716 61.971C127.5 62.0677 127.952 61.9947 128.59 61.5074C129.106 61.1139 129.438 60.7262 129.868 60.0145C130.344 59.2294 130.62 58.5561 131.03 57.1875C131.657 55.0946 132.198 54.0635 133.545 52.3955C133.994 51.8413 134.403 51.2791 134.456 51.1467C134.545 50.9266 134.539 50.8812 134.373 50.6047C134.273 50.4391 134.06 50.1924 133.898 50.0556ZM153.216 100.44C151.553 99.447 148.516 97.3392 147.232 96.2872C146.746 95.889 146.089 95.3536 145.772 95.0981C145.063 94.5259 144.99 94.4556 144.495 93.8584C144.062 93.3375 142.913 92.1876 141.17 90.5325C140.557 89.9505 139.751 89.1714 139.377 88.8014C138.628 88.0585 138.449 87.8933 137.025 86.6343C136.488 86.1589 135.81 85.556 135.519 85.2943C135.228 85.0325 134.649 84.5809 134.233 84.2896C133.358 83.6782 133.148 83.472 132.678 82.7656C132.467 82.4481 132.18 82.115 131.931 81.8969L131.526 81.5436L131.326 81.9816C131.215 82.2223 131.016 82.688 130.884 83.0155C130.751 83.3429 130.526 83.857 130.384 84.1574C130.242 84.4578 130.108 84.7828 130.086 84.8796C129.94 85.5487 129.635 87.9925 129.671 88.2009C129.759 88.6954 130.506 90.458 131.039 91.4303C131.494 92.2584 131.604 92.4141 132.045 92.8636C133.871 94.7214 136.126 97.1528 136.723 97.9082C137.108 98.3944 137.724 99.1175 138.091 99.5148C138.459 99.9118 139.028 100.554 139.357 100.942C139.685 101.33 140.293 102.017 140.708 102.469C142.17 104.063 143.073 105.28 144.103 107.049C144.628 107.95 144.897 108.635 145.178 109.778C145.508 111.12 145.925 111.894 146.418 112.071C146.605 112.139 146.684 112.122 147.103 111.925C148.031 111.49 149.421 110.419 150.007 109.688C150.616 108.928 151.511 106.626 152.082 104.355C152.229 103.77 152.448 103.067 152.568 102.791C153.099 101.577 153.223 101.34 153.471 101.068C153.616 100.91 153.729 100.77 153.723 100.759C153.717 100.747 153.489 100.603 153.216 100.44ZM135.2 72.0394C134.985 71.9447 134.577 72.0373 133.609 72.3988C133.167 72.564 132.469 72.8247 132.056 72.9779C131.034 73.358 130.181 73.5544 129.117 73.6539C127.113 73.8423 126.383 73.993 125.817 74.3334C125.61 74.4575 125.368 74.6387 125.278 74.7368C125.133 74.8942 125.128 74.9313 125.232 75.0616C125.297 75.1424 125.509 75.3161 125.704 75.4466C125.899 75.5777 126.222 75.8083 126.421 75.9591C126.621 76.1102 127.087 76.3853 127.458 76.5698C127.83 76.7549 128.257 76.9912 128.408 77.095C128.822 77.3788 129.334 77.9261 129.485 78.2439C129.563 78.4075 129.822 78.7333 130.103 79.0198C130.369 79.2913 130.675 79.6537 130.783 79.8258C131.032 80.2192 131.115 80.2808 131.452 80.3196C131.603 80.3373 131.77 80.4063 131.825 80.4732C131.938 80.6114 131.959 80.6001 132.494 80.1082C132.939 79.6998 133.507 78.976 133.83 78.4095C134.38 77.4447 134.604 76.643 134.651 75.4761C134.669 75.0565 134.787 74.4834 135.049 73.5627C135.255 72.8403 135.409 72.2175 135.393 72.1796C135.375 72.1417 135.289 72.0785 135.2 72.0394ZM117.071 40.5875C115.752 40.3646 115.056 40.4164 114.445 40.7825C113.896 41.1121 113.239 41.72 112.584 42.5051C112.259 42.8947 111.788 43.4477 111.537 43.7335C110.919 44.44 110.58 45.0222 110.299 45.8573C109.845 47.207 109.782 48.405 110.08 49.9963C110.287 51.1014 110.533 51.6784 111.127 52.4576C111.738 53.2586 112.318 54.2898 112.893 55.6023C113.648 57.3273 113.807 58.081 113.692 59.396L113.649 59.8864L113.876 59.7322C114.07 59.6 114.151 59.4437 114.439 58.6465C115.219 56.4887 115.383 55.4203 115.199 53.7205C115.113 52.9247 115.151 50.3071 115.264 49.2523C115.391 48.0775 115.86 45.6774 116.15 44.7199C116.427 43.8043 117.04 42.2874 117.523 41.3239C117.675 41.0213 117.79 40.7578 117.78 40.7391C117.77 40.7195 117.451 40.6517 117.071 40.5875ZM119.839 94.4047C119.723 94.3357 119.156 94.1032 118.581 93.8882C117.512 93.489 117.022 93.2441 115.709 92.4527C114.323 91.6176 113.641 90.9619 112.567 89.4338C112.247 88.9775 111.862 88.4649 111.713 88.2939C111.342 87.8689 110.562 87.4009 109.735 87.108C109.118 86.8891 108.934 86.8613 107.986 86.8473C106.528 86.8257 105.888 86.914 104.512 87.3281C102.851 87.8278 101.959 88.2629 98.0467 90.4796C95.8941 91.6999 94.429 92.4619 92.4389 93.3966L90.6996 94.2137L91.3757 94.5028C93.1779 95.2736 94.216 95.5693 95.9605 95.8109C98.0109 96.0949 99.6765 96.1493 102.075 96.0109C103.638 95.9208 104.521 95.9239 105.869 96.0259C106.331 96.0605 107.301 96.1179 108.025 96.1538C109.772 96.2391 110.573 96.3141 111.952 96.5224C114.129 96.8509 115.164 96.8549 116.878 96.539C117.709 96.3861 117.88 96.3323 118.645 95.981C120.341 95.2018 120.602 94.8567 119.839 94.4047ZM116.045 97.943C115.675 97.6359 115.516 97.5953 114.818 97.6307C114.05 97.669 113.647 97.6361 111.936 97.3963C110.444 97.1866 109.756 97.1326 106.228 96.9474C104.057 96.8337 103.487 96.8336 101.707 96.9513C99.6824 97.0841 97.9088 97.0047 95.6818 96.6815C93.8626 96.417 92.9406 96.1446 90.7942 95.2341L90.5472 95.1294L90.7339 95.446C90.837 95.6203 91.1178 96.1 91.3578 96.5129C92.1045 97.7962 92.8391 98.806 93.6093 99.6094C93.9975 100.014 94.5017 100.554 94.7307 100.81C95.5536 101.734 98.1381 103.859 99.3776 104.633C100.375 105.255 100.601 105.434 102.025 106.728C104.103 108.617 105.309 109.444 106.733 109.957C107.453 110.216 107.74 110.281 108.216 110.29L108.806 110.302L109.562 109.945C111.395 109.078 112.582 107.613 114.012 104.451C114.471 103.438 114.863 102.767 115.672 101.608C116.23 100.81 116.678 99.7793 116.689 99.2714C116.699 98.8284 116.42 98.2544 116.045 97.943ZM98.5231 65.634C98.2632 65.2915 97.794 64.7018 97.4802 64.3228C96.3297 62.9342 94.3752 61.5125 93.5672 61.477C93.3254 61.4662 93.3187 61.4708 92.9783 61.8883C92.3082 62.7082 91.3213 63.7904 90.1258 65.0145C89.0897 66.0765 86.7896 68.5615 85.1805 70.3573C84.556 71.0551 83.4426 72.5185 83.4911 72.5795C83.5119 72.6065 83.6675 72.5871 83.8368 72.5357C84.3227 72.3894 84.9251 72.3597 85.8631 72.4357C86.9004 72.5194 87.7048 72.4861 89.1702 72.2972C90.5701 72.1161 91.491 71.8966 93.0237 71.3777C94.2038 70.9787 94.3523 70.9127 96.1894 69.9733C97.7103 69.1955 98.2382 68.8987 98.6887 68.5655C99.0029 68.3336 99.2961 68.0947 99.341 68.0354C99.4305 67.9156 99.4655 67.4083 99.4068 67.0934C99.3554 66.8207 99.0899 66.3816 98.5231 65.634ZM92.3985 54.6923C91.9377 54.0186 90.1104 51.7466 89.3092 50.8504C88.8192 50.3027 88.4014 50.0328 87.8852 49.931C87.2759 49.8111 86.8209 49.865 86.2565 50.1245C84.9302 50.734 83.887 52.0131 83.1903 53.8836C82.8664 54.7534 82.7181 55.3498 82.4321 56.9308C81.9775 59.4432 81.9013 61.1124 82.1413 63.2866C82.2822 64.5594 82.3528 66.2376 82.3503 68.2397C82.3494 68.7552 82.3822 69.5232 82.423 69.9457C82.4631 70.3685 82.4772 71.1136 82.4528 71.6012L82.409 72.488L82.5808 72.2333C83.1619 71.3693 83.9832 70.3229 84.7185 69.507C86.8949 67.0954 88.4864 65.3718 89.6451 64.173C92.2729 61.4535 93.6077 59.7393 93.7579 58.8929C93.8589 58.3194 93.7585 57.4215 93.5091 56.6699C93.381 56.284 92.8918 55.4133 92.3985 54.6923ZM103.269 85.2127C103.102 85.0508 102.406 84.7445 102.16 84.7247C101.853 84.6995 99.1445 85.9453 97.6452 86.8005C96.5684 87.415 94.643 88.6698 94.1529 89.0767C94.0372 89.1736 93.6785 89.574 93.357 89.9673C93.0357 90.3597 92.6076 90.858 92.4055 91.0748C92.2037 91.2907 91.8608 91.7248 91.6443 92.0394C91.4284 92.3538 91.1159 92.7663 90.9514 92.9566C90.7866 93.1463 90.6664 93.307 90.6841 93.3134C90.7726 93.3454 95.5365 90.8903 97.2101 89.9504C100.157 88.2952 101.631 87.5192 102.618 87.1043L103.52 86.7254L103.549 86.4392C103.605 85.8965 103.499 85.436 103.269 85.2127ZM81.6402 54.1836C81.4418 54.1525 81.0728 54.1374 80.8197 54.1495C78.4829 54.2651 78.7855 54.2077 77.618 54.7574C76.4963 55.2856 76.1839 55.5071 75.6098 56.1789C74.9989 56.8946 74.9248 57.2511 75.1557 58.3692C75.5213 60.1385 76.7544 62.0623 79.124 64.559C80.0405 65.5254 80.5147 66.1664 81.016 67.121L81.4494 67.9465L81.4272 67.369C81.4151 67.0514 81.3945 66.3174 81.3827 65.7388C81.3707 65.1595 81.2956 64.0866 81.216 63.3553C81.06 61.917 81.0534 60.3049 81.199 58.989C81.3067 58.0126 81.6806 55.94 81.9168 55.015C82.0102 54.6479 82.0676 54.3234 82.0436 54.2942C82.0194 54.2645 81.8381 54.215 81.6402 54.1836ZM103.632 109.091C103.237 108.811 102.27 108.01 101.483 107.31C100.399 106.345 99.8636 105.919 99.278 105.551C97.9239 104.703 97.5654 104.443 96.1684 103.296C94.8941 102.249 93.6702 101.064 92.3626 99.6107C91.9646 99.1683 90.9582 97.7106 90.7562 97.2844C90.6677 97.0973 90.4784 96.7673 90.3352 96.5515C89.9928 96.0345 89.7352 95.4867 89.718 95.2383L89.7043 95.0382L89.472 95.3536C89.2317 95.6802 88.7772 96.7905 88.7628 97.0861C88.7577 97.1788 88.7979 97.7052 88.8514 98.2569C88.9465 99.2344 88.956 99.2719 89.2212 99.7559C89.3715 100.029 89.7973 100.689 90.1679 101.223C90.9266 102.315 91.542 102.953 92.6806 103.829C93.1342 104.178 93.4479 104.478 93.7091 104.816C94.0877 105.305 94.6316 105.897 95.5493 106.819C95.9134 107.184 96.2505 107.621 96.8006 108.436C97.7344 109.822 98.628 111.032 99.0346 111.461C99.4456 111.894 99.8947 112.07 100.671 112.104C101.515 112.14 101.825 111.991 102.938 111.012C103.384 110.62 103.949 110.181 104.193 110.038C104.63 109.781 104.635 109.775 104.494 109.687C104.415 109.639 104.027 109.37 103.632 109.091ZM93.0674 111.201C92.7605 111.078 91.4559 110.638 90.1686 110.221C88.8812 109.805 87.6614 109.392 87.4579 109.303C86.8235 109.026 83.8037 107.826 82.3519 107.274C80.546 106.588 79.8602 106.247 77.8207 105.02C74.9452 103.29 74.2926 102.951 70.849 101.39C68.5546 100.35 65.4458 99.1724 64.084 98.8248C62.9824 98.5442 59.3738 97.8482 58.4163 97.7307C57.4973 97.6186 55.5779 97.5355 54.6329 97.5672C53.5783 97.6017 50.4084 98.144 48.9817 98.533C47.7011 98.8823 46.973 99.1113 46.9956 99.1595C47.0021 99.1733 47.1718 99.1635 47.3717 99.1381C48.0727 99.0475 54.4957 99.2694 55.4644 99.417C56.4579 99.569 57.2357 99.7943 58.8687 100.405C60.0561 100.848 60.768 101.173 62.1557 101.903C64.3666 103.067 64.4405 103.1 67.5169 104.204C70.0881 105.126 71.9524 105.865 74.2386 106.866C75.0227 107.21 76.1378 107.617 77.1624 107.932C78.0728 108.213 79.2117 108.612 79.6927 108.819C80.8072 109.299 82.7098 109.95 83.5806 110.148C83.9514 110.233 84.7289 110.365 85.3077 110.442C85.8865 110.519 86.7865 110.663 87.3072 110.762C87.8277 110.86 88.7992 111.012 89.4659 111.099C90.1326 111.186 91.0326 111.319 91.4655 111.394C92.3221 111.542 93.2025 111.671 93.8422 111.743L94.2497 111.788L93.9374 111.606C93.7657 111.506 93.3743 111.324 93.0674 111.201ZM93.6876 112.469C93.612 112.478 92.6321 112.349 91.5094 112.181C90.387 112.013 89.1354 111.832 88.7284 111.782C88.3217 111.73 87.5905 111.613 87.1038 111.523C86.6176 111.432 85.7372 111.295 85.1473 111.218C84.5584 111.142 83.8065 111.022 83.4765 110.952C82.5907 110.764 80.9383 110.217 79.4995 109.635C78.8014 109.352 77.5666 108.922 76.7558 108.68C75.7476 108.379 74.724 108.002 73.5185 107.487C70.9815 106.404 70.0487 106.041 67.0036 104.957C64.2148 103.964 63.7117 103.744 61.4479 102.529C60.3511 101.94 59.8159 101.708 58.2229 101.132C56.1382 100.379 55.3489 100.206 53.8381 100.169C52.9692 100.148 50.2118 100.025 49.3239 99.9686C48.5562 99.9186 48.6537 99.9493 50.4446 100.32C54.0526 101.066 55.4424 101.528 61.3363 103.94C62.9076 104.584 65.569 105.633 68.9921 106.959C69.7264 107.244 72.0953 108.169 74.2556 109.015C80.8551 111.6 80.9369 111.627 83.6396 112.146C84.3927 112.291 85.5272 112.521 86.1605 112.657C87.6353 112.976 88.8473 113.144 89.7812 113.159C91.0247 113.18 92.56 112.969 93.6337 112.631C93.8859 112.551 93.9237 112.437 93.6876 112.469ZM66.3885 54.2962C66.2844 54.3142 66.2224 54.3733 66.1937 54.4831C66.093 54.8675 64.6502 57.2578 64.1487 57.8713C62.5492 59.8287 61.9038 60.5759 61.3127 61.1551C60.9389 61.5215 60.2461 62.2446 59.7734 62.7609C59.301 63.2779 58.502 64.1132 57.9968 64.6183C57.4922 65.1232 56.6645 65.9566 56.1572 66.4715C55.6503 66.9855 54.8737 67.7634 54.4301 68.1992C53.9874 68.6353 52.9067 69.7528 52.0279 70.6829C51.1497 71.6128 50.0659 72.7596 49.6193 73.2313C49.1733 73.7028 48.376 74.5793 47.8485 75.1794C47.3206 75.7789 46.5714 76.6152 46.1829 77.0384C45.1653 78.146 44.6326 78.8294 43.8376 80.0465C43.4505 80.6388 42.7574 81.695 42.2958 82.3934C41.5841 83.473 40.5357 85.2271 40.5651 85.2897C40.5702 85.3005 40.7806 85.0608 41.0328 84.7581C42.1967 83.3599 43.7621 81.5964 45.7122 79.4849C48.9824 75.9446 49.8878 75.0365 53.158 72.0216C57.3746 68.1345 60.6131 64.8824 62.4659 62.6733C63.6384 61.2762 65.0008 59.2838 65.7059 57.9361C66.5807 56.2635 66.9695 54.1942 66.3885 54.2962ZM64.1114 55.7873C63.8269 56.0228 62.8183 56.9631 61.8714 57.8767C59.2256 60.429 57.2911 62.0798 55.3846 63.4125C54.9431 63.721 53.7375 64.5031 52.706 65.1499C48.7311 67.6422 47.0245 68.926 45.0245 70.9279C43.7038 72.2489 41.4747 75.1283 40.3888 76.9154C39.9505 77.6368 39.1024 79.6048 38.3619 81.6186C37.8152 83.1065 37.564 84.3383 37.5286 85.7135C37.5174 86.1428 37.4863 86.7525 37.4601 87.0683C37.4336 87.3835 37.4299 88.0796 37.451 88.6157C37.5091 90.0647 37.4879 89.982 37.6879 89.5458C37.7834 89.3386 37.982 88.8259 38.1288 88.4066C38.3992 87.639 39.346 85.5616 39.9236 84.4707C40.3742 83.6201 40.724 83.0534 41.9301 81.2217C43.8821 78.2577 44.171 77.8701 45.5849 76.3121C45.9851 75.8716 46.7997 74.9613 47.3943 74.2894C47.9896 73.6171 48.9109 72.6178 49.4414 72.0678C49.9727 71.5181 50.9686 70.472 51.6546 69.744C52.3412 69.0157 53.4033 67.9275 54.0143 67.325C56.2237 65.15 57.7976 63.5567 58.7561 62.5252C59.2938 61.9468 60.1329 61.0779 60.6197 60.5946C61.7421 59.4797 63.6678 57.1328 64.301 56.1069C64.561 55.6859 64.7415 55.3448 64.7018 55.3495C64.6621 55.3541 64.3964 55.5515 64.1114 55.7873ZM44.6836 46.4348C44.5768 46.5723 44.1894 47.1405 43.8229 47.6967C41.6825 50.9474 41.1578 51.8438 40.4322 53.4832C40.2264 53.9493 39.8568 54.7795 39.6105 55.3286C39.3645 55.8767 38.9891 56.734 38.7753 57.2332C38.5619 57.7316 38.0809 58.7118 37.7066 59.4112C37.332 60.1101 36.8313 61.1598 36.5937 61.7429C36.356 62.3261 36.0013 63.1318 35.8049 63.5332C35.207 64.7564 34.5985 66.2725 33.2132 69.9915C31.9462 73.3919 31.1241 75.8921 30.7848 77.3768C30.6344 78.0316 30.5803 78.8682 30.6848 78.9059C30.7966 78.9468 31.4469 78.1473 32.1607 77.091C32.966 75.9007 33.6793 74.6631 34.9234 72.3022C36.3878 69.5234 36.903 68.2149 37.4762 65.8173C38.0045 63.6098 38.1126 63.238 38.8747 60.9878C40.0309 57.5739 41.5957 53.7231 43.2797 50.1455C44.1356 48.3274 44.9537 46.3441 44.8978 46.2249C44.8873 46.2026 44.7911 46.2969 44.6836 46.4348ZM42.6502 47.9358C41.8586 48.7868 40.4897 50.5993 39.4044 52.2325C38.7085 53.2811 37.2726 55.6754 36.9026 56.4044C35.3798 59.4053 34.8554 60.591 33.9787 63.0155C33.4853 64.38 32.8678 66.2045 32.6069 67.0691C32.3466 67.9333 32.0532 68.9027 31.9554 69.2226C31.8582 69.5423 31.6832 70.1916 31.5666 70.6644C31.45 71.1372 31.25 71.9151 31.1222 72.3924C30.9027 73.2103 30.7004 74.3221 30.6959 74.7358L30.6935 74.9206L30.7531 74.7089C31.0978 73.4774 31.5753 72.0771 32.0737 70.833C32.4048 70.0053 32.8308 68.8562 33.0207 68.2792C33.4225 67.0533 34.3801 64.7135 35.0545 63.3083C35.3149 62.7659 35.6926 61.9135 35.8941 61.4133C36.096 60.9138 36.4802 60.0988 36.7481 59.6021C37.5233 58.1657 38.047 57.0538 39.5385 53.6774C40.397 51.7347 41.1572 50.3994 42.6702 48.1792C42.9276 47.8012 43.1256 47.4879 43.1103 47.4819C43.0944 47.4762 42.8878 47.6803 42.6502 47.9358Z" fill="#5D7C78"/>
<path fill-rule="evenodd" clip-rule="evenodd" d="M172.323 67.091C172.566 68.3946 172.602 68.7854 172.603 70.1348C172.603 70.8013 172.657 71.8674 172.722 72.5042C172.883 74.0987 172.912 76.4522 172.786 77.8541C172.485 81.2213 172.479 83.1462 172.764 84.9158C172.948 86.0575 173.303 89.5365 173.288 90.0577C173.249 91.507 172.45 93.5479 171.493 94.6479C170.865 95.3693 170.51 95.6171 169.274 96.1999C168.644 96.4966 167.772 96.8771 167.335 97.0457L166.541 97.352L167.154 98.6579C167.823 100.085 167.986 100.6 168.035 101.444C168.071 102.065 167.845 102.713 167.465 103.074C166.822 103.684 165.014 104.105 163.1 104.092C160.525 104.074 157.964 103.261 154.981 101.514C154.557 101.265 154.194 101.054 154.174 101.045C153.983 100.952 153.186 103.016 152.942 104.235C152.739 105.255 152.355 106.541 151.86 107.863C151.335 109.267 151.094 109.745 150.653 110.262C149.669 111.414 147.385 112.902 146.587 112.912C145.626 112.924 144.87 111.923 144.45 110.084C144.129 108.676 143.671 107.717 142.428 105.852C141.879 105.028 140.903 103.832 139.941 102.804C139.583 102.42 139.019 101.787 138.689 101.396C138.357 101.006 137.799 100.376 137.446 99.995C137.093 99.6144 136.494 98.9033 136.115 98.4147C135.422 97.5214 132.948 94.8345 131.703 93.6213C131.313 93.2413 130.922 92.7949 130.762 92.548C129.986 91.3473 128.971 89.0667 128.847 88.2495C128.816 88.0421 128.865 87.4105 128.967 86.726C129.062 86.0833 129.165 85.361 129.195 85.1218C129.227 84.8824 129.377 84.3988 129.53 84.0463C129.683 83.6938 129.915 83.1364 130.044 82.8074C130.284 82.1966 130.709 81.4046 130.825 81.3476C131.024 81.2508 131 81.1388 130.748 80.99C130.51 80.8484 130.15 80.4444 130.024 80.1752C129.993 80.1089 129.745 79.8271 129.473 79.5483C129.2 79.2697 128.924 78.9268 128.858 78.7871C128.725 78.5016 128.343 78.0506 128.031 77.8092C127.917 77.7213 127.522 77.4873 127.151 77.2891C126.254 76.8084 124.834 75.7099 124.667 75.367L124.545 75.1151L123.367 74.976C121.895 74.802 122.189 74.8033 120.179 74.963C116.967 75.2172 115.058 75.6092 111.936 76.6551C106.867 78.3538 104.136 79.3317 102.269 80.1159C98.6002 81.6572 94.0292 83.4385 92.0094 84.1137C89.8268 84.8433 85.9795 85.8671 84.0651 86.2277C82.3811 86.5449 77.7761 87.231 75.3194 87.5314C74.0476 87.6862 72.9895 87.8216 72.9678 87.8317C72.9461 87.8419 73.352 87.9139 73.8697 87.9923C74.8384 88.1383 76.7371 88.6507 78.1851 89.157C78.6382 89.3156 79.527 89.6975 80.161 90.0065C80.8578 90.3461 82.0366 90.8258 83.1399 91.2181C84.144 91.5761 85.5187 92.105 86.1948 92.3941C86.871 92.6833 87.9039 93.1012 88.4909 93.3227L89.5573 93.7257L89.6112 93.516C89.6404 93.4009 89.8921 93.036 90.1701 92.705C90.4481 92.3741 90.8249 91.8792 91.0079 91.6045C91.1904 91.3301 91.5113 90.9136 91.7208 90.678C91.9305 90.443 92.3565 89.9338 92.6678 89.5468C93.4537 88.5691 93.543 88.4913 94.7595 87.7136C96.2527 86.7591 97.7112 85.9862 99.8995 84.9909C102.101 83.9889 102.109 83.987 102.872 84.3438C103.45 84.6147 103.652 84.7897 103.833 85.1752C104.002 85.5348 104.041 85.8382 103.975 86.2822C103.941 86.5112 103.952 86.6162 104.009 86.6078C104.056 86.6003 104.414 86.4997 104.804 86.384C105.196 86.2681 105.789 86.1415 106.122 86.1018C106.981 86.0005 108.402 85.9941 109.035 86.0881C110.061 86.241 111.484 86.9243 112.143 87.5822C112.316 87.7552 112.726 88.286 113.055 88.7618C114.277 90.5365 114.707 90.952 116.383 91.9694C117.421 92.5994 117.807 92.7894 118.879 93.1955C120.276 93.7249 120.684 93.9771 120.905 94.4487C121.295 95.2812 120.802 95.8562 118.956 96.7222C118.07 97.1375 117.881 97.2042 117.226 97.3311C116.822 97.4095 116.487 97.4857 116.482 97.5008C116.476 97.5158 116.59 97.6699 116.734 97.8431C117.112 98.2951 117.32 98.8698 117.293 99.3858C117.262 99.9795 116.825 101.102 116.352 101.804C115.476 103.106 115.139 103.695 114.696 104.698C113.257 107.957 112.02 109.507 110.025 110.555C109.407 110.88 109.243 110.941 108.836 111C107.841 111.143 106.452 110.802 105.19 110.105L104.992 109.995L104.532 110.348C104.28 110.542 103.686 111.075 103.212 111.532C102.456 112.262 102.296 112.39 101.886 112.582C101.452 112.786 101.373 112.8 100.716 112.785C99.9067 112.767 99.2484 112.574 98.8655 112.241C98.5488 111.965 97.5515 110.652 96.384 108.972C95.5675 107.798 95.4147 107.612 94.7533 106.988C94.352 106.609 93.7605 105.979 93.4395 105.59C92.9712 105.022 92.7093 104.771 92.1211 104.328C91.3531 103.749 90.6011 103.061 90.1781 102.551C90.0408 102.385 89.6028 101.776 89.2036 101.196C88.2568 99.818 88.1659 99.5866 88.06 98.2864C88.0163 97.7447 87.9845 97.1924 87.99 97.0582C88.0141 96.4745 88.7567 94.7566 89.043 94.6223C89.0876 94.6014 89.1159 94.5676 89.106 94.5465C89.0961 94.5254 88.6753 94.351 88.17 94.158C87.6656 93.9654 86.4342 93.4583 85.4349 93.0304C84.435 92.6029 83.2263 92.1284 82.7483 91.9764C81.789 91.6701 80.8242 91.2562 79.6894 90.6633C78.6216 90.1052 78.0356 89.8781 76.3318 89.364C74.04 88.6722 73.5354 88.5826 70.9036 88.4029C69.77 88.3254 69.1265 88.4023 66.8996 88.8808C63.751 89.5578 62.6396 89.8681 58.3382 91.2753C56.7599 91.7912 54.9587 92.3714 54.3355 92.5637C50.2469 93.827 44.7274 96.3551 38.6784 99.7332C38.126 100.042 37.6819 100.314 37.6926 100.337C37.7034 100.359 37.8363 100.342 37.987 100.298C38.5202 100.142 40.7452 99.7149 41.3727 99.6462C41.7212 99.6084 42.6348 99.5775 43.4014 99.5781C44.7253 99.5782 44.8038 99.57 44.943 99.4151C45.0469 99.2995 45.4524 99.0822 46.3265 98.6737C47.3833 98.1796 47.7259 98.0491 48.6821 97.7749C50.2428 97.3281 53.2121 96.805 54.5402 96.7436C55.4714 96.7 57.8173 96.7859 58.6937 96.8952C59.5357 97 62.0231 97.4693 63.595 97.8197C65.4424 98.232 68.0332 99.2024 71.2963 100.705C74.5877 102.22 75.4628 102.683 78.4354 104.483C80.3099 105.618 80.9212 105.925 82.522 106.534C83.1889 106.788 84.2425 107.203 84.8641 107.457C87.4447 108.513 88.6341 108.952 90.6028 109.579C93.2342 110.417 94.0975 110.749 94.693 111.153C95.1113 111.437 95.1899 111.52 95.3351 111.829C95.4809 112.14 95.4892 112.208 95.4015 112.403C95.2458 112.749 94.9379 112.971 94.1779 113.282C93.3273 113.631 92.6939 113.783 91.5004 113.924C89.6818 114.139 88.5595 114.048 85.6516 113.449C84.6217 113.237 83.2117 112.947 82.5176 112.804C81.824 112.661 80.955 112.46 80.5869 112.355C80.2187 112.251 77.7145 111.297 75.0218 110.236C72.329 109.176 69.5254 108.074 68.7919 107.79C65.9879 106.702 63.2345 105.604 61.3483 104.822C55.1311 102.243 53.9259 101.842 50.013 101.046C47.1505 100.464 46.4232 100.384 43.6149 100.341C41.3776 100.306 40.8446 100.358 37.8832 100.9C37.1941 101.025 36.5026 101.149 36.3457 101.173C36.1094 101.21 35.6916 101.431 33.8402 102.496C32.6185 103.198 31.225 103.99 30.7432 104.257C30.2613 104.523 29.6028 104.919 29.2804 105.137C28.2328 105.843 22.595 108.397 21.1492 108.82C20.6247 108.974 20.1361 109.051 20.0781 108.991C20.0522 108.964 20.5534 108.712 21.2792 108.385C23.806 107.251 28.9962 104.465 29.7752 103.824C31.0511 102.774 32.2658 101.276 33.2473 99.5421L33.5872 98.9404L33.5979 98.0411C33.6203 96.1597 33.4252 95.3107 32.5296 93.3852C31.3485 90.8447 30.9463 89.6732 30.5217 87.5304C30.1217 85.5121 29.9822 84.1028 29.8413 80.6484C29.6422 75.7824 29.7275 74.156 30.292 72.0601C30.423 71.574 30.6467 70.7086 30.7902 70.1364C30.9335 69.5637 31.216 68.5884 31.4186 67.968C31.6205 67.3479 31.8985 66.457 32.0361 65.9883C32.3959 64.7622 34.1767 60.0782 34.5841 59.2831C34.7744 58.9125 35.2261 58.0048 35.5877 57.2672C36.7511 54.8956 38.3058 52.3957 40.3001 49.6932C41.7812 47.6856 43.1732 46.1951 44.2665 45.448C44.8934 45.0189 45.4401 45.0822 45.6162 45.6036C45.84 46.2643 45.3227 47.7348 43.6239 51.2715C42.3141 53.999 41.4272 56.1366 40.2058 59.5105C39.0828 62.6141 38.8487 63.3727 38.281 65.7552C37.812 67.7239 37.3907 68.9708 36.6792 70.4993C36.2015 71.5257 34.6334 74.4942 34.0117 75.5492C33.6431 76.1747 32.4111 77.981 31.9634 78.5524C31.7159 78.8684 30.9446 79.6166 30.7926 79.6879C30.6588 79.7506 30.6567 79.8089 30.7364 81.66C30.8314 83.8765 30.8966 84.6836 31.0776 85.9243C31.5278 89.0015 31.9478 90.4351 33.1572 93.0173C33.9439 94.6964 34.1851 95.5606 34.2304 96.8664C34.2397 97.1354 34.2625 97.3613 34.2808 97.3674C34.2994 97.3741 34.6745 96.4333 35.1144 95.2761C35.5544 94.119 36.0222 92.9289 36.1531 92.6309C36.315 92.2625 36.431 91.8121 36.5155 91.2221C36.6434 90.3296 36.6498 90.1377 36.6076 88.5343C36.5937 88.0154 36.6024 87.4161 36.6272 87.2024C36.652 86.9887 36.6936 86.3762 36.7203 85.842C36.8249 83.7487 37.1942 82.4174 38.6145 79.0128C39.4745 76.951 39.6306 76.6566 40.7197 75.0334C43.1089 71.4742 45.9004 68.6492 49.4478 66.2002C49.9062 65.8839 51.0982 65.1088 52.0968 64.4782C56.0429 61.987 57.8534 60.5516 61.2945 57.189C63.0404 55.4827 63.419 55.1405 64.3515 54.4299C65.267 53.7317 65.9623 53.3953 66.465 53.4087C66.9546 53.4208 67.1927 53.5583 67.3661 53.9281C67.6599 54.5546 67.569 55.5466 67.0979 56.8646C66.6172 58.2076 65.8804 59.4812 64.364 61.5862C62.6402 63.9811 59.5768 67.1878 53.6727 72.7788C50.3985 75.8794 49.5191 76.7738 46.4507 80.1217C41.1005 85.9593 39.8059 87.6591 37.7721 91.5227C36.9977 92.9939 36.7775 93.4918 36.0121 95.4996C34.7774 98.7386 34.0901 100.091 32.7996 101.82L32.28 102.515L32.6862 102.284C39.0016 98.6911 40.8211 97.7063 44.1235 96.093C47.6503 94.3701 51.573 92.7121 53.9133 91.9549C54.3175 91.8241 55.8045 91.3252 57.2177 90.8462C62.4082 89.086 63.9928 88.6339 67.4586 87.9227C68.2006 87.7703 68.5728 87.667 68.6024 87.6046C68.6308 87.5428 68.6792 87.5238 68.7456 87.5477C68.8979 87.6027 71.1295 86.6011 71.953 86.1083C72.7863 85.6096 73.9988 84.7764 74.8541 84.1145C76.8481 82.5718 77.417 81.7744 79.6712 77.3659C80.0032 76.7157 80.5041 75.7717 80.7835 75.2681C81.0629 74.7646 81.2947 74.3149 81.2986 74.2697C81.3027 74.2237 81.3296 73.9767 81.3587 73.7205C81.6663 70.9935 81.6375 70.7204 80.8381 68.7475C80.1387 67.0224 79.7563 66.4265 78.47 65.0604C76.7878 63.2737 75.4167 61.4382 74.8435 60.2065C74.6094 59.7041 74.2629 58.3911 74.2017 57.7761C74.0975 56.7353 74.5129 55.935 75.6354 55.0103C76.7808 54.0669 78.2004 53.5121 79.4933 53.5025C79.8766 53.4998 80.2669 53.4851 80.361 53.4711C80.7381 53.4126 81.5794 53.4391 81.9517 53.521L82.3459 53.6073L82.5752 53.0471C83.2597 51.3748 84.2664 50.1826 85.6101 49.4518C86.5539 48.9379 87.4758 48.8385 88.4574 49.1438C89.1787 49.3677 89.6428 49.7865 91.0413 51.4718C93.0437 53.885 93.6732 54.7978 94.2075 56.0625C94.9133 57.7338 94.8928 59.1785 94.1478 60.3171L93.8999 60.6949L94.4146 60.9033C95.1138 61.1867 95.6782 61.5496 96.7189 62.3872C97.4978 63.0132 97.6976 63.2149 98.4471 64.1295C99.9719 65.99 100.278 66.5114 100.341 67.3601C100.374 67.8074 100.24 68.3795 100.041 68.6389C99.7456 69.0236 98.9287 69.5698 97.6683 70.2255C96.9855 70.581 96.0558 71.0684 95.6017 71.3078C94.9415 71.6563 94.5357 71.8246 93.5693 72.1492C91.4728 72.8538 90.9573 72.9699 88.8957 73.2033C87.4145 73.371 86.8908 73.3866 85.6657 73.2991C84.5607 73.2198 84.162 73.2951 83.3101 73.7446C82.9427 73.9381 82.5615 74.1713 82.4621 74.262C82.259 74.4484 81.5989 75.6081 80.6839 77.3863C78.412 81.7994 77.9285 82.5655 76.6442 83.7836C75.684 84.6938 73.8227 86.0068 72.5007 86.7054C72.0699 86.9331 71.7474 87.1284 71.7847 87.1389C71.8219 87.1493 72.1581 87.1056 72.5323 87.041C72.9066 86.9765 73.9165 86.8358 74.7758 86.7282C77.8431 86.345 81.8919 85.7463 83.8196 85.3905C86.1743 84.9557 90.2593 83.8226 92.8007 82.8998C95.4942 81.9219 95.8029 81.7866 96.6806 81.2053C97.1259 80.9098 98.1302 80.2676 98.9117 79.7777C99.6932 79.2878 100.48 78.7721 100.659 78.6319C102.152 77.4652 103.752 75.4137 104.836 73.2772C105.025 72.9047 105.631 71.5484 106.183 70.2639C108.096 65.8088 108.489 65.053 109.616 63.6572C110.511 62.5489 111.07 61.9879 112.095 61.1662C112.631 60.7363 113.02 60.3834 113.002 60.3442C112.984 60.3063 112.978 59.8453 112.989 59.3202C112.999 58.795 112.975 58.2146 112.936 58.0309C112.773 57.2615 112.455 56.3564 112.027 55.4447C111.502 54.3282 111.094 53.6308 110.511 52.8596C109.85 51.9824 109.575 51.3287 109.335 50.057C108.968 48.1184 109.055 46.993 109.703 45.2868C110.076 44.3042 110.289 43.9787 111.369 42.7455C112.627 41.3089 112.734 41.1973 113.281 40.7289C114.026 40.0928 114.792 39.7427 115.534 39.6998C115.832 39.6828 116.448 39.7273 116.904 39.7993C117.896 39.9549 118.205 39.9697 118.275 39.8655C118.304 39.8219 118.601 39.2741 118.934 38.6483C119.734 37.1468 119.989 36.7265 120.42 36.2011C120.773 35.7711 120.794 35.7562 121.506 35.422C122.225 35.085 122.239 35.0815 122.787 35.0954C123.162 35.105 123.634 35.1989 124.244 35.3854C126.048 35.9384 126.44 36.0374 127.355 36.1726C127.867 36.2484 129.019 36.3321 129.914 36.3585C132.119 36.423 132.592 36.5372 133.455 37.2153C134.394 37.9518 135.045 38.7752 135.588 39.9145C136.065 40.9155 136.171 41.3304 136.165 42.1786C136.158 43.2691 135.556 44.6389 134.555 45.8417C133.947 46.5717 133.232 47.2826 132.484 47.9017L131.834 48.4395L132.195 48.5616C132.995 48.8318 133.962 49.2966 134.292 49.5697C134.771 49.9659 135.107 50.4434 135.161 50.804C135.228 51.2546 135.039 51.6244 134.207 52.6798C132.84 54.4128 132.341 55.3893 131.708 57.5719C130.82 60.6337 129.285 62.5668 127.569 62.7844C127.046 62.85 125.296 62.7958 124.327 62.6828C123.312 62.565 122.185 62.2784 120.756 61.7753C119.322 61.2705 119.07 61.2048 118.273 61.124C117.941 61.0901 117.455 61.0072 117.193 60.9391C116.48 60.7532 115.6 60.6695 115.138 60.7428C114.858 60.7877 114.638 60.7727 114.441 60.6958C114.283 60.6338 114.099 60.6084 114.032 60.6398C113.768 60.7636 111.665 62.5114 111.247 62.9532C111.004 63.2106 110.532 63.7567 110.199 64.1667C109.067 65.5564 108.708 66.2449 106.666 70.9448C105.742 73.0725 105.259 74.0515 104.621 75.0915C103.298 77.2483 101.849 78.7808 100.131 79.8392C99.32 80.3394 99.1129 80.4953 99.5054 80.3113C101.04 79.5915 104.215 78.3528 106.52 77.573C112.314 75.6143 113.733 75.1879 115.899 74.7552C117.631 74.4092 120.916 74.0525 122.042 74.0888C122.469 74.1021 123.746 74.2675 124.269 74.376C124.66 74.458 124.707 74.4526 124.863 74.3091C124.956 74.2236 125.233 74.0239 125.48 73.8655C126.241 73.3756 126.893 73.2343 129.507 72.9947C130.47 72.907 130.81 72.8118 132.232 72.2384C132.84 71.993 133.493 71.7366 133.685 71.669L134.031 71.546L133.98 70.9994C133.915 70.3191 133.99 69.8366 134.226 69.3972C134.327 69.2104 134.591 68.7031 134.813 68.2699C135.738 66.4613 136.272 65.7357 137.955 64.0114C138.648 63.3008 139.554 62.3413 139.97 61.8792C140.385 61.4171 140.993 60.7835 141.321 60.4711C142.431 59.4142 142.743 59.2088 145.778 57.5452C147.52 56.5912 148.051 56.2722 149.393 55.3732C151.569 53.9156 153.021 53.2045 154.48 52.8814C155.491 52.6571 156.52 52.5501 157.305 52.5875C158.767 52.6571 161.148 53.3375 161.874 53.8934C162.537 54.401 162.734 54.6518 163.119 55.4772C163.436 56.1554 163.487 56.3237 163.634 57.1602C163.837 58.3137 163.899 59.294 163.846 60.4807C163.808 61.3346 163.815 61.3991 163.946 61.4056C164.024 61.4097 164.502 61.3891 165.008 61.3591C165.514 61.3291 166.015 61.3079 166.123 61.3117C166.559 61.3276 167.74 61.5849 168.129 61.7488C170.175 62.6137 170.579 62.991 171.539 64.9393L172.156 66.193L172.323 67.091ZM170.141 63.9405C169.761 63.4473 169.273 63.0985 168.402 62.6974C167.232 62.1596 166.392 61.9965 165.182 62.0716C164.671 62.1032 164.145 62.1178 164.012 62.1038C163.879 62.0898 163.757 62.0838 163.741 62.0914C163.724 62.0991 163.682 62.3094 163.646 62.5585C163.61 62.8083 163.487 63.5354 163.373 64.1752C163.146 65.4433 163.115 65.817 163.209 66.1781C163.263 66.3851 163.323 66.447 163.688 66.6626C164.733 67.2834 166.243 68.588 166.839 69.3866C167.78 70.6485 168.394 72.3903 168.464 74.0024C168.494 74.6872 168.286 76.1692 168.013 77.2097C167.571 78.9016 166.562 81.2985 164.801 84.8429C163.442 87.5772 163.031 89.2884 163.322 90.9867C163.401 91.4498 163.487 91.6829 163.923 92.6117C164.269 93.3508 164.553 93.8725 164.815 94.2508C165.026 94.5558 165.462 95.2813 165.782 95.8629L166.365 96.9204L167.594 96.394C170.02 95.3555 170.852 94.7213 171.668 93.2892C172.289 92.2008 172.643 90.9862 172.651 89.9261C172.655 89.2523 172.418 86.9079 172.171 85.18C172.065 84.4418 171.964 83.4144 171.945 82.8978C171.905 81.7805 171.985 79.4393 172.122 77.7566C172.24 76.2864 172.2 74.1964 172.021 72.5014C171.947 71.8084 171.881 70.7155 171.872 70.0729C171.855 68.7934 171.818 68.3885 171.606 67.2215C171.468 66.4602 171.453 66.4175 170.918 65.3398C170.617 64.7337 170.268 64.1038 170.141 63.9405ZM161.902 54.9972C161.294 54.3293 160.564 54.0133 158.741 53.629C156.418 53.1388 154.225 53.527 151.935 54.8347C151.488 55.0897 150.87 55.4667 150.563 55.6734C148.273 57.2085 147.301 57.7908 144.668 59.2057C142.966 60.1199 142.153 60.7713 140.705 62.3838C140.263 62.8759 139.306 63.8872 138.577 64.6317C137.11 66.1301 136.593 66.7951 135.994 67.9503C134.752 70.3485 134.813 70.1976 134.861 70.7257C134.883 70.9703 134.904 71.2054 134.907 71.2472C134.91 71.2889 135.038 71.3085 135.191 71.2902C135.43 71.261 135.513 71.2187 135.785 70.9841C136.251 70.5825 137.55 69.8845 138.515 69.517C138.965 69.3466 139.378 69.1997 139.435 69.1907C139.616 69.1637 142.027 68.2992 143.118 67.8706C143.699 67.6424 144.363 67.3999 144.594 67.3315C145.807 66.9728 148.373 66.3831 151.498 65.7448C152.677 65.5044 155.487 65.166 156.441 65.1507C158.259 65.1211 160.388 65.3999 161.911 65.8675L162.582 66.0738L162.549 65.7342C162.531 65.5474 162.63 64.6167 162.77 63.6656C162.91 62.7147 163.008 61.9015 162.988 61.8587C162.968 61.8166 162.976 61.7334 163.005 61.6743C163.148 61.3915 163.169 59.261 163.039 58.2335C162.983 57.7888 162.81 56.8618 162.724 56.5444C162.595 56.0762 162.192 55.3167 161.902 54.9972ZM166.152 69.9512C165.721 69.3752 165.257 68.9196 164.387 68.2193C163.414 67.4355 162.921 67.1404 161.988 66.7821C160.006 66.0221 157.419 65.8099 154.453 66.164C152.691 66.3745 152.203 66.4606 150.004 66.9496C146.023 67.8349 144.954 68.1287 143.391 68.7656C142.14 69.2757 140.528 69.8397 139.348 70.181C138.865 70.3208 138.435 70.5015 137.659 70.8922C136.356 71.5466 136.172 71.7018 136.127 72.1829C136.109 72.3751 135.948 73.0772 135.77 73.744C135.588 74.4268 135.437 75.1857 135.424 75.4813C135.352 77.1453 134.952 78.2662 133.998 79.4737C133.459 80.1545 132.601 80.8565 132.158 80.9801L131.896 81.053L132.175 81.2314C132.616 81.5138 132.904 81.7969 133.275 82.314C133.692 82.897 133.879 83.0645 134.776 83.6637C135.159 83.9196 135.611 84.2467 135.778 84.3907C136.984 85.4235 139.014 87.2177 139.418 87.6072C139.686 87.8651 140.333 88.4875 140.856 88.9902C144.11 92.114 144.74 92.75 145.234 93.4127C145.69 94.0259 145.836 94.1664 146.838 94.9662C149.226 96.8707 154.685 100.442 156.885 101.538C158.449 102.317 160.312 102.922 161.784 103.129C163.43 103.36 165.702 103.118 166.625 102.611C166.951 102.431 167.011 102.37 167.11 102.108C167.339 101.506 167.205 100.689 166.668 99.4126C166.152 98.1865 164.876 95.7508 164.178 94.6607C162.915 92.6874 162.439 91.2399 162.49 89.5367C162.532 88.1717 163.035 86.5035 164.038 84.4114C166.646 78.9716 167.508 76.4494 167.515 74.2477C167.517 73.6619 167.344 72.5306 167.17 71.9848C167.003 71.4639 166.437 70.3318 166.152 69.9512ZM134.155 39.0425C133.373 38.0988 132.565 37.4875 131.863 37.3103C131.659 37.2588 130.849 37.1994 130.063 37.1772C127.682 37.1121 126.597 36.9397 124.792 36.337C122.96 35.7263 122.572 35.6872 121.79 36.0333C121.117 36.3312 120.752 36.8315 119.686 38.9167C119.327 39.6184 118.836 40.5673 118.594 41.026C116.954 44.137 116.15 47.3775 116.062 51.2379C116.04 52.1569 116.058 53.2557 116.103 53.6795C116.254 55.1421 116.149 56.1701 115.694 57.6751L115.439 58.5225L115.714 58.3442C115.866 58.2465 116.715 57.6314 117.602 56.9783C119.08 55.8898 121.037 54.5932 123.643 52.9739C127.877 50.344 130.904 48.231 132.526 46.7737C134.648 44.867 135.63 43.1551 135.437 41.698C135.336 40.9343 134.796 39.8174 134.155 39.0425ZM133.898 50.0556C133.342 49.5855 131.511 48.7687 131.269 48.8821C131.195 48.9169 130.905 49.1169 130.624 49.3263C129.352 50.275 126.362 52.2458 124.031 53.6712C120.749 55.6779 118.141 57.4507 115.251 59.6392L114.685 60.0678L115.014 59.9965C115.525 59.8853 116.445 59.9501 117.327 60.1587C117.623 60.2285 118.124 60.3076 118.44 60.3345C119.257 60.4039 119.525 60.4701 120.81 60.9175C122.888 61.641 123.987 61.8769 125.716 61.971C127.5 62.0677 127.952 61.9947 128.59 61.5074C129.106 61.1139 129.438 60.7262 129.868 60.0145C130.344 59.2294 130.62 58.5561 131.03 57.1875C131.657 55.0946 132.198 54.0635 133.545 52.3955C133.994 51.8413 134.403 51.2791 134.456 51.1467C134.545 50.9266 134.539 50.8812 134.373 50.6047C134.273 50.4391 134.06 50.1924 133.898 50.0556ZM153.216 100.44C151.553 99.447 148.516 97.3392 147.232 96.2872C146.746 95.889 146.089 95.3536 145.772 95.0981C145.063 94.5259 144.99 94.4556 144.495 93.8584C144.062 93.3375 142.913 92.1876 141.17 90.5325C140.557 89.9505 139.751 89.1714 139.377 88.8014C138.628 88.0585 138.449 87.8933 137.025 86.6343C136.488 86.1589 135.81 85.556 135.519 85.2943C135.228 85.0325 134.649 84.5809 134.233 84.2896C133.358 83.6782 133.148 83.472 132.678 82.7656C132.467 82.4481 132.18 82.115 131.931 81.8969L131.526 81.5436L131.326 81.9816C131.215 82.2223 131.016 82.688 130.884 83.0155C130.751 83.3429 130.526 83.857 130.384 84.1574C130.242 84.4578 130.108 84.7828 130.086 84.8796C129.94 85.5487 129.635 87.9925 129.671 88.2009C129.759 88.6954 130.506 90.458 131.039 91.4303C131.494 92.2584 131.604 92.4141 132.045 92.8636C133.871 94.7214 136.126 97.1528 136.723 97.9082C137.108 98.3944 137.724 99.1175 138.091 99.5148C138.459 99.9118 139.028 100.554 139.357 100.942C139.685 101.33 140.293 102.017 140.708 102.469C142.17 104.063 143.073 105.28 144.103 107.049C144.628 107.95 144.897 108.635 145.178 109.778C145.508 111.12 145.925 111.894 146.418 112.071C146.605 112.139 146.684 112.122 147.103 111.925C148.031 111.49 149.421 110.419 150.007 109.688C150.616 108.928 151.511 106.626 152.082 104.355C152.229 103.77 152.448 103.067 152.568 102.791C153.099 101.577 153.223 101.34 153.471 101.068C153.616 100.91 153.729 100.77 153.723 100.759C153.717 100.747 153.489 100.603 153.216 100.44ZM135.2 72.0394C134.985 71.9447 134.577 72.0373 133.609 72.3988C133.167 72.564 132.469 72.8247 132.056 72.9779C131.034 73.358 130.181 73.5544 129.117 73.6539C127.113 73.8423 126.383 73.993 125.817 74.3334C125.61 74.4575 125.368 74.6387 125.278 74.7368C125.133 74.8942 125.128 74.9313 125.232 75.0616C125.297 75.1424 125.509 75.3161 125.704 75.4466C125.899 75.5777 126.222 75.8083 126.421 75.9591C126.621 76.1102 127.087 76.3853 127.458 76.5698C127.83 76.7549 128.257 76.9912 128.408 77.095C128.822 77.3788 129.334 77.9261 129.485 78.2439C129.563 78.4075 129.822 78.7333 130.103 79.0198C130.369 79.2913 130.675 79.6537 130.783 79.8258C131.032 80.2192 131.115 80.2808 131.452 80.3196C131.603 80.3373 131.77 80.4063 131.825 80.4732C131.938 80.6114 131.959 80.6001 132.494 80.1082C132.939 79.6998 133.507 78.976 133.83 78.4095C134.38 77.4447 134.604 76.643 134.651 75.4761C134.669 75.0565 134.787 74.4834 135.049 73.5627C135.255 72.8403 135.409 72.2175 135.393 72.1796C135.375 72.1417 135.289 72.0785 135.2 72.0394ZM117.071 40.5875C115.752 40.3646 115.056 40.4164 114.445 40.7825C113.896 41.1121 113.239 41.72 112.584 42.5051C112.259 42.8947 111.788 43.4477 111.537 43.7335C110.919 44.44 110.58 45.0222 110.299 45.8573C109.845 47.207 109.782 48.405 110.08 49.9963C110.287 51.1014 110.533 51.6784 111.127 52.4576C111.738 53.2586 112.318 54.2898 112.893 55.6023C113.648 57.3273 113.807 58.081 113.692 59.396L113.649 59.8864L113.876 59.7322C114.07 59.6 114.151 59.4437 114.439 58.6465C115.219 56.4887 115.383 55.4203 115.199 53.7205C115.113 52.9247 115.151 50.3071 115.264 49.2523C115.391 48.0775 115.86 45.6774 116.15 44.7199C116.427 43.8043 117.04 42.2874 117.523 41.3239C117.675 41.0213 117.79 40.7578 117.78 40.7391C117.77 40.7195 117.451 40.6517 117.071 40.5875ZM119.839 94.4047C119.723 94.3357 119.156 94.1032 118.581 93.8882C117.512 93.489 117.022 93.2441 115.709 92.4527C114.323 91.6176 113.641 90.9619 112.567 89.4338C112.247 88.9775 111.862 88.4649 111.713 88.2939C111.342 87.8689 110.562 87.4009 109.735 87.108C109.118 86.8891 108.934 86.8613 107.986 86.8473C106.528 86.8257 105.888 86.914 104.512 87.3281C102.851 87.8278 101.959 88.2629 98.0467 90.4796C95.8941 91.6999 94.429 92.4619 92.4389 93.3966L90.6996 94.2137L91.3757 94.5028C93.1779 95.2736 94.216 95.5693 95.9605 95.8109C98.0109 96.0949 99.6765 96.1493 102.075 96.0109C103.638 95.9208 104.521 95.9239 105.869 96.0259C106.331 96.0605 107.301 96.1179 108.025 96.1538C109.772 96.2391 110.573 96.3141 111.952 96.5224C114.129 96.8509 115.164 96.8549 116.878 96.539C117.709 96.3861 117.88 96.3323 118.645 95.981C120.341 95.2018 120.602 94.8567 119.839 94.4047ZM116.045 97.943C115.675 97.6359 115.516 97.5953 114.818 97.6307C114.05 97.669 113.647 97.6361 111.936 97.3963C110.444 97.1866 109.756 97.1326 106.228 96.9474C104.057 96.8337 103.487 96.8336 101.707 96.9513C99.6824 97.0841 97.9088 97.0047 95.6818 96.6815C93.8626 96.417 92.9406 96.1446 90.7942 95.2341L90.5472 95.1294L90.7339 95.446C90.837 95.6203 91.1178 96.1 91.3578 96.5129C92.1045 97.7962 92.8391 98.806 93.6093 99.6094C93.9975 100.014 94.5017 100.554 94.7307 100.81C95.5536 101.734 98.1381 103.859 99.3776 104.633C100.375 105.255 100.601 105.434 102.025 106.728C104.103 108.617 105.309 109.444 106.733 109.957C107.453 110.216 107.74 110.281 108.216 110.29L108.806 110.302L109.562 109.945C111.395 109.078 112.582 107.613 114.012 104.451C114.471 103.438 114.863 102.767 115.672 101.608C116.23 100.81 116.678 99.7793 116.689 99.2714C116.699 98.8284 116.42 98.2544 116.045 97.943ZM98.5231 65.634C98.2632 65.2915 97.794 64.7018 97.4802 64.3228C96.3297 62.9342 94.3752 61.5125 93.5672 61.477C93.3254 61.4662 93.3187 61.4708 92.9783 61.8883C92.3082 62.7082 91.3213 63.7904 90.1258 65.0145C89.0897 66.0765 86.7896 68.5615 85.1805 70.3573C84.556 71.0551 83.4426 72.5185 83.4911 72.5795C83.5119 72.6065 83.6675 72.5871 83.8368 72.5357C84.3227 72.3894 84.9251 72.3597 85.8631 72.4357C86.9004 72.5194 87.7048 72.4861 89.1702 72.2972C90.5701 72.1161 91.491 71.8966 93.0237 71.3777C94.2038 70.9787 94.3523 70.9127 96.1894 69.9733C97.7103 69.1955 98.2382 68.8987 98.6887 68.5655C99.0029 68.3336 99.2961 68.0947 99.341 68.0354C99.4305 67.9156 99.4655 67.4083 99.4068 67.0934C99.3554 66.8207 99.0899 66.3816 98.5231 65.634ZM92.3985 54.6923C91.9377 54.0186 90.1104 51.7466 89.3092 50.8504C88.8192 50.3027 88.4014 50.0328 87.8852 49.931C87.2759 49.8111 86.8209 49.865 86.2565 50.1245C84.9302 50.734 83.887 52.0131 83.1903 53.8836C82.8664 54.7534 82.7181 55.3498 82.4321 56.9308C81.9775 59.4432 81.9013 61.1124 82.1413 63.2866C82.2822 64.5594 82.3528 66.2376 82.3503 68.2397C82.3494 68.7552 82.3822 69.5232 82.423 69.9457C82.4631 70.3685 82.4772 71.1136 82.4528 71.6012L82.409 72.488L82.5808 72.2333C83.1619 71.3693 83.9832 70.3229 84.7185 69.507C86.8949 67.0954 88.4864 65.3718 89.6451 64.173C92.2729 61.4535 93.6077 59.7393 93.7579 58.8929C93.8589 58.3194 93.7585 57.4215 93.5091 56.6699C93.381 56.284 92.8918 55.4133 92.3985 54.6923ZM103.269 85.2127C103.102 85.0508 102.406 84.7445 102.16 84.7247C101.853 84.6995 99.1445 85.9453 97.6452 86.8005C96.5684 87.415 94.643 88.6698 94.1529 89.0767C94.0372 89.1736 93.6785 89.574 93.357 89.9673C93.0357 90.3597 92.6076 90.858 92.4055 91.0748C92.2037 91.2907 91.8608 91.7248 91.6443 92.0394C91.4284 92.3538 91.1159 92.7663 90.9514 92.9566C90.7866 93.1463 90.6664 93.307 90.6841 93.3134C90.7726 93.3454 95.5365 90.8903 97.2101 89.9504C100.157 88.2952 101.631 87.5192 102.618 87.1043L103.52 86.7254L103.549 86.4392C103.605 85.8965 103.499 85.436 103.269 85.2127ZM81.6402 54.1836C81.4418 54.1525 81.0728 54.1374 80.8197 54.1495C78.4829 54.2651 78.7855 54.2077 77.618 54.7574C76.4963 55.2856 76.1839 55.5071 75.6098 56.1789C74.9989 56.8946 74.9248 57.2511 75.1557 58.3692C75.5213 60.1385 76.7544 62.0623 79.124 64.559C80.0405 65.5254 80.5147 66.1664 81.016 67.121L81.4494 67.9465L81.4272 67.369C81.4151 67.0514 81.3945 66.3174 81.3827 65.7388C81.3707 65.1595 81.2956 64.0866 81.216 63.3553C81.06 61.917 81.0534 60.3049 81.199 58.989C81.3067 58.0126 81.6806 55.94 81.9168 55.015C82.0102 54.6479 82.0676 54.3234 82.0436 54.2942C82.0194 54.2645 81.8381 54.215 81.6402 54.1836ZM103.632 109.091C103.237 108.811 102.27 108.01 101.483 107.31C100.399 106.345 99.8636 105.919 99.278 105.551C97.9239 104.703 97.5654 104.443 96.1684 103.296C94.8941 102.249 93.6702 101.064 92.3626 99.6107C91.9646 99.1683 90.9582 97.7106 90.7562 97.2844C90.6677 97.0973 90.4784 96.7673 90.3352 96.5515C89.9928 96.0345 89.7352 95.4867 89.718 95.2383L89.7043 95.0382L89.472 95.3536C89.2317 95.6802 88.7772 96.7905 88.7628 97.0861C88.7577 97.1788 88.7979 97.7052 88.8514 98.2569C88.9465 99.2344 88.956 99.2719 89.2212 99.7559C89.3715 100.029 89.7973 100.689 90.1679 101.223C90.9266 102.315 91.542 102.953 92.6806 103.829C93.1342 104.178 93.4479 104.478 93.7091 104.816C94.0877 105.305 94.6316 105.897 95.5493 106.819C95.9134 107.184 96.2505 107.621 96.8006 108.436C97.7344 109.822 98.628 111.032 99.0346 111.461C99.4456 111.894 99.8947 112.07 100.671 112.104C101.515 112.14 101.825 111.991 102.938 111.012C103.384 110.62 103.949 110.181 104.193 110.038C104.63 109.781 104.635 109.775 104.494 109.687C104.415 109.639 104.027 109.37 103.632 109.091ZM93.0674 111.201C92.7605 111.078 91.4559 110.638 90.1686 110.221C88.8812 109.805 87.6614 109.392 87.4579 109.303C86.8235 109.026 83.8037 107.826 82.3519 107.274C80.546 106.588 79.8602 106.247 77.8207 105.02C74.9452 103.29 74.2926 102.951 70.849 101.39C68.5546 100.35 65.4458 99.1724 64.084 98.8248C62.9824 98.5442 59.3738 97.8482 58.4163 97.7307C57.4973 97.6186 55.5779 97.5355 54.6329 97.5672C53.5783 97.6017 50.4084 98.144 48.9817 98.533C47.7011 98.8823 46.973 99.1113 46.9956 99.1595C47.0021 99.1733 47.1718 99.1635 47.3717 99.1381C48.0727 99.0475 54.4957 99.2694 55.4644 99.417C56.4579 99.569 57.2357 99.7943 58.8687 100.405C60.0561 100.848 60.768 101.173 62.1557 101.903C64.3666 103.067 64.4405 103.1 67.5169 104.204C70.0881 105.126 71.9524 105.865 74.2386 106.866C75.0227 107.21 76.1378 107.617 77.1624 107.932C78.0728 108.213 79.2117 108.612 79.6927 108.819C80.8072 109.299 82.7098 109.95 83.5806 110.148C83.9514 110.233 84.7289 110.365 85.3077 110.442C85.8865 110.519 86.7865 110.663 87.3072 110.762C87.8277 110.86 88.7992 111.012 89.4659 111.099C90.1326 111.186 91.0326 111.319 91.4655 111.394C92.3221 111.542 93.2025 111.671 93.8422 111.743L94.2497 111.788L93.9374 111.606C93.7657 111.506 93.3743 111.324 93.0674 111.201ZM93.6876 112.469C93.612 112.478 92.6321 112.349 91.5094 112.181C90.387 112.013 89.1354 111.832 88.7284 111.782C88.3217 111.73 87.5905 111.613 87.1038 111.523C86.6176 111.432 85.7372 111.295 85.1473 111.218C84.5584 111.142 83.8065 111.022 83.4765 110.952C82.5907 110.764 80.9383 110.217 79.4995 109.635C78.8014 109.352 77.5666 108.922 76.7558 108.68C75.7476 108.379 74.724 108.002 73.5185 107.487C70.9815 106.404 70.0487 106.041 67.0036 104.957C64.2148 103.964 63.7117 103.744 61.4479 102.529C60.3511 101.94 59.8159 101.708 58.2229 101.132C56.1382 100.379 55.3489 100.206 53.8381 100.169C52.9692 100.148 50.2118 100.025 49.3239 99.9686C48.5562 99.9186 48.6537 99.9493 50.4446 100.32C54.0526 101.066 55.4424 101.528 61.3363 103.94C62.9076 104.584 65.569 105.633 68.9921 106.959C69.7264 107.244 72.0953 108.169 74.2556 109.015C80.8551 111.6 80.9369 111.627 83.6396 112.146C84.3927 112.291 85.5272 112.521 86.1605 112.657C87.6353 112.976 88.8473 113.144 89.7812 113.159C91.0247 113.18 92.56 112.969 93.6337 112.631C93.8859 112.551 93.9237 112.437 93.6876 112.469ZM66.3885 54.2962C66.2844 54.3142 66.2224 54.3733 66.1937 54.4831C66.093 54.8675 64.6502 57.2578 64.1487 57.8713C62.5492 59.8287 61.9038 60.5759 61.3127 61.1551C60.9389 61.5215 60.2461 62.2446 59.7734 62.7609C59.301 63.2779 58.502 64.1132 57.9968 64.6183C57.4922 65.1232 56.6645 65.9566 56.1572 66.4715C55.6503 66.9855 54.8737 67.7634 54.4301 68.1992C53.9874 68.6353 52.9067 69.7528 52.0279 70.6829C51.1497 71.6128 50.0659 72.7596 49.6193 73.2313C49.1733 73.7028 48.376 74.5793 47.8485 75.1794C47.3206 75.7789 46.5714 76.6152 46.1829 77.0384C45.1653 78.146 44.6326 78.8294 43.8376 80.0465C43.4505 80.6388 42.7574 81.695 42.2958 82.3934C41.5841 83.473 40.5357 85.2271 40.5651 85.2897C40.5702 85.3005 40.7806 85.0608 41.0328 84.7581C42.1967 83.3599 43.7621 81.5964 45.7122 79.4849C48.9824 75.9446 49.8878 75.0365 53.158 72.0216C57.3746 68.1345 60.6131 64.8824 62.4659 62.6733C63.6384 61.2762 65.0008 59.2838 65.7059 57.9361C66.5807 56.2635 66.9695 54.1942 66.3885 54.2962ZM64.1114 55.7873C63.8269 56.0228 62.8183 56.9631 61.8714 57.8767C59.2256 60.429 57.2911 62.0798 55.3846 63.4125C54.9431 63.721 53.7375 64.5031 52.706 65.1499C48.7311 67.6422 47.0245 68.926 45.0245 70.9279C43.7038 72.2489 41.4747 75.1283 40.3888 76.9154C39.9505 77.6368 39.1024 79.6048 38.3619 81.6186C37.8152 83.1065 37.564 84.3383 37.5286 85.7135C37.5174 86.1428 37.4863 86.7525 37.4601 87.0683C37.4336 87.3835 37.4299 88.0796 37.451 88.6157C37.5091 90.0647 37.4879 89.982 37.6879 89.5458C37.7834 89.3386 37.982 88.8259 38.1288 88.4066C38.3992 87.639 39.346 85.5616 39.9236 84.4707C40.3742 83.6201 40.724 83.0534 41.9301 81.2217C43.8821 78.2577 44.171 77.8701 45.5849 76.3121C45.9851 75.8716 46.7997 74.9613 47.3943 74.2894C47.9896 73.6171 48.9109 72.6178 49.4414 72.0678C49.9727 71.5181 50.9686 70.472 51.6546 69.744C52.3412 69.0157 53.4033 67.9275 54.0143 67.325C56.2237 65.15 57.7976 63.5567 58.7561 62.5252C59.2938 61.9468 60.1329 61.0779 60.6197 60.5946C61.7421 59.4797 63.6678 57.1328 64.301 56.1069C64.561 55.6859 64.7415 55.3448 64.7018 55.3495C64.6621 55.3541 64.3964 55.5515 64.1114 55.7873ZM44.6836 46.4348C44.5768 46.5723 44.1894 47.1405 43.8229 47.6967C41.6825 50.9474 41.1578 51.8438 40.4322 53.4832C40.2264 53.9493 39.8568 54.7795 39.6105 55.3286C39.3645 55.8767 38.9891 56.734 38.7753 57.2332C38.5619 57.7316 38.0809 58.7118 37.7066 59.4112C37.332 60.1101 36.8313 61.1598 36.5937 61.7429C36.356 62.3261 36.0013 63.1318 35.8049 63.5332C35.207 64.7564 34.5985 66.2725 33.2132 69.9915C31.9462 73.3919 31.1241 75.8921 30.7848 77.3768C30.6344 78.0316 30.5803 78.8682 30.6848 78.9059C30.7966 78.9468 31.4469 78.1473 32.1607 77.091C32.966 75.9007 33.6793 74.6631 34.9234 72.3022C36.3878 69.5234 36.903 68.2149 37.4762 65.8173C38.0045 63.6098 38.1126 63.238 38.8747 60.9878C40.0309 57.5739 41.5957 53.7231 43.2797 50.1455C44.1356 48.3274 44.9537 46.3441 44.8978 46.2249C44.8873 46.2026 44.7911 46.2969 44.6836 46.4348ZM42.6502 47.9358C41.8586 48.7868 40.4897 50.5993 39.4044 52.2325C38.7085 53.2811 37.2726 55.6754 36.9026 56.4044C35.3798 59.4053 34.8554 60.591 33.9787 63.0155C33.4853 64.38 32.8678 66.2045 32.6069 67.0691C32.3466 67.9333 32.0532 68.9027 31.9554 69.2226C31.8582 69.5423 31.6832 70.1916 31.5666 70.6644C31.45 71.1372 31.25 71.9151 31.1222 72.3924C30.9027 73.2103 30.7004 74.3221 30.6959 74.7358L30.6935 74.9206L30.7531 74.7089C31.0978 73.4774 31.5753 72.0771 32.0737 70.833C32.4048 70.0053 32.8308 68.8562 33.0207 68.2792C33.4225 67.0533 34.3801 64.7135 35.0545 63.3083C35.3149 62.7659 35.6926 61.9135 35.8941 61.4133C36.096 60.9138 36.4802 60.0988 36.7481 59.6021C37.5233 58.1657 38.047 57.0538 39.5385 53.6774C40.397 51.7347 41.1572 50.3994 42.6702 48.1792C42.9276 47.8012 43.1256 47.4879 43.1103 47.4819C43.0944 47.4762 42.8878 47.6803 42.6502 47.9358Z" fill="black" fill-opacity="0.2"/>
</g>
<defs>
<clipPath id="clip0_18_4">
<rect width="104.674" height="155.861" fill="white" transform="matrix(-0.424573 -0.905394 -0.905394 0.424573 185.557 94.7715)"/>
</clipPath>
</defs>
</svg>
