<svg width="186" height="161" viewBox="0 0 186 161" fill="none" xmlns="http://www.w3.org/2000/svg">
<g clip-path="url(#clip0_18_153)">
<path fill-rule="evenodd" clip-rule="evenodd" d="M13.2342 67.091C12.9913 68.3946 12.9551 68.7854 12.9541 70.1348C12.9541 70.8013 12.9006 71.8674 12.8359 72.5042C12.6743 74.0987 12.6459 76.4522 12.771 77.8541C13.0725 81.2213 13.0781 83.1462 12.7932 84.9158C12.6094 86.0575 12.2547 89.5365 12.2692 90.0577C12.3088 91.507 13.1072 93.5479 14.0645 94.6479C14.6926 95.3693 15.0471 95.6171 16.2836 96.1999C16.913 96.4966 17.7856 96.8771 18.222 97.0457L19.0161 97.352L18.4037 98.6579C17.7345 100.085 17.5717 100.6 17.5223 101.444C17.486 102.065 17.7125 102.713 18.0928 103.074C18.7356 103.684 20.5435 104.105 22.4573 104.092C25.0325 104.074 27.593 103.261 30.5768 101.514C31.0008 101.265 31.3638 101.054 31.3835 101.045C31.5748 100.952 32.3714 103.016 32.6151 104.235C32.8187 105.255 33.2026 106.541 33.697 107.863C34.2225 109.267 34.4631 109.745 34.9046 110.262C35.8885 111.414 38.1721 112.902 38.9705 112.912C39.9313 112.924 40.6876 111.923 41.1071 110.084C41.4283 108.676 41.8869 107.717 43.1299 105.852C43.6789 105.028 44.6544 103.832 45.6161 102.804C45.9747 102.42 46.5385 101.787 46.8689 101.396C47.2 101.006 47.7587 100.376 48.1115 99.995C48.4642 99.6144 49.0632 98.9033 49.4424 98.4147C50.1356 97.5214 52.609 94.8345 53.8546 93.6213C54.2446 93.2413 54.6355 92.7949 54.7954 92.548C55.571 91.3473 56.5868 89.0667 56.7104 88.2495C56.7415 88.0421 56.692 87.4105 56.5909 86.726C56.4959 86.0833 56.3926 85.361 56.362 85.1218C56.3309 84.8824 56.1804 84.3988 56.0272 84.0463C55.8741 83.6938 55.6428 83.1364 55.5132 82.8074C55.273 82.1966 54.8487 81.4046 54.7319 81.3476C54.5332 81.2508 54.5577 81.1388 54.8092 80.99C55.0477 80.8484 55.407 80.4444 55.5333 80.1752C55.5644 80.1089 55.8127 79.8271 56.0847 79.5483C56.3572 79.2697 56.6335 78.9268 56.699 78.7871C56.8329 78.5016 57.2142 78.0506 57.5268 77.8092C57.6401 77.7213 58.0359 77.4873 58.4061 77.2891C59.3037 76.8084 60.7234 75.7099 60.8901 75.367L61.0126 75.1151L62.1906 74.976C63.6622 74.802 63.3689 74.8033 65.3782 74.963C68.5905 75.2172 70.4998 75.6092 73.6218 76.6551C78.6904 78.3538 81.4215 79.3317 83.288 80.1159C86.9573 81.6572 91.5282 83.4385 93.548 84.1137C95.7307 84.8433 99.5779 85.8671 101.492 86.2277C103.176 86.5449 107.781 87.231 110.238 87.5314C111.51 87.6862 112.568 87.8216 112.59 87.8317C112.611 87.8419 112.205 87.9139 111.688 87.9923C110.719 88.1383 108.82 88.6507 107.372 89.157C106.919 89.3156 106.03 89.6975 105.396 90.0065C104.7 90.3461 103.521 90.8258 102.418 91.2181C101.413 91.5761 100.039 92.105 99.3626 92.3941C98.6865 92.6833 97.6535 93.1012 97.0665 93.3227L96.0001 93.7257L95.9462 93.516C95.9171 93.4009 95.6653 93.036 95.3874 92.705C95.1094 92.3741 94.7325 91.8792 94.5495 91.6045C94.3671 91.3301 94.0461 90.9136 93.8367 90.678C93.627 90.443 93.2009 89.9338 92.8896 89.5468C92.1037 88.5691 92.0145 88.4913 90.798 87.7136C89.3047 86.7591 87.8462 85.9862 85.658 84.9909C83.4568 83.9889 83.4481 83.987 82.6858 84.3438C82.1072 84.6147 81.9053 84.7897 81.7245 85.1752C81.5558 85.5348 81.5165 85.8382 81.5826 86.2822C81.6165 86.5112 81.6055 86.6162 81.5484 86.6078C81.5011 86.6003 81.1438 86.4997 80.7531 86.384C80.3618 86.2681 79.7688 86.1415 79.4352 86.1018C78.5766 86.0005 77.1558 85.9941 76.5226 86.0881C75.4963 86.241 74.0735 86.9243 73.4142 87.5822C73.2411 87.7552 72.8311 88.286 72.5028 88.7618C71.2808 90.5365 70.8506 90.952 69.1748 91.9694C68.1365 92.5994 67.7503 92.7894 66.6781 93.1955C65.2811 93.7249 64.8738 93.9771 64.6526 94.4487C64.2623 95.2812 64.7552 95.8562 66.6018 96.7222C67.4875 97.1375 67.6768 97.2042 68.3314 97.3311C68.7352 97.4095 69.0701 97.4857 69.0755 97.5008C69.081 97.5158 68.9675 97.6699 68.8231 97.8431C68.4456 98.2951 68.2372 98.8698 68.2644 99.3858C68.2956 99.9795 68.7328 101.102 69.2052 101.804C70.0816 103.106 70.4189 103.695 70.8617 104.698C72.3005 107.957 73.5371 109.507 75.5328 110.555C76.1507 110.88 76.314 110.941 76.7217 111C77.7165 111.143 79.1053 110.802 80.367 110.105L80.5655 109.995L81.0251 110.348C81.2776 110.542 81.8719 111.075 82.3452 111.532C83.101 112.262 83.2618 112.39 83.6711 112.582C84.1055 112.786 84.1845 112.8 84.8414 112.785C85.6507 112.767 86.3091 112.574 86.6919 112.241C87.0086 111.965 88.0059 110.652 89.1735 108.972C89.99 107.798 90.1428 107.612 90.8041 106.988C91.2054 106.609 91.797 105.979 92.1179 105.59C92.5862 105.022 92.8482 104.771 93.4364 104.328C94.2043 103.749 94.9564 103.061 95.3794 102.551C95.5166 102.385 95.9547 101.776 96.3539 101.196C97.3007 99.818 97.3915 99.5866 97.4975 98.2864C97.5411 97.7447 97.5729 97.1924 97.5674 97.0582C97.5433 96.4745 96.8008 94.7566 96.5144 94.6223C96.4698 94.6014 96.4415 94.5676 96.4514 94.5465C96.4613 94.5254 96.8822 94.351 97.3874 94.158C97.8918 93.9654 99.1232 93.4583 100.123 93.0304C101.122 92.6029 102.331 92.1284 102.809 91.9764C103.768 91.6701 104.733 91.2562 105.868 90.6633C106.936 90.1052 107.522 89.8781 109.226 89.364C111.517 88.6722 112.022 88.5826 114.654 88.4029C115.787 88.3254 116.431 88.4023 118.658 88.8808C121.806 89.5578 122.918 89.8681 127.219 91.2753C128.798 91.7912 130.599 92.3714 131.222 92.5637C135.311 93.827 140.83 96.3551 146.879 99.7332C147.431 100.042 147.876 100.314 147.865 100.337C147.854 100.359 147.721 100.342 147.57 100.298C147.037 100.142 144.812 99.7149 144.185 99.6462C143.836 99.6084 142.923 99.5775 142.156 99.5781C140.832 99.5782 140.754 99.57 140.614 99.4151C140.511 99.2995 140.105 99.0822 139.231 98.6737C138.174 98.1796 137.832 98.0491 136.875 97.7749C135.315 97.3281 132.345 96.805 131.017 96.7436C130.086 96.7 127.74 96.7859 126.864 96.8952C126.022 97 123.534 97.4693 121.962 97.8197C120.115 98.232 117.524 99.2024 114.261 100.705C110.97 102.22 110.095 102.683 107.122 104.483C105.248 105.618 104.636 105.925 103.035 106.534C102.368 106.788 101.315 107.203 100.693 107.457C98.1127 108.513 96.9234 108.952 94.9546 109.579C92.3232 110.417 91.46 110.749 90.8645 111.153C90.4461 111.437 90.3675 111.52 90.2223 111.829C90.0766 112.14 90.0682 112.208 90.156 112.403C90.3116 112.749 90.6196 112.971 91.3795 113.282C92.2301 113.631 92.8636 113.783 94.057 113.924C95.8757 114.139 96.998 114.048 99.9059 113.449C100.936 113.237 102.346 112.947 103.04 112.804C103.733 112.661 104.602 112.46 104.971 112.355C105.339 112.251 107.843 111.297 110.536 110.236C113.228 109.176 116.032 108.074 116.766 107.79C119.57 106.702 122.323 105.604 124.209 104.822C130.426 102.243 131.632 101.842 135.544 101.046C138.407 100.464 139.134 100.384 141.943 100.341C144.18 100.306 144.713 100.358 147.674 100.9C148.363 101.025 149.055 101.149 149.212 101.173C149.448 101.21 149.866 101.431 151.717 102.496C152.939 103.198 154.332 103.99 154.814 104.257C155.296 104.523 155.955 104.919 156.277 105.137C157.325 105.843 162.962 108.397 164.408 108.82C164.933 108.974 165.421 109.051 165.479 108.991C165.505 108.964 165.004 108.712 164.278 108.385C161.751 107.251 156.561 104.465 155.782 103.824C154.506 102.774 153.292 101.276 152.31 99.5421L151.97 98.9404L151.959 98.0411C151.937 96.1597 152.132 95.3107 153.028 93.3852C154.209 90.8447 154.611 89.6732 155.036 87.5304C155.436 85.5121 155.575 84.1028 155.716 80.6484C155.915 75.7824 155.83 74.156 155.265 72.0601C155.134 71.574 154.911 70.7086 154.767 70.1364C154.624 69.5637 154.341 68.5884 154.139 67.968C153.937 67.3479 153.659 66.457 153.521 65.9883C153.162 64.7622 151.381 60.0782 150.973 59.2831C150.783 58.9125 150.331 58.0048 149.97 57.2672C148.806 54.8956 147.252 52.3957 145.257 49.6932C143.776 47.6856 142.384 46.1951 141.291 45.448C140.664 45.0189 140.117 45.0822 139.941 45.6036C139.717 46.2643 140.235 47.7348 141.934 51.2715C143.243 53.999 144.13 56.1366 145.352 59.5105C146.475 62.6141 146.709 63.3727 147.276 65.7552C147.745 67.7239 148.167 68.9708 148.878 70.4993C149.356 71.5257 150.924 74.4942 151.546 75.5492C151.914 76.1747 153.146 77.981 153.594 78.5524C153.841 78.8684 154.613 79.6166 154.765 79.6879C154.899 79.7506 154.901 79.8089 154.821 81.66C154.726 83.8765 154.661 84.6836 154.48 85.9243C154.03 89.0015 153.61 90.4351 152.4 93.0173C151.614 94.6964 151.372 95.5606 151.327 96.8664C151.318 97.1354 151.295 97.3613 151.277 97.3674C151.258 97.3741 150.883 96.4333 150.443 95.2761C150.003 94.119 149.535 92.9289 149.404 92.6309C149.242 92.2625 149.126 91.8121 149.042 91.2221C148.914 90.3296 148.908 90.1377 148.95 88.5343C148.964 88.0154 148.955 87.4161 148.93 87.2024C148.905 86.9887 148.864 86.3762 148.837 85.842C148.732 83.7487 148.363 82.4174 146.943 79.0128C146.083 76.951 145.927 76.6566 144.838 75.0334C142.449 71.4742 139.657 68.6492 136.11 66.2002C135.651 65.8839 134.459 65.1088 133.461 64.4782C129.515 61.987 127.704 60.5516 124.263 57.189C122.517 55.4827 122.138 55.1405 121.206 54.4299C120.29 53.7317 119.595 53.3953 119.092 53.4087C118.603 53.4208 118.365 53.5583 118.191 53.9281C117.898 54.5546 117.988 55.5466 118.46 56.8646C118.94 58.2076 119.677 59.4812 121.193 61.5862C122.917 63.9811 125.981 67.1878 131.885 72.7788C135.159 75.8794 136.038 76.7738 139.107 80.1217C144.457 85.9593 145.751 87.6591 147.785 91.5227C148.56 92.9939 148.78 93.4918 149.545 95.4996C150.78 98.7386 151.467 100.091 152.758 101.82L153.277 102.515L152.871 102.284C146.556 98.6911 144.736 97.7063 141.434 96.093C137.907 94.3701 133.984 92.7121 131.644 91.9549C131.24 91.8241 129.753 91.3252 128.34 90.8462C123.149 89.086 121.565 88.6339 118.099 87.9227C117.357 87.7703 116.985 87.667 116.955 87.6046C116.927 87.5428 116.878 87.5238 116.812 87.5477C116.66 87.6027 114.428 86.6011 113.604 86.1083C112.771 85.6096 111.559 84.7764 110.703 84.1145C108.709 82.5718 108.14 81.7744 105.886 77.3659C105.554 76.7157 105.053 75.7717 104.774 75.2681C104.495 74.7646 104.263 74.3149 104.259 74.2697C104.255 74.2237 104.228 73.9767 104.199 73.7205C103.891 70.9935 103.92 70.7204 104.719 68.7475C105.419 67.0224 105.801 66.4265 107.087 65.0604C108.77 63.2737 110.141 61.4382 110.714 60.2065C110.948 59.7041 111.295 58.3911 111.356 57.7761C111.46 56.7353 111.045 55.935 109.922 55.0103C108.777 54.0669 107.357 53.5121 106.064 53.5025C105.681 53.4998 105.291 53.4851 105.196 53.4711C104.819 53.4126 103.978 53.4391 103.606 53.521L103.212 53.6073L102.982 53.0471C102.298 51.3748 101.291 50.1826 99.9474 49.4518C99.0036 48.9379 98.0816 48.8385 97.1 49.1438C96.3787 49.3677 95.9147 49.7865 94.5162 51.4718C92.5137 53.885 91.8842 54.7978 91.35 56.0625C90.6442 57.7338 90.6646 59.1785 91.4096 60.3171L91.6575 60.6949L91.1429 60.9033C90.4436 61.1867 89.8793 61.5496 88.8386 62.3872C88.0596 63.0132 87.8599 63.2149 87.1103 64.1295C85.5855 65.99 85.2793 66.5114 85.2166 67.3601C85.1834 67.8074 85.3174 68.3795 85.5164 68.6389C85.8118 69.0236 86.6287 69.5698 87.8892 70.2255C88.5719 70.581 89.5017 71.0684 89.9557 71.3078C90.616 71.6563 91.0217 71.8246 91.9881 72.1492C94.0846 72.8538 94.6002 72.9699 96.6617 73.2033C98.143 73.371 98.6666 73.3866 99.8918 73.2991C100.997 73.2198 101.395 73.2951 102.247 73.7446C102.615 73.9381 102.996 74.1713 103.095 74.262C103.298 74.4484 103.959 75.6081 104.874 77.3863C107.145 81.7994 107.629 82.5655 108.913 83.7836C109.873 84.6938 111.735 86.0068 113.057 86.7054C113.488 86.9331 113.81 87.1284 113.773 87.1389C113.736 87.1493 113.399 87.1056 113.025 87.041C112.651 86.9765 111.641 86.8358 110.782 86.7282C107.714 86.345 103.666 85.7463 101.738 85.3905C99.3831 84.9557 95.2981 83.8226 92.7567 82.8998C90.0632 81.9219 89.7545 81.7866 88.8769 81.2053C88.4315 80.9098 87.4272 80.2676 86.6457 79.7777C85.8643 79.2878 85.0779 78.7721 84.898 78.6319C83.405 77.4652 81.8055 75.4137 80.7217 73.2772C80.5323 72.9047 79.9262 71.5484 79.3746 70.2639C77.4615 65.8088 77.0687 65.053 75.9413 63.6572C75.046 62.5489 74.4876 61.9879 73.4623 61.1662C72.9263 60.7363 72.5373 60.3834 72.5556 60.3442C72.5734 60.3063 72.5792 59.8453 72.5688 59.3202C72.5584 58.795 72.582 58.2146 72.6211 58.0309C72.7841 57.2615 73.1026 56.3564 73.5309 55.4447C74.0551 54.3282 74.4639 53.6308 75.0461 52.8596C75.7075 51.9824 75.9824 51.3287 76.2228 50.057C76.5891 48.1184 76.5021 46.993 75.8548 45.2868C75.4816 44.3042 75.2687 43.9787 74.1886 42.7455C72.9303 41.3089 72.8238 41.1973 72.2763 40.7289C71.531 40.0928 70.7656 39.7427 70.0238 39.6998C69.7258 39.6828 69.1093 39.7273 68.6533 39.7993C67.6611 39.9549 67.3526 39.9697 67.2823 39.8655C67.2535 39.8219 66.9566 39.2741 66.6235 38.6483C65.8236 37.1468 65.5684 36.7265 65.1374 36.2011C64.7845 35.7711 64.7636 35.7562 64.051 35.422C63.3324 35.085 63.3186 35.0815 62.7701 35.0954C62.3956 35.105 61.9236 35.1989 61.3139 35.3854C59.5095 35.9384 59.1174 36.0374 58.2023 36.1726C57.6902 36.2484 56.5383 36.3321 55.6434 36.3585C53.4384 36.423 52.9657 36.5372 52.102 37.2153C51.1638 37.9518 50.5129 38.7752 49.9699 39.9145C49.4924 40.9155 49.3868 41.3304 49.392 42.1786C49.3999 43.2691 50.0019 44.6389 51.0029 45.8417C51.61 46.5717 52.3254 47.2826 53.0735 47.9017L53.7237 48.4395L53.362 48.5616C52.5624 48.8318 51.595 49.2966 51.2654 49.5697C50.7861 49.9659 50.4505 50.4434 50.3968 50.804C50.3297 51.2546 50.5181 51.6244 51.3507 52.6798C52.7178 54.4128 53.216 55.3893 53.8494 57.5719C54.7376 60.6337 56.2728 62.5668 57.9888 62.7844C58.5111 62.85 60.2618 62.7958 61.2305 62.6828C62.2454 62.565 63.372 62.2784 64.8015 61.7753C66.2355 61.2705 66.487 61.2048 67.2846 61.124C67.6167 61.0901 68.1027 61.0072 68.3649 60.9391C69.0779 60.7532 69.957 60.6695 70.4191 60.7428C70.6996 60.7877 70.9199 60.7727 71.1163 60.6958C71.274 60.6338 71.458 60.6084 71.5249 60.6398C71.789 60.7636 73.8928 62.5114 74.31 62.9532C74.5533 63.2106 75.0253 63.7567 75.3589 64.1667C76.4907 65.5564 76.8495 66.2449 78.8913 70.9448C79.8152 73.0725 80.2983 74.0515 80.9365 75.0915C82.2594 77.2483 83.7081 78.7808 85.4262 79.8392C86.2374 80.3394 86.4445 80.4953 86.0521 80.3113C84.5172 79.5915 81.3429 78.3528 79.0374 77.573C73.2435 75.6143 71.8248 75.1879 69.6581 74.7552C67.9266 74.4092 64.6417 74.0525 63.5156 74.0888C63.088 74.1021 61.8109 74.2675 61.2886 74.376C60.8979 74.458 60.8504 74.4526 60.6949 74.3091C60.6018 74.2236 60.3248 74.0239 60.0778 73.8655C59.3168 73.3756 58.6645 73.2343 56.0506 72.9947C55.0879 72.907 54.7471 72.8118 53.3253 72.2384C52.7174 71.993 52.064 71.7366 51.8728 71.669L51.526 71.546L51.5779 70.9994C51.6424 70.3191 51.5679 69.8366 51.3312 69.3972C51.2305 69.2104 50.9668 68.7031 50.7449 68.2699C49.8199 66.4613 49.2849 65.7357 47.6026 64.0114C46.9099 63.3008 46.0029 62.3413 45.5879 61.8792C45.1729 61.4171 44.5646 60.7835 44.2368 60.4711C43.1269 59.4142 42.8143 59.2088 39.779 57.5452C38.0377 56.5912 37.5062 56.2722 36.1642 55.3732C33.9883 53.9156 32.5361 53.2045 31.0778 52.8814C30.0666 52.6571 29.0378 52.5501 28.2525 52.5875C26.7902 52.6571 24.4097 53.3375 23.6835 53.8934C23.0203 54.401 22.8233 54.6518 22.4384 55.4772C22.1219 56.1554 22.0702 56.3237 21.9235 57.1602C21.7209 58.3137 21.6584 59.294 21.7116 60.4807C21.7494 61.3346 21.7427 61.3991 21.611 61.4056C21.5333 61.4097 21.0554 61.3891 20.5495 61.3591C20.0436 61.3291 19.5424 61.3079 19.4347 61.3117C18.9985 61.3276 17.8173 61.5849 17.4287 61.7488C15.3823 62.6137 14.9788 62.991 14.0189 64.9393L13.4016 66.193L13.2342 67.091ZM15.4161 63.9405C15.7967 63.4473 16.2846 63.0985 17.1559 62.6974C18.3252 62.1596 19.1651 61.9965 20.375 62.0716C20.886 62.1032 21.4123 62.1178 21.5454 62.1038C21.6784 62.0898 21.8004 62.0838 21.8167 62.0914C21.833 62.0991 21.8756 62.3094 21.9117 62.5585C21.9475 62.8083 22.0706 63.5354 22.1846 64.1752C22.4115 65.4433 22.4421 65.817 22.3486 66.1781C22.2949 66.3851 22.2342 66.447 21.8698 66.6626C20.8242 67.2834 19.3144 68.588 18.7186 69.3866C17.7775 70.6485 17.1637 72.3903 17.0931 74.0024C17.0632 74.6872 17.2714 76.1692 17.5439 77.2097C17.9868 78.9016 18.9956 81.2985 20.7562 84.8429C22.115 87.5772 22.5267 89.2884 22.2356 90.9867C22.156 91.4498 22.0702 91.6829 21.6346 92.6117C21.288 93.3508 21.0044 93.8725 20.7424 94.2508C20.531 94.5558 20.0959 95.2813 19.7754 95.8629L19.1927 96.9204L17.9636 96.394C15.5375 95.3555 14.7052 94.7213 13.889 93.2892C13.2682 92.2008 12.9141 90.9862 12.9067 89.9261C12.9021 89.2523 13.1395 86.9079 13.3864 85.18C13.4921 84.4418 13.5936 83.4144 13.6123 82.8978C13.6523 81.7805 13.5721 79.4393 13.4359 77.7566C13.3171 76.2864 13.3573 74.1964 13.5366 72.5014C13.61 71.8084 13.6769 70.7155 13.6855 70.0729C13.7023 68.7934 13.7399 68.3885 13.9511 67.2215C14.0889 66.4602 14.1045 66.4175 14.6393 65.3398C14.9405 64.7337 15.2895 64.1038 15.4161 63.9405ZM23.6556 54.9972C24.2637 54.3293 24.9937 54.0133 26.8161 53.629C29.1398 53.1388 31.3325 53.527 33.6228 54.8347C34.0695 55.0897 34.687 55.4667 34.9946 55.6734C37.2841 57.2085 38.2562 57.7908 40.8897 59.2057C42.5915 60.1199 43.4039 60.7713 44.8526 62.3838C45.294 62.8759 46.2517 63.8872 46.9808 64.6317C48.4477 66.1301 48.9647 66.7951 49.5636 67.9503C50.8057 70.3485 50.744 70.1976 50.6965 70.7257C50.6744 70.9703 50.6539 71.2054 50.6505 71.2472C50.6471 71.2889 50.5195 71.3085 50.3663 71.2902C50.127 71.261 50.0446 71.2187 49.7729 70.9841C49.3067 70.5825 48.0079 69.8845 47.0425 69.517C46.5929 69.3466 46.1794 69.1997 46.1225 69.1907C45.9411 69.1637 43.5304 68.2992 42.4393 67.8706C41.8586 67.6424 41.1943 67.3999 40.9638 67.3315C39.7508 66.9728 37.1848 66.3831 34.0592 65.7448C32.8805 65.5044 30.0702 65.166 29.1162 65.1507C27.2981 65.1211 25.1692 65.3999 23.6467 65.8675L22.9756 66.0738L23.0083 65.7342C23.0268 65.5474 22.9271 64.6167 22.787 63.6656C22.6474 62.7147 22.5493 61.9015 22.5693 61.8587C22.5891 61.8166 22.581 61.7334 22.5521 61.6743C22.4097 61.3915 22.3887 59.261 22.5183 58.2335C22.5745 57.7888 22.7474 56.8618 22.8338 56.5444C22.9621 56.0762 23.3653 55.3167 23.6556 54.9972ZM19.4055 69.9512C19.8366 69.3752 20.3004 68.9196 21.17 68.2193C22.1436 67.4355 22.6364 67.1404 23.5693 66.7821C25.5511 66.0221 28.1385 65.8099 31.1047 66.164C32.8667 66.3745 33.3544 66.4606 35.5535 66.9496C39.5348 67.8349 40.6032 68.1287 42.1667 68.7656C43.4174 69.2757 45.0291 69.8397 46.2098 70.181C46.6928 70.3208 47.1221 70.5015 47.8987 70.8922C49.2017 71.5466 49.3856 71.7018 49.4306 72.1829C49.4486 72.3751 49.6092 73.0772 49.787 73.744C49.9691 74.4268 50.1207 75.1857 50.1336 75.4813C50.205 77.1453 50.6052 78.2662 51.5599 79.4737C52.0982 80.1545 52.956 80.8565 53.3996 80.9801L53.6618 81.053L53.3825 81.2314C52.9412 81.5138 52.6532 81.7969 52.2828 82.314C51.8652 82.897 51.6786 83.0645 50.7813 83.6637C50.398 83.9196 49.9468 84.2467 49.7792 84.3907C48.5734 85.4235 46.5436 87.2177 46.1396 87.6072C45.8716 87.8651 45.2245 88.4875 44.7012 88.9902C41.447 92.114 40.8178 92.75 40.3239 93.4127C39.8672 94.0259 39.7219 94.1664 38.7195 94.9662C36.3312 96.8707 30.872 100.442 28.6725 101.538C27.1082 102.317 25.2455 102.922 23.7733 103.129C22.1271 103.36 19.855 103.118 18.9328 102.611C18.606 102.431 18.5463 102.37 18.447 102.108C18.2184 101.506 18.3522 100.689 18.8897 99.4126C19.4058 98.1865 20.6818 95.7508 21.3798 94.6607C22.642 92.6874 23.1186 91.2399 23.0671 89.5367C23.0254 88.1717 22.5221 86.5035 21.519 84.4114C18.9115 78.9716 18.049 76.4494 18.0423 74.2477C18.0405 73.6619 18.2135 72.5306 18.3878 71.9848C18.5542 71.4639 19.1203 70.3318 19.4055 69.9512ZM51.4025 39.0425C52.1841 38.0988 52.9929 37.4875 53.6945 37.3103C53.8981 37.2588 54.7085 37.1994 55.4948 37.1772C57.8757 37.1121 58.9605 36.9397 60.7655 36.337C62.597 35.7263 62.9853 35.6872 63.7673 36.0333C64.4402 36.3312 64.805 36.8315 65.8717 38.9167C66.2304 39.6184 66.7216 40.5673 66.9632 41.026C68.6034 44.137 69.4071 47.3775 69.4958 51.2379C69.5171 52.1569 69.499 53.2557 69.4547 53.6795C69.3035 55.1421 69.4083 56.1701 69.8631 57.6751L70.1188 58.5225L69.8435 58.3442C69.6915 58.2465 68.8422 57.6314 67.9556 56.9783C66.4774 55.8898 64.5209 54.5932 61.9141 52.9739C57.6801 50.344 54.6533 48.231 53.0311 46.7737C50.9098 44.867 49.9277 43.1551 50.1205 41.698C50.2219 40.9343 50.7611 39.8174 51.4025 39.0425ZM51.659 50.0556C52.2156 49.5855 54.0466 48.7687 54.2884 48.8821C54.3625 48.9169 54.6527 49.1169 54.9332 49.3263C56.2056 50.275 59.1954 52.2458 61.5269 53.6712C64.808 55.6779 67.4163 57.4507 70.3063 59.6392L70.8724 60.0678L70.5433 59.9965C70.032 59.8853 69.1125 59.9501 68.23 60.1587C67.9339 60.2285 67.4335 60.3076 67.1179 60.3345C66.3007 60.4039 66.0328 60.4701 64.7478 60.9175C62.6692 61.641 61.5709 61.8769 59.8411 61.971C58.0572 62.0677 57.6053 61.9947 56.9674 61.5074C56.4511 61.1139 56.1195 60.7262 55.6892 60.0145C55.2138 59.2294 54.9375 58.5561 54.5276 57.1875C53.9006 55.0946 53.3597 54.0635 52.012 52.3955C51.5637 51.8413 51.1544 51.2791 51.101 51.1467C51.0123 50.9266 51.0189 50.8812 51.1846 50.6047C51.2843 50.4391 51.4978 50.1924 51.659 50.0556ZM32.3414 100.44C34.0045 99.447 37.0419 97.3392 38.3258 96.2872C38.8119 95.889 39.4689 95.3536 39.7858 95.0981C40.4947 94.5259 40.5673 94.4556 41.0629 93.8584C41.4954 93.3375 42.6443 92.1876 44.3876 90.5325C45.0003 89.9505 45.8069 89.1714 46.1805 88.8014C46.9296 88.0585 47.1086 87.8933 48.5322 86.6343C49.0699 86.1589 49.7476 85.556 50.0387 85.2943C50.3299 85.0325 50.9087 84.5809 51.3248 84.2896C52.1991 83.6782 52.4097 83.472 52.8793 82.7656C53.0907 82.4481 53.377 82.115 53.6264 81.8969L54.0311 81.5436L54.2317 81.9816C54.3424 82.2223 54.541 82.688 54.6735 83.0155C54.8061 83.3429 55.0312 83.857 55.1735 84.1574C55.3158 84.4578 55.4495 84.7828 55.471 84.8796C55.6176 85.5487 55.9227 87.9925 55.886 88.2009C55.7982 88.6954 55.0519 90.458 54.5179 91.4303C54.0634 92.2584 53.9536 92.4141 53.5127 92.8636C51.6861 94.7214 49.431 97.1528 48.8341 97.9082C48.4495 98.3944 47.8338 99.1175 47.4666 99.5148C47.0988 99.9118 46.5291 100.554 46.2009 100.942C45.8728 101.33 45.2646 102.017 44.8496 102.469C43.3871 104.063 42.4848 105.28 41.4544 107.049C40.9297 107.95 40.66 108.635 40.3792 109.778C40.0497 111.12 39.632 111.894 39.1397 112.071C38.9529 112.139 38.8739 112.122 38.4543 111.925C37.5264 111.49 36.1359 110.419 35.5505 109.688C34.9414 108.928 34.0461 106.626 33.4754 104.355C33.3282 103.77 33.1095 103.067 32.9893 102.791C32.4586 101.577 32.3343 101.34 32.0867 101.068C31.9418 100.91 31.8286 100.77 31.834 100.759C31.8403 100.747 32.068 100.603 32.3414 100.44ZM50.3577 72.0394C50.5727 71.9447 50.9801 72.0373 51.9483 72.3988C52.39 72.564 53.0885 72.8247 53.5014 72.9779C54.5234 73.358 55.3763 73.5544 56.4409 73.6539C58.4442 73.8423 59.1744 73.993 59.7406 74.3334C59.9472 74.4575 60.1895 74.6387 60.2796 74.7368C60.4242 74.8942 60.4296 74.9313 60.3251 75.0616C60.2607 75.1424 60.0483 75.3161 59.8533 75.4466C59.658 75.5777 59.3351 75.8083 59.1364 75.9591C58.9368 76.1102 58.4703 76.3853 58.0992 76.5698C57.7277 76.7549 57.3007 76.9912 57.1491 77.095C56.7358 77.3788 56.2232 77.9261 56.0719 78.2439C55.9945 78.4075 55.7351 78.7333 55.4544 79.0198C55.1888 79.2913 54.882 79.6537 54.7741 79.8258C54.5257 80.2192 54.4423 80.2808 54.105 80.3196C53.9547 80.3373 53.787 80.4063 53.7322 80.4732C53.6195 80.6114 53.5984 80.6001 53.0635 80.1082C52.6188 79.6998 52.05 78.976 51.7273 78.4095C51.1773 77.4447 50.9531 76.643 50.9061 75.4761C50.8888 75.0565 50.77 74.4834 50.5082 73.5627C50.3027 72.8403 50.1484 72.2175 50.1647 72.1796C50.1825 72.1417 50.2687 72.0785 50.3577 72.0394ZM68.4867 40.5875C69.8055 40.3646 70.5019 40.4164 71.112 40.7825C71.6613 41.1121 72.3183 41.72 72.9739 42.5051C73.2986 42.8947 73.7696 43.4477 74.0202 43.7335C74.6384 44.44 74.9772 45.0222 75.2585 45.8573C75.7126 47.207 75.7759 48.405 75.4776 49.9963C75.2705 51.1014 75.0249 51.6784 74.4301 52.4576C73.8191 53.2586 73.2399 54.2898 72.6649 55.6023C71.9089 57.3273 71.7504 58.081 71.8655 59.396L71.9084 59.8864L71.6814 59.7322C71.4874 59.6 71.4063 59.4437 71.1182 58.6465C70.3385 56.4887 70.174 55.4203 70.3585 53.7205C70.4448 52.9247 70.4066 50.3071 70.2931 49.2523C70.1666 48.0775 69.6976 45.6774 69.4076 44.7199C69.1302 43.8043 68.517 42.2874 68.034 41.3239C67.8825 41.0213 67.767 40.7578 67.7773 40.7391C67.7872 40.7195 68.1065 40.6517 68.4867 40.5875ZM65.7183 94.4047C65.8345 94.3357 66.401 94.1032 66.9769 93.8882C68.0452 93.489 68.5351 93.2441 69.8483 92.4527C71.2342 91.6176 71.9168 90.9619 72.9908 89.4338C73.3107 88.9775 73.6952 88.4649 73.8445 88.2939C74.2152 87.8689 74.9958 87.4009 75.8222 87.108C76.4397 86.8891 76.6234 86.8613 77.5713 86.8473C79.0295 86.8257 79.6691 86.914 81.0458 87.3281C82.7068 87.8278 83.5985 88.2629 87.5108 90.4796C89.6634 91.6999 91.1284 92.4619 93.1186 93.3966L94.8579 94.2137L94.1817 94.5028C92.3796 95.2736 91.3414 95.5693 89.597 95.8109C87.5465 96.0949 85.8809 96.1493 83.4829 96.0109C81.9196 95.9208 81.0363 95.9239 79.6883 96.0259C79.2263 96.0605 78.2566 96.1179 77.5323 96.1538C75.7853 96.2391 74.9846 96.3141 73.605 96.5224C71.4285 96.8509 70.3933 96.8549 68.6793 96.539C67.8486 96.3861 67.6775 96.3323 66.9126 95.981C65.2166 95.2018 64.9555 94.8567 65.7183 94.4047ZM69.5124 97.943C69.8822 97.6359 70.0417 97.5953 70.7392 97.6307C71.5074 97.669 71.9104 97.6361 73.621 97.3963C75.1137 97.1866 75.8009 97.1326 79.3297 96.9474C81.5003 96.8337 82.0704 96.8336 83.8508 96.9513C85.875 97.0841 87.6486 97.0047 89.8756 96.6815C91.6948 96.417 92.6168 96.1446 94.7633 95.2341L95.0102 95.1294L94.8235 95.446C94.7204 95.6203 94.4396 96.1 94.1996 96.5129C93.453 97.7962 92.7184 98.806 91.9481 99.6094C91.5599 100.014 91.0558 100.554 90.8267 100.81C90.0039 101.734 87.4193 103.859 86.1798 104.633C85.1822 105.255 84.9562 105.434 83.5325 106.728C81.4545 108.617 80.2482 109.444 78.8243 109.957C78.1048 110.216 77.817 110.281 77.3413 110.29L76.751 110.302L75.9955 109.945C74.1626 109.078 72.975 107.613 71.5452 104.451C71.0866 103.438 70.6945 102.767 69.8852 101.608C69.3276 100.81 68.8793 99.7793 68.8681 99.2714C68.8589 98.8284 69.1376 98.2544 69.5124 97.943ZM87.0343 65.634C87.2942 65.2915 87.7635 64.7018 88.0772 64.3228C89.2278 62.9342 91.1822 61.5125 91.9902 61.477C92.2321 61.4662 92.2387 61.4708 92.5791 61.8883C93.2493 62.7082 94.2362 63.7904 95.4316 65.0145C96.4677 66.0765 98.7678 68.5615 100.377 70.3573C101.001 71.0551 102.115 72.5185 102.066 72.5795C102.046 72.6065 101.89 72.5871 101.721 72.5357C101.235 72.3894 100.632 72.3597 99.6943 72.4357C98.657 72.5194 97.8526 72.4861 96.3873 72.2972C94.9873 72.1161 94.0665 71.8966 92.5337 71.3777C91.3537 70.9787 91.2052 70.9127 89.368 69.9733C87.8471 69.1955 87.3192 68.8987 86.8687 68.5655C86.5546 68.3336 86.2614 68.0947 86.2164 68.0354C86.127 67.9156 86.092 67.4083 86.1507 67.0934C86.2021 66.8207 86.4676 66.3816 87.0343 65.634ZM93.1589 54.6923C93.6197 54.0186 95.447 51.7466 96.2483 50.8504C96.7382 50.3027 97.156 50.0328 97.6723 49.931C98.2816 49.8111 98.7365 49.865 99.301 50.1245C100.627 50.734 101.67 52.0131 102.367 53.8836C102.691 54.7534 102.839 55.3498 103.125 56.9308C103.58 59.4432 103.656 61.1124 103.416 63.2866C103.275 64.5594 103.205 66.2376 103.207 68.2397C103.208 68.7552 103.175 69.5232 103.134 69.9457C103.094 70.3685 103.08 71.1136 103.105 71.6012L103.148 72.488L102.977 72.2333C102.396 71.3693 101.574 70.3229 100.839 69.507C98.6625 67.0954 97.0711 65.3718 95.9123 64.173C93.2846 61.4535 91.9498 59.7393 91.7995 58.8929C91.6985 58.3194 91.7989 57.4215 92.0484 56.6699C92.1764 56.284 92.6656 55.4133 93.1589 54.6923ZM82.2886 85.2127C82.4557 85.0508 83.1517 84.7445 83.3978 84.7247C83.7045 84.6995 86.4129 85.9453 87.9122 86.8005C88.9891 87.415 90.9144 88.6698 91.4046 89.0767C91.5202 89.1736 91.8789 89.574 92.2004 89.9673C92.5217 90.3597 92.9499 90.858 93.152 91.0748C93.3537 91.2907 93.6966 91.7248 93.9131 92.0394C94.129 92.3538 94.4415 92.7663 94.606 92.9566C94.7708 93.1463 94.891 93.307 94.8733 93.3134C94.7848 93.3454 90.0209 90.8903 88.3473 89.9504C85.4006 88.2952 83.9259 87.5192 82.9394 87.1043L82.0374 86.7254L82.0084 86.4392C81.9525 85.8965 82.0581 85.436 82.2886 85.2127ZM103.917 54.1836C104.116 54.1525 104.485 54.1374 104.738 54.1495C107.074 54.2651 106.772 54.2077 107.939 54.7574C109.061 55.2856 109.374 55.5071 109.948 56.1789C110.559 56.8946 110.633 57.2511 110.402 58.3692C110.036 60.1385 108.803 62.0623 106.433 64.559C105.517 65.5254 105.043 66.1664 104.541 67.121L104.108 67.9465L104.13 67.369C104.142 67.0514 104.163 66.3174 104.175 65.7388C104.187 65.1595 104.262 64.0866 104.341 63.3553C104.497 61.917 104.504 60.3049 104.358 58.989C104.251 58.0126 103.877 55.94 103.641 55.015C103.547 54.6479 103.49 54.3234 103.514 54.2942C103.538 54.2645 103.719 54.215 103.917 54.1836ZM81.925 109.091C82.3202 108.811 83.2873 108.01 84.0745 107.31C85.1584 106.345 85.6938 105.919 86.2795 105.551C87.6335 104.703 87.992 104.443 89.3891 103.296C90.6633 102.249 91.8872 101.064 93.1949 99.6107C93.5928 99.1683 94.5992 97.7106 94.8013 97.2844C94.8897 97.0973 95.0791 96.7673 95.2222 96.5515C95.5646 96.0345 95.8223 95.4867 95.8394 95.2383L95.8531 95.0382L96.0854 95.3536C96.3258 95.6802 96.7803 96.7905 96.7947 97.0861C96.7997 97.1788 96.7595 97.7052 96.706 98.2569C96.6109 99.2344 96.6014 99.2719 96.3362 99.7559C96.1859 100.029 95.7602 100.689 95.3896 101.223C94.6309 102.315 94.0154 102.953 92.8768 103.829C92.4232 104.178 92.1095 104.478 91.8483 104.816C91.4697 105.305 90.9258 105.897 90.0082 106.819C89.644 107.184 89.307 107.621 88.7568 108.436C87.8231 109.822 86.9294 111.032 86.5228 111.461C86.1118 111.894 85.6628 112.07 84.8866 112.104C84.0423 112.14 83.7326 111.991 82.6193 111.012C82.173 110.62 81.6082 110.181 81.3642 110.038C80.9278 109.781 80.9226 109.775 81.0636 109.687C81.1422 109.639 81.53 109.37 81.925 109.091ZM92.4901 111.201C92.797 111.078 94.1016 110.638 95.3889 110.221C96.6762 109.805 97.896 109.392 98.0995 109.303C98.734 109.026 101.754 107.826 103.206 107.274C105.011 106.588 105.697 106.247 107.737 105.02C110.612 103.29 111.265 102.951 114.708 101.39C117.003 100.35 120.112 99.1724 121.473 98.8248C122.575 98.5442 126.184 97.8482 127.141 97.7307C128.06 97.6186 129.98 97.5355 130.925 97.5672C131.979 97.6017 135.149 98.144 136.576 98.533C137.856 98.8823 138.584 99.1113 138.562 99.1595C138.555 99.1733 138.386 99.1635 138.186 99.1381C137.485 99.0475 131.062 99.2694 130.093 99.417C129.1 99.569 128.322 99.7943 126.689 100.405C125.501 100.848 124.789 101.173 123.402 101.903C121.191 103.067 121.117 103.1 118.04 104.204C115.469 105.126 113.605 105.865 111.319 106.866C110.535 107.21 109.42 107.617 108.395 107.932C107.485 108.213 106.346 108.612 105.865 108.819C104.75 109.299 102.848 109.95 101.977 110.148C101.606 110.233 100.829 110.365 100.25 110.442C99.6709 110.519 98.771 110.663 98.2502 110.762C97.7297 110.86 96.7582 111.012 96.0915 111.099C95.4248 111.186 94.5249 111.319 94.0919 111.394C93.2353 111.542 92.3549 111.671 91.7152 111.743L91.3078 111.788L91.62 111.606C91.7917 111.506 92.1832 111.324 92.4901 111.201ZM91.8699 112.469C91.9455 112.478 92.9253 112.349 94.048 112.181C95.1704 112.013 96.422 111.832 96.8291 111.782C97.2358 111.73 97.967 111.613 98.4537 111.523C98.9398 111.432 99.8203 111.295 100.41 111.218C100.999 111.142 101.751 111.022 102.081 110.952C102.967 110.764 104.619 110.217 106.058 109.635C106.756 109.352 107.991 108.922 108.802 108.68C109.81 108.379 110.833 108.002 112.039 107.487C114.576 106.404 115.509 106.041 118.554 104.957C121.343 103.964 121.846 103.744 124.11 102.529C125.206 101.94 125.742 101.708 127.335 101.132C129.419 100.379 130.209 100.206 131.719 100.169C132.588 100.148 135.346 100.025 136.234 99.9686C137.001 99.9186 136.904 99.9493 135.113 100.32C131.505 101.066 130.115 101.528 124.221 103.94C122.65 104.584 119.988 105.633 116.565 106.959C115.831 107.244 113.462 108.169 111.302 109.015C104.702 111.6 104.621 111.627 101.918 112.146C101.165 112.291 100.03 112.521 99.3969 112.657C97.9222 112.976 96.7101 113.144 95.7762 113.159C94.5327 113.18 92.9974 112.969 91.9237 112.631C91.6715 112.551 91.6338 112.437 91.8699 112.469ZM119.169 54.2962C119.273 54.3142 119.335 54.3733 119.364 54.4831C119.464 54.8675 120.907 57.2578 121.409 57.8713C123.008 59.8287 123.654 60.5759 124.245 61.1551C124.619 61.5215 125.311 62.2446 125.784 62.7609C126.256 63.2779 127.055 64.1132 127.561 64.6183C128.065 65.1232 128.893 65.9566 129.4 66.4715C129.907 66.9855 130.684 67.7634 131.127 68.1992C131.57 68.6353 132.651 69.7528 133.53 70.6829C134.408 71.6128 135.492 72.7596 135.938 73.2313C136.384 73.7028 137.181 74.5793 137.709 75.1794C138.237 75.7789 138.986 76.6152 139.375 77.0384C140.392 78.146 140.925 78.8294 141.72 80.0465C142.107 80.6388 142.8 81.695 143.262 82.3934C143.973 83.473 145.022 85.2271 144.992 85.2897C144.987 85.3005 144.777 85.0608 144.525 84.7581C143.361 83.3599 141.795 81.5964 139.845 79.4849C136.575 75.9446 135.67 75.0365 132.399 72.0216C128.183 68.1345 124.944 64.8824 123.092 62.6733C121.919 61.2762 120.557 59.2838 119.852 57.9361C118.977 56.2635 118.588 54.1942 119.169 54.2962ZM121.446 55.7873C121.731 56.0228 122.739 56.9631 123.686 57.8767C126.332 60.429 128.266 62.0798 130.173 63.4125C130.614 63.721 131.82 64.5031 132.851 65.1499C136.826 67.6422 138.533 68.926 140.533 70.9279C141.854 72.2489 144.083 75.1283 145.169 76.9154C145.607 77.6368 146.455 79.6048 147.196 81.6186C147.742 83.1065 147.993 84.3383 148.029 85.7135C148.04 86.1428 148.071 86.7525 148.097 87.0683C148.124 87.3835 148.128 88.0796 148.106 88.6157C148.048 90.0647 148.069 89.982 147.87 89.5458C147.774 89.3386 147.575 88.8259 147.429 88.4066C147.158 87.639 146.211 85.5616 145.634 84.4707C145.183 83.6201 144.833 83.0534 143.627 81.2217C141.675 78.2577 141.386 77.8701 139.972 76.3121C139.572 75.8716 138.758 74.9613 138.163 74.2894C137.568 73.6171 136.647 72.6178 136.116 72.0678C135.585 71.5181 134.589 70.472 133.903 69.744C133.216 69.0157 132.154 67.9275 131.543 67.325C129.334 65.15 127.76 63.5567 126.801 62.5252C126.264 61.9468 125.425 61.0779 124.938 60.5946C123.815 59.4797 121.89 57.1328 121.256 56.1069C120.996 55.6859 120.816 55.3448 120.856 55.3495C120.895 55.3541 121.161 55.5515 121.446 55.7873ZM140.874 46.4348C140.981 46.5723 141.368 47.1405 141.735 47.6967C143.875 50.9474 144.4 51.8438 145.125 53.4832C145.331 53.9493 145.701 54.7795 145.947 55.3286C146.193 55.8767 146.568 56.734 146.782 57.2332C146.996 57.7316 147.477 58.7118 147.851 59.4112C148.225 60.1101 148.726 61.1598 148.964 61.7429C149.201 62.3261 149.556 63.1318 149.753 63.5332C150.35 64.7564 150.959 66.2725 152.344 69.9915C153.611 73.3919 154.433 75.8921 154.773 77.3768C154.923 78.0316 154.977 78.8682 154.873 78.9059C154.761 78.9468 154.111 78.1473 153.397 77.091C152.591 75.9007 151.878 74.6631 150.634 72.3022C149.17 69.5234 148.654 68.2149 148.081 65.8173C147.553 63.6098 147.445 63.238 146.683 60.9878C145.526 57.5739 143.962 53.7231 142.278 50.1455C141.422 48.3274 140.604 46.3441 140.66 46.2249C140.67 46.2026 140.766 46.2969 140.874 46.4348ZM142.907 47.9358C143.699 48.7868 145.068 50.5993 146.153 52.2325C146.849 53.2811 148.285 55.6754 148.655 56.4044C150.178 59.4053 150.702 60.591 151.579 63.0155C152.072 64.38 152.69 66.2045 152.951 67.0691C153.211 67.9333 153.504 68.9027 153.602 69.2226C153.699 69.5423 153.874 70.1916 153.991 70.6644C154.107 71.1372 154.307 71.9151 154.435 72.3924C154.655 73.2103 154.857 74.3221 154.862 74.7358L154.864 74.9206L154.804 74.7089C154.46 73.4774 153.982 72.0771 153.484 70.833C153.153 70.0053 152.727 68.8562 152.537 68.2792C152.135 67.0533 151.177 64.7135 150.503 63.3083C150.243 62.7659 149.865 61.9135 149.663 61.4133C149.461 60.9138 149.077 60.0988 148.809 59.6021C148.034 58.1657 147.51 57.0538 146.019 53.6774C145.16 51.7347 144.4 50.3994 142.887 48.1792C142.63 47.8012 142.432 47.4879 142.447 47.4819C142.463 47.4762 142.67 47.6803 142.907 47.9358Z" fill="#5D7C78"/>
<path fill-rule="evenodd" clip-rule="evenodd" d="M13.2342 67.091C12.9913 68.3946 12.9551 68.7854 12.9541 70.1348C12.9541 70.8013 12.9006 71.8674 12.8359 72.5042C12.6743 74.0987 12.6459 76.4522 12.771 77.8541C13.0725 81.2213 13.0781 83.1462 12.7932 84.9158C12.6094 86.0575 12.2547 89.5365 12.2692 90.0577C12.3088 91.507 13.1072 93.5479 14.0645 94.6479C14.6926 95.3693 15.0471 95.6171 16.2836 96.1999C16.913 96.4966 17.7856 96.8771 18.222 97.0457L19.0161 97.352L18.4037 98.6579C17.7345 100.085 17.5717 100.6 17.5223 101.444C17.486 102.065 17.7125 102.713 18.0928 103.074C18.7356 103.684 20.5435 104.105 22.4573 104.092C25.0325 104.074 27.593 103.261 30.5768 101.514C31.0008 101.265 31.3638 101.054 31.3835 101.045C31.5748 100.952 32.3714 103.016 32.6151 104.235C32.8187 105.255 33.2026 106.541 33.697 107.863C34.2225 109.267 34.4631 109.745 34.9046 110.262C35.8885 111.414 38.1721 112.902 38.9705 112.912C39.9313 112.924 40.6876 111.923 41.1071 110.084C41.4283 108.676 41.8869 107.717 43.1299 105.852C43.6789 105.028 44.6544 103.832 45.6161 102.804C45.9747 102.42 46.5385 101.787 46.8689 101.396C47.2 101.006 47.7587 100.376 48.1115 99.995C48.4642 99.6144 49.0632 98.9033 49.4424 98.4147C50.1356 97.5214 52.609 94.8345 53.8546 93.6213C54.2446 93.2413 54.6355 92.7949 54.7954 92.548C55.571 91.3473 56.5868 89.0667 56.7104 88.2495C56.7415 88.0421 56.692 87.4105 56.5909 86.726C56.4959 86.0833 56.3926 85.361 56.362 85.1218C56.3309 84.8824 56.1804 84.3988 56.0272 84.0463C55.8741 83.6938 55.6428 83.1364 55.5132 82.8074C55.273 82.1966 54.8487 81.4046 54.7319 81.3476C54.5332 81.2508 54.5577 81.1388 54.8092 80.99C55.0477 80.8484 55.407 80.4444 55.5333 80.1752C55.5644 80.1089 55.8127 79.8271 56.0847 79.5483C56.3572 79.2697 56.6335 78.9268 56.699 78.7871C56.8329 78.5016 57.2142 78.0506 57.5268 77.8092C57.6401 77.7213 58.0359 77.4873 58.4061 77.2891C59.3037 76.8084 60.7234 75.7099 60.8901 75.367L61.0126 75.1151L62.1906 74.976C63.6622 74.802 63.3689 74.8033 65.3782 74.963C68.5905 75.2172 70.4998 75.6092 73.6218 76.6551C78.6904 78.3538 81.4215 79.3317 83.288 80.1159C86.9573 81.6572 91.5282 83.4385 93.548 84.1137C95.7307 84.8433 99.5779 85.8671 101.492 86.2277C103.176 86.5449 107.781 87.231 110.238 87.5314C111.51 87.6862 112.568 87.8216 112.59 87.8317C112.611 87.8419 112.205 87.9139 111.688 87.9923C110.719 88.1383 108.82 88.6507 107.372 89.157C106.919 89.3156 106.03 89.6975 105.396 90.0065C104.7 90.3461 103.521 90.8258 102.418 91.2181C101.413 91.5761 100.039 92.105 99.3626 92.3941C98.6865 92.6833 97.6535 93.1012 97.0665 93.3227L96.0001 93.7257L95.9462 93.516C95.9171 93.4009 95.6653 93.036 95.3874 92.705C95.1094 92.3741 94.7325 91.8792 94.5495 91.6045C94.3671 91.3301 94.0461 90.9136 93.8367 90.678C93.627 90.443 93.2009 89.9338 92.8896 89.5468C92.1037 88.5691 92.0145 88.4913 90.798 87.7136C89.3047 86.7591 87.8462 85.9862 85.658 84.9909C83.4568 83.9889 83.4481 83.987 82.6858 84.3438C82.1072 84.6147 81.9053 84.7897 81.7245 85.1752C81.5558 85.5348 81.5165 85.8382 81.5826 86.2822C81.6165 86.5112 81.6055 86.6162 81.5484 86.6078C81.5011 86.6003 81.1438 86.4997 80.7531 86.384C80.3618 86.2681 79.7688 86.1415 79.4352 86.1018C78.5766 86.0005 77.1558 85.9941 76.5226 86.0881C75.4963 86.241 74.0735 86.9243 73.4142 87.5822C73.2411 87.7552 72.8311 88.286 72.5028 88.7618C71.2808 90.5365 70.8506 90.952 69.1748 91.9694C68.1365 92.5994 67.7503 92.7894 66.6781 93.1955C65.2811 93.7249 64.8738 93.9771 64.6526 94.4487C64.2623 95.2812 64.7552 95.8562 66.6018 96.7222C67.4875 97.1375 67.6768 97.2042 68.3314 97.3311C68.7352 97.4095 69.0701 97.4857 69.0755 97.5008C69.081 97.5158 68.9675 97.6699 68.8231 97.8431C68.4456 98.2951 68.2372 98.8698 68.2644 99.3858C68.2956 99.9795 68.7328 101.102 69.2052 101.804C70.0816 103.106 70.4189 103.695 70.8617 104.698C72.3005 107.957 73.5371 109.507 75.5328 110.555C76.1507 110.88 76.314 110.941 76.7217 111C77.7165 111.143 79.1053 110.802 80.367 110.105L80.5655 109.995L81.0251 110.348C81.2776 110.542 81.8719 111.075 82.3452 111.532C83.101 112.262 83.2618 112.39 83.6711 112.582C84.1055 112.786 84.1845 112.8 84.8414 112.785C85.6507 112.767 86.3091 112.574 86.6919 112.241C87.0086 111.965 88.0059 110.652 89.1735 108.972C89.99 107.798 90.1428 107.612 90.8041 106.988C91.2054 106.609 91.797 105.979 92.1179 105.59C92.5862 105.022 92.8482 104.771 93.4364 104.328C94.2043 103.749 94.9564 103.061 95.3794 102.551C95.5166 102.385 95.9547 101.776 96.3539 101.196C97.3007 99.818 97.3915 99.5866 97.4975 98.2864C97.5411 97.7447 97.5729 97.1924 97.5674 97.0582C97.5433 96.4745 96.8008 94.7566 96.5144 94.6223C96.4698 94.6014 96.4415 94.5676 96.4514 94.5465C96.4613 94.5254 96.8822 94.351 97.3874 94.158C97.8918 93.9654 99.1232 93.4583 100.123 93.0304C101.122 92.6029 102.331 92.1284 102.809 91.9764C103.768 91.6701 104.733 91.2562 105.868 90.6633C106.936 90.1052 107.522 89.8781 109.226 89.364C111.517 88.6722 112.022 88.5826 114.654 88.4029C115.787 88.3254 116.431 88.4023 118.658 88.8808C121.806 89.5578 122.918 89.8681 127.219 91.2753C128.798 91.7912 130.599 92.3714 131.222 92.5637C135.311 93.827 140.83 96.3551 146.879 99.7332C147.431 100.042 147.876 100.314 147.865 100.337C147.854 100.359 147.721 100.342 147.57 100.298C147.037 100.142 144.812 99.7149 144.185 99.6462C143.836 99.6084 142.923 99.5775 142.156 99.5781C140.832 99.5782 140.754 99.57 140.614 99.4151C140.511 99.2995 140.105 99.0822 139.231 98.6737C138.174 98.1796 137.832 98.0491 136.875 97.7749C135.315 97.3281 132.345 96.805 131.017 96.7436C130.086 96.7 127.74 96.7859 126.864 96.8952C126.022 97 123.534 97.4693 121.962 97.8197C120.115 98.232 117.524 99.2024 114.261 100.705C110.97 102.22 110.095 102.683 107.122 104.483C105.248 105.618 104.636 105.925 103.035 106.534C102.368 106.788 101.315 107.203 100.693 107.457C98.1127 108.513 96.9234 108.952 94.9546 109.579C92.3232 110.417 91.46 110.749 90.8645 111.153C90.4461 111.437 90.3675 111.52 90.2223 111.829C90.0766 112.14 90.0682 112.208 90.156 112.403C90.3116 112.749 90.6196 112.971 91.3795 113.282C92.2301 113.631 92.8636 113.783 94.057 113.924C95.8757 114.139 96.998 114.048 99.9059 113.449C100.936 113.237 102.346 112.947 103.04 112.804C103.733 112.661 104.602 112.46 104.971 112.355C105.339 112.251 107.843 111.297 110.536 110.236C113.228 109.176 116.032 108.074 116.766 107.79C119.57 106.702 122.323 105.604 124.209 104.822C130.426 102.243 131.632 101.842 135.544 101.046C138.407 100.464 139.134 100.384 141.943 100.341C144.18 100.306 144.713 100.358 147.674 100.9C148.363 101.025 149.055 101.149 149.212 101.173C149.448 101.21 149.866 101.431 151.717 102.496C152.939 103.198 154.332 103.99 154.814 104.257C155.296 104.523 155.955 104.919 156.277 105.137C157.325 105.843 162.962 108.397 164.408 108.82C164.933 108.974 165.421 109.051 165.479 108.991C165.505 108.964 165.004 108.712 164.278 108.385C161.751 107.251 156.561 104.465 155.782 103.824C154.506 102.774 153.292 101.276 152.31 99.5421L151.97 98.9404L151.959 98.0411C151.937 96.1597 152.132 95.3107 153.028 93.3852C154.209 90.8447 154.611 89.6732 155.036 87.5304C155.436 85.5121 155.575 84.1028 155.716 80.6484C155.915 75.7824 155.83 74.156 155.265 72.0601C155.134 71.574 154.911 70.7086 154.767 70.1364C154.624 69.5637 154.341 68.5884 154.139 67.968C153.937 67.3479 153.659 66.457 153.521 65.9883C153.162 64.7622 151.381 60.0782 150.973 59.2831C150.783 58.9125 150.331 58.0048 149.97 57.2672C148.806 54.8956 147.252 52.3957 145.257 49.6932C143.776 47.6856 142.384 46.1951 141.291 45.448C140.664 45.0189 140.117 45.0822 139.941 45.6036C139.717 46.2643 140.235 47.7348 141.934 51.2715C143.243 53.999 144.13 56.1366 145.352 59.5105C146.475 62.6141 146.709 63.3727 147.276 65.7552C147.745 67.7239 148.167 68.9708 148.878 70.4993C149.356 71.5257 150.924 74.4942 151.546 75.5492C151.914 76.1747 153.146 77.981 153.594 78.5524C153.841 78.8684 154.613 79.6166 154.765 79.6879C154.899 79.7506 154.901 79.8089 154.821 81.66C154.726 83.8765 154.661 84.6836 154.48 85.9243C154.03 89.0015 153.61 90.4351 152.4 93.0173C151.614 94.6964 151.372 95.5606 151.327 96.8664C151.318 97.1354 151.295 97.3613 151.277 97.3674C151.258 97.3741 150.883 96.4333 150.443 95.2761C150.003 94.119 149.535 92.9289 149.404 92.6309C149.242 92.2625 149.126 91.8121 149.042 91.2221C148.914 90.3296 148.908 90.1377 148.95 88.5343C148.964 88.0154 148.955 87.4161 148.93 87.2024C148.905 86.9887 148.864 86.3762 148.837 85.842C148.732 83.7487 148.363 82.4174 146.943 79.0128C146.083 76.951 145.927 76.6566 144.838 75.0334C142.449 71.4742 139.657 68.6492 136.11 66.2002C135.651 65.8839 134.459 65.1088 133.461 64.4782C129.515 61.987 127.704 60.5516 124.263 57.189C122.517 55.4827 122.138 55.1405 121.206 54.4299C120.29 53.7317 119.595 53.3953 119.092 53.4087C118.603 53.4208 118.365 53.5583 118.191 53.9281C117.898 54.5546 117.988 55.5466 118.46 56.8646C118.94 58.2076 119.677 59.4812 121.193 61.5862C122.917 63.9811 125.981 67.1878 131.885 72.7788C135.159 75.8794 136.038 76.7738 139.107 80.1217C144.457 85.9593 145.751 87.6591 147.785 91.5227C148.56 92.9939 148.78 93.4918 149.545 95.4996C150.78 98.7386 151.467 100.091 152.758 101.82L153.277 102.515L152.871 102.284C146.556 98.6911 144.736 97.7063 141.434 96.093C137.907 94.3701 133.984 92.7121 131.644 91.9549C131.24 91.8241 129.753 91.3252 128.34 90.8462C123.149 89.086 121.565 88.6339 118.099 87.9227C117.357 87.7703 116.985 87.667 116.955 87.6046C116.927 87.5428 116.878 87.5238 116.812 87.5477C116.66 87.6027 114.428 86.6011 113.604 86.1083C112.771 85.6096 111.559 84.7764 110.703 84.1145C108.709 82.5718 108.14 81.7744 105.886 77.3659C105.554 76.7157 105.053 75.7717 104.774 75.2681C104.495 74.7646 104.263 74.3149 104.259 74.2697C104.255 74.2237 104.228 73.9767 104.199 73.7205C103.891 70.9935 103.92 70.7204 104.719 68.7475C105.419 67.0224 105.801 66.4265 107.087 65.0604C108.77 63.2737 110.141 61.4382 110.714 60.2065C110.948 59.7041 111.295 58.3911 111.356 57.7761C111.46 56.7353 111.045 55.935 109.922 55.0103C108.777 54.0669 107.357 53.5121 106.064 53.5025C105.681 53.4998 105.291 53.4851 105.196 53.4711C104.819 53.4126 103.978 53.4391 103.606 53.521L103.212 53.6073L102.982 53.0471C102.298 51.3748 101.291 50.1826 99.9474 49.4518C99.0036 48.9379 98.0816 48.8385 97.1 49.1438C96.3787 49.3677 95.9147 49.7865 94.5162 51.4718C92.5137 53.885 91.8842 54.7978 91.35 56.0625C90.6442 57.7338 90.6646 59.1785 91.4096 60.3171L91.6575 60.6949L91.1429 60.9033C90.4436 61.1867 89.8793 61.5496 88.8386 62.3872C88.0596 63.0132 87.8599 63.2149 87.1103 64.1295C85.5855 65.99 85.2793 66.5114 85.2166 67.3601C85.1834 67.8074 85.3174 68.3795 85.5164 68.6389C85.8118 69.0236 86.6287 69.5698 87.8892 70.2255C88.5719 70.581 89.5017 71.0684 89.9557 71.3078C90.616 71.6563 91.0217 71.8246 91.9881 72.1492C94.0846 72.8538 94.6002 72.9699 96.6617 73.2033C98.143 73.371 98.6666 73.3866 99.8918 73.2991C100.997 73.2198 101.395 73.2951 102.247 73.7446C102.615 73.9381 102.996 74.1713 103.095 74.262C103.298 74.4484 103.959 75.6081 104.874 77.3863C107.145 81.7994 107.629 82.5655 108.913 83.7836C109.873 84.6938 111.735 86.0068 113.057 86.7054C113.488 86.9331 113.81 87.1284 113.773 87.1389C113.736 87.1493 113.399 87.1056 113.025 87.041C112.651 86.9765 111.641 86.8358 110.782 86.7282C107.714 86.345 103.666 85.7463 101.738 85.3905C99.3831 84.9557 95.2981 83.8226 92.7567 82.8998C90.0632 81.9219 89.7545 81.7866 88.8769 81.2053C88.4315 80.9098 87.4272 80.2676 86.6457 79.7777C85.8643 79.2878 85.0779 78.7721 84.898 78.6319C83.405 77.4652 81.8055 75.4137 80.7217 73.2772C80.5323 72.9047 79.9262 71.5484 79.3746 70.2639C77.4615 65.8088 77.0687 65.053 75.9413 63.6572C75.046 62.5489 74.4876 61.9879 73.4623 61.1662C72.9263 60.7363 72.5373 60.3834 72.5556 60.3442C72.5734 60.3063 72.5792 59.8453 72.5688 59.3202C72.5584 58.795 72.582 58.2146 72.6211 58.0309C72.7841 57.2615 73.1026 56.3564 73.5309 55.4447C74.0551 54.3282 74.4639 53.6308 75.0461 52.8596C75.7075 51.9824 75.9824 51.3287 76.2228 50.057C76.5891 48.1184 76.5021 46.993 75.8548 45.2868C75.4816 44.3042 75.2687 43.9787 74.1886 42.7455C72.9303 41.3089 72.8238 41.1973 72.2763 40.7289C71.531 40.0928 70.7656 39.7427 70.0238 39.6998C69.7258 39.6828 69.1093 39.7273 68.6533 39.7993C67.6611 39.9549 67.3526 39.9697 67.2823 39.8655C67.2535 39.8219 66.9566 39.2741 66.6235 38.6483C65.8236 37.1468 65.5684 36.7265 65.1374 36.2011C64.7845 35.7711 64.7636 35.7562 64.051 35.422C63.3324 35.085 63.3186 35.0815 62.7701 35.0954C62.3956 35.105 61.9236 35.1989 61.3139 35.3854C59.5095 35.9384 59.1174 36.0374 58.2023 36.1726C57.6902 36.2484 56.5383 36.3321 55.6434 36.3585C53.4384 36.423 52.9657 36.5372 52.102 37.2153C51.1638 37.9518 50.5129 38.7752 49.9699 39.9145C49.4924 40.9155 49.3868 41.3304 49.392 42.1786C49.3999 43.2691 50.0019 44.6389 51.0029 45.8417C51.61 46.5717 52.3254 47.2826 53.0735 47.9017L53.7237 48.4395L53.362 48.5616C52.5624 48.8318 51.595 49.2966 51.2654 49.5697C50.7861 49.9659 50.4505 50.4434 50.3968 50.804C50.3297 51.2546 50.5181 51.6244 51.3507 52.6798C52.7178 54.4128 53.216 55.3893 53.8494 57.5719C54.7376 60.6337 56.2728 62.5668 57.9888 62.7844C58.5111 62.85 60.2618 62.7958 61.2305 62.6828C62.2454 62.565 63.372 62.2784 64.8015 61.7753C66.2355 61.2705 66.487 61.2048 67.2846 61.124C67.6167 61.0901 68.1027 61.0072 68.3649 60.9391C69.0779 60.7532 69.957 60.6695 70.4191 60.7428C70.6996 60.7877 70.9199 60.7727 71.1163 60.6958C71.274 60.6338 71.458 60.6084 71.5249 60.6398C71.789 60.7636 73.8928 62.5114 74.31 62.9532C74.5533 63.2106 75.0253 63.7567 75.3589 64.1667C76.4907 65.5564 76.8495 66.2449 78.8913 70.9448C79.8152 73.0725 80.2983 74.0515 80.9365 75.0915C82.2594 77.2483 83.7081 78.7808 85.4262 79.8392C86.2374 80.3394 86.4445 80.4953 86.0521 80.3113C84.5172 79.5915 81.3429 78.3528 79.0374 77.573C73.2435 75.6143 71.8248 75.1879 69.6581 74.7552C67.9266 74.4092 64.6417 74.0525 63.5156 74.0888C63.088 74.1021 61.8109 74.2675 61.2886 74.376C60.8979 74.458 60.8504 74.4526 60.6949 74.3091C60.6018 74.2236 60.3248 74.0239 60.0778 73.8655C59.3168 73.3756 58.6645 73.2343 56.0506 72.9947C55.0879 72.907 54.7471 72.8118 53.3253 72.2384C52.7174 71.993 52.064 71.7366 51.8728 71.669L51.526 71.546L51.5779 70.9994C51.6424 70.3191 51.5679 69.8366 51.3312 69.3972C51.2305 69.2104 50.9668 68.7031 50.7449 68.2699C49.8199 66.4613 49.2849 65.7357 47.6026 64.0114C46.9099 63.3008 46.0029 62.3413 45.5879 61.8792C45.1729 61.4171 44.5646 60.7835 44.2368 60.4711C43.1269 59.4142 42.8143 59.2088 39.779 57.5452C38.0377 56.5912 37.5062 56.2722 36.1642 55.3732C33.9883 53.9156 32.5361 53.2045 31.0778 52.8814C30.0666 52.6571 29.0378 52.5501 28.2525 52.5875C26.7902 52.6571 24.4097 53.3375 23.6835 53.8934C23.0203 54.401 22.8233 54.6518 22.4384 55.4772C22.1219 56.1554 22.0702 56.3237 21.9235 57.1602C21.7209 58.3137 21.6584 59.294 21.7116 60.4807C21.7494 61.3346 21.7427 61.3991 21.611 61.4056C21.5333 61.4097 21.0554 61.3891 20.5495 61.3591C20.0436 61.3291 19.5424 61.3079 19.4347 61.3117C18.9985 61.3276 17.8173 61.5849 17.4287 61.7488C15.3823 62.6137 14.9788 62.991 14.0189 64.9393L13.4016 66.193L13.2342 67.091ZM15.4161 63.9405C15.7967 63.4473 16.2846 63.0985 17.1559 62.6974C18.3252 62.1596 19.1651 61.9965 20.375 62.0716C20.886 62.1032 21.4123 62.1178 21.5454 62.1038C21.6784 62.0898 21.8004 62.0838 21.8167 62.0914C21.833 62.0991 21.8756 62.3094 21.9117 62.5585C21.9475 62.8083 22.0706 63.5354 22.1846 64.1752C22.4115 65.4433 22.4421 65.817 22.3486 66.1781C22.2949 66.3851 22.2342 66.447 21.8698 66.6626C20.8242 67.2834 19.3144 68.588 18.7186 69.3866C17.7775 70.6485 17.1637 72.3903 17.0931 74.0024C17.0632 74.6872 17.2714 76.1692 17.5439 77.2097C17.9868 78.9016 18.9956 81.2985 20.7562 84.8429C22.115 87.5772 22.5267 89.2884 22.2356 90.9867C22.156 91.4498 22.0702 91.6829 21.6346 92.6117C21.288 93.3508 21.0044 93.8725 20.7424 94.2508C20.531 94.5558 20.0959 95.2813 19.7754 95.8629L19.1927 96.9204L17.9636 96.394C15.5375 95.3555 14.7052 94.7213 13.889 93.2892C13.2682 92.2008 12.9141 90.9862 12.9067 89.9261C12.9021 89.2523 13.1395 86.9079 13.3864 85.18C13.4921 84.4418 13.5936 83.4144 13.6123 82.8978C13.6523 81.7805 13.5721 79.4393 13.4359 77.7566C13.3171 76.2864 13.3573 74.1964 13.5366 72.5014C13.61 71.8084 13.6769 70.7155 13.6855 70.0729C13.7023 68.7934 13.7399 68.3885 13.9511 67.2215C14.0889 66.4602 14.1045 66.4175 14.6393 65.3398C14.9405 64.7337 15.2895 64.1038 15.4161 63.9405ZM23.6556 54.9972C24.2637 54.3293 24.9937 54.0133 26.8161 53.629C29.1398 53.1388 31.3325 53.527 33.6228 54.8347C34.0695 55.0897 34.687 55.4667 34.9946 55.6734C37.2841 57.2085 38.2562 57.7908 40.8897 59.2057C42.5915 60.1199 43.4039 60.7713 44.8526 62.3838C45.294 62.8759 46.2517 63.8872 46.9808 64.6317C48.4477 66.1301 48.9647 66.7951 49.5636 67.9503C50.8057 70.3485 50.744 70.1976 50.6965 70.7257C50.6744 70.9703 50.6539 71.2054 50.6505 71.2472C50.6471 71.2889 50.5195 71.3085 50.3663 71.2902C50.127 71.261 50.0446 71.2187 49.7729 70.9841C49.3067 70.5825 48.0079 69.8845 47.0425 69.517C46.5929 69.3466 46.1794 69.1997 46.1225 69.1907C45.9411 69.1637 43.5304 68.2992 42.4393 67.8706C41.8586 67.6424 41.1943 67.3999 40.9638 67.3315C39.7508 66.9728 37.1848 66.3831 34.0592 65.7448C32.8805 65.5044 30.0702 65.166 29.1162 65.1507C27.2981 65.1211 25.1692 65.3999 23.6467 65.8675L22.9756 66.0738L23.0083 65.7342C23.0268 65.5474 22.9271 64.6167 22.787 63.6656C22.6474 62.7147 22.5493 61.9015 22.5693 61.8587C22.5891 61.8166 22.581 61.7334 22.5521 61.6743C22.4097 61.3915 22.3887 59.261 22.5183 58.2335C22.5745 57.7888 22.7474 56.8618 22.8338 56.5444C22.9621 56.0762 23.3653 55.3167 23.6556 54.9972ZM19.4055 69.9512C19.8366 69.3752 20.3004 68.9196 21.17 68.2193C22.1436 67.4355 22.6364 67.1404 23.5693 66.7821C25.5511 66.0221 28.1385 65.8099 31.1047 66.164C32.8667 66.3745 33.3544 66.4606 35.5535 66.9496C39.5348 67.8349 40.6032 68.1287 42.1667 68.7656C43.4174 69.2757 45.0291 69.8397 46.2098 70.181C46.6928 70.3208 47.1221 70.5015 47.8987 70.8922C49.2017 71.5466 49.3856 71.7018 49.4306 72.1829C49.4486 72.3751 49.6092 73.0772 49.787 73.744C49.9691 74.4268 50.1207 75.1857 50.1336 75.4813C50.205 77.1453 50.6052 78.2662 51.5599 79.4737C52.0982 80.1545 52.956 80.8565 53.3996 80.9801L53.6618 81.053L53.3825 81.2314C52.9412 81.5138 52.6532 81.7969 52.2828 82.314C51.8652 82.897 51.6786 83.0645 50.7813 83.6637C50.398 83.9196 49.9468 84.2467 49.7792 84.3907C48.5734 85.4235 46.5436 87.2177 46.1396 87.6072C45.8716 87.8651 45.2245 88.4875 44.7012 88.9902C41.447 92.114 40.8178 92.75 40.3239 93.4127C39.8672 94.0259 39.7219 94.1664 38.7195 94.9662C36.3312 96.8707 30.872 100.442 28.6725 101.538C27.1082 102.317 25.2455 102.922 23.7733 103.129C22.1271 103.36 19.855 103.118 18.9328 102.611C18.606 102.431 18.5463 102.37 18.447 102.108C18.2184 101.506 18.3522 100.689 18.8897 99.4126C19.4058 98.1865 20.6818 95.7508 21.3798 94.6607C22.642 92.6874 23.1186 91.2399 23.0671 89.5367C23.0254 88.1717 22.5221 86.5035 21.519 84.4114C18.9115 78.9716 18.049 76.4494 18.0423 74.2477C18.0405 73.6619 18.2135 72.5306 18.3878 71.9848C18.5542 71.4639 19.1203 70.3318 19.4055 69.9512ZM51.4025 39.0425C52.1841 38.0988 52.9929 37.4875 53.6945 37.3103C53.8981 37.2588 54.7085 37.1994 55.4948 37.1772C57.8757 37.1121 58.9605 36.9397 60.7655 36.337C62.597 35.7263 62.9853 35.6872 63.7673 36.0333C64.4402 36.3312 64.805 36.8315 65.8717 38.9167C66.2304 39.6184 66.7216 40.5673 66.9632 41.026C68.6034 44.137 69.4071 47.3775 69.4958 51.2379C69.5171 52.1569 69.499 53.2557 69.4547 53.6795C69.3035 55.1421 69.4083 56.1701 69.8631 57.6751L70.1188 58.5225L69.8435 58.3442C69.6915 58.2465 68.8422 57.6314 67.9556 56.9783C66.4774 55.8898 64.5209 54.5932 61.9141 52.9739C57.6801 50.344 54.6533 48.231 53.0311 46.7737C50.9098 44.867 49.9277 43.1551 50.1205 41.698C50.2219 40.9343 50.7611 39.8174 51.4025 39.0425ZM51.659 50.0556C52.2156 49.5855 54.0466 48.7687 54.2884 48.8821C54.3625 48.9169 54.6527 49.1169 54.9332 49.3263C56.2056 50.275 59.1954 52.2458 61.5269 53.6712C64.808 55.6779 67.4163 57.4507 70.3063 59.6392L70.8724 60.0678L70.5433 59.9965C70.032 59.8853 69.1125 59.9501 68.23 60.1587C67.9339 60.2285 67.4335 60.3076 67.1179 60.3345C66.3007 60.4039 66.0328 60.4701 64.7478 60.9175C62.6692 61.641 61.5709 61.8769 59.8411 61.971C58.0572 62.0677 57.6053 61.9947 56.9674 61.5074C56.4511 61.1139 56.1195 60.7262 55.6892 60.0145C55.2138 59.2294 54.9375 58.5561 54.5276 57.1875C53.9006 55.0946 53.3597 54.0635 52.012 52.3955C51.5637 51.8413 51.1544 51.2791 51.101 51.1467C51.0123 50.9266 51.0189 50.8812 51.1846 50.6047C51.2843 50.4391 51.4978 50.1924 51.659 50.0556ZM32.3414 100.44C34.0045 99.447 37.0419 97.3392 38.3258 96.2872C38.8119 95.889 39.4689 95.3536 39.7858 95.0981C40.4947 94.5259 40.5673 94.4556 41.0629 93.8584C41.4954 93.3375 42.6443 92.1876 44.3876 90.5325C45.0003 89.9505 45.8069 89.1714 46.1805 88.8014C46.9296 88.0585 47.1086 87.8933 48.5322 86.6343C49.0699 86.1589 49.7476 85.556 50.0387 85.2943C50.3299 85.0325 50.9087 84.5809 51.3248 84.2896C52.1991 83.6782 52.4097 83.472 52.8793 82.7656C53.0907 82.4481 53.377 82.115 53.6264 81.8969L54.0311 81.5436L54.2317 81.9816C54.3424 82.2223 54.541 82.688 54.6735 83.0155C54.8061 83.3429 55.0312 83.857 55.1735 84.1574C55.3158 84.4578 55.4495 84.7828 55.471 84.8796C55.6176 85.5487 55.9227 87.9925 55.886 88.2009C55.7982 88.6954 55.0519 90.458 54.5179 91.4303C54.0634 92.2584 53.9536 92.4141 53.5127 92.8636C51.6861 94.7214 49.431 97.1528 48.8341 97.9082C48.4495 98.3944 47.8338 99.1175 47.4666 99.5148C47.0988 99.9118 46.5291 100.554 46.2009 100.942C45.8728 101.33 45.2646 102.017 44.8496 102.469C43.3871 104.063 42.4848 105.28 41.4544 107.049C40.9297 107.95 40.66 108.635 40.3792 109.778C40.0497 111.12 39.632 111.894 39.1397 112.071C38.9529 112.139 38.8739 112.122 38.4543 111.925C37.5264 111.49 36.1359 110.419 35.5505 109.688C34.9414 108.928 34.0461 106.626 33.4754 104.355C33.3282 103.77 33.1095 103.067 32.9893 102.791C32.4586 101.577 32.3343 101.34 32.0867 101.068C31.9418 100.91 31.8286 100.77 31.834 100.759C31.8403 100.747 32.068 100.603 32.3414 100.44ZM50.3577 72.0394C50.5727 71.9447 50.9801 72.0373 51.9483 72.3988C52.39 72.564 53.0885 72.8247 53.5014 72.9779C54.5234 73.358 55.3763 73.5544 56.4409 73.6539C58.4442 73.8423 59.1744 73.993 59.7406 74.3334C59.9472 74.4575 60.1895 74.6387 60.2796 74.7368C60.4242 74.8942 60.4296 74.9313 60.3251 75.0616C60.2607 75.1424 60.0483 75.3161 59.8533 75.4466C59.658 75.5777 59.3351 75.8083 59.1364 75.9591C58.9368 76.1102 58.4703 76.3853 58.0992 76.5698C57.7277 76.7549 57.3007 76.9912 57.1491 77.095C56.7358 77.3788 56.2232 77.9261 56.0719 78.2439C55.9945 78.4075 55.7351 78.7333 55.4544 79.0198C55.1888 79.2913 54.882 79.6537 54.7741 79.8258C54.5257 80.2192 54.4423 80.2808 54.105 80.3196C53.9547 80.3373 53.787 80.4063 53.7322 80.4732C53.6195 80.6114 53.5984 80.6001 53.0635 80.1082C52.6188 79.6998 52.05 78.976 51.7273 78.4095C51.1773 77.4447 50.9531 76.643 50.9061 75.4761C50.8888 75.0565 50.77 74.4834 50.5082 73.5627C50.3027 72.8403 50.1484 72.2175 50.1647 72.1796C50.1825 72.1417 50.2687 72.0785 50.3577 72.0394ZM68.4867 40.5875C69.8055 40.3646 70.5019 40.4164 71.112 40.7825C71.6613 41.1121 72.3183 41.72 72.9739 42.5051C73.2986 42.8947 73.7696 43.4477 74.0202 43.7335C74.6384 44.44 74.9772 45.0222 75.2585 45.8573C75.7126 47.207 75.7759 48.405 75.4776 49.9963C75.2705 51.1014 75.0249 51.6784 74.4301 52.4576C73.8191 53.2586 73.2399 54.2898 72.6649 55.6023C71.9089 57.3273 71.7504 58.081 71.8655 59.396L71.9084 59.8864L71.6814 59.7322C71.4874 59.6 71.4063 59.4437 71.1182 58.6465C70.3385 56.4887 70.174 55.4203 70.3585 53.7205C70.4448 52.9247 70.4066 50.3071 70.2931 49.2523C70.1666 48.0775 69.6976 45.6774 69.4076 44.7199C69.1302 43.8043 68.517 42.2874 68.034 41.3239C67.8825 41.0213 67.767 40.7578 67.7773 40.7391C67.7872 40.7195 68.1065 40.6517 68.4867 40.5875ZM65.7183 94.4047C65.8345 94.3357 66.401 94.1032 66.9769 93.8882C68.0452 93.489 68.5351 93.2441 69.8483 92.4527C71.2342 91.6176 71.9168 90.9619 72.9908 89.4338C73.3107 88.9775 73.6952 88.4649 73.8445 88.2939C74.2152 87.8689 74.9958 87.4009 75.8222 87.108C76.4397 86.8891 76.6234 86.8613 77.5713 86.8473C79.0295 86.8257 79.6691 86.914 81.0458 87.3281C82.7068 87.8278 83.5985 88.2629 87.5108 90.4796C89.6634 91.6999 91.1284 92.4619 93.1186 93.3966L94.8579 94.2137L94.1817 94.5028C92.3796 95.2736 91.3414 95.5693 89.597 95.8109C87.5465 96.0949 85.8809 96.1493 83.4829 96.0109C81.9196 95.9208 81.0363 95.9239 79.6883 96.0259C79.2263 96.0605 78.2566 96.1179 77.5323 96.1538C75.7853 96.2391 74.9846 96.3141 73.605 96.5224C71.4285 96.8509 70.3933 96.8549 68.6793 96.539C67.8486 96.3861 67.6775 96.3323 66.9126 95.981C65.2166 95.2018 64.9555 94.8567 65.7183 94.4047ZM69.5124 97.943C69.8822 97.6359 70.0417 97.5953 70.7392 97.6307C71.5074 97.669 71.9104 97.6361 73.621 97.3963C75.1137 97.1866 75.8009 97.1326 79.3297 96.9474C81.5003 96.8337 82.0704 96.8336 83.8508 96.9513C85.875 97.0841 87.6486 97.0047 89.8756 96.6815C91.6948 96.417 92.6168 96.1446 94.7633 95.2341L95.0102 95.1294L94.8235 95.446C94.7204 95.6203 94.4396 96.1 94.1996 96.5129C93.453 97.7962 92.7184 98.806 91.9481 99.6094C91.5599 100.014 91.0558 100.554 90.8267 100.81C90.0039 101.734 87.4193 103.859 86.1798 104.633C85.1822 105.255 84.9562 105.434 83.5325 106.728C81.4545 108.617 80.2482 109.444 78.8243 109.957C78.1048 110.216 77.817 110.281 77.3413 110.29L76.751 110.302L75.9955 109.945C74.1626 109.078 72.975 107.613 71.5452 104.451C71.0866 103.438 70.6945 102.767 69.8852 101.608C69.3276 100.81 68.8793 99.7793 68.8681 99.2714C68.8589 98.8284 69.1376 98.2544 69.5124 97.943ZM87.0343 65.634C87.2942 65.2915 87.7635 64.7018 88.0772 64.3228C89.2278 62.9342 91.1822 61.5125 91.9902 61.477C92.2321 61.4662 92.2387 61.4708 92.5791 61.8883C93.2493 62.7082 94.2362 63.7904 95.4316 65.0145C96.4677 66.0765 98.7678 68.5615 100.377 70.3573C101.001 71.0551 102.115 72.5185 102.066 72.5795C102.046 72.6065 101.89 72.5871 101.721 72.5357C101.235 72.3894 100.632 72.3597 99.6943 72.4357C98.657 72.5194 97.8526 72.4861 96.3873 72.2972C94.9873 72.1161 94.0665 71.8966 92.5337 71.3777C91.3537 70.9787 91.2052 70.9127 89.368 69.9733C87.8471 69.1955 87.3192 68.8987 86.8687 68.5655C86.5546 68.3336 86.2614 68.0947 86.2164 68.0354C86.127 67.9156 86.092 67.4083 86.1507 67.0934C86.2021 66.8207 86.4676 66.3816 87.0343 65.634ZM93.1589 54.6923C93.6197 54.0186 95.447 51.7466 96.2483 50.8504C96.7382 50.3027 97.156 50.0328 97.6723 49.931C98.2816 49.8111 98.7365 49.865 99.301 50.1245C100.627 50.734 101.67 52.0131 102.367 53.8836C102.691 54.7534 102.839 55.3498 103.125 56.9308C103.58 59.4432 103.656 61.1124 103.416 63.2866C103.275 64.5594 103.205 66.2376 103.207 68.2397C103.208 68.7552 103.175 69.5232 103.134 69.9457C103.094 70.3685 103.08 71.1136 103.105 71.6012L103.148 72.488L102.977 72.2333C102.396 71.3693 101.574 70.3229 100.839 69.507C98.6625 67.0954 97.0711 65.3718 95.9123 64.173C93.2846 61.4535 91.9498 59.7393 91.7995 58.8929C91.6985 58.3194 91.7989 57.4215 92.0484 56.6699C92.1764 56.284 92.6656 55.4133 93.1589 54.6923ZM82.2886 85.2127C82.4557 85.0508 83.1517 84.7445 83.3978 84.7247C83.7045 84.6995 86.4129 85.9453 87.9122 86.8005C88.9891 87.415 90.9144 88.6698 91.4046 89.0767C91.5202 89.1736 91.8789 89.574 92.2004 89.9673C92.5217 90.3597 92.9499 90.858 93.152 91.0748C93.3537 91.2907 93.6966 91.7248 93.9131 92.0394C94.129 92.3538 94.4415 92.7663 94.606 92.9566C94.7708 93.1463 94.891 93.307 94.8733 93.3134C94.7848 93.3454 90.0209 90.8903 88.3473 89.9504C85.4006 88.2952 83.9259 87.5192 82.9394 87.1043L82.0374 86.7254L82.0084 86.4392C81.9525 85.8965 82.0581 85.436 82.2886 85.2127ZM103.917 54.1836C104.116 54.1525 104.485 54.1374 104.738 54.1495C107.074 54.2651 106.772 54.2077 107.939 54.7574C109.061 55.2856 109.374 55.5071 109.948 56.1789C110.559 56.8946 110.633 57.2511 110.402 58.3692C110.036 60.1385 108.803 62.0623 106.433 64.559C105.517 65.5254 105.043 66.1664 104.541 67.121L104.108 67.9465L104.13 67.369C104.142 67.0514 104.163 66.3174 104.175 65.7388C104.187 65.1595 104.262 64.0866 104.341 63.3553C104.497 61.917 104.504 60.3049 104.358 58.989C104.251 58.0126 103.877 55.94 103.641 55.015C103.547 54.6479 103.49 54.3234 103.514 54.2942C103.538 54.2645 103.719 54.215 103.917 54.1836ZM81.925 109.091C82.3202 108.811 83.2873 108.01 84.0745 107.31C85.1584 106.345 85.6938 105.919 86.2795 105.551C87.6335 104.703 87.992 104.443 89.3891 103.296C90.6633 102.249 91.8872 101.064 93.1949 99.6107C93.5928 99.1683 94.5992 97.7106 94.8013 97.2844C94.8897 97.0973 95.0791 96.7673 95.2222 96.5515C95.5646 96.0345 95.8223 95.4867 95.8394 95.2383L95.8531 95.0382L96.0854 95.3536C96.3258 95.6802 96.7803 96.7905 96.7947 97.0861C96.7997 97.1788 96.7595 97.7052 96.706 98.2569C96.6109 99.2344 96.6014 99.2719 96.3362 99.7559C96.1859 100.029 95.7602 100.689 95.3896 101.223C94.6309 102.315 94.0154 102.953 92.8768 103.829C92.4232 104.178 92.1095 104.478 91.8483 104.816C91.4697 105.305 90.9258 105.897 90.0082 106.819C89.644 107.184 89.307 107.621 88.7568 108.436C87.8231 109.822 86.9294 111.032 86.5228 111.461C86.1118 111.894 85.6628 112.07 84.8866 112.104C84.0423 112.14 83.7326 111.991 82.6193 111.012C82.173 110.62 81.6082 110.181 81.3642 110.038C80.9278 109.781 80.9226 109.775 81.0636 109.687C81.1422 109.639 81.53 109.37 81.925 109.091ZM92.4901 111.201C92.797 111.078 94.1016 110.638 95.3889 110.221C96.6762 109.805 97.896 109.392 98.0995 109.303C98.734 109.026 101.754 107.826 103.206 107.274C105.011 106.588 105.697 106.247 107.737 105.02C110.612 103.29 111.265 102.951 114.708 101.39C117.003 100.35 120.112 99.1724 121.473 98.8248C122.575 98.5442 126.184 97.8482 127.141 97.7307C128.06 97.6186 129.98 97.5355 130.925 97.5672C131.979 97.6017 135.149 98.144 136.576 98.533C137.856 98.8823 138.584 99.1113 138.562 99.1595C138.555 99.1733 138.386 99.1635 138.186 99.1381C137.485 99.0475 131.062 99.2694 130.093 99.417C129.1 99.569 128.322 99.7943 126.689 100.405C125.501 100.848 124.789 101.173 123.402 101.903C121.191 103.067 121.117 103.1 118.04 104.204C115.469 105.126 113.605 105.865 111.319 106.866C110.535 107.21 109.42 107.617 108.395 107.932C107.485 108.213 106.346 108.612 105.865 108.819C104.75 109.299 102.848 109.95 101.977 110.148C101.606 110.233 100.829 110.365 100.25 110.442C99.6709 110.519 98.771 110.663 98.2502 110.762C97.7297 110.86 96.7582 111.012 96.0915 111.099C95.4248 111.186 94.5249 111.319 94.0919 111.394C93.2353 111.542 92.3549 111.671 91.7152 111.743L91.3078 111.788L91.62 111.606C91.7917 111.506 92.1832 111.324 92.4901 111.201ZM91.8699 112.469C91.9455 112.478 92.9253 112.349 94.048 112.181C95.1704 112.013 96.422 111.832 96.8291 111.782C97.2358 111.73 97.967 111.613 98.4537 111.523C98.9398 111.432 99.8203 111.295 100.41 111.218C100.999 111.142 101.751 111.022 102.081 110.952C102.967 110.764 104.619 110.217 106.058 109.635C106.756 109.352 107.991 108.922 108.802 108.68C109.81 108.379 110.833 108.002 112.039 107.487C114.576 106.404 115.509 106.041 118.554 104.957C121.343 103.964 121.846 103.744 124.11 102.529C125.206 101.94 125.742 101.708 127.335 101.132C129.419 100.379 130.209 100.206 131.719 100.169C132.588 100.148 135.346 100.025 136.234 99.9686C137.001 99.9186 136.904 99.9493 135.113 100.32C131.505 101.066 130.115 101.528 124.221 103.94C122.65 104.584 119.988 105.633 116.565 106.959C115.831 107.244 113.462 108.169 111.302 109.015C104.702 111.6 104.621 111.627 101.918 112.146C101.165 112.291 100.03 112.521 99.3969 112.657C97.9222 112.976 96.7101 113.144 95.7762 113.159C94.5327 113.18 92.9974 112.969 91.9237 112.631C91.6715 112.551 91.6338 112.437 91.8699 112.469ZM119.169 54.2962C119.273 54.3142 119.335 54.3733 119.364 54.4831C119.464 54.8675 120.907 57.2578 121.409 57.8713C123.008 59.8287 123.654 60.5759 124.245 61.1551C124.619 61.5215 125.311 62.2446 125.784 62.7609C126.256 63.2779 127.055 64.1132 127.561 64.6183C128.065 65.1232 128.893 65.9566 129.4 66.4715C129.907 66.9855 130.684 67.7634 131.127 68.1992C131.57 68.6353 132.651 69.7528 133.53 70.6829C134.408 71.6128 135.492 72.7596 135.938 73.2313C136.384 73.7028 137.181 74.5793 137.709 75.1794C138.237 75.7789 138.986 76.6152 139.375 77.0384C140.392 78.146 140.925 78.8294 141.72 80.0465C142.107 80.6388 142.8 81.695 143.262 82.3934C143.973 83.473 145.022 85.2271 144.992 85.2897C144.987 85.3005 144.777 85.0608 144.525 84.7581C143.361 83.3599 141.795 81.5964 139.845 79.4849C136.575 75.9446 135.67 75.0365 132.399 72.0216C128.183 68.1345 124.944 64.8824 123.092 62.6733C121.919 61.2762 120.557 59.2838 119.852 57.9361C118.977 56.2635 118.588 54.1942 119.169 54.2962ZM121.446 55.7873C121.731 56.0228 122.739 56.9631 123.686 57.8767C126.332 60.429 128.266 62.0798 130.173 63.4125C130.614 63.721 131.82 64.5031 132.851 65.1499C136.826 67.6422 138.533 68.926 140.533 70.9279C141.854 72.2489 144.083 75.1283 145.169 76.9154C145.607 77.6368 146.455 79.6048 147.196 81.6186C147.742 83.1065 147.993 84.3383 148.029 85.7135C148.04 86.1428 148.071 86.7525 148.097 87.0683C148.124 87.3835 148.128 88.0796 148.106 88.6157C148.048 90.0647 148.069 89.982 147.87 89.5458C147.774 89.3386 147.575 88.8259 147.429 88.4066C147.158 87.639 146.211 85.5616 145.634 84.4707C145.183 83.6201 144.833 83.0534 143.627 81.2217C141.675 78.2577 141.386 77.8701 139.972 76.3121C139.572 75.8716 138.758 74.9613 138.163 74.2894C137.568 73.6171 136.647 72.6178 136.116 72.0678C135.585 71.5181 134.589 70.472 133.903 69.744C133.216 69.0157 132.154 67.9275 131.543 67.325C129.334 65.15 127.76 63.5567 126.801 62.5252C126.264 61.9468 125.425 61.0779 124.938 60.5946C123.815 59.4797 121.89 57.1328 121.256 56.1069C120.996 55.6859 120.816 55.3448 120.856 55.3495C120.895 55.3541 121.161 55.5515 121.446 55.7873ZM140.874 46.4348C140.981 46.5723 141.368 47.1405 141.735 47.6967C143.875 50.9474 144.4 51.8438 145.125 53.4832C145.331 53.9493 145.701 54.7795 145.947 55.3286C146.193 55.8767 146.568 56.734 146.782 57.2332C146.996 57.7316 147.477 58.7118 147.851 59.4112C148.225 60.1101 148.726 61.1598 148.964 61.7429C149.201 62.3261 149.556 63.1318 149.753 63.5332C150.35 64.7564 150.959 66.2725 152.344 69.9915C153.611 73.3919 154.433 75.8921 154.773 77.3768C154.923 78.0316 154.977 78.8682 154.873 78.9059C154.761 78.9468 154.111 78.1473 153.397 77.091C152.591 75.9007 151.878 74.6631 150.634 72.3022C149.17 69.5234 148.654 68.2149 148.081 65.8173C147.553 63.6098 147.445 63.238 146.683 60.9878C145.526 57.5739 143.962 53.7231 142.278 50.1455C141.422 48.3274 140.604 46.3441 140.66 46.2249C140.67 46.2026 140.766 46.2969 140.874 46.4348ZM142.907 47.9358C143.699 48.7868 145.068 50.5993 146.153 52.2325C146.849 53.2811 148.285 55.6754 148.655 56.4044C150.178 59.4053 150.702 60.591 151.579 63.0155C152.072 64.38 152.69 66.2045 152.951 67.0691C153.211 67.9333 153.504 68.9027 153.602 69.2226C153.699 69.5423 153.874 70.1916 153.991 70.6644C154.107 71.1372 154.307 71.9151 154.435 72.3924C154.655 73.2103 154.857 74.3221 154.862 74.7358L154.864 74.9206L154.804 74.7089C154.46 73.4774 153.982 72.0771 153.484 70.833C153.153 70.0053 152.727 68.8562 152.537 68.2792C152.135 67.0533 151.177 64.7135 150.503 63.3083C150.243 62.7659 149.865 61.9135 149.663 61.4133C149.461 60.9138 149.077 60.0988 148.809 59.6021C148.034 58.1657 147.51 57.0538 146.019 53.6774C145.16 51.7347 144.4 50.3994 142.887 48.1792C142.63 47.8012 142.432 47.4879 142.447 47.4819C142.463 47.4762 142.67 47.6803 142.907 47.9358Z" fill="black" fill-opacity="0.2"/>
</g>
<defs>
<clipPath id="clip0_18_153">
<rect width="104.674" height="155.861" fill="white" transform="translate(0 94.7715) rotate(-64.8764)"/>
</clipPath>
</defs>
</svg>
