<svg width="304" height="660" viewBox="0 0 304 660" fill="none" xmlns="http://www.w3.org/2000/svg">
<g clip-path="url(#clip0_1_8221)">
<path d="M-0.0122681 149.874C0.117645 149.485 0.247528 149.095 0.377472 148.706C0.767212 147.753 1.71997 147.58 2.45621 147.927C3.58215 147.018 4.70813 146.109 5.92072 145.243C7.34982 144.248 9.25531 145.157 9.21201 146.974C8.08606 178.525 34.4164 210.334 47.8848 237.297C57.0658 255.734 66.2901 278.888 53.9044 297.325C53.8178 298.06 53.8178 298.796 53.7312 299.575C53.6013 300.441 52.7352 300.614 52.1289 300.354C56.4595 312.732 59.2311 325.369 58.1485 338.093C62.6957 327.62 67.7192 317.319 73.0893 307.192C72.9593 307.062 72.8727 306.976 72.8294 306.759C70.794 290.097 79.9317 276.378 85.1285 261.36C84.6088 259.715 84.1324 258.071 83.5695 256.469C75.2113 231.671 61.8295 202.544 69.7113 176.101C70.1011 174.716 71.7901 174.456 72.8727 175.149C85.6482 183.285 97.211 193.888 106.868 206.007C109.424 198.995 112.022 192.071 114.664 185.189C113.841 184.973 113.494 183.631 114.49 183.069C114.923 182.809 115.357 182.506 115.79 182.247C116.136 181.294 116.482 180.386 116.872 179.433C111.546 142.387 99.1165 105.427 112.542 68.8131C121.246 45.0098 138.655 15.537 164.12 6.49175C165.636 4.28454 167.281 2.16388 169.143 0.302901C170.096 -0.64923 171.352 0.822245 170.789 1.81765C170.183 2.85634 169.62 3.93831 169.057 5.02028C169.273 4.977 169.49 4.93372 169.706 4.89044C170.616 4.45765 171.569 4.06815 172.521 3.67864C172.521 3.67864 172.521 3.67864 172.521 3.63536C172.651 3.11602 173.257 3.02946 173.691 3.24585C174.513 2.9429 175.336 2.59667 176.202 2.337C177.631 1.90421 178.281 4.19798 176.939 4.76061C176.505 4.93372 176.159 5.15011 175.726 5.36651C175.813 5.66946 175.813 5.97241 175.683 6.31864C157.797 63.1868 180.49 146.758 120.64 182.16C120.64 184.324 120.597 186.488 120.423 188.652C120.337 189.95 118.258 190.08 118.085 188.738C117.998 188.046 117.912 187.353 117.825 186.661C114.75 193.975 111.675 201.203 108.774 208.387C113.927 215.182 118.561 222.323 122.372 229.853C136.144 202.501 157.104 180.342 177.891 158.097C174.817 157.405 173.691 154.288 172.868 151.519C171.828 148.013 171.742 143.815 170.572 140.223V140.266C169.75 141.738 168.84 142.82 167.714 143.599C167.324 144.118 166.935 144.637 166.502 145.113C165.549 146.109 164.25 145.719 163.47 144.897C163.08 144.637 162.777 144.161 162.821 143.642C162.821 143.599 162.821 143.599 162.821 143.555C162.777 143.209 162.777 142.906 162.907 142.56C162.95 142.43 162.994 142.344 163.037 142.214C163.47 140.18 164.466 138.665 166.025 136.977C166.415 136.414 166.848 136.155 167.324 135.982C167.887 135.419 168.494 134.9 169.1 134.337C169.75 133.774 170.919 133.861 171.439 134.553C173.604 137.713 174.124 141.651 174.73 145.33C175.163 148.143 175.336 155.37 178.801 156.279C179.061 156.323 179.19 156.496 179.277 156.669C181.226 154.548 183.175 152.471 185.123 150.35C188.068 140.483 190.277 130.182 191.706 120.098C191.36 119.666 191.23 119.06 191.576 118.367C191.793 117.934 192.009 117.545 192.182 117.112C192.226 117.069 192.226 117.026 192.269 116.982C192.312 116.852 192.399 116.723 192.486 116.636C192.616 116.42 192.702 116.203 192.832 115.987C181.746 111.14 192.182 90.0196 203.659 99.8006C205.045 100.969 205.434 103.263 203.789 104.475C200.238 107.071 197.812 107.028 194.478 104.864C193.049 107.201 193.482 111.183 196.903 111.702C198.678 111.962 200.194 114.212 198.808 115.814C197.509 117.242 196.253 118.67 195.041 120.185C194.867 120.401 194.651 120.574 194.391 120.661C191.446 126.807 190.97 136.804 189.584 142.993C189.324 144.161 188.978 145.33 188.675 146.498C195.344 139.184 201.883 131.697 207.989 123.907C207.253 123.647 206.95 122.608 207.859 122.176C216.218 118.324 216.694 100.709 215.048 89.7167C214.139 89.457 213.359 88.7213 213.056 87.6826C212.06 84.0904 212.623 77.4255 218.08 78.8104C224.229 80.3252 222.41 88.5049 219.682 92.097C219.206 92.7462 218.426 92.7029 217.907 92.3567C218.166 98.2426 218.643 104.864 217.777 110.664C222.714 103.436 227.261 95.9055 231.158 87.899C228.733 86.1245 228.084 82.3593 227.694 79.5029C227.218 76.3436 227.694 72.9245 229.989 70.5875C233.843 66.7357 240.08 68.7265 243.501 72.0157C243.847 72.3186 244.064 72.7081 244.324 73.0544C245.32 72.6216 246.835 73.7036 246.316 74.9154C246.143 75.2616 245.969 75.6078 245.796 75.954C246.835 80.2819 244.54 85.259 239.776 86.3409C239.517 86.3842 239.257 86.3842 239.04 86.2544C237.395 87.8557 235.316 89.1973 233.107 88.7213C232.934 88.678 232.804 88.5914 232.631 88.5481C227.088 100.926 220.202 112.351 212.407 123.214C223.103 126.114 234.233 119.492 245.363 116.852C244.713 114.256 244.54 111.659 244.93 109.971C245.363 108.153 248.394 108.11 249.001 109.841C249.217 110.837 249.607 111.746 250.17 112.568C250.603 113.26 249.953 114.083 249.217 114.169C249.304 114.732 249.434 115.294 249.65 115.814C251.079 114.732 252.725 113.996 254.068 114.126C255.15 114.212 256.016 115.078 256.623 116.203C257.446 116.42 258.182 117.155 258.009 118.064C257.922 118.627 257.749 119.146 257.575 119.666C257.749 121.916 257.229 124.167 255.627 124.902C254.544 125.378 253.591 125.551 252.682 125.508C251.036 125.984 249.217 125.595 247.398 123.864C246.272 122.825 246.099 121.527 246.402 120.271C234.45 122.868 221.718 130.572 210.891 125.335C203.226 135.808 194.824 145.763 186.12 155.544C185.686 156.885 185.297 158.227 184.82 159.568C184.387 160.78 182.915 160.434 182.568 159.482C177.285 165.368 171.915 171.21 166.588 177.096C175.38 176.577 183.261 170.518 191.186 167.099C198.938 163.723 206.733 160.65 214.269 156.885C207.859 150.393 214.615 135.332 225.009 140.136C234.796 144.681 232.025 162.468 220.851 159.049C219.855 159.958 219.379 160.218 217.993 160.867C216.867 161.429 215.785 160.78 215.308 159.828C205.608 164.589 195.56 168.484 185.643 172.855C178.541 175.971 172.954 180.602 164.986 178.871C149.872 195.663 135.191 212.801 123.585 232.147C128.868 243.01 132.593 254.479 134.411 266.121C147.23 262.572 163.34 259.932 173.344 250.454C165.636 246.342 168.58 232.753 178.931 230.805C195.344 227.776 197.769 250.194 182.049 248.679C181.962 250.324 180.879 252.012 178.887 251.622C178.801 251.622 178.714 251.579 178.627 251.579C177.805 251.579 177.025 251.536 176.289 251.406C166.242 261.749 148.27 267.029 134.671 268.068C137.876 291.049 133.632 314.549 118.821 335.237C118.475 337.53 118.085 339.868 117.652 342.118C118.301 343.243 118.951 344.325 119.644 345.45C121.03 347.658 117.912 350.298 116.482 348.09C115.097 354.539 113.364 360.858 111.329 367.003C120.51 357.871 130.514 349.605 141.514 342.551C146.537 339.305 151.431 335.929 156.281 332.467C156.065 331.861 156.108 331.168 156.714 330.606C171.352 317.103 177.805 297.411 186.683 280.056C193.005 267.765 202.316 258.46 212.58 249.372C237.221 227.646 269.312 215.182 301.965 213.407C303.654 213.321 304.736 215.225 303.351 216.437C277.193 239.374 267.233 274.647 242.765 299.186C220.202 321.777 185.946 321.214 158.966 335.41C158.057 336.102 157.147 336.838 156.195 337.487C129.734 356.53 107.561 374.447 88.3332 401.323C79.8018 413.268 72.3097 425.862 65.5539 438.846C72.2231 432.527 79.7585 427.377 87.6836 422.746C87.8135 422.487 87.9434 422.27 88.2033 422.054C126.313 386.132 181.399 317.839 237.438 358.304C237.524 358.261 237.568 358.174 237.654 358.131C238.521 357.395 239.43 358.564 238.91 359.386C239.603 359.906 240.296 360.382 240.989 360.901C242.851 362.416 240.686 365.445 238.78 363.93C237.958 363.281 237.135 362.675 236.269 362.069C216.521 381.718 194.694 399.765 170.269 413.268C144.415 427.55 116.959 416.341 90.1954 425.3C89.8056 425.429 89.4158 425.429 89.0694 425.343C79.5419 430.709 70.5342 436.898 62.4791 444.775C55.0304 459.706 48.4478 475.07 42.3416 490.564C41.6053 492.468 38.6605 491.386 39.3967 489.439C54.9005 447.069 76.2073 403.271 108.081 370.206C110.636 361.68 112.845 353.197 114.49 344.671C102.581 324.59 96.9945 302.648 90.8883 280.619C74.6916 308.923 59.2744 337.487 49.2273 368.648C48.9242 369.557 48.7509 370.466 48.4478 371.374C63.735 362.156 74.7782 347.138 89.5458 337.011C90.1521 336.578 91.1914 336.795 91.278 337.66C91.278 337.79 91.278 337.877 91.278 338.007C93.1835 336.838 95.8685 339.608 94.2662 341.469C94.1363 341.642 94.0064 341.772 93.8331 341.902C92.5339 343.373 91.278 344.325 89.8056 345.018C89.4592 345.407 89.156 345.797 88.9395 346.229C88.3765 347.961 86.3844 347.485 85.8214 346.186C84.9986 346.013 84.6088 344.888 85.3017 344.282C85.6915 343.979 86.0379 343.633 86.3844 343.287C86.9041 342.378 87.5537 341.512 88.3332 340.733C89.2426 338.656 84.4356 343.546 84.0458 343.892C79.4553 347.744 75.2546 352.072 70.9239 356.227C63.6917 363.195 56.4595 369.989 47.4951 374.62C37.8377 408.161 36.755 443.001 38.3574 477.71C38.5739 482.081 38.7471 486.452 38.877 490.867C39.007 491.127 39.0936 491.429 39.007 491.776V495.671C39.0503 495.93 39.0503 496.19 39.007 496.45C40.5227 554.357 35.2393 613.346 -4.12643 659.178C-5.64215 660.909 -8.58701 658.831 -7.07129 657.057C21.1213 623.949 30.3456 585.907 33.0739 546.22C23.5898 541.113 21.7276 528.649 18.3497 518.652C17.5702 518.825 16.7474 518.652 16.1844 517.873C14.8852 515.969 15.3615 513.978 16.0977 511.944C16.5308 510.689 18.5662 510.515 19.0426 511.857C21.078 517.267 22.7237 522.763 24.4992 528.26C26.2315 533.626 28.4835 539.902 33.2905 543.234C34.1566 528.476 34.1999 513.458 33.9834 498.441C33.3771 498.484 32.8141 498.268 32.381 497.705C17.3536 477.667 10.2081 454.902 5.61755 431.229C4.49158 430.796 3.27899 428.848 2.36957 427.161C-1.65796 419.803 -7.46103 413.614 -12.4846 406.863C-16.6854 401.193 -20.7129 395.481 -25.0435 389.941C-25.1302 390.72 -25.26 391.499 -25.39 392.365C-25.6065 393.706 -27.5986 393.879 -27.8152 392.451C-28.1616 390.201 -28.1616 388.296 -27.9884 386.219C-28.3348 385.829 -28.638 385.397 -28.9844 385.007C-29.3309 384.574 -29.3309 383.752 -28.8112 383.406C-28.1616 383.016 -27.5553 382.627 -26.8624 382.237C-26.1262 381.805 -25.0435 382.454 -24.9569 383.233C-24.7837 384.748 -24.7404 386.046 -24.7837 387.388C-23.4845 388.816 -21.6656 390.417 -20.8861 391.456C-16.6853 396.909 -12.7011 402.622 -8.63031 408.205C-5.55554 412.403 -2.30756 416.384 0.94043 420.409C1.3302 420.928 3.14911 423.742 4.62152 425.906C4.18845 423.439 3.75537 420.972 3.32233 418.462C2.71603 418.115 2.28296 417.38 2.62943 416.514C2.71603 416.298 2.80264 416.081 2.88925 415.822C1.59006 407.512 0.464081 399.116 -0.7052 390.72C-1.05167 390.59 -1.35483 390.244 -1.22488 389.811C-1.13828 389.551 -1.00836 389.248 -0.921753 388.989C-1.35483 385.959 -1.78787 382.973 -2.26425 379.944C-16.8586 373.582 -23.701 358.564 -30.2403 344.715C-30.8033 344.888 -31.4096 344.801 -31.7993 344.239C-31.886 344.109 -32.0159 343.936 -32.1458 343.806C-32.1891 343.849 -32.2324 343.849 -32.2757 343.892C-32.4489 343.979 -32.6655 344.066 -32.882 344.109H-32.9253C-33.1419 344.152 -33.3584 344.109 -33.5316 344.066C-33.6182 344.066 -33.7482 344.022 -33.8348 343.979C-33.9214 343.936 -34.008 343.892 -34.0946 343.849C-34.1812 343.806 -34.2678 343.719 -34.3544 343.633C-35.8701 343.589 -37.3426 343.07 -38.7717 342.334C-43.3622 339.867 -45.3543 332.553 -42.2362 328.269C-39.7245 324.763 -34.9174 324.374 -31.323 326.278C-28.638 327.706 -27.4254 331.168 -27.9451 334.111C-27.512 334.241 -27.1655 334.501 -27.1222 334.977C-26.8191 337.401 -27.3387 339.608 -28.9411 341.339C-28.9411 341.382 -28.9411 341.426 -28.9411 341.426C-23.2246 355.145 -15.9925 370.552 -2.61072 377.65C-3.43353 372.327 -4.34296 367.047 -5.33902 361.81C-10.4925 360.771 -13.3507 355.361 -15.1696 350.125V350.168C-15.9058 351.033 -17.4216 351.077 -17.8979 349.908C-19.2838 346.619 -17.6814 343.46 -16.4688 340.344C-15.5594 337.92 -12.398 338.526 -11.7484 340.776C-11.3586 342.248 -10.8389 343.849 -11.0122 345.407C-11.0555 345.753 -11.1854 346.056 -11.3586 346.359C-10.276 350.125 -8.84683 353.63 -6.37836 356.53C-9.49643 341.902 -13.7838 327.62 -20.4097 314.117C-20.7995 314.463 -21.1026 314.852 -21.5357 315.155C-24.6537 317.449 -28.5946 317.276 -31.4096 314.636C-35.8701 310.395 -36.2599 303.6 -31.4962 299.532C-28.075 296.589 -22.3585 295.42 -18.1578 297.325C-12.7444 299.791 -12.6145 307.755 -17.2483 311.087C-17.5082 311.304 -17.8113 311.347 -18.1144 311.347C-18.1577 311.433 -18.2444 311.52 -18.331 311.65C-10.2327 326.927 -5.64215 343.416 -2.39417 360.252C-2.35086 360.338 -2.35083 360.425 -2.35083 360.555C-0.921722 367.999 0.247559 375.486 1.3302 382.973C5.7908 371.807 12.3301 361.161 17.3104 350.125C17.0072 349.995 16.7474 349.692 16.834 349.302C17.1805 347.701 17.4836 346.576 18.1765 345.624C18.0466 345.537 17.9167 345.537 17.7867 345.45C13.1962 342.291 12.2002 332.597 16.3576 328.658C19.5623 325.629 24.6292 326.321 27.9637 328.658C30.3456 330.346 31.2984 333.549 30.259 335.886C30.9952 335.886 31.8181 336.535 31.6015 337.53C30.4756 342.378 26.2748 347.268 21.4245 346.792C15.9678 360.555 9.29861 374.317 1.93649 387.258C2.15305 388.816 2.36957 390.33 2.58612 391.889C3.40894 398.077 4.31839 404.223 5.22781 410.368C5.61758 409.416 6.00732 408.464 6.39709 407.469C6.96005 406.17 8.69232 406.43 8.99548 407.642C9.90491 406.344 10.8577 405.089 11.7671 403.79C12.8931 402.189 17.3103 396.952 18.6096 393.23C18.4363 393.273 18.3064 393.317 18.0899 393.36C17.3537 393.447 16.9206 392.841 17.0938 392.148C17.4403 390.807 17.6135 388.859 18.6962 387.864C18.5229 387.777 18.3497 387.734 18.2198 387.647C13.8025 384.964 13.2395 379.338 15.9678 375.313C18.3064 371.894 22.767 369.687 26.8378 370.639C28.7433 371.071 30.3023 372.803 30.8653 374.62C31.7747 377.563 30.7787 380.333 29.1764 382.843C28.7433 383.492 27.574 383.276 27.4874 382.454C27.3142 380.896 27.3142 378.689 26.6646 377.217C26.4481 376.698 26.3181 376.222 26.1016 376.005C25.7552 375.529 25.7119 375.616 25.4953 375.529C25.4087 375.486 25.1489 375.443 24.5426 375.443C24.8457 375.443 23.4166 375.702 23.5032 375.659C22.3339 376.048 21.5544 376.568 20.645 377.39C19.1292 378.775 18.4796 380.549 19.5623 382.54C20.1253 383.536 21.7276 385.353 23.0268 384.877C24.5426 384.358 25.1489 381.978 25.1489 380.593C25.1489 379.727 26.5779 379.468 26.8378 380.29C27.574 382.67 27.4874 385.18 25.7985 387.171C24.5859 388.556 23.0701 388.946 21.5111 388.772C23.9796 392.148 21.078 395.437 19.1725 398.597C15.3183 405.089 10.8577 411.234 6.26715 417.25C7.60968 425.43 9.08209 433.566 10.901 441.659C12.8931 450.488 15.7946 459.057 19.0859 467.453C22.1174 475.243 31.948 484.202 32.9007 492.338C33.0739 491.906 33.2905 491.516 33.4637 491.083C33.5503 490.824 33.7235 490.607 33.8968 490.434C33.6369 476.498 33.2472 462.519 33.2905 448.713C33.3338 423.179 37.4912 398.77 44.4636 375.183C44.1171 374.664 44.1604 373.885 44.8533 373.495C44.8966 373.495 44.9399 373.452 44.9832 373.408C47.9281 363.757 51.3926 354.279 55.2036 344.931C56.3296 338.439 56.3729 331.774 55.68 325.023C55.4202 325.629 54.4241 325.542 54.2509 324.85C48.5777 302.431 27.4874 292.391 10.0781 279.97C-5.03586 269.237 -13.6972 255.214 -19.7168 237.86C-30.4568 207.088 -24.6537 171.34 -0.0122681 149.874ZM233.41 83.2682C233.497 83.095 233.54 82.9652 233.627 82.8354C234.017 82.0131 235.316 82.4891 234.969 83.3547C234.839 83.6144 234.71 83.8741 234.623 84.177C236.355 83.6577 238.044 81.5803 239.084 80.4118C239.776 79.6327 240.383 78.8104 240.989 77.9882C240.946 77.1659 240.599 76.5167 239.993 75.7377C239.17 74.699 237.958 74.0931 236.572 73.7036C235.576 73.4006 234.19 73.617 233.54 74.1363C232.674 74.8288 232.328 76.6465 232.458 78.2478C232.544 79.7626 232.804 81.4072 233.237 82.8354C233.237 82.8786 233.324 83.0518 233.41 83.2682ZM219.422 154.115C219.942 153.812 220.462 153.596 220.981 153.293C221.977 152.687 223.147 153.639 223.277 154.635C225.182 153.769 225.832 152.211 225.225 149.917C224.403 143.339 212.666 151.216 219.422 154.115ZM178.324 245.563C178.498 245.563 178.671 245.563 178.844 245.607C179.061 245.607 179.19 245.693 179.45 245.693C180.23 245.65 180.793 245.953 181.226 246.386C181.269 246.386 181.269 246.299 181.356 246.299C183.781 245.693 185.686 244.265 186.986 241.971C186.553 236.734 183.954 235.22 179.234 237.384C174.817 239.028 173.517 244.914 178.324 245.563ZM293.087 218.774C243.544 228.728 221.718 267.982 193.222 302.734C204.048 293.17 214.615 283.259 225.052 273.132C244.237 254.479 264.505 233.878 289.233 222.539C290.532 221.284 291.788 220.029 293.087 218.774ZM240.643 296.632C255.107 283.778 264.158 265.125 273.729 248.679C275.201 246.169 279.229 238.552 283.646 231.454C251.599 265.991 216.737 302.561 175.942 324.46C175.163 324.85 174.513 323.725 175.163 323.205C196.73 306.153 218.859 290.573 239.17 271.877C255.02 257.292 270.004 241.798 285.205 226.521C244.15 249.372 212.97 289.058 177.328 320.479C174.47 323.378 171.482 326.148 168.407 328.831C192.702 317.969 219.812 315.112 240.643 296.632ZM174.513 318.488C209.635 278.801 235.922 226.953 292.611 217.562C259.784 220.505 229.34 237.903 205.911 260.278C187.289 278.022 182.438 304.985 167.021 324.547C169.533 322.599 172.002 320.522 174.513 318.488ZM225.442 355.664C200.454 352.202 179.537 357.915 157.58 370.509C139.565 380.852 127.352 398.034 111.286 410.628C132.722 399.246 149.915 383.016 170.659 370.682C181.616 364.19 192.789 361.117 204.395 359.776C211.757 357.309 219.422 355.967 227.347 356.53C226.698 356.227 226.048 355.924 225.442 355.664ZM137.053 398.856C143.029 395.827 148.833 392.668 154.376 389.032C165.549 381.718 177.242 372.889 189.627 366.224C179.234 369.34 169.187 374.274 158.447 382.367C151.474 387.647 144.459 393.533 137.053 398.856ZM234.276 361.161C234.363 361.074 234.45 360.988 234.536 360.944C234.19 360.685 233.8 360.468 233.454 360.252C233.28 360.598 233.064 360.858 232.588 360.901C221.544 361.29 211.714 361.853 202.489 363.368C184.344 370.163 167.844 384.012 151.864 393.923C138.959 401.886 125.014 407.988 111.286 414.393C137.313 412.013 157.277 402.405 179.624 388.296C196.686 377.52 214.009 365.618 234.017 361.204C234.147 361.074 234.19 361.117 234.276 361.161ZM134.715 418.635C172.045 419.197 203.745 387.95 230.985 364.06C208.379 372.846 188.805 385.959 168.061 398.597C150.305 409.416 128.608 419.933 107.215 416.341L107.172 416.298C105.309 417.163 103.447 418.029 101.628 418.938C112.585 417.639 123.541 418.462 134.715 418.635ZM102.105 415.346C138.136 386.046 169.706 346.835 218.946 352.938C177.588 338.829 137.053 379.208 107.951 408.161C105.136 410.974 102.321 413.788 99.463 416.601C100.372 416.168 101.239 415.778 102.105 415.346ZM110.593 87.7691C105.569 110.837 112.888 133.298 117.435 155.976C118.605 127.715 122.372 98.7619 128.175 71.9291C132.679 51.1554 140.777 27.3954 157.191 13.0268C132.376 26.4865 116.136 62.4078 110.593 87.7691ZM158.836 16.0563C119.687 49.2078 127.136 116.982 121.593 166.926C132.419 138.059 142.293 109.408 146.321 77.7285C148.616 59.8544 150.348 34.8826 158.836 16.0563ZM162.214 87.7259C162.821 81.2773 163.254 74.8288 163.643 68.3803C157.797 105.513 149.872 142.43 128.695 172.768C152.687 151.648 159.226 120.315 162.214 87.7259ZM121.116 178.827C122.329 177.962 123.455 177.096 124.624 176.187C124.581 175.971 124.581 175.755 124.711 175.538C154.376 123.041 156.888 67.0819 170.832 10.2137C170.746 9.34815 170.313 8.8288 169.23 8.74224C168.191 9.34815 167.151 9.95405 166.199 10.5599C153.813 36.4839 150.911 65.7836 147.403 94.1311C143.852 123.214 132.679 151.346 121.116 178.827ZM119.427 330.519C135.754 304.509 135.841 274.517 125.404 245.39C120.727 232.32 113.191 220.375 104.963 209.339C103.144 206.872 92.0143 194.667 83.1364 187.829C111.589 222.409 145.585 285.293 119.644 328.572C119.557 329.221 119.514 329.87 119.427 330.519ZM116.742 330.043C118.128 318.401 118.518 306.629 117.435 294.425C114.794 263.61 100.849 238.639 84.2624 213.407C83.6561 212.455 84.8254 211.46 85.6482 212.282C113.061 241.279 123.108 282.523 120.25 322.383C138.179 276.291 106.695 224.14 79.6286 187.527C79.0656 186.791 79.4553 185.968 80.1049 185.622C79.4553 185.189 78.849 184.843 78.2427 184.497C79.4553 215.961 91.5812 241.322 104.27 270.102C112.845 289.578 119.384 310.178 116.093 331.298C116.266 330.866 116.526 330.476 116.742 330.043ZM93.8331 274.863C93.8331 274.906 93.8331 274.906 93.8331 274.949C99.8094 295.507 104.227 315.934 113.841 335.107C121.636 280.662 67.1996 236.388 75.8176 183.458C73.6956 182.766 72.1798 183.199 71.8334 185.406C67.546 211.2 83.0498 241.106 90.8017 264.995C91.8843 268.285 92.8804 271.574 93.8331 274.863ZM90.0222 277.719C88.7663 273.132 87.3804 268.544 85.9946 263.957C80.538 276.421 74.1286 290.919 74.605 304.466C79.4553 295.464 84.6088 286.548 90.0222 277.719ZM-33.0985 333.246C-33.2285 332.25 -33.7049 331.688 -34.008 331.428C-34.8741 330.736 -36.4332 330.822 -37.2127 331.342C-37.6891 331.688 -37.9922 332.164 -38.0788 332.553C-38.2953 333.808 -37.8623 335.02 -37.2993 336.232C-36.693 337.53 -35.3505 338.569 -33.9214 338.872L-33.7914 338.439C-33.6182 337.92 -33.1419 337.53 -32.6222 337.271C-32.9253 335.929 -32.9253 334.587 -33.0985 333.246ZM-18.7207 304.206C-18.8073 303.037 -19.457 302.475 -20.02 302.172C-22.2719 301.003 -25.3033 301.609 -27.6852 302.951C-30.197 304.379 -30.7167 306.803 -29.3742 309.486C-27.5553 313.165 -24.6105 312.645 -22.2286 310.698C-22.2719 310.611 -22.3152 310.525 -22.3585 310.438C-23.0947 309.053 -21.3625 308.014 -20.2365 308.664C-19.7168 307.971 -19.2404 307.235 -18.894 306.543C-18.764 305.764 -18.6774 304.985 -18.7207 304.206ZM24.5859 342.94C27.011 342.031 28.3535 339.781 29.0464 337.401C28.4834 337.877 27.7905 338.266 26.8811 338.439C26.015 338.612 25.1921 337.66 25.5386 336.795C26.3181 334.847 27.1843 333.809 25.3221 332.337C23.7197 331.082 21.3812 330.606 19.5623 331.601C16.6608 333.116 18.1332 339.521 19.4324 341.469C20.6017 343.287 22.5938 343.676 24.5859 342.94ZM3.62546 151.648C3.10577 151.995 2.6727 152.384 2.19632 152.73C1.59003 154.635 1.11368 156.582 0.723938 158.53C2.10974 156.02 3.62549 153.639 5.40103 151.389C5.01129 151.043 4.49158 151.043 3.62546 151.648ZM3.75537 158.833C2.28296 161.386 0.94043 164.026 -0.142242 166.753C-1.05167 195.62 19.9953 226.824 30.5189 251.449C36.755 266.034 45.2431 281.658 51.1761 297.714C51.3926 297.368 51.5659 297.022 51.7824 296.719C54.6406 267.506 32.9874 246.948 19.1725 223.405C7.82623 204.016 -0.661896 181.251 3.75537 158.833ZM30.5622 213.364C23.763 201.116 17.0072 188.911 11.464 176.058C9.29861 171.037 7.69626 165.844 6.35376 160.521C6.26715 160.088 6.18057 159.655 6.13724 159.179C0.680603 193.629 20.9914 220.721 39.0936 248.29C47.9281 261.706 54.4674 276.031 54.3375 291.785C64.2547 266.856 42.0384 234.051 30.5622 213.364ZM51.306 309.01C52.3021 310.698 53.2115 312.386 53.8611 314.247C47.9281 287.154 31.5582 259.542 20.6017 236.994C11.8104 218.904 -0.575287 196.139 -2.6973 174.153C-8.97678 196.442 -5.51224 223.188 2.97586 242.664C13.7592 267.376 37.0582 285.293 51.436 307.841C51.7391 308.274 51.5659 308.707 51.306 309.01ZM8.21594 274.084C17.7434 282.004 31.6448 288.928 41.9518 298.104C25.0189 277.2 3.19241 258.33 -4.03979 232.017C-9.40982 212.412 -10.7957 186.964 -3.04376 166.58C-3.00046 165.022 -2.91385 163.464 -2.74063 161.906C-15.1696 188.782 -11.4019 217.302 -1.61462 245.304C-1.31149 246.212 -2.48077 246.732 -2.95712 245.909C-18.0278 218.254 -17.3782 183.458 -1.87448 156.323C-1.83115 156.193 -1.83118 156.063 -1.78787 155.933C-34.7009 185.449 -22.705 248.29 8.21594 274.084Z" fill="white"/>
<path d="M242.548 106.552C242.029 106.595 241.552 106.292 241.292 105.903C241.249 105.946 241.206 105.989 241.162 105.989C237.958 108.11 235.186 105.73 233.974 102.7C232.371 98.6321 232.761 93.6551 237.611 92.4C240.989 91.5344 245.19 93.482 247.139 96.2085C249.78 100.06 247.615 106.336 242.548 106.552ZM239.43 96.7711C238.607 96.6846 238.044 96.8577 237.785 97.1174C237.611 97.2472 237.611 97.2039 237.481 97.7233C237.481 97.68 237.395 98.5888 237.438 98.9784C237.525 99.9305 238.131 103.263 239.17 102.873C240.903 102.268 242.159 100.104 242.895 98.3292C242.029 97.5069 240.643 96.901 239.43 96.7711Z" fill="white"/>
<path d="M183.391 123.82C183.088 124.296 182.698 124.816 182.309 125.335C182.222 126.59 181.919 127.889 181.356 128.927C180.88 129.836 179.667 129.403 179.277 128.711C179.104 128.451 179.017 128.105 178.887 127.759C178.368 127.845 177.848 127.845 177.242 127.586C174.384 126.46 174.08 123.214 174.167 120.574C174.21 119.449 175.423 118.281 176.635 118.497C178.757 118.887 180.663 119.839 181.659 121.786C182.742 121.224 184.214 122.522 183.391 123.82Z" fill="white"/>
<path d="M164.77 234.96C168.927 237.47 168.494 244.828 164.423 247.121C163.73 247.511 162.691 246.948 162.604 246.169C162.604 246.126 162.604 246.126 162.604 246.083C161.132 247.814 159.27 248.896 156.974 248.117C154.679 247.338 153.207 243.962 152.774 241.755C152.384 239.851 152.947 237.73 154.246 236.302C156.931 233.402 161.435 232.926 164.77 234.96ZM157.927 238.812C157.234 239.331 156.974 239.807 156.931 240.803C156.888 241.928 157.841 243.702 158.663 244.395C159.573 245.174 161.652 242.014 163.037 239.634C162.908 239.288 162.734 238.985 162.561 238.855C161.392 237.816 159.226 237.816 157.927 238.812Z" fill="white"/>
<path d="M175.163 266.207C174.34 267.635 172.175 267.159 170.919 266.813C170.01 266.553 169.49 265.342 169.88 264.519C170.529 263.091 171.785 262.485 172.565 261.273C173.691 259.499 176.592 261.1 175.813 263.005C175.769 263.134 175.639 263.264 175.596 263.437C175.553 263.74 175.639 264.303 175.639 264.563C175.639 265.169 175.466 265.688 175.163 266.207Z" fill="white"/>
<path d="M89.7625 333.03C89.1562 333.895 88.3767 334.631 87.2941 335.064C84.8689 335.972 82.054 334.761 80.4083 332.943C77.5934 329.784 80.4949 325.672 83.2232 323.725C86.0382 321.734 90.1956 320.003 93.4436 321.864C95.0893 322.772 95.7388 324.763 95.5656 326.581C95.3491 328.961 93.7034 332.64 91.3649 333.506C90.8019 333.679 90.1523 333.506 89.7625 333.03ZM90.5854 327.144C90.6287 326.884 90.672 326.581 90.672 326.321C90.7153 325.975 90.7153 326.278 90.672 326.018C90.6287 326.018 90.672 326.018 90.6287 326.018C90.5854 326.018 90.4554 326.018 90.3688 326.018C90.1523 326.018 89.8925 326.062 89.6759 326.105C88.8964 326.235 87.987 326.668 86.9476 327.23C86.7744 327.317 86.298 327.663 85.8216 328.009C85.5618 328.182 84.6957 329.091 84.9122 328.832C84.7823 329.005 84.6524 329.178 84.5224 329.351C84.4358 329.481 84.3925 329.524 84.3492 329.567C84.3492 329.567 84.3492 329.567 84.3059 329.654C84.2626 329.74 84.2193 329.913 84.176 330C84.6524 330.433 84.9555 330.519 85.4752 330.779C86.861 331.471 88.1602 329.221 88.9397 328.312C89.3728 327.836 89.8925 327.793 90.3255 328.009C90.4554 327.706 90.5421 327.403 90.5854 327.144Z" fill="white"/>
<path d="M-0.618645 370.336C0.247488 360.858 2.19626 350.904 1.89311 341.253C1.58997 341.685 1.24352 342.118 0.810449 342.551C0.0309296 343.373 -1.44147 342.681 -1.57139 341.642C-1.57139 341.512 -1.57139 341.382 -1.57139 341.253C-2.61075 340.95 -3.4336 340.084 -3.21707 338.699C-3.04384 337.574 -2.8273 336.449 -2.56746 335.41C-6.03199 332.9 -6.6816 328.053 -4.60288 324.417C-2.91392 321.388 0.810466 318.704 4.44822 319.267C9.34187 320.003 10.0348 326.235 7.5663 329.697C7.47969 329.827 7.39308 329.87 7.26316 329.914C6.78679 331.818 5.79073 333.765 4.44822 335.107C5.14113 347.052 2.54272 358.521 0.983679 370.509C0.85376 371.461 -0.705257 371.331 -0.618645 370.336ZM4.62145 324.85C4.57815 324.677 4.14507 324.114 4.27499 324.244C4.23169 324.201 4.01514 324.071 3.92853 324.028C3.84192 324.028 3.75531 323.984 3.6687 323.984C3.0191 323.898 2.45611 324.114 1.63329 324.547C0.853766 324.936 0.160855 325.672 -0.402131 326.408C-1.44149 327.793 -1.5281 329.308 -0.835191 330.693C-0.445431 329.957 -0.0123663 329.264 0.55062 328.572C1.37345 327.533 2.97578 327.706 3.58207 328.832C3.92852 329.005 4.18838 329.221 4.44822 329.481C4.79467 328.832 5.09781 328.226 5.31434 327.75C5.14111 326.711 4.96791 325.759 4.62145 324.85Z" fill="white"/>
<path d="M205.781 178.438C207.557 174.846 212.623 176.793 211.627 180.645C211.584 180.818 211.541 180.991 211.497 181.165C213.23 181.597 214.702 182.506 215.135 184.411C215.742 186.921 213.836 188.738 211.887 189.907C210.675 190.643 209.202 190.816 207.773 190.513C206.214 193.239 204.222 195.663 201.58 197.567C200.628 198.26 199.242 197.394 199.675 196.226C201.061 192.504 202.446 188.825 203.702 185.06C203.746 184.108 203.962 183.112 204.265 182.117C203.183 181.684 202.1 181.251 201.017 180.905C194.651 178.698 187.679 179.52 181.313 177.356C180.187 176.967 180.273 175.019 181.529 174.932C189.498 174.37 198.246 175.322 205.781 178.438Z" fill="white"/>
<path d="M-16.4253 414.653C-16.512 414.956 -16.5553 415.172 -16.5986 415.432C-13.6537 416.168 -10.7522 418.289 -8.41363 420.366C-5.38217 423.092 1.15713 428.892 1.6335 433.35C1.80673 434.908 -0.488511 435.34 -0.791657 433.782C-1.22472 431.445 -6.2483 427.42 -7.93726 425.646C-9.19315 424.348 -14.3033 419.111 -17.7679 418.505C-18.2876 419.241 -18.9805 419.89 -20.193 420.366C-20.4096 420.452 -20.6261 420.409 -20.8859 420.366C-22.1418 421.621 -24.9134 421.058 -24.4371 418.894C-23.8308 416.254 -22.6615 414.35 -21.0592 412.143C-19.2403 409.46 -15.7757 411.883 -16.4253 414.653Z" fill="white"/>
<path d="M81.1877 370.552C81.1877 369.081 81.0578 368.129 81.6208 366.657C81.7074 366.441 81.7074 366.311 81.794 366.138C81.4908 365.878 81.1877 365.662 80.9279 365.402C76.3374 362.978 70.2311 364.233 65.3375 364.536C64.3847 364.58 63.432 363.281 64.4713 362.632C68.1091 360.295 73.0028 359.689 77.5933 360.382C77.983 359.256 79.1956 358.304 80.4515 358.304C84.3924 358.261 87.6404 360.209 88.3333 364.277C88.9829 368.129 86.4278 371.504 82.7467 371.98C81.794 372.067 81.1877 371.418 81.1877 370.552Z" fill="white"/>
</g>
<defs>
<clipPath id="clip0_1_8221">
<rect width="362" height="660" fill="white" transform="matrix(-1 0 0 1 304 0)"/>
</clipPath>
</defs>
</svg>
