<svg width="279" height="641" viewBox="0 0 279 641" fill="none" xmlns="http://www.w3.org/2000/svg">
<g clip-path="url(#clip0_1_8219)">
<path fill-rule="evenodd" clip-rule="evenodd" d="M126.33 0.944769C121.045 2.31674 119.525 2.86443 114.493 5.21677C112.008 6.38062 107.94 8.04286 105.453 8.91369C99.2263 11.0962 90.4027 15.0999 85.3952 18.0136C73.3693 25.0158 66.2031 28.3978 59.1081 30.427C54.5306 31.736 40.9405 36.49 39.023 37.4539C33.6894 40.1322 27.4765 46.6689 25.0494 52.154C23.4578 55.7523 23.1538 57.505 23.1428 63.127C23.1373 65.9887 23.2442 69.902 23.3784 71.8216L23.6249 75.3132H17.686C11.1964 75.3132 8.99117 75.6062 5.75871 76.896C3.37819 77.8463 1.35927 79.8207 0.6799 81.8663C-0.470639 85.325 1.1182 92.7928 4.51229 99.8963C9.08157 109.454 16.5902 117.568 28.3202 125.627C29.9885 126.772 31.4102 127.755 31.4787 127.812C32.1581 128.363 25.8575 134.932 21.7375 137.969C18.2914 140.508 14.1686 144.183 10.1061 148.332C5.78884 152.74 4.42737 154.471 3.27135 157.018C0.699075 162.692 -0.856891 173.794 0.50184 176.784C2.13725 180.382 7.1914 181.45 14.7795 179.802C20.5897 178.54 24.9672 178.572 34.0921 179.944C38.1245 180.55 44.2881 182.094 49.8024 183.879C51.8597 184.545 55.2045 185.539 57.2398 186.087C59.2752 186.637 62.6008 187.617 64.6362 188.267C66.6715 188.916 70.3697 189.904 72.8543 190.463C77.3962 191.484 91.7368 196.003 98.4373 198.522C100.536 199.311 102.883 199.987 104.083 200.151C109.915 200.943 120.193 200.743 123.456 199.776C124.283 199.53 126.552 198.243 128.927 196.671C131.156 195.195 133.668 193.549 134.507 193.018C135.345 192.484 136.885 191.079 137.931 189.893C138.977 188.707 140.651 186.873 141.651 185.816C143.508 183.855 145.719 180.892 145.727 180.358C145.741 179.449 146.201 179.345 147.196 180.021C148.141 180.662 150.275 181.294 151.499 181.294C151.8 181.294 153.285 181.727 154.8 182.253C156.315 182.781 158.076 183.211 158.712 183.211C160.01 183.211 162.358 183.844 163.804 184.586C164.33 184.854 165.895 185.92 167.281 186.952C170.642 189.455 177.219 192.823 178.789 192.845L179.942 192.862L182.52 197.005C185.741 202.181 185.224 201.091 188.141 208.852C192.809 221.257 194.685 229.05 196.244 242.502C198.773 264.341 199.901 276.218 200.241 284.537C200.909 300.891 202.26 321.022 203.273 329.722C204.369 339.123 207.278 355.236 209.281 362.994C211.042 369.818 216.535 388.163 219.71 397.836C221.356 402.841 222.701 407.018 222.701 407.116C222.701 407.215 221.723 405.829 220.526 404.038C218.288 400.686 213.058 394.511 208.64 390.004C207.256 388.593 204.279 385.951 202.019 384.13C199.534 382.128 195.685 378.576 192.294 375.153C189.204 372.039 184.829 367.844 182.569 365.831C180.309 363.818 176.945 360.702 175.093 358.903L171.727 355.636L172.414 355.069C172.792 354.759 173.713 353.185 174.461 351.572C175.208 349.959 176.395 347.692 177.099 346.53C177.803 345.372 178.794 343.45 179.307 342.258C179.816 341.067 180.969 338.592 181.868 336.757C184.139 332.123 184.273 331.655 185.046 325.767C185.993 318.541 186.325 311.76 186.21 301.874C186.097 291.928 186.089 291.893 183.427 289.677C181.405 287.996 180.4 287.549 178.646 287.549C177.011 287.549 175.811 287.933 174.272 288.954C173.477 289.48 173.066 289.622 172.998 289.395C172.943 289.206 172.694 287.7 172.442 286.043C172.19 284.384 171.625 281.955 171.19 280.643C170.067 277.269 167.607 271.968 166.149 269.774C163.785 266.22 158.75 262.115 155.145 260.808C154.197 260.466 151.502 259.866 149.154 259.475C140.402 258.023 138.101 257.147 131.378 252.683C127.215 249.917 125.831 248.811 122.443 245.528C118.027 241.25 116.375 240.174 114.23 240.174C110.444 240.174 109.162 243.014 109.162 251.402C109.162 255.425 109.244 256.246 109.915 258.905C110.329 260.545 110.63 261.926 110.584 261.972C110.537 262.019 109.765 261.865 108.866 261.63C106.521 261.014 104.015 261.241 102.138 262.243C99.9796 263.396 96.5609 266.984 94.7693 269.969C91.4464 275.506 89.8412 277.79 86.8744 281.191C77.2428 292.238 73.6241 299.549 73.2049 308.811C73.0762 311.678 73.1337 312.393 73.6268 314.014C74.8321 317.968 78.5303 322.544 83.3351 326.025L84.0912 326.573L83.579 328.9C83.2968 330.179 82.349 333.323 81.4724 335.883C80.0725 339.972 79.8781 340.793 79.8781 342.653C79.8753 344.627 79.963 344.945 81.1656 347.366C82.6476 350.348 84.5186 352.462 86.4306 353.305C88.0113 354.004 94.6488 355.425 102.955 356.838C108.757 357.829 109.718 358.073 113.203 359.445C115.317 360.277 118.698 361.381 120.711 361.896C123.645 362.649 125.039 363.186 127.721 364.602C131.222 366.45 135.101 368.049 137.742 368.734C138.599 368.956 141.637 369.523 144.497 369.996C151.288 371.116 152.31 371.051 157.342 369.175C159.438 368.392 161.553 367.545 162.043 367.291C164.177 366.182 169.283 360.417 169.283 359.116C169.283 358.914 169.36 358.749 169.456 358.749C169.552 358.749 170.938 360.012 172.54 361.556C174.14 363.098 178.183 366.798 181.525 369.772C184.867 372.748 188.749 376.421 190.152 377.935C192.971 380.972 196.2 383.842 200.394 387.032C204.342 390.034 206.213 391.819 211.108 397.266C217.693 404.591 218.91 406.314 224.18 415.8C226.451 419.886 227.289 422.416 229.399 431.543C232.379 444.45 233.165 449.13 235.439 467.603C236.275 474.381 237.261 482.101 237.633 484.757C240.071 502.187 240.296 527.154 238.277 555.576C238.091 558.172 237.855 560.3 237.751 560.3C237.647 560.3 237.48 559.774 237.381 559.136C237.028 556.88 234.732 547.848 233.891 545.392C233.423 544.028 231.941 540.572 230.599 537.719C228.284 532.79 228.177 532.483 228.511 531.694C228.76 531.105 228.862 529.216 228.856 525.248C228.851 520.45 228.739 518.947 228.089 514.908C227.026 508.316 223.786 496.346 221.693 491.294C220.227 487.75 215.806 479.165 213.867 476.093C212.004 473.14 205.906 464.698 201.852 459.456C197.085 453.298 188.938 445.345 177.633 435.818C166.229 426.209 162.974 423.758 151.066 415.833C143.558 410.835 141.347 409.093 136.276 404.197C134.164 402.157 130.776 398.958 128.74 397.088C120.295 389.322 116.577 385.66 110.797 379.425C103.075 371.089 100.328 368.455 97.7799 366.943C95.9911 365.88 95.5446 365.733 94.1365 365.733C92.723 365.733 92.4545 365.82 91.8793 366.488C90.863 367.671 90.5753 369.205 90.7424 372.579C90.9287 376.355 91.4711 378.978 93.0298 383.669C95.4076 390.817 97.7087 394.837 105.026 404.619C107.617 408.083 111.164 412.826 112.909 415.162C114.654 417.495 116.925 420.379 117.958 421.567C118.991 422.756 126.924 430.415 135.586 438.589C144.248 446.764 153.255 455.28 155.597 457.515C164.555 466.056 173.461 474.392 179.674 480.05C200.159 498.696 203.761 502.483 213.568 515.663C220.742 525.305 222.312 527.874 227.383 538.256C231.423 546.526 232.16 548.602 235.319 560.574C236.055 563.359 236.803 566.15 236.987 566.777C237.261 567.721 237.168 569.663 236.436 578.415C235.954 584.191 235.436 590.763 235.286 593.022C235.135 595.281 234.809 598.425 234.563 600.005C233.76 605.14 234.097 630.591 235.045 636.714C235.39 638.935 235.954 640.89 236.283 641C236.428 641.049 236.491 638.743 236.439 635.471C236.25 624.082 237.565 599.89 238.592 595.87C240.274 589.287 243.737 582.148 248.484 575.466L250.133 573.149L253.467 571.539C260.441 568.171 263.948 567.415 272.692 567.387C284.227 567.349 289.298 566.801 298.028 564.641C306.252 562.606 311.75 560.664 324.874 555.157C343.362 547.402 349.277 544.245 356.103 538.483C357.687 537.147 360.522 534.802 362.404 533.269C364.288 531.735 367.431 528.98 369.389 527.143C371.348 525.308 374.183 522.718 375.69 521.387C379.632 517.906 393.981 503.097 396.232 500.191C397.282 498.835 399.876 495.568 401.993 492.934C408.801 484.461 415.403 474.307 421.991 462.162C426.886 453.142 430.009 445.356 430.883 439.98C431.387 436.897 430.195 434.972 427.943 435.227C425.089 435.547 420.512 440.041 410.296 452.542C402.418 462.181 396 469.216 385.557 479.655C375.95 489.256 373.531 491.453 365.642 497.726C359.122 502.91 355.21 506.656 350.756 511.975C347.765 515.546 339.44 526.568 336.593 530.725C334.906 533.189 330.326 540.931 328.978 543.596C328.233 545.069 326.792 549.248 326.792 549.938C326.792 550.546 326.578 550.655 319.538 553.591C311.109 557.107 307.986 558.274 303.044 559.766C290.786 563.463 284.707 564.402 272.966 564.408C265.331 564.411 261.688 565.021 256.741 567.133C255.721 567.568 254.839 567.878 254.785 567.82C254.727 567.763 257.579 564.723 261.124 561.064C264.668 557.406 268.287 553.586 269.169 552.578C270.259 551.332 271.736 550.113 273.788 548.769C276.891 546.734 277.595 546.375 283.647 543.733C285.605 542.878 287.824 541.799 288.578 541.334C289.331 540.868 291.542 539.644 293.487 538.612C301.107 534.567 305.425 530.867 315.634 519.634C321.817 512.832 322.642 511.736 326.789 504.846C335.881 489.736 341.532 474.408 344.461 456.923C344.839 454.664 345.644 448.872 346.25 444.053C348.638 425.009 350.824 415.761 357.344 397.077C360.653 387.596 361.267 385.589 362.286 380.876C363.289 376.248 363.327 373.072 362.398 371.223C361.497 369.421 360.568 368.775 358.886 368.775C356.037 368.775 352.498 370.845 348.408 374.901C344.242 379.036 340.782 384.004 335.585 393.325C329.671 403.926 323.072 420.932 312.55 452.679C306.715 470.284 304.918 475.12 297.801 492.392C285.392 522.507 281.318 530.295 270.47 544.614C266.339 550.067 264.868 551.756 258.721 558.112C248.805 568.365 244.964 573.286 240.775 581.11L239.091 584.259L239.244 582.342C241.597 552.553 242.088 544.058 242.329 528.945C242.586 512.804 241.91 495.303 240.641 485.266C240.422 483.533 239.682 477.125 238.998 471.026C236.486 448.626 235.401 441.936 231.993 427.789C231.264 424.76 230.999 423.194 231.179 422.975C231.36 422.761 231.346 422.547 231.141 422.342C230.67 421.871 230.503 411.813 230.9 407.886C231.303 403.912 232.289 397.942 233.261 393.602C235.527 383.483 237.505 379.973 249.999 363.881C251.842 361.51 254.486 357.996 255.875 356.077C257.264 354.157 258.535 352.509 258.696 352.415C258.861 352.32 259.735 351.788 260.639 351.232C270.268 345.326 271.336 344.956 280.088 344.488C287.742 344.079 290.632 344.463 297.974 346.867C307.575 350.011 316.815 351.911 322.409 351.895C324.691 351.89 330.191 350.887 332.591 350.041C336.654 348.612 338.911 345.668 340.396 339.873C341.911 333.961 341.497 327.706 339.272 322.876C338.612 321.443 337.985 319.965 337.873 319.589C337.432 318.083 335.862 314.997 334.906 313.754L333.895 312.437L335.583 310.605C340.62 305.136 343.305 299.306 343.68 293.026C343.946 288.615 342.705 285.008 339.85 281.886C337.755 279.591 335.383 278.595 326.655 276.33C314.158 273.088 309.654 272.337 304.006 272.556C296.541 272.847 291.191 275.445 288.249 280.208L287.274 281.79L285.597 280.238C283.318 278.129 280.979 276.661 276.037 274.249C272.341 272.441 271.24 272.05 266.52 270.856C256.919 268.427 254.439 268.197 251.166 269.445C249.44 270.103 247.542 271.601 246.923 272.795C246.005 274.566 245.397 278.562 245.156 284.4C245.024 287.563 244.832 291.876 244.734 293.985C244.589 297.052 244.671 298.857 245.15 303.022C246.188 312.059 246.657 314.181 249.391 322.265C251.355 328.073 252.212 330.05 254.68 334.459C256.908 338.436 257.324 340.051 257.138 344.008C257.058 345.714 256.856 347.541 256.691 348.069C256.352 349.151 253.182 353.634 248.153 360.146C235.672 376.311 233.661 379.449 231.366 386.359C229.651 391.523 228.01 400.746 227.717 406.889C227.621 408.891 227.457 410.432 227.352 410.312C227.248 410.191 226.824 408.863 226.41 407.357C225.996 405.851 224.756 401.845 223.654 398.457C219.721 386.367 214.875 370.246 212.831 362.446C210.335 352.919 207.418 335.73 206.415 324.656C205.353 312.919 205.317 311.533 205.95 307.25C206.273 305.076 206.911 300.215 207.371 296.449C207.832 292.684 208.38 288.856 208.588 287.941C210.327 280.345 215.179 270.806 221.249 263.04C222.307 261.685 226.303 257.059 230.127 252.763C243.392 237.86 245.523 235.078 248.755 228.442C251.322 223.174 252.437 220.115 253.708 214.862C254.374 212.116 255.009 210.051 255.187 210.051C255.36 210.051 257.088 209.268 259.028 208.312C260.967 207.356 263.173 206.431 263.926 206.255C267.079 205.519 271.01 205.124 275.157 205.127C280.236 205.13 283.551 205.434 287.443 206.255C291.87 207.187 294.788 207.069 299.949 205.743C307.816 203.722 311.86 201.433 317.089 196.044C320.1 192.938 320.941 191.577 323.65 185.402C326.806 178.208 327.036 177.617 327.825 174.76C328.893 170.875 328.86 167.413 327.723 164.576C327.266 163.437 326.022 161.219 324.957 159.647C322.642 156.224 322.047 155.101 322.313 154.657C322.425 154.474 323.948 152.412 325.699 150.079C329.898 144.479 331.019 142.794 332.224 140.272C333.21 138.207 333.229 138.103 333.229 134.867C333.229 131.602 333.218 131.545 332.208 129.527C331.517 128.149 330.342 126.555 328.581 124.611C323.365 118.857 322.31 117.57 320.206 114.399C319.029 112.625 316.703 108.481 315.04 105.195C310.945 97.0976 309.693 95.5367 305.655 93.5048C301.269 91.2976 297.061 90.3117 291.865 90.2789C287.298 90.2487 285.567 90.5801 282.414 92.0808C278.362 94.0141 274.308 98.6476 271.574 104.475C269.914 108.01 268.514 111.915 267.514 115.782L266.646 119.142L265.559 118.009C263.153 115.503 259.729 112.712 258.135 111.962C255.82 110.869 253.453 110.453 252.015 110.883C250.218 111.42 249.169 112.767 246.69 117.71C242.619 125.827 239.85 129.387 232.82 135.557C222.959 144.21 218.436 153.302 220.625 160.071C221.293 162.131 224.556 168.555 226.67 171.964C228.884 175.538 231.922 179.232 236.297 183.677C240.685 188.135 241.37 188.957 243.066 191.785C243.772 192.963 244.931 194.628 245.643 195.485C247.583 197.816 249.432 200.943 249.966 202.791C250.289 203.914 250.73 204.708 251.36 205.305C251.867 205.784 252.284 206.425 252.284 206.729C252.284 207.929 249.446 218.814 248.528 221.139C247.994 222.495 246.783 225.206 245.838 227.164C242.635 233.804 240.696 236.343 226.744 252.152C220.427 259.308 217.622 262.816 214.861 267.008C209.133 275.7 205.952 283.77 205.01 292.016C204.564 295.91 204.344 296.953 204.344 295.171C204.344 288.198 203.413 274.216 202.29 264.27C199.463 239.276 198.573 233.248 196.397 224.425C194.661 217.374 190.248 204.519 188.144 200.39C187.347 198.821 184.498 194.354 183.18 192.599C182.191 191.287 182.128 191.101 182.391 190.271C182.547 189.775 182.807 188.395 182.966 187.199C183.462 183.51 182.849 180.834 179.172 170.683C177.816 166.945 177.575 165.51 177.227 159.214C177.079 156.522 176.893 153.641 176.811 152.812L176.663 151.305L178.792 150.544C181.44 149.597 183.109 148.477 184.333 146.828C184.854 146.127 186.284 144.259 187.511 142.677C192.636 136.074 194.406 132.815 197.893 123.54C199.331 119.72 201.323 114.668 202.32 112.315C203.317 109.963 204.616 106.592 205.207 104.826C207.207 98.8475 207.426 97.3249 208.322 83.1178C208.834 74.9681 209.095 72.4323 210.1 65.8655C211.73 55.2183 211.842 48.5694 210.497 42.5749C209.566 38.4179 208.166 34.4006 206.654 31.5416C203.838 26.218 197.14 18.5421 193.798 16.8087C190.746 15.2258 189.467 14.9301 185.717 14.9383C182.635 14.9438 181.917 15.0451 178.542 15.9598C173.888 17.2194 170.124 18.6982 165.793 20.9684C162.676 22.6005 162.424 22.6882 162.169 22.2089C162.018 21.9269 161.259 20.1113 160.487 18.1752C159.714 16.2391 158.917 14.3358 158.715 13.9415C157.893 12.345 154.869 8.39612 153.578 7.23502C146.776 1.12551 144.664 0.282062 135.723 0.109538L129.97 0L126.33 0.944769ZM141.889 3.56822C144.393 4.12412 146.546 5.33179 149.565 7.87582C153.614 11.2907 155.69 14.1332 157.526 18.7694C158.301 20.7274 159.167 22.7128 159.452 23.1838C159.736 23.6548 159.972 24.0985 159.972 24.1724C159.972 24.2463 159.262 24.7721 158.397 25.3417C157.528 25.9113 155.033 27.6393 152.847 29.181C148.516 32.2399 147.176 33.0067 145.667 33.2887C144.801 33.4503 144.464 33.3326 143.023 32.3522C138.882 29.5425 131.378 26.1989 127.36 25.3746C121.01 24.0738 113.444 24.8296 107.31 27.3819C104.705 28.4663 99.544 31.8291 96.1417 34.6607C90.6082 39.2641 83.4365 47.2056 73.3008 59.9504C65.4826 69.7842 59.8231 74.3054 52.9828 76.1867C51.1173 76.6988 50.0983 76.7865 45.8742 76.7865C42.5129 76.7865 40.0722 76.6413 38.2039 76.3264C36.6972 76.0717 33.2319 75.7185 30.5035 75.5405L25.5425 75.2173L25.3562 69.7212C24.9864 58.8742 25.8959 54.6679 29.8077 49.128C32.7799 44.9162 36.689 41.4767 40.6283 39.5982C43.132 38.4042 52.287 35.1947 59.1601 33.097C62.0968 32.2016 66.1045 30.7858 68.0631 29.9533C72.2982 28.1514 80.8861 23.7644 86.921 20.3194C92.1943 17.3098 100.056 13.8101 106.688 11.518C109.4 10.5814 113.592 8.92191 116.002 7.832C120.802 5.6604 122.377 5.09354 127.097 3.84206C130.176 3.026 130.362 3.00957 135.315 3.11911C138.101 3.18209 141.059 3.382 141.889 3.56822ZM189.634 18.6325C193.187 19.7306 195.641 21.8967 200.26 28.0117C206.15 35.8081 208.536 44.6506 207.665 55.4621C207.495 57.5707 207.169 60.5282 206.936 62.0344C205.216 73.2402 204.744 77.8764 204.073 90.1529C203.64 98.0862 202.632 102.249 199.153 110.459C198.09 112.962 195.995 118.293 194.494 122.308C191.472 130.386 189.897 133.473 186.637 137.72C179.868 146.532 180.323 146.039 178.271 146.784C177.32 147.129 176.408 147.463 176.247 147.524C176.085 147.584 175.789 147.143 175.589 146.541C175.28 145.599 175.293 145.218 175.693 143.797C176.375 141.359 176.707 135.305 176.389 131.068C176.238 129.097 176.063 127.3 175.997 127.073C175.781 126.35 174.789 115.864 174.48 111.053C174.315 108.492 174.058 105.595 173.91 104.617C173.126 99.4746 170.839 88.8905 167.755 76.1375C166.59 71.3287 162.939 60.2735 161.328 56.6944C158.26 49.8729 153.499 42.4325 149.094 37.5799L147.152 35.4412L148.475 34.9702C149.203 34.7127 152.499 32.7164 155.8 30.5338C159.101 28.354 161.961 26.5686 162.155 26.5686C162.347 26.5686 162.643 26.3933 162.813 26.1824C163.618 25.1582 171.524 21.36 175.581 20.0483C177.337 19.4814 181.095 18.5065 182.429 18.2738C184.399 17.9342 187.936 18.1094 189.634 18.6325ZM126.456 28.9182C129.357 29.5179 131.866 30.449 135.997 32.4645C140.621 34.721 142.582 36.0409 145.549 38.8889C151.847 44.9409 157.161 54.2051 161.027 65.8682C163.322 72.7965 163.854 74.7627 165.875 83.8051C169.535 100.176 170.308 104.667 170.667 111.601C170.951 117.149 171.666 124.134 172.458 129.127C172.781 131.17 172.858 133.084 172.759 136.657C172.598 142.652 172.34 143.608 170.625 144.615C169.941 145.018 167.604 146.842 165.429 148.668C163.202 150.539 160.638 152.428 159.558 152.992C153.48 156.164 150.001 159.611 147.168 165.274C145.571 168.467 144.453 172.887 144.768 174.755L144.955 175.859L143.801 175.13C141.977 173.98 140.418 173.402 137.843 172.926C134.94 172.389 133.989 171.986 130.187 169.692C128.562 168.711 126.554 167.602 125.724 167.23C119.766 164.543 109.529 160.118 107.37 159.294C105.94 158.746 102.489 157.423 99.7002 156.352C82.3654 149.69 78.8946 148.457 75.5608 147.776C72.4762 147.146 71.6983 146.85 66.9646 144.514C55.6894 138.947 32.832 124.855 24.9015 118.578C19.2611 114.114 13.7495 108.235 10.4047 103.114C6.66544 97.3879 3.59734 88.5043 3.87401 84.1858C3.97263 82.655 4.0959 82.3264 4.89854 81.4994C6.74488 79.5961 10.0239 78.6678 15.7218 78.4405C21.1951 78.2214 32.506 78.7198 37.7903 79.4154C47.3534 80.6696 53.5828 79.9165 59.8422 76.7509C64.858 74.2123 70.1971 69.4255 76.2429 62.0371C91.9642 42.8295 99.8591 35.2139 108.055 31.3444C110.236 30.3148 114.756 28.9839 117.095 28.6799C119.328 28.3896 124.538 28.5211 126.456 28.9182ZM297.62 94.0908C302.505 95.3532 306.197 97.2975 308.085 99.6006C308.633 100.269 310.271 103.183 311.728 106.072C316.133 114.824 318.672 118.562 324.074 124.23C329.553 129.984 330.378 131.361 330.454 134.877C330.52 137.903 329.293 140.135 323.384 147.748C321.395 150.309 318.716 153.795 317.429 155.495C308.698 167.035 298.023 175.686 283.786 182.757C280.398 184.441 276.27 186.292 274.612 186.867C268.895 188.858 265.246 191.043 260.43 195.365L257.718 197.796L257.902 196.46C258.001 195.723 258.809 191.487 259.694 187.045C261.167 179.64 262.581 170.091 264.06 157.557C266.463 137.2 269.049 122.239 271.645 113.654C275.045 102.427 279.71 95.7804 285.479 93.9539C288.504 92.9982 293.61 93.0557 297.62 94.0908ZM257.012 114.276C259.737 115.527 265.983 120.92 265.983 122.018C265.983 122.354 265.745 123.784 265.454 125.194C264.142 131.589 262.022 146.163 260.784 157.333C259.039 173.054 256.99 185.862 253.883 200.444L253.275 203.301L252.966 201.951C252.486 199.853 250.637 196.542 248.317 193.62C247.539 192.64 246.369 190.915 245.717 189.786C244.03 186.864 243.315 185.983 239.4 181.979C233.07 175.503 230.27 171.825 226.895 165.548C223.416 159.075 222.898 157.264 223.6 154.038C224.164 151.429 225.029 149.517 226.931 146.672C229.026 143.531 231.053 141.327 235.439 137.411C242.145 131.422 245.043 127.607 248.906 119.676C250.188 117.039 251.569 114.533 251.969 114.103C252.634 113.389 252.815 113.334 254.135 113.468C254.927 113.55 256.22 113.915 257.012 114.276ZM35.407 130.323C42.0171 134.782 55.1853 142.411 61.3516 145.355C63.6856 146.469 66.8304 147.981 68.3371 148.715C71.7092 150.355 72.0982 150.503 75.191 151.305C77.8893 152.007 84.1843 154.277 93.4024 157.878C96.643 159.143 100.958 160.786 102.99 161.531C107.069 163.023 107.998 163.401 115.18 166.504C117.892 167.676 121.325 169.147 122.81 169.774C124.294 170.401 126.99 171.767 128.803 172.808C132.611 174.996 133.748 175.42 137.202 175.935C138.756 176.168 140.498 176.653 141.747 177.2L143.771 178.09L142.489 179.602C141.785 180.435 140.396 181.987 139.407 183.052C138.419 184.118 136.895 185.854 136.024 186.908C135.153 187.963 134.175 189.028 133.852 189.277C131.614 190.991 123.037 196.394 122.196 196.622C120.199 197.158 112.323 197.457 107.765 197.167C103.883 196.92 103.111 196.783 100.664 195.926C90.5452 192.369 77.5386 188.217 73.6788 187.314C71.1942 186.73 67.4221 185.701 65.2991 185.027C63.1761 184.351 59.7847 183.351 57.7658 182.806C55.7469 182.261 52.1227 181.196 49.712 180.44C41.2117 177.778 35.0974 176.543 26.7013 175.796C22.4251 175.415 19.4008 175.607 14.648 176.557C9.06787 177.674 5.45464 177.469 3.93154 175.946C3.35353 175.368 3.27683 175.045 3.27683 173.139C3.27683 168.925 4.84101 161.876 6.54217 158.42C8.31181 154.824 15.3274 147.472 22.7949 141.381C24.7179 139.812 26.9588 137.769 27.7751 136.841C31.3746 132.744 32.0403 131.868 32.621 130.471C32.958 129.655 33.2812 128.99 33.3333 128.99C33.3881 128.993 34.3222 129.589 35.407 130.323ZM172.781 147.817C173.51 148.452 173.877 150.131 174.222 154.367C174.378 156.3 174.628 159.357 174.778 161.161C175.148 165.63 175.907 169.149 177.397 173.287C180.197 181.075 180.912 184.057 180.632 186.76C180.531 187.746 180.279 188.965 180.071 189.471C179.737 190.285 179.608 190.37 178.939 190.208C178.526 190.109 177.507 189.622 176.679 189.124C175.849 188.625 174.425 187.826 173.515 187.349C172.603 186.87 170.762 185.613 169.426 184.553C168.086 183.493 166.459 182.316 165.807 181.932C164.026 180.889 161.09 179.936 159.641 179.928C158.895 179.925 157.227 179.528 155.668 178.983C154.192 178.468 152.304 177.959 151.474 177.858C149.573 177.619 149.198 177.417 148.464 176.228C148.135 175.7 147.585 175.196 147.239 175.108C146.527 174.93 146.533 174.832 147.431 171.981C148.176 169.612 149.88 166.23 151.428 164.039C154.063 160.307 156.66 158.072 160.928 155.86C162.462 155.063 164.391 153.619 167.366 151.037C169.7 149.011 171.751 147.348 171.921 147.343C172.094 147.343 172.48 147.554 172.781 147.817ZM321.727 160.403C324.863 164.924 325.888 167.608 325.589 170.519C325.321 173.139 324.203 176.647 322.423 180.459C321.538 182.349 320.3 185.068 319.672 186.5C318.119 190.036 316.541 192.314 313.92 194.82C309.682 198.867 305.326 201.195 298.872 202.863C294.391 204.021 291.81 204.114 287.865 203.26C283.811 202.383 278.954 202.027 273.056 202.178C265.304 202.375 262.217 203.101 257.516 205.826L255.763 206.841L255.941 205.727C256.094 204.774 256.535 204.199 259.003 201.734C265.685 195.063 269.38 192.585 276.039 190.304C279.157 189.236 288.849 184.523 292.583 182.258C296.741 179.736 304.869 173.799 307.931 171.047C310.86 168.415 315.443 163.483 318.19 160.003C319.053 158.91 319.834 158.02 319.922 158.026C320.012 158.028 320.823 159.099 321.727 160.403ZM116.257 244.065C116.717 244.378 118.575 246.081 120.382 247.85C123.738 251.131 125.508 252.527 130.754 256.035C136.29 259.738 139.928 261.134 147.502 262.465C149.762 262.859 152.346 263.396 153.244 263.654C155.477 264.292 158.586 266.381 161.123 268.947C163.018 270.864 163.443 271.499 165.152 275.005C167.782 280.397 168.571 282.932 169.434 288.782C170.475 295.839 170.412 299.919 168.987 318.357C168.201 328.503 167.922 335.289 167.916 344.331L167.911 352.235L165.651 350.222C159.627 344.857 156.709 341.508 152.759 335.434C148.116 328.295 145.001 322.188 141.325 313.017C138.928 307.039 137.372 303.756 134.635 298.914C133.699 297.255 131.789 293.744 130.389 291.109C127.017 284.753 125.338 281.903 122.149 277.13C117.12 269.599 115.295 265.751 113.477 258.818C112.594 255.457 112.496 254.726 112.468 251.265C112.408 243.589 113.238 242.014 116.257 244.065ZM109.699 264.371C111.49 265.212 111.921 265.735 113.008 268.394C114.208 271.321 115.035 272.764 118.92 278.715C122.311 283.907 123.714 286.372 130.573 299.188C134.792 307.072 135.789 309.194 138.462 316.029C141.506 323.798 144.903 330.264 150.001 337.992C154.167 344.304 156.794 347.262 163.941 353.664L164.763 354.401L163.257 354.258C162.426 354.179 160.147 353.971 158.189 353.798C152.099 353.259 147.05 352.287 142.708 350.822C140.522 350.082 137.627 349.148 136.271 348.743C131.389 347.292 118.947 341.379 113.896 338.115C109.833 335.486 108.77 334.958 101.459 331.915C90.7835 327.476 85.5924 324.428 81.1902 320.022C78.9658 317.796 78.2207 316.837 77.3551 315.082L76.2785 312.905L76.2895 309.468C76.3169 301.129 79.7027 294.149 88.9892 283.305C91.9669 279.827 93.7831 277.195 96.6869 272.159C98.6866 268.69 101.747 265.22 103.62 264.292C105.256 263.484 107.883 263.519 109.699 264.371ZM260.778 273.2C262.51 273.57 265.528 274.287 267.49 274.794C274.678 276.653 283.395 281.448 284.94 284.395C285.403 285.277 285.397 285.309 284.436 287.306C282.551 291.233 280.242 296.797 277.768 303.386C275.62 309.098 270.377 322.002 266.495 331.129C264.986 334.673 261.477 341.374 261.165 341.3C261.028 341.27 260.828 340.656 260.724 339.936C260.419 337.871 259.477 335.577 257.554 332.216C255.428 328.5 254.146 325.447 252.289 319.661C250.517 314.132 249.725 310.32 248.98 303.706C248.405 298.616 248.391 297.947 248.681 289.466C248.922 282.445 249.106 279.961 249.561 277.702C249.876 276.127 250.254 274.618 250.396 274.347C250.686 273.805 252.516 272.789 253.793 272.458C254.9 272.173 257.001 272.395 260.778 273.2ZM312.276 276.9C315.593 277.439 327.258 280.276 331.999 281.695C334.898 282.563 336.634 283.647 337.917 285.392C339.429 287.451 340.023 289.239 340.042 291.794C340.089 297.797 337.144 303.914 331.389 309.775C328.712 312.5 326.748 314.093 321.354 317.919C312.783 323.998 306.693 327.197 298.168 330.1C293.177 331.798 286.797 334.465 279.338 337.97C277.417 338.874 274.497 340.092 272.851 340.678C271.204 341.267 268.402 342.516 266.627 343.458L263.397 345.169L264.046 344.085C266.252 340.413 268.717 335.527 270.473 331.365C275.659 319.05 279.302 310.114 281.746 303.706C287.29 289.173 291.347 281.21 294.24 279.172C296.201 277.795 299.724 276.601 302.962 276.218C304.625 276.021 308.726 276.322 312.276 276.9ZM179.493 289.716C180.389 290.055 182.747 292.112 183.251 292.994C183.881 294.092 183.972 306.352 183.405 313.428C182.996 318.51 181.684 327.871 181.024 330.406C180.865 331.006 180 333.041 179.096 334.925C178.194 336.806 177.085 339.271 176.63 340.402C176.178 341.53 175.159 343.565 174.365 344.92C173.57 346.273 172.579 348.157 172.157 349.102C171.738 350.047 171.349 350.775 171.294 350.72C171.02 350.446 171.844 328.421 172.422 320.548C173.441 306.686 173.757 299.84 173.578 295.442L173.414 291.422L174.43 290.814C176.356 289.658 178.257 289.247 179.493 289.716ZM332.98 316.07C333.443 316.755 334.144 318.102 334.542 319.066C338.196 327.969 337.881 326.742 337.873 332.049C337.864 337.148 337.585 338.698 336.084 342.009C334.484 345.534 333.284 346.432 328.712 347.525C321.477 349.252 312.15 348.02 298.7 343.556C293.495 341.831 290.276 341.185 285.841 340.985L282.006 340.813L284.197 339.887C285.403 339.378 288.175 338.173 290.353 337.206C292.533 336.239 296.664 334.645 299.53 333.665C305.165 331.734 311.186 328.944 315.837 326.104C319.289 323.998 326.362 318.987 329.397 316.492C330.602 315.504 331.712 314.723 331.862 314.762C332.016 314.8 332.517 315.389 332.98 316.07ZM89.8384 330.056C91.5725 331.039 96.2513 333.241 100.237 334.949C105.727 337.302 108.253 338.551 110.647 340.09C116.178 343.65 117.772 344.531 124.492 347.73C130.622 350.646 137.178 353.136 144.883 355.466C147.228 356.175 154.422 357.378 156.364 357.386C157.216 357.388 158.778 357.517 159.832 357.673C162.358 358.046 164.851 358.048 165.807 357.679L166.577 357.38L165.807 358.796C165.01 360.261 161.665 363.892 160.588 364.462C160.251 364.643 158.219 365.412 156.068 366.176C152.258 367.529 152.102 367.559 149.834 367.417C148.552 367.335 145.346 366.902 142.711 366.453C137.312 365.535 133.857 364.358 128.603 361.647C126.508 360.568 124.839 359.924 123.125 359.541C120.64 358.985 117.481 357.994 112.441 356.186C110.441 355.469 108.225 354.976 104.223 354.351C97.4238 353.294 91.3533 352.079 89.0413 351.315C86.7101 350.54 85.2664 349.176 83.7844 346.344C82.1737 343.263 82.1873 341.85 83.8912 335.996C84.5733 333.649 85.2226 330.779 85.3294 329.62C85.5239 327.547 85.5376 327.517 86.1101 327.89C86.4279 328.098 88.1071 329.073 89.8384 330.056ZM100.443 373.08C101.437 374.008 105.36 378.097 109.162 382.163C112.964 386.23 116.638 390.05 117.325 390.653C119.468 392.531 129.22 401.68 133.816 406.122C139.531 411.648 142.002 413.606 150.14 419.059C161.616 426.745 164.021 428.583 175.86 438.68C183.747 445.408 193.573 454.927 197.249 459.391C200.222 463.003 209.125 475.224 211.237 478.585C213.261 481.81 216.926 488.813 218.46 492.386C220.175 496.374 223.695 509.124 224.739 515.116C225.676 520.494 226.095 523.605 225.876 523.605C225.813 523.605 225.553 522.956 225.298 522.167C224.41 519.399 212.354 495.87 210.111 492.521C207.807 489.087 205.607 486.584 200.476 481.569C196.748 477.922 194.294 475.838 189.144 471.947C180.939 465.747 180.69 465.528 171.195 456C163.262 448.037 157.249 442.385 149.519 435.621C146.867 433.301 143.401 429.859 140.435 426.595C137.797 423.695 134.318 420.151 132.704 418.722C128.965 415.411 123.212 409.463 120.952 406.566C119.988 405.333 118.136 402.669 116.838 400.648C115.539 398.627 113.43 395.527 112.151 393.761C110.874 391.994 108.609 388.642 107.118 386.312C105.628 383.982 103.56 380.863 102.524 379.381C100.473 376.451 98.4538 373.397 97.0676 371.141L96.1856 369.703L97.4128 370.547C98.084 371.012 99.4482 372.151 100.443 373.08ZM94.6323 372.984C94.7282 373.282 96.9225 376.706 99.5139 380.591C102.103 384.477 104.963 388.823 105.864 390.25C106.768 391.674 108.48 394.193 109.669 395.847C110.858 397.499 112.907 400.538 114.224 402.6C115.539 404.66 117.301 407.25 118.139 408.357C120.385 411.328 125.313 416.526 130 420.866C132.274 422.972 136.035 426.819 138.356 429.415C141.24 432.644 144.437 435.796 148.464 439.386C156.937 446.942 159.92 449.781 169.286 459.226C177.863 467.877 179.561 469.367 188.051 475.674C192.162 478.73 193.962 480.318 198.893 485.244C205.347 491.691 207.371 494.328 210.149 499.89C211.746 503.088 217.025 513.141 218.789 516.348C220.318 519.119 220.033 518.81 215.521 512.788C206.432 500.657 202.279 496.289 182.983 478.554C177.835 473.828 169.272 465.749 158.345 455.319C156 453.081 148.409 445.876 141.478 439.31C120.303 419.25 120.059 418.993 113.4 409.835C111.545 407.283 108.705 403.46 107.088 401.341C103.322 396.406 100.577 392.186 98.8866 388.736C96.6376 384.14 94.7392 378.056 94.1201 373.469C93.9776 372.39 94.3365 372.05 94.6323 372.984ZM359.223 373.058C359.338 373.477 359.226 373.811 358.867 374.109C357.61 375.156 351.222 384.702 349.811 387.64C345.31 397.014 343.653 400.722 342.527 403.934C341.815 405.966 340.33 409.808 339.231 412.47C338.13 415.132 336.413 419.565 335.413 422.328C334.413 425.089 332.753 429.626 331.72 432.414C330.69 435.199 329.148 439.449 328.299 441.862C327.447 444.272 325.17 450.247 323.239 455.143C321.308 460.037 318.927 466.075 317.949 468.562C316.971 471.046 315.097 475.545 313.783 478.557C312.47 481.569 310.662 485.82 309.764 488.005C307.414 493.728 305.797 496.905 302.65 501.99C301.118 504.466 298.393 508.891 296.596 511.829C293.815 516.364 289.109 523.331 288.824 523.331C288.775 523.331 289.301 522.129 289.988 520.661C293.166 513.886 297.004 504.978 301.466 494.029C308.948 475.671 310.75 470.714 316.273 453.273C323.392 430.785 329.855 413.048 334.851 402.291C338.01 395.486 343.056 386.934 346.847 381.955C351.553 375.777 358.588 370.717 359.223 373.058ZM357.646 384.14C357.265 385.611 355.523 391.009 353.772 396.129C348.882 410.438 346.11 420.524 344.475 429.949C344.097 432.132 343.288 437.987 342.68 442.957C340.338 462.11 338.536 470.706 334.569 481.649C331.953 488.873 325.115 502.201 320.352 509.365C318.429 512.257 312.575 518.851 306.362 525.125C301.77 529.758 297.618 532.844 292.552 535.378C290.972 536.169 288.753 537.349 287.622 537.998C286.493 538.647 283.904 539.877 281.869 540.734C276.365 543.048 276.711 542.982 277.987 541.476C278.593 540.759 280.157 539.124 281.463 537.845C283.852 535.498 289.942 528.345 292.999 524.289C295.382 521.127 296.883 518.834 301.603 511.145C309.241 498.701 310.18 496.949 313.517 488.963C314.459 486.704 316.429 482.082 317.894 478.694C319.36 475.304 321.475 470.128 322.598 467.193C323.718 464.254 325.877 458.72 327.392 454.894C328.907 451.066 331.106 445.211 332.284 441.884C336.53 429.859 339.719 421.217 341.889 415.846C343.105 412.834 344.877 408.192 345.828 405.536C348.022 399.41 353.405 388.141 356.122 383.993C357.237 382.289 358.193 381.021 358.245 381.177C358.297 381.334 358.026 382.667 357.646 384.14ZM426.475 440.15C426.149 440.788 424.708 443.223 423.276 445.559C414.899 459.204 412.474 462.723 407.631 468.288C406.253 469.868 403.804 472.694 402.188 474.57C400.574 476.443 398.035 479.338 396.547 481.005C395.063 482.67 392.249 486.173 390.296 488.788C388.346 491.403 385.308 495.1 383.549 497.003C381.79 498.907 379.407 501.634 378.254 503.066C374.739 507.429 370.151 512.342 358.708 523.994C348.247 534.649 340.363 542.076 335.421 545.932C333.243 547.635 330.219 549.297 329.896 548.974C329.548 548.629 331.391 544.812 334.081 540.309C337.111 535.232 340.478 530.415 347.104 521.661C354.903 511.356 358.881 507.152 366.817 500.832C374.123 495.01 375.32 493.958 382.377 487.191C393.082 476.925 404.703 464.375 415.096 451.857C420.377 445.496 426.341 438.986 426.883 438.986C426.985 438.986 426.801 439.509 426.475 440.15ZM424.434 450.343C422.645 454.776 418.282 463.038 414.09 469.931C411.398 474.354 404.982 483.881 402.911 486.532C394.386 497.442 390.882 501.464 383.376 508.962C379.152 513.182 373.43 518.667 370.663 521.148C367.896 523.627 364.795 526.412 363.773 527.335C362.752 528.255 360.637 530.04 359.078 531.3C357.52 532.56 354.969 534.663 353.413 535.972C350.748 538.217 346.956 540.912 345.422 541.651L344.738 541.983L345.422 541.391C349.411 537.957 353.797 533.734 357.563 529.706C360.07 527.028 363.609 523.435 365.428 521.721C369.296 518.084 376.345 510.433 380.404 505.468C381.971 503.551 384.489 500.657 386.001 499.033C387.51 497.409 389.877 494.555 391.26 492.69C395.26 487.296 398.49 483.404 408.469 471.955C414.211 465.366 417.86 460.204 423.492 450.693C424.451 449.075 425.273 447.791 425.322 447.837C425.371 447.886 424.971 449.012 424.434 450.343Z" fill="white"/>
</g>
<defs>
<clipPath id="clip0_1_8219">
<rect width="431" height="641" fill="white" transform="translate(0.000244141)"/>
</clipPath>
</defs>
</svg>
