<svg width="66" height="104" viewBox="0 0 66 104" fill="none" xmlns="http://www.w3.org/2000/svg">
<path fill-rule="evenodd" clip-rule="evenodd" d="M49.7955 4.08069C48.9263 3.73893 48.6608 3.66179 47.7276 3.48121C47.2667 3.39239 46.5364 3.21325 46.1046 3.08356C45.0233 2.75925 43.3993 2.42587 42.4129 2.32554C40.0437 2.08528 38.7116 1.83257 37.5257 1.39963C36.7606 1.12027 34.4016 0.411115 34.0392 0.351665C33.0315 0.185905 31.5132 0.466185 30.6246 0.981804C30.0417 1.32012 29.823 1.53232 29.2548 2.31008C28.9656 2.70597 28.5859 3.25885 28.4109 3.53831L28.0931 4.04682L27.2716 3.4491C26.374 2.79597 26.0394 2.61462 25.4623 2.46798C25.0372 2.36004 24.559 2.43038 24.2588 2.6454C23.751 3.00876 23.218 4.20322 22.9714 5.52892C22.64 7.31281 22.8607 9.1926 23.6708 11.4897C23.7861 11.8161 23.8837 12.0954 23.8874 12.1103C23.9259 12.2549 22.3921 12.5309 21.5161 12.537C20.7836 12.5418 19.8429 12.636 18.8628 12.8019C17.8212 12.9782 17.4584 13.081 17.0418 13.3174C16.114 13.8446 14.7797 15.226 14.6662 15.777C14.5297 16.4401 15.1211 17.0968 16.3369 17.6321C17.2678 18.0419 17.87 18.4871 18.9938 19.5955C19.4906 20.0852 20.1874 20.9194 20.7702 21.7218C20.9876 22.021 21.3501 22.4954 21.5764 22.7761C21.8024 23.0572 22.1636 23.5277 22.3797 23.8225C22.5958 24.1172 23.0077 24.6264 23.295 24.9538C23.8203 25.5525 25.3484 27.6217 26.0213 28.6451C26.232 28.9656 26.4885 29.2955 26.6379 29.4391C27.3648 30.1357 28.8066 31.1424 29.3554 31.3368C29.4946 31.386 29.9381 31.4359 30.4251 31.4572C30.8823 31.4771 31.3957 31.502 31.5651 31.5127C31.7349 31.5231 32.0895 31.4834 32.3537 31.4245C32.618 31.3655 33.0345 31.2798 33.2793 31.234C33.7339 31.1493 34.3383 30.9613 34.3933 30.8881C34.4868 30.7636 34.561 30.7955 34.6303 30.9892C34.6965 31.1731 34.9279 31.4755 35.0972 31.5988C35.1389 31.6291 35.3007 31.8385 35.4572 32.0638C35.6135 32.2895 35.8138 32.5263 35.9017 32.5903C36.0813 32.7209 36.3422 33.0449 36.4675 33.2932C36.5132 33.3834 36.6222 33.6884 36.7098 33.9709C36.9224 34.6559 37.4926 35.7845 37.7075 35.9455L37.8654 36.0639L37.8043 36.8973C37.7282 37.9385 37.7664 37.7354 37.3877 39.1042C36.7828 41.2926 36.2568 42.5611 35.1164 44.5815C33.2647 47.8615 32.2236 49.6205 31.432 50.8072C29.8759 53.1401 28.0335 56.0648 27.2967 57.3721C26.5006 58.7848 25.2788 61.3098 24.7738 62.5861C24.3295 63.7088 23.24 66.803 22.7041 68.4625C22.4273 69.3217 22.1923 70.0356 22.1824 70.0493C22.1725 70.063 22.1769 69.7726 22.1918 69.404C22.2201 68.7144 22.1193 67.3326 21.9625 66.2634C21.9133 65.9288 21.7678 65.263 21.6388 64.7833C21.4969 64.2559 21.3226 63.3765 21.1985 62.5609C21.085 61.8186 20.9028 60.7971 20.7931 60.2908C20.6834 59.7845 20.5322 59.0142 20.4574 58.5786L20.3211 57.7872L20.4733 57.7778C20.5568 57.773 20.8428 57.6475 21.1089 57.4993C21.3749 57.3511 21.7675 57.1564 21.9819 57.0664C22.1961 56.9768 22.527 56.8102 22.718 56.6968C22.9085 56.583 23.3176 56.3561 23.6268 56.1924C24.408 55.779 24.4738 55.7277 25.1741 54.9898C26.0337 54.084 26.763 53.178 27.7436 51.7969C28.7307 50.4077 28.7331 50.4019 28.5881 49.827C28.478 49.3906 28.3839 49.2276 28.1414 49.0512C27.9152 48.8866 27.7106 48.8189 27.3947 48.8055C27.2318 48.7984 27.1606 48.7767 27.1741 48.7384C27.1856 48.7067 27.3029 48.4729 27.435 48.218C27.5675 47.9628 27.7343 47.5695 27.8062 47.3439C27.991 46.7635 28.1851 45.7814 28.2047 45.3309C28.236 44.6005 27.9533 43.5251 27.5864 42.9813C27.4898 42.8385 27.1774 42.4841 26.8921 42.1936C25.8278 41.1117 25.5979 40.7587 25.118 39.4637C24.8209 38.6615 24.741 38.369 24.6033 37.5731C24.4237 36.5361 24.3037 36.2207 24.007 36.0048C23.4834 35.6238 23.0198 35.8882 22.1743 37.0502C21.7688 37.6075 21.6973 37.7296 21.5221 38.1655C21.414 38.4344 21.3165 38.6559 21.3054 38.6577C21.2943 38.6595 21.2029 38.5605 21.1023 38.4374C20.8401 38.1161 20.4705 37.8953 20.1099 37.8453C19.6951 37.7877 18.8606 37.9407 18.3119 38.1739C17.2942 38.6065 16.8419 38.7614 16.0887 38.934C13.6429 39.495 12.4053 40.1438 11.4138 41.3846C11.107 41.7689 11.0429 41.8737 10.9477 42.1479C10.7158 42.817 10.766 43.8232 11.0798 44.7889L11.1291 44.9409L10.8236 45.2118C10.6557 45.3606 10.2077 45.7007 9.82836 45.9672C9.2226 46.3927 9.11289 46.487 8.92545 46.7446C8.72605 47.0178 8.70615 47.0706 8.62847 47.527C8.53285 48.0893 8.57853 48.5705 8.75799 48.8798C8.90622 49.1356 9.68105 50.0005 10.6875 51.0322C11.39 51.7535 11.4985 51.884 11.8421 52.4248C12.0507 52.753 12.4071 53.2461 12.6337 53.52C12.9636 53.9196 13.1023 54.1343 13.3306 54.6004C13.6285 55.2088 14.0038 55.8207 14.3 56.1814C14.3963 56.2984 14.7593 56.6827 15.1072 57.0361C15.9336 57.8748 16.0815 57.9685 16.9667 58.2151C17.3355 58.3175 17.7133 58.4131 17.8068 58.4272C18.2138 58.4883 19.5011 58.2036 19.6322 58.0234C19.6527 57.9953 19.6798 57.9803 19.6931 57.99C19.7064 57.9996 19.7708 58.314 19.8368 58.6893C19.9027 59.0639 20.089 59.9833 20.2515 60.7317C20.4137 61.4804 20.5804 62.3798 20.6218 62.7308C20.7055 63.4352 20.863 64.1578 21.1215 65.0219C21.3649 65.835 21.4437 66.2707 21.5718 67.5179C21.7443 69.1955 21.7389 69.5566 21.5117 71.4012C21.4139 72.1958 21.2748 72.6307 20.6465 74.1074C19.7578 76.1954 19.3948 76.9229 17.8471 79.711C17.2794 80.734 16.6377 81.9027 16.4214 82.3082C15.0016 84.9683 12.516 88.4497 9.37173 92.184C9.08427 92.5249 8.8372 92.796 8.8228 92.7855C8.8084 92.7751 8.83829 92.6854 8.88897 92.5871C9.06755 92.2389 9.66042 90.7567 9.79171 90.3317C9.86438 90.0957 10.0078 89.4677 10.1097 88.9373C10.2864 88.0215 10.3026 87.9683 10.4283 87.8926C10.5221 87.8362 10.7266 87.5846 11.1259 87.0343C11.6087 86.3691 11.7447 86.1495 12.0621 85.5246C12.5795 84.5045 13.3379 82.5201 13.5577 81.6095C13.7122 80.9711 13.966 79.3367 14.0075 78.7159C14.0474 78.1194 14.055 76.3361 14.0225 75.2019C13.9841 73.869 13.6588 71.9474 13.0554 69.4897C12.4467 67.0107 12.2436 66.3437 11.3954 64.0473C10.8606 62.5992 10.7304 62.1354 10.5226 60.9468C10.4361 60.4516 10.2898 59.6674 10.1968 59.2035C9.8115 57.2776 9.66639 56.3962 9.49545 54.9507C9.26759 53.0186 9.15311 52.3771 8.9531 51.9113C8.81278 51.5841 8.76592 51.5187 8.57117 51.377C8.37565 51.2347 8.32968 51.2198 8.18276 51.2545C7.92293 51.3161 7.72857 51.4996 7.41159 51.9838C7.0567 52.5257 6.86727 52.9438 6.61 53.7505C6.21842 54.98 6.13147 55.7685 6.1575 57.86C6.16675 58.6007 6.17933 59.6149 6.18523 60.1141C6.1914 60.6129 6.21484 61.241 6.23788 61.5096C6.26093 61.7781 6.58615 63.6377 6.96026 65.6419C7.33437 67.6461 7.72172 69.7325 7.82043 70.2778C8.19847 72.3626 8.59002 74.4137 8.87907 75.8228C9.83295 80.4676 9.94944 81.3549 9.97733 84.1678C9.99773 86.2257 9.95592 86.7395 9.61079 88.688C9.33603 90.2404 9.22871 90.6021 8.45873 92.5787C8.27992 93.0386 8.10208 93.5005 8.06425 93.6058C8.0069 93.7643 7.79831 94.0239 6.81491 95.1628C6.16604 95.9143 5.43192 96.7727 5.18335 97.0706C4.93477 97.3684 4.57278 97.7711 4.3794 97.9652C3.7508 98.5957 1.23186 102.156 0.745731 103.099C0.569602 103.442 0.450566 103.769 0.484993 103.818C0.500106 103.839 0.741245 103.526 1.06392 103.067C2.18584 101.471 4.80628 98.2514 5.3536 97.7979C6.24986 97.0551 7.44844 96.4146 8.77863 95.9667L9.24026 95.8117L9.8637 95.9242C11.1679 96.1595 11.7291 96.4077 12.9413 97.2839C14.5408 98.4396 15.2973 98.874 16.7227 99.4534C18.0653 99.9991 19.0215 100.284 21.3919 100.841C24.7309 101.628 25.8673 101.786 27.3923 101.674C27.746 101.649 28.3745 101.609 28.7894 101.586C29.2046 101.563 29.9169 101.498 30.3731 101.441C30.8289 101.384 31.4822 101.31 31.8248 101.277C32.7209 101.192 36.1984 100.584 36.8028 100.408C37.0846 100.326 37.7727 100.135 38.3311 99.9828C40.1268 99.4941 42.0635 98.7519 44.199 97.7324C45.7854 96.9754 47.0022 96.2111 47.6649 95.5544C48.0455 95.1779 48.0747 94.7913 47.7376 94.5999C47.3105 94.357 46.2243 94.5189 43.5512 95.2227C41.4898 95.7652 39.8929 96.0938 37.3962 96.489C35.0996 96.8522 34.5436 96.913 32.82 96.9882C31.3956 97.0502 30.4769 97.1754 29.3248 97.4639C28.551 97.6575 26.2885 98.3467 25.4757 98.6361C24.9939 98.8077 23.58 99.4192 23.125 99.6527C22.8734 99.7819 22.2529 100.216 22.1833 100.311C22.122 100.396 22.0814 100.389 20.8117 100.087C19.2914 99.7262 18.7418 99.5735 17.9079 99.2829C15.8396 98.5613 14.9041 98.0796 13.2796 96.8987C12.2233 96.1307 11.6578 95.8487 10.7606 95.6432C10.5758 95.601 10.4226 95.5551 10.4208 95.5416C10.4187 95.5279 11.1195 95.3938 11.9786 95.2437C12.8377 95.0936 13.7233 94.9285 13.9469 94.8777C14.2233 94.8148 14.5504 94.7946 14.9697 94.8148C15.6041 94.8453 15.7377 94.8665 16.8411 95.1094C17.1981 95.1882 17.6138 95.262 17.7649 95.2733C17.916 95.2847 18.3452 95.3376 18.7183 95.3903C20.1801 95.597 21.1502 95.5189 23.6947 94.9903C25.2356 94.6701 25.4601 94.6014 26.7283 94.0643C29.5091 92.8859 31.8357 91.3313 34.0033 89.2037C34.2834 88.9288 34.9786 88.2075 35.5482 87.6007C37.7982 85.2029 39.0327 84.1418 41.818 82.2095C43.2314 81.2291 43.5186 81.0128 44.1346 80.4625C44.7398 79.9222 45.0653 79.486 45.1232 79.1365C45.1802 78.7961 45.1169 78.6131 44.8842 78.4439C44.4901 78.1571 43.7919 78.0877 42.8174 78.238C41.8242 78.3915 40.8449 78.7315 39.1865 79.4998C37.2999 80.3732 34.6729 82.0649 30.0173 85.4041C27.4356 87.2558 26.6995 87.745 23.9741 89.4214C19.222 92.3445 17.8735 93.0135 14.9296 93.9054C13.8086 94.245 13.4348 94.331 11.9439 94.5929C9.53874 95.0153 8.51146 95.3105 7.14346 95.9728L6.59298 96.2395L6.80743 95.9894C10.1357 92.0994 11.0598 90.9719 12.6166 88.9024C14.2793 86.6922 15.9499 84.1996 16.7861 82.6815C16.9306 82.4193 17.4742 81.4571 17.9942 80.5433C19.9048 77.1872 20.4291 76.1512 21.3838 73.8484C21.5883 73.3555 21.7095 73.1117 21.7565 73.0996C21.8031 73.0882 21.8227 73.0572 21.815 73.0081C21.7973 72.8954 22.7881 71.4851 23.2389 70.9811C23.6951 70.4711 24.4333 69.7433 25.0054 69.2399C26.3387 68.0661 26.9662 67.7788 30.3164 66.8071C30.8104 66.6641 31.5302 66.4434 31.9158 66.3172C32.3015 66.1911 32.6434 66.0906 32.6752 66.094C32.7076 66.0972 32.882 66.1116 33.0631 66.1255C34.9904 66.2763 35.1754 66.3326 36.4332 67.1486C37.533 67.8624 37.8941 68.2064 38.6672 69.2784C39.6784 70.6802 40.7648 71.8734 41.5402 72.4341C41.8564 72.663 42.7183 73.0778 43.1355 73.2021C43.8415 73.4129 44.4505 73.2323 45.24 72.5789C46.0455 71.9123 46.6187 71.0042 46.798 70.1111C46.8511 69.8463 46.9133 69.5783 46.9356 69.515C47.0265 69.2619 47.1204 68.6764 47.1135 68.4079L47.1065 68.1237L47.5246 68.0398C48.7726 67.7892 49.7317 67.2516 50.4165 66.4195C50.898 65.8351 51.0899 65.2105 51.0098 64.4908C50.9512 63.9619 50.7236 63.5851 49.7447 62.393C48.3429 60.686 47.7957 60.1288 46.9923 59.5907C45.9305 58.8796 44.9285 58.7012 44.0415 59.0648L43.7471 59.186L43.6717 58.8021C43.569 58.2806 43.3934 57.8418 42.953 57.0102C42.6241 56.3879 42.5112 56.2229 41.9787 55.5824C40.8955 54.2796 40.5758 53.9982 39.9971 53.8417C39.6922 53.7591 39.2786 53.7755 39.0726 53.8786C38.7671 54.0317 38.2802 54.524 37.6583 55.3086C37.3213 55.7336 36.86 56.3118 36.6338 56.594C36.3046 57.0043 36.134 57.2625 35.7805 57.8878C35.0132 59.2443 34.864 59.5854 34.4273 60.9805C34.1135 61.9828 34.0328 62.343 33.9297 63.2022C33.837 63.9772 33.7317 64.243 33.307 64.7724C33.1241 65.0008 32.9119 65.2334 32.8359 65.2901C32.6799 65.4058 31.7896 65.7078 30.4375 66.1038C27.0817 67.0871 26.4873 67.3195 25.4733 68.0457C24.7155 68.5886 23.5588 69.7012 22.8991 70.5226C22.684 70.7903 22.5059 70.9873 22.5036 70.9602C22.5014 70.933 22.5765 70.7063 22.6711 70.456C22.7658 70.2057 22.998 69.5258 23.1871 68.9457C23.8617 66.8748 24.8165 64.1537 25.32 62.8676C25.9352 61.2965 27.2644 58.6216 28.242 56.9865C29.2781 55.2535 29.4129 55.0579 29.9321 54.5283C30.196 54.2596 30.7743 53.6504 31.2175 53.1751C31.6607 52.6998 32.1224 52.2246 32.2434 52.1188C33.2498 51.2415 34.8823 50.4084 36.5048 49.9434C36.7877 49.8621 37.8067 49.6235 38.7688 49.4132C42.1057 48.6836 42.6809 48.5126 43.7969 47.9187C44.683 47.4471 45.1456 47.1356 45.8509 46.5359C46.2198 46.2223 46.5158 46.0002 46.5405 46.0182C46.5643 46.0355 46.8824 46.101 47.247 46.1638C47.6116 46.2266 48.0099 46.3203 48.1318 46.3718C48.6422 46.5871 49.2256 46.9281 49.799 47.3459C50.5012 47.8574 50.9291 48.2332 51.3847 48.7387C51.9031 49.3133 52.3185 49.5906 53.166 49.9264C54.4579 50.4382 55.248 50.528 56.5146 50.3077C57.244 50.1805 57.4975 50.0766 58.4948 49.4937C59.6564 48.8147 59.7479 48.7559 60.1449 48.4396C60.6844 48.0088 61.0288 47.526 61.1575 47.0185C61.2091 46.8147 61.2606 46.3822 61.2717 46.0572C61.2966 45.35 61.3275 45.1346 61.409 45.0999C61.443 45.0858 61.8615 44.9534 62.3389 44.8064C63.4842 44.4532 63.809 44.3326 64.2299 44.1046C64.5745 43.9178 64.5876 43.9053 64.9139 43.4568C65.2429 43.0046 65.2472 42.9956 65.3108 42.6142C65.3542 42.3539 65.3523 42.0148 65.3047 41.5682C65.1632 40.2462 65.1471 39.9618 65.1757 39.3107C65.1917 38.9463 65.2876 38.1383 65.3889 37.5157C65.6387 35.9817 65.6229 35.6394 65.2692 34.9515C64.885 34.2044 64.4024 33.6443 63.6869 33.1168C63.0583 32.653 62.7855 32.5247 62.1981 32.4152C61.4428 32.2753 60.4149 32.5092 59.4494 33.0413C58.8634 33.364 58.2761 33.7641 57.7481 34.1992L57.2892 34.5773L57.2531 34.3108C57.173 33.7216 56.9807 32.9904 56.8358 32.7259C56.6257 32.3416 56.3403 32.0457 56.0981 31.9606C55.7954 31.8541 55.5145 31.9351 54.6733 32.3704C53.292 33.0852 52.5501 33.2996 50.9559 33.4469C48.7196 33.6532 47.1775 34.4576 46.7979 35.6157C46.6828 35.9682 46.4864 37.1866 46.4353 37.8718C46.3812 38.5896 46.429 39.4071 46.5861 40.4632C46.7437 41.5225 46.7556 41.7052 46.705 42.2678C46.6841 42.502 46.6765 42.8493 46.6886 43.0397C46.722 43.5578 46.6625 44.1771 46.5501 44.487C46.4816 44.675 46.4626 44.8294 46.4895 44.9756C46.5113 45.093 46.5043 45.2236 46.4737 45.2657C46.3528 45.4319 44.8629 46.6543 44.5017 46.884C44.2911 47.0181 43.8504 47.2718 43.5223 47.4479C42.4099 48.0456 41.8858 48.2021 38.3624 48.9881C36.7673 49.3436 36.0257 49.5473 35.2212 49.8502C33.5527 50.4779 32.2993 51.2758 31.3378 52.3233C30.8835 52.8178 30.748 52.9403 30.9277 52.6933C31.6305 51.7274 32.9112 49.6966 33.7584 48.2056C35.8868 44.4586 36.3713 43.534 36.9598 42.0927C37.4304 40.941 38.1157 38.7161 38.241 37.9322C38.2889 37.6346 38.3451 36.7291 38.3398 36.3533C38.3352 36.0721 38.3453 36.0399 38.4653 35.9515C38.5369 35.8985 38.712 35.7335 38.8546 35.5837C39.295 35.1226 39.4798 34.6902 39.9946 32.9138C40.1839 32.2595 40.2952 32.0365 40.8817 31.1293C41.1326 30.7414 41.3972 30.3236 41.4695 30.2004L41.6008 29.9768L41.972 30.0856C42.4339 30.2209 42.7775 30.2337 43.1131 30.1285C43.2557 30.0838 43.6418 29.9689 43.9711 29.8732C45.3456 29.4743 45.9188 29.201 47.3361 28.267C47.9201 27.8825 48.7049 27.383 49.08 27.1575C49.455 26.932 49.9744 26.5956 50.2343 26.4105C51.1135 25.7836 51.2973 25.5947 52.8533 23.7166C53.7457 22.6392 54.0373 22.3141 54.8383 21.5055C56.137 20.1945 56.8228 19.2847 57.241 18.3189C57.5312 17.6492 57.7425 16.9518 57.8216 16.4036C57.9687 15.3826 57.816 13.6452 57.5285 13.0687C57.2659 12.5422 57.1188 12.3725 56.5992 11.9962C56.1724 11.6868 56.0629 11.6286 55.5039 11.4157C54.7332 11.1218 54.0635 10.9478 53.2356 10.8264C52.6399 10.7388 52.5962 10.7256 52.6093 10.6335C52.6169 10.5793 52.6949 10.2514 52.7832 9.90544C52.8715 9.55947 52.9531 9.21558 52.9648 9.14055C53.0121 8.83666 52.9918 7.98522 52.9304 7.69451C52.6054 6.16356 52.3983 5.83415 51.179 4.91036L50.3943 4.31621L49.7955 4.08069ZM51.6832 6.01011C51.9735 6.33912 52.1496 6.72312 52.3107 7.37938C52.5265 8.25995 52.5272 8.86273 52.3137 9.68973C52.2236 10.039 52.1432 10.4012 52.1351 10.4951C52.127 10.589 52.1149 10.6742 52.1075 10.6844C52.1 10.6947 51.9489 10.6961 51.7717 10.6879C51.5942 10.6794 51.0748 10.6676 50.617 10.6612C49.7097 10.6491 49.4471 10.6205 49.2099 10.5077C49.0738 10.4429 49.0391 10.3927 48.9386 10.1119C48.6489 9.30577 47.9482 8.08741 47.4754 7.56877C46.7282 6.74949 45.6055 6.09271 44.4999 5.82899C44.0302 5.71704 42.9774 5.66349 42.2213 5.71334C40.9919 5.79416 39.1994 6.17256 36.5128 6.91808C34.4401 7.49357 33.2015 7.55033 32.0657 7.12253C31.7561 7.00572 31.6063 6.9153 31.022 6.49017C30.5571 6.15189 30.2341 5.88613 30.0075 5.65447C29.8247 5.46756 29.381 5.06985 29.0216 4.7706L28.368 4.22654L28.8962 3.44638C29.9385 1.90645 30.4883 1.41526 31.5878 1.04149C32.4235 0.757141 33.3109 0.674071 34.0451 0.810277C34.5118 0.89686 36.1016 1.37362 37.2637 1.77476C37.7602 1.94625 38.4572 2.15346 38.8121 2.23526C39.5795 2.41186 41.2096 2.66843 42.3916 2.79854C43.4243 2.91233 44.8646 3.21875 46.013 3.56868C46.4825 3.71188 47.2295 3.9038 47.6728 3.99543C48.5555 4.17761 48.8305 4.25761 49.6096 4.55926C50.1177 4.7561 50.1451 4.77257 50.8191 5.28621C51.1981 5.57533 51.5872 5.90078 51.6832 6.01011ZM56.7687 12.9023C57.1494 13.412 57.2706 13.9591 57.293 15.2711C57.3218 16.9439 56.7604 18.409 55.5501 19.8191C55.3141 20.0942 54.9709 20.4711 54.7868 20.6563C53.4193 22.0356 52.8868 22.6304 51.5565 24.2636C50.6969 25.3191 50.1379 25.7943 48.8291 26.5816C48.4298 26.8213 47.6025 27.3491 46.9901 27.7541C45.7579 28.5692 45.2289 28.8382 44.3499 29.0986C42.5253 29.6381 42.6379 29.6156 42.279 29.5123C42.1127 29.4644 41.9529 29.4189 41.9244 29.411C41.896 29.4031 41.8995 29.3122 41.9326 29.2086C41.9847 29.047 42.025 28.9956 42.2236 28.839C42.5636 28.57 43.2198 27.7645 43.6029 27.1457C43.7808 26.8573 43.9376 26.5908 43.9515 26.5527C43.9944 26.4308 44.9142 24.8784 45.3564 24.1806C45.5918 23.8094 45.8482 23.3821 45.9263 23.2318C46.3363 22.4404 47.0868 20.7439 47.9457 18.6667C48.2694 17.8834 48.8787 15.9843 49.0167 15.3264C49.28 14.0726 49.3714 12.5626 49.2513 11.4471L49.1983 10.9553L49.4288 11.0232C49.5555 11.0609 50.2125 11.116 50.8891 11.1458C51.5654 11.1761 52.141 11.2166 52.1679 11.2361C52.1944 11.2554 52.253 11.2609 52.2978 11.2488C52.5124 11.188 53.9888 11.4575 54.6822 11.684C54.9822 11.7822 55.6003 12.0254 55.8083 12.1275C56.115 12.2786 56.5865 12.6589 56.7687 12.9023ZM46.9932 7.9687C47.334 8.34375 47.5872 8.72528 47.9554 9.42026C48.3675 10.1982 48.5058 10.5785 48.6291 11.2716C48.8901 12.7439 48.6913 14.5622 48.0503 16.567C47.6694 17.7578 47.5447 18.0837 46.9129 19.5399C45.7689 22.1761 45.4231 22.876 44.7737 23.8727C44.2539 24.67 43.6486 25.7098 43.2549 26.4811C43.0937 26.7966 42.9113 27.0695 42.5374 27.5547C41.9108 28.3689 41.7789 28.4753 41.4401 28.4424C41.3048 28.4292 40.7977 28.4467 40.3128 28.4808C39.8162 28.5158 39.271 28.5195 39.0649 28.489C37.9044 28.3166 37.0757 28.4441 36.113 28.9435C35.5703 29.2252 34.9701 29.725 34.8255 30.0154L34.74 30.1871L34.6539 29.9701C34.5175 29.6271 34.3601 29.3902 34.052 29.065C33.7045 28.6984 33.6135 28.547 33.319 27.8464C33.1931 27.5471 33.0271 27.1914 32.9499 27.0562C32.3966 26.0844 31.4267 24.4411 31.2112 24.1096C31.0686 23.8898 30.7245 23.3592 30.4467 22.9302C28.7206 20.2625 28.3648 19.7425 27.9724 19.3125C27.6092 18.9148 27.5314 18.7955 27.1121 17.9955C26.1137 16.0895 24.3727 11.8367 23.9084 10.1691C23.5782 8.98301 23.4085 7.61378 23.4621 6.56772C23.5221 5.39811 23.9932 3.85863 24.4668 3.2882C24.6347 3.08605 24.6849 3.05293 24.8793 3.01914C25.3265 2.9413 25.8737 3.1427 26.6847 3.68467C27.4638 4.20517 28.9781 5.41259 29.6389 6.04078C30.8352 7.17701 31.7728 7.69962 32.9577 7.89104C33.9073 8.04417 35.1283 7.91836 36.7094 7.50327C40.8201 6.42458 42.6797 6.1641 44.2035 6.45294C44.6089 6.52975 45.3682 6.80028 45.7225 6.99362C46.0605 7.1781 46.768 7.7207 46.9932 7.9687ZM64.0988 34.2241C64.6471 34.8906 64.9619 35.5316 64.9908 36.0406C64.9992 36.1883 64.9321 36.7568 64.8424 37.3037C64.5695 38.9595 64.5439 39.733 64.7197 41.062C64.8976 42.4104 64.8728 42.6842 64.529 43.1791C64.233 43.6049 63.8383 43.7906 62.2536 44.2506C61.7204 44.4051 60.9984 44.6184 60.6489 44.7244C58.2781 45.4445 55.9295 45.5685 53.2476 45.1152C52.6091 45.0075 51.8515 44.8485 51.5643 44.7614C50.5728 44.4618 49.8478 44.3973 48.7461 44.5113L48.1259 44.5752L48.286 44.4085C48.3739 44.3164 48.9127 43.8109 49.4828 43.2846C50.4331 42.4071 51.5912 41.2264 53.0592 39.6389C55.4436 37.0604 57.3093 35.2481 58.5339 34.3202C60.1359 33.1069 61.4512 32.6556 62.4333 32.9832C62.9479 33.1552 63.6484 33.6771 64.0988 34.2241ZM56.4472 32.9335C56.698 33.3812 57.0184 34.7568 56.9077 34.9089C56.8738 34.9556 56.6967 35.1296 56.5144 35.2958C55.6883 36.0496 53.9259 37.8552 52.6287 39.2781C50.8026 41.2804 49.2281 42.8486 47.3285 44.5561L46.9564 44.8906L47.0497 44.6724C47.1949 44.3335 47.2728 43.6888 47.2464 43.0505C47.2376 42.8363 47.2498 42.4796 47.2733 42.2577C47.3344 41.6831 47.3244 41.4889 47.1866 40.5403C46.9637 39.006 46.9472 38.2147 47.1131 37.0055C47.2845 35.7585 47.3953 35.4556 47.8175 35.0793C48.1586 34.7746 48.471 34.5969 49.0208 34.394C49.6273 34.1698 50.1299 34.0684 51.1313 33.9673C52.6625 33.8125 53.4479 33.5758 54.7816 32.8658C55.2248 32.6295 55.6683 32.4213 55.767 32.402C55.9311 32.37 55.9616 32.3806 56.1307 32.5321C56.232 32.6231 56.3741 32.8037 56.4472 32.9335ZM24.1776 12.8535C24.6425 14.1364 25.6948 16.5186 26.251 17.5471C26.4615 17.9364 26.7441 18.4623 26.8785 18.7156C27.1796 19.2822 27.2185 19.3419 27.5654 19.7643C27.8679 20.133 28.5098 21.0811 29.4219 22.5077C29.7426 23.0091 30.1737 23.6709 30.3798 23.9787C30.7935 24.596 30.8839 24.7418 31.5646 25.8945C31.8216 26.3298 32.1481 26.879 32.2903 27.1153C32.4324 27.3516 32.6675 27.8122 32.8135 28.1389C33.1196 28.8253 33.234 28.9985 33.6599 29.4175C33.8513 29.606 34.0435 29.8485 34.161 30.0501L34.3513 30.3772L34.0216 30.4575C33.8403 30.502 33.4917 30.5773 33.2475 30.6254C33.0034 30.6734 32.6177 30.7607 32.3909 30.8191C32.1641 30.8775 31.9215 30.9266 31.8517 30.9286C31.3693 30.9408 29.6383 30.8261 29.4991 30.773C29.1687 30.6463 28.0493 29.8951 27.4481 29.3961C26.936 28.9713 26.843 28.8745 26.591 28.5096C25.5499 26.9984 24.1693 25.1142 23.7265 24.6005C23.4417 24.2697 23.0237 23.7474 22.798 23.4404C22.5725 23.133 22.2042 22.6532 21.9798 22.3745C21.7555 22.0958 21.3616 21.5835 21.1044 21.2362C20.1969 20.0119 19.4757 19.2255 18.3897 18.2769C17.8366 17.7938 17.399 17.516 16.6458 17.1693C15.7613 16.7624 15.2823 16.3703 15.2251 16.0061C15.2034 15.8679 15.2253 15.8154 15.4175 15.5514C15.8423 14.9675 16.7692 14.1484 17.3529 13.8409C17.9601 13.5208 19.6716 13.2083 21.3184 13.1161C21.7426 13.0923 22.2585 13.0348 22.465 12.9883C23.3758 12.7831 23.5562 12.7287 23.7773 12.5936C23.9062 12.5145 24.018 12.4548 24.0252 12.4601C24.0325 12.466 24.1015 12.6427 24.1776 12.8535ZM41.4156 29.1028C41.4523 29.2642 41.3339 29.5337 40.9546 30.1553C40.7813 30.4389 40.5077 30.8873 40.3467 31.1525C39.9473 31.8089 39.6975 32.3727 39.4866 33.096C39.0887 34.4567 38.887 34.9418 38.5759 35.2881C38.4625 35.4145 38.3048 35.5579 38.225 35.6072C38.0968 35.6862 38.0704 35.685 37.9942 35.5953C37.9469 35.5401 37.8551 35.37 37.7909 35.2177C37.7264 35.0651 37.6099 34.8109 37.5322 34.6534C37.4543 34.4952 37.3264 34.1358 37.2483 33.8544C37.1699 33.5728 37.0635 33.2459 37.0119 33.1272C36.8708 32.8034 36.5607 32.3758 36.3611 32.2289C36.2583 32.1535 36.0676 31.9306 35.9069 31.6982C35.7546 31.4783 35.5449 31.2178 35.4403 31.1202C35.2013 30.8958 35.1698 30.83 35.1881 30.5915C35.1959 30.4852 35.1705 30.3599 35.1316 30.3131C35.0511 30.2167 35.0617 30.2036 35.4734 29.8991C35.8152 29.6459 36.3918 29.3489 36.8267 29.2012C37.5675 28.9493 38.1519 28.9011 38.9653 29.0241C39.2578 29.0681 39.6701 29.0623 40.3419 29.0039C40.869 28.9581 41.3203 28.9343 41.3444 28.9506C41.3682 28.968 41.4004 29.0361 41.4156 29.1028ZM60.7488 45.8369C60.7269 46.7789 60.598 47.2538 60.2633 47.627C59.962 47.9631 59.4538 48.3366 58.8233 48.6854C58.5104 48.8582 58.065 49.1103 57.8339 49.2455C57.2627 49.579 56.8148 49.7358 56.1996 49.8191C55.2054 49.9533 54.3683 49.8374 53.3075 49.4189C52.5708 49.1283 52.2045 48.8815 51.745 48.3662C51.2726 47.8367 50.6367 47.2986 49.8057 46.7259C48.7135 45.9729 48.2133 45.7628 47.2885 45.6671L46.9436 45.6314L47.0805 45.4949C47.1978 45.3784 47.3168 45.3431 47.9066 45.2501C49.5032 44.9983 50.2642 45.0269 51.4152 45.3811C51.9541 45.5469 53.7697 45.8694 54.5145 45.9315C55.3439 46.0006 57.0666 45.9961 57.7676 45.9231C58.4379 45.8532 59.569 45.6312 60.2999 45.4255C60.5294 45.361 60.7271 45.3163 60.7387 45.3259C60.7509 45.3354 60.7551 45.5653 60.7488 45.8369ZM23.8952 36.7479C23.9273 36.8375 24.0125 37.2604 24.0843 37.6874C24.2178 38.4797 24.3217 38.8513 24.6937 39.8652C25.0863 40.9353 25.4487 41.4949 26.3622 42.4416C26.6351 42.7237 26.9383 43.058 27.0366 43.1841C27.2811 43.4972 27.5005 44.0996 27.5927 44.7104C27.6617 45.1667 27.6564 45.2975 27.5395 45.9551C27.3597 46.9668 27.2132 47.3975 26.743 48.2947C26.1756 49.3771 25.7556 49.936 23.6999 52.347C22.5684 53.6735 21.8458 54.5854 20.9335 55.8376L20.1361 56.9319L20.0264 56.4256C19.7339 55.0762 19.668 54.3186 19.7339 53.0795C19.8113 51.6232 19.9961 50.4637 20.412 48.8232C20.6831 47.7538 20.7988 47.1423 20.9084 46.1961C20.9461 45.872 21.0358 45.1934 21.1078 44.6876C21.282 43.4677 21.3371 42.9037 21.3772 41.9216C21.4407 40.3721 21.5762 39.6555 22.0235 38.5118C22.2402 37.9575 22.3003 37.8463 22.6454 37.364C23.4108 36.2946 23.6844 36.16 23.8952 36.7479ZM20.9412 38.901C21.1043 39.1978 21.111 39.3135 20.9934 39.7913C20.8643 40.3177 20.8332 40.6008 20.7707 41.8162C20.7164 42.8768 20.6619 43.3594 20.3188 45.8252C20.1076 47.342 20.0316 47.7364 19.7124 48.9524C19.3503 50.335 19.1684 51.5726 19.0945 53.1563C19.0345 54.4501 19.0998 55.1242 19.443 56.7305L19.4824 56.9152L19.2883 56.7439C19.1815 56.6493 18.8873 56.3911 18.6337 56.1701C17.8458 55.4825 17.2455 54.8397 16.7926 54.1997C16.5648 53.8773 16.2584 53.4565 16.1117 53.2639C15.5828 52.5715 14.4578 50.5002 14.0881 49.5396C13.7912 48.7665 13.6975 48.5863 12.9928 47.429C11.9637 45.7396 11.5529 44.7949 11.3882 43.7415C11.3049 43.2091 11.2985 43.0014 11.3557 42.6711L11.4262 42.2611L11.7742 41.7861C12.6185 40.6337 13.7905 40.0074 16.1681 39.4397C16.9305 39.2576 17.447 39.0758 18.3563 38.6704C18.9827 38.3909 19.7557 38.2182 20.1084 38.2782C20.416 38.3309 20.7758 38.6002 20.9412 38.901ZM40.9483 55.3293C41.1505 55.5547 41.4957 55.958 41.7159 56.2256C42.5227 57.2066 43.2451 58.7482 43.1617 59.3119C43.1369 59.4806 43.1328 59.4846 42.7986 59.6644C42.1421 60.0188 41.2617 60.5572 40.2554 61.221C39.3825 61.7963 37.3566 63.0562 35.8996 63.93C35.3336 64.269 34.1728 64.8442 34.137 64.8025C34.1211 64.7845 34.1553 64.6794 34.2135 64.5692C34.3796 64.2525 34.4806 63.8398 34.5533 63.1807C34.6338 62.452 34.7643 61.8999 35.0907 60.9114C35.4029 59.967 35.6776 59.3593 36.2412 58.3681C36.6748 57.6049 36.7402 57.511 37.6353 56.3653C38.3764 55.4168 38.6522 55.0912 38.9428 54.824C39.1451 54.6375 39.3495 54.4666 39.3965 54.4433C39.4914 54.3974 39.8469 54.4409 40.0569 54.5234C40.2386 54.5954 40.5069 54.8376 40.9483 55.3293ZM47.6984 61.0247C48.1028 61.4333 49.4302 63.0003 49.9431 63.6741C50.2565 64.086 50.3874 64.411 50.3889 64.7817C50.3905 65.2192 50.2925 65.5268 50.0376 65.8827C49.4389 66.7189 48.4149 67.2701 47.0281 67.5027C46.3833 67.6108 45.9509 67.6339 44.8192 67.6211C43.0208 67.6006 41.8561 67.4308 40.3843 66.975C39.5228 66.7079 38.3715 66.4353 36.9864 66.1702C36.6297 66.1021 36.1029 65.977 35.8161 65.8925C35.529 65.8084 35.0155 65.6993 34.6751 65.6512L34.0558 65.5632L34.2549 65.4783C34.9301 65.1915 35.7636 64.7629 36.426 64.3629C38.3847 63.1788 39.7894 62.3076 40.7733 61.6658C43.0052 60.2104 44.369 59.5155 44.9745 59.5244C45.3847 59.531 45.9923 59.7201 46.4788 59.9929C46.7287 60.1329 47.2656 60.5874 47.6984 61.0247ZM28.0402 49.4364C28.1298 49.5736 28.2488 50.0959 28.2296 50.2688C28.2061 50.4843 26.9827 52.1919 26.191 53.1151C25.6222 53.7782 24.4972 54.9428 24.1503 55.2277C24.0678 55.2948 23.743 55.4895 23.428 55.6596C23.1137 55.8295 22.7118 56.0593 22.5349 56.1702C22.3587 56.281 22.0126 56.4603 21.7661 56.5682C21.5199 56.6756 21.1928 56.8368 21.0392 56.9253C20.886 57.014 20.7588 57.0757 20.7567 57.0626C20.7464 56.9971 23.0807 54.0288 23.9542 52.9962C25.4925 51.1784 26.2262 50.2617 26.6449 49.6345L27.0274 49.061L27.2293 49.0791C27.6121 49.1128 27.9165 49.2472 28.0402 49.4364ZM46.6136 68.5351C46.6087 68.6765 46.5698 68.9337 46.5276 69.1073C46.1357 70.7084 46.2157 70.5067 45.6796 71.2411C45.1645 71.9467 44.9696 72.1333 44.4282 72.4409C43.8517 72.7681 43.5952 72.7718 42.8527 72.463C41.6778 71.9743 40.5118 70.8648 39.1013 68.8928C38.5553 68.1299 38.1753 67.7164 37.582 67.2424L37.0689 66.8325L37.4653 66.9248C37.6834 66.9756 38.1883 67.0877 38.587 67.1729C38.986 67.2585 39.7181 67.4534 40.2132 67.606C41.1873 67.9056 42.3014 68.125 43.231 68.1998C43.9207 68.2554 45.4042 68.273 46.0755 68.2329C46.3419 68.2172 46.574 68.2208 46.591 68.2412C46.6083 68.262 46.6183 68.394 46.6136 68.5351ZM11.573 46.0019C11.7137 46.3126 12.1389 47.0885 12.518 47.7264C13.0402 48.6048 13.2637 49.032 13.4397 49.4861C13.8459 50.536 13.9775 50.8186 14.5845 51.938C15.1385 52.959 15.7943 53.9636 16.6253 55.062C16.8781 55.3963 17.7519 56.2868 18.0198 56.4835C18.1373 56.5696 18.3403 56.7446 18.4705 56.8723C18.7823 57.1781 19.1268 57.4294 19.2963 57.4744L19.4329 57.5105L19.1837 57.6292C18.9258 57.7519 18.0971 57.9183 17.8907 57.8889C17.8259 57.88 17.4672 57.782 17.0927 57.6715C16.4293 57.4754 16.4047 57.4638 16.1053 57.2158C15.9363 57.0754 15.5366 56.6929 15.2173 56.3655C14.563 55.695 14.2039 55.1842 13.7504 54.2798C13.5693 53.9194 13.4034 53.6624 13.2049 53.4367C12.9172 53.1096 12.5803 52.6544 12.0653 51.8967C11.861 51.596 11.6042 51.3047 11.1135 50.8154C10.2796 49.9847 9.56255 49.2053 9.31977 48.8667C9.07544 48.5248 9.01323 48.1905 9.09367 47.6491C9.18142 47.0602 9.32575 46.8658 10.1516 46.2262C10.4825 45.9697 10.8616 45.6375 10.9932 45.4878C11.229 45.2201 11.234 45.2173 11.2756 45.3266C11.2986 45.3874 11.4326 45.6914 11.573 46.0019ZM8.70278 53.0295C8.74675 53.2582 8.87721 54.2194 8.9932 55.1654C9.1092 56.1115 9.23223 57.0104 9.26661 57.1631C9.37355 57.6389 9.80019 59.8879 9.98825 60.9659C10.2216 62.3066 10.366 62.8265 10.9421 64.401C11.7545 66.6208 11.902 67.1174 12.5218 69.7078C12.9344 71.4336 13.3341 73.7413 13.3926 74.7297C13.4396 75.5292 13.4391 78.1184 13.3925 78.7964C13.3473 79.4471 13.1485 80.786 13.0004 81.4355C12.8357 82.1605 12.0373 84.2811 11.5777 85.2163C11.1652 86.0556 10.9095 86.5288 10.8792 86.5067C10.8705 86.5004 10.8999 86.3843 10.9442 86.2494C11.1005 85.7765 11.8047 81.3036 11.832 80.6138C11.8595 79.9062 11.8075 79.338 11.6033 78.127C11.4553 77.2465 11.3258 76.7107 11.0058 75.6533C10.4959 73.9687 10.4835 73.9132 10.1306 71.6378C9.83599 69.7361 9.57405 68.348 9.1866 66.6329C9.05363 66.0447 8.9213 65.219 8.83999 64.4682C8.76743 63.801 8.64342 62.9599 8.56434 62.5995C8.38087 61.7645 8.18474 60.3615 8.16419 59.7327C8.15504 59.4649 8.16749 58.9094 8.1916 58.4987C8.21572 58.0881 8.23645 57.4463 8.23755 57.0729C8.23902 56.6997 8.26355 56.0074 8.29233 55.5345C8.32112 55.0617 8.34946 54.4214 8.35558 54.112C8.36714 53.4995 8.39567 52.8733 8.43141 52.4212L8.45432 52.1333L8.53905 52.3736C8.58496 52.5057 8.65882 52.8008 8.70278 53.0295ZM7.90878 52.4315C7.89196 52.4825 7.85041 53.1775 7.81715 53.9767C7.78351 54.7755 7.74101 55.6654 7.72185 55.9538C7.70334 56.242 7.6862 56.7634 7.68392 57.1122C7.68191 57.4606 7.65892 58.0879 7.63331 58.5062C7.6076 58.9238 7.5901 59.46 7.59453 59.6976C7.60572 60.3353 7.76344 61.5514 7.97422 62.6244C8.07644 63.145 8.20883 64.0565 8.26808 64.6497C8.34161 65.3873 8.46606 66.1457 8.66116 67.0484C9.07152 68.9478 9.19789 69.6415 9.54129 71.8925C9.85563 73.9542 9.94038 74.3315 10.4789 76.0596C10.7396 76.8968 10.8284 77.298 11.0138 78.4768C11.2567 80.0194 11.2709 80.5885 11.0945 81.6385C10.9929 82.2424 10.7097 84.1663 10.6305 84.7881C10.5626 85.3259 10.5544 85.2544 10.5373 83.966C10.503 81.3706 10.3689 80.3476 9.48751 75.9487C9.25199 74.7758 8.88186 72.7948 8.42186 70.25C8.32304 69.7041 7.99936 67.942 7.70269 66.3347C6.79576 61.4246 6.78799 61.3644 6.78995 59.4255C6.79071 58.8853 6.78314 58.0698 6.77324 57.6135C6.74968 56.5508 6.7954 55.6899 6.90942 55.0418C7.06154 54.1788 7.41233 53.1448 7.78907 52.447C7.87813 52.2832 7.96199 52.2723 7.90878 52.4315ZM44.4991 79.0711C44.4728 79.1407 44.4235 79.1757 44.3438 79.1809C44.0645 79.1993 42.2186 79.8789 41.7272 80.144C40.1598 80.9896 39.5568 81.3365 39.0773 81.6682C38.7739 81.878 38.1813 82.2608 37.761 82.519C37.3404 82.7769 36.6559 83.2183 36.2391 83.5004C35.8225 83.7822 35.1355 84.2438 34.7116 84.526C34.2884 84.8082 33.6467 85.2418 33.286 85.4905C32.9253 85.7386 32.0081 86.3373 31.2474 86.8213C30.487 87.3049 29.549 87.9018 29.1631 88.1479C28.7775 88.3935 28.0647 88.8283 27.5792 89.1132C27.0941 89.3985 26.4156 89.8053 26.071 90.0176C25.169 90.574 24.6252 90.8514 23.6773 91.2391C23.2159 91.428 22.3928 91.7667 21.848 91.9929C21.0063 92.3413 19.6531 92.8328 19.6137 92.8041C19.6069 92.7992 19.8008 92.6856 20.0439 92.5514C21.1663 91.9326 22.5952 91.0848 24.316 90.0172C27.2014 88.2268 27.9504 87.7215 30.4724 85.8611C33.724 83.4622 36.4058 81.6553 38.1812 80.668C39.304 80.0432 40.8641 79.3662 41.8903 79.0581C43.164 78.6759 44.6472 78.6828 44.4991 79.0711ZM43.1637 80.4476C42.9628 80.613 42.1777 81.1854 41.4194 81.7187C39.3007 83.2088 37.9006 84.3271 36.7243 85.4683C36.452 85.7326 35.75 86.4624 35.1649 87.0897C32.9102 89.5074 31.7944 90.5168 30.1427 91.6336C29.0527 92.3711 26.7634 93.5294 25.3824 94.0424C24.8249 94.2494 23.3504 94.5738 21.8587 94.8177C20.7565 94.9975 19.871 95.0071 18.9151 94.8482C18.6167 94.7988 18.1908 94.739 17.9689 94.715C17.7473 94.6914 17.2653 94.6012 16.8974 94.5151C15.9029 94.2817 15.9573 94.3074 16.2857 94.2272C16.4418 94.1887 16.8229 94.1197 17.1326 94.074C17.6995 93.9893 19.2629 93.6113 20.0945 93.3571C20.743 93.1588 21.1817 92.9923 22.6097 92.4021C24.9204 91.4468 25.2271 91.2986 26.4935 90.5281C26.8516 90.31 27.59 89.8678 28.1342 89.546C28.6786 89.2239 29.4929 88.7197 29.9441 88.426C30.3953 88.1317 31.2518 87.5823 31.8469 87.2047C32.4424 86.8268 33.3368 86.2371 33.8351 85.8947C35.6345 84.6562 36.9468 83.7798 37.7882 83.2542C38.2601 82.9593 38.9731 82.4947 39.3724 82.2223C40.2934 81.5945 42.1738 80.5751 42.9679 80.2739C43.2938 80.1501 43.5539 80.0707 43.5453 80.0975C43.5368 80.1244 43.3649 80.2819 43.1637 80.4476ZM47.0382 95.1343C46.9287 95.1899 46.484 95.3821 46.0504 95.5615C43.5162 96.6089 42.8261 96.8524 41.5953 97.1358C41.2455 97.216 40.6218 97.3611 40.2092 97.4583C39.7972 97.5554 39.1542 97.7008 38.7803 97.7822C38.4071 97.8634 37.6649 98.0655 37.1311 98.2312C36.5977 98.3972 35.8049 98.6036 35.3698 98.6903C34.9347 98.7769 34.3301 98.9149 34.0262 98.9973C33.1003 99.2479 31.9704 99.4667 29.2132 99.9293C26.692 100.353 24.8529 100.588 23.7807 100.625C23.3078 100.642 22.7219 100.567 22.7098 100.49C22.6964 100.407 23.3362 100.064 24.1621 99.7111C25.093 99.3127 26.0442 98.9842 27.8433 98.4382C29.9608 97.7956 30.9347 97.6136 32.6695 97.5367C34.2669 97.4654 34.5385 97.4402 36.1967 97.213C38.7123 96.8681 41.5847 96.299 44.2841 95.6109C45.6559 95.2611 47.1369 94.9595 47.2119 95.0141C47.2259 95.0243 47.1478 95.0783 47.0382 95.1343ZM45.7284 96.3409C45.0341 96.7751 43.5977 97.4805 42.3231 98.0136C41.5049 98.3552 39.6571 99.0294 39.1035 99.1882C36.8246 99.8416 35.9344 100.046 34.1404 100.33C33.1308 100.489 31.7863 100.673 31.1535 100.738C30.521 100.803 29.8113 100.877 29.577 100.902C29.3429 100.927 28.8704 100.961 28.5278 100.979C28.1853 100.996 27.6205 101.031 27.2733 101.056C26.6783 101.099 25.8823 101.09 25.5955 101.038L25.4674 101.015L25.6218 101.002C26.5196 100.928 27.5519 100.784 28.479 100.605C29.0956 100.487 29.9473 100.345 30.3717 100.291C31.2733 100.176 33.0195 99.8256 34.0815 99.5464C34.4915 99.4386 35.1315 99.2909 35.5043 99.2181C35.8768 99.1451 36.4918 98.988 36.8712 98.8689C37.9682 98.524 38.8071 98.31 41.3416 97.7282C42.8 97.3933 43.825 97.0454 45.5628 96.2946C45.8585 96.1669 46.1017 96.0717 46.1038 96.0831C46.1056 96.0949 45.9369 96.2106 45.7284 96.3409Z" fill="#C8A898"/>
</svg>
