<svg width="66" height="104" viewBox="0 0 66 104" fill="none" xmlns="http://www.w3.org/2000/svg">
<path fill-rule="evenodd" clip-rule="evenodd" d="M16.2367 3.84522C17.1059 3.50346 17.3714 3.42632 18.3046 3.24574C18.7656 3.15691 19.4958 2.97778 19.9276 2.84808C21.0089 2.52378 22.6329 2.19039 23.6193 2.09007C25.9885 1.8498 27.3206 1.5971 28.5066 1.16415C29.2717 0.884798 31.6306 0.175642 31.993 0.116191C33.0007 -0.0495686 34.519 0.230712 35.4076 0.746331C35.9905 1.08465 36.2092 1.29685 36.7774 2.0746C37.0667 2.4705 37.4464 3.02338 37.6213 3.30283L37.9392 3.81135L38.7606 3.21363C39.6582 2.56049 39.9928 2.37915 40.5699 2.23251C40.995 2.12457 41.4733 2.19491 41.7734 2.40993C42.2812 2.77328 42.8142 3.96775 43.0608 5.29344C43.3922 7.07733 43.1715 8.95712 42.3615 11.2542C42.2461 11.5807 42.1485 11.8599 42.1449 11.8748C42.1064 12.0194 43.6401 12.2954 44.5161 12.3015C45.2486 12.3064 46.1893 12.4006 47.1695 12.5664C48.2111 12.7427 48.5738 12.8455 48.9904 13.082C49.9182 13.6091 51.2525 14.9905 51.366 15.5416C51.5025 16.2047 50.9111 16.8613 49.6953 17.3966C48.7644 17.8065 48.1623 18.2516 47.0384 19.36C46.5417 19.8497 45.8448 20.684 45.2621 21.4863C45.0446 21.7856 44.6821 22.2599 44.4558 22.5406C44.2298 22.8217 43.8686 23.2922 43.6525 23.587C43.4364 23.8818 43.0245 24.3909 42.7372 24.7184C42.2119 25.317 40.6838 27.3862 40.011 28.4096C39.8002 28.7301 39.5437 29.0601 39.3943 29.2036C38.6674 29.9002 37.2256 30.9069 36.6769 31.1014C36.5376 31.1505 36.0941 31.2005 35.6071 31.2217C35.1499 31.2417 34.6366 31.2665 34.4671 31.2772C34.2973 31.2876 33.9427 31.248 33.6785 31.189C33.4142 31.1301 32.9977 31.0443 32.7529 30.9985C32.2983 30.9138 31.6939 30.7258 31.6389 30.6527C31.5454 30.5281 31.4712 30.56 31.4019 30.7538C31.3358 30.9377 31.1044 31.2401 30.935 31.3633C30.8933 31.3936 30.7316 31.603 30.575 31.8283C30.4188 32.054 30.2185 32.2908 30.1306 32.3548C29.951 32.4855 29.69 32.8094 29.5647 33.0578C29.519 33.1479 29.4101 33.4529 29.3224 33.7354C29.1098 34.4205 28.5396 35.549 28.3247 35.7101L28.1668 35.8284L28.2279 36.6618C28.304 37.7031 28.2658 37.5 28.6446 38.8687C29.2494 41.0571 29.7755 42.3257 30.9158 44.346C32.7675 47.626 33.8086 49.385 34.6002 50.5717C36.1563 52.9046 37.9987 55.8293 38.7355 57.1366C39.5316 58.5493 40.7534 61.0743 41.2585 62.3507C41.7027 63.4733 42.7922 66.5676 43.3281 68.2271C43.605 69.0862 43.8399 69.8002 43.8498 69.8138C43.8598 69.8275 43.8553 69.5371 43.8404 69.1685C43.8121 68.4789 43.9129 67.0971 44.0698 66.0279C44.1189 65.6933 44.2644 65.0275 44.3935 64.5478C44.5353 64.0204 44.7097 63.141 44.8337 62.3255C44.9472 61.5831 45.1295 60.5616 45.2392 60.0553C45.3489 59.549 45.5 58.7787 45.5748 58.3431L45.7112 57.5517L45.5589 57.5424C45.4754 57.5375 45.1894 57.412 44.9234 57.2638C44.6573 57.1157 44.2647 56.9209 44.0503 56.8309C43.8361 56.7413 43.5052 56.5748 43.3143 56.4613C43.1237 56.3475 42.7146 56.1207 42.4054 55.9569C41.6242 55.5436 41.5585 55.4922 40.8581 54.7543C39.9985 53.8485 39.2692 52.9425 38.2886 51.5614C37.3016 50.1722 37.2991 50.1665 37.4441 49.5916C37.5542 49.1552 37.6483 48.9921 37.8908 48.8157C38.117 48.6511 38.3216 48.5834 38.6375 48.57C38.8004 48.5629 38.8716 48.5413 38.8581 48.5029C38.8467 48.4712 38.7293 48.2374 38.5972 47.9826C38.4648 47.7273 38.298 47.334 38.226 47.1084C38.0412 46.528 37.8471 45.546 37.8276 45.0954C37.7962 44.365 38.0789 43.2896 38.4459 42.7458C38.5424 42.603 38.8548 42.2486 39.1401 41.9581C40.2044 40.8762 40.4343 40.5232 40.9142 39.2282C41.2113 38.426 41.2912 38.1335 41.4289 37.3376C41.6085 36.3006 41.7285 35.9852 42.0252 35.7694C42.5488 35.3883 43.0124 35.6527 43.858 36.8148C44.2635 37.3721 44.3349 37.4941 44.5101 37.9301C44.6182 38.1989 44.7157 38.4205 44.7268 38.4222C44.738 38.424 44.8294 38.325 44.9299 38.202C45.1921 37.8806 45.5617 37.6598 45.9223 37.6098C46.3371 37.5523 47.1716 37.7052 47.7203 37.9384C48.7381 38.3711 49.1903 38.5259 49.9435 38.6985C52.3893 39.2595 53.6269 39.9083 54.6184 41.1491C54.9253 41.5334 54.9894 41.6382 55.0846 41.9124C55.3165 42.5815 55.2662 43.5877 54.9525 44.5534L54.9031 44.7054L55.2086 44.9763C55.3765 45.1251 55.8245 45.4652 56.2039 45.7317C56.8096 46.1572 56.9193 46.2515 57.1068 46.5091C57.3062 46.7823 57.3261 46.8352 57.4038 47.2916C57.4994 47.8539 57.4537 48.335 57.2742 48.6443C57.126 48.9002 56.3512 49.7651 55.3448 50.7968C54.6422 51.518 54.5337 51.6486 54.1901 52.1893C53.9815 52.5175 53.6252 53.0106 53.3986 53.2846C53.0687 53.6842 52.9299 53.8989 52.7017 54.3649C52.4038 54.9733 52.0284 55.5853 51.7322 55.9459C51.6359 56.0629 51.2729 56.4472 50.9251 56.8007C50.0986 57.6393 49.9507 57.733 49.0656 57.9796C48.6967 58.082 48.3189 58.1776 48.2254 58.1917C47.8185 58.2528 46.5311 57.9682 46.4 57.7879C46.3796 57.7599 46.3524 57.7448 46.3391 57.7545C46.3259 57.7641 46.2614 58.0785 46.1954 58.4538C46.1296 58.8284 45.9432 59.7479 45.7808 60.4962C45.6185 61.2449 45.4518 62.1444 45.4105 62.4953C45.3267 63.1997 45.1693 63.9224 44.9107 64.7864C44.6673 65.5995 44.5885 66.0352 44.4604 67.2824C44.2879 68.9601 44.2933 69.3211 44.5205 71.1657C44.6183 71.9603 44.7574 72.3952 45.3857 73.8719C46.2744 75.9599 46.6375 76.6874 48.1852 79.4755C48.7528 80.4985 49.3946 81.6672 49.6108 82.0727C51.0306 84.7328 53.5162 88.2142 56.6605 91.9486C56.948 92.2895 57.195 92.5605 57.2094 92.5501C57.2238 92.5396 57.1939 92.4499 57.1433 92.3516C56.9647 92.0034 56.3718 90.5212 56.2405 90.0963C56.1678 89.8602 56.0245 89.2323 55.9225 88.7019C55.7458 87.786 55.7296 87.7328 55.6039 87.6572C55.5101 87.6007 55.3056 87.3491 54.9064 86.7988C54.4235 86.1336 54.2875 85.914 53.9701 85.2891C53.4527 84.269 52.6944 82.2846 52.4746 81.374C52.3201 80.7356 52.0662 79.1013 52.0248 78.4804C51.9849 77.884 51.9773 76.1006 52.0097 74.9665C52.0482 73.6335 52.3734 71.7119 52.9768 69.2542C53.5855 66.7753 53.7886 66.1082 54.6368 63.8118C55.1717 62.3637 55.3019 61.9 55.5097 60.7113C55.5961 60.2161 55.7424 59.432 55.8354 58.968C56.2207 57.0421 56.3658 56.1608 56.5368 54.7152C56.7646 52.7832 56.8791 52.1417 57.0791 51.6759C57.2194 51.3486 57.2663 51.2832 57.4611 51.1415C57.6566 50.9992 57.7025 50.9844 57.8495 51.019C58.1093 51.0806 58.3037 51.2641 58.6206 51.7483C58.9755 52.2902 59.165 52.7083 59.4222 53.515C59.8138 54.7445 59.9008 55.533 59.8747 57.6245C59.8655 58.3653 59.8529 59.3794 59.847 59.8786C59.8408 60.3775 59.8174 61.0055 59.7943 61.2741C59.7713 61.5427 59.4461 63.4022 59.072 65.4064C58.6979 67.4106 58.3105 69.497 58.2118 70.0423C57.8337 72.1271 57.4422 74.1782 57.1532 75.5873C56.1993 80.2322 56.0828 81.1194 56.0549 83.9323C56.0345 85.9902 56.0763 86.504 56.4214 88.4526C56.6962 90.0049 56.8035 90.3667 57.5735 92.3432C57.7523 92.8032 57.9302 93.265 57.968 93.3704C58.0253 93.5288 58.2339 93.7884 59.2173 94.9273C59.8662 95.6789 60.6003 96.5373 60.8489 96.8351C61.0975 97.1329 61.4594 97.5356 61.6528 97.7297C62.2814 98.3603 64.8004 101.92 65.2865 102.864C65.4626 103.206 65.5817 103.534 65.5472 103.582C65.5321 103.604 65.291 103.29 64.9683 102.832C63.8464 101.235 61.2259 98.016 60.6786 97.5624C59.7824 96.8197 58.5838 96.1791 57.2536 95.7312L56.792 95.5763L56.1685 95.6887C54.8643 95.924 54.3031 96.1722 53.0909 97.0485C51.4914 98.2041 50.7349 98.6386 49.3095 99.2179C47.9669 99.7637 47.0108 100.048 44.6403 100.606C41.3013 101.392 40.165 101.55 38.6399 101.439C38.2862 101.413 37.6578 101.374 37.2429 101.351C36.8276 101.328 36.1153 101.263 35.6592 101.205C35.2033 101.148 34.55 101.075 34.2074 101.042C33.3113 100.956 29.8338 100.349 29.2294 100.173C28.9477 100.091 28.2595 99.8992 27.7011 99.7473C25.9054 99.2587 23.9687 98.5164 21.8332 97.4969C20.2468 96.7399 19.03 95.9757 18.3673 95.3189C17.9867 94.9424 17.9575 94.5558 18.2946 94.3645C18.7218 94.1216 19.8079 94.2834 22.481 94.9872C24.5424 95.5297 26.1393 95.8583 28.636 96.2535C30.9326 96.6168 31.4886 96.6776 33.2122 96.7527C34.6366 96.8147 35.5553 96.94 36.7075 97.2284C37.4812 97.4221 39.7438 98.1112 40.5565 98.4006C41.0383 98.5723 42.4522 99.1838 42.9072 99.4173C43.1588 99.5464 43.7794 99.9803 43.8489 100.076C43.9102 100.16 43.9508 100.154 45.2205 99.8519C46.7408 99.4907 47.2904 99.338 48.1244 99.0474C50.1926 98.3258 51.1281 97.8442 52.7527 96.6633C53.8089 95.8953 54.3744 95.6132 55.2716 95.4078C55.4564 95.3655 55.6096 95.3196 55.6114 95.3061C55.6136 95.2924 54.9127 95.1583 54.0536 95.0082C53.1945 94.8581 52.3089 94.6931 52.0853 94.6422C51.8089 94.5794 51.4818 94.5591 51.0625 94.5794C50.4281 94.6099 50.2946 94.631 49.1912 94.8739C48.8341 94.9527 48.4185 95.0265 48.2673 95.0379C48.1162 95.0492 47.687 95.1021 47.3139 95.1548C45.8521 95.3615 44.882 95.2835 42.3375 94.7548C40.7966 94.4347 40.5722 94.3659 39.304 93.8288C36.5232 92.6505 34.1965 91.0959 32.0289 88.9683C31.7489 88.6933 31.0536 87.972 30.4841 87.3652C28.2341 84.9675 26.9995 83.9063 24.2142 81.974C22.8009 80.9937 22.5137 80.7773 21.8976 80.227C21.2924 79.6868 20.9669 79.2505 20.909 78.901C20.8521 78.5607 20.9154 78.3777 21.148 78.2084C21.5421 77.9217 22.2403 77.8523 23.2148 78.0025C24.208 78.156 25.1873 78.496 26.8457 79.2644C28.7323 80.1377 31.3594 81.8295 36.0149 85.1686C38.5966 87.0204 39.3327 87.5095 42.0581 89.1859C46.8102 92.109 48.1587 92.778 51.1026 93.67C52.2236 94.0096 52.5974 94.0956 54.0883 94.3574C56.4935 94.7798 57.5208 95.075 58.8888 95.7373L59.4392 96.004L59.2248 95.7539C55.8965 91.8639 54.9724 90.7364 53.4156 88.6669C51.753 86.4568 50.0824 83.9641 49.2461 82.446C49.1017 82.1838 48.558 81.2216 48.038 80.3078C46.1274 76.9517 45.6031 75.9157 44.6484 73.6129C44.4439 73.12 44.3228 72.8762 44.2757 72.8641C44.2291 72.8527 44.2095 72.8217 44.2172 72.7726C44.2349 72.6599 43.2441 71.2496 42.7933 70.7456C42.3371 70.2356 41.5989 69.5079 41.0269 69.0044C39.6935 67.8306 39.0661 67.5433 35.7159 66.5716C35.2218 66.4286 34.502 66.2079 34.1164 66.0817C33.7308 65.9556 33.3888 65.8551 33.357 65.8585C33.3246 65.8618 33.1502 65.8761 32.9691 65.8901C31.0419 66.0409 30.8568 66.0972 29.599 66.9132C28.4992 67.6269 28.1381 67.9709 27.365 69.0429C26.3539 70.4447 25.2674 71.638 24.492 72.1987C24.1758 72.4276 23.3139 72.8423 22.8967 72.9666C22.1907 73.1774 21.5817 72.9968 20.7923 72.3435C19.9868 71.6769 19.4135 70.7687 19.2342 69.8756C19.1812 69.6108 19.1189 69.3428 19.0966 69.2795C19.0058 69.0265 18.9118 68.4409 18.9187 68.1725L18.9257 67.8883L18.5077 67.8043C17.2596 67.5537 16.3006 67.0162 15.6157 66.184C15.1342 65.5996 14.9423 64.9751 15.0225 64.2553C15.081 63.7265 15.3086 63.3496 16.2876 62.1575C17.6893 60.4506 18.2366 59.8934 19.04 59.3552C20.1017 58.6442 21.1037 58.4657 21.9907 58.8294L22.2851 58.9505L22.3605 58.5667C22.4632 58.0452 22.6388 57.6064 23.0792 56.7748C23.4081 56.1525 23.521 55.9874 24.0535 55.3469C25.1367 54.0441 25.4564 53.7627 26.0351 53.6063C26.34 53.5236 26.7536 53.5401 26.9596 53.6432C27.2651 53.7963 27.752 54.2886 28.3739 55.0731C28.7109 55.4981 29.1722 56.0763 29.3984 56.3585C29.7276 56.7688 29.8982 57.0271 30.2517 57.6523C31.0191 59.0088 31.1682 59.3499 31.6049 60.745C31.9188 61.7473 31.9995 62.1075 32.1025 62.9667C32.1953 63.7417 32.3005 64.0075 32.7252 64.5369C32.9081 64.7653 33.1203 64.9979 33.1963 65.0546C33.3523 65.1703 34.2426 65.4723 35.5947 65.8683C38.9505 66.8517 39.545 67.0841 40.5589 67.8102C41.3167 68.3531 42.4734 69.4657 43.1331 70.2871C43.3482 70.5548 43.5263 70.7519 43.5286 70.7247C43.5308 70.6975 43.4557 70.4708 43.3611 70.2205C43.2665 69.9702 43.0343 69.2903 42.8451 68.7102C42.1705 66.6393 41.2157 63.9182 40.7122 62.6321C40.097 61.0611 38.7678 58.3861 37.7902 56.751C36.7541 55.018 36.6193 54.8225 36.1001 54.2928C35.8362 54.0241 35.2579 53.415 34.8147 52.9397C34.3715 52.4643 33.9098 51.9891 33.7888 51.8833C32.7825 51.006 31.15 50.1729 29.5275 49.708C29.2446 49.6266 28.2255 49.3881 27.2634 49.1777C23.9265 48.4481 23.3513 48.2771 22.2353 47.6832C21.3492 47.2117 20.8866 46.9001 20.1814 46.3004C19.8124 45.9869 19.5164 45.7648 19.4918 45.7827C19.4679 45.8001 19.1498 45.8655 18.7852 45.9283C18.4206 45.9911 18.0223 46.0848 17.9004 46.1364C17.3901 46.3517 16.8066 46.6926 16.2332 47.1104C15.531 47.622 15.1031 47.9977 14.6475 48.5033C14.1291 49.0778 13.7137 49.3551 12.8662 49.6909C11.5743 50.2027 10.7842 50.2925 9.51765 50.0722C8.7882 49.945 8.53469 49.8411 7.53747 49.2583C6.37581 48.5792 6.28435 48.5205 5.88731 48.2042C5.34784 47.7734 5.00346 47.2905 4.87473 46.7831C4.82317 46.5792 4.7716 46.1467 4.76055 45.8217C4.73567 45.1145 4.70471 44.8992 4.62324 44.8645C4.58921 44.8503 4.17068 44.718 3.69337 44.5709C2.54799 44.2177 2.22325 44.0972 1.8023 43.8691C1.45776 43.6823 1.44462 43.6698 1.11834 43.2214C0.789292 42.7692 0.785009 42.7601 0.721384 42.3788C0.678016 42.1185 0.67991 41.7794 0.727557 41.3327C0.869024 40.0107 0.885162 39.7263 0.856502 39.0752C0.840556 38.7108 0.744595 37.9028 0.643338 37.2802C0.393541 35.7462 0.409357 35.404 0.76304 34.7161C1.14718 33.9689 1.62981 33.4088 2.34528 32.8813C2.97388 32.4175 3.24675 32.2892 3.83414 32.1797C4.58943 32.0398 5.61727 32.2737 6.58284 32.8059C7.16883 33.1286 7.75609 33.5287 8.28416 33.9637L8.74298 34.3418L8.77912 34.0753C8.85922 33.4861 9.05157 32.7549 9.19645 32.4905C9.40649 32.1061 9.6919 31.8103 9.93417 31.7251C10.2368 31.6186 10.5178 31.6996 11.3589 32.1349C12.7402 32.8497 13.4821 33.0641 15.0763 33.2114C17.3127 33.4177 18.8547 34.2221 19.2343 35.3802C19.3495 35.7327 19.5458 36.9511 19.5969 37.6363C19.651 38.3541 19.6032 39.1717 19.4461 40.2277C19.2885 41.287 19.2766 41.4697 19.3272 42.0323C19.3481 42.2665 19.3557 42.6138 19.3436 42.8043C19.3102 43.3223 19.3697 43.9416 19.4822 44.2515C19.5506 44.4396 19.5697 44.594 19.5427 44.7401C19.5209 44.8575 19.5279 44.9882 19.5585 45.0303C19.6795 45.1964 21.1693 46.4188 21.5306 46.6486C21.7411 46.7826 22.1819 47.0363 22.51 47.2125C23.6223 47.8101 24.1465 47.9666 27.6698 48.7526C29.2649 49.1082 30.0065 49.3118 30.811 49.6147C32.4795 50.2424 33.7329 51.0403 34.6944 52.0878C35.1487 52.5823 35.2842 52.7048 35.1045 52.4578C34.4017 51.4919 33.121 49.4611 32.2738 47.9702C30.1454 44.2231 29.661 43.2985 29.0724 41.8572C28.6018 40.7055 27.9165 38.4806 27.7912 37.6968C27.7433 37.3991 27.6871 36.4936 27.6924 36.1179C27.697 35.8366 27.6869 35.8045 27.5669 35.716C27.4954 35.663 27.3202 35.498 27.1776 35.3482C26.7372 34.8871 26.5524 34.4547 26.0376 32.6784C25.8484 32.024 25.7371 31.801 25.1506 30.8938C24.8997 30.506 24.635 30.0881 24.5628 29.9649L24.4314 29.7414L24.0603 29.8501C23.5983 29.9854 23.2547 29.9982 22.9191 29.893C22.7765 29.8483 22.3904 29.7335 22.0611 29.6377C20.6867 29.2389 20.1134 28.9655 18.6961 28.0315C18.1121 27.6471 17.3273 27.1475 16.9523 26.922C16.5772 26.6965 16.0578 26.3602 15.7979 26.175C14.9187 25.5481 14.7349 25.3592 13.1789 23.4812C12.2866 22.4037 11.9949 22.0786 11.1939 21.27C9.89522 19.9591 9.20946 19.0492 8.79124 18.0834C8.50104 17.4138 8.2897 16.7163 8.21067 16.1681C8.06355 15.1472 8.21623 13.4097 8.50376 12.8332C8.76631 12.3068 8.91344 12.137 9.43299 11.7608C9.85981 11.4513 9.9693 11.3931 10.5283 11.1802C11.2991 10.8863 11.9687 10.7123 12.7966 10.591C13.3923 10.5033 13.436 10.4901 13.423 10.3981C13.4154 10.3438 13.3373 10.0159 13.249 9.66997C13.1607 9.324 13.0791 8.98011 13.0674 8.90507C13.0201 8.60119 13.0404 7.74975 13.1018 7.45904C13.4268 5.92809 13.6339 5.59867 14.8532 4.67489L15.6379 4.08074L16.2367 3.84522ZM14.349 5.77464C14.0587 6.10365 13.8826 6.48765 13.7215 7.14391C13.5057 8.02448 13.505 8.62726 13.7185 9.45426C13.8086 9.80354 13.889 10.1657 13.8971 10.2596C13.9052 10.3536 13.9173 10.4387 13.9248 10.449C13.9322 10.4592 14.0834 10.4606 14.2605 10.4524C14.438 10.4439 14.9574 10.4322 15.4152 10.4258C16.3226 10.4136 16.5852 10.385 16.8224 10.2722C16.9584 10.2075 16.9931 10.1572 17.0936 9.8764C17.3833 9.0703 18.0841 7.85194 18.5568 7.3333C19.304 6.51402 20.4267 5.85724 21.5324 5.59352C22.002 5.48156 23.0549 5.42801 23.8109 5.47787C25.0403 5.55868 26.8328 5.93709 29.5195 6.68261C31.5921 7.2581 32.8307 7.31485 33.9665 6.88706C34.2761 6.77025 34.4259 6.67983 35.0102 6.2547C35.4751 5.91641 35.7981 5.65066 36.0248 5.419C36.2075 5.23208 36.6512 4.83438 37.0106 4.53512L37.6643 3.99106L37.136 3.21091C36.0937 1.67098 35.5439 1.17979 34.4444 0.806013C33.6088 0.521668 32.7214 0.438598 31.9871 0.574804C31.5205 0.661386 29.9306 1.13815 28.7685 1.53928C28.272 1.71078 27.575 1.91799 27.2202 1.99979C26.4527 2.17639 24.8226 2.43295 23.6407 2.56307C22.6079 2.67686 21.1676 2.98328 20.0193 3.33321C19.5497 3.47641 18.8027 3.66833 18.3594 3.75995C17.4767 3.94214 17.2017 4.02213 16.4227 4.32379C15.9145 4.52063 15.8871 4.5371 15.2131 5.05074C14.8341 5.33985 14.445 5.66531 14.349 5.77464ZM9.26354 12.6668C8.88279 13.1765 8.76164 13.7236 8.73921 15.0356C8.71046 16.7084 9.27178 18.1736 10.4821 19.5837C10.7181 19.8587 11.0614 20.2356 11.2454 20.4208C12.6129 21.8001 13.1454 22.395 14.4758 24.0282C15.3353 25.0837 15.8943 25.5589 17.2031 26.3461C17.6024 26.5859 18.4298 27.1136 19.0421 27.5187C20.2743 28.3337 20.8033 28.6028 21.6824 28.8631C23.5069 29.4027 23.3944 29.3801 23.7532 29.2768C23.9195 29.229 24.0794 29.1834 24.1078 29.1755C24.1362 29.1676 24.1327 29.0768 24.0996 28.9732C24.0475 28.8115 24.0072 28.7601 23.8086 28.6035C23.4686 28.3345 22.8124 27.5291 22.4293 26.9102C22.2514 26.6219 22.0946 26.3554 22.0808 26.3173C22.0378 26.1953 21.118 24.6429 20.6758 23.9452C20.4405 23.5739 20.184 23.1466 20.1059 22.9963C19.6959 22.205 18.9454 20.5085 18.0865 18.4313C17.7628 17.6479 17.1535 15.7489 17.0155 15.0909C16.7523 13.8371 16.6608 12.3272 16.7809 11.2116L16.834 10.7198L16.6035 10.7877C16.4767 10.8254 15.8197 10.8805 15.1431 10.9104C14.4668 10.9406 13.8912 10.9811 13.8643 11.0007C13.8378 11.02 13.7792 11.0255 13.7345 11.0133C13.5198 10.9525 12.0434 11.222 11.35 11.4486C11.05 11.5468 10.4319 11.79 10.2239 11.892C9.91724 12.0432 9.44574 12.4234 9.26354 12.6668ZM19.0391 7.73323C18.6983 8.10828 18.445 8.48981 18.0768 9.18479C17.6647 9.96277 17.5264 10.343 17.4032 11.0362C17.1421 12.5084 17.3409 14.3267 17.9819 16.3315C18.3628 17.5224 18.4875 17.8482 19.1193 19.3044C20.2633 21.9406 20.6092 22.6406 21.2585 23.6373C21.7783 24.4346 22.3836 25.4743 22.7773 26.2456C22.9386 26.5611 23.1209 26.834 23.4948 27.3192C24.1214 28.1334 24.2534 28.2399 24.5921 28.2069C24.7274 28.1937 25.2345 28.2112 25.7195 28.2454C26.2161 28.2803 26.7612 28.284 26.9673 28.2536C28.1278 28.0811 28.9565 28.2086 29.9192 28.7081C30.4619 28.9897 31.0621 29.4895 31.2068 29.78L31.2922 29.9516L31.3783 29.7346C31.5147 29.3917 31.6721 29.1547 31.9802 28.8296C32.3278 28.463 32.4187 28.3115 32.7133 27.6109C32.8391 27.3116 33.0051 26.9559 33.0823 26.8208C33.6357 25.8489 34.6056 24.2056 34.821 23.8741C34.9636 23.6543 35.3077 23.1237 35.5855 22.6947C37.3116 20.0271 37.6675 19.507 38.0599 19.077C38.423 18.6793 38.5008 18.5601 38.9201 17.76C39.9185 15.854 41.6595 11.6013 42.1238 9.93359C42.454 8.74754 42.6237 7.37831 42.5701 6.33224C42.5101 5.16264 42.039 3.62316 41.5654 3.05272C41.3975 2.85058 41.3473 2.81746 41.1529 2.78367C40.7057 2.70582 40.1586 2.90723 39.3475 3.4492C38.5684 3.9697 37.0541 5.17712 36.3933 5.80531C35.197 6.94153 34.2595 7.46415 33.0746 7.65557C32.1249 7.80869 30.9039 7.68288 29.3229 7.2678C25.2122 6.1891 23.3525 5.92863 21.8287 6.21747C21.4233 6.29428 20.664 6.56481 20.3098 6.75815C19.9717 6.94263 19.2643 7.48523 19.0391 7.73323ZM1.93345 33.9886C1.38511 34.6551 1.07034 35.2961 1.04142 35.8051C1.033 35.9528 1.10012 36.5213 1.18977 37.0683C1.46272 38.7241 1.48828 39.4975 1.31248 40.8265C1.13464 42.175 1.15944 42.4488 1.50327 42.9436C1.7992 43.3694 2.19393 43.5551 3.77863 44.0151C4.31181 44.1697 5.03379 44.383 5.38329 44.489C7.75411 45.209 10.1027 45.333 12.7846 44.8798C13.4231 44.7721 14.1807 44.613 14.4679 44.5259C15.4594 44.2263 16.1844 44.1618 17.2861 44.2758L17.9063 44.3397L17.7463 44.1731C17.6584 44.0809 17.1195 43.5754 16.5494 43.0491C15.5991 42.1716 14.4411 40.991 12.973 39.4034C10.5886 36.8249 8.72288 35.0127 7.49829 34.0847C5.89628 32.8714 4.58105 32.4202 3.59895 32.7478C3.0843 32.9197 2.38382 33.4416 1.93345 33.9886ZM9.58506 32.698C9.3342 33.1457 9.01383 34.5213 9.12452 34.6734C9.15847 34.7201 9.33553 34.8941 9.51786 35.0603C10.3439 35.8141 12.1063 37.6197 13.4035 39.0426C15.2297 41.045 16.8041 42.6131 18.7038 44.3206L19.0758 44.6551L18.9825 44.4369C18.8374 44.0981 18.7594 43.4533 18.7858 42.815C18.7946 42.6009 18.7825 42.2441 18.7589 42.0222C18.6978 41.4476 18.7078 41.2535 18.8457 40.3048C19.0685 38.7705 19.085 37.9792 18.9191 36.77C18.7478 35.523 18.6369 35.2202 18.2147 34.8438C17.8736 34.5391 17.5612 34.3614 17.0114 34.1586C16.4049 33.9343 15.9023 33.8329 14.901 33.7318C13.3697 33.5771 12.5843 33.3403 11.2506 32.6303C10.8074 32.394 10.3639 32.1859 10.2652 32.1665C10.1011 32.1345 10.0706 32.1451 9.90148 32.2966C9.80026 32.3877 9.65813 32.5683 9.58506 32.698ZM41.8546 12.618C41.3897 13.9009 40.3374 16.2832 39.7812 17.3116C39.5707 17.7009 39.2881 18.2268 39.1537 18.4801C38.8526 19.0468 38.8137 19.1064 38.4668 19.5288C38.1643 19.8975 37.5224 20.8456 36.6104 22.2722C36.2897 22.7736 35.8585 23.4355 35.6524 23.7432C35.2387 24.3605 35.1483 24.5063 34.4676 25.6591C34.2106 26.0944 33.8841 26.6435 33.7419 26.8799C33.5998 27.1162 33.3647 27.5768 33.2188 27.9034C32.9126 28.5898 32.7982 28.763 32.3723 29.182C32.1809 29.3706 31.9888 29.6131 31.8712 29.8146L31.6809 30.1417L32.0106 30.2221C32.1919 30.2665 32.5405 30.3419 32.7847 30.3899C33.0289 30.438 33.4145 30.5252 33.6413 30.5836C33.8681 30.642 34.1107 30.6911 34.1806 30.6931C34.6629 30.7054 36.3939 30.5907 36.5332 30.5375C36.8635 30.4109 37.9829 29.6596 38.5842 29.1606C39.0962 28.7358 39.1893 28.6391 39.4412 28.2741C40.4823 26.7629 41.8629 24.8787 42.3057 24.3651C42.5906 24.0342 43.0085 23.5119 43.2343 23.2049C43.4597 22.8975 43.8281 22.4177 44.0524 22.1391C44.2767 21.8604 44.6706 21.348 44.9279 21.0007C45.8353 19.7765 46.5565 18.99 47.6425 18.0414C48.1956 17.5583 48.6332 17.2805 49.3864 16.9338C50.2709 16.527 50.75 16.1349 50.8071 15.7706C50.8288 15.6324 50.8069 15.5799 50.6148 15.3159C50.1899 14.732 49.263 13.9129 48.6794 13.6054C48.0722 13.2854 46.3606 12.9728 44.7138 12.8806C44.2896 12.8568 43.7737 12.7993 43.5673 12.7529C42.6564 12.5476 42.476 12.4932 42.2549 12.3581C42.126 12.279 42.0142 12.2193 42.007 12.2246C41.9997 12.2305 41.9307 12.4072 41.8546 12.618ZM24.6166 28.8674C24.5799 29.0287 24.6983 29.2982 25.0776 29.9198C25.2509 30.2034 25.5245 30.6519 25.6856 30.917C26.0849 31.5734 26.3347 32.1373 26.5457 32.8605C26.9435 34.2212 27.1452 34.7063 27.4563 35.0526C27.5697 35.179 27.7274 35.3225 27.8073 35.3717C27.9355 35.4507 27.9618 35.4495 28.038 35.3599C28.0853 35.3046 28.1771 35.1345 28.2413 34.9822C28.3059 34.8296 28.4223 34.5755 28.5 34.4179C28.5779 34.2597 28.7058 33.9003 28.7839 33.619C28.8624 33.3373 28.9687 33.0104 29.0203 32.8917C29.1614 32.5679 29.4715 32.1404 29.6711 31.9934C29.7739 31.918 29.9646 31.6951 30.1253 31.4627C30.2776 31.2428 30.4874 30.9823 30.592 30.8847C30.8309 30.6604 30.8624 30.5945 30.8441 30.356C30.8363 30.2497 30.8617 30.1245 30.9006 30.0776C30.9812 29.9812 30.9705 29.9681 30.5588 29.6636C30.217 29.4105 29.6404 29.1134 29.2055 28.9657C28.4647 28.7138 27.8803 28.6656 27.0669 28.7886C26.7744 28.8326 26.3622 28.8268 25.6904 28.7684C25.1633 28.7226 24.7119 28.6988 24.6879 28.7152C24.664 28.7325 24.6318 28.8006 24.6166 28.8674ZM5.28347 45.6014C5.30536 46.5434 5.43417 47.0183 5.76891 47.3915C6.07021 47.7276 6.57842 48.1011 7.20896 48.45C7.52182 48.6227 7.9672 48.8748 8.19834 49.0101C8.76955 49.3435 9.21746 49.5004 9.83266 49.5836C10.8268 49.7178 11.6639 49.602 12.7247 49.1834C13.4614 48.8929 13.8277 48.6461 14.2872 48.1307C14.7596 47.6012 15.3956 47.0631 16.2265 46.4904C17.3187 45.7375 17.8189 45.5273 18.7437 45.4317L19.0887 45.396L18.9517 45.2595C18.8344 45.1429 18.7154 45.1076 18.1256 45.0146C16.529 44.7629 15.768 44.7914 14.617 45.1457C14.0781 45.3114 12.2625 45.634 11.5177 45.696C10.6883 45.7651 8.96565 45.7606 8.26461 45.6876C7.59428 45.6177 6.46322 45.3957 5.73233 45.1901C5.50283 45.1255 5.30513 45.0808 5.29356 45.0904C5.28133 45.0999 5.2771 45.3298 5.28347 45.6014ZM42.1371 36.5125C42.1049 36.602 42.0197 37.0249 41.9479 37.452C41.8145 38.2442 41.7105 38.6158 41.3385 39.6297C40.9459 40.6998 40.5835 41.2595 39.67 42.2061C39.3972 42.4882 39.094 42.8226 38.9956 42.9487C38.7511 43.2618 38.5317 43.8641 38.4395 44.4749C38.3705 44.9313 38.3758 45.062 38.4927 45.7197C38.6725 46.7313 38.819 47.162 39.2893 48.0592C39.8566 49.1416 40.2767 49.7006 42.3323 52.1115C43.4638 53.438 44.1865 54.35 45.0987 55.6021L45.8961 56.6965L46.0058 56.1902C46.2983 54.8407 46.3642 54.0831 46.2983 52.8441C46.2209 51.3877 46.0362 50.2282 45.6202 48.5877C45.3491 47.5183 45.2334 46.9068 45.1239 45.9607C45.0862 45.6365 44.9964 44.958 44.9244 44.4521C44.7502 43.2322 44.6951 42.6683 44.655 41.6861C44.5915 40.1366 44.4561 39.42 44.0087 38.2763C43.792 37.7221 43.7319 37.6108 43.3868 37.1286C42.6214 36.0591 42.3479 35.9245 42.1371 36.5125ZM45.091 38.6655C44.928 38.9623 44.9212 39.078 45.0388 39.5559C45.1679 40.0822 45.199 40.3654 45.2615 41.5807C45.3158 42.6413 45.3703 43.1239 45.7134 45.5897C45.9246 47.1066 46.0006 47.5009 46.3198 48.7169C46.682 50.0995 46.8639 51.3371 46.9377 52.9208C46.9977 54.2146 46.9324 54.8887 46.5893 56.495L46.5498 56.6798L46.7439 56.5084C46.8507 56.4139 47.145 56.1556 47.3985 55.9346C48.1864 55.247 48.7867 54.6042 49.2396 53.9642C49.4675 53.6418 49.7738 53.221 49.9205 53.0284C50.4494 52.336 51.5745 50.2647 51.9441 49.3041C52.241 48.531 52.3348 48.3509 53.0394 47.1935C54.0685 45.5041 54.4793 44.5594 54.6441 43.506C54.7273 42.9737 54.7337 42.7659 54.6765 42.4356L54.606 42.0256L54.258 41.5506C53.4137 40.3982 52.2417 39.7719 49.8641 39.2042C49.1017 39.0221 48.5852 38.8403 47.6759 38.4349C47.0496 38.1555 46.2766 37.9828 45.9238 38.0427C45.6162 38.0954 45.2564 38.3647 45.091 38.6655ZM25.084 55.0938C24.8818 55.3193 24.5365 55.7225 24.3163 55.9901C23.5095 56.9711 22.7872 58.5127 22.8705 59.0764C22.8953 59.2451 22.8994 59.2491 23.2336 59.4289C23.8902 59.7833 24.7705 60.3218 25.7768 60.9856C26.6497 61.5608 28.6756 62.8207 30.1326 63.6945C30.6986 64.0335 31.8594 64.6087 31.8952 64.567C31.9111 64.5491 31.8769 64.4439 31.8187 64.3337C31.6526 64.017 31.5517 63.6043 31.4789 62.9453C31.3984 62.2165 31.2679 61.6645 30.9415 60.6759C30.6294 59.7316 30.3546 59.1238 29.791 58.1326C29.3574 57.3695 29.292 57.2755 28.3969 56.1298C27.6558 55.1814 27.38 54.8557 27.0894 54.5885C26.8871 54.4021 26.6827 54.2311 26.6357 54.2079C26.5409 54.162 26.1853 54.2054 25.9754 54.288C25.7936 54.3599 25.5253 54.6021 25.084 55.0938ZM18.3338 60.7893C17.9294 61.1979 16.602 62.7648 16.0891 63.4386C15.7757 63.8505 15.6448 64.1756 15.6433 64.5463C15.6417 64.9837 15.7398 65.2913 15.9947 65.6472C16.5933 66.4835 17.6173 67.0346 19.0041 67.2672C19.649 67.3754 20.0813 67.3985 21.213 67.3856C23.0114 67.3652 24.1761 67.1954 25.6479 66.7395C26.5094 66.4724 27.6608 66.1998 29.0458 65.9347C29.4026 65.8666 29.9293 65.7415 30.2161 65.657C30.5032 65.5729 31.0167 65.4639 31.3572 65.4157L31.9764 65.3278L31.7773 65.2429C31.1021 64.9561 30.2686 64.5274 29.6062 64.1275C27.6475 62.9433 26.2429 62.0721 25.2589 61.4303C23.0271 59.975 21.6632 59.28 21.0577 59.2889C20.6475 59.2955 20.0399 59.4846 19.5534 59.7574C19.3035 59.8974 18.7667 60.3519 18.3338 60.7893ZM37.992 49.201C37.9024 49.3382 37.7834 49.8604 37.8026 50.0333C37.8262 50.2489 39.0495 51.9564 39.8412 52.8797C40.41 53.5427 41.535 54.7074 41.882 54.9922C41.9644 55.0593 42.2892 55.2541 42.6042 55.4241C42.9185 55.594 43.3204 55.8238 43.4973 55.9347C43.6735 56.0455 44.0196 56.2248 44.2661 56.3327C44.5124 56.4401 44.8394 56.6014 44.993 56.6898C45.1462 56.7785 45.2735 56.8402 45.2755 56.8271C45.2858 56.7616 42.9516 53.7933 42.078 52.7608C40.5397 50.9429 39.806 50.0262 39.3873 49.399L39.0048 48.8255L38.803 48.8436C38.4201 48.8773 38.1157 49.0117 37.992 49.201ZM19.4186 68.2996C19.4236 68.441 19.4624 68.6983 19.5046 68.8718C19.8966 70.4729 19.8165 70.2713 20.3526 71.0057C20.8677 71.7112 21.0626 71.8978 21.604 72.2054C22.1805 72.5327 22.437 72.5363 23.1796 72.2276C24.3544 71.7388 25.5204 70.6294 26.9309 68.6573C27.4769 67.8944 27.857 67.481 28.4503 67.0069L28.9633 66.597L28.5669 66.6894C28.3488 66.7401 27.8439 66.8522 27.4453 66.9374C27.0462 67.023 26.3141 67.2179 25.819 67.3705C24.845 67.6702 23.7309 67.8896 22.8012 67.9643C22.1115 68.0199 20.628 68.0375 19.9567 67.9974C19.6903 67.9818 19.4582 67.9853 19.4412 68.0058C19.4239 68.0265 19.4139 68.1585 19.4186 68.2996ZM54.4593 45.7664C54.3185 46.0771 53.8933 46.853 53.5142 47.4909C52.992 48.3693 52.7686 48.7965 52.5925 49.2507C52.1864 50.3005 52.0547 50.5831 51.4477 51.7025C50.8937 52.7236 50.2379 53.7282 49.4069 54.8266C49.1541 55.1608 48.2803 56.0514 48.0125 56.248C47.8949 56.3341 47.6919 56.5091 47.5617 56.6368C47.2499 56.9426 46.9054 57.1939 46.7359 57.2389L46.5993 57.275L46.8485 57.3937C47.1065 57.5164 47.9352 57.6829 48.1415 57.6534C48.2063 57.6445 48.565 57.5466 48.9395 57.436C49.6029 57.2399 49.6275 57.2284 49.9269 56.9804C50.096 56.8399 50.4957 56.4574 50.8149 56.13C51.4693 55.4595 51.8284 54.9487 52.2818 54.0443C52.4629 53.6839 52.6288 53.4269 52.8273 53.2012C53.115 52.8741 53.4519 52.4189 53.9669 51.6612C54.1712 51.3606 54.428 51.0692 54.9187 50.5799C55.7526 49.7492 56.4697 48.9698 56.7125 48.6313C56.9568 48.2893 57.019 47.9551 56.9386 47.4136C56.8508 46.8247 56.7065 46.6303 55.8806 45.9907C55.5497 45.7342 55.1706 45.402 55.0391 45.2523C54.8032 44.9847 54.7983 44.9819 54.7566 45.0911C54.7336 45.1519 54.5996 45.456 54.4593 45.7664ZM57.3294 52.794C57.2855 53.0227 57.155 53.9839 57.039 54.93C56.923 55.876 56.8 56.775 56.7656 56.9276C56.6587 57.4035 56.232 59.6525 56.044 60.7304C55.8106 62.0711 55.6662 62.5911 55.0901 64.1655C54.2777 66.3853 54.1303 66.882 53.5104 69.4723C53.0978 71.1982 52.6982 73.5058 52.6396 74.4942C52.5926 75.2937 52.5932 77.8829 52.6397 78.561C52.6849 79.2116 52.8838 80.5506 53.0318 81.2C53.1965 81.925 53.9949 84.0457 54.4545 84.9808C54.8671 85.8202 55.1227 86.2933 55.153 86.2713C55.1617 86.2649 55.1323 86.1488 55.088 86.0139C54.9317 85.541 54.2275 81.0681 54.2002 80.3783C54.1727 79.6707 54.2247 79.1026 54.4289 77.8915C54.5769 77.011 54.7064 76.4752 55.0265 75.4178C55.5363 73.7332 55.5487 73.6778 55.9017 71.4023C56.1962 69.5007 56.4582 68.1125 56.8456 66.3974C56.9786 65.8092 57.1109 64.9835 57.1922 64.2327C57.2648 63.5655 57.3888 62.7244 57.4679 62.364C57.6514 61.529 57.8475 60.126 57.868 59.4972C57.8772 59.2294 57.8647 58.6739 57.8406 58.2633C57.8165 57.8526 57.7958 57.2109 57.7947 56.8374C57.7932 56.4642 57.7687 55.7719 57.7399 55.299C57.7111 54.8262 57.6828 54.186 57.6766 53.8765C57.6651 53.2641 57.6366 52.6379 57.6008 52.1858L57.5779 51.8978L57.4932 52.1382C57.4473 52.2702 57.3734 52.5653 57.3294 52.794ZM58.1234 52.196C58.1403 52.247 58.1818 52.942 58.2151 53.7412C58.2487 54.5401 58.2912 55.43 58.3104 55.7183C58.3289 56.0066 58.346 56.5279 58.3483 56.8767C58.3503 57.2251 58.3733 57.8525 58.3989 58.2707C58.4246 58.6884 58.4421 59.2245 58.4377 59.4622C58.4265 60.0999 58.2688 61.3159 58.058 62.3889C57.9558 62.9095 57.8234 63.8211 57.7641 64.4142C57.6906 65.1518 57.5662 65.9103 57.3711 66.8129C56.9607 68.7123 56.8343 69.406 56.4909 71.6571C56.1766 73.7187 56.0918 74.0961 55.5533 75.8242C55.2927 76.6614 55.2038 77.0625 55.0184 78.2413C54.7755 79.7839 54.7613 80.353 54.9378 81.4031C55.0393 82.0069 55.3225 83.9309 55.4017 84.5527C55.4696 85.0904 55.4779 85.0189 55.4949 83.7306C55.5292 81.1352 55.6634 80.1121 56.5447 75.7132C56.7802 74.5404 57.1504 72.5594 57.6104 70.0146C57.7092 69.4686 58.0329 67.7065 58.3295 66.0992C59.2365 61.1891 59.2442 61.1289 59.2423 59.1901C59.2415 58.6498 59.2491 57.8343 59.259 57.378C59.2825 56.3153 59.2368 55.4544 59.1228 54.8063C58.9707 53.9434 58.6199 52.9093 58.2432 52.2116C58.1541 52.0478 58.0702 52.0368 58.1234 52.196ZM21.5331 78.8356C21.5595 78.9053 21.6087 78.9402 21.6884 78.9455C21.9678 78.9639 23.8137 79.6434 24.305 79.9085C25.8724 80.7541 26.4754 81.101 26.955 81.4327C27.2583 81.6425 27.851 82.0254 28.2712 82.2835C28.6918 82.5415 29.3763 82.9828 29.7932 83.265C30.2097 83.5468 30.8967 84.0083 31.3206 84.2906C31.7438 84.5727 32.3855 85.0063 32.7462 85.2551C33.107 85.5032 34.0241 86.1019 34.7848 86.5858C35.5453 87.0694 36.4832 87.6663 36.8691 87.9124C37.2548 88.1581 37.9675 88.5928 38.453 88.8778C38.9381 89.163 39.6166 89.5699 39.9612 89.7822C40.8632 90.3385 41.407 90.6159 42.355 91.0036C42.8163 91.1925 43.6394 91.5312 44.1842 91.7574C45.0259 92.1059 46.3791 92.5973 46.4185 92.5687C46.4253 92.5637 46.2314 92.4501 45.9883 92.3159C44.8659 91.6972 43.4371 90.8493 41.7162 89.7817C38.8308 87.9913 38.0819 87.486 35.5599 85.6256C32.3082 83.2267 29.6264 81.4199 27.851 80.4326C26.7282 79.8077 25.1682 79.1307 24.1419 78.8226C22.8682 78.4404 21.385 78.4473 21.5331 78.8356ZM22.8685 80.2122C23.0694 80.3776 23.8545 80.95 24.6128 81.4832C26.7315 82.9733 28.1316 84.0916 29.308 85.2328C29.5803 85.4971 30.2822 86.2269 30.8674 86.8543C33.122 89.2719 34.2378 90.2813 35.8895 91.3981C36.9796 92.1356 39.2688 93.2939 40.6499 93.8069C41.2074 94.014 42.6818 94.3383 44.1736 94.5822C45.2757 94.762 46.1612 94.7716 47.1171 94.6128C47.4155 94.5633 47.8414 94.5035 48.0633 94.4796C48.2849 94.4559 48.7669 94.3657 49.1348 94.2796C50.1293 94.0463 50.0749 94.0719 49.7465 93.9917C49.5905 93.9533 49.2093 93.8842 48.8997 93.8385C48.3327 93.7538 46.7694 93.3758 45.9377 93.1216C45.2892 92.9233 44.8505 92.7568 43.4225 92.1666C41.1118 91.2114 40.8052 91.0631 39.5387 90.2927C39.1806 90.0745 38.4422 89.6324 37.8981 89.3106C37.3536 88.9884 36.5394 88.4842 36.0881 88.1906C35.6369 87.8963 34.7805 87.3468 34.1853 86.9693C33.5899 86.5914 32.6954 86.0016 32.1971 85.6593C30.3977 84.4207 29.0854 83.5444 28.244 83.0188C27.7721 82.7238 27.0591 82.2592 26.6599 81.9869C25.7389 81.359 23.8584 80.3397 23.0643 80.0384C22.7384 79.9146 22.4783 79.8352 22.4869 79.8621C22.4954 79.8889 22.6674 80.0464 22.8685 80.2122ZM18.9941 94.8988C19.1035 94.9544 19.5482 95.1467 19.9818 95.3261C22.516 96.3734 23.2061 96.6169 24.4369 96.9004C24.7868 96.9806 25.4104 97.1256 25.823 97.2228C26.235 97.3199 26.878 97.4654 27.2519 97.5467C27.6251 97.6279 28.3673 97.83 28.9011 97.9957C29.4345 98.1617 30.2273 98.3681 30.6625 98.4548C31.0976 98.5415 31.7021 98.6795 32.006 98.7618C32.9319 99.0124 34.0618 99.2312 36.8191 99.6939C39.3402 100.117 41.1793 100.353 42.2515 100.389C42.7244 100.406 43.3103 100.332 43.3224 100.255C43.3358 100.172 42.696 99.8286 41.8701 99.4756C40.9392 99.0772 39.988 98.7487 38.1889 98.2028C36.0714 97.5601 35.0975 97.3781 33.3627 97.3012C31.7653 97.2299 31.4937 97.2047 29.8356 96.9775C27.3199 96.6327 24.4475 96.0635 21.7481 95.3754C20.3763 95.0256 18.8953 94.7241 18.8203 94.7787C18.8063 94.7889 18.8844 94.8428 18.9941 94.8988ZM20.3038 96.1055C20.9981 96.5396 22.4345 97.245 23.7091 97.7781C24.5273 98.1198 26.3751 98.7939 26.9288 98.9527C29.2077 99.6062 30.0978 99.8109 31.8918 100.094C32.9015 100.254 34.2459 100.438 34.8787 100.503C35.5112 100.568 36.2209 100.641 36.4552 100.666C36.6893 100.691 37.1618 100.726 37.5044 100.743C37.847 100.761 38.4117 100.796 38.7589 100.82C39.3539 100.863 40.15 100.855 40.4367 100.803L40.5648 100.78L40.4105 100.767C39.5126 100.693 38.4803 100.549 37.5533 100.37C36.9366 100.251 36.0849 100.11 35.6605 100.055C34.7589 99.9408 33.0127 99.5902 31.9507 99.3109C31.5407 99.2031 30.9007 99.0555 30.5279 98.9827C30.1554 98.9096 29.5404 98.7525 29.1611 98.6334C28.0641 98.2885 27.2251 98.0745 24.6906 97.4927C23.2322 97.1578 22.2072 96.8099 20.4695 96.0592C20.1737 95.9315 19.9306 95.8362 19.9284 95.8476C19.9266 95.8594 20.0954 95.9751 20.3038 96.1055Z" fill="#C8A898"/>
</svg>
