<svg width="254" height="233" viewBox="0 0 254 233" fill="none" xmlns="http://www.w3.org/2000/svg">
<path d="M248.964 40.0556C239.036 19.3823 215.025 8.77701 192.741 5.21874C150.515 -1.51825 104.69 0.917672 62.2347 4.39745C48.0996 5.56009 32.1083 4.29223 19.5734 12.2237C6.8521 20.2452 1.6865 36.0174 0.60878 50.3048C-1.14726 73.5511 5.54117 96.5165 12.1404 118.866C20.2653 146.324 26.9966 176.871 43.7762 200.629C58.2216 221.089 85.3723 237.974 111.18 230.596C137.963 222.928 162.273 195.744 179.652 175.406C193.321 159.414 206.093 142.486 219.742 126.302C237.133 105.674 258.822 79.5077 252.518 50.4558C251.713 46.7355 250.504 43.2763 248.964 40.0556Z" fill="#F2ECB3"/>
</svg>
